<?xml version="1.0" encoding="UTF-8" standalone="no"?>
<svg
   xmlns:dc="http://purl.org/dc/elements/1.1/"
   xmlns:cc="http://creativecommons.org/ns#"
   xmlns:rdf="http://www.w3.org/1999/02/22-rdf-syntax-ns#"
   xmlns:svg="http://www.w3.org/2000/svg"
   xmlns="http://www.w3.org/2000/svg"
   viewBox="0 0 211.25 310"
   height="310"
   width="211.25"
   xml:space="preserve"
   version="1.1"
   id="svg2"><metadata
     id="metadata8"><rdf:RDF><cc:Work
         rdf:about=""><dc:format>image/svg+xml</dc:format><dc:type
           rdf:resource="http://purl.org/dc/dcmitype/StillImage" /></cc:Work></rdf:RDF></metadata><defs
     id="defs6"><clipPath
       id="clipPath12"
       clipPathUnits="userSpaceOnUse"><path
         id="path14"
         d="m -2,-2 169,0 0,248 -169,0 0,-248 z" /></clipPath></defs><g
     clip-path="url(#clipPath12)"
     transform="matrix(1.25,0,0,-1.25,2.5,307.5)"
     id="g10"><g
       transform="scale(0.1,0.1)"
       id="g16"><path
         id="path18"
         style="fill:none;stroke:#000000;stroke-width:11.95530033;stroke-linecap:butt;stroke-linejoin:miter;stroke-miterlimit:10;stroke-dasharray:none;stroke-opacity:1"
         d="m 190,401.602 1296.02,0 L 190,2349.95 190,401.602 Z" /><path
         id="path20"
         style="fill:none;stroke:#000000;stroke-width:11.95530033;stroke-linecap:butt;stroke-linejoin:miter;stroke-miterlimit:10;stroke-dasharray:none;stroke-opacity:1"
         d="m 190,401.602 1440.02,0 L 190,2246.07 190,401.602 Z" /><g
         transform="matrix(122.4,0,0,-106.8,776.684,294.878)"
         id="g22"><rect
           id="rect24"
           style="fill:#ffffff;fill-opacity:1;fill-rule:nonzero"
           transform="matrix(1,0,0,-1,0,1)"
           height="1"
           width="1"
           y="0"
           x="0" /></g><g
         transform="scale(10,10)"
         id="g26"><text
           id="text28"
           style="font-variant:normal;font-weight:normal;font-size:10.90909958px;font-family:CMMI10;-inkscape-font-specification:CMMI10;writing-mode:lr-tb;fill:#000000;fill-opacity:1;fill-rule:nonzero;stroke:none"
           transform="matrix(1,0,0,-1,80.6805,21.8199)"><tspan
             id="tspan30"
             y="0"
             x="0">x</tspan></text>
</g><path
         id="path32"
         style="fill:#000000;fill-opacity:1;fill-rule:nonzero;stroke:none"
         d="m 209.93,381.672 1.086,-2.442 1.277,-2.359 1.461,-2.266 1.637,-2.183 1.812,-2.09 1.988,-2.008 2.164,-1.937 2.329,-1.856 2.496,-1.769 2.644,-1.692 2.813,-1.625 2.98,-1.539 3.117,-1.472 3.278,-1.407 3.414,-1.339 3.57,-1.262 3.703,-1.199 3.844,-1.129 3.988,-1.078 4.11,-1.012 4.254,-0.957 4.359,-0.899 4.496,-0.836 4.613,-0.781 4.735,-0.734 4.847,-0.68 4.965,-0.629 5.063,-0.582 5.175,-0.527 5.274,-0.492 5.383,-0.442 5.472,-0.406 5.571,-0.363 5.656,-0.328 5.746,-0.286 5.836,-0.254 5.922,-0.218 5.996,-0.176 6.066,-0.156 6.153,-0.129 6.218,-0.102 6.282,-0.066 6.339,-0.043 6.418,-0.02 6.469,-0.011 6.528,0.019 6.582,0.035 6.625,0.055 6.668,0.066 6.722,0.075 6.758,0.101 6.801,0.098 6.832,0.109 6.867,0.121 6.898,0.121 6.922,0.133 6.946,0.121 6.964,0.133 6.989,0.129 6.996,0.121 7.012,0.121 7.019,0.121 7.02,0.11 7.019,0.101 7.031,0.086 7.024,0.078 7.019,0.067 7.008,0.054 7,0.02 6.977,0.023 6.965,-0.011 6.941,-0.032 6.922,-0.046 6.891,-0.075 6.867,-0.109 6.82,-0.133 6.801,-0.156 6.758,-0.195 6.711,-0.219 6.671,-0.266 6.625,-0.285 6.567,-0.34 6.515,-0.375 6.461,-0.406 6.407,-0.461 6.34,-0.496 6.281,-0.535 6.207,-0.594 6.133,-0.648 6.062,-0.684 5.988,-0.746 5.911,-0.789 5.824,-0.86 5.734,-0.898 5.649,-0.969 5.558,-1.031 5.461,-1.09 5.371,-1.14 5.262,-1.219 5.164,-1.278 5.055,-1.351 4.945,-1.414 4.832,-1.496 4.723,-1.559 4.593,-1.637 4.485,-1.714 4.347,-1.793 4.231,-1.868 4.098,-1.945 3.968,-2.031 3.832,-2.11 3.68,-2.195 3.551,-2.285 3.406,-2.387 3.262,-2.461 3.097,-2.558 2.957,-2.649 2.79,-2.746 2.636,-2.836 2.473,-2.941 2.484,2.941 2.625,2.836 2.801,2.746 2.957,2.649 3.098,2.558 3.261,2.461 3.395,2.387 3.551,2.285 3.691,2.195 3.832,2.11 3.965,2.031 4.098,1.945 4.218,1.868 4.364,1.793 4.484,1.714 4.59,1.637 4.727,1.559 4.832,1.496 4.945,1.414 5.055,1.351 5.16,1.278 5.265,1.219 5.36,1.14 5.472,1.09 5.559,1.031 5.648,0.969 5.735,0.898 5.82,0.86 5.902,0.789 5.997,0.746 6.066,0.684 6.129,0.648 6.207,0.594 6.273,0.535 6.35,0.496 6.4,0.461 6.47,0.406 6.51,0.375 6.57,0.34 6.63,0.285 6.66,0.266 6.72,0.219 6.76,0.195 6.79,0.156 6.83,0.133 6.86,0.109 6.89,0.075 6.92,0.046 6.95,0.032 6.96,0.011 6.98,-0.023 7,-0.02 7.01,-0.054 7.02,-0.067 7.02,-0.078 7.02,-0.086 7.03,-0.101 7.02,-0.11 7.02,-0.121 7.01,-0.121 7,-0.121 6.99,-0.129 6.96,-0.133 6.94,-0.121 6.93,-0.133 6.9,-0.121 6.86,-0.121 6.84,-0.109 6.79,-0.098 6.76,-0.101 6.72,-0.075 6.68,-0.066 6.62,-0.055 6.58,-0.035 6.53,-0.019 6.47,0.011 6.41,0.02 6.35,0.043 6.28,0.066 6.22,0.102 6.14,0.129 6.07,0.156 6,0.176 5.91,0.218 5.84,0.254 5.75,0.286 5.66,0.328 5.57,0.363 5.47,0.406 5.39,0.442 5.27,0.492 5.17,0.527 5.07,0.582 4.96,0.629 4.85,0.68 4.72,0.734 4.62,0.781 4.49,0.836 4.37,0.899 4.26,0.957 4.1,1.012 3.98,1.078 3.85,1.129 3.71,1.199 3.56,1.262 3.43,1.339 3.27,1.407 3.12,1.472 2.97,1.539 2.81,1.625 2.66,1.692 2.49,1.769 2.33,1.856 2.17,1.937 1.99,2.008 1.81,2.09 1.64,2.183 1.46,2.266 1.27,2.359 1.09,2.442 -1.58,-3.418 -1.75,-3.309 -1.91,-3.183 -2.09,-3.055 -2.24,-2.957 -2.4,-2.82 -2.55,-2.727 -2.71,-2.605 -2.86,-2.504 -2.99,-2.395 -3.16,-2.285 -3.29,-2.187 -3.43,-2.086 -3.57,-1.989 -3.69,-1.89 -3.83,-1.789 -3.97,-1.703 -4.08,-1.618 -4.2,-1.527 -4.34,-1.426 -4.45,-1.351 -4.55,-1.274 -4.67,-1.187 -4.78,-1.11 -4.89,-1.035 -4.99,-0.953 -5.08,-0.879 -5.2,-0.812 -5.28,-0.75 -5.38,-0.68 -5.46,-0.606 -5.55,-0.546 -5.63,-0.496 -5.73,-0.43 -5.8,-0.371 -5.87,-0.321 -5.95,-0.261 -6.01,-0.211 -6.09,-0.164 -6.15,-0.121 -6.21,-0.067 -6.27,-0.031 -6.33,0.012 -6.39,0.054 -6.43,0.086 -6.48,0.121 -6.53,0.164 -6.57,0.188 -6.62,0.219 -6.65,0.242 -6.68,0.266 -6.71,0.296 -6.75,0.317 -6.78,0.332 -6.79,0.351 -6.82,0.36 -6.84,0.387 -6.85,0.394 -6.86,0.395 -6.88,0.406 -6.89,0.418 -6.88,0.418 -6.89,0.418 -6.89,0.418 -6.88,0.418 -6.89,0.406 -6.87,0.406 -6.85,0.395 -6.85,0.386 -6.82,0.372 -6.81,0.351 -6.79,0.34 -6.75,0.332 -6.73,0.297 -6.7,0.285 -6.66,0.254 -6.64,0.23 -6.59,0.196 -6.55,0.175 -6.5,0.145 -6.46,0.098 -6.41,0.066 -6.34,0.031 -6.3,-0.008 -6.244,-0.054 -6.183,-0.102 -6.11,-0.14 -6.05,-0.188 -5.977,-0.242 -5.902,-0.297 -5.832,-0.352 -5.758,-0.394 -5.68,-0.461 -5.582,-0.527 -5.515,-0.582 -5.415,-0.649 -5.32,-0.715 -5.226,-0.793 -5.145,-0.843 -5.031,-0.922 -4.934,-1 -4.82,-1.078 -4.727,-1.153 -4.613,-1.23 -4.492,-1.32 -4.387,-1.395 -4.25,-1.496 -4.14,-1.57 -4.024,-1.657 -3.887,-1.758 -3.757,-1.847 -3.625,-1.945 -3.496,-2.043 -3.352,-2.141 -3.219,-2.242 -3.062,-2.352 -2.926,-2.449 -2.777,-2.563 -2.625,-2.668 -2.473,-2.789 -2.461,2.789 -2.625,2.668 -2.781,2.563 -2.922,2.449 -3.067,2.352 -3.218,2.242 -3.352,2.141 -3.492,2.043 -3.625,1.945 -3.758,1.847 -3.891,1.758 -4.019,1.657 -4.141,1.57 -4.265,1.496 -4.371,1.395 -4.504,1.32 -4.606,1.23 -4.722,1.153 -4.825,1.078 -4.933,1 -5.039,0.922 -5.133,0.843 -5.231,0.793 -5.328,0.715 -5.414,0.649 -5.504,0.582 -5.593,0.527 -5.668,0.461 -5.758,0.394 -5.832,0.352 -5.903,0.297 -5.988,0.242 -6.043,0.188 -6.117,0.14 -6.176,0.102 -6.238,0.054 -6.297,0.008 -6.352,-0.031 -6.402,-0.066 -6.461,-0.098 -6.504,-0.145 -6.547,-0.175 -6.593,-0.196 -6.625,-0.23 -6.668,-0.254 -6.703,-0.285 -6.735,-0.297 -6.754,-0.332 -6.781,-0.34 -6.812,-0.351 -6.821,-0.372 -6.844,-0.386 -6.855,-0.395 -6.879,-0.406 -6.879,-0.406 -6.887,-0.418 -6.89,-0.418 -6.887,-0.418 -6.887,-0.418 -6.878,-0.418 -6.879,-0.406 -6.868,-0.395 -6.855,-0.394 -6.832,-0.387 -6.813,-0.36 -6.8,-0.351 -6.778,-0.332 -6.746,-0.317 -6.711,-0.296 -6.691,-0.266 -6.649,-0.242 -6.613,-0.219 -6.57,-0.188 -6.527,-0.164 -6.481,-0.121 -6.437,-0.086 -6.383,-0.054 -6.328,-0.012 -6.274,0.031 -6.207,0.067 -6.152,0.121 -6.086,0.164 -6.024,0.211 -5.941,0.261 -5.867,0.321 -5.801,0.371 -5.727,0.43 -5.632,0.496 -5.551,0.546 -5.469,0.606 -5.375,0.68 -5.285,0.75 -5.184,0.812 -5.086,0.879 -4.988,0.953 -4.89,1.035 -4.778,1.11 -4.668,1.187 -4.562,1.274 -4.45,1.351 -4.328,1.426 -4.207,1.527 -4.086,1.618 -3.957,1.703 -3.832,1.789 -3.703,1.89 -3.562,1.989 -3.438,2.086 -3.285,2.187 -3.152,2.285 -3,2.395 -2.856,2.504 -2.715,2.605 -2.546,2.727 -2.407,2.82 -2.242,2.957 -2.078,3.055 -1.91,3.183 -1.758,3.309 -1.57,3.418" /><path
         id="path34"
         style="fill:none;stroke:#000000;stroke-width:3.9849999;stroke-linecap:butt;stroke-linejoin:miter;stroke-miterlimit:10;stroke-dasharray:none;stroke-opacity:1"
         d="m 209.93,381.672 1.086,-2.442 1.277,-2.359 1.461,-2.266 1.637,-2.183 1.812,-2.09 1.988,-2.008 2.164,-1.937 2.329,-1.856 2.496,-1.769 2.644,-1.692 2.813,-1.625 2.98,-1.539 3.117,-1.472 3.278,-1.407 3.414,-1.339 3.57,-1.262 3.703,-1.199 3.844,-1.129 3.988,-1.078 4.11,-1.012 4.254,-0.957 4.359,-0.899 4.496,-0.836 4.613,-0.781 4.735,-0.734 4.847,-0.68 4.965,-0.629 5.063,-0.582 5.175,-0.527 5.274,-0.492 5.383,-0.442 5.472,-0.406 5.571,-0.363 5.656,-0.328 5.746,-0.286 5.836,-0.254 5.922,-0.218 5.996,-0.176 6.066,-0.156 6.153,-0.129 6.218,-0.102 6.282,-0.066 6.339,-0.043 6.418,-0.02 6.469,-0.011 6.528,0.019 6.582,0.035 6.625,0.055 6.668,0.066 6.722,0.075 6.758,0.101 6.801,0.098 6.832,0.109 6.867,0.121 6.898,0.121 6.922,0.133 6.946,0.121 6.964,0.133 6.989,0.129 6.996,0.121 7.012,0.121 7.019,0.121 7.02,0.11 7.019,0.101 7.031,0.086 7.024,0.078 7.019,0.067 7.008,0.054 7,0.02 6.977,0.023 6.965,-0.011 6.941,-0.032 6.922,-0.046 6.891,-0.075 6.867,-0.109 6.82,-0.133 6.801,-0.156 6.758,-0.195 6.711,-0.219 6.671,-0.266 6.625,-0.285 6.567,-0.34 6.515,-0.375 6.461,-0.406 6.407,-0.461 6.34,-0.496 6.281,-0.535 6.207,-0.594 6.133,-0.648 6.062,-0.684 5.988,-0.746 5.911,-0.789 5.824,-0.86 5.734,-0.898 5.649,-0.969 5.558,-1.031 5.461,-1.09 5.371,-1.14 5.262,-1.219 5.164,-1.278 5.055,-1.351 4.945,-1.414 4.832,-1.496 4.723,-1.559 4.593,-1.637 4.485,-1.714 4.347,-1.793 4.231,-1.868 4.098,-1.945 3.968,-2.031 3.832,-2.11 3.68,-2.195 3.551,-2.285 3.406,-2.387 3.262,-2.461 3.097,-2.558 2.957,-2.649 2.79,-2.746 2.636,-2.836 2.473,-2.941 2.484,2.941 2.625,2.836 2.801,2.746 2.957,2.649 3.098,2.558 3.261,2.461 3.395,2.387 3.551,2.285 3.691,2.195 3.832,2.11 3.965,2.031 4.098,1.945 4.218,1.868 4.364,1.793 4.484,1.714 4.59,1.637 4.727,1.559 4.832,1.496 4.945,1.414 5.055,1.351 5.16,1.278 5.265,1.219 5.36,1.14 5.472,1.09 5.559,1.031 5.648,0.969 5.735,0.898 5.82,0.86 5.902,0.789 5.997,0.746 6.066,0.684 6.129,0.648 6.207,0.594 6.273,0.535 6.35,0.496 6.4,0.461 6.47,0.406 6.51,0.375 6.57,0.34 6.63,0.285 6.66,0.266 6.72,0.219 6.76,0.195 6.79,0.156 6.83,0.133 6.86,0.109 6.89,0.075 6.92,0.046 6.95,0.032 6.96,0.011 6.98,-0.023 7,-0.02 7.01,-0.054 7.02,-0.067 7.02,-0.078 7.02,-0.086 7.03,-0.101 7.02,-0.11 7.02,-0.121 7.01,-0.121 7,-0.121 6.99,-0.129 6.96,-0.133 6.94,-0.121 6.93,-0.133 6.9,-0.121 6.86,-0.121 6.84,-0.109 6.79,-0.098 6.76,-0.101 6.72,-0.075 6.68,-0.066 6.62,-0.055 6.58,-0.035 6.53,-0.019 6.47,0.011 6.41,0.02 6.35,0.043 6.28,0.066 6.22,0.102 6.14,0.129 6.07,0.156 6,0.176 5.91,0.218 5.84,0.254 5.75,0.286 5.66,0.328 5.57,0.363 5.47,0.406 5.39,0.442 5.27,0.492 5.17,0.527 5.07,0.582 4.96,0.629 4.85,0.68 4.72,0.734 4.62,0.781 4.49,0.836 4.37,0.899 4.26,0.957 4.1,1.012 3.98,1.078 3.85,1.129 3.71,1.199 3.56,1.262 3.43,1.339 3.27,1.407 3.12,1.472 2.97,1.539 2.81,1.625 2.66,1.692 2.49,1.769 2.33,1.856 2.17,1.937 1.99,2.008 1.81,2.09 1.64,2.183 1.46,2.266 1.27,2.359 1.09,2.442 -1.58,-3.418 -1.75,-3.309 -1.91,-3.183 -2.09,-3.055 -2.24,-2.957 -2.4,-2.82 -2.55,-2.727 -2.71,-2.605 -2.86,-2.504 -2.99,-2.395 -3.16,-2.285 -3.29,-2.187 -3.43,-2.086 -3.57,-1.989 -3.69,-1.89 -3.83,-1.789 -3.97,-1.703 -4.08,-1.618 -4.2,-1.527 -4.34,-1.426 -4.45,-1.351 -4.55,-1.274 -4.67,-1.187 -4.78,-1.11 -4.89,-1.035 -4.99,-0.953 -5.08,-0.879 -5.2,-0.812 -5.28,-0.75 -5.38,-0.68 -5.46,-0.606 -5.55,-0.546 -5.63,-0.496 -5.73,-0.43 -5.8,-0.371 -5.87,-0.321 -5.95,-0.261 -6.01,-0.211 -6.09,-0.164 -6.15,-0.121 -6.21,-0.067 -6.27,-0.031 -6.33,0.012 -6.39,0.054 -6.43,0.086 -6.48,0.121 -6.53,0.164 -6.57,0.188 -6.62,0.219 -6.65,0.242 -6.68,0.266 -6.71,0.296 -6.75,0.317 -6.78,0.332 -6.79,0.351 -6.82,0.36 -6.84,0.387 -6.85,0.394 -6.86,0.395 -6.88,0.406 -6.89,0.418 -6.88,0.418 -6.89,0.418 -6.89,0.418 -6.88,0.418 -6.89,0.406 -6.87,0.406 -6.85,0.395 -6.85,0.386 -6.82,0.372 -6.81,0.351 -6.79,0.34 -6.75,0.332 -6.73,0.297 -6.7,0.285 -6.66,0.254 -6.64,0.23 -6.59,0.196 -6.55,0.175 -6.5,0.145 -6.46,0.098 -6.41,0.066 -6.34,0.031 -6.3,-0.008 -6.244,-0.054 -6.183,-0.102 -6.11,-0.14 -6.05,-0.188 -5.977,-0.242 -5.902,-0.297 -5.832,-0.352 -5.758,-0.394 -5.68,-0.461 -5.582,-0.527 -5.515,-0.582 -5.415,-0.649 -5.32,-0.715 -5.226,-0.793 -5.145,-0.843 -5.031,-0.922 -4.934,-1 -4.82,-1.078 -4.727,-1.153 -4.613,-1.23 -4.492,-1.32 -4.387,-1.395 -4.25,-1.496 -4.14,-1.57 -4.024,-1.657 -3.887,-1.758 -3.757,-1.847 -3.625,-1.945 -3.496,-2.043 -3.352,-2.141 -3.219,-2.242 -3.062,-2.352 -2.926,-2.449 -2.777,-2.563 -2.625,-2.668 -2.473,-2.789 -2.461,2.789 -2.625,2.668 -2.781,2.563 -2.922,2.449 -3.067,2.352 -3.218,2.242 -3.352,2.141 -3.492,2.043 -3.625,1.945 -3.758,1.847 -3.891,1.758 -4.019,1.657 -4.141,1.57 -4.265,1.496 -4.371,1.395 -4.504,1.32 -4.606,1.23 -4.722,1.153 -4.825,1.078 -4.933,1 -5.039,0.922 -5.133,0.843 -5.231,0.793 -5.328,0.715 -5.414,0.649 -5.504,0.582 -5.593,0.527 -5.668,0.461 -5.758,0.394 -5.832,0.352 -5.903,0.297 -5.988,0.242 -6.043,0.188 -6.117,0.14 -6.176,0.102 -6.238,0.054 -6.297,0.008 -6.352,-0.031 -6.402,-0.066 -6.461,-0.098 -6.504,-0.145 -6.547,-0.175 -6.593,-0.196 -6.625,-0.23 -6.668,-0.254 -6.703,-0.285 -6.735,-0.297 -6.754,-0.332 -6.781,-0.34 -6.812,-0.351 -6.821,-0.372 -6.844,-0.386 -6.855,-0.395 -6.879,-0.406 -6.879,-0.406 -6.887,-0.418 -6.89,-0.418 -6.887,-0.418 -6.887,-0.418 -6.878,-0.418 -6.879,-0.406 -6.868,-0.395 -6.855,-0.394 -6.832,-0.387 -6.813,-0.36 -6.8,-0.351 -6.778,-0.332 -6.746,-0.317 -6.711,-0.296 -6.691,-0.266 -6.649,-0.242 -6.613,-0.219 -6.57,-0.188 -6.527,-0.164 -6.481,-0.121 -6.437,-0.086 -6.383,-0.054 -6.328,-0.012 -6.274,0.031 -6.207,0.067 -6.152,0.121 -6.086,0.164 -6.024,0.211 -5.941,0.261 -5.867,0.321 -5.801,0.371 -5.727,0.43 -5.632,0.496 -5.551,0.546 -5.469,0.606 -5.375,0.68 -5.285,0.75 -5.184,0.812 -5.086,0.879 -4.988,0.953 -4.89,1.035 -4.778,1.11 -4.668,1.187 -4.562,1.274 -4.45,1.351 -4.328,1.426 -4.207,1.527 -4.086,1.618 -3.957,1.703 -3.832,1.789 -3.703,1.89 -3.562,1.989 -3.438,2.086 -3.285,2.187 -3.152,2.285 -3,2.395 -2.856,2.504 -2.715,2.605 -2.546,2.727 -2.407,2.82 -2.242,2.957 -2.078,3.055 -1.91,3.183 -1.758,3.309 -1.57,3.418 z" /><g
         transform="matrix(117.6,0,0,-128.4,-28.3228,1440.46)"
         id="g36"><rect
           id="rect38"
           style="fill:#ffffff;fill-opacity:1;fill-rule:nonzero"
           transform="matrix(1,0,0,-1,0,1)"
           height="1"
           width="1"
           y="0"
           x="0" /></g><g
         transform="scale(10,10)"
         id="g40"><text
           id="text42"
           style="font-variant:normal;font-weight:normal;font-size:10.90909958px;font-family:CMMI10;-inkscape-font-specification:CMMI10;writing-mode:lr-tb;fill:#000000;fill-opacity:1;fill-rule:nonzero;stroke:none"
           transform="matrix(1,0,0,-1,0.179688,136.258)"><tspan
             id="tspan44"
             y="0"
             x="0">y</tspan></text>
</g><path
         id="path46"
         style="fill:#000000;fill-opacity:1;fill-rule:nonzero;stroke:none"
         d="m 170.07,2330.03 -2.437,-1.16 -2.363,-1.48 -2.262,-1.78 -2.188,-2.11 -2.086,-2.4 -2.011,-2.7 -1.934,-3 -1.855,-3.29 -1.77,-3.56 -1.691,-3.84 -1.629,-4.12 -1.535,-4.38 -1.473,-4.65 -1.406,-4.9 -1.34,-5.16 -1.266,-5.39 -1.195,-5.65 -1.133,-5.87 -1.078,-6.11 -1.012,-6.33 -0.953,-6.56 -0.902,-6.77 -0.836,-6.97 -0.777,-7.19 -0.739,-7.38 -0.679,-7.57 -0.625,-7.77 -0.583,-7.95 -0.531,-8.13 -0.492,-8.3 -0.441,-8.47 -0.407,-8.63 -0.359,-8.78 -0.332,-8.95 -0.285,-9.09 -0.254,-9.23 -0.219,-9.37 -0.176,-9.49 -0.152,-9.63 -0.133,-9.75 -0.097,-9.87 -0.067,-9.96 -0.043,-10.09 -0.023,-10.17 -0.012,-10.28 0.023,-10.37 0.032,-10.45 0.054,-10.52 0.067,-10.6 0.078,-10.67 0.098,-10.73 0.097,-10.8 0.114,-10.85 0.117,-10.9 0.121,-10.94 0.133,-10.96 0.121,-11.01 0.133,-11.04 0.132,-11.07 0.121,-11.07 0.118,-11.09 0.121,-11.08 0.113,-11.1 0.098,-11.08 0.086,-11.09 0.078,-11.06 0.066,-11.05 0.055,-11.02 0.023,-11 0.02,-10.95 -0.012,-10.92 -0.031,-10.86 -0.043,-10.82 -0.078,-10.77 -0.11,-10.7 -0.132,-10.63 -0.153,-10.56 -0.199,-10.49 -0.219,-10.41 -0.265,-10.31 -0.286,-10.22 -0.339,-10.13 -0.375,-10.02 -0.407,-9.92 -0.461,-9.79 -0.492,-9.69 -0.539,-9.56 -0.594,-9.43 -0.648,-9.29 -0.68,-9.15 -0.75,-9.02 -0.789,-8.86 -0.855,-8.7 -0.903,-8.55 -0.968,-8.38 -1.032,-8.19 -1.086,-8.05 -1.144,-7.84 -1.219,-7.66 -1.273,-7.48 -1.352,-7.27 -1.418,-7.08 -1.496,-6.85 -1.558,-6.66 -1.637,-6.44 -1.715,-6.21 -1.789,-5.97 -1.8672,-5.76 -1.9454,-5.5 -2.0312,-5.28 -2.1094,-5.02 -2.1992,-4.75 -2.2852,-4.51 -2.3828,-4.24 -2.4609,-3.97 -2.5625,-3.7 -2.6445,-3.4 -2.75,-3.14 -2.8321,-2.83 -2.9453,-2.54 2.9453,-2.54 2.8321,-2.84 2.75,-3.13 2.6445,-3.41 2.5625,-3.7 2.4609,-3.97 2.3828,-4.24 2.2852,-4.49 2.1992,-4.77 2.1094,-5.02 2.0312,-5.26 1.9454,-5.52 1.8672,-5.75 1.789,-5.98 1.715,-6.21 1.637,-6.44 1.558,-6.65 1.496,-6.86 1.418,-7.08 1.352,-7.27 1.273,-7.47 1.219,-7.67 1.144,-7.84 1.086,-8.03 1.032,-8.21 0.968,-8.38 0.903,-8.55 0.855,-8.7 0.789,-8.86 0.75,-9.01 0.68,-9.16 0.648,-9.29 0.594,-9.43 0.539,-9.56 0.492,-9.68 0.461,-9.8 0.407,-9.91 0.375,-10.03 0.339,-10.12 0.286,-10.22 0.265,-10.32 0.219,-10.41 0.199,-10.48 0.153,-10.57 0.132,-10.63 0.11,-10.7 0.078,-10.76 0.043,-10.82 0.031,-10.876 0.012,-10.91 -0.02,-10.953 -0.023,-10.996 -0.055,-11.02 -0.066,-11.043 -0.078,-11.074 -0.086,-11.074 -0.098,-11.094 -0.113,-11.086 -0.121,-11.098 -0.118,-11.086 -0.121,-11.074 -0.132,-11.062 -0.133,-11.032 -0.121,-11.007 -0.133,-10.977 -0.121,-10.941 -0.117,-10.899 -0.114,-10.843 -0.097,-10.79 -0.098,-10.734 -0.078,-10.676 -0.067,-10.605 -0.054,-10.524 -0.032,-10.449 -0.023,-10.371 0.012,-10.273 0.023,-10.172 0.043,-10.086 0.067,-9.977 0.097,-9.851 0.133,-9.746 0.152,-9.637 0.176,-9.492 0.219,-9.371 0.254,-9.227 0.285,-9.086 0.332,-8.945 0.359,-8.789 0.407,-8.633 0.441,-8.473 0.492,-8.293 0.531,-8.133 0.583,-7.953 0.625,-7.765 0.679,-7.571 0.739,-7.382 0.777,-7.188 0.836,-6.976 0.902,-6.766 0.953,-6.559 1.012,-6.328 1.078,-6.109 1.133,-5.879 1.195,-5.637 1.266,-5.402 1.34,-5.152 1.406,-4.903 1.473,-4.644 1.535,-4.387 1.629,-4.117 1.691,-3.848 1.77,-3.558 1.855,-3.286 1.934,-3 2.011,-2.703 2.086,-2.394 2.188,-2.11 2.262,-1.789 2.363,-1.472 2.437,-1.153 -3.418,1.645 -3.304,1.945 -3.188,2.254 -3.055,2.535 -2.953,2.836 -2.824,3.109 -2.726,3.383 -2.602,3.672 -2.504,3.934 -2.398,4.183 -2.286,4.461 -2.183,4.703 -2.09,4.942 -1.988,5.199 -1.891,5.438 -1.789,5.668 -1.703,5.89 -1.613,6.117 -1.528,6.328 -1.429,6.551 -1.352,6.754 -1.273,6.957 -1.188,7.16 -1.109,7.34 -1.031,7.539 -0.957,7.723 -0.879,7.898 -0.813,8.067 -0.746,8.238 -0.684,8.395 -0.601,8.558 -0.551,8.711 -0.496,8.856 -0.426,8.996 -0.375,9.14 -0.32,9.274 -0.262,9.394 -0.207,9.524 -0.168,9.636 -0.121,9.754 -0.062,9.856 -0.036,9.965 0.012,10.054 0.055,10.153 0.086,10.238 0.121,10.328 0.168,10.391 0.183,10.48 0.223,10.539 0.242,10.602 0.262,10.656 0.297,10.711 0.32,10.766 0.328,10.8 0.352,10.832 0.363,10.879 0.383,10.899 0.394,10.918 0.399,10.945 0.406,10.953 0.418,10.953 0.418,10.965 0.414,10.965 0.418,10.953 0.418,10.93 0.406,10.933 0.407,10.899 0.398,10.863 0.383,10.844 0.375,10.801 0.351,10.761 0.34,10.71 0.328,10.65 0.297,10.61 0.285,10.53 0.254,10.48 0.231,10.4 0.199,10.31 0.176,10.24 0.14,10.15 0.098,10.06 0.066,9.96 0.036,9.85 -0.012,9.76 -0.055,9.64 -0.097,9.51 -0.145,9.41 -0.187,9.26 -0.243,9.14 -0.297,8.99 -0.351,8.86 -0.395,8.7 -0.461,8.56 -0.527,8.39 -0.582,8.24 -0.648,8.07 -0.715,7.9 -0.789,7.71 -0.848,7.52 -0.922,7.36 -1,7.15 -1.078,6.95 -1.152,6.75 -1.231,6.54 -1.32,6.34 -1.395,6.1 -1.492,5.9 -1.57,5.66 -1.66,5.43 -1.7581,5.19 -1.8476,4.95 -1.9414,4.7 -2.0469,4.45 -2.1406,4.19 -2.2422,3.93 -2.3516,3.64 -2.4492,3.4 -2.5586,3.11 -2.6719,2.82 -2.789,2.54 2.789,2.54 2.6719,2.81 2.5586,3.12 2.4492,3.39 2.3516,3.65 2.2422,3.92 2.1406,4.19 2.0469,4.45 1.9414,4.7 1.8476,4.95 1.7581,5.2 1.66,5.42 1.57,5.67 1.492,5.89 1.395,6.11 1.32,6.33 1.231,6.54 1.152,6.75 1.078,6.95 1,7.17 0.922,7.34 0.848,7.53 0.789,7.72 0.715,7.88 0.648,8.07 0.582,8.24 0.527,8.39 0.461,8.56 0.395,8.71 0.351,8.85 0.297,8.99 0.243,9.14 0.187,9.28 0.145,9.39 0.097,9.52 0.055,9.64 0.012,9.75 -0.036,9.85 -0.066,9.97 -0.098,10.05 -0.14,10.15 -0.176,10.24 -0.199,10.32 -0.231,10.4 -0.254,10.46 -0.285,10.55 -0.297,10.6 -0.328,10.65 -0.34,10.72 -0.351,10.75 -0.375,10.81 -0.383,10.84 -0.398,10.86 -0.407,10.91 -0.406,10.92 -0.418,10.93 -0.418,10.95 -0.414,10.97 -0.418,10.96 -0.418,10.96 -0.406,10.95 -0.399,10.95 -0.394,10.91 -0.383,10.9 -0.363,10.87 -0.352,10.84 -0.328,10.8 -0.32,10.77 -0.297,10.71 -0.262,10.66 -0.242,10.6 -0.223,10.54 -0.183,10.48 -0.168,10.39 -0.121,10.33 -0.086,10.24 -0.055,10.15 -0.012,10.06 0.036,9.96 0.062,9.85 0.121,9.76 0.168,9.63 0.207,9.53 0.262,9.39 0.32,9.27 0.375,9.15 0.426,8.99 0.496,8.86 0.551,8.71 0.601,8.56 0.684,8.4 0.746,8.24 0.813,8.07 0.879,7.88 0.957,7.73 1.031,7.54 1.109,7.34 1.188,7.16 1.273,6.95 1.352,6.76 1.429,6.55 1.528,6.33 1.613,6.11 1.703,5.89 1.789,5.67 1.891,5.44 1.988,5.2 2.09,4.94 2.183,4.7 2.286,4.46 2.398,4.19 2.504,3.93 2.602,3.67 2.726,3.4 2.824,3.11 2.953,2.82 3.055,2.55 3.188,2.24 3.304,1.96 3.418,1.64" /><path
         id="path48"
         style="fill:none;stroke:#000000;stroke-width:3.9849999;stroke-linecap:butt;stroke-linejoin:miter;stroke-miterlimit:10;stroke-dasharray:none;stroke-opacity:1"
         d="m 170.07,2330.03 -2.437,-1.16 -2.363,-1.48 -2.262,-1.78 -2.188,-2.11 -2.086,-2.4 -2.011,-2.7 -1.934,-3 -1.855,-3.29 -1.77,-3.56 -1.691,-3.84 -1.629,-4.12 -1.535,-4.38 -1.473,-4.65 -1.406,-4.9 -1.34,-5.16 -1.266,-5.39 -1.195,-5.65 -1.133,-5.87 -1.078,-6.11 -1.012,-6.33 -0.953,-6.56 -0.902,-6.77 -0.836,-6.97 -0.777,-7.19 -0.739,-7.38 -0.679,-7.57 -0.625,-7.77 -0.583,-7.95 -0.531,-8.13 -0.492,-8.3 -0.441,-8.47 -0.407,-8.63 -0.359,-8.78 -0.332,-8.95 -0.285,-9.09 -0.254,-9.23 -0.219,-9.37 -0.176,-9.49 -0.152,-9.63 -0.133,-9.75 -0.097,-9.87 -0.067,-9.96 -0.043,-10.09 -0.023,-10.17 -0.012,-10.28 0.023,-10.37 0.032,-10.45 0.054,-10.52 0.067,-10.6 0.078,-10.67 0.098,-10.73 0.097,-10.8 0.114,-10.85 0.117,-10.9 0.121,-10.94 0.133,-10.96 0.121,-11.01 0.133,-11.04 0.132,-11.07 0.121,-11.07 0.118,-11.09 0.121,-11.08 0.113,-11.1 0.098,-11.08 0.086,-11.09 0.078,-11.06 0.066,-11.05 0.055,-11.02 0.023,-11 0.02,-10.95 -0.012,-10.92 -0.031,-10.86 -0.043,-10.82 -0.078,-10.77 -0.11,-10.7 -0.132,-10.63 -0.153,-10.56 -0.199,-10.49 -0.219,-10.41 -0.265,-10.31 -0.286,-10.22 -0.339,-10.13 -0.375,-10.02 -0.407,-9.92 -0.461,-9.79 -0.492,-9.69 -0.539,-9.56 -0.594,-9.43 -0.648,-9.29 -0.68,-9.15 -0.75,-9.02 -0.789,-8.86 -0.855,-8.7 -0.903,-8.55 -0.968,-8.38 -1.032,-8.19 -1.086,-8.05 -1.144,-7.84 -1.219,-7.66 -1.273,-7.48 -1.352,-7.27 -1.418,-7.08 -1.496,-6.85 -1.558,-6.66 -1.637,-6.44 -1.715,-6.21 -1.789,-5.97 -1.8672,-5.76 -1.9454,-5.5 -2.0312,-5.28 -2.1094,-5.02 -2.1992,-4.75 -2.2852,-4.51 -2.3828,-4.24 -2.4609,-3.97 -2.5625,-3.7 -2.6445,-3.4 -2.75,-3.14 -2.8321,-2.83 -2.9453,-2.54 2.9453,-2.54 2.8321,-2.84 2.75,-3.13 2.6445,-3.41 2.5625,-3.7 2.4609,-3.97 2.3828,-4.24 2.2852,-4.49 2.1992,-4.77 2.1094,-5.02 2.0312,-5.26 1.9454,-5.52 1.8672,-5.75 1.789,-5.98 1.715,-6.21 1.637,-6.44 1.558,-6.65 1.496,-6.86 1.418,-7.08 1.352,-7.27 1.273,-7.47 1.219,-7.67 1.144,-7.84 1.086,-8.03 1.032,-8.21 0.968,-8.38 0.903,-8.55 0.855,-8.7 0.789,-8.86 0.75,-9.01 0.68,-9.16 0.648,-9.29 0.594,-9.43 0.539,-9.56 0.492,-9.68 0.461,-9.8 0.407,-9.91 0.375,-10.03 0.339,-10.12 0.286,-10.22 0.265,-10.32 0.219,-10.41 0.199,-10.48 0.153,-10.57 0.132,-10.63 0.11,-10.7 0.078,-10.76 0.043,-10.82 0.031,-10.876 0.012,-10.91 -0.02,-10.953 -0.023,-10.996 -0.055,-11.02 -0.066,-11.043 -0.078,-11.074 -0.086,-11.074 -0.098,-11.094 -0.113,-11.086 -0.121,-11.098 -0.118,-11.086 -0.121,-11.074 -0.132,-11.062 -0.133,-11.032 -0.121,-11.007 -0.133,-10.977 -0.121,-10.941 -0.117,-10.899 -0.114,-10.843 -0.097,-10.79 -0.098,-10.734 -0.078,-10.676 -0.067,-10.605 -0.054,-10.524 -0.032,-10.449 -0.023,-10.371 0.012,-10.273 0.023,-10.172 0.043,-10.086 0.067,-9.977 0.097,-9.851 0.133,-9.746 0.152,-9.637 0.176,-9.492 0.219,-9.371 0.254,-9.227 0.285,-9.086 0.332,-8.945 0.359,-8.789 0.407,-8.633 0.441,-8.473 0.492,-8.293 0.531,-8.133 0.583,-7.953 0.625,-7.765 0.679,-7.571 0.739,-7.382 0.777,-7.188 0.836,-6.976 0.902,-6.766 0.953,-6.559 1.012,-6.328 1.078,-6.109 1.133,-5.879 1.195,-5.637 1.266,-5.402 1.34,-5.152 1.406,-4.903 1.473,-4.644 1.535,-4.387 1.629,-4.117 1.691,-3.848 1.77,-3.558 1.855,-3.286 1.934,-3 2.011,-2.703 2.086,-2.394 2.188,-2.11 2.262,-1.789 2.363,-1.472 2.437,-1.153 -3.418,1.645 -3.304,1.945 -3.188,2.254 -3.055,2.535 -2.953,2.836 -2.824,3.109 -2.726,3.383 -2.602,3.672 -2.504,3.934 -2.398,4.183 -2.286,4.461 -2.183,4.703 -2.09,4.942 -1.988,5.199 -1.891,5.438 -1.789,5.668 -1.703,5.89 -1.613,6.117 -1.528,6.328 -1.429,6.551 -1.352,6.754 -1.273,6.957 -1.188,7.16 -1.109,7.34 -1.031,7.539 -0.957,7.723 -0.879,7.898 -0.813,8.067 -0.746,8.238 -0.684,8.395 -0.601,8.558 -0.551,8.711 -0.496,8.856 -0.426,8.996 -0.375,9.14 -0.32,9.274 -0.262,9.394 -0.207,9.524 -0.168,9.636 -0.121,9.754 -0.062,9.856 -0.036,9.965 0.012,10.054 0.055,10.153 0.086,10.238 0.121,10.328 0.168,10.391 0.183,10.48 0.223,10.539 0.242,10.602 0.262,10.656 0.297,10.711 0.32,10.766 0.328,10.8 0.352,10.832 0.363,10.879 0.383,10.899 0.394,10.918 0.399,10.945 0.406,10.953 0.418,10.953 0.418,10.965 0.414,10.965 0.418,10.953 0.418,10.93 0.406,10.933 0.407,10.899 0.398,10.863 0.383,10.844 0.375,10.801 0.351,10.761 0.34,10.71 0.328,10.65 0.297,10.61 0.285,10.53 0.254,10.48 0.231,10.4 0.199,10.31 0.176,10.24 0.14,10.15 0.098,10.06 0.066,9.96 0.036,9.85 -0.012,9.76 -0.055,9.64 -0.097,9.51 -0.145,9.41 -0.187,9.26 -0.243,9.14 -0.297,8.99 -0.351,8.86 -0.395,8.7 -0.461,8.56 -0.527,8.39 -0.582,8.24 -0.648,8.07 -0.715,7.9 -0.789,7.71 -0.848,7.52 -0.922,7.36 -1,7.15 -1.078,6.95 -1.152,6.75 -1.231,6.54 -1.32,6.34 -1.395,6.1 -1.492,5.9 -1.57,5.66 -1.66,5.43 -1.7581,5.19 -1.8476,4.95 -1.9414,4.7 -2.0469,4.45 -2.1406,4.19 -2.2422,3.93 -2.3516,3.64 -2.4492,3.4 -2.5586,3.11 -2.6719,2.82 -2.789,2.54 2.789,2.54 2.6719,2.81 2.5586,3.12 2.4492,3.39 2.3516,3.65 2.2422,3.92 2.1406,4.19 2.0469,4.45 1.9414,4.7 1.8476,4.95 1.7581,5.2 1.66,5.42 1.57,5.67 1.492,5.89 1.395,6.11 1.32,6.33 1.231,6.54 1.152,6.75 1.078,6.95 1,7.17 0.922,7.34 0.848,7.53 0.789,7.72 0.715,7.88 0.648,8.07 0.582,8.24 0.527,8.39 0.461,8.56 0.395,8.71 0.351,8.85 0.297,8.99 0.243,9.14 0.187,9.28 0.145,9.39 0.097,9.52 0.055,9.64 0.012,9.75 -0.036,9.85 -0.066,9.97 -0.098,10.05 -0.14,10.15 -0.176,10.24 -0.199,10.32 -0.231,10.4 -0.254,10.46 -0.285,10.55 -0.297,10.6 -0.328,10.65 -0.34,10.72 -0.351,10.75 -0.375,10.81 -0.383,10.84 -0.398,10.86 -0.407,10.91 -0.406,10.92 -0.418,10.93 -0.418,10.95 -0.414,10.97 -0.418,10.96 -0.418,10.96 -0.406,10.95 -0.399,10.95 -0.394,10.91 -0.383,10.9 -0.363,10.87 -0.352,10.84 -0.328,10.8 -0.32,10.77 -0.297,10.71 -0.262,10.66 -0.242,10.6 -0.223,10.54 -0.183,10.48 -0.168,10.39 -0.121,10.33 -0.086,10.24 -0.055,10.15 -0.012,10.06 0.036,9.96 0.062,9.85 0.121,9.76 0.168,9.63 0.207,9.53 0.262,9.39 0.32,9.27 0.375,9.15 0.426,8.99 0.496,8.86 0.551,8.71 0.601,8.56 0.684,8.4 0.746,8.24 0.813,8.07 0.879,7.88 0.957,7.73 1.031,7.54 1.109,7.34 1.188,7.16 1.273,6.95 1.352,6.76 1.429,6.55 1.528,6.33 1.613,6.11 1.703,5.89 1.789,5.67 1.891,5.44 1.988,5.2 2.09,4.94 2.183,4.7 2.286,4.46 2.398,4.19 2.504,3.93 2.602,3.67 2.726,3.4 2.824,3.11 2.953,2.82 3.055,2.55 3.188,2.24 3.304,1.96 3.418,1.64 z" /><g
         transform="scale(10,10)"
         id="g50"><text
           id="text52"
           style="font-variant:normal;font-weight:normal;font-size:10.90909958px;font-family:CMMI10;-inkscape-font-specification:CMMI10;writing-mode:lr-tb;fill:#000000;fill-opacity:1;fill-rule:nonzero;stroke:none"
           transform="matrix(1,0,0,-1,8.36719,28.7352)"><tspan
             id="tspan54"
             y="0"
             x="0 138.14957">OA</tspan><tspan
             id="tspan56"
             y="-208.25301"
             x="12.6258">B</tspan></text>
<text
           id="text58"
           style="font-variant:normal;font-weight:normal;font-size:11.9552002px;font-family:CMCSC10;-inkscape-font-specification:CMCSC10;writing-mode:lr-tb;fill:#000000;fill-opacity:1;fill-rule:nonzero;stroke:none"
           transform="matrix(1,0,0,-1,71.68089,0.1202)"><tspan
             id="tspan60"
             y="0"
             x="0 8.5141897 12.111581 19.790342 28.185141 34.787918">Fig.5.</tspan></text>
</g></g></g></svg>