<?xml version="1.0" encoding="UTF-8" standalone="no"?>
<svg
   xmlns:dc="http://purl.org/dc/elements/1.1/"
   xmlns:cc="http://creativecommons.org/ns#"
   xmlns:rdf="http://www.w3.org/1999/02/22-rdf-syntax-ns#"
   xmlns:svg="http://www.w3.org/2000/svg"
   xmlns="http://www.w3.org/2000/svg"
   viewBox="0 0 256.25 242.5"
   height="242.5"
   width="256.25"
   xml:space="preserve"
   version="1.1"
   id="svg2"><metadata
     id="metadata8"><rdf:RDF><cc:Work
         rdf:about=""><dc:format>image/svg+xml</dc:format><dc:type
           rdf:resource="http://purl.org/dc/dcmitype/StillImage" /></cc:Work></rdf:RDF></metadata><defs
     id="defs6"><clipPath
       id="clipPath12"
       clipPathUnits="userSpaceOnUse"><path
         id="path14"
         d="m -2,-2 205,0 0,194 -205,0 0,-194 z" /></clipPath></defs><g
     clip-path="url(#clipPath12)"
     transform="matrix(1.25,0,0,-1.25,2.5,240)"
     id="g10"><g
       transform="scale(0.1,0.1)"
       id="g16"><path
         id="path18"
         style="fill:none;stroke:#000000;stroke-width:11.95530033;stroke-linecap:butt;stroke-linejoin:miter;stroke-miterlimit:10;stroke-dasharray:none;stroke-opacity:1"
         d="m 1080.01,1284.61 225.01,0" /><path
         id="path20"
         style="fill:none;stroke:#000000;stroke-width:11.95530033;stroke-linecap:butt;stroke-linejoin:miter;stroke-miterlimit:10;stroke-dasharray:none;stroke-opacity:1"
         d="m 1305.02,1284.61 0,126.67" /><path
         id="path22"
         style="fill:none;stroke:#000000;stroke-width:7.97009993;stroke-linecap:butt;stroke-linejoin:miter;stroke-miterlimit:10;stroke-dasharray:none;stroke-opacity:1"
         d="m 1080.01,1284.61 0,-24.07" /><path
         id="path24"
         style="fill:none;stroke:#000000;stroke-width:7.97009993;stroke-linecap:butt;stroke-linejoin:miter;stroke-miterlimit:10;stroke-dasharray:none;stroke-opacity:1"
         d="m 1080.01,1212.38 0,-24.07" /><path
         id="path26"
         style="fill:none;stroke:#000000;stroke-width:7.97009993;stroke-linecap:butt;stroke-linejoin:miter;stroke-miterlimit:10;stroke-dasharray:none;stroke-opacity:1"
         d="m 1080.01,1188.31 0,-24.08" /><path
         id="path28"
         style="fill:none;stroke:#000000;stroke-width:7.97009993;stroke-linecap:butt;stroke-linejoin:miter;stroke-miterlimit:10;stroke-dasharray:none;stroke-opacity:1"
         d="m 1080.01,1116.09 0,-24.07" /><path
         id="path30"
         style="fill:none;stroke:#000000;stroke-width:7.97009993;stroke-linecap:butt;stroke-linejoin:miter;stroke-miterlimit:10;stroke-dasharray:none;stroke-opacity:1"
         d="m 1080.01,1092.02 0,-24.09" /><path
         id="path32"
         style="fill:none;stroke:#000000;stroke-width:7.97009993;stroke-linecap:butt;stroke-linejoin:miter;stroke-miterlimit:10;stroke-dasharray:none;stroke-opacity:1"
         d="m 1080.01,1019.78 0,-24.073" /><path
         id="path34"
         style="fill:none;stroke:#000000;stroke-width:7.97009993;stroke-linecap:butt;stroke-linejoin:miter;stroke-miterlimit:10;stroke-dasharray:none;stroke-opacity:1"
         d="m 1080.01,995.707 0,-24.07" /><path
         id="path36"
         style="fill:none;stroke:#000000;stroke-width:7.97009993;stroke-linecap:butt;stroke-linejoin:miter;stroke-miterlimit:10;stroke-dasharray:none;stroke-opacity:1"
         d="m 1080.01,923.484 0,-24.074" /><path
         id="path38"
         style="fill:none;stroke:#000000;stroke-width:7.97009993;stroke-linecap:butt;stroke-linejoin:miter;stroke-miterlimit:10;stroke-dasharray:none;stroke-opacity:1"
         d="m 1080.01,899.41 0,-24.082" /><path
         id="path40"
         style="fill:none;stroke:#000000;stroke-width:7.97009993;stroke-linecap:butt;stroke-linejoin:miter;stroke-miterlimit:10;stroke-dasharray:none;stroke-opacity:1"
         d="m 1080.01,827.188 0,-24.083" /><path
         id="path42"
         style="fill:none;stroke:#000000;stroke-width:7.97009993;stroke-linecap:butt;stroke-linejoin:miter;stroke-miterlimit:10;stroke-dasharray:none;stroke-opacity:1"
         d="m 1080.01,803.105 0,-24.074" /><path
         id="path44"
         style="fill:none;stroke:#000000;stroke-width:7.97009993;stroke-linecap:butt;stroke-linejoin:miter;stroke-miterlimit:10;stroke-dasharray:none;stroke-opacity:1"
         d="m 1080.01,730.879 0,-24.07" /><path
         id="path46"
         style="fill:none;stroke:#000000;stroke-width:7.97009993;stroke-linecap:butt;stroke-linejoin:miter;stroke-miterlimit:10;stroke-dasharray:none;stroke-opacity:1"
         d="m 1080.01,706.809 0,-24.082" /><path
         id="path48"
         style="fill:none;stroke:#000000;stroke-width:7.97009993;stroke-linecap:butt;stroke-linejoin:miter;stroke-miterlimit:10;stroke-dasharray:none;stroke-opacity:1"
         d="m 1080.01,634.582 0,-24.082" /><path
         id="path50"
         style="fill:none;stroke:#000000;stroke-width:7.97009993;stroke-linecap:butt;stroke-linejoin:miter;stroke-miterlimit:10;stroke-dasharray:none;stroke-opacity:1"
         d="m 1080.01,610.5 0,-24.07" /><path
         id="path52"
         style="fill:none;stroke:#000000;stroke-width:7.97009993;stroke-linecap:butt;stroke-linejoin:miter;stroke-miterlimit:10;stroke-dasharray:none;stroke-opacity:1"
         d="m 1080.01,538.273 0,-24.07" /><path
         id="path54"
         style="fill:none;stroke:#000000;stroke-width:7.97009993;stroke-linecap:butt;stroke-linejoin:miter;stroke-miterlimit:10;stroke-dasharray:none;stroke-opacity:1"
         d="m 1080.01,514.203 0,-24.082" /><path
         id="path56"
         style="fill:none;stroke:#000000;stroke-width:7.97009993;stroke-linecap:butt;stroke-linejoin:miter;stroke-miterlimit:10;stroke-dasharray:none;stroke-opacity:1"
         d="m 1080.01,441.98 0,-24.085" /><path
         id="path58"
         style="fill:none;stroke:#000000;stroke-width:7.97009993;stroke-linecap:butt;stroke-linejoin:miter;stroke-miterlimit:10;stroke-dasharray:none;stroke-opacity:1"
         d="m 1080.01,417.895 0,-24.071" /><path
         id="path60"
         style="fill:none;stroke:#000000;stroke-width:7.97009993;stroke-linecap:butt;stroke-linejoin:miter;stroke-miterlimit:10;stroke-dasharray:none;stroke-opacity:1"
         d="m 1080.01,345.672 0,-24.07" /><path
         id="path62"
         style="fill:none;stroke:#000000;stroke-width:7.97009993;stroke-linecap:butt;stroke-linejoin:miter;stroke-miterlimit:10;stroke-dasharray:none;stroke-opacity:1"
         d="m 1305.02,1284.61 0,-24.07" /><path
         id="path64"
         style="fill:none;stroke:#000000;stroke-width:7.97009993;stroke-linecap:butt;stroke-linejoin:miter;stroke-miterlimit:10;stroke-dasharray:none;stroke-opacity:1"
         d="m 1305.02,1212.38 0,-24.07" /><path
         id="path66"
         style="fill:none;stroke:#000000;stroke-width:7.97009993;stroke-linecap:butt;stroke-linejoin:miter;stroke-miterlimit:10;stroke-dasharray:none;stroke-opacity:1"
         d="m 1305.02,1188.31 0,-24.08" /><path
         id="path68"
         style="fill:none;stroke:#000000;stroke-width:7.97009993;stroke-linecap:butt;stroke-linejoin:miter;stroke-miterlimit:10;stroke-dasharray:none;stroke-opacity:1"
         d="m 1305.02,1116.09 0,-24.07" /><path
         id="path70"
         style="fill:none;stroke:#000000;stroke-width:7.97009993;stroke-linecap:butt;stroke-linejoin:miter;stroke-miterlimit:10;stroke-dasharray:none;stroke-opacity:1"
         d="m 1305.02,1092.02 0,-24.09" /><path
         id="path72"
         style="fill:none;stroke:#000000;stroke-width:7.97009993;stroke-linecap:butt;stroke-linejoin:miter;stroke-miterlimit:10;stroke-dasharray:none;stroke-opacity:1"
         d="m 1305.02,1019.78 0,-24.073" /><path
         id="path74"
         style="fill:none;stroke:#000000;stroke-width:7.97009993;stroke-linecap:butt;stroke-linejoin:miter;stroke-miterlimit:10;stroke-dasharray:none;stroke-opacity:1"
         d="m 1305.02,995.707 0,-24.07" /><path
         id="path76"
         style="fill:none;stroke:#000000;stroke-width:7.97009993;stroke-linecap:butt;stroke-linejoin:miter;stroke-miterlimit:10;stroke-dasharray:none;stroke-opacity:1"
         d="m 1305.02,923.484 0,-24.074" /><path
         id="path78"
         style="fill:none;stroke:#000000;stroke-width:7.97009993;stroke-linecap:butt;stroke-linejoin:miter;stroke-miterlimit:10;stroke-dasharray:none;stroke-opacity:1"
         d="m 1305.02,899.41 0,-24.082" /><path
         id="path80"
         style="fill:none;stroke:#000000;stroke-width:7.97009993;stroke-linecap:butt;stroke-linejoin:miter;stroke-miterlimit:10;stroke-dasharray:none;stroke-opacity:1"
         d="m 1305.02,827.188 0,-24.083" /><path
         id="path82"
         style="fill:none;stroke:#000000;stroke-width:7.97009993;stroke-linecap:butt;stroke-linejoin:miter;stroke-miterlimit:10;stroke-dasharray:none;stroke-opacity:1"
         d="m 1305.02,803.105 0,-24.074" /><path
         id="path84"
         style="fill:none;stroke:#000000;stroke-width:7.97009993;stroke-linecap:butt;stroke-linejoin:miter;stroke-miterlimit:10;stroke-dasharray:none;stroke-opacity:1"
         d="m 1305.02,730.879 0,-24.07" /><path
         id="path86"
         style="fill:none;stroke:#000000;stroke-width:7.97009993;stroke-linecap:butt;stroke-linejoin:miter;stroke-miterlimit:10;stroke-dasharray:none;stroke-opacity:1"
         d="m 1305.02,706.809 0,-24.082" /><path
         id="path88"
         style="fill:none;stroke:#000000;stroke-width:7.97009993;stroke-linecap:butt;stroke-linejoin:miter;stroke-miterlimit:10;stroke-dasharray:none;stroke-opacity:1"
         d="m 1305.02,634.582 0,-24.082" /><path
         id="path90"
         style="fill:none;stroke:#000000;stroke-width:7.97009993;stroke-linecap:butt;stroke-linejoin:miter;stroke-miterlimit:10;stroke-dasharray:none;stroke-opacity:1"
         d="m 1305.02,610.5 0,-24.07" /><path
         id="path92"
         style="fill:none;stroke:#000000;stroke-width:7.97009993;stroke-linecap:butt;stroke-linejoin:miter;stroke-miterlimit:10;stroke-dasharray:none;stroke-opacity:1"
         d="m 1305.02,538.273 0,-24.07" /><path
         id="path94"
         style="fill:none;stroke:#000000;stroke-width:7.97009993;stroke-linecap:butt;stroke-linejoin:miter;stroke-miterlimit:10;stroke-dasharray:none;stroke-opacity:1"
         d="m 1305.02,514.203 0,-24.082" /><path
         id="path96"
         style="fill:none;stroke:#000000;stroke-width:7.97009993;stroke-linecap:butt;stroke-linejoin:miter;stroke-miterlimit:10;stroke-dasharray:none;stroke-opacity:1"
         d="m 1305.02,441.98 0,-24.085" /><path
         id="path98"
         style="fill:none;stroke:#000000;stroke-width:7.97009993;stroke-linecap:butt;stroke-linejoin:miter;stroke-miterlimit:10;stroke-dasharray:none;stroke-opacity:1"
         d="m 1305.02,417.895 0,-24.071" /><path
         id="path100"
         style="fill:none;stroke:#000000;stroke-width:7.97009993;stroke-linecap:butt;stroke-linejoin:miter;stroke-miterlimit:10;stroke-dasharray:none;stroke-opacity:1"
         d="m 1305.02,345.672 0,-24.07" /><path
         id="path102"
         style="fill:none;stroke:#000000;stroke-width:7.97009993;stroke-linecap:butt;stroke-linejoin:miter;stroke-miterlimit:10;stroke-dasharray:none;stroke-opacity:1"
         d="m 1080.01,1284.61 -28.12,0" /><path
         id="path104"
         style="fill:none;stroke:#000000;stroke-width:7.97009993;stroke-linecap:butt;stroke-linejoin:miter;stroke-miterlimit:10;stroke-dasharray:none;stroke-opacity:1"
         d="m 995.637,1284.61 -28.129,0" /><path
         id="path106"
         style="fill:none;stroke:#000000;stroke-width:7.97009993;stroke-linecap:butt;stroke-linejoin:miter;stroke-miterlimit:10;stroke-dasharray:none;stroke-opacity:1"
         d="m 967.508,1284.61 -28.125,0" /><path
         id="path108"
         style="fill:none;stroke:#000000;stroke-width:7.97009993;stroke-linecap:butt;stroke-linejoin:miter;stroke-miterlimit:10;stroke-dasharray:none;stroke-opacity:1"
         d="m 883.133,1284.61 -28.125,0" /><path
         id="path110"
         style="fill:none;stroke:#000000;stroke-width:7.97009993;stroke-linecap:butt;stroke-linejoin:miter;stroke-miterlimit:10;stroke-dasharray:none;stroke-opacity:1"
         d="m 855.008,1284.61 -28.125,0" /><path
         id="path112"
         style="fill:none;stroke:#000000;stroke-width:7.97009993;stroke-linecap:butt;stroke-linejoin:miter;stroke-miterlimit:10;stroke-dasharray:none;stroke-opacity:1"
         d="m 770.633,1284.61 -28.125,0" /><path
         id="path114"
         style="fill:none;stroke:#000000;stroke-width:7.97009993;stroke-linecap:butt;stroke-linejoin:miter;stroke-miterlimit:10;stroke-dasharray:none;stroke-opacity:1"
         d="m 742.508,1284.61 -28.125,0" /><path
         id="path116"
         style="fill:none;stroke:#000000;stroke-width:7.97009993;stroke-linecap:butt;stroke-linejoin:miter;stroke-miterlimit:10;stroke-dasharray:none;stroke-opacity:1"
         d="m 658.133,1284.61 -28.129,0" /><path
         id="path118"
         style="fill:none;stroke:#000000;stroke-width:7.97009993;stroke-linecap:butt;stroke-linejoin:miter;stroke-miterlimit:10;stroke-dasharray:none;stroke-opacity:1"
         d="m 630.004,1284.61 -28.125,0" /><path
         id="path120"
         style="fill:none;stroke:#000000;stroke-width:7.97009993;stroke-linecap:butt;stroke-linejoin:miter;stroke-miterlimit:10;stroke-dasharray:none;stroke-opacity:1"
         d="m 545.629,1284.61 -28.125,0" /><path
         id="path122"
         style="fill:none;stroke:#000000;stroke-width:7.97009993;stroke-linecap:butt;stroke-linejoin:miter;stroke-miterlimit:10;stroke-dasharray:none;stroke-opacity:1"
         d="m 517.504,1284.61 -28.125,0" /><path
         id="path124"
         style="fill:none;stroke:#000000;stroke-width:7.97009993;stroke-linecap:butt;stroke-linejoin:miter;stroke-miterlimit:10;stroke-dasharray:none;stroke-opacity:1"
         d="m 433.129,1284.61 -28.125,0" /><path
         id="path126"
         style="fill:none;stroke:#000000;stroke-width:7.97009993;stroke-linecap:butt;stroke-linejoin:miter;stroke-miterlimit:10;stroke-dasharray:none;stroke-opacity:1"
         d="m 405.004,1284.61 -28.125,0" /><path
         id="path128"
         style="fill:none;stroke:#000000;stroke-width:7.97009993;stroke-linecap:butt;stroke-linejoin:miter;stroke-miterlimit:10;stroke-dasharray:none;stroke-opacity:1"
         d="m 320.625,1284.61 -28.125,0" /><path
         id="path130"
         style="fill:none;stroke:#000000;stroke-width:7.97009993;stroke-linecap:butt;stroke-linejoin:miter;stroke-miterlimit:10;stroke-dasharray:none;stroke-opacity:1"
         d="m 292.5,1284.61 -28.125,0" /><path
         id="path132"
         style="fill:none;stroke:#000000;stroke-width:7.97009993;stroke-linecap:butt;stroke-linejoin:miter;stroke-miterlimit:10;stroke-dasharray:none;stroke-opacity:1"
         d="m 208.125,1284.61 -28.125,0" /><path
         id="path134"
         style="fill:none;stroke:#000000;stroke-width:7.97009993;stroke-linecap:butt;stroke-linejoin:miter;stroke-miterlimit:10;stroke-dasharray:none;stroke-opacity:1"
         d="m 1305.02,1411.28 -28.13,0" /><path
         id="path136"
         style="fill:none;stroke:#000000;stroke-width:7.97009993;stroke-linecap:butt;stroke-linejoin:miter;stroke-miterlimit:10;stroke-dasharray:none;stroke-opacity:1"
         d="m 1220.64,1411.28 -28.13,0" /><path
         id="path138"
         style="fill:none;stroke:#000000;stroke-width:7.97009993;stroke-linecap:butt;stroke-linejoin:miter;stroke-miterlimit:10;stroke-dasharray:none;stroke-opacity:1"
         d="m 1192.51,1411.28 -28.12,0" /><path
         id="path140"
         style="fill:none;stroke:#000000;stroke-width:7.97009993;stroke-linecap:butt;stroke-linejoin:miter;stroke-miterlimit:10;stroke-dasharray:none;stroke-opacity:1"
         d="m 1108.14,1411.28 -28.13,0" /><path
         id="path142"
         style="fill:none;stroke:#000000;stroke-width:7.97009993;stroke-linecap:butt;stroke-linejoin:miter;stroke-miterlimit:10;stroke-dasharray:none;stroke-opacity:1"
         d="m 1080.01,1411.28 -28.12,0" /><path
         id="path144"
         style="fill:none;stroke:#000000;stroke-width:7.97009993;stroke-linecap:butt;stroke-linejoin:miter;stroke-miterlimit:10;stroke-dasharray:none;stroke-opacity:1"
         d="m 995.637,1411.28 -28.129,0" /><path
         id="path146"
         style="fill:none;stroke:#000000;stroke-width:7.97009993;stroke-linecap:butt;stroke-linejoin:miter;stroke-miterlimit:10;stroke-dasharray:none;stroke-opacity:1"
         d="m 967.508,1411.28 -28.125,0" /><path
         id="path148"
         style="fill:none;stroke:#000000;stroke-width:7.97009993;stroke-linecap:butt;stroke-linejoin:miter;stroke-miterlimit:10;stroke-dasharray:none;stroke-opacity:1"
         d="m 883.133,1411.28 -28.125,0" /><path
         id="path150"
         style="fill:none;stroke:#000000;stroke-width:7.97009993;stroke-linecap:butt;stroke-linejoin:miter;stroke-miterlimit:10;stroke-dasharray:none;stroke-opacity:1"
         d="m 855.008,1411.28 -28.125,0" /><path
         id="path152"
         style="fill:none;stroke:#000000;stroke-width:7.97009993;stroke-linecap:butt;stroke-linejoin:miter;stroke-miterlimit:10;stroke-dasharray:none;stroke-opacity:1"
         d="m 770.633,1411.28 -28.125,0" /><path
         id="path154"
         style="fill:none;stroke:#000000;stroke-width:7.97009993;stroke-linecap:butt;stroke-linejoin:miter;stroke-miterlimit:10;stroke-dasharray:none;stroke-opacity:1"
         d="m 742.508,1411.28 -28.125,0" /><path
         id="path156"
         style="fill:none;stroke:#000000;stroke-width:7.97009993;stroke-linecap:butt;stroke-linejoin:miter;stroke-miterlimit:10;stroke-dasharray:none;stroke-opacity:1"
         d="m 658.133,1411.28 -28.129,0" /><path
         id="path158"
         style="fill:none;stroke:#000000;stroke-width:7.97009993;stroke-linecap:butt;stroke-linejoin:miter;stroke-miterlimit:10;stroke-dasharray:none;stroke-opacity:1"
         d="m 630.004,1411.28 -28.125,0" /><path
         id="path160"
         style="fill:none;stroke:#000000;stroke-width:7.97009993;stroke-linecap:butt;stroke-linejoin:miter;stroke-miterlimit:10;stroke-dasharray:none;stroke-opacity:1"
         d="m 545.629,1411.28 -28.125,0" /><path
         id="path162"
         style="fill:none;stroke:#000000;stroke-width:7.97009993;stroke-linecap:butt;stroke-linejoin:miter;stroke-miterlimit:10;stroke-dasharray:none;stroke-opacity:1"
         d="m 517.504,1411.28 -28.125,0" /><path
         id="path164"
         style="fill:none;stroke:#000000;stroke-width:7.97009993;stroke-linecap:butt;stroke-linejoin:miter;stroke-miterlimit:10;stroke-dasharray:none;stroke-opacity:1"
         d="m 433.129,1411.28 -28.125,0" /><path
         id="path166"
         style="fill:none;stroke:#000000;stroke-width:7.97009993;stroke-linecap:butt;stroke-linejoin:miter;stroke-miterlimit:10;stroke-dasharray:none;stroke-opacity:1"
         d="m 405.004,1411.28 -28.125,0" /><path
         id="path168"
         style="fill:none;stroke:#000000;stroke-width:7.97009993;stroke-linecap:butt;stroke-linejoin:miter;stroke-miterlimit:10;stroke-dasharray:none;stroke-opacity:1"
         d="m 320.625,1411.28 -28.125,0" /><path
         id="path170"
         style="fill:none;stroke:#000000;stroke-width:7.97009993;stroke-linecap:butt;stroke-linejoin:miter;stroke-miterlimit:10;stroke-dasharray:none;stroke-opacity:1"
         d="m 292.5,1411.28 -28.125,0" /><path
         id="path172"
         style="fill:none;stroke:#000000;stroke-width:7.97009993;stroke-linecap:butt;stroke-linejoin:miter;stroke-miterlimit:10;stroke-dasharray:none;stroke-opacity:1"
         d="m 208.125,1411.28 -28.125,0" /><g
         transform="scale(10,10)"
         id="g174"><text
           id="text176"
           style="font-variant:normal;font-weight:normal;font-size:10.90909958px;font-family:CMMI10;-inkscape-font-specification:CMMI10;writing-mode:lr-tb;fill:#000000;fill-opacity:1;fill-rule:nonzero;stroke:none"
           transform="matrix(1,0,0,-1,113.251,116.916)"><tspan
             id="tspan178"
             y="0"
             x="0 5.6347194">dx</tspan><tspan
             id="tspan180"
             y="-15.1184"
             x="21.235201 26.869919">dy</tspan><tspan
             id="tspan182"
             y="10.9949"
             x="-105.9718">P</tspan></text>
</g><g
         transform="matrix(146.4,0,0,-156,984.685,1458.1)"
         id="g184"><rect
           id="rect186"
           style="fill:#ffffff;fill-opacity:1;fill-rule:nonzero"
           transform="matrix(1,0,0,-1,0,1)"
           height="1"
           width="1"
           y="0"
           x="0" /></g><g
         transform="scale(10,10)"
         id="g188"><text
           id="text190"
           style="font-variant:normal;font-weight:normal;font-size:10.90909958px;font-family:CMMI10;-inkscape-font-specification:CMMI10;writing-mode:lr-tb;fill:#000000;fill-opacity:1;fill-rule:nonzero;stroke:none"
           transform="matrix(1,0,0,-1,101.48,135.262)"><tspan
             id="tspan192"
             y="0"
             x="0">Q</tspan><tspan
             id="tspan194"
             y="-47.957401"
             x="63.421101">R</tspan></text>
</g><path
         id="path196"
         style="fill:none;stroke:#000000;stroke-width:11.95530033;stroke-linecap:butt;stroke-linejoin:miter;stroke-miterlimit:10;stroke-dasharray:none;stroke-opacity:1"
         d="m 180,1041.61 78.75,10.28 78.75,11.96 78.754,13.69 78.75,15.51 78.75,17.47 78.754,19.61 78.75,21.95 78.75,24.53 78.75,27.41 78.75,30.61 78.752,34.16 78.75,38.11 78.75,42.51 78.76,47.37 78.75,52.76 78.75,58.67 78.75,65.21 78.75,72.35 78.75,80.15 78.75,88.67" /><g
         transform="matrix(117.6,0,0,-128.4,841.759,867.784)"
         id="g198"><rect
           id="rect200"
           style="fill:#ffffff;fill-opacity:1;fill-rule:nonzero"
           transform="matrix(1,0,0,-1,0,1)"
           height="1"
           width="1"
           y="0"
           x="0" /></g><g
         transform="scale(10,10)"
         id="g202"><text
           id="text204"
           style="font-variant:normal;font-weight:normal;font-size:10.90909958px;font-family:CMMI10;-inkscape-font-specification:CMMI10;writing-mode:lr-tb;fill:#000000;fill-opacity:1;fill-rule:nonzero;stroke:none"
           transform="matrix(1,0,0,-1,87.1879,78.9902)"><tspan
             id="tspan206"
             y="0"
             x="0">y</tspan></text>
</g><path
         id="path208"
         style="fill:#000000;fill-opacity:1;fill-rule:nonzero;stroke:none"
         d="m 1057.6,1266.68 -2.75,-0.96 -2.65,-1.09 -2.56,-1.2 -2.44,-1.33 -2.37,-1.46 -2.26,-1.57 -2.18,-1.68 -2.07,-1.8 -2,-1.9 -1.9,-2.03 -1.83,-2.12 -1.74,-2.23 -1.66,-2.34 -1.57,-2.44 -1.5,-2.54 -1.42,-2.63 -1.36,-2.74 -1.27,-2.82 -1.21,-2.92 -1.14,-3.02 -1.08,-3.09 -1,-3.19 -0.94,-3.26 -0.9,-3.37 -0.82,-3.42 -0.76,-3.52 -0.7,-3.59 -0.66,-3.65 -0.59,-3.75 -0.56,-3.8 -0.51,-3.88 -0.45,-3.94 -0.4,-4.01 -0.37,-4.07 -0.33,-4.12 -0.27,-4.2 -0.24,-4.25 -0.21,-4.3 -0.18,-4.36 -0.14,-4.41 -0.11,-4.46 -0.08,-4.5 -0.05,-4.55 -0.02,-4.59 0,-4.64 0.02,-4.68 0.03,-4.71 0.06,-4.75 0.08,-4.79 0.08,-4.81 0.11,-4.84 0.11,-4.88 0.13,-4.89 0.12,-4.93 0.15,-4.95 0.14,-4.96 0.15,-4.99 0.15,-4.99 0.14,-5.02 0.14,-5.04 0.13,-5.03 0.14,-5.04 0.12,-5.05 0.12,-5.05 0.1,-5.07 0.08,-5.06 0.07,-5.06 0.07,-5.05 0.03,-5.06 0.01,-5.04 0,-5.032 -0.04,-5.031 -0.06,-5.008 -0.09,-5 -0.11,-4.977 -0.15,-4.957 -0.18,-4.941 -0.22,-4.914 -0.25,-4.899 -0.28,-4.867 -0.33,-4.832 -0.38,-4.801 -0.42,-4.781 -0.47,-4.734 -0.51,-4.715 -0.56,-4.656 -0.61,-4.625 -0.67,-4.582 -0.71,-4.551 -0.78,-4.492 -0.84,-4.438 -0.89,-4.394 -0.96,-4.34 -1.02,-4.297 -1.085,-4.231 -1.153,-4.171 -1.23,-4.122 -1.297,-4.054 -1.363,-3.988 -1.438,-3.922 -1.527,-3.868 -1.582,-3.777 -1.68,-3.726 -1.757,-3.637 -1.836,-3.57 -1.934,-3.493 -2.012,-3.406 -2.097,-3.34 -2.196,-3.242 -2.285,-3.164 -2.375,-3.074 -2.473,-2.989 -2.57,-2.89 -2.668,-2.813 -2.781,-2.703 -2.879,-2.613 -2.977,-2.508 -3.085,-2.414 -3.2,-2.309 -3.304,-2.207 3.304,-2.199 3.2,-2.316 3.085,-2.406 2.977,-2.516 2.879,-2.617 2.781,-2.703 2.668,-2.801 2.57,-2.899 2.473,-2.988 2.375,-3.078 2.285,-3.152 2.196,-3.254 2.097,-3.328 2.012,-3.414 1.934,-3.485 1.836,-3.57 1.757,-3.649 1.68,-3.71 1.582,-3.793 1.527,-3.856 1.438,-3.922 1.363,-4 1.297,-4.054 1.23,-4.11 1.153,-4.172 1.085,-4.242 1.02,-4.285 0.96,-4.34 0.89,-4.394 0.84,-4.45 0.78,-4.492 0.71,-4.539 0.67,-4.582 0.61,-4.625 0.56,-4.668 0.51,-4.703 0.47,-4.746 0.42,-4.766 0.38,-4.812 0.33,-4.836 0.28,-4.867 0.25,-4.887 0.22,-4.922 0.18,-4.934 0.15,-4.968 0.11,-4.977 0.09,-4.996 0.06,-5.012 0.04,-5.019 0,-5.031 -0.01,-5.055 -0.03,-5.043 -0.07,-5.067 -0.07,-5.05 -0.08,-5.067 -0.1,-5.054 -0.12,-5.051 -0.12,-5.055 -0.14,-5.055 -0.13,-5.031 -0.14,-5.031 -0.14,-5.012 -0.15,-5 -0.15,-4.984 -0.14,-4.969 -0.15,-4.941 -0.12,-4.922 -0.13,-4.903 -0.11,-4.875 -0.11,-4.847 -0.08,-4.813 -0.08,-4.777 -0.06,-4.758 -0.03,-4.715 -0.02,-4.668 0,-4.636 0.02,-4.59 0.05,-4.563 0.08,-4.504 0.11,-4.449 0.14,-4.414 0.18,-4.351 0.21,-4.309 0.24,-4.25 0.27,-4.188 0.33,-4.128 0.37,-4.079 0.4,-4.007 0.45,-3.946 0.51,-3.867 0.56,-3.812 0.59,-3.735 0.66,-3.66 0.7,-3.594 0.76,-3.515 0.82,-3.426 0.9,-3.352 0.94,-3.273 1,-3.188 1.08,-3.097 1.14,-3.008 1.21,-2.926 1.27,-2.82 1.36,-2.738 1.42,-2.637 1.5,-2.535 1.57,-2.442 1.66,-2.34 1.74,-2.23 1.83,-2.121 1.9,-2.02 2,-1.91 2.07,-1.793 2.18,-1.691 2.26,-1.559 2.37,-1.453 2.44,-1.328 2.56,-1.219 2.65,-1.078 2.75,-0.965 -3.86,1.407 -3.71,1.503 -3.58,1.625 -3.45,1.727 -3.32,1.832 -3.18,1.937 -3.06,2.043 -2.93,2.141 -2.81,2.231 -2.7,2.339 -2.58,2.43 -2.46,2.516 -2.34,2.613 -2.24,2.703 -2.12,2.789 -2.03,2.879 -1.91,2.957 -1.81,3.043 -1.71,3.133 -1.62,3.195 -1.52,3.285 -1.42,3.352 -1.342,3.426 -1.253,3.504 -1.153,3.57 -1.078,3.637 -1,3.703 -0.91,3.781 -0.836,3.832 -0.77,3.891 -0.679,3.957 -0.625,4.019 -0.551,4.063 -0.484,4.121 -0.418,4.176 -0.352,4.23 -0.297,4.274 -0.238,4.328 -0.188,4.363 -0.132,4.414 -0.09,4.449 -0.02,4.496 0.012,4.535 0.055,4.571 0.109,4.605 0.133,4.637 0.176,4.668 0.207,4.703 0.254,4.723 0.273,4.758 0.309,4.769 0.316,4.801 0.363,4.82 0.375,4.848 0.395,4.855 0.418,4.867 0.418,4.887 0.437,4.903 0.453,4.898 0.461,4.922 0.461,4.922 0.473,4.933 0.473,4.934 0.472,4.934 0.461,4.929 0.461,4.922 0.461,4.934 0.441,4.922 0.438,4.914 0.418,4.898 0.394,4.898 0.395,4.879 0.352,4.868 0.342,4.855 0.32,4.836 0.28,4.812 0.27,4.79 0.22,4.765 0.2,4.738 0.15,4.723 0.12,4.68 0.08,4.66 0.03,4.625 -0.01,4.59 -0.07,4.562 -0.11,4.516 -0.15,4.48 -0.22,4.438 -0.28,4.394 -0.32,4.352 -0.39,4.309 -0.462,4.261 -0.516,4.207 -0.582,4.153 -0.668,4.109 -0.727,4.043 -0.8,4 -0.879,3.934 -0.957,3.867 -1.043,3.812 -1.133,3.746 -1.207,3.68 -1.297,3.625 -1.387,3.539 -1.48,3.473 -1.571,3.406 -1.671,3.328 -1.77,3.25 -1.867,3.176 -1.977,3.098 -2.078,3.011 -2.183,2.934 -2.297,2.832 -2.418,2.769 -2.516,2.672 -2.648,2.571 -2.77,2.492 -2.879,2.394 -2.996,2.297 -3.133,2.199 3.133,2.207 2.996,2.297 2.879,2.395 2.77,2.48 2.648,2.582 2.516,2.672 2.418,2.758 2.297,2.844 2.183,2.933 2.078,3.012 1.977,3.086 1.867,3.176 1.77,3.254 1.671,3.328 1.571,3.406 1.48,3.469 1.387,3.551 1.297,3.613 1.207,3.68 1.133,3.746 1.043,3.812 0.957,3.879 0.879,3.934 0.8,3.988 0.727,4.055 0.668,4.097 0.582,4.153 0.516,4.207 0.462,4.265 0.39,4.305 0.32,4.352 0.28,4.394 0.22,4.438 0.15,4.484 0.11,4.516 0.07,4.558 0.01,4.59 -0.03,4.625 -0.08,4.66 -0.12,4.692 -0.15,4.714 -0.2,4.747 -0.22,4.765 -0.27,4.789 -0.28,4.813 -0.32,4.836 -0.342,4.843 -0.352,4.868 -0.395,4.879 -0.394,4.898 -0.418,4.9 -0.438,4.92 -0.441,4.93 -0.461,4.92 -0.461,4.93 -0.461,4.93 -0.472,4.93 -0.473,4.94 -0.473,4.93 -0.461,4.91 -0.461,4.92 -0.453,4.91 -0.437,4.89 -0.418,4.89 -0.418,4.88 -0.395,4.86 -0.375,4.83 -0.363,4.83 -0.316,4.8 -0.309,4.77 -0.273,4.75 -0.254,4.73 -0.207,4.7 -0.176,4.67 -0.133,4.63 -0.109,4.61 -0.055,4.58 -0.012,4.53 0.02,4.49 0.09,4.45 0.132,4.41 0.188,4.36 0.238,4.33 0.297,4.29 0.352,4.22 0.418,4.17 0.484,4.12 0.551,4.08 0.625,4.01 0.679,3.95 0.77,3.89 0.836,3.85 0.91,3.77 1,3.7 1.078,3.65 1.153,3.57 1.253,3.49 1.342,3.43 1.42,3.36 1.52,3.27 1.62,3.21 1.71,3.12 1.81,3.04 1.91,2.96 2.03,2.89 2.12,2.78 2.24,2.71 2.34,2.61 2.46,2.52 2.58,2.43 2.7,2.33 2.81,2.24 2.93,2.14 3.06,2.04 3.18,1.93 3.32,1.83 3.45,1.74 3.58,1.62 3.71,1.51 3.86,1.4" /><path
         id="path210"
         style="fill:none;stroke:#000000;stroke-width:3.9849999;stroke-linecap:butt;stroke-linejoin:miter;stroke-miterlimit:10;stroke-dasharray:none;stroke-opacity:1"
         d="m 1057.6,1266.68 -2.75,-0.96 -2.65,-1.09 -2.56,-1.2 -2.44,-1.33 -2.37,-1.46 -2.26,-1.57 -2.18,-1.68 -2.07,-1.8 -2,-1.9 -1.9,-2.03 -1.83,-2.12 -1.74,-2.23 -1.66,-2.34 -1.57,-2.44 -1.5,-2.54 -1.42,-2.63 -1.36,-2.74 -1.27,-2.82 -1.21,-2.92 -1.14,-3.02 -1.08,-3.09 -1,-3.19 -0.94,-3.26 -0.9,-3.37 -0.82,-3.42 -0.76,-3.52 -0.7,-3.59 -0.66,-3.65 -0.59,-3.75 -0.56,-3.8 -0.51,-3.88 -0.45,-3.94 -0.4,-4.01 -0.37,-4.07 -0.33,-4.12 -0.27,-4.2 -0.24,-4.25 -0.21,-4.3 -0.18,-4.36 -0.14,-4.41 -0.11,-4.46 -0.08,-4.5 -0.05,-4.55 -0.02,-4.59 0,-4.64 0.02,-4.68 0.03,-4.71 0.06,-4.75 0.08,-4.79 0.08,-4.81 0.11,-4.84 0.11,-4.88 0.13,-4.89 0.12,-4.93 0.15,-4.95 0.14,-4.96 0.15,-4.99 0.15,-4.99 0.14,-5.02 0.14,-5.04 0.13,-5.03 0.14,-5.04 0.12,-5.05 0.12,-5.05 0.1,-5.07 0.08,-5.06 0.07,-5.06 0.07,-5.05 0.03,-5.06 0.01,-5.04 0,-5.032 -0.04,-5.031 -0.06,-5.008 -0.09,-5 -0.11,-4.977 -0.15,-4.957 -0.18,-4.941 -0.22,-4.914 -0.25,-4.899 -0.28,-4.867 -0.33,-4.832 -0.38,-4.801 -0.42,-4.781 -0.47,-4.734 -0.51,-4.715 -0.56,-4.656 -0.61,-4.625 -0.67,-4.582 -0.71,-4.551 -0.78,-4.492 -0.84,-4.438 -0.89,-4.394 -0.96,-4.34 -1.02,-4.297 -1.085,-4.231 -1.153,-4.171 -1.23,-4.122 -1.297,-4.054 -1.363,-3.988 -1.438,-3.922 -1.527,-3.868 -1.582,-3.777 -1.68,-3.726 -1.757,-3.637 -1.836,-3.57 -1.934,-3.493 -2.012,-3.406 -2.097,-3.34 -2.196,-3.242 -2.285,-3.164 -2.375,-3.074 -2.473,-2.989 -2.57,-2.89 -2.668,-2.813 -2.781,-2.703 -2.879,-2.613 -2.977,-2.508 -3.085,-2.414 -3.2,-2.309 -3.304,-2.207 3.304,-2.199 3.2,-2.316 3.085,-2.406 2.977,-2.516 2.879,-2.617 2.781,-2.703 2.668,-2.801 2.57,-2.899 2.473,-2.988 2.375,-3.078 2.285,-3.152 2.196,-3.254 2.097,-3.328 2.012,-3.414 1.934,-3.485 1.836,-3.57 1.757,-3.649 1.68,-3.71 1.582,-3.793 1.527,-3.856 1.438,-3.922 1.363,-4 1.297,-4.054 1.23,-4.11 1.153,-4.172 1.085,-4.242 1.02,-4.285 0.96,-4.34 0.89,-4.394 0.84,-4.45 0.78,-4.492 0.71,-4.539 0.67,-4.582 0.61,-4.625 0.56,-4.668 0.51,-4.703 0.47,-4.746 0.42,-4.766 0.38,-4.812 0.33,-4.836 0.28,-4.867 0.25,-4.887 0.22,-4.922 0.18,-4.934 0.15,-4.968 0.11,-4.977 0.09,-4.996 0.06,-5.012 0.04,-5.019 0,-5.031 -0.01,-5.055 -0.03,-5.043 -0.07,-5.067 -0.07,-5.05 -0.08,-5.067 -0.1,-5.054 -0.12,-5.051 -0.12,-5.055 -0.14,-5.055 -0.13,-5.031 -0.14,-5.031 -0.14,-5.012 -0.15,-5 -0.15,-4.984 -0.14,-4.969 -0.15,-4.941 -0.12,-4.922 -0.13,-4.903 -0.11,-4.875 -0.11,-4.847 -0.08,-4.813 -0.08,-4.777 -0.06,-4.758 -0.03,-4.715 -0.02,-4.668 0,-4.636 0.02,-4.59 0.05,-4.563 0.08,-4.504 0.11,-4.449 0.14,-4.414 0.18,-4.351 0.21,-4.309 0.24,-4.25 0.27,-4.188 0.33,-4.128 0.37,-4.079 0.4,-4.007 0.45,-3.946 0.51,-3.867 0.56,-3.812 0.59,-3.735 0.66,-3.66 0.7,-3.594 0.76,-3.515 0.82,-3.426 0.9,-3.352 0.94,-3.273 1,-3.188 1.08,-3.097 1.14,-3.008 1.21,-2.926 1.27,-2.82 1.36,-2.738 1.42,-2.637 1.5,-2.535 1.57,-2.442 1.66,-2.34 1.74,-2.23 1.83,-2.121 1.9,-2.02 2,-1.91 2.07,-1.793 2.18,-1.691 2.26,-1.559 2.37,-1.453 2.44,-1.328 2.56,-1.219 2.65,-1.078 2.75,-0.965 -3.86,1.407 -3.71,1.503 -3.58,1.625 -3.45,1.727 -3.32,1.832 -3.18,1.937 -3.06,2.043 -2.93,2.141 -2.81,2.231 -2.7,2.339 -2.58,2.43 -2.46,2.516 -2.34,2.613 -2.24,2.703 -2.12,2.789 -2.03,2.879 -1.91,2.957 -1.81,3.043 -1.71,3.133 -1.62,3.195 -1.52,3.285 -1.42,3.352 -1.342,3.426 -1.253,3.504 -1.153,3.57 -1.078,3.637 -1,3.703 -0.91,3.781 -0.836,3.832 -0.77,3.891 -0.679,3.957 -0.625,4.019 -0.551,4.063 -0.484,4.121 -0.418,4.176 -0.352,4.23 -0.297,4.274 -0.238,4.328 -0.188,4.363 -0.132,4.414 -0.09,4.449 -0.02,4.496 0.012,4.535 0.055,4.571 0.109,4.605 0.133,4.637 0.176,4.668 0.207,4.703 0.254,4.723 0.273,4.758 0.309,4.769 0.316,4.801 0.363,4.82 0.375,4.848 0.395,4.855 0.418,4.867 0.418,4.887 0.437,4.903 0.453,4.898 0.461,4.922 0.461,4.922 0.473,4.933 0.473,4.934 0.472,4.934 0.461,4.929 0.461,4.922 0.461,4.934 0.441,4.922 0.438,4.914 0.418,4.898 0.394,4.898 0.395,4.879 0.352,4.868 0.342,4.855 0.32,4.836 0.28,4.812 0.27,4.79 0.22,4.765 0.2,4.738 0.15,4.723 0.12,4.68 0.08,4.66 0.03,4.625 -0.01,4.59 -0.07,4.562 -0.11,4.516 -0.15,4.48 -0.22,4.438 -0.28,4.394 -0.32,4.352 -0.39,4.309 -0.462,4.261 -0.516,4.207 -0.582,4.153 -0.668,4.109 -0.727,4.043 -0.8,4 -0.879,3.934 -0.957,3.867 -1.043,3.812 -1.133,3.746 -1.207,3.68 -1.297,3.625 -1.387,3.539 -1.48,3.473 -1.571,3.406 -1.671,3.328 -1.77,3.25 -1.867,3.176 -1.977,3.098 -2.078,3.011 -2.183,2.934 -2.297,2.832 -2.418,2.769 -2.516,2.672 -2.648,2.571 -2.77,2.492 -2.879,2.394 -2.996,2.297 -3.133,2.199 3.133,2.207 2.996,2.297 2.879,2.395 2.77,2.48 2.648,2.582 2.516,2.672 2.418,2.758 2.297,2.844 2.183,2.933 2.078,3.012 1.977,3.086 1.867,3.176 1.77,3.254 1.671,3.328 1.571,3.406 1.48,3.469 1.387,3.551 1.297,3.613 1.207,3.68 1.133,3.746 1.043,3.812 0.957,3.879 0.879,3.934 0.8,3.988 0.727,4.055 0.668,4.097 0.582,4.153 0.516,4.207 0.462,4.265 0.39,4.305 0.32,4.352 0.28,4.394 0.22,4.438 0.15,4.484 0.11,4.516 0.07,4.558 0.01,4.59 -0.03,4.625 -0.08,4.66 -0.12,4.692 -0.15,4.714 -0.2,4.747 -0.22,4.765 -0.27,4.789 -0.28,4.813 -0.32,4.836 -0.342,4.843 -0.352,4.868 -0.395,4.879 -0.394,4.898 -0.418,4.9 -0.438,4.92 -0.441,4.93 -0.461,4.92 -0.461,4.93 -0.461,4.93 -0.472,4.93 -0.473,4.94 -0.473,4.93 -0.461,4.91 -0.461,4.92 -0.453,4.91 -0.437,4.89 -0.418,4.89 -0.418,4.88 -0.395,4.86 -0.375,4.83 -0.363,4.83 -0.316,4.8 -0.309,4.77 -0.273,4.75 -0.254,4.73 -0.207,4.7 -0.176,4.67 -0.133,4.63 -0.109,4.61 -0.055,4.58 -0.012,4.53 0.02,4.49 0.09,4.45 0.132,4.41 0.188,4.36 0.238,4.33 0.297,4.29 0.352,4.22 0.418,4.17 0.484,4.12 0.551,4.08 0.625,4.01 0.679,3.95 0.77,3.89 0.836,3.85 0.91,3.77 1,3.7 1.078,3.65 1.153,3.57 1.253,3.49 1.342,3.43 1.42,3.36 1.52,3.27 1.62,3.21 1.71,3.12 1.81,3.04 1.91,2.96 2.03,2.89 2.12,2.78 2.24,2.71 2.34,2.61 2.46,2.52 2.58,2.43 2.7,2.33 2.81,2.24 2.93,2.14 3.06,2.04 3.18,1.93 3.32,1.83 3.45,1.74 3.58,1.62 3.71,1.51 3.86,1.4 z" /><g
         transform="matrix(122.4,0,0,-106.8,568.685,230.819)"
         id="g212"><rect
           id="rect214"
           style="fill:#ffffff;fill-opacity:1;fill-rule:nonzero"
           transform="matrix(1,0,0,-1,0,1)"
           height="1"
           width="1"
           y="0"
           x="0" /></g><g
         transform="scale(10,10)"
         id="g216"><text
           id="text218"
           style="font-variant:normal;font-weight:normal;font-size:10.90909958px;font-family:CMMI10;-inkscape-font-specification:CMMI10;writing-mode:lr-tb;fill:#000000;fill-opacity:1;fill-rule:nonzero;stroke:none"
           transform="matrix(1,0,0,-1,59.8805,15.4141)"><tspan
             id="tspan220"
             y="0"
             x="0">x</tspan></text>
</g><path
         id="path222"
         style="fill:#000000;fill-opacity:1;fill-rule:nonzero;stroke:none"
         d="m 202.414,303.672 1.172,-2.211 1.266,-2.121 1.351,-2.031 1.449,-1.965 1.539,-1.891 1.625,-1.812 1.715,-1.735 1.801,-1.66 1.891,-1.594 1.965,-1.527 2.054,-1.461 2.133,-1.394 2.219,-1.321 2.285,-1.261 2.375,-1.2 2.437,-1.14 2.516,-1.09 2.594,-1.02 2.656,-0.968 2.727,-0.911 2.8,-0.859 2.856,-0.801 2.933,-0.758 3,-0.703 3.055,-0.66 3.121,-0.601 3.176,-0.575 3.238,-0.527 3.297,-0.473 3.352,-0.437 3.406,-0.406 3.461,-0.364 3.504,-0.328 3.558,-0.285 3.618,-0.266 3.656,-0.218 3.703,-0.2 3.746,-0.164 3.789,-0.144 3.836,-0.11 3.879,-0.085 3.91,-0.067 3.945,-0.043 3.989,-0.023 4.031,0 4.055,0.023 4.086,0.031 4.121,0.043 4.152,0.055 4.172,0.078 4.211,0.078 4.23,0.098 4.262,0.098 4.273,0.101 4.297,0.121 4.328,0.11 4.329,0.121 4.359,0.109 4.375,0.121 4.383,0.11 4.394,0.109 4.418,0.109 4.414,0.098 4.43,0.09 4.438,0.078 4.437,0.074 4.449,0.055 4.449,0.047 4.461,0.019 4.45,0.012 4.461,0 4.449,-0.02 4.441,-0.058 4.449,-0.063 4.438,-0.089 4.426,-0.122 4.418,-0.14 4.406,-0.176 4.406,-0.199 4.383,-0.242 4.371,-0.262 4.352,-0.297 4.339,-0.344 4.317,-0.359 4.297,-0.418 4.273,-0.441 4.254,-0.493 4.227,-0.527 4.211,-0.582 4.171,-0.617 4.157,-0.668 4.105,-0.715 4.09,-0.77 4.063,-0.812 4.023,-0.879 3.977,-0.926 3.953,-0.976 3.914,-1.032 3.867,-1.089 3.832,-1.153 3.793,-1.219 3.746,-1.273 3.691,-1.344 3.657,-1.406 3.605,-1.469 3.559,-1.539 3.504,-1.617 3.461,-1.68 3.394,-1.746 3.352,-1.836 3.285,-1.898 3.242,-1.981 3.172,-2.054 3.109,-2.141 3.055,-2.219 2.988,-2.297 2.922,-2.382 2.871,-2.473 2.789,-2.559 2.723,-2.648 2.726,2.648 2.79,2.559 2.867,2.473 2.925,2.382 2.989,2.297 3.051,2.219 3.109,2.141 3.176,2.054 3.242,1.981 3.285,1.898 3.352,1.836 3.394,1.746 3.461,1.68 3.504,1.617 3.559,1.539 3.605,1.469 3.656,1.406 3.692,1.344 3.746,1.273 3.793,1.219 3.832,1.153 3.867,1.089 3.91,1.032 3.957,0.976 3.977,0.926 4.023,0.879 4.063,0.812 4.086,0.77 4.109,0.715 4.152,0.668 4.176,0.617 4.207,0.582 4.231,0.527 4.254,0.493 4.273,0.441 4.293,0.418 4.32,0.359 4.34,0.344 4.352,0.297 4.371,0.262 4.383,0.242 4.406,0.199 4.406,0.176 4.414,0.14 4.43,0.122 4.437,0.089 4.45,0.063 4.437,0.058 4.453,0.02 4.457,0 4.449,-0.012 4.461,-0.019 4.45,-0.047 4.453,-0.055 4.437,-0.074 4.438,-0.078 4.429,-0.09 4.414,-0.098 4.418,-0.109 4.395,-0.109 4.383,-0.11 4.371,-0.121 4.363,-0.109 4.328,-0.121 4.328,-0.11 4.297,-0.121 4.274,-0.101 4.261,-0.098 4.231,-0.098 4.207,-0.078 4.176,-0.078 4.152,-0.055 4.121,-0.043 4.086,-0.031 4.055,-0.023 4.019,0 3.989,0.023 3.957,0.043 3.91,0.067 3.879,0.085 3.836,0.11 3.789,0.144 3.746,0.164 3.715,0.2 3.656,0.218 3.605,0.266 3.559,0.285 3.516,0.328 3.449,0.364 3.406,0.406 3.352,0.437 3.296,0.473 3.239,0.527 3.173,0.575 3.12,0.601 3.06,0.66 3,0.703 2.93,0.758 2.86,0.801 2.8,0.859 2.72,0.911 2.67,0.968 2.58,1.02 2.52,1.09 2.44,1.14 2.37,1.2 2.29,1.261 2.22,1.321 2.13,1.394 2.05,1.461 1.97,1.527 1.89,1.594 1.79,1.66 1.73,1.735 1.62,1.812 1.54,1.891 1.45,1.965 1.35,2.031 1.26,2.121 1.18,2.211 -1.72,-3.09 -1.81,-2.965 -1.86,-2.867 -1.94,-2.758 -2.02,-2.648 -2.1,-2.547 -2.15,-2.453 -2.23,-2.352 -2.3,-2.25 -2.36,-2.152 -2.43,-2.055 -2.49,-1.969 -2.56,-1.878 -2.62,-1.79 -2.69,-1.703 -2.73,-1.617 -2.8,-1.523 -2.86,-1.453 -2.91,-1.372 -2.98,-1.296 -3.02,-1.211 -3.08,-1.141 -3.13,-1.078 -3.177,-1 -3.227,-0.922 -3.277,-0.855 -3.328,-0.805 -3.383,-0.723 -3.418,-0.672 -3.449,-0.613 -3.516,-0.551 -3.547,-0.492 -3.582,-0.441 -3.625,-0.383 -3.66,-0.344 -3.703,-0.285 -3.734,-0.23 -3.778,-0.196 -3.804,-0.144 -3.844,-0.11 -3.867,-0.066 -3.899,-0.024 -3.933,0.012 -3.957,0.047 -3.977,0.074 -4.02,0.121 -4.035,0.133 -4.043,0.176 -4.086,0.195 -4.109,0.223 -4.109,0.242 -4.141,0.262 -4.152,0.285 -4.176,0.297 -4.195,0.32 -4.2,0.328 -4.218,0.34 -4.231,0.352 -4.226,0.363 -4.254,0.363 -4.25,0.375 -4.266,0.371 -4.273,0.375 -4.274,0.383 -4.273,0.375 -4.285,0.363 -4.282,0.36 -4.285,0.363 -4.273,0.344 -4.285,0.34 -4.274,0.316 -4.277,0.309 -4.274,0.297 -4.261,0.261 -4.25,0.254 -4.243,0.231 -4.23,0.211 -4.23,0.183 -4.207,0.156 -4.196,0.122 -4.187,0.097 -4.164,0.055 -4.153,0.035 -4.129,-0.012 -4.121,-0.054 -4.086,-0.09 -4.078,-0.121 -4.043,-0.176 -4.031,-0.219 -4,-0.262 -3.977,-0.308 -3.945,-0.375 -3.922,-0.406 -3.886,-0.473 -3.86,-0.527 -3.82,-0.582 -3.801,-0.649 -3.758,-0.703 -3.726,-0.77 -3.692,-0.832 -3.648,-0.89 -3.613,-0.981 -3.571,-1.031 -3.527,-1.109 -3.492,-1.188 -3.45,-1.25 -3.394,-1.344 -3.363,-1.414 -3.309,-1.496 -3.262,-1.582 -3.207,-1.66 -3.164,-1.746 -3.109,-1.844 -3.066,-1.922 -3,-2.023 -2.954,-2.109 -2.89,-2.207 -2.832,-2.309 -2.782,-2.406 -2.726,-2.504 -2.723,2.504 -2.781,2.406 -2.832,2.309 -2.891,2.207 -2.957,2.109 -2.996,2.023 -3.066,1.922 -3.11,1.844 -3.164,1.746 -3.207,1.66 -3.265,1.582 -3.305,1.496 -3.363,1.414 -3.395,1.344 -3.449,1.25 -3.492,1.188 -3.528,1.109 -3.57,1.031 -3.617,0.981 -3.645,0.89 -3.691,0.832 -3.727,0.77 -3.757,0.703 -3.801,0.649 -3.824,0.582 -3.856,0.527 -3.887,0.473 -3.925,0.406 -3.942,0.375 -3.976,0.308 -4,0.262 -4.032,0.219 -4.042,0.176 -4.079,0.121 -4.086,0.09 -4.121,0.054 -4.129,0.012 -4.152,-0.035 -4.164,-0.055 -4.187,-0.097 -4.196,-0.122 -4.211,-0.156 -4.226,-0.183 -4.231,-0.211 -4.242,-0.231 -4.25,-0.254 -4.266,-0.261 -4.273,-0.297 -4.273,-0.309 -4.274,-0.316 -4.285,-0.34 -4.273,-0.344 -4.286,-0.363 -4.285,-0.36 -4.281,-0.363 -4.277,-0.375 -4.274,-0.383 -4.273,-0.375 -4.262,-0.371 -4.25,-0.375 -4.254,-0.363 -4.23,-0.363 -4.231,-0.352 -4.219,-0.34 -4.195,-0.328 -4.195,-0.32 -4.176,-0.297 -4.152,-0.285 -4.145,-0.262 -4.117,-0.242 -4.098,-0.223 -4.078,-0.195 -4.062,-0.176 -4.035,-0.133 -4.008,-0.121 -3.977,-0.074 -3.957,-0.047 -3.933,-0.012 -3.899,0.024 -3.867,0.066 -3.848,0.11 -3.801,0.144 -3.765,0.196 -3.746,0.23 -3.703,0.285 -3.661,0.344 -3.625,0.383 -3.593,0.441 -3.535,0.492 -3.508,0.551 -3.457,0.613 -3.43,0.672 -3.363,0.723 -3.328,0.805 -3.286,0.855 -3.23,0.922 -3.172,1 -3.133,1.078 -3.078,1.141 -3.019,1.211 -2.977,1.296 -2.914,1.372 -2.855,1.453 -2.801,1.523 -2.746,1.617 -2.68,1.703 -2.617,1.79 -2.559,1.878 -2.496,1.969 -2.426,2.055 -2.363,2.152 -2.297,2.25 -2.23,2.352 -2.164,2.453 -2.086,2.547 -2.012,2.648 -1.945,2.758 -1.875,2.867 -1.793,2.965 -1.723,3.09" /><path
         id="path224"
         style="fill:none;stroke:#000000;stroke-width:3.9849999;stroke-linecap:butt;stroke-linejoin:miter;stroke-miterlimit:10;stroke-dasharray:none;stroke-opacity:1"
         d="m 202.414,303.672 1.172,-2.211 1.266,-2.121 1.351,-2.031 1.449,-1.965 1.539,-1.891 1.625,-1.812 1.715,-1.735 1.801,-1.66 1.891,-1.594 1.965,-1.527 2.054,-1.461 2.133,-1.394 2.219,-1.321 2.285,-1.261 2.375,-1.2 2.437,-1.14 2.516,-1.09 2.594,-1.02 2.656,-0.968 2.727,-0.911 2.8,-0.859 2.856,-0.801 2.933,-0.758 3,-0.703 3.055,-0.66 3.121,-0.601 3.176,-0.575 3.238,-0.527 3.297,-0.473 3.352,-0.437 3.406,-0.406 3.461,-0.364 3.504,-0.328 3.558,-0.285 3.618,-0.266 3.656,-0.218 3.703,-0.2 3.746,-0.164 3.789,-0.144 3.836,-0.11 3.879,-0.085 3.91,-0.067 3.945,-0.043 3.989,-0.023 4.031,0 4.055,0.023 4.086,0.031 4.121,0.043 4.152,0.055 4.172,0.078 4.211,0.078 4.23,0.098 4.262,0.098 4.273,0.101 4.297,0.121 4.328,0.11 4.329,0.121 4.359,0.109 4.375,0.121 4.383,0.11 4.394,0.109 4.418,0.109 4.414,0.098 4.43,0.09 4.438,0.078 4.437,0.074 4.449,0.055 4.449,0.047 4.461,0.019 4.45,0.012 4.461,0 4.449,-0.02 4.441,-0.058 4.449,-0.063 4.438,-0.089 4.426,-0.122 4.418,-0.14 4.406,-0.176 4.406,-0.199 4.383,-0.242 4.371,-0.262 4.352,-0.297 4.339,-0.344 4.317,-0.359 4.297,-0.418 4.273,-0.441 4.254,-0.493 4.227,-0.527 4.211,-0.582 4.171,-0.617 4.157,-0.668 4.105,-0.715 4.09,-0.77 4.063,-0.812 4.023,-0.879 3.977,-0.926 3.953,-0.976 3.914,-1.032 3.867,-1.089 3.832,-1.153 3.793,-1.219 3.746,-1.273 3.691,-1.344 3.657,-1.406 3.605,-1.469 3.559,-1.539 3.504,-1.617 3.461,-1.68 3.394,-1.746 3.352,-1.836 3.285,-1.898 3.242,-1.981 3.172,-2.054 3.109,-2.141 3.055,-2.219 2.988,-2.297 2.922,-2.382 2.871,-2.473 2.789,-2.559 2.723,-2.648 2.726,2.648 2.79,2.559 2.867,2.473 2.925,2.382 2.989,2.297 3.051,2.219 3.109,2.141 3.176,2.054 3.242,1.981 3.285,1.898 3.352,1.836 3.394,1.746 3.461,1.68 3.504,1.617 3.559,1.539 3.605,1.469 3.656,1.406 3.692,1.344 3.746,1.273 3.793,1.219 3.832,1.153 3.867,1.089 3.91,1.032 3.957,0.976 3.977,0.926 4.023,0.879 4.063,0.812 4.086,0.77 4.109,0.715 4.152,0.668 4.176,0.617 4.207,0.582 4.231,0.527 4.254,0.493 4.273,0.441 4.293,0.418 4.32,0.359 4.34,0.344 4.352,0.297 4.371,0.262 4.383,0.242 4.406,0.199 4.406,0.176 4.414,0.14 4.43,0.122 4.437,0.089 4.45,0.063 4.437,0.058 4.453,0.02 4.457,0 4.449,-0.012 4.461,-0.019 4.45,-0.047 4.453,-0.055 4.437,-0.074 4.438,-0.078 4.429,-0.09 4.414,-0.098 4.418,-0.109 4.395,-0.109 4.383,-0.11 4.371,-0.121 4.363,-0.109 4.328,-0.121 4.328,-0.11 4.297,-0.121 4.274,-0.101 4.261,-0.098 4.231,-0.098 4.207,-0.078 4.176,-0.078 4.152,-0.055 4.121,-0.043 4.086,-0.031 4.055,-0.023 4.019,0 3.989,0.023 3.957,0.043 3.91,0.067 3.879,0.085 3.836,0.11 3.789,0.144 3.746,0.164 3.715,0.2 3.656,0.218 3.605,0.266 3.559,0.285 3.516,0.328 3.449,0.364 3.406,0.406 3.352,0.437 3.296,0.473 3.239,0.527 3.173,0.575 3.12,0.601 3.06,0.66 3,0.703 2.93,0.758 2.86,0.801 2.8,0.859 2.72,0.911 2.67,0.968 2.58,1.02 2.52,1.09 2.44,1.14 2.37,1.2 2.29,1.261 2.22,1.321 2.13,1.394 2.05,1.461 1.97,1.527 1.89,1.594 1.79,1.66 1.73,1.735 1.62,1.812 1.54,1.891 1.45,1.965 1.35,2.031 1.26,2.121 1.18,2.211 -1.72,-3.09 -1.81,-2.965 -1.86,-2.867 -1.94,-2.758 -2.02,-2.648 -2.1,-2.547 -2.15,-2.453 -2.23,-2.352 -2.3,-2.25 -2.36,-2.152 -2.43,-2.055 -2.49,-1.969 -2.56,-1.878 -2.62,-1.79 -2.69,-1.703 -2.73,-1.617 -2.8,-1.523 -2.86,-1.453 -2.91,-1.372 -2.98,-1.296 -3.02,-1.211 -3.08,-1.141 -3.13,-1.078 -3.177,-1 -3.227,-0.922 -3.277,-0.855 -3.328,-0.805 -3.383,-0.723 -3.418,-0.672 -3.449,-0.613 -3.516,-0.551 -3.547,-0.492 -3.582,-0.441 -3.625,-0.383 -3.66,-0.344 -3.703,-0.285 -3.734,-0.23 -3.778,-0.196 -3.804,-0.144 -3.844,-0.11 -3.867,-0.066 -3.899,-0.024 -3.933,0.012 -3.957,0.047 -3.977,0.074 -4.02,0.121 -4.035,0.133 -4.043,0.176 -4.086,0.195 -4.109,0.223 -4.109,0.242 -4.141,0.262 -4.152,0.285 -4.176,0.297 -4.195,0.32 -4.2,0.328 -4.218,0.34 -4.231,0.352 -4.226,0.363 -4.254,0.363 -4.25,0.375 -4.266,0.371 -4.273,0.375 -4.274,0.383 -4.273,0.375 -4.285,0.363 -4.282,0.36 -4.285,0.363 -4.273,0.344 -4.285,0.34 -4.274,0.316 -4.277,0.309 -4.274,0.297 -4.261,0.261 -4.25,0.254 -4.243,0.231 -4.23,0.211 -4.23,0.183 -4.207,0.156 -4.196,0.122 -4.187,0.097 -4.164,0.055 -4.153,0.035 -4.129,-0.012 -4.121,-0.054 -4.086,-0.09 -4.078,-0.121 -4.043,-0.176 -4.031,-0.219 -4,-0.262 -3.977,-0.308 -3.945,-0.375 -3.922,-0.406 -3.886,-0.473 -3.86,-0.527 -3.82,-0.582 -3.801,-0.649 -3.758,-0.703 -3.726,-0.77 -3.692,-0.832 -3.648,-0.89 -3.613,-0.981 -3.571,-1.031 -3.527,-1.109 -3.492,-1.188 -3.45,-1.25 -3.394,-1.344 -3.363,-1.414 -3.309,-1.496 -3.262,-1.582 -3.207,-1.66 -3.164,-1.746 -3.109,-1.844 -3.066,-1.922 -3,-2.023 -2.954,-2.109 -2.89,-2.207 -2.832,-2.309 -2.782,-2.406 -2.726,-2.504 -2.723,2.504 -2.781,2.406 -2.832,2.309 -2.891,2.207 -2.957,2.109 -2.996,2.023 -3.066,1.922 -3.11,1.844 -3.164,1.746 -3.207,1.66 -3.265,1.582 -3.305,1.496 -3.363,1.414 -3.395,1.344 -3.449,1.25 -3.492,1.188 -3.528,1.109 -3.57,1.031 -3.617,0.981 -3.645,0.89 -3.691,0.832 -3.727,0.77 -3.757,0.703 -3.801,0.649 -3.824,0.582 -3.856,0.527 -3.887,0.473 -3.925,0.406 -3.942,0.375 -3.976,0.308 -4,0.262 -4.032,0.219 -4.042,0.176 -4.079,0.121 -4.086,0.09 -4.121,0.054 -4.129,0.012 -4.152,-0.035 -4.164,-0.055 -4.187,-0.097 -4.196,-0.122 -4.211,-0.156 -4.226,-0.183 -4.231,-0.211 -4.242,-0.231 -4.25,-0.254 -4.266,-0.261 -4.273,-0.297 -4.273,-0.309 -4.274,-0.316 -4.285,-0.34 -4.273,-0.344 -4.286,-0.363 -4.285,-0.36 -4.281,-0.363 -4.277,-0.375 -4.274,-0.383 -4.273,-0.375 -4.262,-0.371 -4.25,-0.375 -4.254,-0.363 -4.23,-0.363 -4.231,-0.352 -4.219,-0.34 -4.195,-0.328 -4.195,-0.32 -4.176,-0.297 -4.152,-0.285 -4.145,-0.262 -4.117,-0.242 -4.098,-0.223 -4.078,-0.195 -4.062,-0.176 -4.035,-0.133 -4.008,-0.121 -3.977,-0.074 -3.957,-0.047 -3.933,-0.012 -3.899,0.024 -3.867,0.066 -3.848,0.11 -3.801,0.144 -3.765,0.196 -3.746,0.23 -3.703,0.285 -3.661,0.344 -3.625,0.383 -3.593,0.441 -3.535,0.492 -3.508,0.551 -3.457,0.613 -3.43,0.672 -3.363,0.723 -3.328,0.805 -3.286,0.855 -3.23,0.922 -3.172,1 -3.133,1.078 -3.078,1.141 -3.019,1.211 -2.977,1.296 -2.914,1.372 -2.855,1.453 -2.801,1.523 -2.746,1.617 -2.68,1.703 -2.617,1.79 -2.559,1.878 -2.496,1.969 -2.426,2.055 -2.363,2.152 -2.297,2.25 -2.23,2.352 -2.164,2.453 -2.086,2.547 -2.012,2.648 -1.945,2.758 -1.875,2.867 -1.793,2.965 -1.723,3.09 z" /><g
         transform="matrix(180,0,0,-135.6,1102.39,281.079)"
         id="g226"><rect
           id="rect228"
           style="fill:#ffffff;fill-opacity:1;fill-rule:nonzero"
           transform="matrix(1,0,0,-1,0,1)"
           height="1"
           width="1"
           y="0"
           x="0" /></g><g
         transform="scale(10,10)"
         id="g230"><text
           id="text232"
           style="font-variant:normal;font-weight:normal;font-size:10.90909958px;font-family:CMMI10;-inkscape-font-specification:CMMI10;writing-mode:lr-tb;fill:#000000;fill-opacity:1;fill-rule:nonzero;stroke:none"
           transform="matrix(1,0,0,-1,113.251,17.5598)"><tspan
             id="tspan234"
             y="0"
             x="0 5.6347194">dx</tspan></text>
</g><path
         id="path236"
         style="fill:#000000;fill-opacity:1;fill-rule:nonzero;stroke:none"
         d="m 1091.22,303.672 0.57,-0.879 0.56,-0.848 0.56,-0.8 0.56,-0.77 0.57,-0.738 0.56,-0.703 0.57,-0.668 0.57,-0.637 0.58,-0.606 0.58,-0.57 0.57,-0.539 0.58,-0.516 0.58,-0.484 0.58,-0.449 0.6,-0.43 0.58,-0.394 0.58,-0.375 0.61,-0.352 0.59,-0.316 0.6,-0.309 0.61,-0.277 0.6,-0.239 0.61,-0.23 0.6,-0.211 0.62,-0.187 0.62,-0.165 0.63,-0.152 0.62,-0.133 0.63,-0.109 0.63,-0.09 0.63,-0.074 0.64,-0.055 0.65,-0.047 0.65,-0.031 0.65,-0.012 0.66,-0.011 0.66,0.011 0.66,0.024 0.68,0.043 0.67,0.043 0.68,0.054 0.68,0.055 0.69,0.078 0.69,0.078 0.71,0.086 0.7,0.102 0.7,0.098 0.73,0.109 0.71,0.109 0.74,0.11 0.72,0.121 0.74,0.109 0.75,0.121 0.74,0.121 0.76,0.133 0.76,0.121 0.77,0.121 0.77,0.121 0.78,0.11 0.79,0.121 0.79,0.109 0.8,0.098 0.81,0.101 0.82,0.098 0.81,0.086 0.82,0.078 0.84,0.078 0.85,0.067 0.84,0.054 0.86,0.043 0.87,0.032 0.86,0.035 0.88,0.011 0.89,0 0.89,-0.023 0.9,-0.023 0.92,-0.043 0.91,-0.067 0.93,-0.066 0.93,-0.098 0.95,-0.097 0.94,-0.133 0.96,-0.145 0.98,-0.164 0.97,-0.187 0.99,-0.207 1,-0.219 1,-0.254 1,-0.274 1.03,-0.296 1.04,-0.321 1.03,-0.351 1.06,-0.364 1.05,-0.406 1.08,-0.418 1.08,-0.449 1.08,-0.484 1.1,-0.504 1.1,-0.551 1.13,-0.559 1.12,-0.605 1.15,-0.637 1.14,-0.66 1.16,-0.703 1.18,-0.735 1.17,-0.757 1.19,-0.801 1.21,-0.848 1.21,-0.867 1.23,-0.914 1.24,-0.953 1.24,-0.988 1.25,-1.024 1.28,-1.078 1.28,-1.098 1.29,-1.152 1.31,-1.199 1.32,-1.231 1.31,-1.273 1.34,-1.328 1.34,1.328 1.32,1.273 1.32,1.231 1.31,1.199 1.28,1.152 1.29,1.098 1.27,1.078 1.25,1.024 1.25,0.988 1.24,0.953 1.23,0.914 1.21,0.867 1.21,0.848 1.18,0.801 1.18,0.757 1.17,0.735 1.17,0.703 1.14,0.66 1.14,0.637 1.12,0.605 1.14,0.559 1.09,0.551 1.1,0.504 1.09,0.484 1.07,0.449 1.08,0.418 1.06,0.406 1.05,0.364 1.03,0.351 1.05,0.321 1.02,0.296 1.01,0.274 1,0.254 1,0.219 0.99,0.207 0.97,0.187 0.98,0.164 0.95,0.145 0.94,0.133 0.95,0.097 0.93,0.098 0.94,0.066 0.91,0.067 0.91,0.043 0.9,0.023 0.89,0.023 0.89,0 0.88,-0.011 0.87,-0.035 0.87,-0.032 0.85,-0.043 0.85,-0.054 0.84,-0.067 0.84,-0.078 0.82,-0.078 0.82,-0.086 0.81,-0.098 0.81,-0.101 0.81,-0.098 0.79,-0.109 0.79,-0.121 0.78,-0.11 0.77,-0.121 0.77,-0.121 0.75,-0.121 0.76,-0.133 0.75,-0.121 0.75,-0.121 0.73,-0.109 0.73,-0.121 0.73,-0.11 0.72,-0.109 0.72,-0.109 0.71,-0.098 0.7,-0.102 0.7,-0.086 0.69,-0.078 0.7,-0.078 0.68,-0.055 0.68,-0.054 0.67,-0.043 0.68,-0.043 0.66,-0.024 0.66,-0.011 0.66,0.011 0.65,0.012 0.64,0.031 0.65,0.047 0.64,0.055 0.64,0.074 0.62,0.09 0.64,0.109 0.61,0.133 0.63,0.152 0.63,0.165 0.61,0.187 0.61,0.211 0.6,0.23 0.6,0.239 0.61,0.277 0.61,0.309 0.59,0.316 0.6,0.352 0.58,0.375 0.58,0.394 0.6,0.43 0.58,0.449 0.58,0.484 0.58,0.516 0.58,0.539 0.58,0.57 0.57,0.606 0.57,0.637 0.58,0.668 0.55,0.703 0.57,0.738 0.57,0.77 0.56,0.8 0.56,0.848 0.57,0.879 -0.74,-1.145 -0.71,-1.097 -0.73,-1.055 -0.71,-1.012 -0.71,-0.965 -0.7,-0.925 -0.7,-0.879 -0.7,-0.832 -0.7,-0.805 -0.69,-0.758 -0.69,-0.722 -0.68,-0.696 -0.69,-0.636 -0.68,-0.614 -0.69,-0.582 -0.68,-0.539 -0.67,-0.504 -0.67,-0.484 -0.68,-0.442 -0.67,-0.406 -0.67,-0.383 -0.67,-0.351 -0.67,-0.332 -0.67,-0.285 -0.66,-0.274 -0.67,-0.242 -0.66,-0.207 -0.67,-0.188 -0.66,-0.164 -0.67,-0.144 -0.67,-0.121 -0.67,-0.098 -0.66,-0.078 -0.67,-0.055 -0.67,-0.031 -0.67,-0.023 -0.67,0 -0.67,0.023 -0.67,0.031 -0.68,0.043 -0.68,0.067 -0.68,0.078 -0.68,0.098 -0.69,0.101 -0.69,0.117 -0.68,0.121 -0.7,0.145 -0.69,0.14 -0.7,0.157 -0.71,0.164 -0.7,0.164 -0.72,0.176 -0.71,0.187 -0.72,0.188 -0.72,0.187 -0.72,0.195 -0.73,0.188 -0.74,0.199 -0.74,0.195 -0.75,0.2 -0.75,0.199 -0.76,0.184 -0.74,0.199 -0.78,0.187 -0.77,0.188 -0.78,0.176 -0.78,0.175 -0.79,0.164 -0.8,0.153 -0.81,0.156 -0.81,0.141 -0.81,0.132 -0.82,0.133 -0.84,0.11 -0.84,0.097 -0.84,0.09 -0.86,0.063 -0.86,0.066 -0.87,0.047 -0.88,0.019 -0.88,0.012 -0.9,0 -0.91,-0.023 -0.91,-0.043 -0.92,-0.067 -0.93,-0.086 -0.95,-0.097 -0.94,-0.133 -0.96,-0.156 -0.98,-0.164 -0.97,-0.196 -1,-0.234 -0.99,-0.25 -1,-0.274 -1.04,-0.308 -1.02,-0.332 -1.04,-0.36 -1.06,-0.398 -1.06,-0.418 -1.08,-0.461 -1.08,-0.48 -1.11,-0.528 -1.1,-0.55 -1.13,-0.594 -1.14,-0.625 -1.14,-0.66 -1.17,-0.704 -1.17,-0.734 -1.18,-0.769 -1.2,-0.813 -1.21,-0.859 -1.22,-0.899 -1.24,-0.937 -1.26,-0.989 -1.26,-1.019 -1.29,-1.066 -1.29,-1.122 -1.31,-1.152 -1.32,-1.211 -1.34,-1.25 -1.34,1.25 -1.31,1.211 -1.31,1.152 -1.3,1.122 -1.29,1.066 -1.26,1.019 -1.25,0.989 -1.24,0.937 -1.22,0.899 -1.21,0.859 -1.21,0.813 -1.18,0.769 -1.17,0.734 -1.17,0.704 -1.14,0.66 -1.13,0.625 -1.13,0.594 -1.11,0.55 -1.1,0.528 -1.08,0.48 -1.08,0.461 -1.07,0.418 -1.05,0.398 -1.05,0.36 -1.02,0.332 -1.03,0.308 -1,0.274 -1,0.25 -0.99,0.234 -0.98,0.196 -0.98,0.164 -0.95,0.156 -0.95,0.133 -0.94,0.097 -0.93,0.086 -0.93,0.067 -0.91,0.043 -0.9,0.023 -0.9,0 -0.88,-0.012 -0.88,-0.019 -0.88,-0.047 -0.86,-0.066 -0.85,-0.063 -0.85,-0.09 -0.83,-0.097 -0.84,-0.11 -0.82,-0.133 -0.81,-0.132 -0.82,-0.141 -0.8,-0.156 -0.8,-0.153 -0.79,-0.164 -0.78,-0.175 -0.78,-0.176 -0.77,-0.188 -0.78,-0.187 -0.75,-0.199 -0.76,-0.184 -0.75,-0.199 -0.74,-0.2 -0.75,-0.195 -0.74,-0.199 -0.72,-0.188 -0.72,-0.195 -0.73,-0.187 -0.71,-0.188 -0.72,-0.187 -0.71,-0.176 -0.7,-0.164 -0.71,-0.164 -0.7,-0.157 -0.69,-0.14 -0.71,-0.145 -0.68,-0.121 -0.69,-0.117 -0.68,-0.101 -0.68,-0.098 -0.68,-0.078 -0.68,-0.067 -0.69,-0.043 -0.67,-0.031 -0.67,-0.023 -0.66,0 -0.68,0.023 -0.67,0.031 -0.67,0.055 -0.66,0.078 -0.67,0.098 -0.67,0.121 -0.67,0.144 -0.65,0.164 -0.68,0.188 -0.66,0.207 -0.66,0.242 -0.66,0.274 -0.68,0.285 -0.66,0.332 -0.68,0.351 -0.66,0.383 -0.68,0.406 -0.68,0.442 -0.67,0.484 -0.67,0.504 -0.68,0.539 -0.68,0.582 -0.68,0.614 -0.69,0.636 -0.68,0.696 -0.7,0.722 -0.69,0.758 -0.69,0.805 -0.71,0.832 -0.7,0.879 -0.7,0.925 -0.7,0.965 -0.72,1.012 -0.72,1.055 -0.72,1.097 -0.73,1.145" /><path
         id="path238"
         style="fill:none;stroke:#000000;stroke-width:3.9849999;stroke-linecap:butt;stroke-linejoin:miter;stroke-miterlimit:10;stroke-dasharray:none;stroke-opacity:1"
         d="m 1091.22,303.672 0.57,-0.879 0.56,-0.848 0.56,-0.8 0.56,-0.77 0.57,-0.738 0.56,-0.703 0.57,-0.668 0.57,-0.637 0.58,-0.606 0.58,-0.57 0.57,-0.539 0.58,-0.516 0.58,-0.484 0.58,-0.449 0.6,-0.43 0.58,-0.394 0.58,-0.375 0.61,-0.352 0.59,-0.316 0.6,-0.309 0.61,-0.277 0.6,-0.239 0.61,-0.23 0.6,-0.211 0.62,-0.187 0.62,-0.165 0.63,-0.152 0.62,-0.133 0.63,-0.109 0.63,-0.09 0.63,-0.074 0.64,-0.055 0.65,-0.047 0.65,-0.031 0.65,-0.012 0.66,-0.011 0.66,0.011 0.66,0.024 0.68,0.043 0.67,0.043 0.68,0.054 0.68,0.055 0.69,0.078 0.69,0.078 0.71,0.086 0.7,0.102 0.7,0.098 0.73,0.109 0.71,0.109 0.74,0.11 0.72,0.121 0.74,0.109 0.75,0.121 0.74,0.121 0.76,0.133 0.76,0.121 0.77,0.121 0.77,0.121 0.78,0.11 0.79,0.121 0.79,0.109 0.8,0.098 0.81,0.101 0.82,0.098 0.81,0.086 0.82,0.078 0.84,0.078 0.85,0.067 0.84,0.054 0.86,0.043 0.87,0.032 0.86,0.035 0.88,0.011 0.89,0 0.89,-0.023 0.9,-0.023 0.92,-0.043 0.91,-0.067 0.93,-0.066 0.93,-0.098 0.95,-0.097 0.94,-0.133 0.96,-0.145 0.98,-0.164 0.97,-0.187 0.99,-0.207 1,-0.219 1,-0.254 1,-0.274 1.03,-0.296 1.04,-0.321 1.03,-0.351 1.06,-0.364 1.05,-0.406 1.08,-0.418 1.08,-0.449 1.08,-0.484 1.1,-0.504 1.1,-0.551 1.13,-0.559 1.12,-0.605 1.15,-0.637 1.14,-0.66 1.16,-0.703 1.18,-0.735 1.17,-0.757 1.19,-0.801 1.21,-0.848 1.21,-0.867 1.23,-0.914 1.24,-0.953 1.24,-0.988 1.25,-1.024 1.28,-1.078 1.28,-1.098 1.29,-1.152 1.31,-1.199 1.32,-1.231 1.31,-1.273 1.34,-1.328 1.34,1.328 1.32,1.273 1.32,1.231 1.31,1.199 1.28,1.152 1.29,1.098 1.27,1.078 1.25,1.024 1.25,0.988 1.24,0.953 1.23,0.914 1.21,0.867 1.21,0.848 1.18,0.801 1.18,0.757 1.17,0.735 1.17,0.703 1.14,0.66 1.14,0.637 1.12,0.605 1.14,0.559 1.09,0.551 1.1,0.504 1.09,0.484 1.07,0.449 1.08,0.418 1.06,0.406 1.05,0.364 1.03,0.351 1.05,0.321 1.02,0.296 1.01,0.274 1,0.254 1,0.219 0.99,0.207 0.97,0.187 0.98,0.164 0.95,0.145 0.94,0.133 0.95,0.097 0.93,0.098 0.94,0.066 0.91,0.067 0.91,0.043 0.9,0.023 0.89,0.023 0.89,0 0.88,-0.011 0.87,-0.035 0.87,-0.032 0.85,-0.043 0.85,-0.054 0.84,-0.067 0.84,-0.078 0.82,-0.078 0.82,-0.086 0.81,-0.098 0.81,-0.101 0.81,-0.098 0.79,-0.109 0.79,-0.121 0.78,-0.11 0.77,-0.121 0.77,-0.121 0.75,-0.121 0.76,-0.133 0.75,-0.121 0.75,-0.121 0.73,-0.109 0.73,-0.121 0.73,-0.11 0.72,-0.109 0.72,-0.109 0.71,-0.098 0.7,-0.102 0.7,-0.086 0.69,-0.078 0.7,-0.078 0.68,-0.055 0.68,-0.054 0.67,-0.043 0.68,-0.043 0.66,-0.024 0.66,-0.011 0.66,0.011 0.65,0.012 0.64,0.031 0.65,0.047 0.64,0.055 0.64,0.074 0.62,0.09 0.64,0.109 0.61,0.133 0.63,0.152 0.63,0.165 0.61,0.187 0.61,0.211 0.6,0.23 0.6,0.239 0.61,0.277 0.61,0.309 0.59,0.316 0.6,0.352 0.58,0.375 0.58,0.394 0.6,0.43 0.58,0.449 0.58,0.484 0.58,0.516 0.58,0.539 0.58,0.57 0.57,0.606 0.57,0.637 0.58,0.668 0.55,0.703 0.57,0.738 0.57,0.77 0.56,0.8 0.56,0.848 0.57,0.879 -0.74,-1.145 -0.71,-1.097 -0.73,-1.055 -0.71,-1.012 -0.71,-0.965 -0.7,-0.925 -0.7,-0.879 -0.7,-0.832 -0.7,-0.805 -0.69,-0.758 -0.69,-0.722 -0.68,-0.696 -0.69,-0.636 -0.68,-0.614 -0.69,-0.582 -0.68,-0.539 -0.67,-0.504 -0.67,-0.484 -0.68,-0.442 -0.67,-0.406 -0.67,-0.383 -0.67,-0.351 -0.67,-0.332 -0.67,-0.285 -0.66,-0.274 -0.67,-0.242 -0.66,-0.207 -0.67,-0.188 -0.66,-0.164 -0.67,-0.144 -0.67,-0.121 -0.67,-0.098 -0.66,-0.078 -0.67,-0.055 -0.67,-0.031 -0.67,-0.023 -0.67,0 -0.67,0.023 -0.67,0.031 -0.68,0.043 -0.68,0.067 -0.68,0.078 -0.68,0.098 -0.69,0.101 -0.69,0.117 -0.68,0.121 -0.7,0.145 -0.69,0.14 -0.7,0.157 -0.71,0.164 -0.7,0.164 -0.72,0.176 -0.71,0.187 -0.72,0.188 -0.72,0.187 -0.72,0.195 -0.73,0.188 -0.74,0.199 -0.74,0.195 -0.75,0.2 -0.75,0.199 -0.76,0.184 -0.74,0.199 -0.78,0.187 -0.77,0.188 -0.78,0.176 -0.78,0.175 -0.79,0.164 -0.8,0.153 -0.81,0.156 -0.81,0.141 -0.81,0.132 -0.82,0.133 -0.84,0.11 -0.84,0.097 -0.84,0.09 -0.86,0.063 -0.86,0.066 -0.87,0.047 -0.88,0.019 -0.88,0.012 -0.9,0 -0.91,-0.023 -0.91,-0.043 -0.92,-0.067 -0.93,-0.086 -0.95,-0.097 -0.94,-0.133 -0.96,-0.156 -0.98,-0.164 -0.97,-0.196 -1,-0.234 -0.99,-0.25 -1,-0.274 -1.04,-0.308 -1.02,-0.332 -1.04,-0.36 -1.06,-0.398 -1.06,-0.418 -1.08,-0.461 -1.08,-0.48 -1.11,-0.528 -1.1,-0.55 -1.13,-0.594 -1.14,-0.625 -1.14,-0.66 -1.17,-0.704 -1.17,-0.734 -1.18,-0.769 -1.2,-0.813 -1.21,-0.859 -1.22,-0.899 -1.24,-0.937 -1.26,-0.989 -1.26,-1.019 -1.29,-1.066 -1.29,-1.122 -1.31,-1.152 -1.32,-1.211 -1.34,-1.25 -1.34,1.25 -1.31,1.211 -1.31,1.152 -1.3,1.122 -1.29,1.066 -1.26,1.019 -1.25,0.989 -1.24,0.937 -1.22,0.899 -1.21,0.859 -1.21,0.813 -1.18,0.769 -1.17,0.734 -1.17,0.704 -1.14,0.66 -1.13,0.625 -1.13,0.594 -1.11,0.55 -1.1,0.528 -1.08,0.48 -1.08,0.461 -1.07,0.418 -1.05,0.398 -1.05,0.36 -1.02,0.332 -1.03,0.308 -1,0.274 -1,0.25 -0.99,0.234 -0.98,0.196 -0.98,0.164 -0.95,0.156 -0.95,0.133 -0.94,0.097 -0.93,0.086 -0.93,0.067 -0.91,0.043 -0.9,0.023 -0.9,0 -0.88,-0.012 -0.88,-0.019 -0.88,-0.047 -0.86,-0.066 -0.85,-0.063 -0.85,-0.09 -0.83,-0.097 -0.84,-0.11 -0.82,-0.133 -0.81,-0.132 -0.82,-0.141 -0.8,-0.156 -0.8,-0.153 -0.79,-0.164 -0.78,-0.175 -0.78,-0.176 -0.77,-0.188 -0.78,-0.187 -0.75,-0.199 -0.76,-0.184 -0.75,-0.199 -0.74,-0.2 -0.75,-0.195 -0.74,-0.199 -0.72,-0.188 -0.72,-0.195 -0.73,-0.187 -0.71,-0.188 -0.72,-0.187 -0.71,-0.176 -0.7,-0.164 -0.71,-0.164 -0.7,-0.157 -0.69,-0.14 -0.71,-0.145 -0.68,-0.121 -0.69,-0.117 -0.68,-0.101 -0.68,-0.098 -0.68,-0.078 -0.68,-0.067 -0.69,-0.043 -0.67,-0.031 -0.67,-0.023 -0.66,0 -0.68,0.023 -0.67,0.031 -0.67,0.055 -0.66,0.078 -0.67,0.098 -0.67,0.121 -0.67,0.144 -0.65,0.164 -0.68,0.188 -0.66,0.207 -0.66,0.242 -0.66,0.274 -0.68,0.285 -0.66,0.332 -0.68,0.351 -0.66,0.383 -0.68,0.406 -0.68,0.442 -0.67,0.484 -0.67,0.504 -0.68,0.539 -0.68,0.582 -0.68,0.614 -0.69,0.636 -0.68,0.696 -0.7,0.722 -0.69,0.758 -0.69,0.805 -0.71,0.832 -0.7,0.879 -0.7,0.925 -0.7,0.965 -0.72,1.012 -0.72,1.055 -0.72,1.097 -0.73,1.145 z" /><g
         transform="matrix(146.4,0,0,-134.4,33.48,321.48)"
         id="g240"><rect
           id="rect242"
           style="fill:#ffffff;fill-opacity:1;fill-rule:nonzero"
           transform="matrix(1,0,0,-1,0,1)"
           height="1"
           width="1"
           y="0"
           x="0" /></g><g
         transform="scale(10,10)"
         id="g244"><text
           id="text246"
           style="font-variant:normal;font-weight:normal;font-size:10.90909958px;font-family:CMMI10;-inkscape-font-specification:CMMI10;writing-mode:lr-tb;fill:#000000;fill-opacity:1;fill-rule:nonzero;stroke:none"
           transform="matrix(1,0,0,-1,6.36016,21.7199)"><tspan
             id="tspan248"
             y="0"
             x="0">O</tspan></text>
</g><g
         transform="matrix(159.6,0,0,-134.4,1880.78,321.48)"
         id="g250"><rect
           id="rect252"
           style="fill:#ffffff;fill-opacity:1;fill-rule:nonzero"
           transform="matrix(1,0,0,-1,0,1)"
           height="1"
           width="1"
           y="0"
           x="0" /></g><g
         transform="scale(10,10)"
         id="g254"><text
           id="text256"
           style="font-variant:normal;font-weight:normal;font-size:10.90909958px;font-family:CMMI10;-inkscape-font-specification:CMMI10;writing-mode:lr-tb;fill:#000000;fill-opacity:1;fill-rule:nonzero;stroke:none"
           transform="matrix(1,0,0,-1,191.091,21.7199)"><tspan
             id="tspan258"
             y="0"
             x="0">X</tspan></text>
</g><g
         transform="matrix(147.6,0,0,-134.4,32.2799,1808.78)"
         id="g260"><rect
           id="rect262"
           style="fill:#ffffff;fill-opacity:1;fill-rule:nonzero"
           transform="matrix(1,0,0,-1,0,1)"
           height="1"
           width="1"
           y="0"
           x="0" /></g><g
         transform="scale(10,10)"
         id="g264"><text
           id="text266"
           style="font-variant:normal;font-weight:normal;font-size:10.90909958px;font-family:CMMI10;-inkscape-font-specification:CMMI10;writing-mode:lr-tb;fill:#000000;fill-opacity:1;fill-rule:nonzero;stroke:none"
           transform="matrix(1,0,0,-1,6.23984,170.45)"><tspan
             id="tspan268"
             y="0"
             x="0">Y</tspan></text>
</g><path
         id="path270"
         style="fill:none;stroke:#000000;stroke-width:11.95530033;stroke-linecap:butt;stroke-linejoin:miter;stroke-miterlimit:10;stroke-dasharray:none;stroke-opacity:1"
         d="M -0.00390625,321.602 1980.02,321.602" /><path
         id="path272"
         style="fill:none;stroke:#000000;stroke-width:11.95530033;stroke-linecap:butt;stroke-linejoin:miter;stroke-miterlimit:10;stroke-dasharray:none;stroke-opacity:1"
         d="m 180,177.602 0,1584.018" /><g
         transform="scale(10,10)"
         id="g274"><text
           id="text276"
           style="font-variant:normal;font-weight:normal;font-size:11.9552002px;font-family:CMCSC10;-inkscape-font-specification:CMCSC10;writing-mode:lr-tb;fill:#000000;fill-opacity:1;fill-rule:nonzero;stroke:none"
           transform="matrix(1,0,0,-1,88.6813,0.0890625)"><tspan
             id="tspan278"
             y="0"
             x="0 8.5141897 12.111581 19.790342 28.185127 34.787907">Fig.7.</tspan></text>
</g></g></g></svg>