<?xml version="1.0" encoding="UTF-8" standalone="no"?>
<svg
   xmlns:dc="http://purl.org/dc/elements/1.1/"
   xmlns:cc="http://creativecommons.org/ns#"
   xmlns:rdf="http://www.w3.org/1999/02/22-rdf-syntax-ns#"
   xmlns:svg="http://www.w3.org/2000/svg"
   xmlns="http://www.w3.org/2000/svg"
   viewBox="0 0 260 226.25"
   height="226.25"
   width="260"
   xml:space="preserve"
   version="1.1"
   id="svg2"><metadata
     id="metadata8"><rdf:RDF><cc:Work
         rdf:about=""><dc:format>image/svg+xml</dc:format><dc:type
           rdf:resource="http://purl.org/dc/dcmitype/StillImage" /></cc:Work></rdf:RDF></metadata><defs
     id="defs6"><clipPath
       id="clipPath12"
       clipPathUnits="userSpaceOnUse"><path
         id="path14"
         d="m -2,-2 208,0 0,181 -208,0 0,-181 z" /></clipPath></defs><g
     clip-path="url(#clipPath12)"
     transform="matrix(1.25,0,0,-1.25,2.5,223.75)"
     id="g10"><g
       transform="scale(0.1,0.1)"
       id="g16"><path
         id="path18"
         style="fill:none;stroke:#000000;stroke-width:11.95530033;stroke-linecap:butt;stroke-linejoin:miter;stroke-miterlimit:10;stroke-dasharray:none;stroke-opacity:1"
         d="m 1110.01,1169.64 315.004,0 0,183.891 -315.004,0 0,-183.891 z" /><path
         id="path20"
         style="fill:none;stroke:#000000;stroke-width:7.97009993;stroke-linecap:butt;stroke-linejoin:miter;stroke-miterlimit:10;stroke-dasharray:none;stroke-opacity:1"
         d="m 1110.01,1353.54 0,-25.8" /><path
         id="path22"
         style="fill:none;stroke:#000000;stroke-width:7.97009993;stroke-linecap:butt;stroke-linejoin:miter;stroke-miterlimit:10;stroke-dasharray:none;stroke-opacity:1"
         d="m 1110.01,1276.15 0,-25.8" /><path
         id="path24"
         style="fill:none;stroke:#000000;stroke-width:7.97009993;stroke-linecap:butt;stroke-linejoin:miter;stroke-miterlimit:10;stroke-dasharray:none;stroke-opacity:1"
         d="m 1110.01,1250.35 0,-25.81" /><path
         id="path26"
         style="fill:none;stroke:#000000;stroke-width:7.97009993;stroke-linecap:butt;stroke-linejoin:miter;stroke-miterlimit:10;stroke-dasharray:none;stroke-opacity:1"
         d="m 1110.01,1172.95 0,-25.79" /><path
         id="path28"
         style="fill:none;stroke:#000000;stroke-width:7.97009993;stroke-linecap:butt;stroke-linejoin:miter;stroke-miterlimit:10;stroke-dasharray:none;stroke-opacity:1"
         d="m 1110.01,1147.16 0,-25.8" /><path
         id="path30"
         style="fill:none;stroke:#000000;stroke-width:7.97009993;stroke-linecap:butt;stroke-linejoin:miter;stroke-miterlimit:10;stroke-dasharray:none;stroke-opacity:1"
         d="m 1110.01,1069.76 0,-25.8" /><path
         id="path32"
         style="fill:none;stroke:#000000;stroke-width:7.97009993;stroke-linecap:butt;stroke-linejoin:miter;stroke-miterlimit:10;stroke-dasharray:none;stroke-opacity:1"
         d="m 1110.01,1043.96 0,-25.8" /><path
         id="path34"
         style="fill:none;stroke:#000000;stroke-width:7.97009993;stroke-linecap:butt;stroke-linejoin:miter;stroke-miterlimit:10;stroke-dasharray:none;stroke-opacity:1"
         d="m 1110.01,966.562 0,-25.796" /><path
         id="path36"
         style="fill:none;stroke:#000000;stroke-width:7.97009993;stroke-linecap:butt;stroke-linejoin:miter;stroke-miterlimit:10;stroke-dasharray:none;stroke-opacity:1"
         d="m 1110.01,940.766 0,-25.797" /><path
         id="path38"
         style="fill:none;stroke:#000000;stroke-width:7.97009993;stroke-linecap:butt;stroke-linejoin:miter;stroke-miterlimit:10;stroke-dasharray:none;stroke-opacity:1"
         d="m 1110.01,863.363 0,-25.793" /><path
         id="path40"
         style="fill:none;stroke:#000000;stroke-width:7.97009993;stroke-linecap:butt;stroke-linejoin:miter;stroke-miterlimit:10;stroke-dasharray:none;stroke-opacity:1"
         d="m 1110.01,837.57 0,-25.797" /><path
         id="path42"
         style="fill:none;stroke:#000000;stroke-width:7.97009993;stroke-linecap:butt;stroke-linejoin:miter;stroke-miterlimit:10;stroke-dasharray:none;stroke-opacity:1"
         d="m 1110.01,760.18 0,-25.809" /><path
         id="path44"
         style="fill:none;stroke:#000000;stroke-width:7.97009993;stroke-linecap:butt;stroke-linejoin:miter;stroke-miterlimit:10;stroke-dasharray:none;stroke-opacity:1"
         d="m 1110.01,734.371 0,-25.793" /><path
         id="path46"
         style="fill:none;stroke:#000000;stroke-width:7.97009993;stroke-linecap:butt;stroke-linejoin:miter;stroke-miterlimit:10;stroke-dasharray:none;stroke-opacity:1"
         d="m 1110.01,656.984 0,-25.796" /><path
         id="path48"
         style="fill:none;stroke:#000000;stroke-width:7.97009993;stroke-linecap:butt;stroke-linejoin:miter;stroke-miterlimit:10;stroke-dasharray:none;stroke-opacity:1"
         d="m 1110.01,631.188 0,-25.809" /><path
         id="path50"
         style="fill:none;stroke:#000000;stroke-width:7.97009993;stroke-linecap:butt;stroke-linejoin:miter;stroke-miterlimit:10;stroke-dasharray:none;stroke-opacity:1"
         d="m 1110.01,553.789 0,-25.797" /><path
         id="path52"
         style="fill:none;stroke:#000000;stroke-width:7.97009993;stroke-linecap:butt;stroke-linejoin:miter;stroke-miterlimit:10;stroke-dasharray:none;stroke-opacity:1"
         d="m 1110.01,527.992 0,-25.808" /><path
         id="path54"
         style="fill:none;stroke:#000000;stroke-width:7.97009993;stroke-linecap:butt;stroke-linejoin:miter;stroke-miterlimit:10;stroke-dasharray:none;stroke-opacity:1"
         d="m 1110.01,450.594 0,-25.797" /><path
         id="path56"
         style="fill:none;stroke:#000000;stroke-width:7.97009993;stroke-linecap:butt;stroke-linejoin:miter;stroke-miterlimit:10;stroke-dasharray:none;stroke-opacity:1"
         d="m 1110.01,424.797 0,-25.797" /><path
         id="path58"
         style="fill:none;stroke:#000000;stroke-width:7.97009993;stroke-linecap:butt;stroke-linejoin:miter;stroke-miterlimit:10;stroke-dasharray:none;stroke-opacity:1"
         d="m 1110.01,347.395 0,-25.793" /><path
         id="path60"
         style="fill:none;stroke:#000000;stroke-width:7.97009993;stroke-linecap:butt;stroke-linejoin:miter;stroke-miterlimit:10;stroke-dasharray:none;stroke-opacity:1"
         d="m 1425.02,1353.54 0,-25.8" /><path
         id="path62"
         style="fill:none;stroke:#000000;stroke-width:7.97009993;stroke-linecap:butt;stroke-linejoin:miter;stroke-miterlimit:10;stroke-dasharray:none;stroke-opacity:1"
         d="m 1425.02,1276.15 0,-25.8" /><path
         id="path64"
         style="fill:none;stroke:#000000;stroke-width:7.97009993;stroke-linecap:butt;stroke-linejoin:miter;stroke-miterlimit:10;stroke-dasharray:none;stroke-opacity:1"
         d="m 1425.02,1250.35 0,-25.81" /><path
         id="path66"
         style="fill:none;stroke:#000000;stroke-width:7.97009993;stroke-linecap:butt;stroke-linejoin:miter;stroke-miterlimit:10;stroke-dasharray:none;stroke-opacity:1"
         d="m 1425.02,1172.95 0,-25.79" /><path
         id="path68"
         style="fill:none;stroke:#000000;stroke-width:7.97009993;stroke-linecap:butt;stroke-linejoin:miter;stroke-miterlimit:10;stroke-dasharray:none;stroke-opacity:1"
         d="m 1425.02,1147.16 0,-25.8" /><path
         id="path70"
         style="fill:none;stroke:#000000;stroke-width:7.97009993;stroke-linecap:butt;stroke-linejoin:miter;stroke-miterlimit:10;stroke-dasharray:none;stroke-opacity:1"
         d="m 1425.02,1069.76 0,-25.8" /><path
         id="path72"
         style="fill:none;stroke:#000000;stroke-width:7.97009993;stroke-linecap:butt;stroke-linejoin:miter;stroke-miterlimit:10;stroke-dasharray:none;stroke-opacity:1"
         d="m 1425.02,1043.96 0,-25.8" /><path
         id="path74"
         style="fill:none;stroke:#000000;stroke-width:7.97009993;stroke-linecap:butt;stroke-linejoin:miter;stroke-miterlimit:10;stroke-dasharray:none;stroke-opacity:1"
         d="m 1425.02,966.562 0,-25.796" /><path
         id="path76"
         style="fill:none;stroke:#000000;stroke-width:7.97009993;stroke-linecap:butt;stroke-linejoin:miter;stroke-miterlimit:10;stroke-dasharray:none;stroke-opacity:1"
         d="m 1425.02,940.766 0,-25.797" /><path
         id="path78"
         style="fill:none;stroke:#000000;stroke-width:7.97009993;stroke-linecap:butt;stroke-linejoin:miter;stroke-miterlimit:10;stroke-dasharray:none;stroke-opacity:1"
         d="m 1425.02,863.363 0,-25.793" /><path
         id="path80"
         style="fill:none;stroke:#000000;stroke-width:7.97009993;stroke-linecap:butt;stroke-linejoin:miter;stroke-miterlimit:10;stroke-dasharray:none;stroke-opacity:1"
         d="m 1425.02,837.57 0,-25.797" /><path
         id="path82"
         style="fill:none;stroke:#000000;stroke-width:7.97009993;stroke-linecap:butt;stroke-linejoin:miter;stroke-miterlimit:10;stroke-dasharray:none;stroke-opacity:1"
         d="m 1425.02,760.18 0,-25.809" /><path
         id="path84"
         style="fill:none;stroke:#000000;stroke-width:7.97009993;stroke-linecap:butt;stroke-linejoin:miter;stroke-miterlimit:10;stroke-dasharray:none;stroke-opacity:1"
         d="m 1425.02,734.371 0,-25.793" /><path
         id="path86"
         style="fill:none;stroke:#000000;stroke-width:7.97009993;stroke-linecap:butt;stroke-linejoin:miter;stroke-miterlimit:10;stroke-dasharray:none;stroke-opacity:1"
         d="m 1425.02,656.984 0,-25.796" /><path
         id="path88"
         style="fill:none;stroke:#000000;stroke-width:7.97009993;stroke-linecap:butt;stroke-linejoin:miter;stroke-miterlimit:10;stroke-dasharray:none;stroke-opacity:1"
         d="m 1425.02,631.188 0,-25.809" /><path
         id="path90"
         style="fill:none;stroke:#000000;stroke-width:7.97009993;stroke-linecap:butt;stroke-linejoin:miter;stroke-miterlimit:10;stroke-dasharray:none;stroke-opacity:1"
         d="m 1425.02,553.789 0,-25.797" /><path
         id="path92"
         style="fill:none;stroke:#000000;stroke-width:7.97009993;stroke-linecap:butt;stroke-linejoin:miter;stroke-miterlimit:10;stroke-dasharray:none;stroke-opacity:1"
         d="m 1425.02,527.992 0,-25.808" /><path
         id="path94"
         style="fill:none;stroke:#000000;stroke-width:7.97009993;stroke-linecap:butt;stroke-linejoin:miter;stroke-miterlimit:10;stroke-dasharray:none;stroke-opacity:1"
         d="m 1425.02,450.594 0,-25.797" /><path
         id="path96"
         style="fill:none;stroke:#000000;stroke-width:7.97009993;stroke-linecap:butt;stroke-linejoin:miter;stroke-miterlimit:10;stroke-dasharray:none;stroke-opacity:1"
         d="m 1425.02,424.797 0,-25.797" /><path
         id="path98"
         style="fill:none;stroke:#000000;stroke-width:7.97009993;stroke-linecap:butt;stroke-linejoin:miter;stroke-miterlimit:10;stroke-dasharray:none;stroke-opacity:1"
         d="m 1425.02,347.395 0,-25.793" /><path
         id="path100"
         style="fill:none;stroke:#000000;stroke-width:7.97009993;stroke-linecap:butt;stroke-linejoin:miter;stroke-miterlimit:10;stroke-dasharray:none;stroke-opacity:1"
         d="m 1110.01,1353.54 -28.12,0" /><path
         id="path102"
         style="fill:none;stroke:#000000;stroke-width:7.97009993;stroke-linecap:butt;stroke-linejoin:miter;stroke-miterlimit:10;stroke-dasharray:none;stroke-opacity:1"
         d="m 1025.64,1353.54 -28.132,0" /><path
         id="path104"
         style="fill:none;stroke:#000000;stroke-width:7.97009993;stroke-linecap:butt;stroke-linejoin:miter;stroke-miterlimit:10;stroke-dasharray:none;stroke-opacity:1"
         d="m 997.508,1353.54 -28.125,0" /><path
         id="path106"
         style="fill:none;stroke:#000000;stroke-width:7.97009993;stroke-linecap:butt;stroke-linejoin:miter;stroke-miterlimit:10;stroke-dasharray:none;stroke-opacity:1"
         d="m 913.133,1353.54 -28.125,0" /><path
         id="path108"
         style="fill:none;stroke:#000000;stroke-width:7.97009993;stroke-linecap:butt;stroke-linejoin:miter;stroke-miterlimit:10;stroke-dasharray:none;stroke-opacity:1"
         d="m 885.008,1353.54 -28.125,0" /><path
         id="path110"
         style="fill:none;stroke:#000000;stroke-width:7.97009993;stroke-linecap:butt;stroke-linejoin:miter;stroke-miterlimit:10;stroke-dasharray:none;stroke-opacity:1"
         d="m 800.633,1353.54 -28.125,0" /><path
         id="path112"
         style="fill:none;stroke:#000000;stroke-width:7.97009993;stroke-linecap:butt;stroke-linejoin:miter;stroke-miterlimit:10;stroke-dasharray:none;stroke-opacity:1"
         d="m 772.508,1353.54 -28.125,0" /><path
         id="path114"
         style="fill:none;stroke:#000000;stroke-width:7.97009993;stroke-linecap:butt;stroke-linejoin:miter;stroke-miterlimit:10;stroke-dasharray:none;stroke-opacity:1"
         d="m 688.133,1353.54 -28.129,0" /><path
         id="path116"
         style="fill:none;stroke:#000000;stroke-width:7.97009993;stroke-linecap:butt;stroke-linejoin:miter;stroke-miterlimit:10;stroke-dasharray:none;stroke-opacity:1"
         d="m 660.004,1353.54 -28.125,0" /><path
         id="path118"
         style="fill:none;stroke:#000000;stroke-width:7.97009993;stroke-linecap:butt;stroke-linejoin:miter;stroke-miterlimit:10;stroke-dasharray:none;stroke-opacity:1"
         d="m 575.629,1353.54 -28.125,0" /><path
         id="path120"
         style="fill:none;stroke:#000000;stroke-width:7.97009993;stroke-linecap:butt;stroke-linejoin:miter;stroke-miterlimit:10;stroke-dasharray:none;stroke-opacity:1"
         d="m 547.504,1353.54 -28.125,0" /><path
         id="path122"
         style="fill:none;stroke:#000000;stroke-width:7.97009993;stroke-linecap:butt;stroke-linejoin:miter;stroke-miterlimit:10;stroke-dasharray:none;stroke-opacity:1"
         d="m 463.129,1353.54 -28.125,0" /><path
         id="path124"
         style="fill:none;stroke:#000000;stroke-width:7.97009993;stroke-linecap:butt;stroke-linejoin:miter;stroke-miterlimit:10;stroke-dasharray:none;stroke-opacity:1"
         d="m 435.004,1353.54 -28.125,0" /><path
         id="path126"
         style="fill:none;stroke:#000000;stroke-width:7.97009993;stroke-linecap:butt;stroke-linejoin:miter;stroke-miterlimit:10;stroke-dasharray:none;stroke-opacity:1"
         d="m 350.625,1353.54 -28.125,0" /><path
         id="path128"
         style="fill:none;stroke:#000000;stroke-width:7.97009993;stroke-linecap:butt;stroke-linejoin:miter;stroke-miterlimit:10;stroke-dasharray:none;stroke-opacity:1"
         d="m 322.5,1353.54 -28.125,0" /><path
         id="path130"
         style="fill:none;stroke:#000000;stroke-width:7.97009993;stroke-linecap:butt;stroke-linejoin:miter;stroke-miterlimit:10;stroke-dasharray:none;stroke-opacity:1"
         d="m 238.125,1353.54 -28.125,0" /><path
         id="path132"
         style="fill:none;stroke:#000000;stroke-width:7.97009993;stroke-linecap:butt;stroke-linejoin:miter;stroke-miterlimit:10;stroke-dasharray:none;stroke-opacity:1"
         d="m 1425.02,1169.64 -25.32,0" /><path
         id="path134"
         style="fill:none;stroke:#000000;stroke-width:7.97009993;stroke-linecap:butt;stroke-linejoin:miter;stroke-miterlimit:10;stroke-dasharray:none;stroke-opacity:1"
         d="m 1349.08,1169.64 -25.31,0" /><path
         id="path136"
         style="fill:none;stroke:#000000;stroke-width:7.97009993;stroke-linecap:butt;stroke-linejoin:miter;stroke-miterlimit:10;stroke-dasharray:none;stroke-opacity:1"
         d="m 1323.77,1169.64 -25.32,0" /><path
         id="path138"
         style="fill:none;stroke:#000000;stroke-width:7.97009993;stroke-linecap:butt;stroke-linejoin:miter;stroke-miterlimit:10;stroke-dasharray:none;stroke-opacity:1"
         d="m 1247.82,1169.64 -25.31,0" /><path
         id="path140"
         style="fill:none;stroke:#000000;stroke-width:7.97009993;stroke-linecap:butt;stroke-linejoin:miter;stroke-miterlimit:10;stroke-dasharray:none;stroke-opacity:1"
         d="m 1222.51,1169.64 -25.31,0" /><path
         id="path142"
         style="fill:none;stroke:#000000;stroke-width:7.97009993;stroke-linecap:butt;stroke-linejoin:miter;stroke-miterlimit:10;stroke-dasharray:none;stroke-opacity:1"
         d="m 1146.57,1169.64 -25.31,0" /><path
         id="path144"
         style="fill:none;stroke:#000000;stroke-width:7.97009993;stroke-linecap:butt;stroke-linejoin:miter;stroke-miterlimit:10;stroke-dasharray:none;stroke-opacity:1"
         d="m 1121.26,1169.64 -25.31,0" /><path
         id="path146"
         style="fill:none;stroke:#000000;stroke-width:7.97009993;stroke-linecap:butt;stroke-linejoin:miter;stroke-miterlimit:10;stroke-dasharray:none;stroke-opacity:1"
         d="m 1045.32,1169.64 -25.31,0" /><path
         id="path148"
         style="fill:none;stroke:#000000;stroke-width:7.97009993;stroke-linecap:butt;stroke-linejoin:miter;stroke-miterlimit:10;stroke-dasharray:none;stroke-opacity:1"
         d="m 1020.01,1169.64 -25.315,0" /><path
         id="path150"
         style="fill:none;stroke:#000000;stroke-width:7.97009993;stroke-linecap:butt;stroke-linejoin:miter;stroke-miterlimit:10;stroke-dasharray:none;stroke-opacity:1"
         d="m 944.07,1169.64 -25.312,0" /><path
         id="path152"
         style="fill:none;stroke:#000000;stroke-width:7.97009993;stroke-linecap:butt;stroke-linejoin:miter;stroke-miterlimit:10;stroke-dasharray:none;stroke-opacity:1"
         d="m 918.758,1169.64 -25.313,0" /><path
         id="path154"
         style="fill:none;stroke:#000000;stroke-width:7.97009993;stroke-linecap:butt;stroke-linejoin:miter;stroke-miterlimit:10;stroke-dasharray:none;stroke-opacity:1"
         d="m 842.82,1169.64 -25.312,0" /><path
         id="path156"
         style="fill:none;stroke:#000000;stroke-width:7.97009993;stroke-linecap:butt;stroke-linejoin:miter;stroke-miterlimit:10;stroke-dasharray:none;stroke-opacity:1"
         d="m 817.508,1169.64 -25.313,0" /><path
         id="path158"
         style="fill:none;stroke:#000000;stroke-width:7.97009993;stroke-linecap:butt;stroke-linejoin:miter;stroke-miterlimit:10;stroke-dasharray:none;stroke-opacity:1"
         d="m 741.57,1169.64 -25.312,0" /><path
         id="path160"
         style="fill:none;stroke:#000000;stroke-width:7.97009993;stroke-linecap:butt;stroke-linejoin:miter;stroke-miterlimit:10;stroke-dasharray:none;stroke-opacity:1"
         d="m 716.258,1169.64 -25.313,0" /><path
         id="path162"
         style="fill:none;stroke:#000000;stroke-width:7.97009993;stroke-linecap:butt;stroke-linejoin:miter;stroke-miterlimit:10;stroke-dasharray:none;stroke-opacity:1"
         d="m 640.316,1169.64 -25.312,0" /><path
         id="path164"
         style="fill:none;stroke:#000000;stroke-width:7.97009993;stroke-linecap:butt;stroke-linejoin:miter;stroke-miterlimit:10;stroke-dasharray:none;stroke-opacity:1"
         d="m 615.004,1169.64 -25.313,0" /><path
         id="path166"
         style="fill:none;stroke:#000000;stroke-width:7.97009993;stroke-linecap:butt;stroke-linejoin:miter;stroke-miterlimit:10;stroke-dasharray:none;stroke-opacity:1"
         d="m 539.066,1169.64 -25.312,0" /><path
         id="path168"
         style="fill:none;stroke:#000000;stroke-width:7.97009993;stroke-linecap:butt;stroke-linejoin:miter;stroke-miterlimit:10;stroke-dasharray:none;stroke-opacity:1"
         d="m 513.754,1169.64 -25.313,0" /><path
         id="path170"
         style="fill:none;stroke:#000000;stroke-width:7.97009993;stroke-linecap:butt;stroke-linejoin:miter;stroke-miterlimit:10;stroke-dasharray:none;stroke-opacity:1"
         d="m 437.816,1169.64 -25.312,0" /><path
         id="path172"
         style="fill:none;stroke:#000000;stroke-width:7.97009993;stroke-linecap:butt;stroke-linejoin:miter;stroke-miterlimit:10;stroke-dasharray:none;stroke-opacity:1"
         d="m 412.504,1169.64 -25.313,0" /><path
         id="path174"
         style="fill:none;stroke:#000000;stroke-width:7.97009993;stroke-linecap:butt;stroke-linejoin:miter;stroke-miterlimit:10;stroke-dasharray:none;stroke-opacity:1"
         d="m 336.562,1169.64 -25.312,0" /><path
         id="path176"
         style="fill:none;stroke:#000000;stroke-width:7.97009993;stroke-linecap:butt;stroke-linejoin:miter;stroke-miterlimit:10;stroke-dasharray:none;stroke-opacity:1"
         d="m 311.25,1169.64 -25.312,0" /><path
         id="path178"
         style="fill:none;stroke:#000000;stroke-width:7.97009993;stroke-linecap:butt;stroke-linejoin:miter;stroke-miterlimit:10;stroke-dasharray:none;stroke-opacity:1"
         d="m 235.312,1169.64 -25.312,0" /><g
         transform="scale(10,10)"
         id="g180"><text
           id="text182"
           style="font-variant:normal;font-weight:normal;font-size:10.90909958px;font-family:CMMI10;-inkscape-font-specification:CMMI10;writing-mode:lr-tb;fill:#000000;fill-opacity:1;fill-rule:nonzero;stroke:none"
           transform="matrix(1,0,0,-1,120.751,139.339)"><tspan
             id="tspan184"
             y="0"
             x="0 5.6347194">dx</tspan><tspan
             id="tspan186"
             y="15.9402"
             x="25.735201 31.369919">dy</tspan></text>
</g><g
         transform="matrix(146.4,0,0,-156,1014.69,1527.03)"
         id="g188"><rect
           id="rect190"
           style="fill:#ffffff;fill-opacity:1;fill-rule:nonzero"
           transform="matrix(1,0,0,-1,0,1)"
           height="1"
           width="1"
           y="0"
           x="0" /></g><g
         transform="scale(10,10)"
         id="g192"><text
           id="text194"
           style="font-variant:normal;font-weight:normal;font-size:10.90909958px;font-family:CMMI10;-inkscape-font-specification:CMMI10;writing-mode:lr-tb;fill:#000000;fill-opacity:1;fill-rule:nonzero;stroke:none"
           transform="matrix(1,0,0,-1,104.48,142.155)"><tspan
             id="tspan196"
             y="0"
             x="0">Q</tspan></text>
</g><path
         id="path198"
         style="fill:none;stroke:#000000;stroke-width:11.95530033;stroke-linecap:butt;stroke-linejoin:miter;stroke-miterlimit:10;stroke-dasharray:none;stroke-opacity:1"
         d="m 322.5,1603.08 24.941,-5.74 24.938,-5.85 24.941,-5.93 24.926,-6.04 24.942,-6.13 24.937,-6.24 24.941,-6.36 24.938,-6.47 24.941,-6.59 24.938,-6.71 24.941,-6.83 24.926,-6.97 24.941,-7.11 24.938,-7.25 24.941,-7.4 24.938,-7.55 24.937,-7.72 24.942,-7.88 24.929,-8.06 24.938,-8.25 24.937,-8.44 24.942,-8.64 24.937,-8.85 24.942,-9.09 24.937,-9.3 24.93,-9.56 24.949,-9.82 24.932,-10.11 24.94,-10.39 24.94,-10.69 24.93,-11.02 24.95,-11.39 24.93,-11.73 24.93,-12.14 24.94,-12.57 24.95,-13.02 24.93,-13.5 24.94,-14.04 24.94,-14.6 24.94,-15.22 24.93,-15.88 24.94,-16.63 24.93,-17.43 24.95,-18.32 24.93,-19.3 24.94,-20.39 24.93,-21.62 24.95,-23 24.94,-24.56 24.93,-26.38 24.94,-28.46 24.94,-30.902 24.94,-33.793 24.93,-37.313 24.95,-41.625 24.92,-47.078 24.94,-54.176 24.94,-63.796 24.94,-77.586 24.94,-99.043" /><g
         transform="matrix(117.6,0,0,-128.4,-28.2521,902.248)"
         id="g200"><rect
           id="rect202"
           style="fill:#ffffff;fill-opacity:1;fill-rule:nonzero"
           transform="matrix(1,0,0,-1,0,1)"
           height="1"
           width="1"
           y="0"
           x="0" /></g><g
         transform="scale(10,10)"
         id="g204"><text
           id="text206"
           style="font-variant:normal;font-weight:normal;font-size:10.90909958px;font-family:CMMI10;-inkscape-font-specification:CMMI10;writing-mode:lr-tb;fill:#000000;fill-opacity:1;fill-rule:nonzero;stroke:none"
           transform="matrix(1,0,0,-1,0.186719,82.4367)"><tspan
             id="tspan208"
             y="0"
             x="0">y</tspan></text>
</g><path
         id="path210"
         style="fill:#000000;fill-opacity:1;fill-rule:nonzero;stroke:none"
         d="m 187.586,1335.61 -2.754,-0.97 -2.648,-1.1 -2.551,-1.25 -2.449,-1.38 -2.364,-1.51 -2.261,-1.65 -2.176,-1.77 -2.078,-1.9 -1.996,-2.01 -1.903,-2.15 -1.824,-2.26 -1.734,-2.39 -1.66,-2.49 -1.583,-2.62 -1.503,-2.71 -1.418,-2.84 -1.352,-2.93 -1.285,-3.06 -1.199,-3.14 -1.141,-3.24 -1.078,-3.35 -1,-3.43 -0.945,-3.53 -0.887,-3.63 -0.817,-3.71 -0.765,-3.8 -0.703,-3.88 -0.66,-3.97 -0.606,-4.05 -0.551,-4.13 -0.492,-4.2 -0.461,-4.27 -0.406,-4.35 -0.363,-4.42 -0.321,-4.48 -0.285,-4.55 -0.242,-4.61 -0.207,-4.68 -0.176,-4.74 -0.144,-4.79 -0.11,-4.83 -0.074,-4.91 -0.059,-4.94 -0.019,-4.99 -0.012,-5.04 0.024,-5.07 0.043,-5.12 0.054,-5.17 0.078,-5.19 0.086,-5.25 0.11,-5.26 0.109,-5.29 0.133,-5.33 0.133,-5.35 0.133,-5.36 0.14,-5.4 0.145,-5.42 0.152,-5.42 0.145,-5.45 0.14,-5.46 0.133,-5.47 0.133,-5.47 0.133,-5.49 0.109,-5.48 0.098,-5.49 0.086,-5.48 0.066,-5.5 0.055,-5.47 0.047,-5.48 0.007,-5.46 -0.007,-5.46 -0.036,-5.43 -0.054,-5.43 -0.086,-5.4 -0.11,-5.38 -0.156,-5.37 -0.176,-5.34 -0.218,-5.31 -0.254,-5.28 -0.285,-5.25 -0.34,-5.218 -0.375,-5.184 -0.418,-5.14 -0.461,-5.11 -0.504,-5.066 -0.57,-5.008 -0.606,-4.977 -0.672,-4.922 -0.711,-4.878 -0.781,-4.813 -0.836,-4.769 -0.902,-4.7 -0.953,-4.66 -1.024,-4.582 -1.086,-4.515 -1.156,-4.461 -1.219,-4.383 -1.297,-4.317 -1.359,-4.254 -1.441,-4.164 -1.516,-4.097 -1.594,-4.008 -1.679,-3.934 -1.758,-3.843 -1.836,-3.758 -1.934,-3.684 -2.008,-3.578 -2.101,-3.496 -2.195,-3.395 -2.286,-3.296 -2.375,-3.208 -2.4683,-3.097 -2.5743,-3 -2.6796,-2.891 -2.7696,-2.777 -2.875,-2.672 -2.9804,-2.57 -3.086,-2.438 -3.1992,-2.328 -3.3047,-2.219 3.3047,-2.211 3.1992,-2.328 3.086,-2.449 2.9804,-2.562 2.875,-2.668 2.7696,-2.79 2.6796,-2.89 2.5743,-3 2.4683,-3.098 2.375,-3.195 2.286,-3.309 2.195,-3.394 2.101,-3.496 2.008,-3.578 1.934,-3.672 1.836,-3.77 1.758,-3.844 1.679,-3.933 1.594,-4.008 1.516,-4.09 1.441,-4.172 1.359,-4.242 1.297,-4.316 1.219,-4.395 1.156,-4.449 1.086,-4.527 1.024,-4.582 0.953,-4.649 0.902,-4.699 0.836,-4.77 0.781,-4.824 0.711,-4.867 0.672,-4.934 0.606,-4.964 0.57,-5.02 0.504,-5.066 0.461,-5.098 0.418,-5.152 0.375,-5.176 0.34,-5.219 0.285,-5.25 0.254,-5.285 0.218,-5.305 0.176,-5.34 0.156,-5.363 0.11,-5.394 0.086,-5.403 0.054,-5.418 0.036,-5.437 0.007,-5.449 -0.007,-5.473 -0.047,-5.469 -0.055,-5.484 -0.066,-5.481 -0.086,-5.496 -0.098,-5.48 -0.109,-5.485 -0.133,-5.48 -0.133,-5.481 -0.133,-5.472 -0.14,-5.449 -0.145,-5.45 -0.152,-5.429 -0.145,-5.414 -0.14,-5.395 -0.133,-5.371 -0.133,-5.352 -0.133,-5.316 -0.109,-5.297 -0.11,-5.273 -0.086,-5.231 -0.078,-5.195 -0.054,-5.164 -0.043,-5.121 -0.024,-5.086 0.012,-5.031 0.019,-5 0.059,-4.942 0.074,-4.891 0.11,-4.843 0.144,-4.793 0.176,-4.735 0.207,-4.668 0.242,-4.613 0.285,-4.551 0.321,-4.492 0.363,-4.418 0.406,-4.34 0.461,-4.285 0.492,-4.195 0.551,-4.129 0.606,-4.043 0.66,-3.969 0.703,-3.886 0.765,-3.805 0.817,-3.711 0.887,-3.625 0.945,-3.527 1,-3.438 1.078,-3.34 1.141,-3.254 1.199,-3.14 1.285,-3.043 1.352,-2.934 1.418,-2.836 1.503,-2.726 1.583,-2.602 1.66,-2.504 1.734,-2.387 1.824,-2.261 1.903,-2.141 1.996,-2.023 2.078,-1.903 2.176,-1.765 2.261,-1.649 2.364,-1.508 2.449,-1.382 2.551,-1.243 2.648,-1.109 2.754,-0.965 -3.856,1.407 -3.71,1.535 -3.582,1.66 -3.45,1.769 -3.308,1.899 -3.188,2.011 -3.062,2.133 -2.934,2.231 -2.812,2.351 -2.692,2.461 -2.582,2.571 -2.449,2.668 -2.352,2.769 -2.23,2.879 -2.133,2.977 -2.019,3.066 -1.915,3.164 -1.812,3.262 -1.715,3.351 -1.613,3.426 -1.527,3.527 -1.418,3.618 -1.34,3.691 -1.254,3.766 -1.153,3.859 -1.078,3.922 -1,3.996 -0.91,4.078 -0.836,4.152 -0.769,4.208 -0.68,4.285 -0.625,4.351 -0.551,4.406 -0.484,4.469 -0.418,4.528 -0.352,4.593 -0.293,4.637 -0.242,4.691 -0.187,4.747 -0.133,4.789 -0.078,4.843 -0.032,4.879 0.012,4.934 0.055,4.965 0.098,5.011 0.144,5.039 0.176,5.079 0.219,5.109 0.242,5.141 0.273,5.175 0.297,5.196 0.34,5.218 0.352,5.243 0.375,5.273 0.394,5.281 0.406,5.297 0.43,5.317 0.437,5.328 0.454,5.34 0.461,5.339 0.461,5.364 0.472,5.359 0.473,5.363 0.472,5.36 0.461,5.363 0.461,5.348 0.461,5.363 0.442,5.34 0.437,5.34 0.418,5.316 0.395,5.316 0.386,5.297 0.364,5.274 0.34,5.261 0.316,5.243 0.285,5.218 0.266,5.184 0.23,5.164 0.188,5.133 0.152,5.098 0.121,5.074 0.078,5.031 0.032,5 -0.012,4.953 -0.063,4.91 -0.113,4.879 -0.152,4.824 -0.219,4.778 -0.277,4.738 -0.329,4.668 -0.382,4.625 -0.461,4.57 -0.52,4.516 -0.594,4.449 -0.644,4.395 -0.738,4.328 -0.801,4.262 -0.879,4.199 -0.969,4.129 -1.031,4.054 -1.133,3.977 -1.207,3.914 -1.297,3.82 -1.383,3.758 -1.484,3.672 -1.57,3.582 -1.672,3.504 -1.77,3.406 -1.867,3.328 -1.976,3.231 -2.079,3.14 -2.183,3.043 -2.297,2.946 -2.418,2.843 -2.5274,2.75 -2.6367,2.637 -2.7578,2.535 -2.8867,2.43 -3,2.316 -3.1328,2.211 3.1328,2.207 3,2.317 2.8867,2.429 2.7578,2.539 2.6367,2.645 2.5274,2.75 2.418,2.844 2.297,2.945 2.183,3.043 2.079,3.141 1.976,3.23 1.867,3.317 1.77,3.418 1.672,3.496 1.57,3.589 1.484,3.672 1.383,3.746 1.297,3.832 1.207,3.903 1.133,3.988 1.031,4.051 0.969,4.121 0.879,4.199 0.801,4.262 0.738,4.328 0.644,4.395 0.594,4.449 0.52,4.515 0.461,4.571 0.382,4.625 0.329,4.679 0.277,4.727 0.219,4.777 0.152,4.836 0.113,4.867 0.063,4.922 0.012,4.953 -0.032,4.989 -0.078,5.043 -0.121,5.062 -0.152,5.098 -0.188,5.14 -0.23,5.16 -0.266,5.19 -0.285,5.21 -0.316,5.24 -0.34,5.26 -0.364,5.28 -0.386,5.31 -0.395,5.3 -0.418,5.32 -0.437,5.35 -0.442,5.34 -0.461,5.35 -0.461,5.35 -0.461,5.37 -0.472,5.36 -0.473,5.36 -0.472,5.36 -0.461,5.36 -0.461,5.35 -0.454,5.34 -0.437,5.32 -0.43,5.32 -0.406,5.29 -0.394,5.29 -0.375,5.27 -0.352,5.24 -0.34,5.22 -0.297,5.2 -0.273,5.17 -0.242,5.15 -0.219,5.1 -0.176,5.08 -0.144,5.04 -0.098,5.01 -0.055,4.97 -0.012,4.92 0.032,4.89 0.078,4.83 0.133,4.79 0.187,4.75 0.242,4.7 0.293,4.64 0.352,4.58 0.418,4.53 0.484,4.47 0.551,4.4 0.625,4.35 0.68,4.29 0.769,4.22 0.836,4.14 0.91,4.08 1,4 1.078,3.93 1.153,3.84 1.254,3.78 1.34,3.69 1.418,3.61 1.527,3.53 1.613,3.43 1.715,3.35 1.812,3.25 1.915,3.17 2.019,3.08 2.133,2.97 2.23,2.87 2.352,2.77 2.449,2.68 2.582,2.56 2.692,2.46 2.812,2.35 2.934,2.24 3.062,2.12 3.188,2.02 3.308,1.89 3.45,1.79 3.582,1.64 3.71,1.54 3.856,1.41" /><path
         id="path212"
         style="fill:none;stroke:#000000;stroke-width:3.9849999;stroke-linecap:butt;stroke-linejoin:miter;stroke-miterlimit:10;stroke-dasharray:none;stroke-opacity:1"
         d="m 187.586,1335.61 -2.754,-0.97 -2.648,-1.1 -2.551,-1.25 -2.449,-1.38 -2.364,-1.51 -2.261,-1.65 -2.176,-1.77 -2.078,-1.9 -1.996,-2.01 -1.903,-2.15 -1.824,-2.26 -1.734,-2.39 -1.66,-2.49 -1.583,-2.62 -1.503,-2.71 -1.418,-2.84 -1.352,-2.93 -1.285,-3.06 -1.199,-3.14 -1.141,-3.24 -1.078,-3.35 -1,-3.43 -0.945,-3.53 -0.887,-3.63 -0.817,-3.71 -0.765,-3.8 -0.703,-3.88 -0.66,-3.97 -0.606,-4.05 -0.551,-4.13 -0.492,-4.2 -0.461,-4.27 -0.406,-4.35 -0.363,-4.42 -0.321,-4.48 -0.285,-4.55 -0.242,-4.61 -0.207,-4.68 -0.176,-4.74 -0.144,-4.79 -0.11,-4.83 -0.074,-4.91 -0.059,-4.94 -0.019,-4.99 -0.012,-5.04 0.024,-5.07 0.043,-5.12 0.054,-5.17 0.078,-5.19 0.086,-5.25 0.11,-5.26 0.109,-5.29 0.133,-5.33 0.133,-5.35 0.133,-5.36 0.14,-5.4 0.145,-5.42 0.152,-5.42 0.145,-5.45 0.14,-5.46 0.133,-5.47 0.133,-5.47 0.133,-5.49 0.109,-5.48 0.098,-5.49 0.086,-5.48 0.066,-5.5 0.055,-5.47 0.047,-5.48 0.007,-5.46 -0.007,-5.46 -0.036,-5.43 -0.054,-5.43 -0.086,-5.4 -0.11,-5.38 -0.156,-5.37 -0.176,-5.34 -0.218,-5.31 -0.254,-5.28 -0.285,-5.25 -0.34,-5.218 -0.375,-5.184 -0.418,-5.14 -0.461,-5.11 -0.504,-5.066 -0.57,-5.008 -0.606,-4.977 -0.672,-4.922 -0.711,-4.878 -0.781,-4.813 -0.836,-4.769 -0.902,-4.7 -0.953,-4.66 -1.024,-4.582 -1.086,-4.515 -1.156,-4.461 -1.219,-4.383 -1.297,-4.317 -1.359,-4.254 -1.441,-4.164 -1.516,-4.097 -1.594,-4.008 -1.679,-3.934 -1.758,-3.843 -1.836,-3.758 -1.934,-3.684 -2.008,-3.578 -2.101,-3.496 -2.195,-3.395 -2.286,-3.296 -2.375,-3.208 -2.4683,-3.097 -2.5743,-3 -2.6796,-2.891 -2.7696,-2.777 -2.875,-2.672 -2.9804,-2.57 -3.086,-2.438 -3.1992,-2.328 -3.3047,-2.219 3.3047,-2.211 3.1992,-2.328 3.086,-2.449 2.9804,-2.562 2.875,-2.668 2.7696,-2.79 2.6796,-2.89 2.5743,-3 2.4683,-3.098 2.375,-3.195 2.286,-3.309 2.195,-3.394 2.101,-3.496 2.008,-3.578 1.934,-3.672 1.836,-3.77 1.758,-3.844 1.679,-3.933 1.594,-4.008 1.516,-4.09 1.441,-4.172 1.359,-4.242 1.297,-4.316 1.219,-4.395 1.156,-4.449 1.086,-4.527 1.024,-4.582 0.953,-4.649 0.902,-4.699 0.836,-4.77 0.781,-4.824 0.711,-4.867 0.672,-4.934 0.606,-4.964 0.57,-5.02 0.504,-5.066 0.461,-5.098 0.418,-5.152 0.375,-5.176 0.34,-5.219 0.285,-5.25 0.254,-5.285 0.218,-5.305 0.176,-5.34 0.156,-5.363 0.11,-5.394 0.086,-5.403 0.054,-5.418 0.036,-5.437 0.007,-5.449 -0.007,-5.473 -0.047,-5.469 -0.055,-5.484 -0.066,-5.481 -0.086,-5.496 -0.098,-5.48 -0.109,-5.485 -0.133,-5.48 -0.133,-5.481 -0.133,-5.472 -0.14,-5.449 -0.145,-5.45 -0.152,-5.429 -0.145,-5.414 -0.14,-5.395 -0.133,-5.371 -0.133,-5.352 -0.133,-5.316 -0.109,-5.297 -0.11,-5.273 -0.086,-5.231 -0.078,-5.195 -0.054,-5.164 -0.043,-5.121 -0.024,-5.086 0.012,-5.031 0.019,-5 0.059,-4.942 0.074,-4.891 0.11,-4.843 0.144,-4.793 0.176,-4.735 0.207,-4.668 0.242,-4.613 0.285,-4.551 0.321,-4.492 0.363,-4.418 0.406,-4.34 0.461,-4.285 0.492,-4.195 0.551,-4.129 0.606,-4.043 0.66,-3.969 0.703,-3.886 0.765,-3.805 0.817,-3.711 0.887,-3.625 0.945,-3.527 1,-3.438 1.078,-3.34 1.141,-3.254 1.199,-3.14 1.285,-3.043 1.352,-2.934 1.418,-2.836 1.503,-2.726 1.583,-2.602 1.66,-2.504 1.734,-2.387 1.824,-2.261 1.903,-2.141 1.996,-2.023 2.078,-1.903 2.176,-1.765 2.261,-1.649 2.364,-1.508 2.449,-1.382 2.551,-1.243 2.648,-1.109 2.754,-0.965 -3.856,1.407 -3.71,1.535 -3.582,1.66 -3.45,1.769 -3.308,1.899 -3.188,2.011 -3.062,2.133 -2.934,2.231 -2.812,2.351 -2.692,2.461 -2.582,2.571 -2.449,2.668 -2.352,2.769 -2.23,2.879 -2.133,2.977 -2.019,3.066 -1.915,3.164 -1.812,3.262 -1.715,3.351 -1.613,3.426 -1.527,3.527 -1.418,3.618 -1.34,3.691 -1.254,3.766 -1.153,3.859 -1.078,3.922 -1,3.996 -0.91,4.078 -0.836,4.152 -0.769,4.208 -0.68,4.285 -0.625,4.351 -0.551,4.406 -0.484,4.469 -0.418,4.528 -0.352,4.593 -0.293,4.637 -0.242,4.691 -0.187,4.747 -0.133,4.789 -0.078,4.843 -0.032,4.879 0.012,4.934 0.055,4.965 0.098,5.011 0.144,5.039 0.176,5.079 0.219,5.109 0.242,5.141 0.273,5.175 0.297,5.196 0.34,5.218 0.352,5.243 0.375,5.273 0.394,5.281 0.406,5.297 0.43,5.317 0.437,5.328 0.454,5.34 0.461,5.339 0.461,5.364 0.472,5.359 0.473,5.363 0.472,5.36 0.461,5.363 0.461,5.348 0.461,5.363 0.442,5.34 0.437,5.34 0.418,5.316 0.395,5.316 0.386,5.297 0.364,5.274 0.34,5.261 0.316,5.243 0.285,5.218 0.266,5.184 0.23,5.164 0.188,5.133 0.152,5.098 0.121,5.074 0.078,5.031 0.032,5 -0.012,4.953 -0.063,4.91 -0.113,4.879 -0.152,4.824 -0.219,4.778 -0.277,4.738 -0.329,4.668 -0.382,4.625 -0.461,4.57 -0.52,4.516 -0.594,4.449 -0.644,4.395 -0.738,4.328 -0.801,4.262 -0.879,4.199 -0.969,4.129 -1.031,4.054 -1.133,3.977 -1.207,3.914 -1.297,3.82 -1.383,3.758 -1.484,3.672 -1.57,3.582 -1.672,3.504 -1.77,3.406 -1.867,3.328 -1.976,3.231 -2.079,3.14 -2.183,3.043 -2.297,2.946 -2.418,2.843 -2.5274,2.75 -2.6367,2.637 -2.7578,2.535 -2.8867,2.43 -3,2.316 -3.1328,2.211 3.1328,2.207 3,2.317 2.8867,2.429 2.7578,2.539 2.6367,2.645 2.5274,2.75 2.418,2.844 2.297,2.945 2.183,3.043 2.079,3.141 1.976,3.23 1.867,3.317 1.77,3.418 1.672,3.496 1.57,3.589 1.484,3.672 1.383,3.746 1.297,3.832 1.207,3.903 1.133,3.988 1.031,4.051 0.969,4.121 0.879,4.199 0.801,4.262 0.738,4.328 0.644,4.395 0.594,4.449 0.52,4.515 0.461,4.571 0.382,4.625 0.329,4.679 0.277,4.727 0.219,4.777 0.152,4.836 0.113,4.867 0.063,4.922 0.012,4.953 -0.032,4.989 -0.078,5.043 -0.121,5.062 -0.152,5.098 -0.188,5.14 -0.23,5.16 -0.266,5.19 -0.285,5.21 -0.316,5.24 -0.34,5.26 -0.364,5.28 -0.386,5.31 -0.395,5.3 -0.418,5.32 -0.437,5.35 -0.442,5.34 -0.461,5.35 -0.461,5.35 -0.461,5.37 -0.472,5.36 -0.473,5.36 -0.472,5.36 -0.461,5.36 -0.461,5.35 -0.454,5.34 -0.437,5.32 -0.43,5.32 -0.406,5.29 -0.394,5.29 -0.375,5.27 -0.352,5.24 -0.34,5.22 -0.297,5.2 -0.273,5.17 -0.242,5.15 -0.219,5.1 -0.176,5.08 -0.144,5.04 -0.098,5.01 -0.055,4.97 -0.012,4.92 0.032,4.89 0.078,4.83 0.133,4.79 0.187,4.75 0.242,4.7 0.293,4.64 0.352,4.58 0.418,4.53 0.484,4.47 0.551,4.4 0.625,4.35 0.68,4.29 0.769,4.22 0.836,4.14 0.91,4.08 1,4 1.078,3.93 1.153,3.84 1.254,3.78 1.34,3.69 1.418,3.61 1.527,3.53 1.613,3.43 1.715,3.35 1.812,3.25 1.915,3.17 2.019,3.08 2.133,2.97 2.23,2.87 2.352,2.77 2.449,2.68 2.582,2.56 2.692,2.46 2.812,2.35 2.934,2.24 3.062,2.12 3.188,2.02 3.308,1.89 3.45,1.79 3.582,1.64 3.71,1.54 3.856,1.41 z" /><g
         transform="matrix(122.4,0,0,-106.8,598.685,230.819)"
         id="g214"><rect
           id="rect216"
           style="fill:#ffffff;fill-opacity:1;fill-rule:nonzero"
           transform="matrix(1,0,0,-1,0,1)"
           height="1"
           width="1"
           y="0"
           x="0" /></g><g
         transform="scale(10,10)"
         id="g218"><text
           id="text220"
           style="font-variant:normal;font-weight:normal;font-size:10.90909958px;font-family:CMMI10;-inkscape-font-specification:CMMI10;writing-mode:lr-tb;fill:#000000;fill-opacity:1;fill-rule:nonzero;stroke:none"
           transform="matrix(1,0,0,-1,62.8805,15.4141)"><tspan
             id="tspan222"
             y="0"
             x="0">x</tspan></text>
</g><path
         id="path224"
         style="fill:#000000;fill-opacity:1;fill-rule:nonzero;stroke:none"
         d="m 232.414,303.672 1.172,-2.211 1.266,-2.121 1.351,-2.031 1.449,-1.965 1.539,-1.891 1.625,-1.812 1.715,-1.735 1.801,-1.66 1.891,-1.594 1.965,-1.527 2.054,-1.461 2.133,-1.394 2.219,-1.321 2.285,-1.261 2.375,-1.2 2.437,-1.14 2.516,-1.09 2.594,-1.02 2.656,-0.968 2.727,-0.911 2.8,-0.859 2.856,-0.801 2.933,-0.758 3,-0.703 3.055,-0.66 3.121,-0.601 3.176,-0.575 3.238,-0.527 3.297,-0.473 3.352,-0.437 3.406,-0.406 3.461,-0.364 3.504,-0.328 3.558,-0.285 3.618,-0.266 3.656,-0.218 3.703,-0.2 3.746,-0.164 3.789,-0.144 3.836,-0.11 3.879,-0.085 3.91,-0.067 3.945,-0.043 3.989,-0.023 4.031,0 4.055,0.023 4.086,0.031 4.121,0.043 4.152,0.055 4.172,0.078 4.211,0.078 4.23,0.098 4.262,0.098 4.273,0.101 4.297,0.121 4.328,0.11 4.329,0.121 4.359,0.109 4.375,0.121 4.383,0.11 4.394,0.109 4.418,0.109 4.414,0.098 4.43,0.09 4.438,0.078 4.437,0.074 4.449,0.055 4.449,0.047 4.461,0.019 4.45,0.012 4.461,0 4.449,-0.02 4.441,-0.058 4.449,-0.063 4.438,-0.089 4.426,-0.122 4.418,-0.14 4.406,-0.176 4.406,-0.199 4.383,-0.242 4.371,-0.262 4.352,-0.297 4.339,-0.344 4.317,-0.359 4.297,-0.418 4.273,-0.441 4.254,-0.493 4.227,-0.527 4.211,-0.582 4.171,-0.617 4.157,-0.668 4.105,-0.715 4.09,-0.77 4.063,-0.812 4.023,-0.879 3.977,-0.926 3.953,-0.976 3.914,-1.032 3.867,-1.089 3.832,-1.153 3.793,-1.219 3.746,-1.273 3.691,-1.344 3.657,-1.406 3.605,-1.469 3.559,-1.539 3.504,-1.617 3.461,-1.68 3.394,-1.746 3.352,-1.836 3.285,-1.898 3.242,-1.981 3.172,-2.054 3.109,-2.141 3.055,-2.219 2.988,-2.297 2.922,-2.382 2.871,-2.473 2.789,-2.559 2.723,-2.648 2.726,2.648 2.79,2.559 2.867,2.473 2.925,2.382 2.989,2.297 3.051,2.219 3.109,2.141 3.176,2.054 3.242,1.981 3.285,1.898 3.352,1.836 3.394,1.746 3.461,1.68 3.504,1.617 3.559,1.539 3.605,1.469 3.656,1.406 3.692,1.344 3.746,1.273 3.793,1.219 3.832,1.153 3.867,1.089 3.91,1.032 3.957,0.976 3.977,0.926 4.023,0.879 4.063,0.812 4.086,0.77 4.109,0.715 4.152,0.668 4.176,0.617 4.207,0.582 4.231,0.527 4.254,0.493 4.273,0.441 4.293,0.418 4.32,0.359 4.34,0.344 4.352,0.297 4.371,0.262 4.383,0.242 4.406,0.199 4.406,0.176 4.414,0.14 4.43,0.122 4.437,0.089 4.45,0.063 4.437,0.058 4.453,0.02 4.457,0 4.449,-0.012 4.461,-0.019 4.45,-0.047 4.453,-0.055 4.437,-0.074 4.438,-0.078 4.429,-0.09 4.414,-0.098 4.418,-0.109 4.395,-0.109 4.383,-0.11 4.371,-0.121 4.363,-0.109 4.328,-0.121 4.328,-0.11 4.297,-0.121 4.274,-0.101 4.261,-0.098 4.231,-0.098 4.207,-0.078 4.176,-0.078 4.152,-0.055 4.121,-0.043 4.086,-0.031 4.055,-0.023 4.019,0 3.989,0.023 3.957,0.043 3.91,0.067 3.879,0.085 3.836,0.11 3.789,0.144 3.746,0.164 3.715,0.2 3.656,0.218 3.605,0.266 3.56,0.285 3.51,0.328 3.45,0.364 3.41,0.406 3.35,0.437 3.3,0.473 3.24,0.527 3.17,0.575 3.12,0.601 3.06,0.66 3,0.703 2.93,0.758 2.86,0.801 2.8,0.859 2.72,0.911 2.67,0.968 2.58,1.02 2.52,1.09 2.44,1.14 2.37,1.2 2.29,1.261 2.22,1.321 2.13,1.394 2.05,1.461 1.97,1.527 1.89,1.594 1.79,1.66 1.73,1.735 1.62,1.812 1.54,1.891 1.45,1.965 1.35,2.031 1.26,2.121 1.18,2.211 -1.72,-3.09 -1.81,-2.965 -1.86,-2.867 -1.94,-2.758 -2.02,-2.648 -2.1,-2.547 -2.15,-2.453 -2.23,-2.352 -2.3,-2.25 -2.36,-2.152 -2.43,-2.055 -2.49,-1.969 -2.56,-1.878 -2.62,-1.79 -2.69,-1.703 -2.73,-1.617 -2.8,-1.523 -2.86,-1.453 -2.91,-1.372 -2.98,-1.296 -3.02,-1.211 -3.08,-1.141 -3.13,-1.078 -3.17,-1 -3.23,-0.922 -3.28,-0.855 -3.33,-0.805 -3.38,-0.723 -3.42,-0.672 -3.45,-0.613 -3.51,-0.551 -3.55,-0.492 -3.584,-0.441 -3.625,-0.383 -3.66,-0.344 -3.703,-0.285 -3.734,-0.23 -3.778,-0.196 -3.804,-0.144 -3.844,-0.11 -3.867,-0.066 -3.899,-0.024 -3.933,0.012 -3.957,0.047 -3.977,0.074 -4.02,0.121 -4.035,0.133 -4.043,0.176 -4.086,0.195 -4.109,0.223 -4.109,0.242 -4.141,0.262 -4.152,0.285 -4.176,0.297 -4.195,0.32 -4.2,0.328 -4.218,0.34 -4.231,0.352 -4.226,0.363 -4.254,0.363 -4.25,0.375 -4.266,0.371 -4.273,0.375 -4.274,0.383 -4.273,0.375 -4.285,0.363 -4.282,0.36 -4.285,0.363 -4.273,0.344 -4.285,0.34 -4.274,0.316 -4.277,0.309 -4.274,0.297 -4.261,0.261 -4.25,0.254 -4.243,0.231 -4.23,0.211 -4.23,0.183 -4.207,0.156 -4.196,0.122 -4.187,0.097 -4.164,0.055 -4.153,0.035 -4.129,-0.012 -4.121,-0.054 -4.086,-0.09 -4.078,-0.121 -4.043,-0.176 -4.031,-0.219 -4,-0.262 -3.977,-0.308 -3.945,-0.375 -3.922,-0.406 -3.886,-0.473 -3.86,-0.527 -3.82,-0.582 -3.801,-0.649 -3.758,-0.703 -3.726,-0.77 -3.692,-0.832 -3.648,-0.89 -3.613,-0.981 -3.571,-1.031 -3.527,-1.109 -3.492,-1.188 -3.45,-1.25 -3.394,-1.344 -3.363,-1.414 -3.309,-1.496 -3.262,-1.582 -3.207,-1.66 -3.164,-1.746 -3.109,-1.844 -3.066,-1.922 -3,-2.023 -2.954,-2.109 -2.89,-2.207 -2.832,-2.309 -2.782,-2.406 -2.726,-2.504 -2.723,2.504 -2.781,2.406 -2.832,2.309 -2.891,2.207 -2.957,2.109 -2.996,2.023 -3.066,1.922 -3.11,1.844 -3.164,1.746 -3.207,1.66 -3.265,1.582 -3.305,1.496 -3.363,1.414 -3.395,1.344 -3.449,1.25 -3.492,1.188 -3.528,1.109 -3.57,1.031 -3.617,0.981 -3.645,0.89 -3.691,0.832 -3.727,0.77 -3.757,0.703 -3.801,0.649 -3.824,0.582 -3.856,0.527 -3.887,0.473 -3.925,0.406 -3.942,0.375 -3.976,0.308 -4,0.262 -4.032,0.219 -4.042,0.176 -4.079,0.121 -4.086,0.09 -4.121,0.054 -4.129,0.012 -4.152,-0.035 -4.164,-0.055 -4.187,-0.097 -4.196,-0.122 -4.211,-0.156 -4.226,-0.183 -4.231,-0.211 -4.242,-0.231 -4.25,-0.254 -4.266,-0.261 -4.273,-0.297 -4.273,-0.309 -4.274,-0.316 -4.285,-0.34 -4.273,-0.344 -4.286,-0.363 -4.285,-0.36 -4.281,-0.363 -4.277,-0.375 -4.274,-0.383 -4.273,-0.375 -4.262,-0.371 -4.25,-0.375 -4.254,-0.363 -4.23,-0.363 -4.231,-0.352 -4.219,-0.34 -4.195,-0.328 -4.195,-0.32 -4.176,-0.297 -4.152,-0.285 -4.145,-0.262 -4.117,-0.242 -4.098,-0.223 -4.078,-0.195 -4.062,-0.176 -4.035,-0.133 -4.008,-0.121 -3.977,-0.074 -3.957,-0.047 -3.933,-0.012 -3.899,0.024 -3.867,0.066 -3.848,0.11 -3.801,0.144 -3.765,0.196 -3.746,0.23 -3.703,0.285 -3.661,0.344 -3.625,0.383 -3.593,0.441 -3.535,0.492 -3.508,0.551 -3.457,0.613 -3.43,0.672 -3.363,0.723 -3.328,0.805 -3.286,0.855 -3.23,0.922 -3.172,1 -3.133,1.078 -3.078,1.141 -3.019,1.211 -2.977,1.296 -2.914,1.372 -2.855,1.453 -2.801,1.523 -2.746,1.617 -2.68,1.703 -2.617,1.79 -2.559,1.878 -2.496,1.969 -2.426,2.055 -2.363,2.152 -2.297,2.25 -2.23,2.352 -2.164,2.453 -2.086,2.547 -2.012,2.648 -1.945,2.758 -1.875,2.867 -1.793,2.965 -1.723,3.09" /><path
         id="path226"
         style="fill:none;stroke:#000000;stroke-width:3.9849999;stroke-linecap:butt;stroke-linejoin:miter;stroke-miterlimit:10;stroke-dasharray:none;stroke-opacity:1"
         d="m 232.414,303.672 1.172,-2.211 1.266,-2.121 1.351,-2.031 1.449,-1.965 1.539,-1.891 1.625,-1.812 1.715,-1.735 1.801,-1.66 1.891,-1.594 1.965,-1.527 2.054,-1.461 2.133,-1.394 2.219,-1.321 2.285,-1.261 2.375,-1.2 2.437,-1.14 2.516,-1.09 2.594,-1.02 2.656,-0.968 2.727,-0.911 2.8,-0.859 2.856,-0.801 2.933,-0.758 3,-0.703 3.055,-0.66 3.121,-0.601 3.176,-0.575 3.238,-0.527 3.297,-0.473 3.352,-0.437 3.406,-0.406 3.461,-0.364 3.504,-0.328 3.558,-0.285 3.618,-0.266 3.656,-0.218 3.703,-0.2 3.746,-0.164 3.789,-0.144 3.836,-0.11 3.879,-0.085 3.91,-0.067 3.945,-0.043 3.989,-0.023 4.031,0 4.055,0.023 4.086,0.031 4.121,0.043 4.152,0.055 4.172,0.078 4.211,0.078 4.23,0.098 4.262,0.098 4.273,0.101 4.297,0.121 4.328,0.11 4.329,0.121 4.359,0.109 4.375,0.121 4.383,0.11 4.394,0.109 4.418,0.109 4.414,0.098 4.43,0.09 4.438,0.078 4.437,0.074 4.449,0.055 4.449,0.047 4.461,0.019 4.45,0.012 4.461,0 4.449,-0.02 4.441,-0.058 4.449,-0.063 4.438,-0.089 4.426,-0.122 4.418,-0.14 4.406,-0.176 4.406,-0.199 4.383,-0.242 4.371,-0.262 4.352,-0.297 4.339,-0.344 4.317,-0.359 4.297,-0.418 4.273,-0.441 4.254,-0.493 4.227,-0.527 4.211,-0.582 4.171,-0.617 4.157,-0.668 4.105,-0.715 4.09,-0.77 4.063,-0.812 4.023,-0.879 3.977,-0.926 3.953,-0.976 3.914,-1.032 3.867,-1.089 3.832,-1.153 3.793,-1.219 3.746,-1.273 3.691,-1.344 3.657,-1.406 3.605,-1.469 3.559,-1.539 3.504,-1.617 3.461,-1.68 3.394,-1.746 3.352,-1.836 3.285,-1.898 3.242,-1.981 3.172,-2.054 3.109,-2.141 3.055,-2.219 2.988,-2.297 2.922,-2.382 2.871,-2.473 2.789,-2.559 2.723,-2.648 2.726,2.648 2.79,2.559 2.867,2.473 2.925,2.382 2.989,2.297 3.051,2.219 3.109,2.141 3.176,2.054 3.242,1.981 3.285,1.898 3.352,1.836 3.394,1.746 3.461,1.68 3.504,1.617 3.559,1.539 3.605,1.469 3.656,1.406 3.692,1.344 3.746,1.273 3.793,1.219 3.832,1.153 3.867,1.089 3.91,1.032 3.957,0.976 3.977,0.926 4.023,0.879 4.063,0.812 4.086,0.77 4.109,0.715 4.152,0.668 4.176,0.617 4.207,0.582 4.231,0.527 4.254,0.493 4.273,0.441 4.293,0.418 4.32,0.359 4.34,0.344 4.352,0.297 4.371,0.262 4.383,0.242 4.406,0.199 4.406,0.176 4.414,0.14 4.43,0.122 4.437,0.089 4.45,0.063 4.437,0.058 4.453,0.02 4.457,0 4.449,-0.012 4.461,-0.019 4.45,-0.047 4.453,-0.055 4.437,-0.074 4.438,-0.078 4.429,-0.09 4.414,-0.098 4.418,-0.109 4.395,-0.109 4.383,-0.11 4.371,-0.121 4.363,-0.109 4.328,-0.121 4.328,-0.11 4.297,-0.121 4.274,-0.101 4.261,-0.098 4.231,-0.098 4.207,-0.078 4.176,-0.078 4.152,-0.055 4.121,-0.043 4.086,-0.031 4.055,-0.023 4.019,0 3.989,0.023 3.957,0.043 3.91,0.067 3.879,0.085 3.836,0.11 3.789,0.144 3.746,0.164 3.715,0.2 3.656,0.218 3.605,0.266 3.56,0.285 3.51,0.328 3.45,0.364 3.41,0.406 3.35,0.437 3.3,0.473 3.24,0.527 3.17,0.575 3.12,0.601 3.06,0.66 3,0.703 2.93,0.758 2.86,0.801 2.8,0.859 2.72,0.911 2.67,0.968 2.58,1.02 2.52,1.09 2.44,1.14 2.37,1.2 2.29,1.261 2.22,1.321 2.13,1.394 2.05,1.461 1.97,1.527 1.89,1.594 1.79,1.66 1.73,1.735 1.62,1.812 1.54,1.891 1.45,1.965 1.35,2.031 1.26,2.121 1.18,2.211 -1.72,-3.09 -1.81,-2.965 -1.86,-2.867 -1.94,-2.758 -2.02,-2.648 -2.1,-2.547 -2.15,-2.453 -2.23,-2.352 -2.3,-2.25 -2.36,-2.152 -2.43,-2.055 -2.49,-1.969 -2.56,-1.878 -2.62,-1.79 -2.69,-1.703 -2.73,-1.617 -2.8,-1.523 -2.86,-1.453 -2.91,-1.372 -2.98,-1.296 -3.02,-1.211 -3.08,-1.141 -3.13,-1.078 -3.17,-1 -3.23,-0.922 -3.28,-0.855 -3.33,-0.805 -3.38,-0.723 -3.42,-0.672 -3.45,-0.613 -3.51,-0.551 -3.55,-0.492 -3.584,-0.441 -3.625,-0.383 -3.66,-0.344 -3.703,-0.285 -3.734,-0.23 -3.778,-0.196 -3.804,-0.144 -3.844,-0.11 -3.867,-0.066 -3.899,-0.024 -3.933,0.012 -3.957,0.047 -3.977,0.074 -4.02,0.121 -4.035,0.133 -4.043,0.176 -4.086,0.195 -4.109,0.223 -4.109,0.242 -4.141,0.262 -4.152,0.285 -4.176,0.297 -4.195,0.32 -4.2,0.328 -4.218,0.34 -4.231,0.352 -4.226,0.363 -4.254,0.363 -4.25,0.375 -4.266,0.371 -4.273,0.375 -4.274,0.383 -4.273,0.375 -4.285,0.363 -4.282,0.36 -4.285,0.363 -4.273,0.344 -4.285,0.34 -4.274,0.316 -4.277,0.309 -4.274,0.297 -4.261,0.261 -4.25,0.254 -4.243,0.231 -4.23,0.211 -4.23,0.183 -4.207,0.156 -4.196,0.122 -4.187,0.097 -4.164,0.055 -4.153,0.035 -4.129,-0.012 -4.121,-0.054 -4.086,-0.09 -4.078,-0.121 -4.043,-0.176 -4.031,-0.219 -4,-0.262 -3.977,-0.308 -3.945,-0.375 -3.922,-0.406 -3.886,-0.473 -3.86,-0.527 -3.82,-0.582 -3.801,-0.649 -3.758,-0.703 -3.726,-0.77 -3.692,-0.832 -3.648,-0.89 -3.613,-0.981 -3.571,-1.031 -3.527,-1.109 -3.492,-1.188 -3.45,-1.25 -3.394,-1.344 -3.363,-1.414 -3.309,-1.496 -3.262,-1.582 -3.207,-1.66 -3.164,-1.746 -3.109,-1.844 -3.066,-1.922 -3,-2.023 -2.954,-2.109 -2.89,-2.207 -2.832,-2.309 -2.782,-2.406 -2.726,-2.504 -2.723,2.504 -2.781,2.406 -2.832,2.309 -2.891,2.207 -2.957,2.109 -2.996,2.023 -3.066,1.922 -3.11,1.844 -3.164,1.746 -3.207,1.66 -3.265,1.582 -3.305,1.496 -3.363,1.414 -3.395,1.344 -3.449,1.25 -3.492,1.188 -3.528,1.109 -3.57,1.031 -3.617,0.981 -3.645,0.89 -3.691,0.832 -3.727,0.77 -3.757,0.703 -3.801,0.649 -3.824,0.582 -3.856,0.527 -3.887,0.473 -3.925,0.406 -3.942,0.375 -3.976,0.308 -4,0.262 -4.032,0.219 -4.042,0.176 -4.079,0.121 -4.086,0.09 -4.121,0.054 -4.129,0.012 -4.152,-0.035 -4.164,-0.055 -4.187,-0.097 -4.196,-0.122 -4.211,-0.156 -4.226,-0.183 -4.231,-0.211 -4.242,-0.231 -4.25,-0.254 -4.266,-0.261 -4.273,-0.297 -4.273,-0.309 -4.274,-0.316 -4.285,-0.34 -4.273,-0.344 -4.286,-0.363 -4.285,-0.36 -4.281,-0.363 -4.277,-0.375 -4.274,-0.383 -4.273,-0.375 -4.262,-0.371 -4.25,-0.375 -4.254,-0.363 -4.23,-0.363 -4.231,-0.352 -4.219,-0.34 -4.195,-0.328 -4.195,-0.32 -4.176,-0.297 -4.152,-0.285 -4.145,-0.262 -4.117,-0.242 -4.098,-0.223 -4.078,-0.195 -4.062,-0.176 -4.035,-0.133 -4.008,-0.121 -3.977,-0.074 -3.957,-0.047 -3.933,-0.012 -3.899,0.024 -3.867,0.066 -3.848,0.11 -3.801,0.144 -3.765,0.196 -3.746,0.23 -3.703,0.285 -3.661,0.344 -3.625,0.383 -3.593,0.441 -3.535,0.492 -3.508,0.551 -3.457,0.613 -3.43,0.672 -3.363,0.723 -3.328,0.805 -3.286,0.855 -3.23,0.922 -3.172,1 -3.133,1.078 -3.078,1.141 -3.019,1.211 -2.977,1.296 -2.914,1.372 -2.855,1.453 -2.801,1.523 -2.746,1.617 -2.68,1.703 -2.617,1.79 -2.559,1.878 -2.496,1.969 -2.426,2.055 -2.363,2.152 -2.297,2.25 -2.23,2.352 -2.164,2.453 -2.086,2.547 -2.012,2.648 -1.945,2.758 -1.875,2.867 -1.793,2.965 -1.723,3.09 z" /><g
         transform="matrix(180,0,0,-135.6,1177.39,281.079)"
         id="g228"><rect
           id="rect230"
           style="fill:#ffffff;fill-opacity:1;fill-rule:nonzero"
           transform="matrix(1,0,0,-1,0,1)"
           height="1"
           width="1"
           y="0"
           x="0" /></g><g
         transform="scale(10,10)"
         id="g232"><text
           id="text234"
           style="font-variant:normal;font-weight:normal;font-size:10.90909958px;font-family:CMMI10;-inkscape-font-specification:CMMI10;writing-mode:lr-tb;fill:#000000;fill-opacity:1;fill-rule:nonzero;stroke:none"
           transform="matrix(1,0,0,-1,120.751,17.5598)"><tspan
             id="tspan236"
             y="0"
             x="0 5.6347194">dx</tspan></text>
</g><path
         id="path238"
         style="fill:#000000;fill-opacity:1;fill-rule:nonzero;stroke:none"
         d="m 1121.22,303.672 0.57,-0.879 0.59,-0.848 0.61,-0.8 0.63,-0.77 0.65,-0.738 0.66,-0.703 0.68,-0.668 0.71,-0.637 0.72,-0.606 0.74,-0.57 0.76,-0.539 0.76,-0.516 0.79,-0.484 0.83,-0.449 0.81,-0.43 0.85,-0.394 0.85,-0.375 0.88,-0.352 0.88,-0.316 0.92,-0.309 0.92,-0.277 0.93,-0.239 0.96,-0.23 0.95,-0.211 0.99,-0.187 0.99,-0.165 1.01,-0.152 1.02,-0.133 1.03,-0.109 1.06,-0.09 1.07,-0.074 1.07,-0.055 1.08,-0.047 1.11,-0.031 1.11,-0.012 1.13,-0.011 1.13,0.011 1.15,0.024 1.16,0.043 1.17,0.043 1.19,0.054 1.2,0.055 1.19,0.078 1.22,0.078 1.23,0.086 1.23,0.102 1.25,0.098 1.25,0.109 1.25,0.109 1.28,0.11 1.27,0.121 1.3,0.109 1.29,0.121 1.31,0.121 1.31,0.133 1.33,0.121 1.32,0.121 1.34,0.121 1.34,0.11 1.35,0.121 1.36,0.109 1.35,0.098 1.38,0.101 1.37,0.098 1.37,0.086 1.39,0.078 1.39,0.078 1.4,0.067 1.4,0.054 1.4,0.043 1.41,0.032 1.41,0.035 1.42,0.011 1.42,0 1.43,-0.023 1.42,-0.023 1.43,-0.043 1.43,-0.067 1.44,-0.066 1.44,-0.098 1.44,-0.097 1.44,-0.133 1.44,-0.145 1.45,-0.164 1.44,-0.187 1.45,-0.207 1.45,-0.219 1.43,-0.254 1.47,-0.274 1.45,-0.296 1.43,-0.321 1.46,-0.351 1.45,-0.364 1.43,-0.406 1.45,-0.418 1.46,-0.449 1.43,-0.484 1.45,-0.504 1.43,-0.551 1.44,-0.559 1.44,-0.605 1.43,-0.637 1.43,-0.66 1.43,-0.703 1.42,-0.735 1.42,-0.757 1.42,-0.801 1.41,-0.848 1.4,-0.867 1.41,-0.914 1.39,-0.953 1.41,-0.988 1.39,-1.024 1.38,-1.078 1.38,-1.098 1.38,-1.152 1.36,-1.199 1.36,-1.231 1.35,-1.273 1.35,-1.328 1.35,1.328 1.35,1.273 1.37,1.231 1.36,1.199 1.37,1.152 1.39,1.098 1.38,1.078 1.39,1.024 1.4,0.988 1.4,0.953 1.41,0.914 1.4,0.867 1.41,0.848 1.42,0.801 1.42,0.757 1.42,0.735 1.43,0.703 1.43,0.66 1.43,0.637 1.43,0.605 1.44,0.559 1.44,0.551 1.44,0.504 1.44,0.484 1.45,0.449 1.45,0.418 1.44,0.406 1.45,0.364 1.45,0.351 1.44,0.321 1.45,0.296 1.46,0.274 1.44,0.254 1.45,0.219 1.45,0.207 1.44,0.187 1.45,0.164 1.44,0.145 1.44,0.133 1.44,0.097 1.44,0.098 1.44,0.066 1.43,0.067 1.42,0.043 1.43,0.023 1.43,0.023 1.42,0 1.41,-0.011 1.42,-0.035 1.41,-0.032 1.39,-0.043 1.41,-0.054 1.4,-0.067 1.39,-0.078 1.38,-0.078 1.38,-0.086 1.37,-0.098 1.37,-0.101 1.36,-0.098 1.36,-0.109 1.35,-0.121 1.34,-0.11 1.34,-0.121 1.32,-0.121 1.33,-0.121 1.3,-0.133 1.31,-0.121 1.3,-0.121 1.3,-0.109 1.27,-0.121 1.27,-0.11 1.26,-0.109 1.25,-0.109 1.25,-0.098 1.23,-0.102 1.23,-0.086 1.21,-0.078 1.2,-0.078 1.2,-0.055 1.18,-0.054 1.18,-0.043 1.15,-0.043 1.16,-0.024 1.13,-0.011 1.13,0.011 1.11,0.012 1.11,0.031 1.07,0.047 1.08,0.055 1.07,0.074 1.05,0.09 1.03,0.109 1.02,0.133 1.02,0.152 0.98,0.165 0.99,0.187 0.96,0.211 0.96,0.23 0.93,0.239 0.92,0.277 0.92,0.309 0.87,0.316 0.88,0.352 0.86,0.375 0.85,0.394 0.81,0.43 0.82,0.449 0.79,0.484 0.77,0.516 0.76,0.539 0.74,0.57 0.72,0.606 0.7,0.637 0.69,0.668 0.65,0.703 0.65,0.738 0.64,0.77 0.6,0.8 0.6,0.848 0.57,0.879 -0.74,-1.145 -0.75,-1.097 -0.76,-1.055 -0.78,-1.012 -0.8,-0.965 -0.8,-0.925 -0.81,-0.879 -0.83,-0.832 -0.85,-0.805 -0.86,-0.758 -0.87,-0.722 -0.87,-0.696 -0.91,-0.636 -0.91,-0.614 -0.91,-0.582 -0.93,-0.539 -0.95,-0.504 -0.94,-0.484 -0.97,-0.442 -0.98,-0.406 -0.98,-0.383 -1,-0.351 -1.03,-0.332 -1.02,-0.285 -1.02,-0.274 -1.04,-0.242 -1.06,-0.207 -1.06,-0.188 -1.08,-0.164 -1.08,-0.144 -1.1,-0.121 -1.1,-0.098 -1.11,-0.078 -1.12,-0.055 -1.13,-0.031 -1.14,-0.023 -1.14,0 -1.16,0.023 -1.16,0.031 -1.18,0.043 -1.18,0.067 -1.19,0.078 -1.2,0.098 -1.2,0.101 -1.22,0.117 -1.21,0.121 -1.23,0.145 -1.24,0.14 -1.24,0.157 -1.25,0.164 -1.25,0.164 -1.25,0.176 -1.28,0.187 -1.27,0.188 -1.28,0.187 -1.29,0.195 -1.29,0.188 -1.29,0.199 -1.3,0.195 -1.32,0.2 -1.31,0.199 -1.32,0.184 -1.32,0.199 -1.32,0.187 -1.33,0.188 -1.34,0.176 -1.34,0.175 -1.34,0.164 -1.35,0.153 -1.36,0.156 -1.36,0.141 -1.36,0.132 -1.35,0.133 -1.38,0.11 -1.36,0.097 -1.37,0.09 -1.37,0.063 -1.38,0.066 -1.38,0.047 -1.38,0.019 -1.39,0.012 -1.38,0 -1.39,-0.023 -1.4,-0.043 -1.38,-0.067 -1.39,-0.086 -1.4,-0.097 -1.4,-0.133 -1.38,-0.156 -1.39,-0.164 -1.41,-0.196 -1.39,-0.234 -1.4,-0.25 -1.4,-0.274 -1.39,-0.308 -1.4,-0.332 -1.39,-0.36 -1.41,-0.398 -1.39,-0.418 -1.4,-0.461 -1.38,-0.48 -1.4,-0.528 -1.39,-0.55 -1.39,-0.594 -1.39,-0.625 -1.39,-0.66 -1.38,-0.704 -1.39,-0.734 -1.37,-0.769 -1.38,-0.813 -1.38,-0.859 -1.37,-0.899 -1.37,-0.937 -1.37,-0.989 -1.37,-1.019 -1.36,-1.066 -1.35,-1.122 -1.36,-1.152 -1.35,-1.211 -1.35,-1.25 -1.35,1.25 -1.35,1.211 -1.35,1.152 -1.35,1.122 -1.36,1.066 -1.38,1.019 -1.36,0.989 -1.37,0.937 -1.38,0.899 -1.37,0.859 -1.38,0.813 -1.38,0.769 -1.38,0.734 -1.39,0.704 -1.38,0.66 -1.39,0.625 -1.39,0.594 -1.4,0.55 -1.39,0.528 -1.39,0.48 -1.39,0.461 -1.4,0.418 -1.4,0.398 -1.4,0.36 -1.39,0.332 -1.4,0.308 -1.39,0.274 -1.4,0.25 -1.39,0.234 -1.41,0.196 -1.39,0.164 -1.39,0.156 -1.39,0.133 -1.4,0.097 -1.39,0.086 -1.39,0.067 -1.4,0.043 -1.38,0.023 -1.38,0 -1.39,-0.012 -1.38,-0.019 -1.39,-0.047 -1.37,-0.066 -1.37,-0.063 -1.37,-0.09 -1.37,-0.097 -1.37,-0.11 -1.35,-0.133 -1.36,-0.132 -1.37,-0.141 -1.35,-0.156 -1.35,-0.153 -1.34,-0.164 -1.34,-0.175 -1.34,-0.176 -1.33,-0.188 -1.32,-0.187 -1.33,-0.199 -1.32,-0.184 -1.31,-0.199 -1.31,-0.2 -1.3,-0.195 -1.3,-0.199 -1.28,-0.188 -1.3,-0.195 -1.27,-0.187 -1.27,-0.188 -1.28,-0.187 -1.25,-0.176 -1.26,-0.164 -1.25,-0.164 -1.24,-0.157 -1.23,-0.14 -1.23,-0.145 -1.22,-0.121 -1.21,-0.117 -1.21,-0.101 -1.19,-0.098 -1.19,-0.078 -1.19,-0.067 -1.17,-0.043 -1.17,-0.031 -1.15,-0.023 -1.14,0 -1.15,0.023 -1.13,0.031 -1.12,0.055 -1.11,0.078 -1.1,0.098 -1.1,0.121 -1.07,0.144 -1.08,0.164 -1.06,0.188 -1.06,0.207 -1.04,0.242 -1.03,0.274 -1.01,0.285 -1.03,0.332 -1,0.351 -0.99,0.383 -0.97,0.406 -0.97,0.442 -0.95,0.484 -0.94,0.504 -0.94,0.539 -0.91,0.582 -0.91,0.614 -0.9,0.636 -0.88,0.696 -0.86,0.722 -0.86,0.758 -0.85,0.805 -0.83,0.832 -0.82,0.879 -0.8,0.925 -0.79,0.965 -0.78,1.012 -0.77,1.055 -0.75,1.097 -0.73,1.145" /><path
         id="path240"
         style="fill:none;stroke:#000000;stroke-width:3.9849999;stroke-linecap:butt;stroke-linejoin:miter;stroke-miterlimit:10;stroke-dasharray:none;stroke-opacity:1"
         d="m 1121.22,303.672 0.57,-0.879 0.59,-0.848 0.61,-0.8 0.63,-0.77 0.65,-0.738 0.66,-0.703 0.68,-0.668 0.71,-0.637 0.72,-0.606 0.74,-0.57 0.76,-0.539 0.76,-0.516 0.79,-0.484 0.83,-0.449 0.81,-0.43 0.85,-0.394 0.85,-0.375 0.88,-0.352 0.88,-0.316 0.92,-0.309 0.92,-0.277 0.93,-0.239 0.96,-0.23 0.95,-0.211 0.99,-0.187 0.99,-0.165 1.01,-0.152 1.02,-0.133 1.03,-0.109 1.06,-0.09 1.07,-0.074 1.07,-0.055 1.08,-0.047 1.11,-0.031 1.11,-0.012 1.13,-0.011 1.13,0.011 1.15,0.024 1.16,0.043 1.17,0.043 1.19,0.054 1.2,0.055 1.19,0.078 1.22,0.078 1.23,0.086 1.23,0.102 1.25,0.098 1.25,0.109 1.25,0.109 1.28,0.11 1.27,0.121 1.3,0.109 1.29,0.121 1.31,0.121 1.31,0.133 1.33,0.121 1.32,0.121 1.34,0.121 1.34,0.11 1.35,0.121 1.36,0.109 1.35,0.098 1.38,0.101 1.37,0.098 1.37,0.086 1.39,0.078 1.39,0.078 1.4,0.067 1.4,0.054 1.4,0.043 1.41,0.032 1.41,0.035 1.42,0.011 1.42,0 1.43,-0.023 1.42,-0.023 1.43,-0.043 1.43,-0.067 1.44,-0.066 1.44,-0.098 1.44,-0.097 1.44,-0.133 1.44,-0.145 1.45,-0.164 1.44,-0.187 1.45,-0.207 1.45,-0.219 1.43,-0.254 1.47,-0.274 1.45,-0.296 1.43,-0.321 1.46,-0.351 1.45,-0.364 1.43,-0.406 1.45,-0.418 1.46,-0.449 1.43,-0.484 1.45,-0.504 1.43,-0.551 1.44,-0.559 1.44,-0.605 1.43,-0.637 1.43,-0.66 1.43,-0.703 1.42,-0.735 1.42,-0.757 1.42,-0.801 1.41,-0.848 1.4,-0.867 1.41,-0.914 1.39,-0.953 1.41,-0.988 1.39,-1.024 1.38,-1.078 1.38,-1.098 1.38,-1.152 1.36,-1.199 1.36,-1.231 1.35,-1.273 1.35,-1.328 1.35,1.328 1.35,1.273 1.37,1.231 1.36,1.199 1.37,1.152 1.39,1.098 1.38,1.078 1.39,1.024 1.4,0.988 1.4,0.953 1.41,0.914 1.4,0.867 1.41,0.848 1.42,0.801 1.42,0.757 1.42,0.735 1.43,0.703 1.43,0.66 1.43,0.637 1.43,0.605 1.44,0.559 1.44,0.551 1.44,0.504 1.44,0.484 1.45,0.449 1.45,0.418 1.44,0.406 1.45,0.364 1.45,0.351 1.44,0.321 1.45,0.296 1.46,0.274 1.44,0.254 1.45,0.219 1.45,0.207 1.44,0.187 1.45,0.164 1.44,0.145 1.44,0.133 1.44,0.097 1.44,0.098 1.44,0.066 1.43,0.067 1.42,0.043 1.43,0.023 1.43,0.023 1.42,0 1.41,-0.011 1.42,-0.035 1.41,-0.032 1.39,-0.043 1.41,-0.054 1.4,-0.067 1.39,-0.078 1.38,-0.078 1.38,-0.086 1.37,-0.098 1.37,-0.101 1.36,-0.098 1.36,-0.109 1.35,-0.121 1.34,-0.11 1.34,-0.121 1.32,-0.121 1.33,-0.121 1.3,-0.133 1.31,-0.121 1.3,-0.121 1.3,-0.109 1.27,-0.121 1.27,-0.11 1.26,-0.109 1.25,-0.109 1.25,-0.098 1.23,-0.102 1.23,-0.086 1.21,-0.078 1.2,-0.078 1.2,-0.055 1.18,-0.054 1.18,-0.043 1.15,-0.043 1.16,-0.024 1.13,-0.011 1.13,0.011 1.11,0.012 1.11,0.031 1.07,0.047 1.08,0.055 1.07,0.074 1.05,0.09 1.03,0.109 1.02,0.133 1.02,0.152 0.98,0.165 0.99,0.187 0.96,0.211 0.96,0.23 0.93,0.239 0.92,0.277 0.92,0.309 0.87,0.316 0.88,0.352 0.86,0.375 0.85,0.394 0.81,0.43 0.82,0.449 0.79,0.484 0.77,0.516 0.76,0.539 0.74,0.57 0.72,0.606 0.7,0.637 0.69,0.668 0.65,0.703 0.65,0.738 0.64,0.77 0.6,0.8 0.6,0.848 0.57,0.879 -0.74,-1.145 -0.75,-1.097 -0.76,-1.055 -0.78,-1.012 -0.8,-0.965 -0.8,-0.925 -0.81,-0.879 -0.83,-0.832 -0.85,-0.805 -0.86,-0.758 -0.87,-0.722 -0.87,-0.696 -0.91,-0.636 -0.91,-0.614 -0.91,-0.582 -0.93,-0.539 -0.95,-0.504 -0.94,-0.484 -0.97,-0.442 -0.98,-0.406 -0.98,-0.383 -1,-0.351 -1.03,-0.332 -1.02,-0.285 -1.02,-0.274 -1.04,-0.242 -1.06,-0.207 -1.06,-0.188 -1.08,-0.164 -1.08,-0.144 -1.1,-0.121 -1.1,-0.098 -1.11,-0.078 -1.12,-0.055 -1.13,-0.031 -1.14,-0.023 -1.14,0 -1.16,0.023 -1.16,0.031 -1.18,0.043 -1.18,0.067 -1.19,0.078 -1.2,0.098 -1.2,0.101 -1.22,0.117 -1.21,0.121 -1.23,0.145 -1.24,0.14 -1.24,0.157 -1.25,0.164 -1.25,0.164 -1.25,0.176 -1.28,0.187 -1.27,0.188 -1.28,0.187 -1.29,0.195 -1.29,0.188 -1.29,0.199 -1.3,0.195 -1.32,0.2 -1.31,0.199 -1.32,0.184 -1.32,0.199 -1.32,0.187 -1.33,0.188 -1.34,0.176 -1.34,0.175 -1.34,0.164 -1.35,0.153 -1.36,0.156 -1.36,0.141 -1.36,0.132 -1.35,0.133 -1.38,0.11 -1.36,0.097 -1.37,0.09 -1.37,0.063 -1.38,0.066 -1.38,0.047 -1.38,0.019 -1.39,0.012 -1.38,0 -1.39,-0.023 -1.4,-0.043 -1.38,-0.067 -1.39,-0.086 -1.4,-0.097 -1.4,-0.133 -1.38,-0.156 -1.39,-0.164 -1.41,-0.196 -1.39,-0.234 -1.4,-0.25 -1.4,-0.274 -1.39,-0.308 -1.4,-0.332 -1.39,-0.36 -1.41,-0.398 -1.39,-0.418 -1.4,-0.461 -1.38,-0.48 -1.4,-0.528 -1.39,-0.55 -1.39,-0.594 -1.39,-0.625 -1.39,-0.66 -1.38,-0.704 -1.39,-0.734 -1.37,-0.769 -1.38,-0.813 -1.38,-0.859 -1.37,-0.899 -1.37,-0.937 -1.37,-0.989 -1.37,-1.019 -1.36,-1.066 -1.35,-1.122 -1.36,-1.152 -1.35,-1.211 -1.35,-1.25 -1.35,1.25 -1.35,1.211 -1.35,1.152 -1.35,1.122 -1.36,1.066 -1.38,1.019 -1.36,0.989 -1.37,0.937 -1.38,0.899 -1.37,0.859 -1.38,0.813 -1.38,0.769 -1.38,0.734 -1.39,0.704 -1.38,0.66 -1.39,0.625 -1.39,0.594 -1.4,0.55 -1.39,0.528 -1.39,0.48 -1.39,0.461 -1.4,0.418 -1.4,0.398 -1.4,0.36 -1.39,0.332 -1.4,0.308 -1.39,0.274 -1.4,0.25 -1.39,0.234 -1.41,0.196 -1.39,0.164 -1.39,0.156 -1.39,0.133 -1.4,0.097 -1.39,0.086 -1.39,0.067 -1.4,0.043 -1.38,0.023 -1.38,0 -1.39,-0.012 -1.38,-0.019 -1.39,-0.047 -1.37,-0.066 -1.37,-0.063 -1.37,-0.09 -1.37,-0.097 -1.37,-0.11 -1.35,-0.133 -1.36,-0.132 -1.37,-0.141 -1.35,-0.156 -1.35,-0.153 -1.34,-0.164 -1.34,-0.175 -1.34,-0.176 -1.33,-0.188 -1.32,-0.187 -1.33,-0.199 -1.32,-0.184 -1.31,-0.199 -1.31,-0.2 -1.3,-0.195 -1.3,-0.199 -1.28,-0.188 -1.3,-0.195 -1.27,-0.187 -1.27,-0.188 -1.28,-0.187 -1.25,-0.176 -1.26,-0.164 -1.25,-0.164 -1.24,-0.157 -1.23,-0.14 -1.23,-0.145 -1.22,-0.121 -1.21,-0.117 -1.21,-0.101 -1.19,-0.098 -1.19,-0.078 -1.19,-0.067 -1.17,-0.043 -1.17,-0.031 -1.15,-0.023 -1.14,0 -1.15,0.023 -1.13,0.031 -1.12,0.055 -1.11,0.078 -1.1,0.098 -1.1,0.121 -1.07,0.144 -1.08,0.164 -1.06,0.188 -1.06,0.207 -1.04,0.242 -1.03,0.274 -1.01,0.285 -1.03,0.332 -1,0.351 -0.99,0.383 -0.97,0.406 -0.97,0.442 -0.95,0.484 -0.94,0.504 -0.94,0.539 -0.91,0.582 -0.91,0.614 -0.9,0.636 -0.88,0.696 -0.86,0.722 -0.86,0.758 -0.85,0.805 -0.83,0.832 -0.82,0.879 -0.8,0.925 -0.79,0.965 -0.78,1.012 -0.77,1.055 -0.75,1.097 -0.73,1.145 z" /><g
         transform="matrix(146.4,0,0,-134.4,63.48,321.48)"
         id="g242"><rect
           id="rect244"
           style="fill:#ffffff;fill-opacity:1;fill-rule:nonzero"
           transform="matrix(1,0,0,-1,0,1)"
           height="1"
           width="1"
           y="0"
           x="0" /></g><g
         transform="scale(10,10)"
         id="g246"><text
           id="text248"
           style="font-variant:normal;font-weight:normal;font-size:10.90909958px;font-family:CMMI10;-inkscape-font-specification:CMMI10;writing-mode:lr-tb;fill:#000000;fill-opacity:1;fill-rule:nonzero;stroke:none"
           transform="matrix(1,0,0,-1,9.36016,21.7199)"><tspan
             id="tspan250"
             y="0"
             x="0">O</tspan></text>
</g><g
         transform="matrix(159.6,0,0,-134.4,1910.78,321.48)"
         id="g252"><rect
           id="rect254"
           style="fill:#ffffff;fill-opacity:1;fill-rule:nonzero"
           transform="matrix(1,0,0,-1,0,1)"
           height="1"
           width="1"
           y="0"
           x="0" /></g><g
         transform="scale(10,10)"
         id="g256"><text
           id="text258"
           style="font-variant:normal;font-weight:normal;font-size:10.90909958px;font-family:CMMI10;-inkscape-font-specification:CMMI10;writing-mode:lr-tb;fill:#000000;fill-opacity:1;fill-rule:nonzero;stroke:none"
           transform="matrix(1,0,0,-1,194.091,21.7199)"><tspan
             id="tspan260"
             y="0"
             x="0">X</tspan></text>
</g><g
         transform="matrix(147.6,0,0,-134.4,62.2799,1808.78)"
         id="g262"><rect
           id="rect264"
           style="fill:#ffffff;fill-opacity:1;fill-rule:nonzero"
           transform="matrix(1,0,0,-1,0,1)"
           height="1"
           width="1"
           y="0"
           x="0" /></g><g
         transform="scale(10,10)"
         id="g266"><text
           id="text268"
           style="font-variant:normal;font-weight:normal;font-size:10.90909958px;font-family:CMMI10;-inkscape-font-specification:CMMI10;writing-mode:lr-tb;fill:#000000;fill-opacity:1;fill-rule:nonzero;stroke:none"
           transform="matrix(1,0,0,-1,9.23984,170.45)"><tspan
             id="tspan270"
             y="0"
             x="0">Y</tspan></text>
</g><path
         id="path272"
         style="fill:none;stroke:#000000;stroke-width:11.95530033;stroke-linecap:butt;stroke-linejoin:miter;stroke-miterlimit:10;stroke-dasharray:none;stroke-opacity:1"
         d="m 29.9961,321.602 1980.0239,0" /><path
         id="path274"
         style="fill:none;stroke:#000000;stroke-width:11.95530033;stroke-linecap:butt;stroke-linejoin:miter;stroke-miterlimit:10;stroke-dasharray:none;stroke-opacity:1"
         d="m 210,177.602 0,1584.018" /><g
         transform="scale(10,10)"
         id="g276"><text
           id="text278"
           style="font-variant:normal;font-weight:normal;font-size:11.9552002px;font-family:CMCSC10;-inkscape-font-specification:CMCSC10;writing-mode:lr-tb;fill:#000000;fill-opacity:1;fill-rule:nonzero;stroke:none"
           transform="matrix(1,0,0,-1,88.441,0.0890625)"><tspan
             id="tspan280"
             y="0"
             x="0 8.5141897 12.111581 19.790342 28.065205 34.667984 41.270763">Fig.11.</tspan></text>
</g></g></g></svg>