<?xml version="1.0" encoding="UTF-8" standalone="no"?>
<svg
   xmlns:dc="http://purl.org/dc/elements/1.1/"
   xmlns:cc="http://creativecommons.org/ns#"
   xmlns:rdf="http://www.w3.org/1999/02/22-rdf-syntax-ns#"
   xmlns:svg="http://www.w3.org/2000/svg"
   xmlns="http://www.w3.org/2000/svg"
   viewBox="0 0 256.25 226.25"
   height="226.25"
   width="256.25"
   xml:space="preserve"
   version="1.1"
   id="svg2"><metadata
     id="metadata8"><rdf:RDF><cc:Work
         rdf:about=""><dc:format>image/svg+xml</dc:format><dc:type
           rdf:resource="http://purl.org/dc/dcmitype/StillImage" /></cc:Work></rdf:RDF></metadata><defs
     id="defs6"><clipPath
       id="clipPath12"
       clipPathUnits="userSpaceOnUse"><path
         id="path14"
         d="m -2,-2 205,0 0,181 -205,0 0,-181 z" /></clipPath></defs><g
     clip-path="url(#clipPath12)"
     transform="matrix(1.25,0,0,-1.25,2.5,223.75)"
     id="g10"><g
       transform="scale(0.1,0.1)"
       id="g16"><path
         id="path18"
         style="fill:none;stroke:#000000;stroke-width:11.95530033;stroke-linecap:butt;stroke-linejoin:miter;stroke-miterlimit:10;stroke-dasharray:none;stroke-opacity:1"
         d="m 202.5,968.352 28.871,-29.532 28.887,-27.367 28.871,-25.301 28.871,-23.371 28.875,-21.519 28.883,-19.789 28.871,-18.137 28.871,-16.59 28.875,-15.098 28.883,-13.71 28.871,-12.379 28.875,-11.133 28.871,-9.918 28.883,-8.778 28.871,-7.691 28.875,-6.648 28.883,-5.625 28.871,-4.657 28.875,-3.714 28.871,-2.782 28.883,-1.879 28.871,-0.976 28.875,-0.078 28.871,0.804 28.875,1.692 28.883,2.601 28.871,3.528 28.887,4.472 28.87,5.438 28.87,6.449 28.87,7.484 28.88,8.555 28.88,9.703 28.87,10.887 28.88,12.129 28.88,13.449 28.87,14.82 28.87,16.293 28.88,17.832 28.88,19.457 28.87,21.168 28.87,23.008 28.89,24.918 28.87,26.961 28.87,29.102 28.88,31.367 28.88,33.763 28.87,36.29 28.87,38.95 28.88,41.76 28.87,44.71 28.88,47.81 28.87,51.08 28.88,54.51 28.88,58.11 28.87,61.88 28.87,65.82 28.88,69.98 28.88,74.3 28.87,78.84" /><path
         id="path20"
         style="fill:none;stroke:#000000;stroke-width:11.95530033;stroke-linecap:butt;stroke-linejoin:miter;stroke-miterlimit:10;stroke-dasharray:none;stroke-opacity:1"
         d="m 360.004,832.055 180,0" /><path
         id="path22"
         style="fill:none;stroke:#000000;stroke-width:11.95530033;stroke-linecap:butt;stroke-linejoin:miter;stroke-miterlimit:10;stroke-dasharray:none;stroke-opacity:1"
         d="m 540.004,737.766 0,94.289" /><path
         id="path24"
         style="fill:none;stroke:#000000;stroke-width:11.95530033;stroke-linecap:butt;stroke-linejoin:miter;stroke-miterlimit:10;stroke-dasharray:none;stroke-opacity:1"
         d="m 1260.02,777.945 180,0" /><path
         id="path26"
         style="fill:none;stroke:#000000;stroke-width:11.95530033;stroke-linecap:butt;stroke-linejoin:miter;stroke-miterlimit:10;stroke-dasharray:none;stroke-opacity:1"
         d="m 1440.02,902.684 0,-124.739" /><path
         id="path28"
         style="fill:none;stroke:#000000;stroke-width:11.95530033;stroke-linecap:butt;stroke-linejoin:miter;stroke-miterlimit:10;stroke-dasharray:none;stroke-opacity:1"
         d="m 1710.02,1247.42 180,0" /><path
         id="path30"
         style="fill:none;stroke:#000000;stroke-width:11.95530033;stroke-linecap:butt;stroke-linejoin:miter;stroke-miterlimit:10;stroke-dasharray:none;stroke-opacity:1"
         d="m 1890.02,1630.73 0,-383.31" /><path
         id="path32"
         style="fill:none;stroke:#000000;stroke-width:7.97009993;stroke-linecap:butt;stroke-linejoin:miter;stroke-miterlimit:10;stroke-dasharray:none;stroke-opacity:1"
         d="m 360.004,832.055 0,-21.27" /><path
         id="path34"
         style="fill:none;stroke:#000000;stroke-width:7.97009993;stroke-linecap:butt;stroke-linejoin:miter;stroke-miterlimit:10;stroke-dasharray:none;stroke-opacity:1"
         d="m 360.004,768.242 0,-21.269" /><path
         id="path36"
         style="fill:none;stroke:#000000;stroke-width:7.97009993;stroke-linecap:butt;stroke-linejoin:miter;stroke-miterlimit:10;stroke-dasharray:none;stroke-opacity:1"
         d="m 360.004,746.973 0,-21.27" /><path
         id="path38"
         style="fill:none;stroke:#000000;stroke-width:7.97009993;stroke-linecap:butt;stroke-linejoin:miter;stroke-miterlimit:10;stroke-dasharray:none;stroke-opacity:1"
         d="m 360.004,683.164 0,-21.258" /><path
         id="path40"
         style="fill:none;stroke:#000000;stroke-width:7.97009993;stroke-linecap:butt;stroke-linejoin:miter;stroke-miterlimit:10;stroke-dasharray:none;stroke-opacity:1"
         d="m 360.004,661.906 0,-21.269" /><path
         id="path42"
         style="fill:none;stroke:#000000;stroke-width:7.97009993;stroke-linecap:butt;stroke-linejoin:miter;stroke-miterlimit:10;stroke-dasharray:none;stroke-opacity:1"
         d="m 360.004,598.098 0,-21.27" /><path
         id="path44"
         style="fill:none;stroke:#000000;stroke-width:7.97009993;stroke-linecap:butt;stroke-linejoin:miter;stroke-miterlimit:10;stroke-dasharray:none;stroke-opacity:1"
         d="m 360.004,576.828 0,-21.269" /><path
         id="path46"
         style="fill:none;stroke:#000000;stroke-width:7.97009993;stroke-linecap:butt;stroke-linejoin:miter;stroke-miterlimit:10;stroke-dasharray:none;stroke-opacity:1"
         d="m 360.004,513.016 0,-21.27" /><path
         id="path48"
         style="fill:none;stroke:#000000;stroke-width:7.97009993;stroke-linecap:butt;stroke-linejoin:miter;stroke-miterlimit:10;stroke-dasharray:none;stroke-opacity:1"
         d="m 360.004,491.746 0,-21.269" /><path
         id="path50"
         style="fill:none;stroke:#000000;stroke-width:7.97009993;stroke-linecap:butt;stroke-linejoin:miter;stroke-miterlimit:10;stroke-dasharray:none;stroke-opacity:1"
         d="m 360.004,427.949 0,-21.269" /><path
         id="path52"
         style="fill:none;stroke:#000000;stroke-width:7.97009993;stroke-linecap:butt;stroke-linejoin:miter;stroke-miterlimit:10;stroke-dasharray:none;stroke-opacity:1"
         d="m 360.004,406.68 0,-21.27" /><path
         id="path54"
         style="fill:none;stroke:#000000;stroke-width:7.97009993;stroke-linecap:butt;stroke-linejoin:miter;stroke-miterlimit:10;stroke-dasharray:none;stroke-opacity:1"
         d="m 360.004,342.871 0,-21.269" /><path
         id="path56"
         style="fill:none;stroke:#000000;stroke-width:7.97009993;stroke-linecap:butt;stroke-linejoin:miter;stroke-miterlimit:10;stroke-dasharray:none;stroke-opacity:1"
         d="m 540.004,737.766 0,-26.016" /><path
         id="path58"
         style="fill:none;stroke:#000000;stroke-width:7.97009993;stroke-linecap:butt;stroke-linejoin:miter;stroke-miterlimit:10;stroke-dasharray:none;stroke-opacity:1"
         d="m 540.004,659.73 0,-26.003" /><path
         id="path60"
         style="fill:none;stroke:#000000;stroke-width:7.97009993;stroke-linecap:butt;stroke-linejoin:miter;stroke-miterlimit:10;stroke-dasharray:none;stroke-opacity:1"
         d="m 540.004,633.727 0,-26.016" /><path
         id="path62"
         style="fill:none;stroke:#000000;stroke-width:7.97009993;stroke-linecap:butt;stroke-linejoin:miter;stroke-miterlimit:10;stroke-dasharray:none;stroke-opacity:1"
         d="m 540.004,555.688 0,-26.004" /><path
         id="path64"
         style="fill:none;stroke:#000000;stroke-width:7.97009993;stroke-linecap:butt;stroke-linejoin:miter;stroke-miterlimit:10;stroke-dasharray:none;stroke-opacity:1"
         d="m 540.004,529.684 0,-26.016" /><path
         id="path66"
         style="fill:none;stroke:#000000;stroke-width:7.97009993;stroke-linecap:butt;stroke-linejoin:miter;stroke-miterlimit:10;stroke-dasharray:none;stroke-opacity:1"
         d="m 540.004,451.656 0,-26.015" /><path
         id="path68"
         style="fill:none;stroke:#000000;stroke-width:7.97009993;stroke-linecap:butt;stroke-linejoin:miter;stroke-miterlimit:10;stroke-dasharray:none;stroke-opacity:1"
         d="m 540.004,425.641 0,-26.016" /><path
         id="path70"
         style="fill:none;stroke:#000000;stroke-width:7.97009993;stroke-linecap:butt;stroke-linejoin:miter;stroke-miterlimit:10;stroke-dasharray:none;stroke-opacity:1"
         d="m 540.004,347.605 0,-26.003" /><path
         id="path72"
         style="fill:none;stroke:#000000;stroke-width:7.97009993;stroke-linecap:butt;stroke-linejoin:miter;stroke-miterlimit:10;stroke-dasharray:none;stroke-opacity:1"
         d="m 1260.02,777.945 0,-28.519" /><path
         id="path74"
         style="fill:none;stroke:#000000;stroke-width:7.97009993;stroke-linecap:butt;stroke-linejoin:miter;stroke-miterlimit:10;stroke-dasharray:none;stroke-opacity:1"
         d="m 1260.02,692.383 0,-28.52" /><path
         id="path76"
         style="fill:none;stroke:#000000;stroke-width:7.97009993;stroke-linecap:butt;stroke-linejoin:miter;stroke-miterlimit:10;stroke-dasharray:none;stroke-opacity:1"
         d="m 1260.02,663.863 0,-28.523" /><path
         id="path78"
         style="fill:none;stroke:#000000;stroke-width:7.97009993;stroke-linecap:butt;stroke-linejoin:miter;stroke-miterlimit:10;stroke-dasharray:none;stroke-opacity:1"
         d="m 1260.02,578.301 0,-28.535" /><path
         id="path80"
         style="fill:none;stroke:#000000;stroke-width:7.97009993;stroke-linecap:butt;stroke-linejoin:miter;stroke-miterlimit:10;stroke-dasharray:none;stroke-opacity:1"
         d="m 1260.02,549.766 0,-28.52" /><path
         id="path82"
         style="fill:none;stroke:#000000;stroke-width:7.97009993;stroke-linecap:butt;stroke-linejoin:miter;stroke-miterlimit:10;stroke-dasharray:none;stroke-opacity:1"
         d="m 1260.02,464.203 0,-28.519" /><path
         id="path84"
         style="fill:none;stroke:#000000;stroke-width:7.97009993;stroke-linecap:butt;stroke-linejoin:miter;stroke-miterlimit:10;stroke-dasharray:none;stroke-opacity:1"
         d="m 1260.02,435.684 0,-28.52" /><path
         id="path86"
         style="fill:none;stroke:#000000;stroke-width:7.97009993;stroke-linecap:butt;stroke-linejoin:miter;stroke-miterlimit:10;stroke-dasharray:none;stroke-opacity:1"
         d="m 1260.02,350.121 0,-28.519" /><path
         id="path88"
         style="fill:none;stroke:#000000;stroke-width:7.97009993;stroke-linecap:butt;stroke-linejoin:miter;stroke-miterlimit:10;stroke-dasharray:none;stroke-opacity:1"
         d="m 1440.02,902.684 0,-24.211" /><path
         id="path90"
         style="fill:none;stroke:#000000;stroke-width:7.97009993;stroke-linecap:butt;stroke-linejoin:miter;stroke-miterlimit:10;stroke-dasharray:none;stroke-opacity:1"
         d="m 1440.02,830.055 0,-24.215" /><path
         id="path92"
         style="fill:none;stroke:#000000;stroke-width:7.97009993;stroke-linecap:butt;stroke-linejoin:miter;stroke-miterlimit:10;stroke-dasharray:none;stroke-opacity:1"
         d="m 1440.02,805.84 0,-24.215" /><path
         id="path94"
         style="fill:none;stroke:#000000;stroke-width:7.97009993;stroke-linecap:butt;stroke-linejoin:miter;stroke-miterlimit:10;stroke-dasharray:none;stroke-opacity:1"
         d="m 1440.02,733.195 0,-24.203" /><path
         id="path96"
         style="fill:none;stroke:#000000;stroke-width:7.97009993;stroke-linecap:butt;stroke-linejoin:miter;stroke-miterlimit:10;stroke-dasharray:none;stroke-opacity:1"
         d="m 1440.02,708.992 0,-24.211" /><path
         id="path98"
         style="fill:none;stroke:#000000;stroke-width:7.97009993;stroke-linecap:butt;stroke-linejoin:miter;stroke-miterlimit:10;stroke-dasharray:none;stroke-opacity:1"
         d="m 1440.02,636.352 0,-24.215" /><path
         id="path100"
         style="fill:none;stroke:#000000;stroke-width:7.97009993;stroke-linecap:butt;stroke-linejoin:miter;stroke-miterlimit:10;stroke-dasharray:none;stroke-opacity:1"
         d="m 1440.02,612.137 0,-24.203" /><path
         id="path102"
         style="fill:none;stroke:#000000;stroke-width:7.97009993;stroke-linecap:butt;stroke-linejoin:miter;stroke-miterlimit:10;stroke-dasharray:none;stroke-opacity:1"
         d="m 1440.02,539.504 0,-24.211" /><path
         id="path104"
         style="fill:none;stroke:#000000;stroke-width:7.97009993;stroke-linecap:butt;stroke-linejoin:miter;stroke-miterlimit:10;stroke-dasharray:none;stroke-opacity:1"
         d="m 1440.02,515.293 0,-24.203" /><path
         id="path106"
         style="fill:none;stroke:#000000;stroke-width:7.97009993;stroke-linecap:butt;stroke-linejoin:miter;stroke-miterlimit:10;stroke-dasharray:none;stroke-opacity:1"
         d="m 1440.02,442.66 0,-24.215" /><path
         id="path108"
         style="fill:none;stroke:#000000;stroke-width:7.97009993;stroke-linecap:butt;stroke-linejoin:miter;stroke-miterlimit:10;stroke-dasharray:none;stroke-opacity:1"
         d="m 1440.02,418.445 0,-24.215" /><path
         id="path110"
         style="fill:none;stroke:#000000;stroke-width:7.97009993;stroke-linecap:butt;stroke-linejoin:miter;stroke-miterlimit:10;stroke-dasharray:none;stroke-opacity:1"
         d="m 1440.02,345.812 0,-24.21" /><path
         id="path112"
         style="fill:none;stroke:#000000;stroke-width:7.97009993;stroke-linecap:butt;stroke-linejoin:miter;stroke-miterlimit:10;stroke-dasharray:none;stroke-opacity:1"
         d="m 1710.02,1247.42 0,-28.93" /><path
         id="path114"
         style="fill:none;stroke:#000000;stroke-width:7.97009993;stroke-linecap:butt;stroke-linejoin:miter;stroke-miterlimit:10;stroke-dasharray:none;stroke-opacity:1"
         d="m 1710.02,1160.62 0,-28.92" /><path
         id="path116"
         style="fill:none;stroke:#000000;stroke-width:7.97009993;stroke-linecap:butt;stroke-linejoin:miter;stroke-miterlimit:10;stroke-dasharray:none;stroke-opacity:1"
         d="m 1710.02,1131.7 0,-28.93" /><path
         id="path118"
         style="fill:none;stroke:#000000;stroke-width:7.97009993;stroke-linecap:butt;stroke-linejoin:miter;stroke-miterlimit:10;stroke-dasharray:none;stroke-opacity:1"
         d="m 1710.02,1044.89 0,-28.92" /><path
         id="path120"
         style="fill:none;stroke:#000000;stroke-width:7.97009993;stroke-linecap:butt;stroke-linejoin:miter;stroke-miterlimit:10;stroke-dasharray:none;stroke-opacity:1"
         d="m 1710.02,1015.97 0,-28.931" /><path
         id="path122"
         style="fill:none;stroke:#000000;stroke-width:7.97009993;stroke-linecap:butt;stroke-linejoin:miter;stroke-miterlimit:10;stroke-dasharray:none;stroke-opacity:1"
         d="m 1710.02,929.172 0,-28.938" /><path
         id="path124"
         style="fill:none;stroke:#000000;stroke-width:7.97009993;stroke-linecap:butt;stroke-linejoin:miter;stroke-miterlimit:10;stroke-dasharray:none;stroke-opacity:1"
         d="m 1710.02,900.234 0,-28.925" /><path
         id="path126"
         style="fill:none;stroke:#000000;stroke-width:7.97009993;stroke-linecap:butt;stroke-linejoin:miter;stroke-miterlimit:10;stroke-dasharray:none;stroke-opacity:1"
         d="m 1710.02,813.441 0,-28.925" /><path
         id="path128"
         style="fill:none;stroke:#000000;stroke-width:7.97009993;stroke-linecap:butt;stroke-linejoin:miter;stroke-miterlimit:10;stroke-dasharray:none;stroke-opacity:1"
         d="m 1710.02,784.516 0,-28.938" /><path
         id="path130"
         style="fill:none;stroke:#000000;stroke-width:7.97009993;stroke-linecap:butt;stroke-linejoin:miter;stroke-miterlimit:10;stroke-dasharray:none;stroke-opacity:1"
         d="m 1710.02,697.711 0,-28.926" /><path
         id="path132"
         style="fill:none;stroke:#000000;stroke-width:7.97009993;stroke-linecap:butt;stroke-linejoin:miter;stroke-miterlimit:10;stroke-dasharray:none;stroke-opacity:1"
         d="m 1710.02,668.785 0,-28.93" /><path
         id="path134"
         style="fill:none;stroke:#000000;stroke-width:7.97009993;stroke-linecap:butt;stroke-linejoin:miter;stroke-miterlimit:10;stroke-dasharray:none;stroke-opacity:1"
         d="m 1710.02,581.992 0,-28.941" /><path
         id="path136"
         style="fill:none;stroke:#000000;stroke-width:7.97009993;stroke-linecap:butt;stroke-linejoin:miter;stroke-miterlimit:10;stroke-dasharray:none;stroke-opacity:1"
         d="m 1710.02,553.051 0,-28.926" /><path
         id="path138"
         style="fill:none;stroke:#000000;stroke-width:7.97009993;stroke-linecap:butt;stroke-linejoin:miter;stroke-miterlimit:10;stroke-dasharray:none;stroke-opacity:1"
         d="m 1710.02,466.258 0,-28.926" /><path
         id="path140"
         style="fill:none;stroke:#000000;stroke-width:7.97009993;stroke-linecap:butt;stroke-linejoin:miter;stroke-miterlimit:10;stroke-dasharray:none;stroke-opacity:1"
         d="m 1710.02,437.332 0,-28.937" /><path
         id="path142"
         style="fill:none;stroke:#000000;stroke-width:7.97009993;stroke-linecap:butt;stroke-linejoin:miter;stroke-miterlimit:10;stroke-dasharray:none;stroke-opacity:1"
         d="m 1710.02,350.527 0,-28.925" /><path
         id="path144"
         style="fill:none;stroke:#000000;stroke-width:7.97009993;stroke-linecap:butt;stroke-linejoin:miter;stroke-miterlimit:10;stroke-dasharray:none;stroke-opacity:1"
         d="m 1890.02,1630.73 0,-27.28" /><path
         id="path146"
         style="fill:none;stroke:#000000;stroke-width:7.97009993;stroke-linecap:butt;stroke-linejoin:miter;stroke-miterlimit:10;stroke-dasharray:none;stroke-opacity:1"
         d="m 1890.02,1548.9 0,-27.27" /><path
         id="path148"
         style="fill:none;stroke:#000000;stroke-width:7.97009993;stroke-linecap:butt;stroke-linejoin:miter;stroke-miterlimit:10;stroke-dasharray:none;stroke-opacity:1"
         d="m 1890.02,1521.63 0,-27.27" /><path
         id="path150"
         style="fill:none;stroke:#000000;stroke-width:7.97009993;stroke-linecap:butt;stroke-linejoin:miter;stroke-miterlimit:10;stroke-dasharray:none;stroke-opacity:1"
         d="m 1890.02,1439.81 0,-27.27" /><path
         id="path152"
         style="fill:none;stroke:#000000;stroke-width:7.97009993;stroke-linecap:butt;stroke-linejoin:miter;stroke-miterlimit:10;stroke-dasharray:none;stroke-opacity:1"
         d="m 1890.02,1412.54 0,-27.27" /><path
         id="path154"
         style="fill:none;stroke:#000000;stroke-width:7.97009993;stroke-linecap:butt;stroke-linejoin:miter;stroke-miterlimit:10;stroke-dasharray:none;stroke-opacity:1"
         d="m 1890.02,1330.72 0,-27.28" /><path
         id="path156"
         style="fill:none;stroke:#000000;stroke-width:7.97009993;stroke-linecap:butt;stroke-linejoin:miter;stroke-miterlimit:10;stroke-dasharray:none;stroke-opacity:1"
         d="m 1890.02,1303.44 0,-27.27" /><path
         id="path158"
         style="fill:none;stroke:#000000;stroke-width:7.97009993;stroke-linecap:butt;stroke-linejoin:miter;stroke-miterlimit:10;stroke-dasharray:none;stroke-opacity:1"
         d="m 1890.02,1221.62 0,-27.28" /><path
         id="path160"
         style="fill:none;stroke:#000000;stroke-width:7.97009993;stroke-linecap:butt;stroke-linejoin:miter;stroke-miterlimit:10;stroke-dasharray:none;stroke-opacity:1"
         d="m 1890.02,1194.34 0,-27.27" /><path
         id="path162"
         style="fill:none;stroke:#000000;stroke-width:7.97009993;stroke-linecap:butt;stroke-linejoin:miter;stroke-miterlimit:10;stroke-dasharray:none;stroke-opacity:1"
         d="m 1890.02,1112.53 0,-27.27" /><path
         id="path164"
         style="fill:none;stroke:#000000;stroke-width:7.97009993;stroke-linecap:butt;stroke-linejoin:miter;stroke-miterlimit:10;stroke-dasharray:none;stroke-opacity:1"
         d="m 1890.02,1085.26 0,-27.28" /><path
         id="path166"
         style="fill:none;stroke:#000000;stroke-width:7.97009993;stroke-linecap:butt;stroke-linejoin:miter;stroke-miterlimit:10;stroke-dasharray:none;stroke-opacity:1"
         d="m 1890.02,1003.43 0,-27.266" /><path
         id="path168"
         style="fill:none;stroke:#000000;stroke-width:7.97009993;stroke-linecap:butt;stroke-linejoin:miter;stroke-miterlimit:10;stroke-dasharray:none;stroke-opacity:1"
         d="m 1890.02,976.164 0,-27.281" /><path
         id="path170"
         style="fill:none;stroke:#000000;stroke-width:7.97009993;stroke-linecap:butt;stroke-linejoin:miter;stroke-miterlimit:10;stroke-dasharray:none;stroke-opacity:1"
         d="m 1890.02,894.336 0,-27.27" /><path
         id="path172"
         style="fill:none;stroke:#000000;stroke-width:7.97009993;stroke-linecap:butt;stroke-linejoin:miter;stroke-miterlimit:10;stroke-dasharray:none;stroke-opacity:1"
         d="m 1890.02,867.066 0,-27.269" /><path
         id="path174"
         style="fill:none;stroke:#000000;stroke-width:7.97009993;stroke-linecap:butt;stroke-linejoin:miter;stroke-miterlimit:10;stroke-dasharray:none;stroke-opacity:1"
         d="m 1890.02,785.25 0,-27.277" /><path
         id="path176"
         style="fill:none;stroke:#000000;stroke-width:7.97009993;stroke-linecap:butt;stroke-linejoin:miter;stroke-miterlimit:10;stroke-dasharray:none;stroke-opacity:1"
         d="m 1890.02,757.973 0,-27.27" /><path
         id="path178"
         style="fill:none;stroke:#000000;stroke-width:7.97009993;stroke-linecap:butt;stroke-linejoin:miter;stroke-miterlimit:10;stroke-dasharray:none;stroke-opacity:1"
         d="m 1890.02,676.156 0,-27.281" /><path
         id="path180"
         style="fill:none;stroke:#000000;stroke-width:7.97009993;stroke-linecap:butt;stroke-linejoin:miter;stroke-miterlimit:10;stroke-dasharray:none;stroke-opacity:1"
         d="m 1890.02,648.875 0,-27.27" /><path
         id="path182"
         style="fill:none;stroke:#000000;stroke-width:7.97009993;stroke-linecap:butt;stroke-linejoin:miter;stroke-miterlimit:10;stroke-dasharray:none;stroke-opacity:1"
         d="m 1890.02,567.059 0,-27.266" /><path
         id="path184"
         style="fill:none;stroke:#000000;stroke-width:7.97009993;stroke-linecap:butt;stroke-linejoin:miter;stroke-miterlimit:10;stroke-dasharray:none;stroke-opacity:1"
         d="m 1890.02,539.793 0,-27.281" /><path
         id="path186"
         style="fill:none;stroke:#000000;stroke-width:7.97009993;stroke-linecap:butt;stroke-linejoin:miter;stroke-miterlimit:10;stroke-dasharray:none;stroke-opacity:1"
         d="m 1890.02,457.965 0,-27.27" /><path
         id="path188"
         style="fill:none;stroke:#000000;stroke-width:7.97009993;stroke-linecap:butt;stroke-linejoin:miter;stroke-miterlimit:10;stroke-dasharray:none;stroke-opacity:1"
         d="m 1890.02,430.695 0,-27.277" /><path
         id="path190"
         style="fill:none;stroke:#000000;stroke-width:7.97009993;stroke-linecap:butt;stroke-linejoin:miter;stroke-miterlimit:10;stroke-dasharray:none;stroke-opacity:1"
         d="m 1890.02,348.867 0,-27.265" /><g
         transform="matrix(146.4,0,0,-134.4,33.48,321.48)"
         id="g192"><rect
           id="rect194"
           style="fill:#ffffff;fill-opacity:1;fill-rule:nonzero"
           transform="matrix(1,0,0,-1,0,1)"
           height="1"
           width="1"
           y="0"
           x="0" /></g><g
         transform="scale(10,10)"
         id="g196"><text
           id="text198"
           style="font-variant:normal;font-weight:normal;font-size:10.90909958px;font-family:CMMI10;-inkscape-font-specification:CMMI10;writing-mode:lr-tb;fill:#000000;fill-opacity:1;fill-rule:nonzero;stroke:none"
           transform="matrix(1,0,0,-1,6.36016,21.7199)"><tspan
             id="tspan200"
             y="0"
             x="0">O</tspan></text>
</g><g
         transform="matrix(159.6,0,0,-134.4,1880.78,321.48)"
         id="g202"><rect
           id="rect204"
           style="fill:#ffffff;fill-opacity:1;fill-rule:nonzero"
           transform="matrix(1,0,0,-1,0,1)"
           height="1"
           width="1"
           y="0"
           x="0" /></g><g
         transform="scale(10,10)"
         id="g206"><text
           id="text208"
           style="font-variant:normal;font-weight:normal;font-size:10.90909958px;font-family:CMMI10;-inkscape-font-specification:CMMI10;writing-mode:lr-tb;fill:#000000;fill-opacity:1;fill-rule:nonzero;stroke:none"
           transform="matrix(1,0,0,-1,191.091,21.7199)"><tspan
             id="tspan210"
             y="0"
             x="0">X</tspan></text>
</g><g
         transform="matrix(147.6,0,0,-134.4,32.2799,1808.78)"
         id="g212"><rect
           id="rect214"
           style="fill:#ffffff;fill-opacity:1;fill-rule:nonzero"
           transform="matrix(1,0,0,-1,0,1)"
           height="1"
           width="1"
           y="0"
           x="0" /></g><g
         transform="scale(10,10)"
         id="g216"><text
           id="text218"
           style="font-variant:normal;font-weight:normal;font-size:10.90909958px;font-family:CMMI10;-inkscape-font-specification:CMMI10;writing-mode:lr-tb;fill:#000000;fill-opacity:1;fill-rule:nonzero;stroke:none"
           transform="matrix(1,0,0,-1,6.23984,170.45)"><tspan
             id="tspan220"
             y="0"
             x="0">Y</tspan></text>
</g><path
         id="path222"
         style="fill:none;stroke:#000000;stroke-width:11.95530033;stroke-linecap:butt;stroke-linejoin:miter;stroke-miterlimit:10;stroke-dasharray:none;stroke-opacity:1"
         d="M -0.00390625,321.602 1980.02,321.602" /><path
         id="path224"
         style="fill:none;stroke:#000000;stroke-width:11.95530033;stroke-linecap:butt;stroke-linejoin:miter;stroke-miterlimit:10;stroke-dasharray:none;stroke-opacity:1"
         d="m 180,177.602 0,1584.018" /><path
         id="path226"
         style="fill:none;stroke:#000000;stroke-width:11.95530033;stroke-linecap:butt;stroke-linejoin:miter;stroke-miterlimit:10;stroke-dasharray:none;stroke-opacity:1"
         d="m 855.008,321.602 0,360.003" /><g
         transform="matrix(386.4,0,0,-159.6,930.681,581.882)"
         id="g228"><rect
           id="rect230"
           style="fill:#ffffff;fill-opacity:1;fill-rule:nonzero"
           transform="matrix(1,0,0,-1,0,1)"
           height="1"
           width="1"
           y="0"
           x="0" /></g><g
         transform="scale(10,10)"
         id="g232"><text
           id="text234"
           style="font-variant:normal;font-weight:normal;font-size:10.90909958px;font-family:CMMI10;-inkscape-font-specification:CMMI10;writing-mode:lr-tb;fill:#000000;fill-opacity:1;fill-rule:nonzero;stroke:none"
           transform="matrix(1,0,0,-1,96.0801,47.2801)"><tspan
             id="tspan236"
             y="0"
             x="0">y</tspan></text>
<text
           id="text238"
           style="font-variant:normal;font-weight:normal;font-size:11.9552002px;font-family:CMTI12;-inkscape-font-specification:CMTI12;writing-mode:lr-tb;fill:#000000;fill-opacity:1;fill-rule:nonzero;stroke:none"
           transform="matrix(1,0,0,-1,105.6801,47.2801)"><tspan
             id="tspan240"
             y="0"
             x="0 9.6000252 13.200038">min</tspan></text>
<text
           id="text242"
           style="font-variant:normal;font-weight:normal;font-size:11.9552002px;font-family:CMR12;-inkscape-font-specification:CMR12;writing-mode:lr-tb;fill:#000000;fill-opacity:1;fill-rule:nonzero;stroke:none"
           transform="matrix(1,0,0,-1,125.4801,47.2801)"><tspan
             id="tspan244"
             y="0"
             x="0">.</tspan></text>
</g><path
         id="path246"
         style="fill:#000000;fill-opacity:1;fill-rule:nonzero;stroke:none"
         d="m 877.422,330.566 1.098,0.473 1.054,0.504 1.012,0.539 0.953,0.582 0.926,0.613 0.879,0.649 0.832,0.691 0.793,0.715 0.758,0.758 0.714,0.793 0.68,0.812 0.637,0.856 0.605,0.879 0.571,0.925 0.527,0.942 0.508,0.98 0.461,1.012 0.437,1.031 0.406,1.067 0.364,1.086 0.351,1.121 0.309,1.144 0.285,1.172 0.266,1.199 0.23,1.219 0.207,1.254 0.188,1.273 0.164,1.286 0.133,1.32 0.121,1.34 0.086,1.363 0.078,1.383 0.054,1.406 0.043,1.43 0.012,1.437 0.012,1.461 -0.024,1.485 -0.019,1.504 -0.047,1.515 -0.055,1.527 -0.074,1.551 -0.078,1.571 -0.09,1.582 -0.098,1.593 -0.109,1.602 -0.121,1.629 -0.121,1.637 -0.133,1.648 -0.141,1.656 -0.144,1.672 -0.141,1.68 -0.144,1.691 -0.153,1.703 -0.156,1.715 -0.152,1.727 -0.153,1.722 -0.156,1.735 -0.14,1.738 -0.145,1.746 -0.141,1.758 -0.144,1.758 -0.133,1.769 -0.121,1.77 -0.121,1.769 -0.11,1.778 -0.097,1.769 -0.098,1.781 -0.078,1.778 -0.078,1.781 -0.055,1.789 -0.043,1.781 -0.023,1.782 -0.02,1.777 0,1.781 0.02,1.77 0.035,1.765 0.055,1.77 0.074,1.769 0.09,1.758 0.109,1.758 0.145,1.746 0.152,1.738 0.188,1.735 0.195,1.726 0.242,1.723 0.254,1.703 0.285,1.703 0.309,1.692 0.339,1.683 0.376,1.668 0.394,1.66 0.438,1.649 0.464,1.637 0.493,1.625 0.527,1.605 0.57,1.59 0.606,1.582 0.636,1.574 0.672,1.535 0.715,1.539 0.746,1.516 0.789,1.496 0.836,1.481 0.867,1.464 0.926,1.438 0.953,1.43 1,1.394 1.043,1.383 1.102,1.363 1.14,1.34 1.188,1.32 1.23,1.286 1.286,1.273 1.339,1.242 1.383,1.231 1.442,1.183 1.492,1.176 1.539,1.145 1.594,1.121 1.66,1.086 -1.66,1.089 -1.594,1.118 -1.539,1.144 -1.492,1.176 -1.442,1.187 -1.383,1.231 -1.339,1.242 -1.286,1.273 -1.23,1.286 -1.188,1.316 -1.14,1.344 -1.102,1.359 -1.043,1.387 -1,1.394 -0.953,1.426 -0.926,1.442 -0.867,1.461 -0.836,1.484 -0.789,1.492 -0.746,1.516 -0.715,1.539 -0.672,1.539 -0.636,1.57 -0.606,1.582 -0.57,1.594 -0.527,1.602 -0.493,1.628 -0.464,1.637 -0.438,1.649 -0.394,1.656 -0.376,1.672 -0.339,1.679 -0.309,1.692 -0.285,1.703 -0.254,1.703 -0.242,1.727 -0.195,1.722 -0.188,1.739 -0.152,1.734 -0.145,1.746 -0.109,1.758 -0.09,1.758 -0.074,1.769 -0.055,1.77 -0.035,1.769 -0.02,1.77 0,1.777 0.02,1.781 0.023,1.778 0.043,1.781 0.055,1.793 0.078,1.777 0.078,1.782 0.098,1.777 0.097,1.769 0.11,1.782 0.121,1.769 0.121,1.766 0.133,1.769 0.144,1.758 0.141,1.758 0.145,1.746 0.14,1.738 0.156,1.735 0.153,1.726 0.152,1.723 0.156,1.715 0.153,1.703 0.144,1.691 0.141,1.684 0.144,1.668 0.141,1.66 0.133,1.648 0.121,1.637 0.121,1.625 0.109,1.606 0.098,1.59 0.09,1.582 0.078,1.574 0.074,1.547 0.055,1.527 0.047,1.516 0.019,1.507 0.024,1.481 -0.012,1.461 -0.012,1.441 -0.043,1.426 -0.054,1.406 -0.078,1.387 -0.086,1.363 -0.121,1.34 -0.133,1.316 -0.164,1.286 -0.188,1.273 -0.207,1.254 -0.23,1.219 -0.266,1.199 -0.285,1.176 -0.309,1.14 -0.351,1.121 -0.364,1.09 -0.406,1.063 -0.437,1.035 -0.461,1.012 -0.508,0.976 -0.527,0.946 -0.571,0.921 -0.605,0.879 -0.637,0.856 -0.68,0.816 -0.714,0.789 -0.758,0.758 -0.793,0.727 -0.832,0.679 -0.879,0.649 -0.926,0.617 -0.953,0.582 -1.012,0.535 -1.054,0.508 -1.098,0.473 1.426,-0.606 1.375,-0.625 1.316,-0.672 1.266,-0.703 1.195,-0.723 1.156,-0.761 1.11,-0.801 1.043,-0.812 1,-0.856 0.957,-0.879 0.898,-0.914 0.859,-0.945 0.813,-0.965 0.769,-1 0.711,-1.024 0.684,-1.043 0.637,-1.074 0.593,-1.101 0.547,-1.121 0.52,-1.153 0.48,-1.175 0.442,-1.196 0.394,-1.222 0.375,-1.239 0.328,-1.265 0.309,-1.286 0.262,-1.308 0.23,-1.328 0.211,-1.34 0.176,-1.375 0.152,-1.383 0.121,-1.406 0.102,-1.418 0.062,-1.438 0.047,-1.461 0.02,-1.472 0,-1.496 -0.02,-1.504 -0.047,-1.516 -0.062,-1.539 -0.078,-1.551 -0.098,-1.558 -0.113,-1.571 -0.129,-1.593 -0.145,-1.594 -0.164,-1.613 -0.164,-1.625 -0.187,-1.629 -0.199,-1.649 -0.196,-1.644 -0.211,-1.672 -0.218,-1.668 -0.231,-1.684 -0.23,-1.679 -0.243,-1.692 -0.23,-1.703 -0.254,-1.703 -0.242,-1.715 -0.242,-1.715 -0.25,-1.722 -0.243,-1.727 -0.242,-1.723 -0.242,-1.738 -0.23,-1.734 -0.231,-1.735 -0.219,-1.738 -0.218,-1.734 -0.211,-1.746 -0.199,-1.739 -0.184,-1.734 -0.188,-1.746 -0.164,-1.738 -0.156,-1.735 -0.14,-1.738 -0.122,-1.723 -0.109,-1.726 -0.09,-1.723 -0.078,-1.727 -0.055,-1.714 -0.031,-1.7 -0.023,-1.703 0.011,-1.703 0.036,-1.695 0.054,-1.68 0.074,-1.668 0.11,-1.672 0.133,-1.66 0.156,-1.644 0.184,-1.637 0.222,-1.629 0.25,-1.613 0.278,-1.617 0.316,-1.59 0.34,-1.582 0.386,-1.575 0.418,-1.546 0.45,-1.551 0.496,-1.528 0.527,-1.515 0.57,-1.492 0.606,-1.485 0.644,-1.461 0.704,-1.449 0.726,-1.441 0.793,-1.407 0.824,-1.394 0.879,-1.383 0.91,-1.351 0.977,-1.34 1.012,-1.321 1.078,-1.296 1.121,-1.286 1.164,-1.254 1.23,-1.23 1.286,-1.207 1.328,-1.188 1.394,-1.164 1.453,-1.14 1.504,-1.11 1.571,-1.089 -1.571,-1.086 -1.504,-1.11 -1.453,-1.144 -1.394,-1.164 -1.328,-1.188 -1.286,-1.207 -1.23,-1.23 -1.164,-1.254 -1.121,-1.285 -1.078,-1.297 -1.012,-1.317 -0.977,-1.34 -0.91,-1.351 -0.879,-1.387 -0.824,-1.394 -0.793,-1.407 -0.726,-1.437 -0.704,-1.449 -0.644,-1.465 -0.606,-1.481 -0.57,-1.496 -0.527,-1.515 -0.496,-1.528 -0.45,-1.547 -0.418,-1.55 -0.386,-1.571 -0.34,-1.582 -0.316,-1.593 -0.278,-1.614 -0.25,-1.617 -0.222,-1.625 -0.184,-1.637 -0.156,-1.648 -0.133,-1.66 -0.11,-1.668 -0.074,-1.672 -0.054,-1.68 -0.036,-1.691 -0.011,-1.703 0.023,-1.703 0.031,-1.704 0.055,-1.714 0.078,-1.723 0.09,-1.727 0.109,-1.726 0.122,-1.723 0.14,-1.734 0.156,-1.738 0.164,-1.735 0.188,-1.746 0.184,-1.738 0.199,-1.735 0.211,-1.746 0.218,-1.738 0.219,-1.734 0.231,-1.739 0.23,-1.734 0.242,-1.734 0.242,-1.727 0.243,-1.723 0.25,-1.726 0.242,-1.715 0.242,-1.715 0.254,-1.699 0.23,-1.703 0.243,-1.695 0.23,-1.68 0.231,-1.68 0.218,-1.672 0.211,-1.668 0.196,-1.648 0.199,-1.649 0.187,-1.625 0.164,-1.625 0.164,-1.617 0.145,-1.594 0.129,-1.593 0.113,-1.571 0.098,-1.558 0.078,-1.551 0.062,-1.535 0.047,-1.52 0.02,-1.504 0,-1.492 -0.02,-1.472 -0.047,-1.461 -0.062,-1.442 -0.102,-1.418 -0.121,-1.406 -0.152,-1.383 -0.176,-1.363 -0.211,-1.352 -0.23,-1.328 -0.262,-1.308 -0.309,-1.285 -0.328,-1.262 -0.375,-1.242 -0.394,-1.219 -0.442,-1.199 -0.48,-1.176 -0.52,-1.152 -0.547,-1.122 -0.593,-1.097 -0.637,-1.078 -0.684,-1.043 -0.711,-1.024 -0.769,-0.996 -0.813,-0.969 -0.859,-0.945 -0.898,-0.91 -0.957,-0.879 -1,-0.859 -1.043,-0.813 -1.11,-0.801 -1.156,-0.757 -1.195,-0.727 -1.266,-0.703 -1.316,-0.668 -1.375,-0.629 -1.426,-0.602" /><path
         id="path248"
         style="fill:none;stroke:#000000;stroke-width:3.9849999;stroke-linecap:butt;stroke-linejoin:miter;stroke-miterlimit:10;stroke-dasharray:none;stroke-opacity:1"
         d="m 877.422,330.566 1.098,0.473 1.054,0.504 1.012,0.539 0.953,0.582 0.926,0.613 0.879,0.649 0.832,0.691 0.793,0.715 0.758,0.758 0.714,0.793 0.68,0.812 0.637,0.856 0.605,0.879 0.571,0.925 0.527,0.942 0.508,0.98 0.461,1.012 0.437,1.031 0.406,1.067 0.364,1.086 0.351,1.121 0.309,1.144 0.285,1.172 0.266,1.199 0.23,1.219 0.207,1.254 0.188,1.273 0.164,1.286 0.133,1.32 0.121,1.34 0.086,1.363 0.078,1.383 0.054,1.406 0.043,1.43 0.012,1.437 0.012,1.461 -0.024,1.485 -0.019,1.504 -0.047,1.515 -0.055,1.527 -0.074,1.551 -0.078,1.571 -0.09,1.582 -0.098,1.593 -0.109,1.602 -0.121,1.629 -0.121,1.637 -0.133,1.648 -0.141,1.656 -0.144,1.672 -0.141,1.68 -0.144,1.691 -0.153,1.703 -0.156,1.715 -0.152,1.727 -0.153,1.722 -0.156,1.735 -0.14,1.738 -0.145,1.746 -0.141,1.758 -0.144,1.758 -0.133,1.769 -0.121,1.77 -0.121,1.769 -0.11,1.778 -0.097,1.769 -0.098,1.781 -0.078,1.778 -0.078,1.781 -0.055,1.789 -0.043,1.781 -0.023,1.782 -0.02,1.777 0,1.781 0.02,1.77 0.035,1.765 0.055,1.77 0.074,1.769 0.09,1.758 0.109,1.758 0.145,1.746 0.152,1.738 0.188,1.735 0.195,1.726 0.242,1.723 0.254,1.703 0.285,1.703 0.309,1.692 0.339,1.683 0.376,1.668 0.394,1.66 0.438,1.649 0.464,1.637 0.493,1.625 0.527,1.605 0.57,1.59 0.606,1.582 0.636,1.574 0.672,1.535 0.715,1.539 0.746,1.516 0.789,1.496 0.836,1.481 0.867,1.464 0.926,1.438 0.953,1.43 1,1.394 1.043,1.383 1.102,1.363 1.14,1.34 1.188,1.32 1.23,1.286 1.286,1.273 1.339,1.242 1.383,1.231 1.442,1.183 1.492,1.176 1.539,1.145 1.594,1.121 1.66,1.086 -1.66,1.089 -1.594,1.118 -1.539,1.144 -1.492,1.176 -1.442,1.187 -1.383,1.231 -1.339,1.242 -1.286,1.273 -1.23,1.286 -1.188,1.316 -1.14,1.344 -1.102,1.359 -1.043,1.387 -1,1.394 -0.953,1.426 -0.926,1.442 -0.867,1.461 -0.836,1.484 -0.789,1.492 -0.746,1.516 -0.715,1.539 -0.672,1.539 -0.636,1.57 -0.606,1.582 -0.57,1.594 -0.527,1.602 -0.493,1.628 -0.464,1.637 -0.438,1.649 -0.394,1.656 -0.376,1.672 -0.339,1.679 -0.309,1.692 -0.285,1.703 -0.254,1.703 -0.242,1.727 -0.195,1.722 -0.188,1.739 -0.152,1.734 -0.145,1.746 -0.109,1.758 -0.09,1.758 -0.074,1.769 -0.055,1.77 -0.035,1.769 -0.02,1.77 0,1.777 0.02,1.781 0.023,1.778 0.043,1.781 0.055,1.793 0.078,1.777 0.078,1.782 0.098,1.777 0.097,1.769 0.11,1.782 0.121,1.769 0.121,1.766 0.133,1.769 0.144,1.758 0.141,1.758 0.145,1.746 0.14,1.738 0.156,1.735 0.153,1.726 0.152,1.723 0.156,1.715 0.153,1.703 0.144,1.691 0.141,1.684 0.144,1.668 0.141,1.66 0.133,1.648 0.121,1.637 0.121,1.625 0.109,1.606 0.098,1.59 0.09,1.582 0.078,1.574 0.074,1.547 0.055,1.527 0.047,1.516 0.019,1.507 0.024,1.481 -0.012,1.461 -0.012,1.441 -0.043,1.426 -0.054,1.406 -0.078,1.387 -0.086,1.363 -0.121,1.34 -0.133,1.316 -0.164,1.286 -0.188,1.273 -0.207,1.254 -0.23,1.219 -0.266,1.199 -0.285,1.176 -0.309,1.14 -0.351,1.121 -0.364,1.09 -0.406,1.063 -0.437,1.035 -0.461,1.012 -0.508,0.976 -0.527,0.946 -0.571,0.921 -0.605,0.879 -0.637,0.856 -0.68,0.816 -0.714,0.789 -0.758,0.758 -0.793,0.727 -0.832,0.679 -0.879,0.649 -0.926,0.617 -0.953,0.582 -1.012,0.535 -1.054,0.508 -1.098,0.473 1.426,-0.606 1.375,-0.625 1.316,-0.672 1.266,-0.703 1.195,-0.723 1.156,-0.761 1.11,-0.801 1.043,-0.812 1,-0.856 0.957,-0.879 0.898,-0.914 0.859,-0.945 0.813,-0.965 0.769,-1 0.711,-1.024 0.684,-1.043 0.637,-1.074 0.593,-1.101 0.547,-1.121 0.52,-1.153 0.48,-1.175 0.442,-1.196 0.394,-1.222 0.375,-1.239 0.328,-1.265 0.309,-1.286 0.262,-1.308 0.23,-1.328 0.211,-1.34 0.176,-1.375 0.152,-1.383 0.121,-1.406 0.102,-1.418 0.062,-1.438 0.047,-1.461 0.02,-1.472 0,-1.496 -0.02,-1.504 -0.047,-1.516 -0.062,-1.539 -0.078,-1.551 -0.098,-1.558 -0.113,-1.571 -0.129,-1.593 -0.145,-1.594 -0.164,-1.613 -0.164,-1.625 -0.187,-1.629 -0.199,-1.649 -0.196,-1.644 -0.211,-1.672 -0.218,-1.668 -0.231,-1.684 -0.23,-1.679 -0.243,-1.692 -0.23,-1.703 -0.254,-1.703 -0.242,-1.715 -0.242,-1.715 -0.25,-1.722 -0.243,-1.727 -0.242,-1.723 -0.242,-1.738 -0.23,-1.734 -0.231,-1.735 -0.219,-1.738 -0.218,-1.734 -0.211,-1.746 -0.199,-1.739 -0.184,-1.734 -0.188,-1.746 -0.164,-1.738 -0.156,-1.735 -0.14,-1.738 -0.122,-1.723 -0.109,-1.726 -0.09,-1.723 -0.078,-1.727 -0.055,-1.714 -0.031,-1.7 -0.023,-1.703 0.011,-1.703 0.036,-1.695 0.054,-1.68 0.074,-1.668 0.11,-1.672 0.133,-1.66 0.156,-1.644 0.184,-1.637 0.222,-1.629 0.25,-1.613 0.278,-1.617 0.316,-1.59 0.34,-1.582 0.386,-1.575 0.418,-1.546 0.45,-1.551 0.496,-1.528 0.527,-1.515 0.57,-1.492 0.606,-1.485 0.644,-1.461 0.704,-1.449 0.726,-1.441 0.793,-1.407 0.824,-1.394 0.879,-1.383 0.91,-1.351 0.977,-1.34 1.012,-1.321 1.078,-1.296 1.121,-1.286 1.164,-1.254 1.23,-1.23 1.286,-1.207 1.328,-1.188 1.394,-1.164 1.453,-1.14 1.504,-1.11 1.571,-1.089 -1.571,-1.086 -1.504,-1.11 -1.453,-1.144 -1.394,-1.164 -1.328,-1.188 -1.286,-1.207 -1.23,-1.23 -1.164,-1.254 -1.121,-1.285 -1.078,-1.297 -1.012,-1.317 -0.977,-1.34 -0.91,-1.351 -0.879,-1.387 -0.824,-1.394 -0.793,-1.407 -0.726,-1.437 -0.704,-1.449 -0.644,-1.465 -0.606,-1.481 -0.57,-1.496 -0.527,-1.515 -0.496,-1.528 -0.45,-1.547 -0.418,-1.55 -0.386,-1.571 -0.34,-1.582 -0.316,-1.593 -0.278,-1.614 -0.25,-1.617 -0.222,-1.625 -0.184,-1.637 -0.156,-1.648 -0.133,-1.66 -0.11,-1.668 -0.074,-1.672 -0.054,-1.68 -0.036,-1.691 -0.011,-1.703 0.023,-1.703 0.031,-1.704 0.055,-1.714 0.078,-1.723 0.09,-1.727 0.109,-1.726 0.122,-1.723 0.14,-1.734 0.156,-1.738 0.164,-1.735 0.188,-1.746 0.184,-1.738 0.199,-1.735 0.211,-1.746 0.218,-1.738 0.219,-1.734 0.231,-1.739 0.23,-1.734 0.242,-1.734 0.242,-1.727 0.243,-1.723 0.25,-1.726 0.242,-1.715 0.242,-1.715 0.254,-1.699 0.23,-1.703 0.243,-1.695 0.23,-1.68 0.231,-1.68 0.218,-1.672 0.211,-1.668 0.196,-1.648 0.199,-1.649 0.187,-1.625 0.164,-1.625 0.164,-1.617 0.145,-1.594 0.129,-1.593 0.113,-1.571 0.098,-1.558 0.078,-1.551 0.062,-1.535 0.047,-1.52 0.02,-1.504 0,-1.492 -0.02,-1.472 -0.047,-1.461 -0.062,-1.442 -0.102,-1.418 -0.121,-1.406 -0.152,-1.383 -0.176,-1.363 -0.211,-1.352 -0.23,-1.328 -0.262,-1.308 -0.309,-1.285 -0.328,-1.262 -0.375,-1.242 -0.394,-1.219 -0.442,-1.199 -0.48,-1.176 -0.52,-1.152 -0.547,-1.122 -0.593,-1.097 -0.637,-1.078 -0.684,-1.043 -0.711,-1.024 -0.769,-0.996 -0.813,-0.969 -0.859,-0.945 -0.898,-0.91 -0.957,-0.879 -1,-0.859 -1.043,-0.813 -1.11,-0.801 -1.156,-0.757 -1.195,-0.727 -1.266,-0.703 -1.316,-0.668 -1.375,-0.629 -1.426,-0.602 z" /><g
         transform="scale(10,10)"
         id="g250"><text
           id="text252"
           style="font-variant:normal;font-weight:normal;font-size:11.9552002px;font-family:CMCSC10;-inkscape-font-specification:CMCSC10;writing-mode:lr-tb;fill:#000000;fill-opacity:1;fill-rule:nonzero;stroke:none"
           transform="matrix(1,0,0,-1,85.441,0.0890625)"><tspan
             id="tspan254"
             y="0"
             x="0 8.5141897 12.111581 19.790342 28.065205 34.667984 41.270763">Fig.15.</tspan></text>
</g></g></g></svg>