<?xml version="1.0" encoding="UTF-8" standalone="no"?>
<svg
   xmlns:dc="http://purl.org/dc/elements/1.1/"
   xmlns:cc="http://creativecommons.org/ns#"
   xmlns:rdf="http://www.w3.org/1999/02/22-rdf-syntax-ns#"
   xmlns:svg="http://www.w3.org/2000/svg"
   xmlns="http://www.w3.org/2000/svg"
   viewBox="0 0 211.25 226.25"
   height="226.25"
   width="211.25"
   xml:space="preserve"
   version="1.1"
   id="svg2"><metadata
     id="metadata8"><rdf:RDF><cc:Work
         rdf:about=""><dc:format>image/svg+xml</dc:format><dc:type
           rdf:resource="http://purl.org/dc/dcmitype/StillImage" /></cc:Work></rdf:RDF></metadata><defs
     id="defs6"><clipPath
       id="clipPath12"
       clipPathUnits="userSpaceOnUse"><path
         id="path14"
         d="m -2,-2 169,0 0,181 -169,0 0,-181 z" /></clipPath></defs><g
     clip-path="url(#clipPath12)"
     transform="matrix(1.25,0,0,-1.25,2.5,223.75)"
     id="g10"><g
       transform="scale(0.1,0.1)"
       id="g16"><path
         id="path18"
         style="fill:none;stroke:#000000;stroke-width:11.95530033;stroke-linecap:butt;stroke-linejoin:miter;stroke-miterlimit:10;stroke-dasharray:none;stroke-opacity:1"
         d="m 180,801.125 720.008,720.015 240.482,240.48" /><path
         id="path20"
         style="fill:none;stroke:#000000;stroke-width:11.95530033;stroke-linecap:butt;stroke-linejoin:miter;stroke-miterlimit:10;stroke-dasharray:none;stroke-opacity:1"
         d="m 180,801.125 180.004,0" /><path
         id="path22"
         style="fill:none;stroke:#000000;stroke-width:11.95530033;stroke-linecap:butt;stroke-linejoin:miter;stroke-miterlimit:10;stroke-dasharray:none;stroke-opacity:1"
         d="m 360.004,981.129 0,-180.004" /><g
         transform="scale(10,10)"
         id="g24"><text
           id="text26"
           style="font-variant:normal;font-weight:normal;font-size:10.90909958px;font-family:CMMI10;-inkscape-font-specification:CMMI10;writing-mode:lr-tb;fill:#000000;fill-opacity:1;fill-rule:nonzero;stroke:none"
           transform="matrix(1,0,0,-1,21,68.568)"><tspan
             id="tspan28"
             y="0"
             x="0 5.6347194">dx</tspan><tspan
             id="tspan30"
             y="-17.7848"
             x="18.985201 24.619919">dy</tspan></text>
</g><path
         id="path32"
         style="fill:none;stroke:#000000;stroke-width:7.97009993;stroke-linecap:butt;stroke-linejoin:miter;stroke-miterlimit:10;stroke-dasharray:none;stroke-opacity:1"
         d="m 360.004,321.602 0,19.984" /><path
         id="path34"
         style="fill:none;stroke:#000000;stroke-width:7.97009993;stroke-linecap:butt;stroke-linejoin:miter;stroke-miterlimit:10;stroke-dasharray:none;stroke-opacity:1"
         d="m 360.004,381.543 0,19.973" /><path
         id="path36"
         style="fill:none;stroke:#000000;stroke-width:7.97009993;stroke-linecap:butt;stroke-linejoin:miter;stroke-miterlimit:10;stroke-dasharray:none;stroke-opacity:1"
         d="m 360.004,401.516 0,19.984" /><path
         id="path38"
         style="fill:none;stroke:#000000;stroke-width:7.97009993;stroke-linecap:butt;stroke-linejoin:miter;stroke-miterlimit:10;stroke-dasharray:none;stroke-opacity:1"
         d="m 360.004,461.457 0,19.984" /><path
         id="path40"
         style="fill:none;stroke:#000000;stroke-width:7.97009993;stroke-linecap:butt;stroke-linejoin:miter;stroke-miterlimit:10;stroke-dasharray:none;stroke-opacity:1"
         d="m 360.004,481.441 0,19.985" /><path
         id="path42"
         style="fill:none;stroke:#000000;stroke-width:7.97009993;stroke-linecap:butt;stroke-linejoin:miter;stroke-miterlimit:10;stroke-dasharray:none;stroke-opacity:1"
         d="m 360.004,541.383 0,19.976" /><path
         id="path44"
         style="fill:none;stroke:#000000;stroke-width:7.97009993;stroke-linecap:butt;stroke-linejoin:miter;stroke-miterlimit:10;stroke-dasharray:none;stroke-opacity:1"
         d="m 360.004,561.359 0,19.985" /><path
         id="path46"
         style="fill:none;stroke:#000000;stroke-width:7.97009993;stroke-linecap:butt;stroke-linejoin:miter;stroke-miterlimit:10;stroke-dasharray:none;stroke-opacity:1"
         d="m 360.004,621.301 0,19.984" /><path
         id="path48"
         style="fill:none;stroke:#000000;stroke-width:7.97009993;stroke-linecap:butt;stroke-linejoin:miter;stroke-miterlimit:10;stroke-dasharray:none;stroke-opacity:1"
         d="m 360.004,641.285 0,19.985" /><path
         id="path50"
         style="fill:none;stroke:#000000;stroke-width:7.97009993;stroke-linecap:butt;stroke-linejoin:miter;stroke-miterlimit:10;stroke-dasharray:none;stroke-opacity:1"
         d="m 360.004,701.227 0,19.972" /><path
         id="path52"
         style="fill:none;stroke:#000000;stroke-width:7.97009993;stroke-linecap:butt;stroke-linejoin:miter;stroke-miterlimit:10;stroke-dasharray:none;stroke-opacity:1"
         d="m 360.004,721.199 0,19.985" /><path
         id="path54"
         style="fill:none;stroke:#000000;stroke-width:7.97009993;stroke-linecap:butt;stroke-linejoin:miter;stroke-miterlimit:10;stroke-dasharray:none;stroke-opacity:1"
         d="m 360.004,781.141 0,19.984" /><g
         transform="matrix(106.8,0,0,-135.6,-32.3228,628.438)"
         id="g56"><rect
           id="rect58"
           style="fill:#ffffff;fill-opacity:1;fill-rule:nonzero"
           transform="matrix(1,0,0,-1,0,1)"
           height="1"
           width="1"
           y="0"
           x="0" /></g><g
         transform="scale(10,10)"
         id="g60"><text
           id="text62"
           style="font-variant:normal;font-weight:normal;font-size:10.90909958px;font-family:CMMI10;-inkscape-font-specification:CMMI10;writing-mode:lr-tb;fill:#000000;fill-opacity:1;fill-rule:nonzero;stroke:none"
           transform="matrix(1,0,0,-1,-0.340234,52.2957)"><tspan
             id="tspan64"
             y="0"
             x="0">b</tspan></text>
</g><path
         id="path66"
         style="fill:#000000;fill-opacity:1;fill-rule:nonzero;stroke:none"
         d="m 160.07,781.195 -2.437,-1 -2.363,-1.019 -2.262,-1.043 -2.188,-1.067 -2.086,-1.078 -2.011,-1.097 -1.934,-1.11 -1.855,-1.133 -1.77,-1.152 -1.691,-1.164 -1.629,-1.187 -1.535,-1.196 -1.473,-1.222 -1.406,-1.243 -1.34,-1.25 -1.266,-1.265 -1.195,-1.285 -1.133,-1.305 -1.078,-1.32 -1.012,-1.34 -0.953,-1.352 -0.902,-1.363 -0.836,-1.383 -0.777,-1.406 -0.739,-1.418 -0.679,-1.43 -0.625,-1.449 -0.583,-1.461 -0.531,-1.473 -0.492,-1.492 -0.441,-1.515 -0.407,-1.516 -0.359,-1.539 -0.332,-1.551 -0.285,-1.57 -0.254,-1.582 -0.219,-1.594 -0.176,-1.613 -0.152,-1.629 -0.133,-1.637 -0.097,-1.644 -0.067,-1.672 -0.043,-1.68 -0.023,-1.691 -0.012,-1.715 0.023,-1.715 0.032,-1.734 0.054,-1.747 0.067,-1.757 0.078,-1.77 0.098,-1.793 0.097,-1.801 0.114,-1.8 0.117,-1.825 0.121,-1.836 0.133,-1.855 0.121,-1.856 0.133,-1.871 0.132,-1.886 0.121,-1.891 0.118,-1.914 0.121,-1.91 0.113,-1.934 0.098,-1.945 0.086,-1.945 0.078,-1.965 0.066,-1.977 0.055,-1.988 0.023,-1.988 0.02,-2.012 -0.012,-2.012 -0.031,-2.031 -0.043,-2.031 -0.078,-2.055 -0.11,-2.055 -0.132,-2.066 -0.153,-2.078 -0.199,-2.086 -0.219,-2.098 -0.265,-2.109 -0.286,-2.11 -0.339,-2.132 -0.375,-2.129 -0.407,-2.145 -0.461,-2.152 -0.492,-2.152 -0.539,-2.176 -0.594,-2.176 -0.648,-2.188 -0.68,-2.187 -0.75,-2.207 -0.789,-2.207 -0.855,-2.219 -0.903,-2.23 -0.968,-2.231 -1.032,-2.242 -1.086,-2.242 -1.144,-2.262 -1.219,-2.266 -1.273,-2.261 -1.352,-2.285 -1.4178,-2.286 -1.496,-2.285 -1.5586,-2.297 -1.6368,-2.304 -1.7148,-2.309 -1.7891,-2.316 -1.8671,-2.332 -1.9454,-2.328 -2.0312,-2.329 -2.1094,-2.339 -2.1992,-2.352 -2.2852,-2.352 -2.3828,-2.363 -2.4609,-2.359 -2.5625,-2.363 -2.6445,-2.387 -2.75,-2.371 -2.8321,-2.383 -2.9453,-2.395 2.9453,-2.386 2.8321,-2.383 2.75,-2.375 2.6445,-2.383 2.5625,-2.363 2.4609,-2.36 2.3828,-2.363 2.2852,-2.351 2.1992,-2.352 2.1094,-2.34 2.0312,-2.328 1.9454,-2.328 1.8671,-2.332 1.7891,-2.317 1.7148,-2.308 1.6368,-2.305 1.5586,-2.297 1.496,-2.285 1.4178,-2.285 1.352,-2.285 1.273,-2.266 1.219,-2.262 1.144,-2.261 1.086,-2.242 1.032,-2.243 0.968,-2.242 0.903,-2.219 0.855,-2.218 0.789,-2.207 0.75,-2.207 0.68,-2.188 0.648,-2.187 0.594,-2.176 0.539,-2.176 0.492,-2.152 0.461,-2.153 0.407,-2.144 0.375,-2.129 0.339,-2.133 0.286,-2.109 0.265,-2.11 0.219,-2.097 0.199,-2.086 0.153,-2.078 0.132,-2.067 0.11,-2.054 0.078,-2.055 0.043,-2.031 0.031,-2.032 0.012,-2.011 -0.02,-2.012 -0.023,-1.988 -0.055,-1.989 -0.066,-1.976 -0.078,-1.969 -0.086,-1.941 -0.098,-1.946 -0.113,-1.933 -0.121,-1.914 -0.118,-1.91 -0.121,-1.891 -0.132,-1.887 -0.133,-1.871 -0.121,-1.855 -0.133,-1.856 -0.121,-1.836 -0.117,-1.824 -0.114,-1.801 -0.097,-1.801 -0.098,-1.793 -0.078,-1.769 -0.067,-1.758 -0.054,-1.746 -0.032,-1.734 -0.023,-1.715 0.012,-1.715 0.023,-1.691 0.043,-1.68 0.067,-1.672 0.097,-1.648 0.133,-1.637 0.152,-1.625 0.176,-1.613 0.219,-1.594 0.254,-1.582 0.285,-1.571 0.332,-1.55 0.359,-1.539 0.407,-1.516 0.441,-1.516 0.492,-1.492 0.531,-1.472 0.583,-1.461 0.625,-1.454 0.679,-1.425 0.739,-1.418 0.777,-1.407 0.836,-1.382 0.902,-1.364 0.953,-1.351 1.012,-1.34 1.078,-1.32 1.133,-1.305 1.195,-1.285 1.266,-1.266 1.34,-1.254 1.406,-1.238 1.473,-1.223 1.535,-1.195 1.629,-1.187 1.691,-1.165 1.77,-1.152 1.855,-1.133 1.934,-1.109 2.011,-1.098 2.086,-1.078 2.188,-1.066 2.262,-1.043 2.363,-1.024 2.437,-0.996 -3.418,1.492 -3.304,1.497 -3.188,1.503 -3.055,1.493 -2.953,1.507 -2.824,1.504 -2.726,1.516 -2.602,1.504 -2.504,1.519 -2.398,1.516 -2.286,1.516 -2.183,1.527 -2.09,1.527 -1.988,1.528 -1.891,1.535 -1.789,1.527 -1.703,1.539 -1.613,1.551 -1.528,1.535 -1.429,1.563 -1.352,1.547 -1.273,1.562 -1.188,1.559 -1.109,1.558 -1.031,1.574 -0.957,1.571 -0.879,1.582 -0.813,1.582 -0.746,1.582 -0.684,1.594 -0.601,1.601 -0.551,1.594 -0.496,1.617 -0.426,1.602 -0.375,1.617 -0.3201,1.625 -0.2617,1.625 -0.2071,1.625 -0.1679,1.648 -0.1211,1.637 -0.0625,1.648 -0.0352,1.661 0.0117,1.66 0.0547,1.656 0.086,1.672 0.121,1.68 0.168,1.691 0.1836,1.684 0.2227,1.703 0.2419,1.703 0.262,1.711 0.297,1.715 0.32,1.726 0.328,1.723 0.352,1.738 0.363,1.746 0.383,1.746 0.394,1.758 0.399,1.77 0.406,1.769 0.418,1.778 0.418,1.792 0.414,1.801 0.418,1.801 0.418,1.813 0.406,1.812 0.407,1.824 0.398,1.848 0.383,1.832 0.375,1.859 0.351,1.856 0.34,1.867 0.328,1.879 0.297,1.891 0.285,1.89 0.254,1.899 0.231,1.921 0.199,1.915 0.176,1.933 0.14,1.945 0.098,1.942 0.066,1.957 0.036,1.976 -0.012,1.981 -0.055,1.976 -0.097,2 -0.145,2.008 -0.187,2.024 -0.243,2.019 -0.297,2.035 -0.351,2.055 -0.395,2.055 -0.461,2.062 -0.527,2.09 -0.582,2.086 -0.648,2.098 -0.715,2.109 -0.789,2.121 -0.848,2.133 -0.922,2.141 -1,2.164 -1.078,2.164 -1.1523,2.176 -1.2305,2.187 -1.3203,2.195 -1.3945,2.223 -1.4922,2.219 -1.5703,2.238 -1.6601,2.242 -1.7579,2.266 -1.8476,2.273 -1.9414,2.285 -2.0469,2.297 -2.1406,2.305 -2.2422,2.32 -2.3516,2.328 -2.4492,2.352 -2.5586,2.363 -2.6719,2.36 -2.789,2.386 2.789,2.395 2.6719,2.359 2.5586,2.364 2.4492,2.351 2.3516,2.328 2.2422,2.321 2.1406,2.304 2.0469,2.297 1.9414,2.285 1.8476,2.274 1.7579,2.265 1.6601,2.239 1.5703,2.242 1.4922,2.219 1.3945,2.218 1.3203,2.2 1.2305,2.187 1.1523,2.176 1.078,2.164 1,2.164 0.922,2.141 0.848,2.132 0.789,2.121 0.715,2.11 0.648,2.097 0.582,2.086 0.527,2.09 0.461,2.063 0.395,2.054 0.351,2.055 0.297,2.035 0.243,2.02 0.187,2.023 0.145,2.008 0.097,1.988 0.055,1.989 0.012,1.98 -0.036,1.977 -0.066,1.957 -0.098,1.941 -0.14,1.945 -0.176,1.934 -0.199,1.914 -0.231,1.922 -0.254,1.898 -0.285,1.891 -0.297,1.891 -0.328,1.879 -0.34,1.867 -0.351,1.855 -0.375,1.86 -0.383,1.832 -0.398,1.847 -0.407,1.825 -0.406,1.812 -0.418,1.812 -0.418,1.801 -0.414,1.801 -0.418,1.793 -0.418,1.777 -0.406,1.77 -0.399,1.769 -0.394,1.758 -0.383,1.746 -0.363,1.746 -0.352,1.739 -0.328,1.722 -0.32,1.727 -0.297,1.715 -0.262,1.711 -0.2419,1.703 -0.2227,1.703 -0.1836,1.684 -0.168,1.691 -0.121,1.668 -0.086,1.684 -0.0547,1.656 -0.0117,1.66 0.0352,1.66 0.0625,1.649 0.1211,1.636 0.1679,1.637 0.2071,1.637 0.2617,1.625 0.3201,1.625 0.375,1.617 0.426,1.601 0.496,1.618 0.551,1.593 0.601,1.602 0.684,1.582 0.746,1.594 0.813,1.582 0.879,1.582 0.957,1.57 1.031,1.57 1.109,1.563 1.188,1.559 1.273,1.562 1.352,1.547 1.429,1.562 1.528,1.536 1.613,1.55 1.703,1.539 1.789,1.528 1.891,1.535 1.988,1.527 2.09,1.528 2.183,1.527 2.286,1.516 2.398,1.515 2.504,1.52 2.602,1.504 2.726,1.515 2.824,1.504 2.953,1.508 3.055,1.492 3.188,1.504 3.304,1.496 3.418,1.492" /><path
         id="path68"
         style="fill:none;stroke:#000000;stroke-width:3.9849999;stroke-linecap:butt;stroke-linejoin:miter;stroke-miterlimit:10;stroke-dasharray:none;stroke-opacity:1"
         d="m 160.07,781.195 -2.437,-1 -2.363,-1.019 -2.262,-1.043 -2.188,-1.067 -2.086,-1.078 -2.011,-1.097 -1.934,-1.11 -1.855,-1.133 -1.77,-1.152 -1.691,-1.164 -1.629,-1.187 -1.535,-1.196 -1.473,-1.222 -1.406,-1.243 -1.34,-1.25 -1.266,-1.265 -1.195,-1.285 -1.133,-1.305 -1.078,-1.32 -1.012,-1.34 -0.953,-1.352 -0.902,-1.363 -0.836,-1.383 -0.777,-1.406 -0.739,-1.418 -0.679,-1.43 -0.625,-1.449 -0.583,-1.461 -0.531,-1.473 -0.492,-1.492 -0.441,-1.515 -0.407,-1.516 -0.359,-1.539 -0.332,-1.551 -0.285,-1.57 -0.254,-1.582 -0.219,-1.594 -0.176,-1.613 -0.152,-1.629 -0.133,-1.637 -0.097,-1.644 -0.067,-1.672 -0.043,-1.68 -0.023,-1.691 -0.012,-1.715 0.023,-1.715 0.032,-1.734 0.054,-1.747 0.067,-1.757 0.078,-1.77 0.098,-1.793 0.097,-1.801 0.114,-1.8 0.117,-1.825 0.121,-1.836 0.133,-1.855 0.121,-1.856 0.133,-1.871 0.132,-1.886 0.121,-1.891 0.118,-1.914 0.121,-1.91 0.113,-1.934 0.098,-1.945 0.086,-1.945 0.078,-1.965 0.066,-1.977 0.055,-1.988 0.023,-1.988 0.02,-2.012 -0.012,-2.012 -0.031,-2.031 -0.043,-2.031 -0.078,-2.055 -0.11,-2.055 -0.132,-2.066 -0.153,-2.078 -0.199,-2.086 -0.219,-2.098 -0.265,-2.109 -0.286,-2.11 -0.339,-2.132 -0.375,-2.129 -0.407,-2.145 -0.461,-2.152 -0.492,-2.152 -0.539,-2.176 -0.594,-2.176 -0.648,-2.188 -0.68,-2.187 -0.75,-2.207 -0.789,-2.207 -0.855,-2.219 -0.903,-2.23 -0.968,-2.231 -1.032,-2.242 -1.086,-2.242 -1.144,-2.262 -1.219,-2.266 -1.273,-2.261 -1.352,-2.285 -1.4178,-2.286 -1.496,-2.285 -1.5586,-2.297 -1.6368,-2.304 -1.7148,-2.309 -1.7891,-2.316 -1.8671,-2.332 -1.9454,-2.328 -2.0312,-2.329 -2.1094,-2.339 -2.1992,-2.352 -2.2852,-2.352 -2.3828,-2.363 -2.4609,-2.359 -2.5625,-2.363 -2.6445,-2.387 -2.75,-2.371 -2.8321,-2.383 -2.9453,-2.395 2.9453,-2.386 2.8321,-2.383 2.75,-2.375 2.6445,-2.383 2.5625,-2.363 2.4609,-2.36 2.3828,-2.363 2.2852,-2.351 2.1992,-2.352 2.1094,-2.34 2.0312,-2.328 1.9454,-2.328 1.8671,-2.332 1.7891,-2.317 1.7148,-2.308 1.6368,-2.305 1.5586,-2.297 1.496,-2.285 1.4178,-2.285 1.352,-2.285 1.273,-2.266 1.219,-2.262 1.144,-2.261 1.086,-2.242 1.032,-2.243 0.968,-2.242 0.903,-2.219 0.855,-2.218 0.789,-2.207 0.75,-2.207 0.68,-2.188 0.648,-2.187 0.594,-2.176 0.539,-2.176 0.492,-2.152 0.461,-2.153 0.407,-2.144 0.375,-2.129 0.339,-2.133 0.286,-2.109 0.265,-2.11 0.219,-2.097 0.199,-2.086 0.153,-2.078 0.132,-2.067 0.11,-2.054 0.078,-2.055 0.043,-2.031 0.031,-2.032 0.012,-2.011 -0.02,-2.012 -0.023,-1.988 -0.055,-1.989 -0.066,-1.976 -0.078,-1.969 -0.086,-1.941 -0.098,-1.946 -0.113,-1.933 -0.121,-1.914 -0.118,-1.91 -0.121,-1.891 -0.132,-1.887 -0.133,-1.871 -0.121,-1.855 -0.133,-1.856 -0.121,-1.836 -0.117,-1.824 -0.114,-1.801 -0.097,-1.801 -0.098,-1.793 -0.078,-1.769 -0.067,-1.758 -0.054,-1.746 -0.032,-1.734 -0.023,-1.715 0.012,-1.715 0.023,-1.691 0.043,-1.68 0.067,-1.672 0.097,-1.648 0.133,-1.637 0.152,-1.625 0.176,-1.613 0.219,-1.594 0.254,-1.582 0.285,-1.571 0.332,-1.55 0.359,-1.539 0.407,-1.516 0.441,-1.516 0.492,-1.492 0.531,-1.472 0.583,-1.461 0.625,-1.454 0.679,-1.425 0.739,-1.418 0.777,-1.407 0.836,-1.382 0.902,-1.364 0.953,-1.351 1.012,-1.34 1.078,-1.32 1.133,-1.305 1.195,-1.285 1.266,-1.266 1.34,-1.254 1.406,-1.238 1.473,-1.223 1.535,-1.195 1.629,-1.187 1.691,-1.165 1.77,-1.152 1.855,-1.133 1.934,-1.109 2.011,-1.098 2.086,-1.078 2.188,-1.066 2.262,-1.043 2.363,-1.024 2.437,-0.996 -3.418,1.492 -3.304,1.497 -3.188,1.503 -3.055,1.493 -2.953,1.507 -2.824,1.504 -2.726,1.516 -2.602,1.504 -2.504,1.519 -2.398,1.516 -2.286,1.516 -2.183,1.527 -2.09,1.527 -1.988,1.528 -1.891,1.535 -1.789,1.527 -1.703,1.539 -1.613,1.551 -1.528,1.535 -1.429,1.563 -1.352,1.547 -1.273,1.562 -1.188,1.559 -1.109,1.558 -1.031,1.574 -0.957,1.571 -0.879,1.582 -0.813,1.582 -0.746,1.582 -0.684,1.594 -0.601,1.601 -0.551,1.594 -0.496,1.617 -0.426,1.602 -0.375,1.617 -0.3201,1.625 -0.2617,1.625 -0.2071,1.625 -0.1679,1.648 -0.1211,1.637 -0.0625,1.648 -0.0352,1.661 0.0117,1.66 0.0547,1.656 0.086,1.672 0.121,1.68 0.168,1.691 0.1836,1.684 0.2227,1.703 0.2419,1.703 0.262,1.711 0.297,1.715 0.32,1.726 0.328,1.723 0.352,1.738 0.363,1.746 0.383,1.746 0.394,1.758 0.399,1.77 0.406,1.769 0.418,1.778 0.418,1.792 0.414,1.801 0.418,1.801 0.418,1.813 0.406,1.812 0.407,1.824 0.398,1.848 0.383,1.832 0.375,1.859 0.351,1.856 0.34,1.867 0.328,1.879 0.297,1.891 0.285,1.89 0.254,1.899 0.231,1.921 0.199,1.915 0.176,1.933 0.14,1.945 0.098,1.942 0.066,1.957 0.036,1.976 -0.012,1.981 -0.055,1.976 -0.097,2 -0.145,2.008 -0.187,2.024 -0.243,2.019 -0.297,2.035 -0.351,2.055 -0.395,2.055 -0.461,2.062 -0.527,2.09 -0.582,2.086 -0.648,2.098 -0.715,2.109 -0.789,2.121 -0.848,2.133 -0.922,2.141 -1,2.164 -1.078,2.164 -1.1523,2.176 -1.2305,2.187 -1.3203,2.195 -1.3945,2.223 -1.4922,2.219 -1.5703,2.238 -1.6601,2.242 -1.7579,2.266 -1.8476,2.273 -1.9414,2.285 -2.0469,2.297 -2.1406,2.305 -2.2422,2.32 -2.3516,2.328 -2.4492,2.352 -2.5586,2.363 -2.6719,2.36 -2.789,2.386 2.789,2.395 2.6719,2.359 2.5586,2.364 2.4492,2.351 2.3516,2.328 2.2422,2.321 2.1406,2.304 2.0469,2.297 1.9414,2.285 1.8476,2.274 1.7579,2.265 1.6601,2.239 1.5703,2.242 1.4922,2.219 1.3945,2.218 1.3203,2.2 1.2305,2.187 1.1523,2.176 1.078,2.164 1,2.164 0.922,2.141 0.848,2.132 0.789,2.121 0.715,2.11 0.648,2.097 0.582,2.086 0.527,2.09 0.461,2.063 0.395,2.054 0.351,2.055 0.297,2.035 0.243,2.02 0.187,2.023 0.145,2.008 0.097,1.988 0.055,1.989 0.012,1.98 -0.036,1.977 -0.066,1.957 -0.098,1.941 -0.14,1.945 -0.176,1.934 -0.199,1.914 -0.231,1.922 -0.254,1.898 -0.285,1.891 -0.297,1.891 -0.328,1.879 -0.34,1.867 -0.351,1.855 -0.375,1.86 -0.383,1.832 -0.398,1.847 -0.407,1.825 -0.406,1.812 -0.418,1.812 -0.418,1.801 -0.414,1.801 -0.418,1.793 -0.418,1.777 -0.406,1.77 -0.399,1.769 -0.394,1.758 -0.383,1.746 -0.363,1.746 -0.352,1.739 -0.328,1.722 -0.32,1.727 -0.297,1.715 -0.262,1.711 -0.2419,1.703 -0.2227,1.703 -0.1836,1.684 -0.168,1.691 -0.121,1.668 -0.086,1.684 -0.0547,1.656 -0.0117,1.66 0.0352,1.66 0.0625,1.649 0.1211,1.636 0.1679,1.637 0.2071,1.637 0.2617,1.625 0.3201,1.625 0.375,1.617 0.426,1.601 0.496,1.618 0.551,1.593 0.601,1.602 0.684,1.582 0.746,1.594 0.813,1.582 0.879,1.582 0.957,1.57 1.031,1.57 1.109,1.563 1.188,1.559 1.273,1.562 1.352,1.547 1.429,1.562 1.528,1.536 1.613,1.55 1.703,1.539 1.789,1.528 1.891,1.535 1.988,1.527 2.09,1.528 2.183,1.527 2.286,1.516 2.398,1.515 2.504,1.52 2.602,1.504 2.726,1.515 2.824,1.504 2.953,1.508 3.055,1.492 3.188,1.504 3.304,1.496 3.418,1.492 z" /><g
         transform="matrix(146.4,0,0,-134.4,33.4799,321.48)"
         id="g70"><rect
           id="rect72"
           style="fill:#ffffff;fill-opacity:1;fill-rule:nonzero"
           transform="matrix(1,0,0,-1,0,1)"
           height="1"
           width="1"
           y="0"
           x="0" /></g><g
         transform="scale(10,10)"
         id="g74"><text
           id="text76"
           style="font-variant:normal;font-weight:normal;font-size:10.90909958px;font-family:CMMI10;-inkscape-font-specification:CMMI10;writing-mode:lr-tb;fill:#000000;fill-opacity:1;fill-rule:nonzero;stroke:none"
           transform="matrix(1,0,0,-1,6.36016,21.7199)"><tspan
             id="tspan78"
             y="0"
             x="0">O</tspan></text>
</g><g
         transform="matrix(159.6,0,0,-134.4,1520.78,321.48)"
         id="g80"><rect
           id="rect82"
           style="fill:#ffffff;fill-opacity:1;fill-rule:nonzero"
           transform="matrix(1,0,0,-1,0,1)"
           height="1"
           width="1"
           y="0"
           x="0" /></g><g
         transform="scale(10,10)"
         id="g84"><text
           id="text86"
           style="font-variant:normal;font-weight:normal;font-size:10.90909958px;font-family:CMMI10;-inkscape-font-specification:CMMI10;writing-mode:lr-tb;fill:#000000;fill-opacity:1;fill-rule:nonzero;stroke:none"
           transform="matrix(1,0,0,-1,155.09,21.7199)"><tspan
             id="tspan88"
             y="0"
             x="0">X</tspan></text>
</g><g
         transform="matrix(147.6,0,0,-134.4,32.2799,1808.78)"
         id="g90"><rect
           id="rect92"
           style="fill:#ffffff;fill-opacity:1;fill-rule:nonzero"
           transform="matrix(1,0,0,-1,0,1)"
           height="1"
           width="1"
           y="0"
           x="0" /></g><g
         transform="scale(10,10)"
         id="g94"><text
           id="text96"
           style="font-variant:normal;font-weight:normal;font-size:10.90909958px;font-family:CMMI10;-inkscape-font-specification:CMMI10;writing-mode:lr-tb;fill:#000000;fill-opacity:1;fill-rule:nonzero;stroke:none"
           transform="matrix(1,0,0,-1,6.23984,170.45)"><tspan
             id="tspan98"
             y="0"
             x="0">Y</tspan></text>
</g><path
         id="path100"
         style="fill:none;stroke:#000000;stroke-width:11.95530033;stroke-linecap:butt;stroke-linejoin:miter;stroke-miterlimit:10;stroke-dasharray:none;stroke-opacity:1"
         d="m 36,321.602 1584.02,0" /><path
         id="path102"
         style="fill:none;stroke:#000000;stroke-width:11.95530033;stroke-linecap:butt;stroke-linejoin:miter;stroke-miterlimit:10;stroke-dasharray:none;stroke-opacity:1"
         d="m 180,177.602 0,1584.018" /><g
         transform="scale(10,10)"
         id="g104"><text
           id="text106"
           style="font-variant:normal;font-weight:normal;font-size:11.9552002px;font-family:CMCSC10;-inkscape-font-specification:CMCSC10;writing-mode:lr-tb;fill:#000000;fill-opacity:1;fill-rule:nonzero;stroke:none"
           transform="matrix(1,0,0,-1,67.441,0.0890625)"><tspan
             id="tspan108"
             y="0"
             x="0 8.5141897 12.111581 19.790342 28.065218 34.667988 41.270767">Fig.19.</tspan></text>
</g></g></g></svg>