<?xml version="1.0" encoding="UTF-8" standalone="no"?>
<svg
   xmlns:dc="http://purl.org/dc/elements/1.1/"
   xmlns:cc="http://creativecommons.org/ns#"
   xmlns:rdf="http://www.w3.org/1999/02/22-rdf-syntax-ns#"
   xmlns:svg="http://www.w3.org/2000/svg"
   xmlns="http://www.w3.org/2000/svg"
   viewBox="0 0 256.25 226.25"
   height="226.25"
   width="256.25"
   xml:space="preserve"
   version="1.1"
   id="svg2"><metadata
     id="metadata8"><rdf:RDF><cc:Work
         rdf:about=""><dc:format>image/svg+xml</dc:format><dc:type
           rdf:resource="http://purl.org/dc/dcmitype/StillImage" /></cc:Work></rdf:RDF></metadata><defs
     id="defs6"><clipPath
       id="clipPath12"
       clipPathUnits="userSpaceOnUse"><path
         id="path14"
         d="m -2,-2 205,0 0,181 -205,0 0,-181 z" /></clipPath></defs><g
     clip-path="url(#clipPath12)"
     transform="matrix(1.25,0,0,-1.25,2.5,223.75)"
     id="g10"><g
       transform="scale(0.1,0.1)"
       id="g16"><path
         id="path18"
         style="fill:none;stroke:#000000;stroke-width:7.97009993;stroke-linecap:butt;stroke-linejoin:miter;stroke-miterlimit:10;stroke-dasharray:none;stroke-opacity:1"
         d="m 1260.02,321.602 0,27.003" /><path
         id="path20"
         style="fill:none;stroke:#000000;stroke-width:7.97009993;stroke-linecap:butt;stroke-linejoin:miter;stroke-miterlimit:10;stroke-dasharray:none;stroke-opacity:1"
         d="m 1260.02,402.602 0,26.996" /><path
         id="path22"
         style="fill:none;stroke:#000000;stroke-width:7.97009993;stroke-linecap:butt;stroke-linejoin:miter;stroke-miterlimit:10;stroke-dasharray:none;stroke-opacity:1"
         d="m 1260.02,429.598 0,27.004" /><path
         id="path24"
         style="fill:none;stroke:#000000;stroke-width:7.97009993;stroke-linecap:butt;stroke-linejoin:miter;stroke-miterlimit:10;stroke-dasharray:none;stroke-opacity:1"
         d="m 1260.02,510.602 0,27.003" /><path
         id="path26"
         style="fill:none;stroke:#000000;stroke-width:7.97009993;stroke-linecap:butt;stroke-linejoin:miter;stroke-miterlimit:10;stroke-dasharray:none;stroke-opacity:1"
         d="m 1260.02,537.605 0,26.993" /><path
         id="path28"
         style="fill:none;stroke:#000000;stroke-width:7.97009993;stroke-linecap:butt;stroke-linejoin:miter;stroke-miterlimit:10;stroke-dasharray:none;stroke-opacity:1"
         d="m 1260.02,618.609 0,26.993" /><path
         id="path30"
         style="fill:none;stroke:#000000;stroke-width:7.97009993;stroke-linecap:butt;stroke-linejoin:miter;stroke-miterlimit:10;stroke-dasharray:none;stroke-opacity:1"
         d="m 1260.02,645.602 0,27.003" /><path
         id="path32"
         style="fill:none;stroke:#000000;stroke-width:7.97009993;stroke-linecap:butt;stroke-linejoin:miter;stroke-miterlimit:10;stroke-dasharray:none;stroke-opacity:1"
         d="m 1260.02,726.605 0,27.004" /><path
         id="path34"
         style="fill:none;stroke:#000000;stroke-width:7.97009993;stroke-linecap:butt;stroke-linejoin:miter;stroke-miterlimit:10;stroke-dasharray:none;stroke-opacity:1"
         d="m 1260.02,753.609 0,26.996" /><path
         id="path36"
         style="fill:none;stroke:#000000;stroke-width:7.97009993;stroke-linecap:butt;stroke-linejoin:miter;stroke-miterlimit:10;stroke-dasharray:none;stroke-opacity:1"
         d="m 1260.02,834.602 0,27.003" /><path
         id="path38"
         style="fill:none;stroke:#000000;stroke-width:7.97009993;stroke-linecap:butt;stroke-linejoin:miter;stroke-miterlimit:10;stroke-dasharray:none;stroke-opacity:1"
         d="m 1260.02,861.605 0,27.008" /><path
         id="path40"
         style="fill:none;stroke:#000000;stroke-width:7.97009993;stroke-linecap:butt;stroke-linejoin:miter;stroke-miterlimit:10;stroke-dasharray:none;stroke-opacity:1"
         d="m 1260.02,942.609 0,26.996" /><path
         id="path42"
         style="fill:none;stroke:#000000;stroke-width:7.97009993;stroke-linecap:butt;stroke-linejoin:miter;stroke-miterlimit:10;stroke-dasharray:none;stroke-opacity:1"
         d="m 1260.02,969.605 0,27.004" /><path
         id="path44"
         style="fill:none;stroke:#000000;stroke-width:7.97009993;stroke-linecap:butt;stroke-linejoin:miter;stroke-miterlimit:10;stroke-dasharray:none;stroke-opacity:1"
         d="m 1260.02,1050.61 0,27" /><path
         id="path46"
         style="fill:none;stroke:#000000;stroke-width:7.97009993;stroke-linecap:butt;stroke-linejoin:miter;stroke-miterlimit:10;stroke-dasharray:none;stroke-opacity:1"
         d="m 1260.02,1077.61 0,27" /><path
         id="path48"
         style="fill:none;stroke:#000000;stroke-width:7.97009993;stroke-linecap:butt;stroke-linejoin:miter;stroke-miterlimit:10;stroke-dasharray:none;stroke-opacity:1"
         d="m 1260.02,1158.61 0,27" /><path
         id="path50"
         style="fill:none;stroke:#000000;stroke-width:7.97009993;stroke-linecap:butt;stroke-linejoin:miter;stroke-miterlimit:10;stroke-dasharray:none;stroke-opacity:1"
         d="m 1260.02,1185.61 0,27" /><path
         id="path52"
         style="fill:none;stroke:#000000;stroke-width:7.97009993;stroke-linecap:butt;stroke-linejoin:miter;stroke-miterlimit:10;stroke-dasharray:none;stroke-opacity:1"
         d="m 1260.02,1266.61 0,27.01" /><path
         id="path54"
         style="fill:none;stroke:#000000;stroke-width:7.97009993;stroke-linecap:butt;stroke-linejoin:miter;stroke-miterlimit:10;stroke-dasharray:none;stroke-opacity:1"
         d="m 1260.02,1293.62 0,26.99" /><path
         id="path56"
         style="fill:none;stroke:#000000;stroke-width:7.97009993;stroke-linecap:butt;stroke-linejoin:miter;stroke-miterlimit:10;stroke-dasharray:none;stroke-opacity:1"
         d="m 1260.02,1374.61 0,27" /><path
         id="path58"
         style="fill:none;stroke:#000000;stroke-width:7.97009993;stroke-linecap:butt;stroke-linejoin:miter;stroke-miterlimit:10;stroke-dasharray:none;stroke-opacity:1"
         d="m 1260.02,951.609 -27.01,0" /><path
         id="path60"
         style="fill:none;stroke:#000000;stroke-width:7.97009993;stroke-linecap:butt;stroke-linejoin:miter;stroke-miterlimit:10;stroke-dasharray:none;stroke-opacity:1"
         d="m 1179.01,951.609 -26.99,0" /><path
         id="path62"
         style="fill:none;stroke:#000000;stroke-width:7.97009993;stroke-linecap:butt;stroke-linejoin:miter;stroke-miterlimit:10;stroke-dasharray:none;stroke-opacity:1"
         d="m 1152.02,951.609 -27.01,0" /><path
         id="path64"
         style="fill:none;stroke:#000000;stroke-width:7.97009993;stroke-linecap:butt;stroke-linejoin:miter;stroke-miterlimit:10;stroke-dasharray:none;stroke-opacity:1"
         d="m 1071.01,951.609 -27,0" /><path
         id="path66"
         style="fill:none;stroke:#000000;stroke-width:7.97009993;stroke-linecap:butt;stroke-linejoin:miter;stroke-miterlimit:10;stroke-dasharray:none;stroke-opacity:1"
         d="m 1044.01,951.609 -26.99,0" /><path
         id="path68"
         style="fill:none;stroke:#000000;stroke-width:7.97009993;stroke-linecap:butt;stroke-linejoin:miter;stroke-miterlimit:10;stroke-dasharray:none;stroke-opacity:1"
         d="m 963.004,951.609 -26.992,0" /><path
         id="path70"
         style="fill:none;stroke:#000000;stroke-width:7.97009993;stroke-linecap:butt;stroke-linejoin:miter;stroke-miterlimit:10;stroke-dasharray:none;stroke-opacity:1"
         d="m 936.012,951.609 -27.004,0" /><path
         id="path72"
         style="fill:none;stroke:#000000;stroke-width:7.97009993;stroke-linecap:butt;stroke-linejoin:miter;stroke-miterlimit:10;stroke-dasharray:none;stroke-opacity:1"
         d="m 855.008,951.609 -27.004,0" /><path
         id="path74"
         style="fill:none;stroke:#000000;stroke-width:7.97009993;stroke-linecap:butt;stroke-linejoin:miter;stroke-miterlimit:10;stroke-dasharray:none;stroke-opacity:1"
         d="m 828.004,951.609 -26.992,0" /><path
         id="path76"
         style="fill:none;stroke:#000000;stroke-width:7.97009993;stroke-linecap:butt;stroke-linejoin:miter;stroke-miterlimit:10;stroke-dasharray:none;stroke-opacity:1"
         d="m 747.012,951.609 -27.004,0" /><path
         id="path78"
         style="fill:none;stroke:#000000;stroke-width:7.97009993;stroke-linecap:butt;stroke-linejoin:miter;stroke-miterlimit:10;stroke-dasharray:none;stroke-opacity:1"
         d="m 720.008,951.609 -27.008,0" /><path
         id="path80"
         style="fill:none;stroke:#000000;stroke-width:7.97009993;stroke-linecap:butt;stroke-linejoin:miter;stroke-miterlimit:10;stroke-dasharray:none;stroke-opacity:1"
         d="m 639.004,951.609 -26.996,0" /><path
         id="path82"
         style="fill:none;stroke:#000000;stroke-width:7.97009993;stroke-linecap:butt;stroke-linejoin:miter;stroke-miterlimit:10;stroke-dasharray:none;stroke-opacity:1"
         d="m 612.008,951.609 -27.004,0" /><path
         id="path84"
         style="fill:none;stroke:#000000;stroke-width:7.97009993;stroke-linecap:butt;stroke-linejoin:miter;stroke-miterlimit:10;stroke-dasharray:none;stroke-opacity:1"
         d="m 531.008,951.609 -27.008,0" /><path
         id="path86"
         style="fill:none;stroke:#000000;stroke-width:7.97009993;stroke-linecap:butt;stroke-linejoin:miter;stroke-miterlimit:10;stroke-dasharray:none;stroke-opacity:1"
         d="m 504,951.609 -26.992,0" /><path
         id="path88"
         style="fill:none;stroke:#000000;stroke-width:7.97009993;stroke-linecap:butt;stroke-linejoin:miter;stroke-miterlimit:10;stroke-dasharray:none;stroke-opacity:1"
         d="m 423,951.609 -26.996,0" /><path
         id="path90"
         style="fill:none;stroke:#000000;stroke-width:7.97009993;stroke-linecap:butt;stroke-linejoin:miter;stroke-miterlimit:10;stroke-dasharray:none;stroke-opacity:1"
         d="m 396.004,951.609 -27.004,0" /><path
         id="path92"
         style="fill:none;stroke:#000000;stroke-width:7.97009993;stroke-linecap:butt;stroke-linejoin:miter;stroke-miterlimit:10;stroke-dasharray:none;stroke-opacity:1"
         d="m 315,951.609 -27.004,0" /><path
         id="path94"
         style="fill:none;stroke:#000000;stroke-width:7.97009993;stroke-linecap:butt;stroke-linejoin:miter;stroke-miterlimit:10;stroke-dasharray:none;stroke-opacity:1"
         d="m 287.996,951.609 -26.992,0" /><path
         id="path96"
         style="fill:none;stroke:#000000;stroke-width:7.97009993;stroke-linecap:butt;stroke-linejoin:miter;stroke-miterlimit:10;stroke-dasharray:none;stroke-opacity:1"
         d="m 207.004,951.609 -27.004,0" /><path
         id="path98"
         style="fill:none;stroke:#000000;stroke-width:7.97009993;stroke-linecap:butt;stroke-linejoin:miter;stroke-miterlimit:10;stroke-dasharray:none;stroke-opacity:1"
         d="m 1675.76,1123.82 0,-25.07" /><path
         id="path100"
         style="fill:none;stroke:#000000;stroke-width:7.97009993;stroke-linecap:butt;stroke-linejoin:miter;stroke-miterlimit:10;stroke-dasharray:none;stroke-opacity:1"
         d="m 1675.76,1048.61 0,-25.07" /><path
         id="path102"
         style="fill:none;stroke:#000000;stroke-width:7.97009993;stroke-linecap:butt;stroke-linejoin:miter;stroke-miterlimit:10;stroke-dasharray:none;stroke-opacity:1"
         d="m 1675.76,1023.54 0,-25.063" /><path
         id="path104"
         style="fill:none;stroke:#000000;stroke-width:7.97009993;stroke-linecap:butt;stroke-linejoin:miter;stroke-miterlimit:10;stroke-dasharray:none;stroke-opacity:1"
         d="m 1675.76,948.336 0,-25.074" /><path
         id="path106"
         style="fill:none;stroke:#000000;stroke-width:7.97009993;stroke-linecap:butt;stroke-linejoin:miter;stroke-miterlimit:10;stroke-dasharray:none;stroke-opacity:1"
         d="m 1675.76,923.262 0,-25.071" /><path
         id="path108"
         style="fill:none;stroke:#000000;stroke-width:7.97009993;stroke-linecap:butt;stroke-linejoin:miter;stroke-miterlimit:10;stroke-dasharray:none;stroke-opacity:1"
         d="m 1675.76,848.062 0,-25.074" /><path
         id="path110"
         style="fill:none;stroke:#000000;stroke-width:7.97009993;stroke-linecap:butt;stroke-linejoin:miter;stroke-miterlimit:10;stroke-dasharray:none;stroke-opacity:1"
         d="m 1675.76,822.988 0,-25.07" /><path
         id="path112"
         style="fill:none;stroke:#000000;stroke-width:7.97009993;stroke-linecap:butt;stroke-linejoin:miter;stroke-miterlimit:10;stroke-dasharray:none;stroke-opacity:1"
         d="m 1675.76,747.777 0,-25.074" /><path
         id="path114"
         style="fill:none;stroke:#000000;stroke-width:7.97009993;stroke-linecap:butt;stroke-linejoin:miter;stroke-miterlimit:10;stroke-dasharray:none;stroke-opacity:1"
         d="m 1675.76,722.703 0,-25.058" /><path
         id="path116"
         style="fill:none;stroke:#000000;stroke-width:7.97009993;stroke-linecap:butt;stroke-linejoin:miter;stroke-miterlimit:10;stroke-dasharray:none;stroke-opacity:1"
         d="m 1675.76,647.504 0,-25.074" /><path
         id="path118"
         style="fill:none;stroke:#000000;stroke-width:7.97009993;stroke-linecap:butt;stroke-linejoin:miter;stroke-miterlimit:10;stroke-dasharray:none;stroke-opacity:1"
         d="m 1675.76,622.43 0,-25.071" /><path
         id="path120"
         style="fill:none;stroke:#000000;stroke-width:7.97009993;stroke-linecap:butt;stroke-linejoin:miter;stroke-miterlimit:10;stroke-dasharray:none;stroke-opacity:1"
         d="m 1675.76,547.219 0,-25.063" /><path
         id="path122"
         style="fill:none;stroke:#000000;stroke-width:7.97009993;stroke-linecap:butt;stroke-linejoin:miter;stroke-miterlimit:10;stroke-dasharray:none;stroke-opacity:1"
         d="m 1675.76,522.156 0,-25.07" /><path
         id="path124"
         style="fill:none;stroke:#000000;stroke-width:7.97009993;stroke-linecap:butt;stroke-linejoin:miter;stroke-miterlimit:10;stroke-dasharray:none;stroke-opacity:1"
         d="m 1675.76,446.945 0,-25.07" /><path
         id="path126"
         style="fill:none;stroke:#000000;stroke-width:7.97009993;stroke-linecap:butt;stroke-linejoin:miter;stroke-miterlimit:10;stroke-dasharray:none;stroke-opacity:1"
         d="m 1675.76,421.875 0,-25.074" /><path
         id="path128"
         style="fill:none;stroke:#000000;stroke-width:7.97009993;stroke-linecap:butt;stroke-linejoin:miter;stroke-miterlimit:10;stroke-dasharray:none;stroke-opacity:1"
         d="m 1675.76,346.672 0,-25.07" /><path
         id="path130"
         style="fill:none;stroke:#000000;stroke-width:7.97009993;stroke-linecap:butt;stroke-linejoin:miter;stroke-miterlimit:10;stroke-dasharray:none;stroke-opacity:1"
         d="m 1675.76,1123.82 -26.71,0" /><path
         id="path132"
         style="fill:none;stroke:#000000;stroke-width:7.97009993;stroke-linecap:butt;stroke-linejoin:miter;stroke-miterlimit:10;stroke-dasharray:none;stroke-opacity:1"
         d="m 1595.63,1123.82 -26.7,0" /><path
         id="path134"
         style="fill:none;stroke:#000000;stroke-width:7.97009993;stroke-linecap:butt;stroke-linejoin:miter;stroke-miterlimit:10;stroke-dasharray:none;stroke-opacity:1"
         d="m 1568.93,1123.82 -26.72,0" /><path
         id="path136"
         style="fill:none;stroke:#000000;stroke-width:7.97009993;stroke-linecap:butt;stroke-linejoin:miter;stroke-miterlimit:10;stroke-dasharray:none;stroke-opacity:1"
         d="m 1488.8,1123.82 -26.71,0" /><path
         id="path138"
         style="fill:none;stroke:#000000;stroke-width:7.97009993;stroke-linecap:butt;stroke-linejoin:miter;stroke-miterlimit:10;stroke-dasharray:none;stroke-opacity:1"
         d="m 1462.09,1123.82 -26.72,0" /><path
         id="path140"
         style="fill:none;stroke:#000000;stroke-width:7.97009993;stroke-linecap:butt;stroke-linejoin:miter;stroke-miterlimit:10;stroke-dasharray:none;stroke-opacity:1"
         d="m 1381.95,1123.82 -26.7,0" /><path
         id="path142"
         style="fill:none;stroke:#000000;stroke-width:7.97009993;stroke-linecap:butt;stroke-linejoin:miter;stroke-miterlimit:10;stroke-dasharray:none;stroke-opacity:1"
         d="m 1355.25,1123.82 -26.71,0" /><path
         id="path144"
         style="fill:none;stroke:#000000;stroke-width:7.97009993;stroke-linecap:butt;stroke-linejoin:miter;stroke-miterlimit:10;stroke-dasharray:none;stroke-opacity:1"
         d="m 1275.11,1123.82 -26.71,0" /><path
         id="path146"
         style="fill:none;stroke:#000000;stroke-width:7.97009993;stroke-linecap:butt;stroke-linejoin:miter;stroke-miterlimit:10;stroke-dasharray:none;stroke-opacity:1"
         d="m 1248.4,1123.82 -26.71,0" /><path
         id="path148"
         style="fill:none;stroke:#000000;stroke-width:7.97009993;stroke-linecap:butt;stroke-linejoin:miter;stroke-miterlimit:10;stroke-dasharray:none;stroke-opacity:1"
         d="m 1168.27,1123.82 -26.7,0" /><path
         id="path150"
         style="fill:none;stroke:#000000;stroke-width:7.97009993;stroke-linecap:butt;stroke-linejoin:miter;stroke-miterlimit:10;stroke-dasharray:none;stroke-opacity:1"
         d="m 1141.57,1123.82 -26.72,0" /><path
         id="path152"
         style="fill:none;stroke:#000000;stroke-width:7.97009993;stroke-linecap:butt;stroke-linejoin:miter;stroke-miterlimit:10;stroke-dasharray:none;stroke-opacity:1"
         d="m 1061.43,1123.82 -26.7,0" /><path
         id="path154"
         style="fill:none;stroke:#000000;stroke-width:7.97009993;stroke-linecap:butt;stroke-linejoin:miter;stroke-miterlimit:10;stroke-dasharray:none;stroke-opacity:1"
         d="m 1034.73,1123.82 -26.72,0" /><path
         id="path156"
         style="fill:none;stroke:#000000;stroke-width:7.97009993;stroke-linecap:butt;stroke-linejoin:miter;stroke-miterlimit:10;stroke-dasharray:none;stroke-opacity:1"
         d="m 954.59,1123.82 -26.707,0" /><path
         id="path158"
         style="fill:none;stroke:#000000;stroke-width:7.97009993;stroke-linecap:butt;stroke-linejoin:miter;stroke-miterlimit:10;stroke-dasharray:none;stroke-opacity:1"
         d="m 927.883,1123.82 -26.711,0" /><path
         id="path160"
         style="fill:none;stroke:#000000;stroke-width:7.97009993;stroke-linecap:butt;stroke-linejoin:miter;stroke-miterlimit:10;stroke-dasharray:none;stroke-opacity:1"
         d="m 847.758,1123.82 -26.719,0" /><path
         id="path162"
         style="fill:none;stroke:#000000;stroke-width:7.97009993;stroke-linecap:butt;stroke-linejoin:miter;stroke-miterlimit:10;stroke-dasharray:none;stroke-opacity:1"
         d="m 821.039,1123.82 -26.707,0" /><path
         id="path164"
         style="fill:none;stroke:#000000;stroke-width:7.97009993;stroke-linecap:butt;stroke-linejoin:miter;stroke-miterlimit:10;stroke-dasharray:none;stroke-opacity:1"
         d="m 740.914,1123.82 -26.707,0" /><path
         id="path166"
         style="fill:none;stroke:#000000;stroke-width:7.97009993;stroke-linecap:butt;stroke-linejoin:miter;stroke-miterlimit:10;stroke-dasharray:none;stroke-opacity:1"
         d="m 714.207,1123.82 -26.719,0" /><path
         id="path168"
         style="fill:none;stroke:#000000;stroke-width:7.97009993;stroke-linecap:butt;stroke-linejoin:miter;stroke-miterlimit:10;stroke-dasharray:none;stroke-opacity:1"
         d="m 634.07,1123.82 -26.707,0" /><path
         id="path170"
         style="fill:none;stroke:#000000;stroke-width:7.97009993;stroke-linecap:butt;stroke-linejoin:miter;stroke-miterlimit:10;stroke-dasharray:none;stroke-opacity:1"
         d="m 607.363,1123.82 -26.711,0" /><path
         id="path172"
         style="fill:none;stroke:#000000;stroke-width:7.97009993;stroke-linecap:butt;stroke-linejoin:miter;stroke-miterlimit:10;stroke-dasharray:none;stroke-opacity:1"
         d="m 527.227,1123.82 -26.707,0" /><path
         id="path174"
         style="fill:none;stroke:#000000;stroke-width:7.97009993;stroke-linecap:butt;stroke-linejoin:miter;stroke-miterlimit:10;stroke-dasharray:none;stroke-opacity:1"
         d="m 500.52,1123.82 -26.708,0" /><path
         id="path176"
         style="fill:none;stroke:#000000;stroke-width:7.97009993;stroke-linecap:butt;stroke-linejoin:miter;stroke-miterlimit:10;stroke-dasharray:none;stroke-opacity:1"
         d="m 420.395,1123.82 -26.719,0" /><path
         id="path178"
         style="fill:none;stroke:#000000;stroke-width:7.97009993;stroke-linecap:butt;stroke-linejoin:miter;stroke-miterlimit:10;stroke-dasharray:none;stroke-opacity:1"
         d="m 393.676,1123.82 -26.707,0" /><path
         id="path180"
         style="fill:none;stroke:#000000;stroke-width:7.97009993;stroke-linecap:butt;stroke-linejoin:miter;stroke-miterlimit:10;stroke-dasharray:none;stroke-opacity:1"
         d="m 313.551,1123.82 -26.707,0" /><path
         id="path182"
         style="fill:none;stroke:#000000;stroke-width:7.97009993;stroke-linecap:butt;stroke-linejoin:miter;stroke-miterlimit:10;stroke-dasharray:none;stroke-opacity:1"
         d="m 286.844,1123.82 -26.707,0" /><path
         id="path184"
         style="fill:none;stroke:#000000;stroke-width:7.97009993;stroke-linecap:butt;stroke-linejoin:miter;stroke-miterlimit:10;stroke-dasharray:none;stroke-opacity:1"
         d="m 206.707,1123.82 -26.707,0" /><g
         transform="matrix(106.8,0,0,-135.6,-32.3226,703.684)"
         id="g186"><rect
           id="rect188"
           style="fill:#ffffff;fill-opacity:1;fill-rule:nonzero"
           transform="matrix(1,0,0,-1,0,1)"
           height="1"
           width="1"
           y="0"
           x="0" /></g><g
         transform="scale(10,10)"
         id="g190"><text
           id="text192"
           style="font-variant:normal;font-weight:normal;font-size:10.90909958px;font-family:CMMI10;-inkscape-font-specification:CMMI10;writing-mode:lr-tb;fill:#000000;fill-opacity:1;fill-rule:nonzero;stroke:none"
           transform="matrix(1,0,0,-1,-0.340234,59.8203)"><tspan
             id="tspan194"
             y="0"
             x="0">b</tspan></text>
</g><path
         id="path196"
         style="fill:#000000;fill-opacity:1;fill-rule:nonzero;stroke:none"
         d="m 160.07,931.68 -2.437,-1.024 -2.363,-1.066 -2.262,-1.121 -2.188,-1.164 -2.086,-1.219 -2.011,-1.25 -1.934,-1.309 -1.855,-1.351 -1.77,-1.406 -1.691,-1.442 -1.629,-1.48 -1.535,-1.528 -1.473,-1.57 -1.406,-1.617 -1.34,-1.649 -1.266,-1.691 -1.195,-1.734 -1.133,-1.77 -1.078,-1.812 -1.012,-1.848 -0.953,-1.887 -0.902,-1.926 -0.836,-1.953 -0.777,-1.988 -0.739,-2.035 -0.679,-2.055 -0.625,-2.097 -0.583,-2.122 -0.531,-2.164 -0.492,-2.183 -0.441,-2.219 -0.407,-2.254 -0.359,-2.285 -0.332,-2.309 -0.285,-2.34 -0.254,-2.359 -0.219,-2.398 -0.176,-2.414 -0.152,-2.453 -0.133,-2.461 -0.097,-2.493 -0.067,-2.527 -0.043,-2.539 -0.023,-2.559 -0.012,-2.582 0.023,-2.613 0.032,-2.625 0.054,-2.648 0.067,-2.661 0.078,-2.691 0.098,-2.703 0.097,-2.711 0.114,-2.738 0.117,-2.758 0.121,-2.77 0.133,-2.777 0.121,-2.801 0.133,-2.804 0.132,-2.821 0.121,-2.836 0.118,-2.855 0.121,-2.856 0.113,-2.871 0.098,-2.875 0.086,-2.89 0.078,-2.891 0.066,-2.91 0.055,-2.91 0.023,-2.914 0.02,-2.922 -0.012,-2.934 -0.031,-2.933 -0.043,-2.934 -0.078,-2.945 -0.11,-2.942 -0.132,-2.945 -0.153,-2.945 -0.199,-2.946 -0.219,-2.941 -0.265,-2.957 -0.286,-2.945 -0.339,-2.942 -0.375,-2.945 -0.407,-2.934 -0.461,-2.933 -0.492,-2.934 -0.539,-2.922 -0.594,-2.922 -0.648,-2.914 -0.68,-2.91 -0.75,-2.898 -0.789,-2.891 -0.855,-2.879 -0.903,-2.879 -0.968,-2.855 -1.032,-2.856 -1.086,-2.847 -1.144,-2.825 -1.219,-2.824 -1.273,-2.801 -1.352,-2.789 -1.4178,-2.769 -1.496,-2.758 -1.5586,-2.746 -1.6368,-2.723 -1.7148,-2.715 -1.7891,-2.691 -1.8671,-2.672 -1.9454,-2.656 -2.0312,-2.637 -2.1094,-2.617 -2.1992,-2.59 -2.2852,-2.574 -2.3828,-2.559 -2.4609,-2.527 -2.5625,-2.504 -2.6445,-2.473 -2.75,-2.46 -2.8321,-2.426 -2.9453,-2.407 2.9453,-2.406 2.8321,-2.429 2.75,-2.461 2.6445,-2.473 2.5625,-2.504 2.4609,-2.527 2.3828,-2.559 2.2852,-2.57 2.1992,-2.594 2.1094,-2.613 2.0312,-2.637 1.9454,-2.66 1.8671,-2.672 1.7891,-2.691 1.7148,-2.711 1.6368,-2.727 1.5586,-2.746 1.496,-2.758 1.4178,-2.769 1.352,-2.789 1.273,-2.801 1.219,-2.824 1.144,-2.825 1.086,-2.843 1.032,-2.86 0.968,-2.855 0.903,-2.879 0.855,-2.879 0.789,-2.887 0.75,-2.902 0.68,-2.91 0.648,-2.91 0.594,-2.926 0.539,-2.922 0.492,-2.934 0.461,-2.933 0.407,-2.934 0.375,-2.941 0.339,-2.946 0.286,-2.945 0.265,-2.953 0.219,-2.945 0.199,-2.946 0.153,-2.945 0.132,-2.941 0.11,-2.946 0.078,-2.945 0.043,-2.934 0.031,-2.933 0.012,-2.934 -0.02,-2.922 -0.023,-2.91 -0.055,-2.914 -0.066,-2.91 -0.078,-2.891 -0.086,-2.886 -0.098,-2.879 -0.113,-2.867 -0.121,-2.86 -0.118,-2.855 -0.121,-2.832 -0.132,-2.825 -0.133,-2.8 -0.121,-2.805 -0.133,-2.777 -0.121,-2.77 -0.117,-2.758 -0.114,-2.734 -0.097,-2.715 -0.098,-2.703 -0.078,-2.691 -0.067,-2.661 -0.054,-2.644 -0.032,-2.629 -0.023,-2.613 0.012,-2.582 0.023,-2.559 0.043,-2.539 0.067,-2.527 0.097,-2.493 0.133,-2.46 0.152,-2.45 0.176,-2.418 0.219,-2.394 0.254,-2.363 0.285,-2.34 0.332,-2.309 0.359,-2.285 0.407,-2.25 0.441,-2.219 0.492,-2.187 0.531,-2.164 0.583,-2.121 0.625,-2.098 0.679,-2.055 0.739,-2.031 0.777,-1.992 0.836,-1.953 0.902,-1.922 0.953,-1.891 1.012,-1.848 1.078,-1.812 1.133,-1.766 1.195,-1.738 1.266,-1.691 1.34,-1.649 1.406,-1.613 1.473,-1.574 1.535,-1.524 1.629,-1.484 1.691,-1.441 1.77,-1.407 1.855,-1.351 1.934,-1.305 2.011,-1.254 2.086,-1.219 2.188,-1.164 2.262,-1.121 2.363,-1.066 2.437,-1.02 -3.418,1.504 -3.304,1.547 -3.188,1.574 -3.055,1.614 -2.953,1.636 -2.824,1.672 -2.726,1.703 -2.602,1.723 -2.504,1.769 -2.398,1.789 -2.286,1.825 -2.183,1.847 -2.09,1.879 -1.988,1.899 -1.891,1.933 -1.789,1.957 -1.703,1.989 -1.613,2.011 -1.528,2.032 -1.429,2.066 -1.352,2.086 -1.273,2.109 -1.188,2.133 -1.109,2.164 -1.031,2.176 -0.957,2.207 -0.879,2.219 -0.813,2.254 -0.746,2.261 -0.684,2.286 -0.601,2.32 -0.551,2.328 -0.496,2.34 -0.426,2.371 -0.375,2.387 -0.3201,2.406 -0.2617,2.426 -0.2071,2.441 -0.1679,2.449 -0.1211,2.481 -0.0625,2.484 -0.0352,2.504 0.0117,2.527 0.0547,2.528 0.086,2.551 0.121,2.57 0.168,2.57 0.1836,2.594 0.2227,2.601 0.2419,2.618 0.262,2.625 0.297,2.636 0.32,2.649 0.328,2.656 0.352,2.672 0.363,2.68 0.383,2.691 0.394,2.691 0.399,2.715 0.406,2.715 0.418,2.711 0.418,2.738 0.414,2.723 0.418,2.746 0.418,2.746 0.406,2.746 0.407,2.758 0.398,2.77 0.383,2.757 0.375,2.77 0.351,2.777 0.34,2.77 0.328,2.781 0.297,2.777 0.285,2.782 0.254,2.781 0.231,2.777 0.199,2.781 0.176,2.79 0.14,2.781 0.098,2.777 0.066,2.781 0.036,2.766 -0.012,2.781 -0.055,2.77 -0.097,2.769 -0.145,2.766 -0.187,2.758 -0.243,2.758 -0.297,2.746 -0.351,2.746 -0.395,2.738 -0.461,2.734 -0.527,2.727 -0.582,2.711 -0.648,2.715 -0.715,2.703 -0.789,2.703 -0.848,2.68 -0.922,2.679 -1,2.661 -1.078,2.66 -1.1523,2.644 -1.2305,2.637 -1.3203,2.629 -1.3945,2.601 -1.4922,2.606 -1.5703,2.582 -1.6601,2.582 -1.7579,2.559 -1.8476,2.539 -1.9414,2.535 -2.0469,2.515 -2.1406,2.508 -2.2422,2.481 -2.3516,2.472 -2.4492,2.45 -2.5586,2.429 -2.6719,2.426 -2.789,2.398 2.789,2.395 2.6719,2.426 2.5586,2.429 2.4492,2.45 2.3516,2.472 2.2422,2.485 2.1406,2.504 2.0469,2.515 1.9414,2.539 1.8476,2.535 1.7579,2.563 1.6601,2.582 1.5703,2.578 1.4922,2.606 1.3945,2.605 1.3203,2.625 1.2305,2.637 1.1523,2.648 1.078,2.656 1,2.661 0.922,2.679 0.848,2.68 0.789,2.703 0.715,2.703 0.648,2.715 0.582,2.715 0.527,2.723 0.461,2.734 0.395,2.738 0.351,2.746 0.297,2.746 0.243,2.758 0.187,2.758 0.145,2.77 0.097,2.765 0.055,2.77 0.012,2.781 -0.036,2.77 -0.066,2.777 -0.098,2.781 -0.14,2.777 -0.176,2.793 -0.199,2.778 -0.231,2.781 -0.254,2.777 -0.285,2.782 -0.297,2.781 -0.328,2.777 -0.34,2.77 -0.351,2.777 -0.375,2.77 -0.383,2.757 -0.398,2.77 -0.407,2.758 -0.406,2.746 -0.418,2.746 -0.418,2.746 -0.414,2.727 -0.418,2.734 -0.418,2.715 -0.406,2.711 -0.399,2.715 -0.394,2.691 -0.383,2.691 -0.363,2.684 -0.352,2.668 -0.328,2.66 -0.32,2.645 -0.297,2.636 -0.262,2.629 -0.2419,2.614 -0.2227,2.605 -0.1836,2.59 -0.168,2.57 -0.121,2.574 -0.086,2.547 -0.0547,2.528 -0.0117,2.527 0.0352,2.504 0.0625,2.484 0.1211,2.481 0.1679,2.453 0.2071,2.437 0.2617,2.43 0.3201,2.406 0.375,2.383 0.426,2.371 0.496,2.34 0.551,2.332 0.601,2.316 0.684,2.286 0.746,2.261 0.813,2.254 0.879,2.219 0.957,2.207 1.031,2.188 1.109,2.152 1.188,2.133 1.273,2.109 1.352,2.086 1.429,2.066 1.528,2.036 1.613,2.007 1.703,1.989 1.789,1.957 1.891,1.933 1.988,1.903 2.09,1.875 2.183,1.859 2.286,1.813 2.398,1.789 2.504,1.769 2.602,1.727 2.726,1.703 2.824,1.668 2.953,1.637 3.055,1.617 3.188,1.57 3.304,1.547 3.418,1.508" /><path
         id="path198"
         style="fill:none;stroke:#000000;stroke-width:3.9849999;stroke-linecap:butt;stroke-linejoin:miter;stroke-miterlimit:10;stroke-dasharray:none;stroke-opacity:1"
         d="m 160.07,931.68 -2.437,-1.024 -2.363,-1.066 -2.262,-1.121 -2.188,-1.164 -2.086,-1.219 -2.011,-1.25 -1.934,-1.309 -1.855,-1.351 -1.77,-1.406 -1.691,-1.442 -1.629,-1.48 -1.535,-1.528 -1.473,-1.57 -1.406,-1.617 -1.34,-1.649 -1.266,-1.691 -1.195,-1.734 -1.133,-1.77 -1.078,-1.812 -1.012,-1.848 -0.953,-1.887 -0.902,-1.926 -0.836,-1.953 -0.777,-1.988 -0.739,-2.035 -0.679,-2.055 -0.625,-2.097 -0.583,-2.122 -0.531,-2.164 -0.492,-2.183 -0.441,-2.219 -0.407,-2.254 -0.359,-2.285 -0.332,-2.309 -0.285,-2.34 -0.254,-2.359 -0.219,-2.398 -0.176,-2.414 -0.152,-2.453 -0.133,-2.461 -0.097,-2.493 -0.067,-2.527 -0.043,-2.539 -0.023,-2.559 -0.012,-2.582 0.023,-2.613 0.032,-2.625 0.054,-2.648 0.067,-2.661 0.078,-2.691 0.098,-2.703 0.097,-2.711 0.114,-2.738 0.117,-2.758 0.121,-2.77 0.133,-2.777 0.121,-2.801 0.133,-2.804 0.132,-2.821 0.121,-2.836 0.118,-2.855 0.121,-2.856 0.113,-2.871 0.098,-2.875 0.086,-2.89 0.078,-2.891 0.066,-2.91 0.055,-2.91 0.023,-2.914 0.02,-2.922 -0.012,-2.934 -0.031,-2.933 -0.043,-2.934 -0.078,-2.945 -0.11,-2.942 -0.132,-2.945 -0.153,-2.945 -0.199,-2.946 -0.219,-2.941 -0.265,-2.957 -0.286,-2.945 -0.339,-2.942 -0.375,-2.945 -0.407,-2.934 -0.461,-2.933 -0.492,-2.934 -0.539,-2.922 -0.594,-2.922 -0.648,-2.914 -0.68,-2.91 -0.75,-2.898 -0.789,-2.891 -0.855,-2.879 -0.903,-2.879 -0.968,-2.855 -1.032,-2.856 -1.086,-2.847 -1.144,-2.825 -1.219,-2.824 -1.273,-2.801 -1.352,-2.789 -1.4178,-2.769 -1.496,-2.758 -1.5586,-2.746 -1.6368,-2.723 -1.7148,-2.715 -1.7891,-2.691 -1.8671,-2.672 -1.9454,-2.656 -2.0312,-2.637 -2.1094,-2.617 -2.1992,-2.59 -2.2852,-2.574 -2.3828,-2.559 -2.4609,-2.527 -2.5625,-2.504 -2.6445,-2.473 -2.75,-2.46 -2.8321,-2.426 -2.9453,-2.407 2.9453,-2.406 2.8321,-2.429 2.75,-2.461 2.6445,-2.473 2.5625,-2.504 2.4609,-2.527 2.3828,-2.559 2.2852,-2.57 2.1992,-2.594 2.1094,-2.613 2.0312,-2.637 1.9454,-2.66 1.8671,-2.672 1.7891,-2.691 1.7148,-2.711 1.6368,-2.727 1.5586,-2.746 1.496,-2.758 1.4178,-2.769 1.352,-2.789 1.273,-2.801 1.219,-2.824 1.144,-2.825 1.086,-2.843 1.032,-2.86 0.968,-2.855 0.903,-2.879 0.855,-2.879 0.789,-2.887 0.75,-2.902 0.68,-2.91 0.648,-2.91 0.594,-2.926 0.539,-2.922 0.492,-2.934 0.461,-2.933 0.407,-2.934 0.375,-2.941 0.339,-2.946 0.286,-2.945 0.265,-2.953 0.219,-2.945 0.199,-2.946 0.153,-2.945 0.132,-2.941 0.11,-2.946 0.078,-2.945 0.043,-2.934 0.031,-2.933 0.012,-2.934 -0.02,-2.922 -0.023,-2.91 -0.055,-2.914 -0.066,-2.91 -0.078,-2.891 -0.086,-2.886 -0.098,-2.879 -0.113,-2.867 -0.121,-2.86 -0.118,-2.855 -0.121,-2.832 -0.132,-2.825 -0.133,-2.8 -0.121,-2.805 -0.133,-2.777 -0.121,-2.77 -0.117,-2.758 -0.114,-2.734 -0.097,-2.715 -0.098,-2.703 -0.078,-2.691 -0.067,-2.661 -0.054,-2.644 -0.032,-2.629 -0.023,-2.613 0.012,-2.582 0.023,-2.559 0.043,-2.539 0.067,-2.527 0.097,-2.493 0.133,-2.46 0.152,-2.45 0.176,-2.418 0.219,-2.394 0.254,-2.363 0.285,-2.34 0.332,-2.309 0.359,-2.285 0.407,-2.25 0.441,-2.219 0.492,-2.187 0.531,-2.164 0.583,-2.121 0.625,-2.098 0.679,-2.055 0.739,-2.031 0.777,-1.992 0.836,-1.953 0.902,-1.922 0.953,-1.891 1.012,-1.848 1.078,-1.812 1.133,-1.766 1.195,-1.738 1.266,-1.691 1.34,-1.649 1.406,-1.613 1.473,-1.574 1.535,-1.524 1.629,-1.484 1.691,-1.441 1.77,-1.407 1.855,-1.351 1.934,-1.305 2.011,-1.254 2.086,-1.219 2.188,-1.164 2.262,-1.121 2.363,-1.066 2.437,-1.02 -3.418,1.504 -3.304,1.547 -3.188,1.574 -3.055,1.614 -2.953,1.636 -2.824,1.672 -2.726,1.703 -2.602,1.723 -2.504,1.769 -2.398,1.789 -2.286,1.825 -2.183,1.847 -2.09,1.879 -1.988,1.899 -1.891,1.933 -1.789,1.957 -1.703,1.989 -1.613,2.011 -1.528,2.032 -1.429,2.066 -1.352,2.086 -1.273,2.109 -1.188,2.133 -1.109,2.164 -1.031,2.176 -0.957,2.207 -0.879,2.219 -0.813,2.254 -0.746,2.261 -0.684,2.286 -0.601,2.32 -0.551,2.328 -0.496,2.34 -0.426,2.371 -0.375,2.387 -0.3201,2.406 -0.2617,2.426 -0.2071,2.441 -0.1679,2.449 -0.1211,2.481 -0.0625,2.484 -0.0352,2.504 0.0117,2.527 0.0547,2.528 0.086,2.551 0.121,2.57 0.168,2.57 0.1836,2.594 0.2227,2.601 0.2419,2.618 0.262,2.625 0.297,2.636 0.32,2.649 0.328,2.656 0.352,2.672 0.363,2.68 0.383,2.691 0.394,2.691 0.399,2.715 0.406,2.715 0.418,2.711 0.418,2.738 0.414,2.723 0.418,2.746 0.418,2.746 0.406,2.746 0.407,2.758 0.398,2.77 0.383,2.757 0.375,2.77 0.351,2.777 0.34,2.77 0.328,2.781 0.297,2.777 0.285,2.782 0.254,2.781 0.231,2.777 0.199,2.781 0.176,2.79 0.14,2.781 0.098,2.777 0.066,2.781 0.036,2.766 -0.012,2.781 -0.055,2.77 -0.097,2.769 -0.145,2.766 -0.187,2.758 -0.243,2.758 -0.297,2.746 -0.351,2.746 -0.395,2.738 -0.461,2.734 -0.527,2.727 -0.582,2.711 -0.648,2.715 -0.715,2.703 -0.789,2.703 -0.848,2.68 -0.922,2.679 -1,2.661 -1.078,2.66 -1.1523,2.644 -1.2305,2.637 -1.3203,2.629 -1.3945,2.601 -1.4922,2.606 -1.5703,2.582 -1.6601,2.582 -1.7579,2.559 -1.8476,2.539 -1.9414,2.535 -2.0469,2.515 -2.1406,2.508 -2.2422,2.481 -2.3516,2.472 -2.4492,2.45 -2.5586,2.429 -2.6719,2.426 -2.789,2.398 2.789,2.395 2.6719,2.426 2.5586,2.429 2.4492,2.45 2.3516,2.472 2.2422,2.485 2.1406,2.504 2.0469,2.515 1.9414,2.539 1.8476,2.535 1.7579,2.563 1.6601,2.582 1.5703,2.578 1.4922,2.606 1.3945,2.605 1.3203,2.625 1.2305,2.637 1.1523,2.648 1.078,2.656 1,2.661 0.922,2.679 0.848,2.68 0.789,2.703 0.715,2.703 0.648,2.715 0.582,2.715 0.527,2.723 0.461,2.734 0.395,2.738 0.351,2.746 0.297,2.746 0.243,2.758 0.187,2.758 0.145,2.77 0.097,2.765 0.055,2.77 0.012,2.781 -0.036,2.77 -0.066,2.777 -0.098,2.781 -0.14,2.777 -0.176,2.793 -0.199,2.778 -0.231,2.781 -0.254,2.777 -0.285,2.782 -0.297,2.781 -0.328,2.777 -0.34,2.77 -0.351,2.777 -0.375,2.77 -0.383,2.757 -0.398,2.77 -0.407,2.758 -0.406,2.746 -0.418,2.746 -0.418,2.746 -0.414,2.727 -0.418,2.734 -0.418,2.715 -0.406,2.711 -0.399,2.715 -0.394,2.691 -0.383,2.691 -0.363,2.684 -0.352,2.668 -0.328,2.66 -0.32,2.645 -0.297,2.636 -0.262,2.629 -0.2419,2.614 -0.2227,2.605 -0.1836,2.59 -0.168,2.57 -0.121,2.574 -0.086,2.547 -0.0547,2.528 -0.0117,2.527 0.0352,2.504 0.0625,2.484 0.1211,2.481 0.1679,2.453 0.2071,2.437 0.2617,2.43 0.3201,2.406 0.375,2.383 0.426,2.371 0.496,2.34 0.551,2.332 0.601,2.316 0.684,2.286 0.746,2.261 0.813,2.254 0.879,2.219 0.957,2.207 1.031,2.188 1.109,2.152 1.188,2.133 1.273,2.109 1.352,2.086 1.429,2.066 1.528,2.036 1.613,2.007 1.703,1.989 1.789,1.957 1.891,1.933 1.988,1.903 2.09,1.875 2.183,1.859 2.286,1.813 2.398,1.789 2.504,1.769 2.602,1.727 2.726,1.703 2.824,1.668 2.953,1.637 3.055,1.617 3.188,1.57 3.304,1.547 3.418,1.508 z" /><g
         transform="matrix(117.6,0,0,-106.8,661.087,214.877)"
         id="g200"><rect
           id="rect202"
           style="fill:#ffffff;fill-opacity:1;fill-rule:nonzero"
           transform="matrix(1,0,0,-1,0,1)"
           height="1"
           width="1"
           y="0"
           x="0" /></g><g
         transform="scale(10,10)"
         id="g204"><text
           id="text206"
           style="font-variant:normal;font-weight:normal;font-size:10.90909958px;font-family:CMMI10;-inkscape-font-specification:CMMI10;writing-mode:lr-tb;fill:#000000;fill-opacity:1;fill-rule:nonzero;stroke:none"
           transform="matrix(1,0,0,-1,69.1207,13.8199)"><tspan
             id="tspan208"
             y="0"
             x="0">a</tspan></text>
</g><path
         id="path210"
         style="fill:#000000;fill-opacity:1;fill-rule:nonzero;stroke:none"
         d="m 199.93,301.672 1.066,-2.442 1.207,-2.359 1.352,-2.266 1.484,-2.183 1.613,-2.09 1.758,-2.008 1.879,-1.937 2.012,-1.856 2.14,-1.769 2.266,-1.692 2.383,-1.625 2.492,-1.539 2.629,-1.472 2.734,-1.407 2.844,-1.339 2.957,-1.262 3.066,-1.199 3.172,-1.129 3.286,-1.078 3.375,-1.012 3.48,-0.957 3.57,-0.899 3.672,-0.836 3.77,-0.781 3.855,-0.734 3.942,-0.68 4.035,-0.629 4.109,-0.582 4.195,-0.527 4.274,-0.492 4.363,-0.442 4.426,-0.406 4.504,-0.363 4.57,-0.328 4.637,-0.286 4.715,-0.254 4.777,-0.218 4.836,-0.176 4.887,-0.156 4.957,-0.129 5.008,-0.102 5.066,-0.066 5.109,-0.043 5.164,-0.02 5.207,-0.011 5.262,0.019 5.297,0.035 5.336,0.055 5.375,0.066 5.402,0.075 5.45,0.101 5.472,0.098 5.504,0.109 5.539,0.121 5.559,0.121 5.57,0.133 5.602,0.121 5.625,0.133 5.625,0.129 5.648,0.121 5.668,0.121 5.668,0.121 5.672,0.11 5.68,0.101 5.691,0.086 5.68,0.078 5.691,0.067 5.668,0.054 5.68,0.02 5.656,0.023 5.66,-0.011 5.649,-0.032 5.625,-0.046 5.613,-0.075 5.59,-0.109 5.57,-0.133 5.539,-0.156 5.527,-0.195 5.493,-0.219 5.461,-0.266 5.425,-0.285 5.395,-0.34 5.363,-0.375 5.317,-0.406 5.285,-0.461 5.226,-0.496 5.199,-0.535 5.141,-0.594 5.086,-0.648 5.043,-0.684 4.988,-0.746 4.922,-0.789 4.867,-0.86 4.813,-0.898 4.746,-0.969 4.68,-1.031 4.613,-1.09 4.539,-1.14 4.473,-1.219 4.402,-1.278 4.32,-1.351 4.239,-1.414 4.164,-1.496 4.078,-1.559 3.988,-1.637 3.91,-1.714 3.813,-1.793 3.722,-1.868 3.629,-1.945 3.535,-2.031 3.438,-2.11 3.332,-2.195 3.238,-2.285 3.121,-2.387 3.024,-2.461 2.91,-2.558 2.801,-2.649 2.679,-2.746 2.575,-2.836 2.449,-2.941 2.449,2.941 2.57,2.836 2.68,2.746 2.805,2.649 2.91,2.558 3.019,2.461 3.121,2.387 3.243,2.285 3.328,2.195 3.437,2.11 3.539,2.031 3.625,1.945 3.723,1.868 3.813,1.793 3.914,1.714 3.988,1.637 4.074,1.559 4.164,1.496 4.242,1.414 4.317,1.351 4.406,1.278 4.473,1.219 4.535,1.14 4.613,1.09 4.684,1.031 4.746,0.969 4.808,0.898 4.868,0.86 4.921,0.789 4.989,0.746 5.043,0.684 5.086,0.648 5.144,0.594 5.195,0.535 5.231,0.496 5.285,0.461 5.316,0.406 5.36,0.375 5.394,0.34 5.43,0.285 5.461,0.266 5.492,0.219 5.528,0.195 5.535,0.156 5.57,0.133 5.602,0.109 5.605,0.075 5.625,0.046 5.645,0.032 5.648,0.011 5.668,-0.023 5.672,-0.02 5.691,-0.054 5.68,-0.067 5.68,-0.078 5.679,-0.086 5.68,-0.101 5.691,-0.11 5.657,-0.121 5.655,-0.121 5.66,-0.121 5.63,-0.129 5.62,-0.133 5.59,-0.121 5.59,-0.133 5.56,-0.121 5.53,-0.121 5.5,-0.109 5.48,-0.098 5.43,-0.101 5.42,-0.075 5.37,-0.066 5.34,-0.055 5.3,-0.035 5.26,-0.019 5.21,0.011 5.16,0.02 5.11,0.043 5.07,0.066 5.01,0.102 4.95,0.129 4.9,0.156 4.82,0.176 4.78,0.218 4.71,0.254 4.64,0.286 4.57,0.328 4.51,0.363 4.44,0.406 4.34,0.442 4.28,0.492 4.2,0.527 4.11,0.582 4.03,0.629 3.94,0.68 3.86,0.734 3.77,0.781 3.67,0.836 3.58,0.899 3.47,0.957 3.37,1.012 3.29,1.078 3.17,1.129 3.07,1.199 2.95,1.262 2.85,1.339 2.73,1.407 2.63,1.472 2.49,1.539 2.39,1.625 2.26,1.692 2.13,1.769 2.02,1.856 1.88,1.937 1.76,2.008 1.62,2.09 1.48,2.183 1.35,2.266 1.21,2.359 1.07,2.442 -1.57,-3.418 -1.66,-3.309 -1.82,-3.183 -1.92,-3.055 -2.06,-2.957 -2.15,-2.82 -2.29,-2.727 -2.38,-2.605 -2.5,-2.504 -2.62,-2.395 -2.72,-2.285 -2.81,-2.187 -2.93,-2.086 -3.03,-1.989 -3.13,-1.89 -3.22,-1.789 -3.33,-1.703 -3.4,-1.618 -3.51,-1.527 -3.59,-1.426 -3.68,-1.351 -3.76,-1.274 -3.86,-1.187 -3.92,-1.11 -4.01,-1.035 -4.09,-0.953 -4.16,-0.879 -4.24,-0.812 -4.3,-0.75 -4.37,-0.68 -4.45,-0.606 -4.5,-0.546 -4.57,-0.496 -4.63,-0.43 -4.7,-0.371 -4.75,-0.321 -4.8,-0.261 -4.86,-0.211 -4.91,-0.164 -4.95,-0.121 -5,-0.067 -5.06,-0.031 -5.09,0.012 -5.14,0.054 -5.17,0.086 -5.21,0.121 -5.25,0.164 -5.28,0.188 -5.31,0.219 -5.34,0.242 -5.37,0.266 -5.4,0.296 -5.41,0.317 -5.44,0.332 -5.45,0.351 -5.49,0.36 -5.49,0.387 -5.49,0.394 -5.519,0.395 -5.539,0.406 -5.527,0.418 -5.535,0.418 -5.547,0.418 -5.539,0.418 -5.547,0.418 -5.539,0.406 -5.535,0.406 -5.528,0.395 -5.527,0.386 -5.504,0.372 -5.504,0.351 -5.48,0.34 -5.473,0.332 -5.449,0.297 -5.426,0.285 -5.406,0.254 -5.383,0.23 -5.352,0.196 -5.328,0.175 -5.297,0.145 -5.261,0.098 -5.231,0.066 -5.195,0.031 -5.152,-0.008 -5.122,-0.054 -5.062,-0.102 -5.031,-0.14 -4.981,-0.188 -4.929,-0.242 -4.891,-0.297 -4.832,-0.352 -4.77,-0.394 -4.722,-0.461 -4.66,-0.527 -4.602,-0.582 -4.539,-0.649 -4.484,-0.715 -4.403,-0.793 -4.34,-0.843 -4.273,-0.922 -4.199,-1 -4.117,-1.078 -4.043,-1.153 -3.981,-1.23 -3.887,-1.32 -3.8,-1.395 -3.727,-1.496 -3.637,-1.57 -3.547,-1.657 -3.46,-1.758 -3.364,-1.847 -3.273,-1.945 -3.176,-2.043 -3.074,-2.141 -2.977,-2.242 -2.879,-2.352 -2.769,-2.449 -2.672,-2.563 -2.547,-2.668 -2.449,-2.789 -2.449,2.789 -2.551,2.668 -2.668,2.563 -2.77,2.449 -2.879,2.352 -2.976,2.242 -3.078,2.141 -3.176,2.043 -3.273,1.945 -3.36,1.847 -3.461,1.758 -3.551,1.657 -3.636,1.57 -3.723,1.496 -3.801,1.395 -3.89,1.32 -3.977,1.23 -4.043,1.153 -4.121,1.078 -4.195,1 -4.274,0.922 -4.34,0.843 -4.406,0.793 -4.484,0.715 -4.535,0.649 -4.606,0.582 -4.656,0.527 -4.727,0.461 -4.765,0.394 -4.836,0.352 -4.887,0.297 -4.934,0.242 -4.976,0.188 -5.031,0.14 -5.067,0.102 -5.117,0.054 -5.156,0.008 -5.195,-0.031 -5.231,-0.066 -5.262,-0.098 -5.297,-0.145 -5.328,-0.175 -5.347,-0.196 -5.383,-0.23 -5.406,-0.254 -5.43,-0.285 -5.449,-0.297 -5.469,-0.332 -5.484,-0.34 -5.493,-0.351 -5.515,-0.372 -5.528,-0.386 -5.523,-0.395 -5.539,-0.406 -5.535,-0.406 -5.551,-0.418 -5.535,-0.418 -5.551,-0.418 -5.535,-0.418 -5.527,-0.418 -5.524,-0.406 -5.516,-0.395 -5.503,-0.394 -5.497,-0.387 -5.48,-0.36 -5.449,-0.351 -5.449,-0.332 -5.418,-0.317 -5.395,-0.296 -5.359,-0.266 -5.34,-0.242 -5.317,-0.219 -5.285,-0.188 -5.242,-0.164 -5.219,-0.121 -5.172,-0.086 -5.132,-0.054 -5.098,-0.012 -5.043,0.031 -5.008,0.067 -4.957,0.121 -4.91,0.164 -4.855,0.211 -4.801,0.261 -4.746,0.321 -4.692,0.371 -4.636,0.43 -4.571,0.496 -4.504,0.546 -4.449,0.606 -4.375,0.68 -4.305,0.75 -4.23,0.812 -4.164,0.879 -4.086,0.953 -4.012,1.035 -3.922,1.11 -3.855,1.187 -3.758,1.274 -3.68,1.351 -3.593,1.426 -3.504,1.527 -3.418,1.618 -3.317,1.703 -3.218,1.789 -3.133,1.89 -3.02,1.989 -2.933,2.086 -2.825,2.187 -2.714,2.285 -2.614,2.395 -2.504,2.504 -2.386,2.605 -2.285,2.727 -2.153,2.82 -2.054,2.957 -1.922,3.055 -1.801,3.183 -1.695,3.309 -1.547,3.418" /><path
         id="path212"
         style="fill:none;stroke:#000000;stroke-width:3.9849999;stroke-linecap:butt;stroke-linejoin:miter;stroke-miterlimit:10;stroke-dasharray:none;stroke-opacity:1"
         d="m 199.93,301.672 1.066,-2.442 1.207,-2.359 1.352,-2.266 1.484,-2.183 1.613,-2.09 1.758,-2.008 1.879,-1.937 2.012,-1.856 2.14,-1.769 2.266,-1.692 2.383,-1.625 2.492,-1.539 2.629,-1.472 2.734,-1.407 2.844,-1.339 2.957,-1.262 3.066,-1.199 3.172,-1.129 3.286,-1.078 3.375,-1.012 3.48,-0.957 3.57,-0.899 3.672,-0.836 3.77,-0.781 3.855,-0.734 3.942,-0.68 4.035,-0.629 4.109,-0.582 4.195,-0.527 4.274,-0.492 4.363,-0.442 4.426,-0.406 4.504,-0.363 4.57,-0.328 4.637,-0.286 4.715,-0.254 4.777,-0.218 4.836,-0.176 4.887,-0.156 4.957,-0.129 5.008,-0.102 5.066,-0.066 5.109,-0.043 5.164,-0.02 5.207,-0.011 5.262,0.019 5.297,0.035 5.336,0.055 5.375,0.066 5.402,0.075 5.45,0.101 5.472,0.098 5.504,0.109 5.539,0.121 5.559,0.121 5.57,0.133 5.602,0.121 5.625,0.133 5.625,0.129 5.648,0.121 5.668,0.121 5.668,0.121 5.672,0.11 5.68,0.101 5.691,0.086 5.68,0.078 5.691,0.067 5.668,0.054 5.68,0.02 5.656,0.023 5.66,-0.011 5.649,-0.032 5.625,-0.046 5.613,-0.075 5.59,-0.109 5.57,-0.133 5.539,-0.156 5.527,-0.195 5.493,-0.219 5.461,-0.266 5.425,-0.285 5.395,-0.34 5.363,-0.375 5.317,-0.406 5.285,-0.461 5.226,-0.496 5.199,-0.535 5.141,-0.594 5.086,-0.648 5.043,-0.684 4.988,-0.746 4.922,-0.789 4.867,-0.86 4.813,-0.898 4.746,-0.969 4.68,-1.031 4.613,-1.09 4.539,-1.14 4.473,-1.219 4.402,-1.278 4.32,-1.351 4.239,-1.414 4.164,-1.496 4.078,-1.559 3.988,-1.637 3.91,-1.714 3.813,-1.793 3.722,-1.868 3.629,-1.945 3.535,-2.031 3.438,-2.11 3.332,-2.195 3.238,-2.285 3.121,-2.387 3.024,-2.461 2.91,-2.558 2.801,-2.649 2.679,-2.746 2.575,-2.836 2.449,-2.941 2.449,2.941 2.57,2.836 2.68,2.746 2.805,2.649 2.91,2.558 3.019,2.461 3.121,2.387 3.243,2.285 3.328,2.195 3.437,2.11 3.539,2.031 3.625,1.945 3.723,1.868 3.813,1.793 3.914,1.714 3.988,1.637 4.074,1.559 4.164,1.496 4.242,1.414 4.317,1.351 4.406,1.278 4.473,1.219 4.535,1.14 4.613,1.09 4.684,1.031 4.746,0.969 4.808,0.898 4.868,0.86 4.921,0.789 4.989,0.746 5.043,0.684 5.086,0.648 5.144,0.594 5.195,0.535 5.231,0.496 5.285,0.461 5.316,0.406 5.36,0.375 5.394,0.34 5.43,0.285 5.461,0.266 5.492,0.219 5.528,0.195 5.535,0.156 5.57,0.133 5.602,0.109 5.605,0.075 5.625,0.046 5.645,0.032 5.648,0.011 5.668,-0.023 5.672,-0.02 5.691,-0.054 5.68,-0.067 5.68,-0.078 5.679,-0.086 5.68,-0.101 5.691,-0.11 5.657,-0.121 5.655,-0.121 5.66,-0.121 5.63,-0.129 5.62,-0.133 5.59,-0.121 5.59,-0.133 5.56,-0.121 5.53,-0.121 5.5,-0.109 5.48,-0.098 5.43,-0.101 5.42,-0.075 5.37,-0.066 5.34,-0.055 5.3,-0.035 5.26,-0.019 5.21,0.011 5.16,0.02 5.11,0.043 5.07,0.066 5.01,0.102 4.95,0.129 4.9,0.156 4.82,0.176 4.78,0.218 4.71,0.254 4.64,0.286 4.57,0.328 4.51,0.363 4.44,0.406 4.34,0.442 4.28,0.492 4.2,0.527 4.11,0.582 4.03,0.629 3.94,0.68 3.86,0.734 3.77,0.781 3.67,0.836 3.58,0.899 3.47,0.957 3.37,1.012 3.29,1.078 3.17,1.129 3.07,1.199 2.95,1.262 2.85,1.339 2.73,1.407 2.63,1.472 2.49,1.539 2.39,1.625 2.26,1.692 2.13,1.769 2.02,1.856 1.88,1.937 1.76,2.008 1.62,2.09 1.48,2.183 1.35,2.266 1.21,2.359 1.07,2.442 -1.57,-3.418 -1.66,-3.309 -1.82,-3.183 -1.92,-3.055 -2.06,-2.957 -2.15,-2.82 -2.29,-2.727 -2.38,-2.605 -2.5,-2.504 -2.62,-2.395 -2.72,-2.285 -2.81,-2.187 -2.93,-2.086 -3.03,-1.989 -3.13,-1.89 -3.22,-1.789 -3.33,-1.703 -3.4,-1.618 -3.51,-1.527 -3.59,-1.426 -3.68,-1.351 -3.76,-1.274 -3.86,-1.187 -3.92,-1.11 -4.01,-1.035 -4.09,-0.953 -4.16,-0.879 -4.24,-0.812 -4.3,-0.75 -4.37,-0.68 -4.45,-0.606 -4.5,-0.546 -4.57,-0.496 -4.63,-0.43 -4.7,-0.371 -4.75,-0.321 -4.8,-0.261 -4.86,-0.211 -4.91,-0.164 -4.95,-0.121 -5,-0.067 -5.06,-0.031 -5.09,0.012 -5.14,0.054 -5.17,0.086 -5.21,0.121 -5.25,0.164 -5.28,0.188 -5.31,0.219 -5.34,0.242 -5.37,0.266 -5.4,0.296 -5.41,0.317 -5.44,0.332 -5.45,0.351 -5.49,0.36 -5.49,0.387 -5.49,0.394 -5.519,0.395 -5.539,0.406 -5.527,0.418 -5.535,0.418 -5.547,0.418 -5.539,0.418 -5.547,0.418 -5.539,0.406 -5.535,0.406 -5.528,0.395 -5.527,0.386 -5.504,0.372 -5.504,0.351 -5.48,0.34 -5.473,0.332 -5.449,0.297 -5.426,0.285 -5.406,0.254 -5.383,0.23 -5.352,0.196 -5.328,0.175 -5.297,0.145 -5.261,0.098 -5.231,0.066 -5.195,0.031 -5.152,-0.008 -5.122,-0.054 -5.062,-0.102 -5.031,-0.14 -4.981,-0.188 -4.929,-0.242 -4.891,-0.297 -4.832,-0.352 -4.77,-0.394 -4.722,-0.461 -4.66,-0.527 -4.602,-0.582 -4.539,-0.649 -4.484,-0.715 -4.403,-0.793 -4.34,-0.843 -4.273,-0.922 -4.199,-1 -4.117,-1.078 -4.043,-1.153 -3.981,-1.23 -3.887,-1.32 -3.8,-1.395 -3.727,-1.496 -3.637,-1.57 -3.547,-1.657 -3.46,-1.758 -3.364,-1.847 -3.273,-1.945 -3.176,-2.043 -3.074,-2.141 -2.977,-2.242 -2.879,-2.352 -2.769,-2.449 -2.672,-2.563 -2.547,-2.668 -2.449,-2.789 -2.449,2.789 -2.551,2.668 -2.668,2.563 -2.77,2.449 -2.879,2.352 -2.976,2.242 -3.078,2.141 -3.176,2.043 -3.273,1.945 -3.36,1.847 -3.461,1.758 -3.551,1.657 -3.636,1.57 -3.723,1.496 -3.801,1.395 -3.89,1.32 -3.977,1.23 -4.043,1.153 -4.121,1.078 -4.195,1 -4.274,0.922 -4.34,0.843 -4.406,0.793 -4.484,0.715 -4.535,0.649 -4.606,0.582 -4.656,0.527 -4.727,0.461 -4.765,0.394 -4.836,0.352 -4.887,0.297 -4.934,0.242 -4.976,0.188 -5.031,0.14 -5.067,0.102 -5.117,0.054 -5.156,0.008 -5.195,-0.031 -5.231,-0.066 -5.262,-0.098 -5.297,-0.145 -5.328,-0.175 -5.347,-0.196 -5.383,-0.23 -5.406,-0.254 -5.43,-0.285 -5.449,-0.297 -5.469,-0.332 -5.484,-0.34 -5.493,-0.351 -5.515,-0.372 -5.528,-0.386 -5.523,-0.395 -5.539,-0.406 -5.535,-0.406 -5.551,-0.418 -5.535,-0.418 -5.551,-0.418 -5.535,-0.418 -5.527,-0.418 -5.524,-0.406 -5.516,-0.395 -5.503,-0.394 -5.497,-0.387 -5.48,-0.36 -5.449,-0.351 -5.449,-0.332 -5.418,-0.317 -5.395,-0.296 -5.359,-0.266 -5.34,-0.242 -5.317,-0.219 -5.285,-0.188 -5.242,-0.164 -5.219,-0.121 -5.172,-0.086 -5.132,-0.054 -5.098,-0.012 -5.043,0.031 -5.008,0.067 -4.957,0.121 -4.91,0.164 -4.855,0.211 -4.801,0.261 -4.746,0.321 -4.692,0.371 -4.636,0.43 -4.571,0.496 -4.504,0.546 -4.449,0.606 -4.375,0.68 -4.305,0.75 -4.23,0.812 -4.164,0.879 -4.086,0.953 -4.012,1.035 -3.922,1.11 -3.855,1.187 -3.758,1.274 -3.68,1.351 -3.593,1.426 -3.504,1.527 -3.418,1.618 -3.317,1.703 -3.218,1.789 -3.133,1.89 -3.02,1.989 -2.933,2.086 -2.825,2.187 -2.714,2.285 -2.614,2.395 -2.504,2.504 -2.386,2.605 -2.285,2.727 -2.153,2.82 -2.054,2.957 -1.922,3.055 -1.801,3.183 -1.695,3.309 -1.547,3.418 z" /><g
         transform="matrix(122.4,0,0,-106.8,866.562,533.683)"
         id="g214"><rect
           id="rect216"
           style="fill:#ffffff;fill-opacity:1;fill-rule:nonzero"
           transform="matrix(1,0,0,-1,0,1)"
           height="1"
           width="1"
           y="0"
           x="0" /></g><g
         transform="scale(10,10)"
         id="g218"><text
           id="text220"
           style="font-variant:normal;font-weight:normal;font-size:10.90909958px;font-family:CMMI10;-inkscape-font-specification:CMMI10;writing-mode:lr-tb;fill:#000000;fill-opacity:1;fill-rule:nonzero;stroke:none"
           transform="matrix(1,0,0,-1,89.6684,45.7004)"><tspan
             id="tspan222"
             y="0"
             x="0">x</tspan></text>
</g><path
         id="path224"
         style="fill:#000000;fill-opacity:1;fill-rule:nonzero;stroke:none"
         d="m 1655.84,341.531 -1.12,2.438 -1.33,2.363 -1.57,2.262 -1.77,2.187 -2,2.086 -2.2,2.012 -2.42,1.933 -2.61,1.856 -2.83,1.77 -3.02,1.691 -3.21,1.625 -3.4,1.539 -3.59,1.473 -3.79,1.406 -3.94,1.34 -4.13,1.265 -4.3,1.196 -4.46,1.132 -4.63,1.075 -4.79,1.011 -4.96,0.957 -5.11,0.899 -5.25,0.836 -5.4,0.781 -5.54,0.734 -5.68,0.684 -5.82,0.625 -5.96,0.582 -6.07,0.527 -6.2,0.496 -6.33,0.438 -6.44,0.406 -6.56,0.364 -6.66,0.328 -6.77,0.289 -6.88,0.25 -6.98,0.218 -7.06,0.176 -7.15,0.157 -7.25,0.132 -7.34,0.098 -7.42,0.066 -7.49,0.043 -7.56,0.024 -7.64,0.008 -7.69,-0.02 -7.76,-0.035 -7.83,-0.055 -7.88,-0.066 -7.93,-0.074 -7.97,-0.098 -8.02,-0.102 -8.06,-0.109 -8.11,-0.121 -8.13,-0.121 -8.17,-0.133 -8.19,-0.121 -8.21,-0.129 -8.23,-0.133 -8.25,-0.121 -8.26,-0.121 -8.26,-0.121 -8.28,-0.109 -8.26,-0.098 -8.27,-0.09 -8.26,-0.074 -8.25,-0.067 -8.24,-0.054 -8.22,-0.024 -8.19,-0.023 -8.18,0.012 -8.15,0.035 -8.11,0.043 -8.08,0.078 -8.04,0.109 -7.98,0.129 -7.96,0.156 -7.9,0.196 -7.84,0.222 -7.79,0.262 -7.72,0.285 -7.66,0.344 -7.59,0.371 -7.52,0.406 -7.45,0.461 -7.36,0.496 -7.28,0.539 -7.19,0.594 -7.11,0.649 -7.02,0.679 -6.91,0.746 -6.81,0.793 -6.7,0.856 -6.59,0.902 -6.49,0.965 -6.37,1.035 -6.25,1.086 -6.13,1.141 -6,1.222 -5.86,1.274 -5.74,1.351 -5.59,1.418 -5.459,1.493 -5.32,1.562 -5.153,1.637 -5.008,1.711 -4.855,1.793 -4.691,1.867 -4.539,1.945 -4.36,2.031 -4.187,2.11 -4.02,2.199 -3.848,2.285 -3.656,2.383 -3.472,2.461 -3.286,2.558 -3.086,2.649 -2.914,2.746 -2.691,2.836 -2.492,2.945 -2.496,-2.945 -2.703,-2.836 -2.887,-2.746 -3.098,-2.649 -3.285,-2.558 -3.473,-2.461 -3.66,-2.383 -3.832,-2.285 -4.035,-2.199 -4.184,-2.11 -4.363,-2.031 -4.535,-1.945 -4.691,-1.867 -4.856,-1.793 -5.012,-1.711 -5.164,-1.637 -5.304,-1.562 -5.45,-1.493 -5.605,-1.418 -5.734,-1.351 -5.868,-1.274 -5.996,-1.222 -6.132,-1.141 -6.25,-1.086 -6.36,-1.035 -6.496,-0.965 -6.59,-0.902 -6.703,-0.856 -6.812,-0.793 -6.922,-0.746 -7.008,-0.679 -7.098,-0.649 -7.195,-0.594 -7.285,-0.539 -7.36,-0.496 -7.449,-0.461 -7.515,-0.406 -7.59,-0.371 -7.66,-0.344 -7.723,-0.285 -7.789,-0.262 -7.844,-0.222 -7.898,-0.196 -7.946,-0.156 -7.996,-0.129 -8.043,-0.109 -8.074,-0.078 -8.109,-0.043 -8.153,-0.035 -8.172,-0.012 -8.199,0.023 -8.215,0.024 -8.242,0.054 -8.25,0.067 -8.262,0.074 -8.261,0.09 -8.274,0.098 -8.273,0.109 -8.262,0.121 -8.262,0.121 -8.25,0.121 -8.23,0.133 -8.203,0.129 -8.199,0.121 -8.16,0.133 -8.133,0.121 -8.094,0.121 -8.066,0.109 -8.02,0.102 -7.977,0.098 -7.933,0.074 -7.875,0.066 -7.824,0.055 -7.766,0.035 -7.703,0.02 -7.633,-0.008 -7.559,-0.024 -7.496,-0.043 -7.414,-0.066 -7.328,-0.098 -7.25,-0.132 -7.164,-0.157 -7.062,-0.176 -6.977,-0.218 -6.879,-0.25 -6.769,-0.289 -6.668,-0.328 -6.547,-0.364 -6.449,-0.406 -6.317,-0.438 -6.207,-0.496 -6.078,-0.527 -5.953,-0.582 -5.813,-0.625 -5.691,-0.684 -5.535,-0.734 -5.406,-0.781 -5.254,-0.836 -5.106,-0.899 -4.945,-0.957 -4.801,-1.011 -4.625,-1.075 -4.473,-1.132 -4.296,-1.196 -4.129,-1.265 -3.957,-1.34 -3.766,-1.406 -3.594,-1.473 -3.394,-1.539 -3.219,-1.625 -3.023,-1.691 -2.821,-1.77 -2.617,-1.856 -2.418,-1.933 -2.207,-2.012 -1.988,-2.086 -1.781,-2.187 -1.571,-2.262 -1.328,-2.363 -1.109,-2.438 1.593,3.414 1.813,3.309 2.019,3.184 2.219,3.054 2.418,2.957 2.625,2.824 2.805,2.723 2.996,2.606 3.187,2.503 3.372,2.395 3.55,2.285 3.723,2.188 3.902,2.086 4.063,1.988 4.23,1.891 4.395,1.792 4.551,1.704 4.699,1.613 4.867,1.527 5,1.43 5.152,1.348 5.297,1.277 5.438,1.183 5.558,1.114 5.703,1.031 5.825,0.957 5.953,0.879 6.062,0.812 6.188,0.747 6.305,0.679 6.417,0.606 6.516,0.551 6.625,0.492 6.723,0.429 6.82,0.375 6.914,0.317 6.996,0.265 7.098,0.207 7.176,0.165 7.25,0.121 7.328,0.066 7.394,0.031 7.469,-0.008 7.539,-0.054 7.602,-0.09 7.656,-0.121 7.715,-0.164 7.765,-0.188 7.825,-0.219 7.855,-0.242 7.899,-0.261 7.941,-0.297 7.977,-0.321 8.011,-0.328 8.028,-0.351 8.066,-0.364 8.074,-0.386 8.098,-0.395 8.117,-0.394 8.121,-0.407 8.129,-0.418 8.141,-0.418 8.129,-0.418 8.144,-0.417 8.117,-0.418 8.117,-0.407 8.11,-0.406 8.086,-0.394 8.066,-0.383 8.039,-0.375 8.024,-0.352 7.984,-0.34 7.953,-0.332 7.914,-0.293 7.875,-0.289 7.832,-0.25 7.782,-0.23 7.734,-0.199 7.68,-0.176 7.625,-0.145 7.558,-0.097 7.492,-0.067 7.426,-0.031 7.352,0.012 7.281,0.054 7.199,0.098 7.117,0.145 7.043,0.183 6.942,0.242 6.855,0.297 6.758,0.352 6.66,0.394 6.547,0.465 6.461,0.527 6.336,0.582 6.23,0.649 6.11,0.711 5.988,0.793 5.867,0.844 5.746,0.925 5.614,1 5.48,1.075 5.34,1.156 5.199,1.23 5.063,1.317 4.91,1.394 4.758,1.496 4.605,1.571 4.449,1.66 4.285,1.758 4.129,1.843 3.957,1.946 3.789,2.043 3.602,2.144 3.43,2.238 3.25,2.352 3.066,2.449 2.879,2.563 2.68,2.668 2.496,2.793 2.492,-2.793 2.68,-2.668 2.879,-2.563 3.066,-2.449 3.25,-2.352 3.43,-2.238 3.613,-2.144 3.781,-2.043 3.953,-1.946 4.121,-1.843 4.297,-1.758 4.45,-1.66 4.601,-1.571 4.77,-1.496 4.91,-1.394 5.054,-1.317 5.196,-1.23 5.351,-1.156 5.473,-1.075 5.61,-1 5.75,-0.925 5.87,-0.844 5.98,-0.793 6.12,-0.711 6.23,-0.649 6.34,-0.582 6.44,-0.527 6.57,-0.465 6.66,-0.394 6.74,-0.352 6.86,-0.297 6.95,-0.242 7.03,-0.183 7.12,-0.145 7.21,-0.098 7.27,-0.054 7.35,-0.012 7.43,0.031 7.49,0.067 7.56,0.097 7.63,0.145 7.68,0.176 7.73,0.199 7.78,0.23 7.83,0.25 7.88,0.289 7.91,0.293 7.95,0.332 7.99,0.34 8.02,0.352 8.04,0.375 8.08,0.383 8.08,0.394 8.1,0.406 8.12,0.407 8.12,0.418 8.14,0.417 8.13,0.418 8.14,0.418 8.13,0.418 8.12,0.407 8.12,0.394 8.09,0.395 8.08,0.386 8.07,0.364 8.04,0.351 7.99,0.328 7.98,0.321 7.95,0.297 7.89,0.261 7.86,0.242 7.82,0.219 7.77,0.188 7.71,0.164 7.66,0.121 7.6,0.09 7.53,0.054 7.48,0.008 7.39,-0.031 7.33,-0.066 7.25,-0.121 7.19,-0.165 7.08,-0.207 7,-0.265 6.91,-0.317 6.83,-0.375 6.72,-0.429 6.62,-0.492 6.53,-0.551 6.4,-0.606 6.31,-0.679 6.19,-0.747 6.07,-0.812 5.95,-0.879 5.82,-0.957 5.7,-1.031 5.57,-1.114 5.43,-1.183 5.29,-1.277 5.15,-1.348 5,-1.43 4.87,-1.527 4.71,-1.613 4.55,-1.704 4.39,-1.792 4.24,-1.891 4.05,-1.988 3.9,-2.086 3.72,-2.188 3.56,-2.285 3.36,-2.395 3.19,-2.503 2.99,-2.606 2.83,-2.723 2.61,-2.824 2.42,-2.957 2.22,-3.054 2.02,-3.184 1.81,-3.309 1.6,-3.414" /><path
         id="path226"
         style="fill:none;stroke:#000000;stroke-width:3.9849999;stroke-linecap:butt;stroke-linejoin:miter;stroke-miterlimit:10;stroke-dasharray:none;stroke-opacity:1"
         d="m 1655.84,341.531 -1.12,2.438 -1.33,2.363 -1.57,2.262 -1.77,2.187 -2,2.086 -2.2,2.012 -2.42,1.933 -2.61,1.856 -2.83,1.77 -3.02,1.691 -3.21,1.625 -3.4,1.539 -3.59,1.473 -3.79,1.406 -3.94,1.34 -4.13,1.265 -4.3,1.196 -4.46,1.132 -4.63,1.075 -4.79,1.011 -4.96,0.957 -5.11,0.899 -5.25,0.836 -5.4,0.781 -5.54,0.734 -5.68,0.684 -5.82,0.625 -5.96,0.582 -6.07,0.527 -6.2,0.496 -6.33,0.438 -6.44,0.406 -6.56,0.364 -6.66,0.328 -6.77,0.289 -6.88,0.25 -6.98,0.218 -7.06,0.176 -7.15,0.157 -7.25,0.132 -7.34,0.098 -7.42,0.066 -7.49,0.043 -7.56,0.024 -7.64,0.008 -7.69,-0.02 -7.76,-0.035 -7.83,-0.055 -7.88,-0.066 -7.93,-0.074 -7.97,-0.098 -8.02,-0.102 -8.06,-0.109 -8.11,-0.121 -8.13,-0.121 -8.17,-0.133 -8.19,-0.121 -8.21,-0.129 -8.23,-0.133 -8.25,-0.121 -8.26,-0.121 -8.26,-0.121 -8.28,-0.109 -8.26,-0.098 -8.27,-0.09 -8.26,-0.074 -8.25,-0.067 -8.24,-0.054 -8.22,-0.024 -8.19,-0.023 -8.18,0.012 -8.15,0.035 -8.11,0.043 -8.08,0.078 -8.04,0.109 -7.98,0.129 -7.96,0.156 -7.9,0.196 -7.84,0.222 -7.79,0.262 -7.72,0.285 -7.66,0.344 -7.59,0.371 -7.52,0.406 -7.45,0.461 -7.36,0.496 -7.28,0.539 -7.19,0.594 -7.11,0.649 -7.02,0.679 -6.91,0.746 -6.81,0.793 -6.7,0.856 -6.59,0.902 -6.49,0.965 -6.37,1.035 -6.25,1.086 -6.13,1.141 -6,1.222 -5.86,1.274 -5.74,1.351 -5.59,1.418 -5.459,1.493 -5.32,1.562 -5.153,1.637 -5.008,1.711 -4.855,1.793 -4.691,1.867 -4.539,1.945 -4.36,2.031 -4.187,2.11 -4.02,2.199 -3.848,2.285 -3.656,2.383 -3.472,2.461 -3.286,2.558 -3.086,2.649 -2.914,2.746 -2.691,2.836 -2.492,2.945 -2.496,-2.945 -2.703,-2.836 -2.887,-2.746 -3.098,-2.649 -3.285,-2.558 -3.473,-2.461 -3.66,-2.383 -3.832,-2.285 -4.035,-2.199 -4.184,-2.11 -4.363,-2.031 -4.535,-1.945 -4.691,-1.867 -4.856,-1.793 -5.012,-1.711 -5.164,-1.637 -5.304,-1.562 -5.45,-1.493 -5.605,-1.418 -5.734,-1.351 -5.868,-1.274 -5.996,-1.222 -6.132,-1.141 -6.25,-1.086 -6.36,-1.035 -6.496,-0.965 -6.59,-0.902 -6.703,-0.856 -6.812,-0.793 -6.922,-0.746 -7.008,-0.679 -7.098,-0.649 -7.195,-0.594 -7.285,-0.539 -7.36,-0.496 -7.449,-0.461 -7.515,-0.406 -7.59,-0.371 -7.66,-0.344 -7.723,-0.285 -7.789,-0.262 -7.844,-0.222 -7.898,-0.196 -7.946,-0.156 -7.996,-0.129 -8.043,-0.109 -8.074,-0.078 -8.109,-0.043 -8.153,-0.035 -8.172,-0.012 -8.199,0.023 -8.215,0.024 -8.242,0.054 -8.25,0.067 -8.262,0.074 -8.261,0.09 -8.274,0.098 -8.273,0.109 -8.262,0.121 -8.262,0.121 -8.25,0.121 -8.23,0.133 -8.203,0.129 -8.199,0.121 -8.16,0.133 -8.133,0.121 -8.094,0.121 -8.066,0.109 -8.02,0.102 -7.977,0.098 -7.933,0.074 -7.875,0.066 -7.824,0.055 -7.766,0.035 -7.703,0.02 -7.633,-0.008 -7.559,-0.024 -7.496,-0.043 -7.414,-0.066 -7.328,-0.098 -7.25,-0.132 -7.164,-0.157 -7.062,-0.176 -6.977,-0.218 -6.879,-0.25 -6.769,-0.289 -6.668,-0.328 -6.547,-0.364 -6.449,-0.406 -6.317,-0.438 -6.207,-0.496 -6.078,-0.527 -5.953,-0.582 -5.813,-0.625 -5.691,-0.684 -5.535,-0.734 -5.406,-0.781 -5.254,-0.836 -5.106,-0.899 -4.945,-0.957 -4.801,-1.011 -4.625,-1.075 -4.473,-1.132 -4.296,-1.196 -4.129,-1.265 -3.957,-1.34 -3.766,-1.406 -3.594,-1.473 -3.394,-1.539 -3.219,-1.625 -3.023,-1.691 -2.821,-1.77 -2.617,-1.856 -2.418,-1.933 -2.207,-2.012 -1.988,-2.086 -1.781,-2.187 -1.571,-2.262 -1.328,-2.363 -1.109,-2.438 1.593,3.414 1.813,3.309 2.019,3.184 2.219,3.054 2.418,2.957 2.625,2.824 2.805,2.723 2.996,2.606 3.187,2.503 3.372,2.395 3.55,2.285 3.723,2.188 3.902,2.086 4.063,1.988 4.23,1.891 4.395,1.792 4.551,1.704 4.699,1.613 4.867,1.527 5,1.43 5.152,1.348 5.297,1.277 5.438,1.183 5.558,1.114 5.703,1.031 5.825,0.957 5.953,0.879 6.062,0.812 6.188,0.747 6.305,0.679 6.417,0.606 6.516,0.551 6.625,0.492 6.723,0.429 6.82,0.375 6.914,0.317 6.996,0.265 7.098,0.207 7.176,0.165 7.25,0.121 7.328,0.066 7.394,0.031 7.469,-0.008 7.539,-0.054 7.602,-0.09 7.656,-0.121 7.715,-0.164 7.765,-0.188 7.825,-0.219 7.855,-0.242 7.899,-0.261 7.941,-0.297 7.977,-0.321 8.011,-0.328 8.028,-0.351 8.066,-0.364 8.074,-0.386 8.098,-0.395 8.117,-0.394 8.121,-0.407 8.129,-0.418 8.141,-0.418 8.129,-0.418 8.144,-0.417 8.117,-0.418 8.117,-0.407 8.11,-0.406 8.086,-0.394 8.066,-0.383 8.039,-0.375 8.024,-0.352 7.984,-0.34 7.953,-0.332 7.914,-0.293 7.875,-0.289 7.832,-0.25 7.782,-0.23 7.734,-0.199 7.68,-0.176 7.625,-0.145 7.558,-0.097 7.492,-0.067 7.426,-0.031 7.352,0.012 7.281,0.054 7.199,0.098 7.117,0.145 7.043,0.183 6.942,0.242 6.855,0.297 6.758,0.352 6.66,0.394 6.547,0.465 6.461,0.527 6.336,0.582 6.23,0.649 6.11,0.711 5.988,0.793 5.867,0.844 5.746,0.925 5.614,1 5.48,1.075 5.34,1.156 5.199,1.23 5.063,1.317 4.91,1.394 4.758,1.496 4.605,1.571 4.449,1.66 4.285,1.758 4.129,1.843 3.957,1.946 3.789,2.043 3.602,2.144 3.43,2.238 3.25,2.352 3.066,2.449 2.879,2.563 2.68,2.668 2.496,2.793 2.492,-2.793 2.68,-2.668 2.879,-2.563 3.066,-2.449 3.25,-2.352 3.43,-2.238 3.613,-2.144 3.781,-2.043 3.953,-1.946 4.121,-1.843 4.297,-1.758 4.45,-1.66 4.601,-1.571 4.77,-1.496 4.91,-1.394 5.054,-1.317 5.196,-1.23 5.351,-1.156 5.473,-1.075 5.61,-1 5.75,-0.925 5.87,-0.844 5.98,-0.793 6.12,-0.711 6.23,-0.649 6.34,-0.582 6.44,-0.527 6.57,-0.465 6.66,-0.394 6.74,-0.352 6.86,-0.297 6.95,-0.242 7.03,-0.183 7.12,-0.145 7.21,-0.098 7.27,-0.054 7.35,-0.012 7.43,0.031 7.49,0.067 7.56,0.097 7.63,0.145 7.68,0.176 7.73,0.199 7.78,0.23 7.83,0.25 7.88,0.289 7.91,0.293 7.95,0.332 7.99,0.34 8.02,0.352 8.04,0.375 8.08,0.383 8.08,0.394 8.1,0.406 8.12,0.407 8.12,0.418 8.14,0.417 8.13,0.418 8.14,0.418 8.13,0.418 8.12,0.407 8.12,0.394 8.09,0.395 8.08,0.386 8.07,0.364 8.04,0.351 7.99,0.328 7.98,0.321 7.95,0.297 7.89,0.261 7.86,0.242 7.82,0.219 7.77,0.188 7.71,0.164 7.66,0.121 7.6,0.09 7.53,0.054 7.48,0.008 7.39,-0.031 7.33,-0.066 7.25,-0.121 7.19,-0.165 7.08,-0.207 7,-0.265 6.91,-0.317 6.83,-0.375 6.72,-0.429 6.62,-0.492 6.53,-0.551 6.4,-0.606 6.31,-0.679 6.19,-0.747 6.07,-0.812 5.95,-0.879 5.82,-0.957 5.7,-1.031 5.57,-1.114 5.43,-1.183 5.29,-1.277 5.15,-1.348 5,-1.43 4.87,-1.527 4.71,-1.613 4.55,-1.704 4.39,-1.792 4.24,-1.891 4.05,-1.988 3.9,-2.086 3.72,-2.188 3.56,-2.285 3.36,-2.395 3.19,-2.503 2.99,-2.606 2.83,-2.723 2.61,-2.824 2.42,-2.957 2.22,-3.054 2.02,-3.184 1.81,-3.309 1.6,-3.414 z" /><g
         transform="matrix(117.6,0,0,-128.4,1776.25,787.385)"
         id="g228"><rect
           id="rect230"
           style="fill:#ffffff;fill-opacity:1;fill-rule:nonzero"
           transform="matrix(1,0,0,-1,0,1)"
           height="1"
           width="1"
           y="0"
           x="0" /></g><g
         transform="scale(10,10)"
         id="g232"><text
           id="text234"
           style="font-variant:normal;font-weight:normal;font-size:10.90909958px;font-family:CMMI10;-inkscape-font-specification:CMMI10;writing-mode:lr-tb;fill:#000000;fill-opacity:1;fill-rule:nonzero;stroke:none"
           transform="matrix(1,0,0,-1,180.637,70.9504)"><tspan
             id="tspan236"
             y="0"
             x="0">y</tspan></text>
</g><path
         id="path238"
         style="fill:#000000;fill-opacity:1;fill-rule:nonzero;stroke:none"
         d="m 1695.69,341.531 2.44,1.031 2.37,1.122 2.26,1.207 2.17,1.297 2.11,1.363 2.01,1.449 1.93,1.527 1.85,1.606 1.77,1.679 1.69,1.758 1.63,1.825 1.54,1.91 1.48,1.968 1.4,2.043 1.34,2.11 1.26,2.176 1.2,2.238 1.14,2.308 1.08,2.375 1,2.438 0.95,2.492 0.9,2.551 0.84,2.613 0.78,2.672 0.73,2.723 0.69,2.793 0.62,2.832 0.58,2.879 0.53,2.945 0.5,2.988 0.43,3.031 0.41,3.09 0.38,3.129 0.31,3.176 0.29,3.219 0.25,3.261 0.22,3.309 0.18,3.34 0.16,3.383 0.12,3.418 0.1,3.461 0.08,3.492 0.03,3.527 0.02,3.559 0.01,3.582 -0.02,3.625 -0.03,3.648 -0.06,3.668 -0.06,3.703 -0.08,3.739 -0.09,3.746 -0.11,3.777 -0.11,3.789 -0.12,3.824 -0.12,3.836 -0.12,3.844 -0.13,3.879 -0.13,3.879 -0.13,3.898 -0.12,3.914 -0.13,3.922 -0.12,3.93 -0.11,3.945 -0.09,3.957 -0.09,3.953 -0.08,3.969 -0.06,3.965 -0.05,3.965 -0.03,3.976 -0.03,3.969 0.02,3.977 0.03,3.965 0.04,3.964 0.08,3.969 0.1,3.953 0.14,3.957 0.16,3.934 0.18,3.933 0.23,3.922 0.27,3.91 0.29,3.899 0.33,3.879 0.36,3.867 0.42,3.848 0.46,3.832 0.5,3.812 0.55,3.789 0.58,3.782 0.65,3.746 0.69,3.722 0.74,3.692 0.79,3.672 0.85,3.648 0.91,3.613 0.97,3.582 1.02,3.547 1.09,3.528 1.16,3.484 1.21,3.449 1.27,3.406 1.36,3.383 1.42,3.328 1.48,3.297 1.56,3.262 1.64,3.211 1.71,3.164 1.79,3.117 1.86,3.078 1.96,3.031 2.03,2.977 2.11,2.934 2.19,2.879 2.29,2.824 2.37,2.769 2.48,2.711 2.55,2.672 2.65,2.594 2.75,2.547 2.85,2.484 2.93,2.414 -2.93,2.43 -2.85,2.484 -2.75,2.535 -2.65,2.606 -2.55,2.66 -2.48,2.723 -2.37,2.769 -2.29,2.824 -2.19,2.879 -2.11,2.934 -2.03,2.976 -1.96,3.02 -1.86,3.078 -1.79,3.129 -1.71,3.164 -1.64,3.211 -1.56,3.25 -1.48,3.297 -1.42,3.34 -1.36,3.371 -1.27,3.418 -1.21,3.449 -1.16,3.484 -1.09,3.516 -1.02,3.559 -0.97,3.582 -0.91,3.613 -0.85,3.637 -0.79,3.679 -0.74,3.692 -0.69,3.726 -0.65,3.746 -0.58,3.77 -0.55,3.789 -0.5,3.812 -0.46,3.833 -0.42,3.859 -0.36,3.867 -0.33,3.875 -0.29,3.902 -0.27,3.899 -0.23,3.922 -0.18,3.933 -0.16,3.946 -0.14,3.953 -0.1,3.957 -0.08,3.953 -0.04,3.969 -0.03,3.976 -0.02,3.965 0.03,3.977 0.03,3.968 0.05,3.977 0.06,3.965 0.08,3.969 0.09,3.953 0.09,3.945 0.11,3.941 0.12,3.934 0.13,3.934 0.12,3.91 0.13,3.902 0.13,3.879 0.13,3.867 0.12,3.856 0.12,3.836 0.12,3.82 0.11,3.793 0.11,3.777 0.09,3.746 0.08,3.727 0.06,3.699 0.06,3.684 0.03,3.644 0.02,3.617 -0.01,3.59 -0.02,3.563 -0.03,3.523 -0.08,3.5 -0.1,3.45 -0.12,3.43 -0.16,3.37 -0.18,3.35 -0.22,3.3 -0.25,3.26 -0.29,3.23 -0.31,3.17 -0.38,3.13 -0.41,3.08 -0.43,3.04 -0.5,2.99 -0.53,2.93 -0.58,2.89 -0.62,2.84 -0.69,2.79 -0.73,2.71 -0.78,2.68 -0.84,2.61 -0.9,2.55 -0.95,2.5 -1,2.43 -1.08,2.38 -1.14,2.3 -1.2,2.25 -1.26,2.18 -1.34,2.11 -1.4,2.04 -1.48,1.97 -1.54,1.9 -1.63,1.83 -1.69,1.75 -1.77,1.69 -1.85,1.6 -1.93,1.53 -2.01,1.44 -2.11,1.37 -2.17,1.29 -2.26,1.21 -2.37,1.12 -2.44,1.04 3.43,-1.53 3.3,-1.6 3.18,-1.66 3.07,-1.72 2.94,-1.81 2.83,-1.85 2.72,-1.92 2.61,-1.98 2.5,-2.05 2.39,-2.12 2.29,-2.15 2.2,-2.23 2.07,-2.27 1.99,-2.34 1.89,-2.39 1.79,-2.44 1.7,-2.49 1.62,-2.55 1.53,-2.6 1.42,-2.65 1.36,-2.69 1.27,-2.75 1.19,-2.79 1.11,-2.83 1.03,-2.88 0.95,-2.92 0.88,-2.97 0.82,-3.01 0.75,-3.04 0.68,-3.09 0.6,-3.13 0.56,-3.17 0.48,-3.2 0.43,-3.23 0.37,-3.27 0.32,-3.3 0.27,-3.34 0.21,-3.36 0.16,-3.39 0.12,-3.43 0.07,-3.449 0.03,-3.481 -0.01,-3.508 -0.06,-3.527 -0.08,-3.547 -0.12,-3.582 -0.16,-3.601 -0.19,-3.617 -0.21,-3.637 -0.24,-3.656 -0.28,-3.68 -0.3,-3.692 -0.3,-3.714 -0.34,-3.727 -0.35,-3.734 -0.37,-3.746 -0.38,-3.758 -0.39,-3.778 -0.4,-3.781 -0.41,-3.789 -0.42,-3.789 -0.42,-3.805 -0.41,-3.812 -0.42,-3.813 -0.42,-3.82 -0.41,-3.812 -0.4,-3.825 -0.4,-3.824 -0.38,-3.812 -0.37,-3.821 -0.36,-3.812 -0.34,-3.813 -0.33,-3.8 -0.29,-3.805 -0.29,-3.801 -0.25,-3.777 -0.23,-3.782 -0.2,-3.765 -0.18,-3.758 -0.13,-3.738 -0.11,-3.735 -0.06,-3.715 -0.03,-3.699 0.01,-3.691 0.05,-3.66 0.1,-3.66 0.14,-3.625 0.19,-3.614 0.24,-3.582 0.3,-3.57 0.35,-3.539 0.39,-3.524 0.46,-3.496 0.53,-3.461 0.59,-3.437 0.64,-3.418 0.73,-3.371 0.78,-3.352 0.85,-3.328 0.92,-3.285 1,-3.254 1.07,-3.219 1.17,-3.175 1.23,-3.153 1.31,-3.109 1.4,-3.063 1.49,-3.035 1.57,-2.988 1.66,-2.942 1.75,-2.902 1.85,-2.855 1.94,-2.825 2.05,-2.769 2.14,-2.711 2.25,-2.684 2.34,-2.625 2.45,-2.57 2.56,-2.527 2.67,-2.473 2.79,-2.418 -2.79,-2.414 -2.67,-2.473 -2.56,-2.515 -2.45,-2.582 -2.34,-2.625 -2.25,-2.672 -2.14,-2.723 -2.05,-2.769 -1.94,-2.813 -1.85,-2.855 -1.75,-2.903 -1.66,-2.953 -1.57,-2.988 -1.49,-3.023 -1.4,-3.075 -1.31,-3.109 -1.23,-3.145 -1.17,-3.183 -1.07,-3.219 -1,-3.254 -0.92,-3.285 -0.85,-3.316 -0.78,-3.352 -0.73,-3.383 -0.64,-3.406 -0.59,-3.441 -0.53,-3.469 -0.46,-3.496 -0.39,-3.516 -0.35,-3.535 -0.3,-3.57 -0.24,-3.594 -0.19,-3.606 -0.14,-3.636 -0.1,-3.645 -0.05,-3.672 -0.01,-3.679 0.03,-3.704 0.06,-3.71 0.11,-3.739 0.13,-3.746 0.18,-3.746 0.2,-3.766 0.23,-3.781 0.25,-3.789 0.29,-3.793 0.29,-3.801 0.33,-3.8 0.34,-3.813 0.36,-3.812 0.37,-3.825 0.38,-3.82 0.4,-3.812 0.4,-3.825 0.41,-3.824 0.42,-3.812 0.42,-3.813 0.41,-3.812 0.42,-3.801 0.42,-3.801 0.41,-3.789 0.4,-3.781 0.39,-3.766 0.38,-3.758 0.37,-3.758 0.35,-3.738 0.34,-3.722 0.3,-3.704 0.3,-3.691 0.28,-3.68 0.24,-3.66 0.21,-3.637 0.19,-3.625 0.16,-3.589 0.12,-3.582 0.08,-3.551 0.06,-3.535 0.01,-3.508 -0.03,-3.469 -0.07,-3.461 -0.12,-3.418 -0.16,-3.394 -0.21,-3.364 -0.27,-3.339 -0.32,-3.293 -0.37,-3.278 -0.43,-3.226 -0.48,-3.211 -0.56,-3.153 -0.6,-3.129 -0.68,-3.089 -0.75,-3.043 -0.82,-3.012 -0.88,-2.965 -0.95,-2.922 -1.03,-2.879 -1.11,-2.843 -1.19,-2.782 -1.27,-2.746 -1.36,-2.703 -1.42,-2.648 -1.53,-2.594 -1.62,-2.547 -1.7,-2.492 -1.79,-2.442 -1.89,-2.394 -1.99,-2.328 -2.07,-2.285 -2.2,-2.219 -2.29,-2.164 -2.39,-2.11 -2.5,-2.046 -2.61,-1.977 -2.72,-1.922 -2.83,-1.867 -2.94,-1.793 -3.07,-1.723 -3.18,-1.672 -3.3,-1.593 -3.43,-1.524" /><path
         id="path240"
         style="fill:none;stroke:#000000;stroke-width:3.9849999;stroke-linecap:butt;stroke-linejoin:miter;stroke-miterlimit:10;stroke-dasharray:none;stroke-opacity:1"
         d="m 1695.69,341.531 2.44,1.031 2.37,1.122 2.26,1.207 2.17,1.297 2.11,1.363 2.01,1.449 1.93,1.527 1.85,1.606 1.77,1.679 1.69,1.758 1.63,1.825 1.54,1.91 1.48,1.968 1.4,2.043 1.34,2.11 1.26,2.176 1.2,2.238 1.14,2.308 1.08,2.375 1,2.438 0.95,2.492 0.9,2.551 0.84,2.613 0.78,2.672 0.73,2.723 0.69,2.793 0.62,2.832 0.58,2.879 0.53,2.945 0.5,2.988 0.43,3.031 0.41,3.09 0.38,3.129 0.31,3.176 0.29,3.219 0.25,3.261 0.22,3.309 0.18,3.34 0.16,3.383 0.12,3.418 0.1,3.461 0.08,3.492 0.03,3.527 0.02,3.559 0.01,3.582 -0.02,3.625 -0.03,3.648 -0.06,3.668 -0.06,3.703 -0.08,3.739 -0.09,3.746 -0.11,3.777 -0.11,3.789 -0.12,3.824 -0.12,3.836 -0.12,3.844 -0.13,3.879 -0.13,3.879 -0.13,3.898 -0.12,3.914 -0.13,3.922 -0.12,3.93 -0.11,3.945 -0.09,3.957 -0.09,3.953 -0.08,3.969 -0.06,3.965 -0.05,3.965 -0.03,3.976 -0.03,3.969 0.02,3.977 0.03,3.965 0.04,3.964 0.08,3.969 0.1,3.953 0.14,3.957 0.16,3.934 0.18,3.933 0.23,3.922 0.27,3.91 0.29,3.899 0.33,3.879 0.36,3.867 0.42,3.848 0.46,3.832 0.5,3.812 0.55,3.789 0.58,3.782 0.65,3.746 0.69,3.722 0.74,3.692 0.79,3.672 0.85,3.648 0.91,3.613 0.97,3.582 1.02,3.547 1.09,3.528 1.16,3.484 1.21,3.449 1.27,3.406 1.36,3.383 1.42,3.328 1.48,3.297 1.56,3.262 1.64,3.211 1.71,3.164 1.79,3.117 1.86,3.078 1.96,3.031 2.03,2.977 2.11,2.934 2.19,2.879 2.29,2.824 2.37,2.769 2.48,2.711 2.55,2.672 2.65,2.594 2.75,2.547 2.85,2.484 2.93,2.414 -2.93,2.43 -2.85,2.484 -2.75,2.535 -2.65,2.606 -2.55,2.66 -2.48,2.723 -2.37,2.769 -2.29,2.824 -2.19,2.879 -2.11,2.934 -2.03,2.976 -1.96,3.02 -1.86,3.078 -1.79,3.129 -1.71,3.164 -1.64,3.211 -1.56,3.25 -1.48,3.297 -1.42,3.34 -1.36,3.371 -1.27,3.418 -1.21,3.449 -1.16,3.484 -1.09,3.516 -1.02,3.559 -0.97,3.582 -0.91,3.613 -0.85,3.637 -0.79,3.679 -0.74,3.692 -0.69,3.726 -0.65,3.746 -0.58,3.77 -0.55,3.789 -0.5,3.812 -0.46,3.833 -0.42,3.859 -0.36,3.867 -0.33,3.875 -0.29,3.902 -0.27,3.899 -0.23,3.922 -0.18,3.933 -0.16,3.946 -0.14,3.953 -0.1,3.957 -0.08,3.953 -0.04,3.969 -0.03,3.976 -0.02,3.965 0.03,3.977 0.03,3.968 0.05,3.977 0.06,3.965 0.08,3.969 0.09,3.953 0.09,3.945 0.11,3.941 0.12,3.934 0.13,3.934 0.12,3.91 0.13,3.902 0.13,3.879 0.13,3.867 0.12,3.856 0.12,3.836 0.12,3.82 0.11,3.793 0.11,3.777 0.09,3.746 0.08,3.727 0.06,3.699 0.06,3.684 0.03,3.644 0.02,3.617 -0.01,3.59 -0.02,3.563 -0.03,3.523 -0.08,3.5 -0.1,3.45 -0.12,3.43 -0.16,3.37 -0.18,3.35 -0.22,3.3 -0.25,3.26 -0.29,3.23 -0.31,3.17 -0.38,3.13 -0.41,3.08 -0.43,3.04 -0.5,2.99 -0.53,2.93 -0.58,2.89 -0.62,2.84 -0.69,2.79 -0.73,2.71 -0.78,2.68 -0.84,2.61 -0.9,2.55 -0.95,2.5 -1,2.43 -1.08,2.38 -1.14,2.3 -1.2,2.25 -1.26,2.18 -1.34,2.11 -1.4,2.04 -1.48,1.97 -1.54,1.9 -1.63,1.83 -1.69,1.75 -1.77,1.69 -1.85,1.6 -1.93,1.53 -2.01,1.44 -2.11,1.37 -2.17,1.29 -2.26,1.21 -2.37,1.12 -2.44,1.04 3.43,-1.53 3.3,-1.6 3.18,-1.66 3.07,-1.72 2.94,-1.81 2.83,-1.85 2.72,-1.92 2.61,-1.98 2.5,-2.05 2.39,-2.12 2.29,-2.15 2.2,-2.23 2.07,-2.27 1.99,-2.34 1.89,-2.39 1.79,-2.44 1.7,-2.49 1.62,-2.55 1.53,-2.6 1.42,-2.65 1.36,-2.69 1.27,-2.75 1.19,-2.79 1.11,-2.83 1.03,-2.88 0.95,-2.92 0.88,-2.97 0.82,-3.01 0.75,-3.04 0.68,-3.09 0.6,-3.13 0.56,-3.17 0.48,-3.2 0.43,-3.23 0.37,-3.27 0.32,-3.3 0.27,-3.34 0.21,-3.36 0.16,-3.39 0.12,-3.43 0.07,-3.449 0.03,-3.481 -0.01,-3.508 -0.06,-3.527 -0.08,-3.547 -0.12,-3.582 -0.16,-3.601 -0.19,-3.617 -0.21,-3.637 -0.24,-3.656 -0.28,-3.68 -0.3,-3.692 -0.3,-3.714 -0.34,-3.727 -0.35,-3.734 -0.37,-3.746 -0.38,-3.758 -0.39,-3.778 -0.4,-3.781 -0.41,-3.789 -0.42,-3.789 -0.42,-3.805 -0.41,-3.812 -0.42,-3.813 -0.42,-3.82 -0.41,-3.812 -0.4,-3.825 -0.4,-3.824 -0.38,-3.812 -0.37,-3.821 -0.36,-3.812 -0.34,-3.813 -0.33,-3.8 -0.29,-3.805 -0.29,-3.801 -0.25,-3.777 -0.23,-3.782 -0.2,-3.765 -0.18,-3.758 -0.13,-3.738 -0.11,-3.735 -0.06,-3.715 -0.03,-3.699 0.01,-3.691 0.05,-3.66 0.1,-3.66 0.14,-3.625 0.19,-3.614 0.24,-3.582 0.3,-3.57 0.35,-3.539 0.39,-3.524 0.46,-3.496 0.53,-3.461 0.59,-3.437 0.64,-3.418 0.73,-3.371 0.78,-3.352 0.85,-3.328 0.92,-3.285 1,-3.254 1.07,-3.219 1.17,-3.175 1.23,-3.153 1.31,-3.109 1.4,-3.063 1.49,-3.035 1.57,-2.988 1.66,-2.942 1.75,-2.902 1.85,-2.855 1.94,-2.825 2.05,-2.769 2.14,-2.711 2.25,-2.684 2.34,-2.625 2.45,-2.57 2.56,-2.527 2.67,-2.473 2.79,-2.418 -2.79,-2.414 -2.67,-2.473 -2.56,-2.515 -2.45,-2.582 -2.34,-2.625 -2.25,-2.672 -2.14,-2.723 -2.05,-2.769 -1.94,-2.813 -1.85,-2.855 -1.75,-2.903 -1.66,-2.953 -1.57,-2.988 -1.49,-3.023 -1.4,-3.075 -1.31,-3.109 -1.23,-3.145 -1.17,-3.183 -1.07,-3.219 -1,-3.254 -0.92,-3.285 -0.85,-3.316 -0.78,-3.352 -0.73,-3.383 -0.64,-3.406 -0.59,-3.441 -0.53,-3.469 -0.46,-3.496 -0.39,-3.516 -0.35,-3.535 -0.3,-3.57 -0.24,-3.594 -0.19,-3.606 -0.14,-3.636 -0.1,-3.645 -0.05,-3.672 -0.01,-3.679 0.03,-3.704 0.06,-3.71 0.11,-3.739 0.13,-3.746 0.18,-3.746 0.2,-3.766 0.23,-3.781 0.25,-3.789 0.29,-3.793 0.29,-3.801 0.33,-3.8 0.34,-3.813 0.36,-3.812 0.37,-3.825 0.38,-3.82 0.4,-3.812 0.4,-3.825 0.41,-3.824 0.42,-3.812 0.42,-3.813 0.41,-3.812 0.42,-3.801 0.42,-3.801 0.41,-3.789 0.4,-3.781 0.39,-3.766 0.38,-3.758 0.37,-3.758 0.35,-3.738 0.34,-3.722 0.3,-3.704 0.3,-3.691 0.28,-3.68 0.24,-3.66 0.21,-3.637 0.19,-3.625 0.16,-3.589 0.12,-3.582 0.08,-3.551 0.06,-3.535 0.01,-3.508 -0.03,-3.469 -0.07,-3.461 -0.12,-3.418 -0.16,-3.394 -0.21,-3.364 -0.27,-3.339 -0.32,-3.293 -0.37,-3.278 -0.43,-3.226 -0.48,-3.211 -0.56,-3.153 -0.6,-3.129 -0.68,-3.089 -0.75,-3.043 -0.82,-3.012 -0.88,-2.965 -0.95,-2.922 -1.03,-2.879 -1.11,-2.843 -1.19,-2.782 -1.27,-2.746 -1.36,-2.703 -1.42,-2.648 -1.53,-2.594 -1.62,-2.547 -1.7,-2.492 -1.79,-2.442 -1.89,-2.394 -1.99,-2.328 -2.07,-2.285 -2.2,-2.219 -2.29,-2.164 -2.39,-2.11 -2.5,-2.046 -2.61,-1.977 -2.72,-1.922 -2.83,-1.867 -2.94,-1.793 -3.07,-1.723 -3.18,-1.672 -3.3,-1.593 -3.43,-1.524 z" /><g
         transform="scale(10,10)"
         id="g242"><text
           id="text244"
           style="font-variant:normal;font-weight:normal;font-size:10.90909958px;font-family:CMMI10;-inkscape-font-specification:CMMI10;writing-mode:lr-tb;fill:#000000;fill-opacity:1;fill-rule:nonzero;stroke:none"
           transform="matrix(1,0,0,-1,115.489,85.7277)"><tspan
             id="tspan246"
             y="0"
             x="0">C</tspan></text>
</g><g
         transform="matrix(104.586,42.2556,40.008,-99.0232,1395.85,1136.36)"
         id="g248"><rect
           id="rect250"
           style="fill:#ffffff;fill-opacity:1;fill-rule:nonzero"
           transform="matrix(1,0,0,-1,0,1)"
           height="1"
           width="1"
           y="0"
           x="0" /></g><g
         transform="scale(10,10)"
         id="g252"><text
           id="text254"
           style="font-variant:normal;font-weight:normal;font-size:10.90910339px;font-family:CMMI10;-inkscape-font-specification:CMMI10;writing-mode:lr-tb;fill:#000000;fill-opacity:1;fill-rule:nonzero;stroke:none"
           transform="matrix(0.927184,0.374607,0.374607,-0.927184,145.25,107.655)"><tspan
             id="tspan256"
             y="0"
             x="0">r</tspan></text>
</g><path
         id="path258"
         style="fill:none;stroke:#000000;stroke-width:11.95530033;stroke-linecap:butt;stroke-linejoin:miter;stroke-miterlimit:10;stroke-dasharray:none;stroke-opacity:1"
         d="m 1710.02,951.609 -0.62,23.555 -1.84,23.477 -3.08,23.369 -4.29,23.16 -5.51,22.9 -6.69,22.61 -7.85,22.2 -9.02,21.76 -10.14,21.26 -11.24,20.71 -12.32,20.09 -13.34,19.42 -14.35,18.68 -15.29,17.93 -16.23,17.08 -17.08,16.23 -17.92,15.29 -18.69,14.35 -19.42,13.34 -20.08,12.31 -20.71,11.24 -21.26,10.14 -21.76,9.02 -22.21,7.86 -22.6,6.69 -22.91,5.5 -23.17,4.3 -23.35,3.07 -23.48,1.85 -23.55,0.61 -23.56,-0.61 -23.48,-1.85 -23.36,-3.07 -23.17,-4.3 -22.9,-5.5 -22.6,-6.69 -22.21,-7.86 -21.76,-9.02 -21.26,-10.14 -20.71,-11.24 -20.08,-12.31 -19.426,-13.34 -18.688,-14.35 -17.921,-15.29 -17.083,-16.23 -16.226,-17.08 -15.293,-17.93 -14.34,-18.68 -13.348,-19.42 -12.304,-20.09 -11.25,-20.71 -10.141,-21.26 -9.008,-21.76 -7.867,-22.2 -6.691,-22.61 -5.504,-22.9 -4.297,-23.16 -3.074,-23.369 -1.844,-23.477 -0.617,-23.555 0.617,-23.554 1.844,-23.481 3.074,-23.367 4.297,-23.16 5.504,-22.906 6.691,-22.59 7.867,-22.215 9.008,-21.762 10.141,-21.258 11.25,-20.711 12.304,-20.082 13.348,-19.425 14.34,-18.688 15.293,-17.918 16.226,-17.086 17.083,-16.215 17.921,-15.304 18.688,-14.336 19.426,-13.352 20.08,-12.304 20.71,-11.25 21.26,-10.141 21.76,-9.008 22.21,-7.867 22.6,-6.691 22.9,-5.504 23.17,-4.293 23.36,-3.079 23.48,-1.843 23.56,-0.617 23.55,0.617 23.48,1.843 23.35,3.079 23.17,4.293 22.91,5.504 22.6,6.691 22.21,7.867 21.76,9.008 21.26,10.141 20.71,11.25 20.08,12.304 19.42,13.352 18.69,14.336 17.92,15.304 17.08,16.215 16.23,17.086 15.29,17.918 14.35,18.688 13.34,19.425 12.32,20.082 11.24,20.711 10.14,21.258 9.02,21.762 7.85,22.215 6.69,22.59 5.51,22.906 4.29,23.16 3.08,23.367 1.84,23.481 0.62,23.554 z" /><path
         id="path260"
         style="fill:none;stroke:#000000;stroke-width:11.95530033;stroke-linecap:butt;stroke-linejoin:miter;stroke-miterlimit:10;stroke-dasharray:none;stroke-opacity:1"
         d="m 1260.02,951.609 415.74,0 0,172.211 -415.74,-172.211 z" /><g
         transform="matrix(146.4,0,0,-134.4,33.48,321.48)"
         id="g262"><rect
           id="rect264"
           style="fill:#ffffff;fill-opacity:1;fill-rule:nonzero"
           transform="matrix(1,0,0,-1,0,1)"
           height="1"
           width="1"
           y="0"
           x="0" /></g><g
         transform="scale(10,10)"
         id="g266"><text
           id="text268"
           style="font-variant:normal;font-weight:normal;font-size:10.90909958px;font-family:CMMI10;-inkscape-font-specification:CMMI10;writing-mode:lr-tb;fill:#000000;fill-opacity:1;fill-rule:nonzero;stroke:none"
           transform="matrix(1,0,0,-1,6.36016,21.7199)"><tspan
             id="tspan270"
             y="0"
             x="0">O</tspan></text>
</g><g
         transform="matrix(159.6,0,0,-134.4,1880.78,321.48)"
         id="g272"><rect
           id="rect274"
           style="fill:#ffffff;fill-opacity:1;fill-rule:nonzero"
           transform="matrix(1,0,0,-1,0,1)"
           height="1"
           width="1"
           y="0"
           x="0" /></g><g
         transform="scale(10,10)"
         id="g276"><text
           id="text278"
           style="font-variant:normal;font-weight:normal;font-size:10.90909958px;font-family:CMMI10;-inkscape-font-specification:CMMI10;writing-mode:lr-tb;fill:#000000;fill-opacity:1;fill-rule:nonzero;stroke:none"
           transform="matrix(1,0,0,-1,191.091,21.7199)"><tspan
             id="tspan280"
             y="0"
             x="0">X</tspan></text>
</g><g
         transform="matrix(147.6,0,0,-134.4,32.2799,1808.78)"
         id="g282"><rect
           id="rect284"
           style="fill:#ffffff;fill-opacity:1;fill-rule:nonzero"
           transform="matrix(1,0,0,-1,0,1)"
           height="1"
           width="1"
           y="0"
           x="0" /></g><g
         transform="scale(10,10)"
         id="g286"><text
           id="text288"
           style="font-variant:normal;font-weight:normal;font-size:10.90909958px;font-family:CMMI10;-inkscape-font-specification:CMMI10;writing-mode:lr-tb;fill:#000000;fill-opacity:1;fill-rule:nonzero;stroke:none"
           transform="matrix(1,0,0,-1,6.23984,170.45)"><tspan
             id="tspan290"
             y="0"
             x="0">Y</tspan></text>
</g><path
         id="path292"
         style="fill:none;stroke:#000000;stroke-width:11.95530033;stroke-linecap:butt;stroke-linejoin:miter;stroke-miterlimit:10;stroke-dasharray:none;stroke-opacity:1"
         d="m 36,321.602 1944.02,0" /><path
         id="path294"
         style="fill:none;stroke:#000000;stroke-width:11.95530033;stroke-linecap:butt;stroke-linejoin:miter;stroke-miterlimit:10;stroke-dasharray:none;stroke-opacity:1"
         d="m 180,177.602 0,1584.018" /><g
         transform="scale(10,10)"
         id="g296"><text
           id="text298"
           style="font-variant:normal;font-weight:normal;font-size:11.9552002px;font-family:CMCSC10;-inkscape-font-specification:CMCSC10;writing-mode:lr-tb;fill:#000000;fill-opacity:1;fill-rule:nonzero;stroke:none"
           transform="matrix(1,0,0,-1,85.441,0.0890625)"><tspan
             id="tspan300"
             y="0"
             x="0 8.5141897 12.111581 19.790342 28.065205 34.667984 41.270763">Fig.29.</tspan></text>
</g></g></g></svg>