<?xml version="1.0" encoding="UTF-8" standalone="no"?>
<svg
   xmlns:dc="http://purl.org/dc/elements/1.1/"
   xmlns:cc="http://creativecommons.org/ns#"
   xmlns:rdf="http://www.w3.org/1999/02/22-rdf-syntax-ns#"
   xmlns:svg="http://www.w3.org/2000/svg"
   xmlns="http://www.w3.org/2000/svg"
   viewBox="0 0 253.75 272.5"
   height="272.5"
   width="253.75"
   xml:space="preserve"
   version="1.1"
   id="svg2"><metadata
     id="metadata8"><rdf:RDF><cc:Work
         rdf:about=""><dc:format>image/svg+xml</dc:format><dc:type
           rdf:resource="http://purl.org/dc/dcmitype/StillImage" /></cc:Work></rdf:RDF></metadata><defs
     id="defs6"><clipPath
       id="clipPath12"
       clipPathUnits="userSpaceOnUse"><path
         id="path14"
         d="m -2,-2 203,0 0,218 -203,0 0,-218 z" /></clipPath></defs><g
     clip-path="url(#clipPath12)"
     transform="matrix(1.25,0,0,-1.25,2.5,270)"
     id="g10"><g
       transform="scale(0.1,0.1)"
       id="g16"><path
         id="path18"
         style="fill:none;stroke:#000000;stroke-width:11.95530033;stroke-linecap:butt;stroke-linejoin:miter;stroke-miterlimit:10;stroke-dasharray:none;stroke-opacity:1"
         d="m 180,321.602 14.996,0.601 15.008,1.891 14.996,3.261 14.996,4.715 15.008,6.219 14.996,7.754 14.996,9.352 15.008,10.984 14.996,12.66 15,14.359 15.004,16.094 15,17.863 14.996,19.668 15.008,21.489 14.996,23.343 14.996,25.239 15.008,27.136 14.996,29.082 14.996,31.036 15.008,33.015 14.996,35.024 14.996,37.047 15.008,39.101 14.996,41.164 14.996,43.266 15.008,45.387 14.996,47.515 14.996,49.66 15.008,51.843 14.996,54.03 15,56.24 15.004,58.47 15,60.73 14.996,62.99 15.008,65.27 14.996,67.57 14.996,69.89 15.008,72.23 14.996,74.57 14.996,76.94" /><path
         id="path20"
         style="fill:none;stroke:#000000;stroke-width:11.95530033;stroke-linecap:butt;stroke-linejoin:miter;stroke-miterlimit:10;stroke-dasharray:none;stroke-opacity:1"
         d="m 180,321.602 26.246,1.449 26.258,3.976 26.246,6.164 26.246,8.063 26.258,9.758 26.246,11.238 26.25,12.559 26.258,13.699 26.246,14.699 26.246,15.559 26.258,16.281 26.246,16.863 26.246,17.348 26.258,17.699 26.246,17.93 26.246,18.074 26.258,18.082 26.25,18.019 26.246,17.852 26.258,17.566 26.246,17.208 26.246,16.753 26.258,16.204 26.246,15.582 26.246,14.851 26.258,14.051 26.246,13.164 26.246,12.207 26.258,11.148 26.246,10.043 26.25,8.844 26.262,7.559 26.24,6.218 26.25,4.801 26.26,3.309 26.24,1.746 26.25,0.121 26.26,-1.582 26.24,-3.352 26.25,-5.187 26.26,-7.086 26.25,-9.051 26.24,-11.074 26.26,-13.176 26.25,-15.324 26.24,-17.547 26.26,-19.828 26.25,-22.172 26.24,-24.566 26.26,-27.028 26.25,-29.543 26.25,-32.121 26.25,-34.75 26.25,-37.453 26.25,-40.199 26.25,-43.004 26.25,-45.855 26.25,-48.782 26.25,-51.746 26.25,-54.765" /><path
         id="path22"
         style="fill:none;stroke:#000000;stroke-width:11.95530033;stroke-linecap:butt;stroke-linejoin:miter;stroke-miterlimit:10;stroke-dasharray:none;stroke-opacity:1"
         d="m 180,321.602 1500.02,0" /><g
         transform="matrix(6,0,0,-60,177.48,351.48)"
         id="g24"><rect
           id="rect26"
           style="fill:#000000;fill-opacity:1;fill-rule:nonzero"
           transform="matrix(1,0,0,-1,0,1)"
           height="1"
           width="1"
           y="0"
           x="0" /></g><g
         transform="matrix(6,0,0,-60,477.487,351.48)"
         id="g28"><rect
           id="rect30"
           style="fill:#000000;fill-opacity:1;fill-rule:nonzero"
           transform="matrix(1,0,0,-1,0,1)"
           height="1"
           width="1"
           y="0"
           x="0" /></g><g
         transform="matrix(6,0,0,-60,777.484,351.48)"
         id="g32"><rect
           id="rect34"
           style="fill:#000000;fill-opacity:1;fill-rule:nonzero"
           transform="matrix(1,0,0,-1,0,1)"
           height="1"
           width="1"
           y="0"
           x="0" /></g><g
         transform="matrix(6,0,0,-60,1077.49,351.48)"
         id="g36"><rect
           id="rect38"
           style="fill:#000000;fill-opacity:1;fill-rule:nonzero"
           transform="matrix(1,0,0,-1,0,1)"
           height="1"
           width="1"
           y="0"
           x="0" /></g><g
         transform="matrix(6,0,0,-60,1377.5,351.48)"
         id="g40"><rect
           id="rect42"
           style="fill:#000000;fill-opacity:1;fill-rule:nonzero"
           transform="matrix(1,0,0,-1,0,1)"
           height="1"
           width="1"
           y="0"
           x="0" /></g><g
         transform="matrix(6,0,0,-60,1677.5,351.48)"
         id="g44"><rect
           id="rect46"
           style="fill:#000000;fill-opacity:1;fill-rule:nonzero"
           transform="matrix(1,0,0,-1,0,1)"
           height="1"
           width="1"
           y="0"
           x="0" /></g><g
         transform="scale(10,10)"
         id="g48"><text
           id="text50"
           style="font-variant:normal;font-weight:normal;font-size:10.90909958px;font-family:CMR10;-inkscape-font-specification:CMR10;writing-mode:lr-tb;fill:#000000;fill-opacity:1;fill-rule:nonzero;stroke:none"
           transform="matrix(1,0,0,-1,15.2398,21.0953)"><tspan
             id="tspan52"
             y="0"
             x="0 25.800785">00</tspan></text>
<text
           id="text54"
           style="font-variant:normal;font-weight:normal;font-size:10.90909958px;font-family:CMMI10;-inkscape-font-specification:CMMI10;writing-mode:lr-tb;fill:#000000;fill-opacity:1;fill-rule:nonzero;stroke:none"
           transform="matrix(1,0,0,-1,46.4406,21.0953)"><tspan
             id="tspan56"
             y="0"
             x="0">.</tspan></text>
<text
           id="text58"
           style="font-variant:normal;font-weight:normal;font-size:10.90909958px;font-family:CMR10;-inkscape-font-specification:CMR10;writing-mode:lr-tb;fill:#000000;fill-opacity:1;fill-rule:nonzero;stroke:none"
           transform="matrix(1,0,0,-1,49.4406,21.0953)"><tspan
             id="tspan60"
             y="0"
             x="0 21.599581">20</tspan></text>
<text
           id="text62"
           style="font-variant:normal;font-weight:normal;font-size:10.90909958px;font-family:CMMI10;-inkscape-font-specification:CMMI10;writing-mode:lr-tb;fill:#000000;fill-opacity:1;fill-rule:nonzero;stroke:none"
           transform="matrix(1,0,0,-1,76.4406,21.0953)"><tspan
             id="tspan64"
             y="0"
             x="0">.</tspan></text>
<text
           id="text66"
           style="font-variant:normal;font-weight:normal;font-size:10.90909958px;font-family:CMR10;-inkscape-font-specification:CMR10;writing-mode:lr-tb;fill:#000000;fill-opacity:1;fill-rule:nonzero;stroke:none"
           transform="matrix(1,0,0,-1,79.4406,21.0953)"><tspan
             id="tspan68"
             y="0"
             x="0 21.600782">40</tspan></text>
<text
           id="text70"
           style="font-variant:normal;font-weight:normal;font-size:10.90909958px;font-family:CMMI10;-inkscape-font-specification:CMMI10;writing-mode:lr-tb;fill:#000000;fill-opacity:1;fill-rule:nonzero;stroke:none"
           transform="matrix(1,0,0,-1,106.4414,21.0953)"><tspan
             id="tspan72"
             y="0"
             x="0">.</tspan></text>
<text
           id="text74"
           style="font-variant:normal;font-weight:normal;font-size:10.90909958px;font-family:CMR10;-inkscape-font-specification:CMR10;writing-mode:lr-tb;fill:#000000;fill-opacity:1;fill-rule:nonzero;stroke:none"
           transform="matrix(1,0,0,-1,109.4414,21.0953)"><tspan
             id="tspan76"
             y="0"
             x="0 21.600782">60</tspan></text>
<text
           id="text78"
           style="font-variant:normal;font-weight:normal;font-size:10.90909958px;font-family:CMMI10;-inkscape-font-specification:CMMI10;writing-mode:lr-tb;fill:#000000;fill-opacity:1;fill-rule:nonzero;stroke:none"
           transform="matrix(1,0,0,-1,136.4422,21.0953)"><tspan
             id="tspan80"
             y="0"
             x="0">.</tspan></text>
<text
           id="text82"
           style="font-variant:normal;font-weight:normal;font-size:10.90909958px;font-family:CMR10;-inkscape-font-specification:CMR10;writing-mode:lr-tb;fill:#000000;fill-opacity:1;fill-rule:nonzero;stroke:none"
           transform="matrix(1,0,0,-1,139.4422,21.0953)"><tspan
             id="tspan84"
             y="0"
             x="0">8</tspan><tspan
             id="tspan86"
             y="-1.26797"
             x="15.3867">1</tspan></text>
<text
           id="text88"
           style="font-variant:normal;font-weight:normal;font-size:10.90909958px;font-family:CMMI10;-inkscape-font-specification:CMMI10;writing-mode:lr-tb;fill:#000000;fill-opacity:1;fill-rule:nonzero;stroke:none"
           transform="matrix(1,0,0,-1,160.2289,22.36327)"><tspan
             id="tspan90"
             y="0"
             x="0">.</tspan></text>
<text
           id="text92"
           style="font-variant:normal;font-weight:normal;font-size:10.90909958px;font-family:CMR10;-inkscape-font-specification:CMR10;writing-mode:lr-tb;fill:#000000;fill-opacity:1;fill-rule:nonzero;stroke:none"
           transform="matrix(1,0,0,-1,163.2289,22.36327)"><tspan
             id="tspan94"
             y="0"
             x="0">0</tspan></text>
</g><path
         id="path96"
         style="fill:none;stroke:#000000;stroke-width:11.95530033;stroke-linecap:butt;stroke-linejoin:miter;stroke-miterlimit:10;stroke-dasharray:none;stroke-opacity:1"
         d="m 180,321.602 0,1636.388" /><g
         transform="matrix(60,0,0,-6,149.88,325.08)"
         id="g98"><rect
           id="rect100"
           style="fill:#000000;fill-opacity:1;fill-rule:nonzero"
           transform="matrix(1,0,0,-1,0,1)"
           height="1"
           width="1"
           y="0"
           x="0" /></g><g
         transform="matrix(60,0,0,-6,149.88,870.547)"
         id="g102"><rect
           id="rect104"
           style="fill:#000000;fill-opacity:1;fill-rule:nonzero"
           transform="matrix(1,0,0,-1,0,1)"
           height="1"
           width="1"
           y="0"
           x="0" /></g><g
         transform="matrix(60,0,0,-6,149.88,1416)"
         id="g106"><rect
           id="rect108"
           style="fill:#000000;fill-opacity:1;fill-rule:nonzero"
           transform="matrix(1,0,0,-1,0,1)"
           height="1"
           width="1"
           y="0"
           x="0" /></g><g
         transform="matrix(60,0,0,-6,149.88,1961.47)"
         id="g110"><rect
           id="rect112"
           style="fill:#000000;fill-opacity:1;fill-rule:nonzero"
           transform="matrix(1,0,0,-1,0,1)"
           height="1"
           width="1"
           y="0"
           x="0" /></g><g
         transform="scale(10,10)"
         id="g114"><text
           id="text116"
           style="font-variant:normal;font-weight:normal;font-size:10.90909958px;font-family:CMR10;-inkscape-font-specification:CMR10;writing-mode:lr-tb;fill:#000000;fill-opacity:1;fill-rule:nonzero;stroke:none"
           transform="matrix(1,0,0,-1,0.0953125,83.2266)"><tspan
             id="tspan118"
             y="0"
             x="0">0</tspan></text>
<text
           id="text120"
           style="font-variant:normal;font-weight:normal;font-size:10.90909958px;font-family:CMMI10;-inkscape-font-specification:CMMI10;writing-mode:lr-tb;fill:#000000;fill-opacity:1;fill-rule:nonzero;stroke:none"
           transform="matrix(1,0,0,-1,5.4953125,83.2266)"><tspan
             id="tspan122"
             y="0"
             x="0">.</tspan></text>
<text
           id="text124"
           style="font-variant:normal;font-weight:normal;font-size:10.90909958px;font-family:CMR10;-inkscape-font-specification:CMR10;writing-mode:lr-tb;fill:#000000;fill-opacity:1;fill-rule:nonzero;stroke:none"
           transform="matrix(1,0,0,-1,8.4953125,83.2266)"><tspan
             id="tspan126"
             y="0"
             x="0">1</tspan><tspan
             id="tspan128"
             y="-54.5457"
             x="-8.3999996">0</tspan></text>
<text
           id="text130"
           style="font-variant:normal;font-weight:normal;font-size:10.90909958px;font-family:CMMI10;-inkscape-font-specification:CMMI10;writing-mode:lr-tb;fill:#000000;fill-opacity:1;fill-rule:nonzero;stroke:none"
           transform="matrix(1,0,0,-1,5.4953125,137.7723)"><tspan
             id="tspan132"
             y="0"
             x="0">.</tspan></text>
<text
           id="text134"
           style="font-variant:normal;font-weight:normal;font-size:10.90909958px;font-family:CMR10;-inkscape-font-specification:CMR10;writing-mode:lr-tb;fill:#000000;fill-opacity:1;fill-rule:nonzero;stroke:none"
           transform="matrix(1,0,0,-1,8.4953125,137.7723)"><tspan
             id="tspan136"
             y="0"
             x="0">2</tspan><tspan
             id="tspan138"
             y="-54.546902"
             x="-8.3999996">0</tspan></text>
<text
           id="text140"
           style="font-variant:normal;font-weight:normal;font-size:10.90909958px;font-family:CMMI10;-inkscape-font-specification:CMMI10;writing-mode:lr-tb;fill:#000000;fill-opacity:1;fill-rule:nonzero;stroke:none"
           transform="matrix(1,0,0,-1,5.4953125,192.3192)"><tspan
             id="tspan142"
             y="0"
             x="0">.</tspan></text>
<text
           id="text144"
           style="font-variant:normal;font-weight:normal;font-size:10.90909958px;font-family:CMR10;-inkscape-font-specification:CMR10;writing-mode:lr-tb;fill:#000000;fill-opacity:1;fill-rule:nonzero;stroke:none"
           transform="matrix(1,0,0,-1,8.4953125,192.3192)"><tspan
             id="tspan146"
             y="0"
             x="0">3</tspan></text>
</g><g
         transform="matrix(122.4,0,0,-106.8,1898.78,321.48)"
         id="g148"><rect
           id="rect150"
           style="fill:#ffffff;fill-opacity:1;fill-rule:nonzero"
           transform="matrix(1,0,0,-1,0,1)"
           height="1"
           width="1"
           y="0"
           x="0" /></g><g
         transform="scale(10,10)"
         id="g152"><text
           id="text154"
           style="font-variant:normal;font-weight:normal;font-size:10.90909958px;font-family:CMMI10;-inkscape-font-specification:CMMI10;writing-mode:lr-tb;fill:#000000;fill-opacity:1;fill-rule:nonzero;stroke:none"
           transform="matrix(1,0,0,-1,192.891,24.4801)"><tspan
             id="tspan156"
             y="0"
             x="0">x</tspan></text>
</g><g
         transform="matrix(117.6,0,0,-128.4,62.2799,2166.38)"
         id="g158"><rect
           id="rect160"
           style="fill:#ffffff;fill-opacity:1;fill-rule:nonzero"
           transform="matrix(1,0,0,-1,0,1)"
           height="1"
           width="1"
           y="0"
           x="0" /></g><g
         transform="scale(10,10)"
         id="g162"><text
           id="text164"
           style="font-variant:normal;font-weight:normal;font-size:10.90909958px;font-family:CMMI10;-inkscape-font-specification:CMMI10;writing-mode:lr-tb;fill:#000000;fill-opacity:1;fill-rule:nonzero;stroke:none"
           transform="matrix(1,0,0,-1,9.23984,208.85)"><tspan
             id="tspan166"
             y="0"
             x="0">y</tspan></text>
</g><path
         id="path168"
         style="fill:none;stroke:#000000;stroke-width:11.95530033;stroke-linecap:butt;stroke-linejoin:miter;stroke-miterlimit:10;stroke-dasharray:none;stroke-opacity:1"
         d="m 180,321.602 1800.02,0" /><path
         id="path170"
         style="fill:none;stroke:#000000;stroke-width:11.95530033;stroke-linecap:butt;stroke-linejoin:miter;stroke-miterlimit:10;stroke-dasharray:none;stroke-opacity:1"
         d="m 180,321.602 0,1800.018" /><g
         transform="scale(10,10)"
         id="g172"><text
           id="text174"
           style="font-variant:normal;font-weight:normal;font-size:11.9552002px;font-family:CMCSC10;-inkscape-font-specification:CMCSC10;writing-mode:lr-tb;fill:#000000;fill-opacity:1;fill-rule:nonzero;stroke:none"
           transform="matrix(1,0,0,-1,85.441,0.0890625)"><tspan
             id="tspan176"
             y="0"
             x="0 8.5141897 12.111581 19.790342 28.065205 34.667984 41.270763">Fig.30.</tspan></text>
</g></g></g></svg>