<?xml version="1.0" encoding="UTF-8" standalone="no"?>
<svg
   xmlns:dc="http://purl.org/dc/elements/1.1/"
   xmlns:cc="http://creativecommons.org/ns#"
   xmlns:rdf="http://www.w3.org/1999/02/22-rdf-syntax-ns#"
   xmlns:svg="http://www.w3.org/2000/svg"
   xmlns="http://www.w3.org/2000/svg"
   viewBox="0 0 232.5 226.25"
   height="226.25"
   width="232.5"
   xml:space="preserve"
   version="1.1"
   id="svg2"><metadata
     id="metadata8"><rdf:RDF><cc:Work
         rdf:about=""><dc:format>image/svg+xml</dc:format><dc:type
           rdf:resource="http://purl.org/dc/dcmitype/StillImage" /></cc:Work></rdf:RDF></metadata><defs
     id="defs6"><clipPath
       id="clipPath12"
       clipPathUnits="userSpaceOnUse"><path
         id="path14"
         d="m -2,-2 186,0 0,181 -186,0 0,-181 z" /></clipPath></defs><g
     clip-path="url(#clipPath12)"
     transform="matrix(1.25,0,0,-1.25,2.5,223.75)"
     id="g10"><g
       transform="scale(0.1,0.1)"
       id="g16"><path
         id="path18"
         style="fill:none;stroke:#000000;stroke-width:11.95530033;stroke-linecap:butt;stroke-linejoin:miter;stroke-miterlimit:10;stroke-dasharray:none;stroke-opacity:1"
         d="m 271.25,1137.23 35.445,-26.87 35.43,-25.5 35.441,-24.11 L 413,1038 l 35.441,-21.35 35.442,-19.986 35.433,-18.602 35.442,-17.226 35.43,-15.852 35.441,-14.468 35.445,-13.098 35.43,-11.711 35.441,-10.34 35.434,-8.953 35.441,-7.582 35.442,-6.195 35.433,-4.832 35.442,-3.442 35.429,-2.062 35.446,-0.696 35.438,0.696 35.43,2.062 35.45,3.442 35.43,4.82 35.44,6.207 35.43,7.582 35.44,8.953 35.45,10.34 35.43,11.711 35.44,13.098 35.44,14.468 35.43,15.852 35.45,17.226 35.43,18.602 35.44,19.986 35.44,21.35 35.43,22.75 35.44,24.11 35.45,25.5 35.43,26.87" /><path
         id="path20"
         style="fill:none;stroke:#000000;stroke-width:11.95530033;stroke-linecap:butt;stroke-linejoin:miter;stroke-miterlimit:10;stroke-dasharray:none;stroke-opacity:1"
         d="M 271.25,1137.23 676.258,822.406" /><path
         id="path22"
         style="fill:#000000;fill-opacity:1;fill-rule:nonzero;stroke:none"
         d="m 668.883,828.141 -37.406,-2.469 44.781,-3.266 -14.207,42.594 6.832,-36.859" /><path
         id="path24"
         style="fill:none;stroke:#000000;stroke-width:11.95530033;stroke-linecap:butt;stroke-linejoin:miter;stroke-miterlimit:10;stroke-dasharray:none;stroke-opacity:1"
         d="m 668.883,828.141 -37.406,-2.469 44.781,-3.266 -14.207,42.594 6.832,-36.859 z" /><path
         id="path26"
         style="fill:none;stroke:#000000;stroke-width:11.95530033;stroke-linecap:butt;stroke-linejoin:miter;stroke-miterlimit:10;stroke-dasharray:none;stroke-opacity:1"
         d="m 1385.02,951.609 405,180.181" /><path
         id="path28"
         style="fill:#000000;fill-opacity:1;fill-rule:nonzero;stroke:none"
         d="m 1781.48,1128 -15.48,-34.15 24.02,37.94 -44.25,7.57 35.71,-11.36" /><path
         id="path30"
         style="fill:none;stroke:#000000;stroke-width:11.95530033;stroke-linecap:butt;stroke-linejoin:miter;stroke-miterlimit:10;stroke-dasharray:none;stroke-opacity:1"
         d="m 1781.48,1128 -15.48,-34.15 24.02,37.94 -44.25,7.57 35.71,-11.36 z" /><g
         transform="scale(10,10)"
         id="g32"><text
           id="text34"
           style="font-variant:normal;font-weight:normal;font-size:10.90909958px;font-family:CMMI10;-inkscape-font-specification:CMMI10;writing-mode:lr-tb;fill:#000000;fill-opacity:1;fill-rule:nonzero;stroke:none"
           transform="matrix(1,0,0,-1,92.1211,90.1453)"><tspan
             id="tspan36"
             y="0"
             x="0">M</tspan></text>
</g><g
         transform="matrix(122.4,0,0,-106.8,513.685,223.733)"
         id="g38"><rect
           id="rect40"
           style="fill:#ffffff;fill-opacity:1;fill-rule:nonzero"
           transform="matrix(1,0,0,-1,0,1)"
           height="1"
           width="1"
           y="0"
           x="0" /></g><g
         transform="scale(10,10)"
         id="g42"><text
           id="text44"
           style="font-variant:normal;font-weight:normal;font-size:10.90909958px;font-family:CMMI10;-inkscape-font-specification:CMMI10;writing-mode:lr-tb;fill:#000000;fill-opacity:1;fill-rule:nonzero;stroke:none"
           transform="matrix(1,0,0,-1,54.3805,14.7055)"><tspan
             id="tspan46"
             y="0"
             x="0">x</tspan></text>
</g><path
         id="path48"
         style="fill:#000000;fill-opacity:1;fill-rule:nonzero;stroke:none"
         d="m 191.172,302.781 1.098,-2.308 1.187,-2.231 1.25,-2.14 1.34,-2.055 1.418,-1.977 1.496,-1.902 1.57,-1.824 1.637,-1.746 1.727,-1.68 1.777,-1.594 1.867,-1.527 1.926,-1.461 1.996,-1.395 2.066,-1.332 2.121,-1.25 2.2,-1.199 2.261,-1.133 2.317,-1.074 2.386,-1.012 2.438,-0.957 2.496,-0.898 2.559,-0.848 2.613,-0.789 2.672,-0.75 2.722,-0.691 2.782,-0.637 2.832,-0.594 2.879,-0.547 2.933,-0.507 2.977,-0.461 3.035,-0.418 3.062,-0.383 3.122,-0.34 3.164,-0.309 3.199,-0.277 3.25,-0.23 3.285,-0.207 3.328,-0.176 3.363,-0.145 3.395,-0.121 3.437,-0.086 3.473,-0.066 3.504,-0.043 3.527,-0.023 3.571,-0.012 3.593,0.023 3.625,0.031 3.661,0.047 3.679,0.067 3.703,0.074 3.723,0.09 3.758,0.097 3.769,0.098 3.789,0.121 3.813,0.11 3.832,0.121 3.848,0.121 3.867,0.121 3.879,0.121 3.886,0.121 3.903,0.121 3.922,0.11 3.922,0.101 3.933,0.098 3.945,0.078 3.942,0.074 3.957,0.067 3.965,0.042 3.957,0.036 3.965,0.011 3.964,-0.011 3.958,-0.024 3.964,-0.054 3.957,-0.067 3.953,-0.098 3.958,-0.132 3.941,-0.141 3.934,-0.188 3.921,-0.21 3.922,-0.243 3.903,-0.285 3.898,-0.304 3.879,-0.352 3.867,-0.398 3.844,-0.426 3.836,-0.473 3.824,-0.516 3.789,-0.55 3.781,-0.606 3.758,-0.66 3.735,-0.703 3.703,-0.746 3.679,-0.801 3.657,-0.859 3.636,-0.91 3.606,-0.965 3.57,-1.035 3.539,-1.086 3.516,-1.145 3.469,-1.207 3.441,-1.273 3.406,-1.34 3.371,-1.41 3.328,-1.469 3.297,-1.551 3.25,-1.613 3.223,-1.696 3.164,-1.757 3.129,-1.844 3.078,-1.91 3.031,-2 2.989,-2.078 2.945,-2.164 2.887,-2.243 2.836,-2.328 2.789,-2.418 2.738,-2.492 2.68,-2.594 2.625,-2.691 2.57,-2.77 2.57,2.77 2.629,2.691 2.68,2.594 2.734,2.492 2.793,2.418 2.832,2.328 2.891,2.243 2.945,2.164 2.988,2.078 3.032,2 3.074,1.91 3.133,1.844 3.164,1.757 3.219,1.696 3.253,1.613 3.293,1.551 3.332,1.469 3.372,1.41 3.406,1.34 3.437,1.273 3.473,1.207 3.516,1.145 3.539,1.086 3.57,1.035 3.601,0.965 3.637,0.91 3.66,0.859 3.68,0.801 3.703,0.746 3.735,0.703 3.757,0.66 3.778,0.606 3.793,0.55 3.82,0.516 3.836,0.473 3.844,0.426 3.867,0.398 3.879,0.352 3.902,0.304 3.899,0.285 3.921,0.243 3.922,0.21 3.934,0.188 3.945,0.141 3.953,0.132 3.957,0.098 3.953,0.067 3.969,0.054 3.953,0.024 3.969,0.011 3.965,-0.011 3.957,-0.036 3.965,-0.042 3.953,-0.067 3.945,-0.074 3.946,-0.078 3.933,-0.098 3.922,-0.101 3.922,-0.11 3.898,-0.121 3.891,-0.121 3.879,-0.121 3.867,-0.121 3.844,-0.121 3.836,-0.121 3.812,-0.11 3.789,-0.121 3.77,-0.098 3.758,-0.097 3.722,-0.09 3.703,-0.074 3.68,-0.067 3.66,-0.047 3.625,-0.031 3.59,-0.023 3.57,0.012 3.528,0.023 3.504,0.043 3.472,0.066 3.442,0.086 3.394,0.121 3.36,0.145 3.332,0.176 3.281,0.207 3.254,0.23 3.195,0.277 3.164,0.309 3.121,0.34 3.067,0.383 3.031,0.418 2.977,0.461 2.933,0.507 2.879,0.547 2.836,0.594 2.777,0.637 2.715,0.691 2.68,0.75 2.617,0.789 2.559,0.848 2.496,0.898 2.437,0.957 2.383,1.012 2.32,1.074 2.262,1.133 2.188,1.199 2.128,1.25 2.067,1.332 2,1.395 1.933,1.461 1.856,1.527 1.781,1.594 1.727,1.68 1.636,1.746 1.571,1.824 1.492,1.902 1.418,1.977 1.34,2.055 1.254,2.14 1.187,2.231 1.098,2.308 -1.617,-3.23 -1.692,-3.121 -1.746,-3.008 -1.801,-2.891 -1.879,-2.781 -1.921,-2.68 -1.989,-2.57 -2.047,-2.461 -2.109,-2.363 -2.152,-2.262 -2.219,-2.156 -2.262,-2.063 -2.332,-1.98 -2.371,-1.867 -2.43,-1.789 -2.468,-1.692 -2.528,-1.617 -2.57,-1.516 -2.629,-1.437 -2.668,-1.352 -2.715,-1.285 -2.757,-1.199 -2.813,-1.121 -2.832,-1.043 -2.891,-0.977 -2.933,-0.902 -2.965,-0.836 -3.012,-0.766 -3.043,-0.703 -3.086,-0.64 -3.121,-0.582 -3.152,-0.516 -3.199,-0.461 -3.219,-0.406 -3.25,-0.352 -3.297,-0.297 -3.32,-0.254 -3.34,-0.195 -3.383,-0.156 -3.406,-0.109 -3.426,-0.075 -3.461,-0.023 -3.484,0.012 -3.504,0.043 -3.528,0.086 -3.546,0.121 -3.571,0.144 -3.594,0.176 -3.613,0.207 -3.637,0.23 -3.648,0.254 -3.66,0.285 -3.68,0.297 -3.691,0.309 -3.715,0.328 -3.711,0.352 -3.734,0.363 -3.746,0.363 -3.75,0.383 -3.766,0.387 -3.77,0.383 -3.777,0.398 -3.781,0.394 -3.789,0.395 -3.793,0.395 -3.789,0.386 -3.801,0.383 -3.801,0.375 -3.801,0.363 -3.793,0.352 -3.8,0.34 -3.789,0.316 -3.793,0.309 -3.789,0.285 -3.778,0.266 -3.781,0.242 -3.77,0.219 -3.754,0.187 -3.757,0.164 -3.739,0.133 -3.734,0.098 -3.711,0.054 -3.703,0.031 -3.691,-0.007 -3.684,-0.055 -3.656,-0.09 -3.649,-0.133 -3.625,-0.187 -3.601,-0.219 -3.594,-0.285 -3.57,-0.328 -3.551,-0.375 -3.516,-0.438 -3.504,-0.496 -3.472,-0.551 -3.461,-0.613 -3.426,-0.68 -3.395,-0.738 -3.375,-0.801 -3.339,-0.879 -3.305,-0.945 -3.285,-1.012 -3.254,-1.085 -3.219,-1.165 -3.176,-1.242 -3.152,-1.32 -3.109,-1.406 -3.075,-1.481 -3.043,-1.574 -3,-1.656 -2.957,-1.75 -2.922,-1.832 -2.878,-1.934 -2.844,-2.023 -2.793,-2.121 -2.746,-2.207 -2.711,-2.317 -2.66,-2.43 -2.614,-2.515 -2.562,-2.625 -2.559,2.625 -2.613,2.515 -2.66,2.43 -2.715,2.317 -2.746,2.207 -2.789,2.121 -2.848,2.023 -2.879,1.934 -2.922,1.832 -2.953,1.75 -3,1.656 -3.043,1.574 -3.078,1.481 -3.109,1.406 -3.152,1.32 -3.176,1.242 -3.219,1.165 -3.25,1.085 -3.285,1.012 -3.309,0.945 -3.34,0.879 -3.371,0.801 -3.394,0.738 -3.43,0.68 -3.461,0.613 -3.473,0.551 -3.503,0.496 -3.516,0.438 -3.547,0.375 -3.57,0.328 -3.594,0.285 -3.605,0.219 -3.625,0.187 -3.645,0.133 -3.66,0.09 -3.68,0.055 -3.691,0.007 -3.703,-0.031 -3.715,-0.054 -3.735,-0.098 -3.734,-0.133 -3.758,-0.164 -3.758,-0.187 -3.769,-0.219 -3.777,-0.242 -3.782,-0.266 -3.789,-0.285 -3.789,-0.309 -3.793,-0.316 -3.801,-0.34 -3.789,-0.352 -3.8,-0.363 -3.801,-0.375 -3.805,-0.383 -3.789,-0.386 -3.789,-0.395 -3.789,-0.395 -3.781,-0.394 -3.782,-0.398 -3.765,-0.383 -3.77,-0.387 -3.746,-0.383 -3.746,-0.363 -3.734,-0.363 -3.715,-0.352 -3.715,-0.328 -3.691,-0.309 -3.68,-0.297 -3.656,-0.285 -3.649,-0.254 -3.637,-0.23 -3.613,-0.207 -3.594,-0.176 -3.57,-0.144 -3.551,-0.121 -3.523,-0.086 -3.508,-0.043 -3.48,-0.012 -3.461,0.023 -3.43,0.075 -3.406,0.109 -3.383,0.156 -3.34,0.195 -3.316,0.254 -3.297,0.297 -3.254,0.352 -3.219,0.406 -3.195,0.461 -3.152,0.516 -3.122,0.582 -3.086,0.64 -3.042,0.703 -3.012,0.766 -2.965,0.836 -2.934,0.902 -2.89,0.977 -2.848,1.043 -2.801,1.121 -2.758,1.199 -2.71,1.285 -2.672,1.352 -2.625,1.437 -2.571,1.516 -2.527,1.617 -2.473,1.692 -2.425,1.789 -2.375,1.867 -2.329,1.98 -2.265,2.063 -2.219,2.156 -2.152,2.262 -2.11,2.363 -2.043,2.461 -1.988,2.57 -1.933,2.68 -1.868,2.781 -1.804,2.891 -1.746,3.008 -1.692,3.121 -1.613,3.23" /><path
         id="path50"
         style="fill:none;stroke:#000000;stroke-width:3.9849999;stroke-linecap:butt;stroke-linejoin:miter;stroke-miterlimit:10;stroke-dasharray:none;stroke-opacity:1"
         d="m 191.172,302.781 1.098,-2.308 1.187,-2.231 1.25,-2.14 1.34,-2.055 1.418,-1.977 1.496,-1.902 1.57,-1.824 1.637,-1.746 1.727,-1.68 1.777,-1.594 1.867,-1.527 1.926,-1.461 1.996,-1.395 2.066,-1.332 2.121,-1.25 2.2,-1.199 2.261,-1.133 2.317,-1.074 2.386,-1.012 2.438,-0.957 2.496,-0.898 2.559,-0.848 2.613,-0.789 2.672,-0.75 2.722,-0.691 2.782,-0.637 2.832,-0.594 2.879,-0.547 2.933,-0.507 2.977,-0.461 3.035,-0.418 3.062,-0.383 3.122,-0.34 3.164,-0.309 3.199,-0.277 3.25,-0.23 3.285,-0.207 3.328,-0.176 3.363,-0.145 3.395,-0.121 3.437,-0.086 3.473,-0.066 3.504,-0.043 3.527,-0.023 3.571,-0.012 3.593,0.023 3.625,0.031 3.661,0.047 3.679,0.067 3.703,0.074 3.723,0.09 3.758,0.097 3.769,0.098 3.789,0.121 3.813,0.11 3.832,0.121 3.848,0.121 3.867,0.121 3.879,0.121 3.886,0.121 3.903,0.121 3.922,0.11 3.922,0.101 3.933,0.098 3.945,0.078 3.942,0.074 3.957,0.067 3.965,0.042 3.957,0.036 3.965,0.011 3.964,-0.011 3.958,-0.024 3.964,-0.054 3.957,-0.067 3.953,-0.098 3.958,-0.132 3.941,-0.141 3.934,-0.188 3.921,-0.21 3.922,-0.243 3.903,-0.285 3.898,-0.304 3.879,-0.352 3.867,-0.398 3.844,-0.426 3.836,-0.473 3.824,-0.516 3.789,-0.55 3.781,-0.606 3.758,-0.66 3.735,-0.703 3.703,-0.746 3.679,-0.801 3.657,-0.859 3.636,-0.91 3.606,-0.965 3.57,-1.035 3.539,-1.086 3.516,-1.145 3.469,-1.207 3.441,-1.273 3.406,-1.34 3.371,-1.41 3.328,-1.469 3.297,-1.551 3.25,-1.613 3.223,-1.696 3.164,-1.757 3.129,-1.844 3.078,-1.91 3.031,-2 2.989,-2.078 2.945,-2.164 2.887,-2.243 2.836,-2.328 2.789,-2.418 2.738,-2.492 2.68,-2.594 2.625,-2.691 2.57,-2.77 2.57,2.77 2.629,2.691 2.68,2.594 2.734,2.492 2.793,2.418 2.832,2.328 2.891,2.243 2.945,2.164 2.988,2.078 3.032,2 3.074,1.91 3.133,1.844 3.164,1.757 3.219,1.696 3.253,1.613 3.293,1.551 3.332,1.469 3.372,1.41 3.406,1.34 3.437,1.273 3.473,1.207 3.516,1.145 3.539,1.086 3.57,1.035 3.601,0.965 3.637,0.91 3.66,0.859 3.68,0.801 3.703,0.746 3.735,0.703 3.757,0.66 3.778,0.606 3.793,0.55 3.82,0.516 3.836,0.473 3.844,0.426 3.867,0.398 3.879,0.352 3.902,0.304 3.899,0.285 3.921,0.243 3.922,0.21 3.934,0.188 3.945,0.141 3.953,0.132 3.957,0.098 3.953,0.067 3.969,0.054 3.953,0.024 3.969,0.011 3.965,-0.011 3.957,-0.036 3.965,-0.042 3.953,-0.067 3.945,-0.074 3.946,-0.078 3.933,-0.098 3.922,-0.101 3.922,-0.11 3.898,-0.121 3.891,-0.121 3.879,-0.121 3.867,-0.121 3.844,-0.121 3.836,-0.121 3.812,-0.11 3.789,-0.121 3.77,-0.098 3.758,-0.097 3.722,-0.09 3.703,-0.074 3.68,-0.067 3.66,-0.047 3.625,-0.031 3.59,-0.023 3.57,0.012 3.528,0.023 3.504,0.043 3.472,0.066 3.442,0.086 3.394,0.121 3.36,0.145 3.332,0.176 3.281,0.207 3.254,0.23 3.195,0.277 3.164,0.309 3.121,0.34 3.067,0.383 3.031,0.418 2.977,0.461 2.933,0.507 2.879,0.547 2.836,0.594 2.777,0.637 2.715,0.691 2.68,0.75 2.617,0.789 2.559,0.848 2.496,0.898 2.437,0.957 2.383,1.012 2.32,1.074 2.262,1.133 2.188,1.199 2.128,1.25 2.067,1.332 2,1.395 1.933,1.461 1.856,1.527 1.781,1.594 1.727,1.68 1.636,1.746 1.571,1.824 1.492,1.902 1.418,1.977 1.34,2.055 1.254,2.14 1.187,2.231 1.098,2.308 -1.617,-3.23 -1.692,-3.121 -1.746,-3.008 -1.801,-2.891 -1.879,-2.781 -1.921,-2.68 -1.989,-2.57 -2.047,-2.461 -2.109,-2.363 -2.152,-2.262 -2.219,-2.156 -2.262,-2.063 -2.332,-1.98 -2.371,-1.867 -2.43,-1.789 -2.468,-1.692 -2.528,-1.617 -2.57,-1.516 -2.629,-1.437 -2.668,-1.352 -2.715,-1.285 -2.757,-1.199 -2.813,-1.121 -2.832,-1.043 -2.891,-0.977 -2.933,-0.902 -2.965,-0.836 -3.012,-0.766 -3.043,-0.703 -3.086,-0.64 -3.121,-0.582 -3.152,-0.516 -3.199,-0.461 -3.219,-0.406 -3.25,-0.352 -3.297,-0.297 -3.32,-0.254 -3.34,-0.195 -3.383,-0.156 -3.406,-0.109 -3.426,-0.075 -3.461,-0.023 -3.484,0.012 -3.504,0.043 -3.528,0.086 -3.546,0.121 -3.571,0.144 -3.594,0.176 -3.613,0.207 -3.637,0.23 -3.648,0.254 -3.66,0.285 -3.68,0.297 -3.691,0.309 -3.715,0.328 -3.711,0.352 -3.734,0.363 -3.746,0.363 -3.75,0.383 -3.766,0.387 -3.77,0.383 -3.777,0.398 -3.781,0.394 -3.789,0.395 -3.793,0.395 -3.789,0.386 -3.801,0.383 -3.801,0.375 -3.801,0.363 -3.793,0.352 -3.8,0.34 -3.789,0.316 -3.793,0.309 -3.789,0.285 -3.778,0.266 -3.781,0.242 -3.77,0.219 -3.754,0.187 -3.757,0.164 -3.739,0.133 -3.734,0.098 -3.711,0.054 -3.703,0.031 -3.691,-0.007 -3.684,-0.055 -3.656,-0.09 -3.649,-0.133 -3.625,-0.187 -3.601,-0.219 -3.594,-0.285 -3.57,-0.328 -3.551,-0.375 -3.516,-0.438 -3.504,-0.496 -3.472,-0.551 -3.461,-0.613 -3.426,-0.68 -3.395,-0.738 -3.375,-0.801 -3.339,-0.879 -3.305,-0.945 -3.285,-1.012 -3.254,-1.085 -3.219,-1.165 -3.176,-1.242 -3.152,-1.32 -3.109,-1.406 -3.075,-1.481 -3.043,-1.574 -3,-1.656 -2.957,-1.75 -2.922,-1.832 -2.878,-1.934 -2.844,-2.023 -2.793,-2.121 -2.746,-2.207 -2.711,-2.317 -2.66,-2.43 -2.614,-2.515 -2.562,-2.625 -2.559,2.625 -2.613,2.515 -2.66,2.43 -2.715,2.317 -2.746,2.207 -2.789,2.121 -2.848,2.023 -2.879,1.934 -2.922,1.832 -2.953,1.75 -3,1.656 -3.043,1.574 -3.078,1.481 -3.109,1.406 -3.152,1.32 -3.176,1.242 -3.219,1.165 -3.25,1.085 -3.285,1.012 -3.309,0.945 -3.34,0.879 -3.371,0.801 -3.394,0.738 -3.43,0.68 -3.461,0.613 -3.473,0.551 -3.503,0.496 -3.516,0.438 -3.547,0.375 -3.57,0.328 -3.594,0.285 -3.605,0.219 -3.625,0.187 -3.645,0.133 -3.66,0.09 -3.68,0.055 -3.691,0.007 -3.703,-0.031 -3.715,-0.054 -3.735,-0.098 -3.734,-0.133 -3.758,-0.164 -3.758,-0.187 -3.769,-0.219 -3.777,-0.242 -3.782,-0.266 -3.789,-0.285 -3.789,-0.309 -3.793,-0.316 -3.801,-0.34 -3.789,-0.352 -3.8,-0.363 -3.801,-0.375 -3.805,-0.383 -3.789,-0.386 -3.789,-0.395 -3.789,-0.395 -3.781,-0.394 -3.782,-0.398 -3.765,-0.383 -3.77,-0.387 -3.746,-0.383 -3.746,-0.363 -3.734,-0.363 -3.715,-0.352 -3.715,-0.328 -3.691,-0.309 -3.68,-0.297 -3.656,-0.285 -3.649,-0.254 -3.637,-0.23 -3.613,-0.207 -3.594,-0.176 -3.57,-0.144 -3.551,-0.121 -3.523,-0.086 -3.508,-0.043 -3.48,-0.012 -3.461,0.023 -3.43,0.075 -3.406,0.109 -3.383,0.156 -3.34,0.195 -3.316,0.254 -3.297,0.297 -3.254,0.352 -3.219,0.406 -3.195,0.461 -3.152,0.516 -3.122,0.582 -3.086,0.64 -3.042,0.703 -3.012,0.766 -2.965,0.836 -2.934,0.902 -2.89,0.977 -2.848,1.043 -2.801,1.121 -2.758,1.199 -2.71,1.285 -2.672,1.352 -2.625,1.437 -2.571,1.516 -2.527,1.617 -2.473,1.692 -2.425,1.789 -2.375,1.867 -2.329,1.98 -2.265,2.063 -2.219,2.156 -2.152,2.262 -2.11,2.363 -2.043,2.461 -1.988,2.57 -1.933,2.68 -1.868,2.781 -1.804,2.891 -1.746,3.008 -1.692,3.121 -1.613,3.23 z" /><g
         transform="matrix(386.4,0,0,-159.6,1125.42,671.883)"
         id="g52"><rect
           id="rect54"
           style="fill:#ffffff;fill-opacity:1;fill-rule:nonzero"
           transform="matrix(1,0,0,-1,0,1)"
           height="1"
           width="1"
           y="0"
           x="0" /></g><g
         transform="scale(10,10)"
         id="g56"><text
           id="text58"
           style="font-variant:normal;font-weight:normal;font-size:10.90909958px;font-family:CMMI10;-inkscape-font-specification:CMMI10;writing-mode:lr-tb;fill:#000000;fill-opacity:1;fill-rule:nonzero;stroke:none"
           transform="matrix(1,0,0,-1,115.555,56.2805)"><tspan
             id="tspan60"
             y="0"
             x="0">y</tspan></text>
<text
           id="text62"
           style="font-variant:normal;font-weight:normal;font-size:11.9552002px;font-family:CMTI12;-inkscape-font-specification:CMTI12;writing-mode:lr-tb;fill:#000000;fill-opacity:1;fill-rule:nonzero;stroke:none"
           transform="matrix(1,0,0,-1,125.155,56.2805)"><tspan
             id="tspan64"
             y="0"
             x="0 9.6000252 13.200038">min</tspan></text>
<text
           id="text66"
           style="font-variant:normal;font-weight:normal;font-size:11.9552002px;font-family:CMR12;-inkscape-font-specification:CMR12;writing-mode:lr-tb;fill:#000000;fill-opacity:1;fill-rule:nonzero;stroke:none"
           transform="matrix(1,0,0,-1,144.955,56.2805)"><tspan
             id="tspan68"
             y="0"
             x="0">.</tspan></text>
</g><path
         id="path70"
         style="fill:#000000;fill-opacity:1;fill-rule:nonzero;stroke:none"
         d="m 1001.18,340.418 2.59,0.957 2.51,1 2.4,1.023 2.32,1.063 2.23,1.101 2.15,1.129 2.04,1.168 1.98,1.196 1.87,1.23 1.81,1.254 1.71,1.297 1.65,1.328 1.57,1.352 1.48,1.382 1.42,1.418 1.34,1.442 1.29,1.469 1.19,1.507 1.16,1.528 1.06,1.558 1.03,1.582 0.94,1.614 0.89,1.64 0.83,1.668 0.79,1.692 0.71,1.714 0.67,1.747 0.62,1.757 0.57,1.793 0.51,1.813 0.49,1.844 0.41,1.855 0.4,1.879 0.34,1.914 0.31,1.922 0.26,1.945 0.23,1.965 0.2,1.988 0.16,2.012 0.14,2.031 0.09,2.043 0.08,2.067 0.04,2.09 0.04,2.109 0,2.117 -0.01,2.133 -0.05,2.152 -0.05,2.176 -0.07,2.188 -0.09,2.195 -0.09,2.223 -0.11,2.226 -0.12,2.254 -0.13,2.254 -0.13,2.273 -0.13,2.285 -0.14,2.305 -0.15,2.309 -0.13,2.32 -0.13,2.34 -0.13,2.34 -0.12,2.359 -0.12,2.363 -0.1,2.375 -0.1,2.395 -0.09,2.394 -0.06,2.395 -0.06,2.418 -0.02,2.418 -0.02,2.426 0.01,2.429 0.03,2.438 0.04,2.449 0.09,2.449 0.11,2.453 0.14,2.461 0.17,2.461 0.2,2.469 0.24,2.473 0.28,2.484 0.31,2.473 0.35,2.48 0.4,2.485 0.44,2.484 0.48,2.48 0.53,2.497 0.58,2.48 0.63,2.484 0.68,2.493 0.74,2.484 0.77,2.484 0.86,2.481 0.9,2.472 0.96,2.485 1.03,2.473 1.09,2.468 1.15,2.461 1.22,2.473 1.3,2.449 1.36,2.461 1.43,2.441 1.52,2.438 1.57,2.441 1.67,2.426 1.72,2.43 1.83,2.406 1.9,2.406 1.99,2.395 2.06,2.394 2.16,2.371 2.25,2.375 2.34,2.364 2.42,2.351 2.53,2.34 2.62,2.317 2.71,2.316 2.81,2.309 2.92,2.285 3.02,2.285 3.13,2.262 -3.13,2.265 -3.02,2.285 -2.92,2.286 -2.81,2.308 -2.71,2.316 -2.62,2.317 -2.53,2.34 -2.42,2.351 -2.34,2.364 -2.25,2.375 -2.16,2.371 -2.06,2.394 -1.99,2.395 -1.9,2.406 -1.83,2.406 -1.72,2.43 -1.67,2.426 -1.57,2.441 -1.52,2.438 -1.43,2.441 -1.36,2.461 -1.3,2.449 -1.22,2.473 -1.15,2.461 -1.09,2.469 -1.03,2.472 -0.96,2.485 -0.9,2.472 -0.86,2.481 -0.77,2.484 -0.74,2.484 -0.68,2.493 -0.63,2.484 -0.58,2.48 -0.53,2.497 -0.48,2.48 -0.44,2.484 -0.4,2.485 -0.35,2.48 -0.31,2.473 -0.28,2.484 -0.24,2.469 -0.2,2.473 -0.17,2.461 -0.14,2.461 -0.11,2.453 -0.09,2.449 -0.04,2.449 -0.03,2.438 -0.01,2.429 0.02,2.426 0.02,2.418 0.06,2.418 0.06,2.395 0.09,2.394 0.1,2.395 0.1,2.375 0.12,2.363 0.12,2.359 0.13,2.34 0.13,2.34 0.13,2.32 0.15,2.305 0.14,2.309 0.13,2.285 0.13,2.273 0.13,2.254 0.12,2.25 0.11,2.231 0.09,2.222 0.09,2.196 0.07,2.187 0.05,2.176 0.05,2.152 0.01,2.133 0,2.117 -0.04,2.109 -0.04,2.09 -0.08,2.063 -0.09,2.047 -0.14,2.031 -0.16,2.012 -0.2,1.988 -0.23,1.965 -0.26,1.945 -0.31,1.922 -0.34,1.914 -0.4,1.879 -0.41,1.855 -0.49,1.844 -0.51,1.813 -0.57,1.793 -0.62,1.757 -0.67,1.747 -0.71,1.714 -0.79,1.692 -0.83,1.668 -0.89,1.637 -0.94,1.617 -1.03,1.582 -1.06,1.558 -1.16,1.528 -1.19,1.507 -1.29,1.469 -1.34,1.442 -1.42,1.418 -1.48,1.382 -1.57,1.352 -1.65,1.328 -1.71,1.297 -1.81,1.254 -1.87,1.23 -1.98,1.196 -2.04,1.168 -2.15,1.129 -2.23,1.097 -2.32,1.067 -2.4,1.023 -2.51,1 -2.59,0.953 3.64,-1.414 3.51,-1.441 3.39,-1.461 3.25,-1.485 3.13,-1.504 3.01,-1.515 2.89,-1.539 2.77,-1.547 2.66,-1.57 2.53,-1.594 2.44,-1.617 2.32,-1.625 2.21,-1.637 2.11,-1.672 2.01,-1.668 1.91,-1.703 1.81,-1.715 1.71,-1.723 1.63,-1.75 1.52,-1.757 1.43,-1.766 1.35,-1.793 1.27,-1.812 1.17,-1.825 1.1,-1.832 1.02,-1.847 0.93,-1.868 0.87,-1.878 0.79,-1.891 0.72,-1.91 0.65,-1.922 0.58,-1.934 0.53,-1.945 0.44,-1.957 0.4,-1.977 0.34,-1.988 0.29,-1.988 0.22,-2.012 0.17,-2.019 0.14,-2.036 0.06,-2.043 0.03,-2.054 -0.01,-2.067 -0.05,-2.074 -0.1,-2.086 -0.12,-2.101 -0.18,-2.11 -0.2,-2.121 -0.23,-2.117 -0.26,-2.145 -0.28,-2.14 -0.31,-2.156 -0.34,-2.164 -0.35,-2.172 -0.38,-2.176 -0.38,-2.188 -0.41,-2.199 -0.42,-2.207 -0.43,-2.207 -0.43,-2.219 -0.43,-2.23 -0.46,-2.231 -0.43,-2.242 -0.45,-2.242 -0.43,-2.25 -0.44,-2.266 -0.43,-2.261 -0.42,-2.262 -0.42,-2.277 -0.39,-2.286 -0.39,-2.285 -0.35,-2.285 -0.35,-2.293 -0.32,-2.297 -0.29,-2.308 -0.28,-2.309 -0.24,-2.305 -0.21,-2.308 -0.19,-2.317 -0.14,-2.32 -0.11,-2.328 -0.08,-2.316 -0.03,-2.332 0.01,-2.329 0.06,-2.328 0.11,-2.328 0.14,-2.344 0.21,-2.328 0.25,-2.34 0.32,-2.339 0.37,-2.328 0.43,-2.34 0.49,-2.34 0.55,-2.34 0.62,-2.34 0.69,-2.332 0.76,-2.34 0.84,-2.34 0.91,-2.328 0.98,-2.328 1.06,-2.34 1.13,-2.332 1.23,-2.328 1.31,-2.316 1.4,-2.332 1.49,-2.317 1.57,-2.32 1.67,-2.316 1.78,-2.309 1.86,-2.305 1.97,-2.308 2.06,-2.297 2.17,-2.297 2.28,-2.293 2.38,-2.285 2.48,-2.285 2.62,-2.278 2.71,-2.273 2.84,-2.262 2.97,-2.265 -2.97,-2.262 -2.84,-2.262 -2.71,-2.273 -2.62,-2.278 -2.48,-2.285 -2.38,-2.285 -2.28,-2.297 -2.17,-2.293 -2.06,-2.297 -1.97,-2.308 -1.86,-2.305 -1.78,-2.309 -1.67,-2.316 -1.57,-2.32 -1.49,-2.317 -1.4,-2.332 -1.31,-2.316 -1.23,-2.328 -1.13,-2.332 -1.06,-2.34 -0.98,-2.328 -0.91,-2.328 -0.84,-2.34 -0.76,-2.34 -0.69,-2.332 -0.62,-2.34 -0.55,-2.34 -0.49,-2.34 -0.43,-2.339 -0.37,-2.329 -0.32,-2.339 -0.25,-2.34 -0.21,-2.332 -0.14,-2.34 -0.11,-2.328 -0.06,-2.328 -0.01,-2.329 0.03,-2.332 0.08,-2.316 0.11,-2.328 0.14,-2.32 0.19,-2.317 0.21,-2.308 0.24,-2.305 0.28,-2.309 0.29,-2.308 0.32,-2.297 0.35,-2.293 0.35,-2.285 0.39,-2.285 0.39,-2.286 0.42,-2.277 0.42,-2.262 0.43,-2.261 0.44,-2.266 0.43,-2.25 0.45,-2.242 0.43,-2.242 0.46,-2.231 0.43,-2.23 0.43,-2.219 0.43,-2.207 0.42,-2.211 0.41,-2.195 0.38,-2.188 0.38,-2.176 0.35,-2.171 0.34,-2.168 0.31,-2.153 0.28,-2.14 0.26,-2.145 0.23,-2.117 0.2,-2.121 0.18,-2.11 0.12,-2.101 0.1,-2.086 0.05,-2.074 0.01,-2.067 -0.03,-2.054 -0.06,-2.043 -0.14,-2.036 -0.17,-2.019 -0.22,-2.012 -0.29,-1.988 -0.34,-1.988 -0.4,-1.977 -0.44,-1.957 -0.53,-1.945 -0.58,-1.934 -0.65,-1.922 -0.72,-1.91 -0.79,-1.891 -0.87,-1.878 -0.93,-1.868 -1.02,-1.847 -1.1,-1.832 -1.17,-1.825 -1.27,-1.812 -1.35,-1.793 -1.43,-1.77 -1.52,-1.753 -1.63,-1.75 -1.71,-1.723 -1.81,-1.715 -1.91,-1.703 -2.01,-1.668 -2.11,-1.672 -2.21,-1.637 -2.32,-1.625 -2.44,-1.617 -2.53,-1.594 -2.66,-1.57 -2.77,-1.547 -2.89,-1.539 -3.01,-1.515 -3.13,-1.504 -3.25,-1.485 -3.39,-1.461 -3.51,-1.441 -3.64,-1.418" /><path
         id="path72"
         style="fill:none;stroke:#000000;stroke-width:3.9849999;stroke-linecap:butt;stroke-linejoin:miter;stroke-miterlimit:10;stroke-dasharray:none;stroke-opacity:1"
         d="m 1001.18,340.418 2.59,0.957 2.51,1 2.4,1.023 2.32,1.063 2.23,1.101 2.15,1.129 2.04,1.168 1.98,1.196 1.87,1.23 1.81,1.254 1.71,1.297 1.65,1.328 1.57,1.352 1.48,1.382 1.42,1.418 1.34,1.442 1.29,1.469 1.19,1.507 1.16,1.528 1.06,1.558 1.03,1.582 0.94,1.614 0.89,1.64 0.83,1.668 0.79,1.692 0.71,1.714 0.67,1.747 0.62,1.757 0.57,1.793 0.51,1.813 0.49,1.844 0.41,1.855 0.4,1.879 0.34,1.914 0.31,1.922 0.26,1.945 0.23,1.965 0.2,1.988 0.16,2.012 0.14,2.031 0.09,2.043 0.08,2.067 0.04,2.09 0.04,2.109 0,2.117 -0.01,2.133 -0.05,2.152 -0.05,2.176 -0.07,2.188 -0.09,2.195 -0.09,2.223 -0.11,2.226 -0.12,2.254 -0.13,2.254 -0.13,2.273 -0.13,2.285 -0.14,2.305 -0.15,2.309 -0.13,2.32 -0.13,2.34 -0.13,2.34 -0.12,2.359 -0.12,2.363 -0.1,2.375 -0.1,2.395 -0.09,2.394 -0.06,2.395 -0.06,2.418 -0.02,2.418 -0.02,2.426 0.01,2.429 0.03,2.438 0.04,2.449 0.09,2.449 0.11,2.453 0.14,2.461 0.17,2.461 0.2,2.469 0.24,2.473 0.28,2.484 0.31,2.473 0.35,2.48 0.4,2.485 0.44,2.484 0.48,2.48 0.53,2.497 0.58,2.48 0.63,2.484 0.68,2.493 0.74,2.484 0.77,2.484 0.86,2.481 0.9,2.472 0.96,2.485 1.03,2.473 1.09,2.468 1.15,2.461 1.22,2.473 1.3,2.449 1.36,2.461 1.43,2.441 1.52,2.438 1.57,2.441 1.67,2.426 1.72,2.43 1.83,2.406 1.9,2.406 1.99,2.395 2.06,2.394 2.16,2.371 2.25,2.375 2.34,2.364 2.42,2.351 2.53,2.34 2.62,2.317 2.71,2.316 2.81,2.309 2.92,2.285 3.02,2.285 3.13,2.262 -3.13,2.265 -3.02,2.285 -2.92,2.286 -2.81,2.308 -2.71,2.316 -2.62,2.317 -2.53,2.34 -2.42,2.351 -2.34,2.364 -2.25,2.375 -2.16,2.371 -2.06,2.394 -1.99,2.395 -1.9,2.406 -1.83,2.406 -1.72,2.43 -1.67,2.426 -1.57,2.441 -1.52,2.438 -1.43,2.441 -1.36,2.461 -1.3,2.449 -1.22,2.473 -1.15,2.461 -1.09,2.469 -1.03,2.472 -0.96,2.485 -0.9,2.472 -0.86,2.481 -0.77,2.484 -0.74,2.484 -0.68,2.493 -0.63,2.484 -0.58,2.48 -0.53,2.497 -0.48,2.48 -0.44,2.484 -0.4,2.485 -0.35,2.48 -0.31,2.473 -0.28,2.484 -0.24,2.469 -0.2,2.473 -0.17,2.461 -0.14,2.461 -0.11,2.453 -0.09,2.449 -0.04,2.449 -0.03,2.438 -0.01,2.429 0.02,2.426 0.02,2.418 0.06,2.418 0.06,2.395 0.09,2.394 0.1,2.395 0.1,2.375 0.12,2.363 0.12,2.359 0.13,2.34 0.13,2.34 0.13,2.32 0.15,2.305 0.14,2.309 0.13,2.285 0.13,2.273 0.13,2.254 0.12,2.25 0.11,2.231 0.09,2.222 0.09,2.196 0.07,2.187 0.05,2.176 0.05,2.152 0.01,2.133 0,2.117 -0.04,2.109 -0.04,2.09 -0.08,2.063 -0.09,2.047 -0.14,2.031 -0.16,2.012 -0.2,1.988 -0.23,1.965 -0.26,1.945 -0.31,1.922 -0.34,1.914 -0.4,1.879 -0.41,1.855 -0.49,1.844 -0.51,1.813 -0.57,1.793 -0.62,1.757 -0.67,1.747 -0.71,1.714 -0.79,1.692 -0.83,1.668 -0.89,1.637 -0.94,1.617 -1.03,1.582 -1.06,1.558 -1.16,1.528 -1.19,1.507 -1.29,1.469 -1.34,1.442 -1.42,1.418 -1.48,1.382 -1.57,1.352 -1.65,1.328 -1.71,1.297 -1.81,1.254 -1.87,1.23 -1.98,1.196 -2.04,1.168 -2.15,1.129 -2.23,1.097 -2.32,1.067 -2.4,1.023 -2.51,1 -2.59,0.953 3.64,-1.414 3.51,-1.441 3.39,-1.461 3.25,-1.485 3.13,-1.504 3.01,-1.515 2.89,-1.539 2.77,-1.547 2.66,-1.57 2.53,-1.594 2.44,-1.617 2.32,-1.625 2.21,-1.637 2.11,-1.672 2.01,-1.668 1.91,-1.703 1.81,-1.715 1.71,-1.723 1.63,-1.75 1.52,-1.757 1.43,-1.766 1.35,-1.793 1.27,-1.812 1.17,-1.825 1.1,-1.832 1.02,-1.847 0.93,-1.868 0.87,-1.878 0.79,-1.891 0.72,-1.91 0.65,-1.922 0.58,-1.934 0.53,-1.945 0.44,-1.957 0.4,-1.977 0.34,-1.988 0.29,-1.988 0.22,-2.012 0.17,-2.019 0.14,-2.036 0.06,-2.043 0.03,-2.054 -0.01,-2.067 -0.05,-2.074 -0.1,-2.086 -0.12,-2.101 -0.18,-2.11 -0.2,-2.121 -0.23,-2.117 -0.26,-2.145 -0.28,-2.14 -0.31,-2.156 -0.34,-2.164 -0.35,-2.172 -0.38,-2.176 -0.38,-2.188 -0.41,-2.199 -0.42,-2.207 -0.43,-2.207 -0.43,-2.219 -0.43,-2.23 -0.46,-2.231 -0.43,-2.242 -0.45,-2.242 -0.43,-2.25 -0.44,-2.266 -0.43,-2.261 -0.42,-2.262 -0.42,-2.277 -0.39,-2.286 -0.39,-2.285 -0.35,-2.285 -0.35,-2.293 -0.32,-2.297 -0.29,-2.308 -0.28,-2.309 -0.24,-2.305 -0.21,-2.308 -0.19,-2.317 -0.14,-2.32 -0.11,-2.328 -0.08,-2.316 -0.03,-2.332 0.01,-2.329 0.06,-2.328 0.11,-2.328 0.14,-2.344 0.21,-2.328 0.25,-2.34 0.32,-2.339 0.37,-2.328 0.43,-2.34 0.49,-2.34 0.55,-2.34 0.62,-2.34 0.69,-2.332 0.76,-2.34 0.84,-2.34 0.91,-2.328 0.98,-2.328 1.06,-2.34 1.13,-2.332 1.23,-2.328 1.31,-2.316 1.4,-2.332 1.49,-2.317 1.57,-2.32 1.67,-2.316 1.78,-2.309 1.86,-2.305 1.97,-2.308 2.06,-2.297 2.17,-2.297 2.28,-2.293 2.38,-2.285 2.48,-2.285 2.62,-2.278 2.71,-2.273 2.84,-2.262 2.97,-2.265 -2.97,-2.262 -2.84,-2.262 -2.71,-2.273 -2.62,-2.278 -2.48,-2.285 -2.38,-2.285 -2.28,-2.297 -2.17,-2.293 -2.06,-2.297 -1.97,-2.308 -1.86,-2.305 -1.78,-2.309 -1.67,-2.316 -1.57,-2.32 -1.49,-2.317 -1.4,-2.332 -1.31,-2.316 -1.23,-2.328 -1.13,-2.332 -1.06,-2.34 -0.98,-2.328 -0.91,-2.328 -0.84,-2.34 -0.76,-2.34 -0.69,-2.332 -0.62,-2.34 -0.55,-2.34 -0.49,-2.34 -0.43,-2.339 -0.37,-2.329 -0.32,-2.339 -0.25,-2.34 -0.21,-2.332 -0.14,-2.34 -0.11,-2.328 -0.06,-2.328 -0.01,-2.329 0.03,-2.332 0.08,-2.316 0.11,-2.328 0.14,-2.32 0.19,-2.317 0.21,-2.308 0.24,-2.305 0.28,-2.309 0.29,-2.308 0.32,-2.297 0.35,-2.293 0.35,-2.285 0.39,-2.285 0.39,-2.286 0.42,-2.277 0.42,-2.262 0.43,-2.261 0.44,-2.266 0.43,-2.25 0.45,-2.242 0.43,-2.242 0.46,-2.231 0.43,-2.23 0.43,-2.219 0.43,-2.207 0.42,-2.211 0.41,-2.195 0.38,-2.188 0.38,-2.176 0.35,-2.171 0.34,-2.168 0.31,-2.153 0.28,-2.14 0.26,-2.145 0.23,-2.117 0.2,-2.121 0.18,-2.11 0.12,-2.101 0.1,-2.086 0.05,-2.074 0.01,-2.067 -0.03,-2.054 -0.06,-2.043 -0.14,-2.036 -0.17,-2.019 -0.22,-2.012 -0.29,-1.988 -0.34,-1.988 -0.4,-1.977 -0.44,-1.957 -0.53,-1.945 -0.58,-1.934 -0.65,-1.922 -0.72,-1.91 -0.79,-1.891 -0.87,-1.878 -0.93,-1.868 -1.02,-1.847 -1.1,-1.832 -1.17,-1.825 -1.27,-1.812 -1.35,-1.793 -1.43,-1.77 -1.52,-1.753 -1.63,-1.75 -1.71,-1.723 -1.81,-1.715 -1.91,-1.703 -2.01,-1.668 -2.11,-1.672 -2.21,-1.637 -2.32,-1.625 -2.44,-1.617 -2.53,-1.594 -2.66,-1.57 -2.77,-1.547 -2.89,-1.539 -3.01,-1.515 -3.13,-1.504 -3.25,-1.485 -3.39,-1.461 -3.51,-1.441 -3.64,-1.418 z" /><path
         id="path74"
         style="fill:none;stroke:#000000;stroke-width:7.97009993;stroke-linecap:butt;stroke-linejoin:miter;stroke-miterlimit:10;stroke-dasharray:none;stroke-opacity:1"
         d="m 980.012,861.605 0,-22.5" /><path
         id="path76"
         style="fill:none;stroke:#000000;stroke-width:7.97009993;stroke-linecap:butt;stroke-linejoin:miter;stroke-miterlimit:10;stroke-dasharray:none;stroke-opacity:1"
         d="m 980.012,794.105 0,-22.5" /><path
         id="path78"
         style="fill:none;stroke:#000000;stroke-width:7.97009993;stroke-linecap:butt;stroke-linejoin:miter;stroke-miterlimit:10;stroke-dasharray:none;stroke-opacity:1"
         d="m 980.012,771.605 0,-22.5" /><path
         id="path80"
         style="fill:none;stroke:#000000;stroke-width:7.97009993;stroke-linecap:butt;stroke-linejoin:miter;stroke-miterlimit:10;stroke-dasharray:none;stroke-opacity:1"
         d="m 980.012,704.105 0,-22.5" /><path
         id="path82"
         style="fill:none;stroke:#000000;stroke-width:7.97009993;stroke-linecap:butt;stroke-linejoin:miter;stroke-miterlimit:10;stroke-dasharray:none;stroke-opacity:1"
         d="m 980.012,681.605 0,-22.5" /><path
         id="path84"
         style="fill:none;stroke:#000000;stroke-width:7.97009993;stroke-linecap:butt;stroke-linejoin:miter;stroke-miterlimit:10;stroke-dasharray:none;stroke-opacity:1"
         d="m 980.012,614.105 0,-22.503" /><path
         id="path86"
         style="fill:none;stroke:#000000;stroke-width:7.97009993;stroke-linecap:butt;stroke-linejoin:miter;stroke-miterlimit:10;stroke-dasharray:none;stroke-opacity:1"
         d="m 980.012,591.602 0,-22.5" /><path
         id="path88"
         style="fill:none;stroke:#000000;stroke-width:7.97009993;stroke-linecap:butt;stroke-linejoin:miter;stroke-miterlimit:10;stroke-dasharray:none;stroke-opacity:1"
         d="m 980.012,524.102 0,-22.5" /><path
         id="path90"
         style="fill:none;stroke:#000000;stroke-width:7.97009993;stroke-linecap:butt;stroke-linejoin:miter;stroke-miterlimit:10;stroke-dasharray:none;stroke-opacity:1"
         d="m 980.012,501.602 0,-22.5" /><path
         id="path92"
         style="fill:none;stroke:#000000;stroke-width:7.97009993;stroke-linecap:butt;stroke-linejoin:miter;stroke-miterlimit:10;stroke-dasharray:none;stroke-opacity:1"
         d="m 980.012,434.102 0,-22.5" /><path
         id="path94"
         style="fill:none;stroke:#000000;stroke-width:7.97009993;stroke-linecap:butt;stroke-linejoin:miter;stroke-miterlimit:10;stroke-dasharray:none;stroke-opacity:1"
         d="m 980.012,411.602 0,-22.5" /><path
         id="path96"
         style="fill:none;stroke:#000000;stroke-width:7.97009993;stroke-linecap:butt;stroke-linejoin:miter;stroke-miterlimit:10;stroke-dasharray:none;stroke-opacity:1"
         d="m 980.012,344.102 0,-22.5" /><g
         transform="matrix(146.4,0,0,-134.4,23.4799,321.48)"
         id="g98"><rect
           id="rect100"
           style="fill:#ffffff;fill-opacity:1;fill-rule:nonzero"
           transform="matrix(1,0,0,-1,0,1)"
           height="1"
           width="1"
           y="0"
           x="0" /></g><g
         transform="scale(10,10)"
         id="g102"><text
           id="text104"
           style="font-variant:normal;font-weight:normal;font-size:10.90909958px;font-family:CMMI10;-inkscape-font-specification:CMMI10;writing-mode:lr-tb;fill:#000000;fill-opacity:1;fill-rule:nonzero;stroke:none"
           transform="matrix(1,0,0,-1,5.36016,21.7199)"><tspan
             id="tspan106"
             y="0"
             x="0">O</tspan></text>
</g><g
         transform="matrix(159.6,0,0,-134.4,1690.78,321.48)"
         id="g108"><rect
           id="rect110"
           style="fill:#ffffff;fill-opacity:1;fill-rule:nonzero"
           transform="matrix(1,0,0,-1,0,1)"
           height="1"
           width="1"
           y="0"
           x="0" /></g><g
         transform="scale(10,10)"
         id="g112"><text
           id="text114"
           style="font-variant:normal;font-weight:normal;font-size:10.90909958px;font-family:CMMI10;-inkscape-font-specification:CMMI10;writing-mode:lr-tb;fill:#000000;fill-opacity:1;fill-rule:nonzero;stroke:none"
           transform="matrix(1,0,0,-1,172.09,21.7199)"><tspan
             id="tspan116"
             y="0"
             x="0">X</tspan></text>
</g><g
         transform="matrix(147.6,0,0,-134.4,22.2799,1808.78)"
         id="g118"><rect
           id="rect120"
           style="fill:#ffffff;fill-opacity:1;fill-rule:nonzero"
           transform="matrix(1,0,0,-1,0,1)"
           height="1"
           width="1"
           y="0"
           x="0" /></g><g
         transform="scale(10,10)"
         id="g122"><text
           id="text124"
           style="font-variant:normal;font-weight:normal;font-size:10.90909958px;font-family:CMMI10;-inkscape-font-specification:CMMI10;writing-mode:lr-tb;fill:#000000;fill-opacity:1;fill-rule:nonzero;stroke:none"
           transform="matrix(1,0,0,-1,5.23984,170.45)"><tspan
             id="tspan126"
             y="0"
             x="0">Y</tspan></text>
</g><path
         id="path128"
         style="fill:none;stroke:#000000;stroke-width:11.95530033;stroke-linecap:butt;stroke-linejoin:miter;stroke-miterlimit:10;stroke-dasharray:none;stroke-opacity:1"
         d="m 7.99219,321.602 1782.02781,0" /><path
         id="path130"
         style="fill:none;stroke:#000000;stroke-width:11.95530033;stroke-linecap:butt;stroke-linejoin:miter;stroke-miterlimit:10;stroke-dasharray:none;stroke-opacity:1"
         d="m 170,177.602 0,1584.018" /><g
         transform="scale(10,10)"
         id="g132"><text
           id="text134"
           style="font-variant:normal;font-weight:normal;font-size:11.9552002px;font-family:CMCSC10;-inkscape-font-specification:CMCSC10;writing-mode:lr-tb;fill:#000000;fill-opacity:1;fill-rule:nonzero;stroke:none"
           transform="matrix(1,0,0,-1,75.441,0.0890625)"><tspan
             id="tspan136"
             y="0"
             x="0 8.5141897 12.111581 19.790342 28.065218 34.667995 41.270775">Fig.34.</tspan></text>
</g></g></g></svg>