<?xml version="1.0" encoding="UTF-8" standalone="no"?>
<svg
   xmlns:dc="http://purl.org/dc/elements/1.1/"
   xmlns:cc="http://creativecommons.org/ns#"
   xmlns:rdf="http://www.w3.org/1999/02/22-rdf-syntax-ns#"
   xmlns:svg="http://www.w3.org/2000/svg"
   xmlns="http://www.w3.org/2000/svg"
   viewBox="0 0 232.5 226.25"
   height="226.25"
   width="232.5"
   xml:space="preserve"
   version="1.1"
   id="svg2"><metadata
     id="metadata8"><rdf:RDF><cc:Work
         rdf:about=""><dc:format>image/svg+xml</dc:format><dc:type
           rdf:resource="http://purl.org/dc/dcmitype/StillImage" /></cc:Work></rdf:RDF></metadata><defs
     id="defs6"><clipPath
       id="clipPath12"
       clipPathUnits="userSpaceOnUse"><path
         id="path14"
         d="m -2,-2 186,0 0,181 -186,0 0,-181 z" /></clipPath></defs><g
     clip-path="url(#clipPath12)"
     transform="matrix(1.25,0,0,-1.25,2.5,223.75)"
     id="g10"><g
       transform="scale(0.1,0.1)"
       id="g16"><path
         id="path18"
         style="fill:none;stroke:#000000;stroke-width:11.95530033;stroke-linecap:butt;stroke-linejoin:miter;stroke-miterlimit:10;stroke-dasharray:none;stroke-opacity:1"
         d="m 271.25,1077.27 35.445,35.59 35.43,33.52 35.441,31.45 35.434,29.38 35.441,27.32 35.442,25.25 35.433,23.18 35.442,21.11 35.43,19.05 35.441,16.98 35.445,14.92 35.43,12.84 35.441,10.78 35.434,8.71 35.441,6.65 35.442,4.57 35.433,2.52 35.442,0.44 35.429,-1.62 35.446,-3.7 35.438,-5.76 35.43,-7.82 35.45,-9.9 35.43,-11.95 35.44,-14.03 35.43,-16.1 35.44,-18.16 35.45,-20.22 35.43,-22.31 35.44,-24.35 35.44,-26.44 35.43,-28.5 35.45,-30.56 35.43,-32.63 35.44,-34.71 35.44,-36.76 35.43,-38.83 35.44,-40.907 35.45,-42.968 35.43,-45.035" /><path
         id="path20"
         style="fill:none;stroke:#000000;stroke-width:11.95530033;stroke-linecap:butt;stroke-linejoin:miter;stroke-miterlimit:10;stroke-dasharray:none;stroke-opacity:1"
         d="m 271.25,1077.27 405.008,418.25" /><path
         id="path22"
         style="fill:#000000;fill-opacity:1;fill-rule:nonzero;stroke:none"
         d="m 669.762,1488.8 -1.602,-37.45 8.098,44.17 -43.883,-9.53 37.387,2.81" /><path
         id="path24"
         style="fill:none;stroke:#000000;stroke-width:11.95530033;stroke-linecap:butt;stroke-linejoin:miter;stroke-miterlimit:10;stroke-dasharray:none;stroke-opacity:1"
         d="m 669.762,1488.8 -1.602,-37.45 8.098,44.17 -43.883,-9.53 37.387,2.81 z" /><path
         id="path26"
         style="fill:none;stroke:#000000;stroke-width:11.95530033;stroke-linecap:butt;stroke-linejoin:miter;stroke-miterlimit:10;stroke-dasharray:none;stroke-opacity:1"
         d="m 1385.02,1207.21 405,-324.269" /><path
         id="path28"
         style="fill:#000000;fill-opacity:1;fill-rule:nonzero;stroke:none"
         d="m 1782.73,888.777 -37.44,-1.933 44.73,-3.903 -13.59,42.793 6.3,-36.957" /><path
         id="path30"
         style="fill:none;stroke:#000000;stroke-width:11.95530033;stroke-linecap:butt;stroke-linejoin:miter;stroke-miterlimit:10;stroke-dasharray:none;stroke-opacity:1"
         d="m 1782.73,888.777 -37.44,-1.933 44.73,-3.903 -13.59,42.793 6.3,-36.957 z" /><g
         transform="scale(10,10)"
         id="g32"><text
           id="text34"
           style="font-variant:normal;font-weight:normal;font-size:10.90909958px;font-family:CMMI10;-inkscape-font-specification:CMMI10;writing-mode:lr-tb;fill:#000000;fill-opacity:1;fill-rule:nonzero;stroke:none"
           transform="matrix(1,0,0,-1,84.0207,144.146)"><tspan
             id="tspan36"
             y="0"
             x="0">M</tspan></text>
</g><g
         transform="matrix(122.4,0,0,-106.8,473.189,223.733)"
         id="g38"><rect
           id="rect40"
           style="fill:#ffffff;fill-opacity:1;fill-rule:nonzero"
           transform="matrix(1,0,0,-1,0,1)"
           height="1"
           width="1"
           y="0"
           x="0" /></g><g
         transform="scale(10,10)"
         id="g42"><text
           id="text44"
           style="font-variant:normal;font-weight:normal;font-size:10.90909958px;font-family:CMMI10;-inkscape-font-specification:CMMI10;writing-mode:lr-tb;fill:#000000;fill-opacity:1;fill-rule:nonzero;stroke:none"
           transform="matrix(1,0,0,-1,50.3309,14.7055)"><tspan
             id="tspan46"
             y="0"
             x="0">x</tspan></text>
</g><path
         id="path48"
         style="fill:#000000;fill-opacity:1;fill-rule:nonzero;stroke:none"
         d="m 191.172,302.781 1.086,-2.308 1.152,-2.231 1.223,-2.14 1.285,-2.055 1.352,-1.977 1.394,-1.902 1.473,-1.824 1.515,-1.746 1.594,-1.68 1.637,-1.594 1.691,-1.527 1.758,-1.461 1.801,-1.395 1.867,-1.332 1.914,-1.25 1.965,-1.199 2.023,-1.133 2.063,-1.074 2.121,-1.012 2.164,-0.957 2.211,-0.898 2.262,-0.848 2.308,-0.789 2.348,-0.75 2.398,-0.691 2.438,-0.637 2.484,-0.594 2.524,-0.547 2.562,-0.507 2.602,-0.461 2.648,-0.418 2.68,-0.383 2.715,-0.34 2.758,-0.309 2.789,-0.277 2.824,-0.23 2.859,-0.207 2.887,-0.176 2.922,-0.145 2.945,-0.121 2.988,-0.086 3.012,-0.066 3.043,-0.043 3.066,-0.023 3.098,-0.012 3.117,0.023 3.145,0.031 3.164,0.047 3.195,0.067 3.211,0.074 3.238,0.09 3.254,0.097 3.274,0.098 3.297,0.121 3.304,0.11 3.328,0.121 3.34,0.121 3.364,0.121 3.375,0.121 3.382,0.121 3.395,0.121 3.418,0.11 3.414,0.101 3.43,0.098 3.437,0.078 3.449,0.074 3.45,0.067 3.46,0.042 3.461,0.036 3.473,0.011 3.473,-0.011 3.48,-0.024 3.473,-0.054 3.484,-0.067 3.469,-0.098 3.484,-0.132 3.473,-0.141 3.473,-0.188 3.468,-0.21 3.461,-0.243 3.461,-0.285 3.45,-0.304 3.449,-0.352 3.441,-0.398 3.426,-0.426 3.418,-0.473 3.406,-0.516 3.406,-0.55 3.383,-0.606 3.364,-0.66 3.359,-0.703 3.34,-0.746 3.332,-0.801 3.304,-0.859 3.297,-0.91 3.274,-0.965 3.254,-1.035 3.226,-1.086 3.211,-1.145 3.195,-1.207 3.165,-1.273 3.144,-1.34 3.117,-1.41 3.09,-1.469 3.063,-1.551 3.043,-1.613 3.011,-1.696 2.977,-1.757 2.957,-1.844 2.91,-1.91 2.891,-2 2.855,-2.078 2.824,-2.164 2.778,-2.243 2.757,-2.328 2.715,-2.418 2.68,-2.492 2.637,-2.594 2.594,-2.691 2.57,-2.77 2.562,2.77 2.59,2.691 2.649,2.594 2.671,2.492 2.711,2.418 2.758,2.328 2.793,2.243 2.813,2.164 2.855,2.078 2.891,2 2.922,1.91 2.941,1.844 2.988,1.757 3,1.696 3.043,1.613 3.067,1.551 3.086,1.469 3.121,1.41 3.144,1.34 3.164,1.273 3.196,1.207 3.207,1.145 3.23,1.086 3.254,1.035 3.274,0.965 3.296,0.91 3.305,0.859 3.328,0.801 3.34,0.746 3.363,0.703 3.371,0.66 3.387,0.606 3.395,0.55 3.406,0.516 3.414,0.473 3.43,0.426 3.437,0.398 3.449,0.352 3.45,0.304 3.461,0.285 3.46,0.243 3.473,0.21 3.473,0.188 3.48,0.141 3.473,0.132 3.484,0.098 3.473,0.067 3.48,0.054 3.473,0.024 3.473,0.011 3.468,-0.011 3.461,-0.036 3.461,-0.042 3.461,-0.067 3.442,-0.074 3.437,-0.078 3.426,-0.098 3.43,-0.101 3.406,-0.11 3.394,-0.121 3.383,-0.121 3.375,-0.121 3.36,-0.121 3.339,-0.121 3.329,-0.121 3.32,-0.11 3.285,-0.121 3.273,-0.098 3.262,-0.097 3.231,-0.09 3.207,-0.074 3.199,-0.067 3.164,-0.047 3.152,-0.031 3.121,-0.023 3.086,0.012 3.067,0.023 3.043,0.043 3.011,0.066 2.989,0.086 2.953,0.121 2.91,0.145 2.902,0.176 2.856,0.207 2.824,0.23 2.789,0.277 2.75,0.309 2.723,0.34 2.679,0.383 2.637,0.418 2.606,0.461 2.57,0.507 2.516,0.547 2.484,0.594 2.437,0.637 2.395,0.691 2.352,0.75 2.308,0.789 2.262,0.848 2.207,0.898 2.176,0.957 2.109,1.012 2.078,1.074 2.012,1.133 1.965,1.199 1.91,1.25 1.871,1.332 1.801,1.395 1.758,1.461 1.691,1.527 1.648,1.594 1.582,1.68 1.516,1.746 1.473,1.824 1.406,1.902 1.34,1.977 1.285,2.055 1.219,2.14 1.156,2.231 1.086,2.308 -1.606,-3.23 -1.656,-3.121 -1.715,-3.008 -1.746,-2.891 -1.801,-2.781 -1.835,-2.68 -1.891,-2.57 -1.922,-2.461 -1.969,-2.363 -2.007,-2.262 -2.055,-2.156 -2.098,-2.063 -2.133,-1.98 -2.175,-1.867 -2.207,-1.789 -2.254,-1.692 -2.286,-1.617 -2.316,-1.516 -2.363,-1.437 -2.395,-1.352 -2.429,-1.285 -2.461,-1.199 -2.493,-1.121 -2.527,-1.043 -2.558,-0.977 -2.594,-0.902 -2.614,-0.836 -2.648,-0.766 -2.684,-0.703 -2.71,-0.64 -2.739,-0.582 -2.758,-0.516 -2.789,-0.461 -2.824,-0.406 -2.832,-0.352 -2.867,-0.297 -2.891,-0.254 -2.91,-0.195 -2.933,-0.156 -2.969,-0.109 -2.977,-0.075 -3,-0.023 -3.019,0.012 -3.035,0.043 -3.051,0.086 -3.078,0.121 -3.098,0.144 -3.109,0.176 -3.121,0.207 -3.141,0.23 -3.152,0.254 -3.165,0.285 -3.187,0.297 -3.188,0.309 -3.207,0.328 -3.218,0.352 -3.231,0.363 -3.23,0.363 -3.25,0.383 -3.254,0.387 -3.262,0.383 -3.273,0.398 -3.274,0.394 -3.285,0.395 -3.297,0.395 -3.285,0.386 -3.297,0.383 -3.304,0.375 -3.309,0.363 -3.297,0.352 -3.305,0.34 -3.308,0.316 -3.305,0.309 -3.309,0.285 -3.308,0.266 -3.305,0.242 -3.297,0.219 -3.297,0.187 -3.293,0.164 -3.285,0.133 -3.285,0.098 -3.273,0.054 -3.278,0.031 -3.261,-0.007 -3.25,-0.055 -3.254,-0.09 -3.231,-0.133 -3.23,-0.187 -3.219,-0.219 -3.195,-0.285 -3.199,-0.328 -3.176,-0.375 -3.172,-0.438 -3.152,-0.496 -3.133,-0.551 -3.121,-0.613 -3.11,-0.68 -3.097,-0.738 -3.067,-0.801 -3.055,-0.879 -3.042,-0.945 -3.008,-1.012 -3,-1.085 -2.977,-1.165 -2.957,-1.242 -2.933,-1.32 -2.911,-1.406 -2.89,-1.481 -2.856,-1.574 -2.843,-1.656 -2.813,-1.75 -2.793,-1.832 -2.758,-1.934 -2.734,-2.023 -2.703,-2.121 -2.68,-2.207 -2.648,-2.317 -2.614,-2.43 -2.593,-2.515 -2.551,-2.625 -2.559,2.625 -2.594,2.515 -2.613,2.43 -2.648,2.317 -2.68,2.207 -2.703,2.121 -2.738,2.023 -2.754,1.934 -2.793,1.832 -2.813,1.75 -2.832,1.656 -2.871,1.574 -2.887,1.481 -2.914,1.406 -2.933,1.32 -2.953,1.242 -2.977,1.165 -2.988,1.085 -3.024,1.012 -3.031,0.945 -3.066,0.879 -3.063,0.801 -3.101,0.738 -3.098,0.68 -3.129,0.613 -3.133,0.551 -3.152,0.496 -3.164,0.438 -3.188,0.375 -3.195,0.328 -3.199,0.285 -3.219,0.219 -3.226,0.187 -3.231,0.133 -3.254,0.09 -3.25,0.055 -3.265,0.007 -3.274,-0.031 -3.273,-0.054 -3.285,-0.098 -3.286,-0.133 -3.297,-0.164 -3.293,-0.187 -3.296,-0.219 -3.309,-0.242 -3.305,-0.266 -3.308,-0.285 -3.305,-0.309 -3.297,-0.316 -3.308,-0.34 -3.305,-0.352 -3.309,-0.363 -3.297,-0.375 -3.293,-0.383 -3.296,-0.386 -3.297,-0.395 -3.274,-0.395 -3.285,-0.394 -3.262,-0.398 -3.265,-0.383 -3.262,-0.387 -3.242,-0.383 -3.238,-0.363 -3.231,-0.363 -3.219,-0.352 -3.199,-0.328 -3.195,-0.309 -3.188,-0.297 -3.164,-0.285 -3.152,-0.254 -3.145,-0.23 -3.117,-0.207 -3.109,-0.176 -3.098,-0.144 -3.078,-0.121 -3.055,-0.086 -3.031,-0.043 -3.019,-0.012 -3,0.023 -2.977,0.075 -2.957,0.109 -2.945,0.156 -2.91,0.195 -2.891,0.254 -2.856,0.297 -2.847,0.352 -2.813,0.406 -2.789,0.461 -2.769,0.516 -2.735,0.582 -2.703,0.64 -2.679,0.703 -2.661,0.766 -2.613,0.836 -2.594,0.902 -2.558,0.977 -2.528,1.043 -2.496,1.121 -2.461,1.199 -2.425,1.285 -2.395,1.352 -2.363,1.437 -2.317,1.516 -2.285,1.617 -2.254,1.692 -2.207,1.789 -2.176,1.867 -2.132,1.98 -2.086,2.063 -2.055,2.156 -2.012,2.262 -1.976,2.363 -1.922,2.461 -1.891,2.57 -1.836,2.68 -1.8,2.781 -1.747,2.891 -1.703,3.008 -1.66,3.121 -1.613,3.23" /><path
         id="path50"
         style="fill:none;stroke:#000000;stroke-width:3.9849999;stroke-linecap:butt;stroke-linejoin:miter;stroke-miterlimit:10;stroke-dasharray:none;stroke-opacity:1"
         d="m 191.172,302.781 1.086,-2.308 1.152,-2.231 1.223,-2.14 1.285,-2.055 1.352,-1.977 1.394,-1.902 1.473,-1.824 1.515,-1.746 1.594,-1.68 1.637,-1.594 1.691,-1.527 1.758,-1.461 1.801,-1.395 1.867,-1.332 1.914,-1.25 1.965,-1.199 2.023,-1.133 2.063,-1.074 2.121,-1.012 2.164,-0.957 2.211,-0.898 2.262,-0.848 2.308,-0.789 2.348,-0.75 2.398,-0.691 2.438,-0.637 2.484,-0.594 2.524,-0.547 2.562,-0.507 2.602,-0.461 2.648,-0.418 2.68,-0.383 2.715,-0.34 2.758,-0.309 2.789,-0.277 2.824,-0.23 2.859,-0.207 2.887,-0.176 2.922,-0.145 2.945,-0.121 2.988,-0.086 3.012,-0.066 3.043,-0.043 3.066,-0.023 3.098,-0.012 3.117,0.023 3.145,0.031 3.164,0.047 3.195,0.067 3.211,0.074 3.238,0.09 3.254,0.097 3.274,0.098 3.297,0.121 3.304,0.11 3.328,0.121 3.34,0.121 3.364,0.121 3.375,0.121 3.382,0.121 3.395,0.121 3.418,0.11 3.414,0.101 3.43,0.098 3.437,0.078 3.449,0.074 3.45,0.067 3.46,0.042 3.461,0.036 3.473,0.011 3.473,-0.011 3.48,-0.024 3.473,-0.054 3.484,-0.067 3.469,-0.098 3.484,-0.132 3.473,-0.141 3.473,-0.188 3.468,-0.21 3.461,-0.243 3.461,-0.285 3.45,-0.304 3.449,-0.352 3.441,-0.398 3.426,-0.426 3.418,-0.473 3.406,-0.516 3.406,-0.55 3.383,-0.606 3.364,-0.66 3.359,-0.703 3.34,-0.746 3.332,-0.801 3.304,-0.859 3.297,-0.91 3.274,-0.965 3.254,-1.035 3.226,-1.086 3.211,-1.145 3.195,-1.207 3.165,-1.273 3.144,-1.34 3.117,-1.41 3.09,-1.469 3.063,-1.551 3.043,-1.613 3.011,-1.696 2.977,-1.757 2.957,-1.844 2.91,-1.91 2.891,-2 2.855,-2.078 2.824,-2.164 2.778,-2.243 2.757,-2.328 2.715,-2.418 2.68,-2.492 2.637,-2.594 2.594,-2.691 2.57,-2.77 2.562,2.77 2.59,2.691 2.649,2.594 2.671,2.492 2.711,2.418 2.758,2.328 2.793,2.243 2.813,2.164 2.855,2.078 2.891,2 2.922,1.91 2.941,1.844 2.988,1.757 3,1.696 3.043,1.613 3.067,1.551 3.086,1.469 3.121,1.41 3.144,1.34 3.164,1.273 3.196,1.207 3.207,1.145 3.23,1.086 3.254,1.035 3.274,0.965 3.296,0.91 3.305,0.859 3.328,0.801 3.34,0.746 3.363,0.703 3.371,0.66 3.387,0.606 3.395,0.55 3.406,0.516 3.414,0.473 3.43,0.426 3.437,0.398 3.449,0.352 3.45,0.304 3.461,0.285 3.46,0.243 3.473,0.21 3.473,0.188 3.48,0.141 3.473,0.132 3.484,0.098 3.473,0.067 3.48,0.054 3.473,0.024 3.473,0.011 3.468,-0.011 3.461,-0.036 3.461,-0.042 3.461,-0.067 3.442,-0.074 3.437,-0.078 3.426,-0.098 3.43,-0.101 3.406,-0.11 3.394,-0.121 3.383,-0.121 3.375,-0.121 3.36,-0.121 3.339,-0.121 3.329,-0.121 3.32,-0.11 3.285,-0.121 3.273,-0.098 3.262,-0.097 3.231,-0.09 3.207,-0.074 3.199,-0.067 3.164,-0.047 3.152,-0.031 3.121,-0.023 3.086,0.012 3.067,0.023 3.043,0.043 3.011,0.066 2.989,0.086 2.953,0.121 2.91,0.145 2.902,0.176 2.856,0.207 2.824,0.23 2.789,0.277 2.75,0.309 2.723,0.34 2.679,0.383 2.637,0.418 2.606,0.461 2.57,0.507 2.516,0.547 2.484,0.594 2.437,0.637 2.395,0.691 2.352,0.75 2.308,0.789 2.262,0.848 2.207,0.898 2.176,0.957 2.109,1.012 2.078,1.074 2.012,1.133 1.965,1.199 1.91,1.25 1.871,1.332 1.801,1.395 1.758,1.461 1.691,1.527 1.648,1.594 1.582,1.68 1.516,1.746 1.473,1.824 1.406,1.902 1.34,1.977 1.285,2.055 1.219,2.14 1.156,2.231 1.086,2.308 -1.606,-3.23 -1.656,-3.121 -1.715,-3.008 -1.746,-2.891 -1.801,-2.781 -1.835,-2.68 -1.891,-2.57 -1.922,-2.461 -1.969,-2.363 -2.007,-2.262 -2.055,-2.156 -2.098,-2.063 -2.133,-1.98 -2.175,-1.867 -2.207,-1.789 -2.254,-1.692 -2.286,-1.617 -2.316,-1.516 -2.363,-1.437 -2.395,-1.352 -2.429,-1.285 -2.461,-1.199 -2.493,-1.121 -2.527,-1.043 -2.558,-0.977 -2.594,-0.902 -2.614,-0.836 -2.648,-0.766 -2.684,-0.703 -2.71,-0.64 -2.739,-0.582 -2.758,-0.516 -2.789,-0.461 -2.824,-0.406 -2.832,-0.352 -2.867,-0.297 -2.891,-0.254 -2.91,-0.195 -2.933,-0.156 -2.969,-0.109 -2.977,-0.075 -3,-0.023 -3.019,0.012 -3.035,0.043 -3.051,0.086 -3.078,0.121 -3.098,0.144 -3.109,0.176 -3.121,0.207 -3.141,0.23 -3.152,0.254 -3.165,0.285 -3.187,0.297 -3.188,0.309 -3.207,0.328 -3.218,0.352 -3.231,0.363 -3.23,0.363 -3.25,0.383 -3.254,0.387 -3.262,0.383 -3.273,0.398 -3.274,0.394 -3.285,0.395 -3.297,0.395 -3.285,0.386 -3.297,0.383 -3.304,0.375 -3.309,0.363 -3.297,0.352 -3.305,0.34 -3.308,0.316 -3.305,0.309 -3.309,0.285 -3.308,0.266 -3.305,0.242 -3.297,0.219 -3.297,0.187 -3.293,0.164 -3.285,0.133 -3.285,0.098 -3.273,0.054 -3.278,0.031 -3.261,-0.007 -3.25,-0.055 -3.254,-0.09 -3.231,-0.133 -3.23,-0.187 -3.219,-0.219 -3.195,-0.285 -3.199,-0.328 -3.176,-0.375 -3.172,-0.438 -3.152,-0.496 -3.133,-0.551 -3.121,-0.613 -3.11,-0.68 -3.097,-0.738 -3.067,-0.801 -3.055,-0.879 -3.042,-0.945 -3.008,-1.012 -3,-1.085 -2.977,-1.165 -2.957,-1.242 -2.933,-1.32 -2.911,-1.406 -2.89,-1.481 -2.856,-1.574 -2.843,-1.656 -2.813,-1.75 -2.793,-1.832 -2.758,-1.934 -2.734,-2.023 -2.703,-2.121 -2.68,-2.207 -2.648,-2.317 -2.614,-2.43 -2.593,-2.515 -2.551,-2.625 -2.559,2.625 -2.594,2.515 -2.613,2.43 -2.648,2.317 -2.68,2.207 -2.703,2.121 -2.738,2.023 -2.754,1.934 -2.793,1.832 -2.813,1.75 -2.832,1.656 -2.871,1.574 -2.887,1.481 -2.914,1.406 -2.933,1.32 -2.953,1.242 -2.977,1.165 -2.988,1.085 -3.024,1.012 -3.031,0.945 -3.066,0.879 -3.063,0.801 -3.101,0.738 -3.098,0.68 -3.129,0.613 -3.133,0.551 -3.152,0.496 -3.164,0.438 -3.188,0.375 -3.195,0.328 -3.199,0.285 -3.219,0.219 -3.226,0.187 -3.231,0.133 -3.254,0.09 -3.25,0.055 -3.265,0.007 -3.274,-0.031 -3.273,-0.054 -3.285,-0.098 -3.286,-0.133 -3.297,-0.164 -3.293,-0.187 -3.296,-0.219 -3.309,-0.242 -3.305,-0.266 -3.308,-0.285 -3.305,-0.309 -3.297,-0.316 -3.308,-0.34 -3.305,-0.352 -3.309,-0.363 -3.297,-0.375 -3.293,-0.383 -3.296,-0.386 -3.297,-0.395 -3.274,-0.395 -3.285,-0.394 -3.262,-0.398 -3.265,-0.383 -3.262,-0.387 -3.242,-0.383 -3.238,-0.363 -3.231,-0.363 -3.219,-0.352 -3.199,-0.328 -3.195,-0.309 -3.188,-0.297 -3.164,-0.285 -3.152,-0.254 -3.145,-0.23 -3.117,-0.207 -3.109,-0.176 -3.098,-0.144 -3.078,-0.121 -3.055,-0.086 -3.031,-0.043 -3.019,-0.012 -3,0.023 -2.977,0.075 -2.957,0.109 -2.945,0.156 -2.91,0.195 -2.891,0.254 -2.856,0.297 -2.847,0.352 -2.813,0.406 -2.789,0.461 -2.769,0.516 -2.735,0.582 -2.703,0.64 -2.679,0.703 -2.661,0.766 -2.613,0.836 -2.594,0.902 -2.558,0.977 -2.528,1.043 -2.496,1.121 -2.461,1.199 -2.425,1.285 -2.395,1.352 -2.363,1.437 -2.317,1.516 -2.285,1.617 -2.254,1.692 -2.207,1.789 -2.176,1.867 -2.132,1.98 -2.086,2.063 -2.055,2.156 -2.012,2.262 -1.976,2.363 -1.922,2.461 -1.891,2.57 -1.836,2.68 -1.8,2.781 -1.747,2.891 -1.703,3.008 -1.66,3.121 -1.613,3.23 z" /><g
         transform="matrix(398.4,0,0,-133.2,1038.42,928.687)"
         id="g52"><rect
           id="rect54"
           style="fill:#ffffff;fill-opacity:1;fill-rule:nonzero"
           transform="matrix(1,0,0,-1,0,1)"
           height="1"
           width="1"
           y="0"
           x="0" /></g><g
         transform="scale(10,10)"
         id="g56"><text
           id="text58"
           style="font-variant:normal;font-weight:normal;font-size:10.90909958px;font-family:CMMI10;-inkscape-font-specification:CMMI10;writing-mode:lr-tb;fill:#000000;fill-opacity:1;fill-rule:nonzero;stroke:none"
           transform="matrix(1,0,0,-1,106.854,84.6008)"><tspan
             id="tspan60"
             y="0"
             x="0">y</tspan></text>
<text
           id="text62"
           style="font-variant:normal;font-weight:normal;font-size:11.9552002px;font-family:CMTI12;-inkscape-font-specification:CMTI12;writing-mode:lr-tb;fill:#000000;fill-opacity:1;fill-rule:nonzero;stroke:none"
           transform="matrix(1,0,0,-1,116.454,84.6008)"><tspan
             id="tspan64"
             y="0"
             x="0 9.6000252 15.600038">max</tspan></text>
<text
           id="text66"
           style="font-variant:normal;font-weight:normal;font-size:11.9552002px;font-family:CMR12;-inkscape-font-specification:CMR12;writing-mode:lr-tb;fill:#000000;fill-opacity:1;fill-rule:nonzero;stroke:none"
           transform="matrix(1,0,0,-1,137.454,84.6008)"><tspan
             id="tspan68"
             y="0"
             x="0">.</tspan></text>
</g><path
         id="path70"
         style="fill:#000000;fill-opacity:1;fill-rule:nonzero;stroke:none"
         d="m 920.18,340.418 2.601,1.012 2.504,1.164 2.395,1.308 2.332,1.438 2.23,1.582 2.129,1.726 2.043,1.856 1.981,1.988 1.878,2.121 1.801,2.242 1.723,2.375 1.641,2.493 1.57,2.613 1.48,2.726 1.43,2.856 1.328,2.957 1.285,3.074 1.211,3.188 1.141,3.285 1.066,3.394 1.024,3.504 0.945,3.594 0.898,3.703 0.825,3.789 0.781,3.879 0.715,3.977 0.668,4.066 0.629,4.152 0.558,4.227 0.528,4.32 0.472,4.395 0.418,4.48 0.395,4.551 0.34,4.613 0.308,4.692 0.262,4.769 0.234,4.821 0.196,4.89 0.164,4.942 0.132,5.011 0.098,5.075 0.078,5.121 0.055,5.164 0.023,5.23 0,5.274 -0.011,5.304 -0.043,5.364 -0.055,5.394 -0.066,5.438 -0.09,5.48 -0.098,5.504 -0.109,5.539 -0.121,5.57 -0.122,5.59 -0.132,5.625 -0.133,5.637 -0.141,5.672 -0.133,5.68 -0.14,5.691 -0.133,5.711 -0.121,5.723 -0.133,5.726 -0.121,5.735 -0.098,5.734 -0.097,5.746 -0.078,5.746 -0.079,5.734 -0.043,5.735 -0.031,5.726 -0.012,5.711 0,5.703 0.032,5.692 0.043,5.68 0.09,5.644 0.109,5.637 0.144,5.613 0.165,5.582 0.207,5.559 0.23,5.527 0.285,5.492 0.309,5.461 0.351,5.43 0.395,5.383 0.441,5.339 0.485,5.293 0.535,5.254 0.574,5.207 0.625,5.153 0.68,5.097 0.738,5.043 0.789,4.989 0.848,4.922 0.902,4.867 0.965,4.801 1.023,4.734 1.086,4.656 1.153,4.594 1.23,4.516 1.285,4.449 1.364,4.363 1.429,4.285 1.516,4.207 1.57,4.11 1.672,4.031 1.734,3.945 1.813,3.844 1.902,3.746 1.988,3.66 2.067,3.559 2.164,3.461 2.247,3.351 2.33,3.25 2.43,3.145 2.53,3.019 2.61,2.922 2.72,2.801 2.82,2.691 2.91,2.563 3.02,2.449 3.12,2.316 -3.12,2.321 -3.02,2.449 -2.91,2.559 -2.82,2.691 -2.72,2.805 -2.61,2.922 -2.53,3.019 -2.43,3.145 -2.33,3.25 -2.247,3.351 -2.164,3.461 -2.067,3.559 -1.988,3.66 -1.902,3.746 -1.813,3.844 -1.734,3.945 -1.672,4.031 -1.57,4.11 -1.516,4.207 -1.429,4.285 -1.364,4.363 -1.285,4.449 -1.23,4.516 -1.153,4.59 -1.086,4.66 -1.023,4.734 -0.965,4.801 -0.902,4.867 -0.848,4.922 -0.789,4.988 -0.738,5.043 -0.68,5.098 -0.625,5.152 -0.574,5.207 -0.535,5.255 -0.485,5.29 -0.441,5.34 -0.395,5.38 -0.351,5.43 -0.309,5.46 -0.285,5.5 -0.23,5.52 -0.207,5.56 -0.165,5.58 -0.144,5.62 -0.109,5.63 -0.09,5.65 -0.043,5.68 -0.032,5.68 0,5.71 0.012,5.72 0.031,5.72 0.043,5.74 0.079,5.73 0.078,5.75 0.097,5.74 0.098,5.74 0.121,5.73 0.133,5.72 0.121,5.73 0.133,5.7 0.14,5.7 0.133,5.68 0.141,5.67 0.133,5.64 0.132,5.62 0.122,5.6 0.121,5.57 0.109,5.53 0.098,5.51 0.09,5.48 0.066,5.43 0.055,5.4 0.043,5.35 0.011,5.33 0,5.26 -0.023,5.23 -0.055,5.17 -0.078,5.13 -0.098,5.05 -0.132,5.02 -0.164,4.95 -0.196,4.88 -0.234,4.84 -0.262,4.76 -0.308,4.68 -0.34,4.62 -0.395,4.55 -0.418,4.47 -0.472,4.41 -0.528,4.3 -0.558,4.24 -0.629,4.16 -0.668,4.06 -0.715,3.98 -0.781,3.88 -0.825,3.79 -0.898,3.7 -0.945,3.59 -1.024,3.51 -1.066,3.39 -1.141,3.29 -1.211,3.19 -1.285,3.07 -1.328,2.96 -1.43,2.84 -1.48,2.74 -1.57,2.61 -1.641,2.49 -1.723,2.38 -1.801,2.24 -1.878,2.12 -1.981,1.99 -2.043,1.86 -2.129,1.71 -2.23,1.59 -2.332,1.44 -2.395,1.31 -2.504,1.15 -2.601,1.02 3.644,-1.47 3.504,-1.61 3.387,-1.74 3.25,-1.86 3.133,-1.99 3.007,-2.1 2.891,-2.23 2.77,-2.34 2.66,-2.47 2.535,-2.57 2.441,-2.7 2.317,-2.79 2.219,-2.9 2.109,-3.01 2.012,-3.12 1.898,-3.21 1.816,-3.3 1.711,-3.42 1.618,-3.51 1.527,-3.59 1.426,-3.69 1.351,-3.78 1.266,-3.85 1.176,-3.95 1.097,-4.03 1.02,-4.11 0.937,-4.2 0.868,-4.26 0.789,-4.33 0.714,-4.42 0.649,-4.48 0.582,-4.54 0.527,-4.61 0.461,-4.68 0.395,-4.75 0.332,-4.79 0.285,-4.85 0.219,-4.92 0.175,-4.95 0.133,-5.01 0.067,-5.07 0.031,-5.1 -0.012,-5.17 -0.055,-5.19 -0.085,-5.23 -0.133,-5.29 -0.176,-5.3 -0.199,-5.35 -0.231,-5.37 -0.261,-5.41 -0.274,-5.44 -0.32,-5.46 -0.328,-5.48 -0.364,-5.52 -0.375,-5.52 -0.382,-5.55 -0.407,-5.55 -0.418,-5.58 -0.418,-5.58 -0.441,-5.61 -0.438,-5.59 -0.441,-5.6 -0.449,-5.61 -0.438,-5.61 -0.441,-5.61 -0.438,-5.6 -0.429,-5.61 -0.418,-5.59 -0.418,-5.58 -0.395,-5.56 -0.375,-5.56 -0.359,-5.55 -0.352,-5.51 -0.308,-5.51 -0.309,-5.48 -0.273,-5.45 -0.231,-5.42 -0.222,-5.41 -0.184,-5.37 -0.144,-5.34 -0.11,-5.3 -0.078,-5.27 -0.031,-5.22 0.011,-5.2 0.063,-5.137 0.102,-5.098 0.152,-5.043 0.199,-5.011 0.25,-4.942 0.32,-4.902 0.375,-4.832 0.426,-4.793 0.496,-4.711 0.551,-4.672 0.613,-4.59 0.692,-4.527 0.758,-4.473 0.835,-4.382 0.911,-4.329 0.98,-4.242 1.067,-4.172 1.128,-4.089 1.231,-4.008 1.309,-3.922 1.394,-3.848 1.496,-3.758 1.57,-3.656 1.68,-3.582 1.77,-3.473 1.855,-3.394 1.969,-3.285 2.066,-3.188 2.172,-3.086 2.28,-2.988 2.38,-2.879 2.49,-2.766 2.61,-2.66 2.71,-2.55 2.85,-2.426 2.95,-2.321 -2.95,-2.316 -2.85,-2.43 -2.71,-2.547 -2.61,-2.66 -2.49,-2.769 -2.38,-2.875 -2.28,-2.988 -2.172,-3.09 -2.066,-3.184 -1.969,-3.285 -1.855,-3.395 -1.77,-3.472 -1.68,-3.582 -1.57,-3.66 -1.496,-3.758 -1.394,-3.844 -1.309,-3.922 -1.231,-4.012 -1.128,-4.086 -1.067,-4.175 -0.98,-4.239 -0.911,-4.328 -0.835,-4.386 -0.758,-4.469 -0.692,-4.528 -0.613,-4.593 -0.551,-4.668 -0.496,-4.715 -0.426,-4.789 -0.375,-4.832 -0.32,-4.903 -0.25,-4.941 -0.199,-5.012 -0.152,-5.043 -0.102,-5.097 -0.063,-5.141 -0.011,-5.195 0.031,-5.219 0.078,-5.273 0.11,-5.297 0.144,-5.34 0.184,-5.371 0.222,-5.406 0.231,-5.426 0.273,-5.453 0.309,-5.481 0.308,-5.504 0.352,-5.515 0.359,-5.547 0.375,-5.551 0.395,-5.57 0.418,-5.59 0.418,-5.594 0.429,-5.59 0.438,-5.605 0.441,-5.614 0.438,-5.601 0.449,-5.617 0.441,-5.602 0.438,-5.601 0.441,-5.594 0.418,-5.582 0.418,-5.571 0.407,-5.57 0.382,-5.535 0.375,-5.527 0.364,-5.516 0.328,-5.48 0.32,-5.461 0.274,-5.438 0.261,-5.406 0.231,-5.383 0.199,-5.34 0.176,-5.316 0.133,-5.274 0.085,-5.23 0.055,-5.195 0.012,-5.164 -0.031,-5.11 -0.067,-5.055 -0.133,-5.019 -0.175,-4.957 -0.219,-4.91 -0.285,-4.856 -0.332,-4.8 -0.395,-4.735 -0.461,-4.68 -0.527,-4.605 -0.582,-4.547 -0.649,-4.484 -0.714,-4.407 -0.789,-4.339 -0.868,-4.262 -0.937,-4.195 -1.02,-4.11 -1.097,-4.019 -1.176,-3.957 -1.266,-3.856 -1.351,-3.781 -1.426,-3.691 -1.527,-3.59 -1.618,-3.508 -1.711,-3.414 -1.816,-3.309 -1.898,-3.219 -2.012,-3.109 -2.109,-3.012 -2.219,-2.898 -2.317,-2.801 -2.441,-2.68 -2.535,-2.582 -2.66,-2.46 -2.77,-2.34 -2.891,-2.231 -3.007,-2.109 -3.133,-1.992 -3.25,-1.856 -3.387,-1.734 -3.504,-1.617 -3.644,-1.473" /><path
         id="path72"
         style="fill:none;stroke:#000000;stroke-width:3.9849999;stroke-linecap:butt;stroke-linejoin:miter;stroke-miterlimit:10;stroke-dasharray:none;stroke-opacity:1"
         d="m 920.18,340.418 2.601,1.012 2.504,1.164 2.395,1.308 2.332,1.438 2.23,1.582 2.129,1.726 2.043,1.856 1.981,1.988 1.878,2.121 1.801,2.242 1.723,2.375 1.641,2.493 1.57,2.613 1.48,2.726 1.43,2.856 1.328,2.957 1.285,3.074 1.211,3.188 1.141,3.285 1.066,3.394 1.024,3.504 0.945,3.594 0.898,3.703 0.825,3.789 0.781,3.879 0.715,3.977 0.668,4.066 0.629,4.152 0.558,4.227 0.528,4.32 0.472,4.395 0.418,4.48 0.395,4.551 0.34,4.613 0.308,4.692 0.262,4.769 0.234,4.821 0.196,4.89 0.164,4.942 0.132,5.011 0.098,5.075 0.078,5.121 0.055,5.164 0.023,5.23 0,5.274 -0.011,5.304 -0.043,5.364 -0.055,5.394 -0.066,5.438 -0.09,5.48 -0.098,5.504 -0.109,5.539 -0.121,5.57 -0.122,5.59 -0.132,5.625 -0.133,5.637 -0.141,5.672 -0.133,5.68 -0.14,5.691 -0.133,5.711 -0.121,5.723 -0.133,5.726 -0.121,5.735 -0.098,5.734 -0.097,5.746 -0.078,5.746 -0.079,5.734 -0.043,5.735 -0.031,5.726 -0.012,5.711 0,5.703 0.032,5.692 0.043,5.68 0.09,5.644 0.109,5.637 0.144,5.613 0.165,5.582 0.207,5.559 0.23,5.527 0.285,5.492 0.309,5.461 0.351,5.43 0.395,5.383 0.441,5.339 0.485,5.293 0.535,5.254 0.574,5.207 0.625,5.153 0.68,5.097 0.738,5.043 0.789,4.989 0.848,4.922 0.902,4.867 0.965,4.801 1.023,4.734 1.086,4.656 1.153,4.594 1.23,4.516 1.285,4.449 1.364,4.363 1.429,4.285 1.516,4.207 1.57,4.11 1.672,4.031 1.734,3.945 1.813,3.844 1.902,3.746 1.988,3.66 2.067,3.559 2.164,3.461 2.247,3.351 2.33,3.25 2.43,3.145 2.53,3.019 2.61,2.922 2.72,2.801 2.82,2.691 2.91,2.563 3.02,2.449 3.12,2.316 -3.12,2.321 -3.02,2.449 -2.91,2.559 -2.82,2.691 -2.72,2.805 -2.61,2.922 -2.53,3.019 -2.43,3.145 -2.33,3.25 -2.247,3.351 -2.164,3.461 -2.067,3.559 -1.988,3.66 -1.902,3.746 -1.813,3.844 -1.734,3.945 -1.672,4.031 -1.57,4.11 -1.516,4.207 -1.429,4.285 -1.364,4.363 -1.285,4.449 -1.23,4.516 -1.153,4.59 -1.086,4.66 -1.023,4.734 -0.965,4.801 -0.902,4.867 -0.848,4.922 -0.789,4.988 -0.738,5.043 -0.68,5.098 -0.625,5.152 -0.574,5.207 -0.535,5.255 -0.485,5.29 -0.441,5.34 -0.395,5.38 -0.351,5.43 -0.309,5.46 -0.285,5.5 -0.23,5.52 -0.207,5.56 -0.165,5.58 -0.144,5.62 -0.109,5.63 -0.09,5.65 -0.043,5.68 -0.032,5.68 0,5.71 0.012,5.72 0.031,5.72 0.043,5.74 0.079,5.73 0.078,5.75 0.097,5.74 0.098,5.74 0.121,5.73 0.133,5.72 0.121,5.73 0.133,5.7 0.14,5.7 0.133,5.68 0.141,5.67 0.133,5.64 0.132,5.62 0.122,5.6 0.121,5.57 0.109,5.53 0.098,5.51 0.09,5.48 0.066,5.43 0.055,5.4 0.043,5.35 0.011,5.33 0,5.26 -0.023,5.23 -0.055,5.17 -0.078,5.13 -0.098,5.05 -0.132,5.02 -0.164,4.95 -0.196,4.88 -0.234,4.84 -0.262,4.76 -0.308,4.68 -0.34,4.62 -0.395,4.55 -0.418,4.47 -0.472,4.41 -0.528,4.3 -0.558,4.24 -0.629,4.16 -0.668,4.06 -0.715,3.98 -0.781,3.88 -0.825,3.79 -0.898,3.7 -0.945,3.59 -1.024,3.51 -1.066,3.39 -1.141,3.29 -1.211,3.19 -1.285,3.07 -1.328,2.96 -1.43,2.84 -1.48,2.74 -1.57,2.61 -1.641,2.49 -1.723,2.38 -1.801,2.24 -1.878,2.12 -1.981,1.99 -2.043,1.86 -2.129,1.71 -2.23,1.59 -2.332,1.44 -2.395,1.31 -2.504,1.15 -2.601,1.02 3.644,-1.47 3.504,-1.61 3.387,-1.74 3.25,-1.86 3.133,-1.99 3.007,-2.1 2.891,-2.23 2.77,-2.34 2.66,-2.47 2.535,-2.57 2.441,-2.7 2.317,-2.79 2.219,-2.9 2.109,-3.01 2.012,-3.12 1.898,-3.21 1.816,-3.3 1.711,-3.42 1.618,-3.51 1.527,-3.59 1.426,-3.69 1.351,-3.78 1.266,-3.85 1.176,-3.95 1.097,-4.03 1.02,-4.11 0.937,-4.2 0.868,-4.26 0.789,-4.33 0.714,-4.42 0.649,-4.48 0.582,-4.54 0.527,-4.61 0.461,-4.68 0.395,-4.75 0.332,-4.79 0.285,-4.85 0.219,-4.92 0.175,-4.95 0.133,-5.01 0.067,-5.07 0.031,-5.1 -0.012,-5.17 -0.055,-5.19 -0.085,-5.23 -0.133,-5.29 -0.176,-5.3 -0.199,-5.35 -0.231,-5.37 -0.261,-5.41 -0.274,-5.44 -0.32,-5.46 -0.328,-5.48 -0.364,-5.52 -0.375,-5.52 -0.382,-5.55 -0.407,-5.55 -0.418,-5.58 -0.418,-5.58 -0.441,-5.61 -0.438,-5.59 -0.441,-5.6 -0.449,-5.61 -0.438,-5.61 -0.441,-5.61 -0.438,-5.6 -0.429,-5.61 -0.418,-5.59 -0.418,-5.58 -0.395,-5.56 -0.375,-5.56 -0.359,-5.55 -0.352,-5.51 -0.308,-5.51 -0.309,-5.48 -0.273,-5.45 -0.231,-5.42 -0.222,-5.41 -0.184,-5.37 -0.144,-5.34 -0.11,-5.3 -0.078,-5.27 -0.031,-5.22 0.011,-5.2 0.063,-5.137 0.102,-5.098 0.152,-5.043 0.199,-5.011 0.25,-4.942 0.32,-4.902 0.375,-4.832 0.426,-4.793 0.496,-4.711 0.551,-4.672 0.613,-4.59 0.692,-4.527 0.758,-4.473 0.835,-4.382 0.911,-4.329 0.98,-4.242 1.067,-4.172 1.128,-4.089 1.231,-4.008 1.309,-3.922 1.394,-3.848 1.496,-3.758 1.57,-3.656 1.68,-3.582 1.77,-3.473 1.855,-3.394 1.969,-3.285 2.066,-3.188 2.172,-3.086 2.28,-2.988 2.38,-2.879 2.49,-2.766 2.61,-2.66 2.71,-2.55 2.85,-2.426 2.95,-2.321 -2.95,-2.316 -2.85,-2.43 -2.71,-2.547 -2.61,-2.66 -2.49,-2.769 -2.38,-2.875 -2.28,-2.988 -2.172,-3.09 -2.066,-3.184 -1.969,-3.285 -1.855,-3.395 -1.77,-3.472 -1.68,-3.582 -1.57,-3.66 -1.496,-3.758 -1.394,-3.844 -1.309,-3.922 -1.231,-4.012 -1.128,-4.086 -1.067,-4.175 -0.98,-4.239 -0.911,-4.328 -0.835,-4.386 -0.758,-4.469 -0.692,-4.528 -0.613,-4.593 -0.551,-4.668 -0.496,-4.715 -0.426,-4.789 -0.375,-4.832 -0.32,-4.903 -0.25,-4.941 -0.199,-5.012 -0.152,-5.043 -0.102,-5.097 -0.063,-5.141 -0.011,-5.195 0.031,-5.219 0.078,-5.273 0.11,-5.297 0.144,-5.34 0.184,-5.371 0.222,-5.406 0.231,-5.426 0.273,-5.453 0.309,-5.481 0.308,-5.504 0.352,-5.515 0.359,-5.547 0.375,-5.551 0.395,-5.57 0.418,-5.59 0.418,-5.594 0.429,-5.59 0.438,-5.605 0.441,-5.614 0.438,-5.601 0.449,-5.617 0.441,-5.602 0.438,-5.601 0.441,-5.594 0.418,-5.582 0.418,-5.571 0.407,-5.57 0.382,-5.535 0.375,-5.527 0.364,-5.516 0.328,-5.48 0.32,-5.461 0.274,-5.438 0.261,-5.406 0.231,-5.383 0.199,-5.34 0.176,-5.316 0.133,-5.274 0.085,-5.23 0.055,-5.195 0.012,-5.164 -0.031,-5.11 -0.067,-5.055 -0.133,-5.019 -0.175,-4.957 -0.219,-4.91 -0.285,-4.856 -0.332,-4.8 -0.395,-4.735 -0.461,-4.68 -0.527,-4.605 -0.582,-4.547 -0.649,-4.484 -0.714,-4.407 -0.789,-4.339 -0.868,-4.262 -0.937,-4.195 -1.02,-4.11 -1.097,-4.019 -1.176,-3.957 -1.266,-3.856 -1.351,-3.781 -1.426,-3.691 -1.527,-3.59 -1.618,-3.508 -1.711,-3.414 -1.816,-3.309 -1.898,-3.219 -2.012,-3.109 -2.109,-3.012 -2.219,-2.898 -2.317,-2.801 -2.441,-2.68 -2.535,-2.582 -2.66,-2.46 -2.77,-2.34 -2.891,-2.231 -3.007,-2.109 -3.133,-1.992 -3.25,-1.856 -3.387,-1.734 -3.504,-1.617 -3.644,-1.473 z" /><path
         id="path74"
         style="fill:none;stroke:#000000;stroke-width:7.97009993;stroke-linecap:butt;stroke-linejoin:miter;stroke-miterlimit:10;stroke-dasharray:none;stroke-opacity:1"
         d="m 899.008,1401.61 0,-27" /><path
         id="path76"
         style="fill:none;stroke:#000000;stroke-width:7.97009993;stroke-linecap:butt;stroke-linejoin:miter;stroke-miterlimit:10;stroke-dasharray:none;stroke-opacity:1"
         d="m 899.008,1320.61 0,-26.99" /><path
         id="path78"
         style="fill:none;stroke:#000000;stroke-width:7.97009993;stroke-linecap:butt;stroke-linejoin:miter;stroke-miterlimit:10;stroke-dasharray:none;stroke-opacity:1"
         d="m 899.008,1293.62 0,-27.01" /><path
         id="path80"
         style="fill:none;stroke:#000000;stroke-width:7.97009993;stroke-linecap:butt;stroke-linejoin:miter;stroke-miterlimit:10;stroke-dasharray:none;stroke-opacity:1"
         d="m 899.008,1212.61 0,-27" /><path
         id="path82"
         style="fill:none;stroke:#000000;stroke-width:7.97009993;stroke-linecap:butt;stroke-linejoin:miter;stroke-miterlimit:10;stroke-dasharray:none;stroke-opacity:1"
         d="m 899.008,1185.61 0,-27" /><path
         id="path84"
         style="fill:none;stroke:#000000;stroke-width:7.97009993;stroke-linecap:butt;stroke-linejoin:miter;stroke-miterlimit:10;stroke-dasharray:none;stroke-opacity:1"
         d="m 899.008,1104.61 0,-27" /><path
         id="path86"
         style="fill:none;stroke:#000000;stroke-width:7.97009993;stroke-linecap:butt;stroke-linejoin:miter;stroke-miterlimit:10;stroke-dasharray:none;stroke-opacity:1"
         d="m 899.008,1077.61 0,-27" /><path
         id="path88"
         style="fill:none;stroke:#000000;stroke-width:7.97009993;stroke-linecap:butt;stroke-linejoin:miter;stroke-miterlimit:10;stroke-dasharray:none;stroke-opacity:1"
         d="m 899.008,996.609 0,-27.004" /><path
         id="path90"
         style="fill:none;stroke:#000000;stroke-width:7.97009993;stroke-linecap:butt;stroke-linejoin:miter;stroke-miterlimit:10;stroke-dasharray:none;stroke-opacity:1"
         d="m 899.008,969.605 0,-26.996" /><path
         id="path92"
         style="fill:none;stroke:#000000;stroke-width:7.97009993;stroke-linecap:butt;stroke-linejoin:miter;stroke-miterlimit:10;stroke-dasharray:none;stroke-opacity:1"
         d="m 899.008,888.613 0,-27.008" /><path
         id="path94"
         style="fill:none;stroke:#000000;stroke-width:7.97009993;stroke-linecap:butt;stroke-linejoin:miter;stroke-miterlimit:10;stroke-dasharray:none;stroke-opacity:1"
         d="m 899.008,861.605 0,-27.003" /><path
         id="path96"
         style="fill:none;stroke:#000000;stroke-width:7.97009993;stroke-linecap:butt;stroke-linejoin:miter;stroke-miterlimit:10;stroke-dasharray:none;stroke-opacity:1"
         d="m 899.008,780.605 0,-26.996" /><path
         id="path98"
         style="fill:none;stroke:#000000;stroke-width:7.97009993;stroke-linecap:butt;stroke-linejoin:miter;stroke-miterlimit:10;stroke-dasharray:none;stroke-opacity:1"
         d="m 899.008,753.609 0,-27.004" /><path
         id="path100"
         style="fill:none;stroke:#000000;stroke-width:7.97009993;stroke-linecap:butt;stroke-linejoin:miter;stroke-miterlimit:10;stroke-dasharray:none;stroke-opacity:1"
         d="m 899.008,672.605 0,-27.003" /><path
         id="path102"
         style="fill:none;stroke:#000000;stroke-width:7.97009993;stroke-linecap:butt;stroke-linejoin:miter;stroke-miterlimit:10;stroke-dasharray:none;stroke-opacity:1"
         d="m 899.008,645.602 0,-26.993" /><path
         id="path104"
         style="fill:none;stroke:#000000;stroke-width:7.97009993;stroke-linecap:butt;stroke-linejoin:miter;stroke-miterlimit:10;stroke-dasharray:none;stroke-opacity:1"
         d="m 899.008,564.598 0,-26.993" /><path
         id="path106"
         style="fill:none;stroke:#000000;stroke-width:7.97009993;stroke-linecap:butt;stroke-linejoin:miter;stroke-miterlimit:10;stroke-dasharray:none;stroke-opacity:1"
         d="m 899.008,537.605 0,-27.003" /><path
         id="path108"
         style="fill:none;stroke:#000000;stroke-width:7.97009993;stroke-linecap:butt;stroke-linejoin:miter;stroke-miterlimit:10;stroke-dasharray:none;stroke-opacity:1"
         d="m 899.008,456.602 0,-27.004" /><path
         id="path110"
         style="fill:none;stroke:#000000;stroke-width:7.97009993;stroke-linecap:butt;stroke-linejoin:miter;stroke-miterlimit:10;stroke-dasharray:none;stroke-opacity:1"
         d="m 899.008,429.598 0,-26.996" /><path
         id="path112"
         style="fill:none;stroke:#000000;stroke-width:7.97009993;stroke-linecap:butt;stroke-linejoin:miter;stroke-miterlimit:10;stroke-dasharray:none;stroke-opacity:1"
         d="m 899.008,348.605 0,-27.003" /><g
         transform="matrix(146.4,0,0,-134.4,23.4799,321.48)"
         id="g114"><rect
           id="rect116"
           style="fill:#ffffff;fill-opacity:1;fill-rule:nonzero"
           transform="matrix(1,0,0,-1,0,1)"
           height="1"
           width="1"
           y="0"
           x="0" /></g><g
         transform="scale(10,10)"
         id="g118"><text
           id="text120"
           style="font-variant:normal;font-weight:normal;font-size:10.90909958px;font-family:CMMI10;-inkscape-font-specification:CMMI10;writing-mode:lr-tb;fill:#000000;fill-opacity:1;fill-rule:nonzero;stroke:none"
           transform="matrix(1,0,0,-1,5.36016,21.7199)"><tspan
             id="tspan122"
             y="0"
             x="0">O</tspan></text>
</g><g
         transform="matrix(159.6,0,0,-134.4,1690.78,321.48)"
         id="g124"><rect
           id="rect126"
           style="fill:#ffffff;fill-opacity:1;fill-rule:nonzero"
           transform="matrix(1,0,0,-1,0,1)"
           height="1"
           width="1"
           y="0"
           x="0" /></g><g
         transform="scale(10,10)"
         id="g128"><text
           id="text130"
           style="font-variant:normal;font-weight:normal;font-size:10.90909958px;font-family:CMMI10;-inkscape-font-specification:CMMI10;writing-mode:lr-tb;fill:#000000;fill-opacity:1;fill-rule:nonzero;stroke:none"
           transform="matrix(1,0,0,-1,172.09,21.7199)"><tspan
             id="tspan132"
             y="0"
             x="0">X</tspan></text>
</g><g
         transform="matrix(147.6,0,0,-134.4,22.2799,1808.78)"
         id="g134"><rect
           id="rect136"
           style="fill:#ffffff;fill-opacity:1;fill-rule:nonzero"
           transform="matrix(1,0,0,-1,0,1)"
           height="1"
           width="1"
           y="0"
           x="0" /></g><g
         transform="scale(10,10)"
         id="g138"><text
           id="text140"
           style="font-variant:normal;font-weight:normal;font-size:10.90909958px;font-family:CMMI10;-inkscape-font-specification:CMMI10;writing-mode:lr-tb;fill:#000000;fill-opacity:1;fill-rule:nonzero;stroke:none"
           transform="matrix(1,0,0,-1,5.23984,170.45)"><tspan
             id="tspan142"
             y="0"
             x="0">Y</tspan></text>
</g><path
         id="path144"
         style="fill:none;stroke:#000000;stroke-width:11.95530033;stroke-linecap:butt;stroke-linejoin:miter;stroke-miterlimit:10;stroke-dasharray:none;stroke-opacity:1"
         d="m 7.99219,321.602 1782.02781,0" /><path
         id="path146"
         style="fill:none;stroke:#000000;stroke-width:11.95530033;stroke-linecap:butt;stroke-linejoin:miter;stroke-miterlimit:10;stroke-dasharray:none;stroke-opacity:1"
         d="m 170,177.602 0,1584.018" /><g
         transform="scale(10,10)"
         id="g148"><text
           id="text150"
           style="font-variant:normal;font-weight:normal;font-size:11.9552002px;font-family:CMCSC10;-inkscape-font-specification:CMCSC10;writing-mode:lr-tb;fill:#000000;fill-opacity:1;fill-rule:nonzero;stroke:none"
           transform="matrix(1,0,0,-1,75.441,0.0890625)"><tspan
             id="tspan152"
             y="0"
             x="0 8.5141897 12.111581 19.790342 28.065218 34.667995 41.270775">Fig.35.</tspan></text>
</g></g></g></svg>