<?xml version="1.0" encoding="UTF-8" standalone="no"?>
<svg
   xmlns:dc="http://purl.org/dc/elements/1.1/"
   xmlns:cc="http://creativecommons.org/ns#"
   xmlns:rdf="http://www.w3.org/1999/02/22-rdf-syntax-ns#"
   xmlns:svg="http://www.w3.org/2000/svg"
   xmlns="http://www.w3.org/2000/svg"
   viewBox="0 0 248.75 203.75"
   height="203.75"
   width="248.75"
   xml:space="preserve"
   version="1.1"
   id="svg2"><metadata
     id="metadata8"><rdf:RDF><cc:Work
         rdf:about=""><dc:format>image/svg+xml</dc:format><dc:type
           rdf:resource="http://purl.org/dc/dcmitype/StillImage" /></cc:Work></rdf:RDF></metadata><defs
     id="defs6"><clipPath
       id="clipPath12"
       clipPathUnits="userSpaceOnUse"><path
         id="path14"
         d="m -2,-2 199,0 0,163 -199,0 0,-163 z" /></clipPath></defs><g
     clip-path="url(#clipPath12)"
     transform="matrix(1.25,0,0,-1.25,2.5,201.25)"
     id="g10"><g
       transform="scale(0.1,0.1)"
       id="g16"><path
         id="path18"
         style="fill:none;stroke:#000000;stroke-width:11.95530033;stroke-linecap:butt;stroke-linejoin:miter;stroke-miterlimit:10;stroke-dasharray:none;stroke-opacity:1"
         d="m 120,699.602 40.176,10.929 40.179,11.239 40.176,11.558 40.188,11.899 40.179,12.238 40.176,12.601 40.18,12.954 40.176,13.339 40.179,13.723 40.176,14.117 40.188,14.524 40.179,14.941 40.176,15.371 40.18,15.82 40.176,16.282 40.179,16.742 40.176,17.226 40.18,17.735 40.187,18.234 40.176,18.778 40.18,19.308 40.178,19.87 40.18,20.45 40.18,21.02 40.18,21.65 40.18,22.27 40.18,22.9 40.18,23.57 40.17,24.26 40.18,24.96 40.18,25.68 40.17,26.41 40.19,27.18 40.18,27.97 40.18,28.76 40.18,29.61 40.17,30.46 40.19,31.35 40.18,32.24 40.18,33.18" /><path
         id="path20"
         style="fill:none;stroke:#000000;stroke-width:7.97009993;stroke-linecap:butt;stroke-linejoin:miter;stroke-miterlimit:10;stroke-dasharray:none;stroke-opacity:1"
         d="m 377.148,321.602 0,28.343" /><path
         id="path22"
         style="fill:none;stroke:#000000;stroke-width:7.97009993;stroke-linecap:butt;stroke-linejoin:miter;stroke-miterlimit:10;stroke-dasharray:none;stroke-opacity:1"
         d="m 377.148,406.645 0,28.359" /><path
         id="path24"
         style="fill:none;stroke:#000000;stroke-width:7.97009993;stroke-linecap:butt;stroke-linejoin:miter;stroke-miterlimit:10;stroke-dasharray:none;stroke-opacity:1"
         d="m 377.148,435.004 0,28.344" /><path
         id="path26"
         style="fill:none;stroke:#000000;stroke-width:7.97009993;stroke-linecap:butt;stroke-linejoin:miter;stroke-miterlimit:10;stroke-dasharray:none;stroke-opacity:1"
         d="m 377.148,520.047 0,28.359" /><path
         id="path28"
         style="fill:none;stroke:#000000;stroke-width:7.97009993;stroke-linecap:butt;stroke-linejoin:miter;stroke-miterlimit:10;stroke-dasharray:none;stroke-opacity:1"
         d="m 377.148,548.406 0,28.344" /><path
         id="path30"
         style="fill:none;stroke:#000000;stroke-width:7.97009993;stroke-linecap:butt;stroke-linejoin:miter;stroke-miterlimit:10;stroke-dasharray:none;stroke-opacity:1"
         d="m 377.148,633.449 0,28.36" /><path
         id="path32"
         style="fill:none;stroke:#000000;stroke-width:7.97009993;stroke-linecap:butt;stroke-linejoin:miter;stroke-miterlimit:10;stroke-dasharray:none;stroke-opacity:1"
         d="m 377.148,661.809 0,28.343" /><path
         id="path34"
         style="fill:none;stroke:#000000;stroke-width:7.97009993;stroke-linecap:butt;stroke-linejoin:miter;stroke-miterlimit:10;stroke-dasharray:none;stroke-opacity:1"
         d="m 377.148,746.852 0,28.359" /><path
         id="path36"
         style="fill:none;stroke:#000000;stroke-width:11.95530033;stroke-linecap:butt;stroke-linejoin:miter;stroke-miterlimit:10;stroke-dasharray:none;stroke-opacity:1"
         d="m 120,699.602 257.148,0" /><path
         id="path38"
         style="fill:none;stroke:#000000;stroke-width:11.95530033;stroke-linecap:butt;stroke-linejoin:miter;stroke-miterlimit:10;stroke-dasharray:none;stroke-opacity:1"
         d="m 377.148,775.211 0,-75.609" /><path
         id="path40"
         style="fill:none;stroke:#000000;stroke-width:7.97009993;stroke-linecap:butt;stroke-linejoin:miter;stroke-miterlimit:10;stroke-dasharray:none;stroke-opacity:1"
         d="m 634.289,321.602 0,22.675" /><path
         id="path42"
         style="fill:none;stroke:#000000;stroke-width:7.97009993;stroke-linecap:butt;stroke-linejoin:miter;stroke-miterlimit:10;stroke-dasharray:none;stroke-opacity:1"
         d="m 634.289,389.641 0,22.687" /><path
         id="path44"
         style="fill:none;stroke:#000000;stroke-width:7.97009993;stroke-linecap:butt;stroke-linejoin:miter;stroke-miterlimit:10;stroke-dasharray:none;stroke-opacity:1"
         d="m 634.289,412.328 0,22.676" /><path
         id="path46"
         style="fill:none;stroke:#000000;stroke-width:7.97009993;stroke-linecap:butt;stroke-linejoin:miter;stroke-miterlimit:10;stroke-dasharray:none;stroke-opacity:1"
         d="m 634.289,480.367 0,22.676" /><path
         id="path48"
         style="fill:none;stroke:#000000;stroke-width:7.97009993;stroke-linecap:butt;stroke-linejoin:miter;stroke-miterlimit:10;stroke-dasharray:none;stroke-opacity:1"
         d="m 634.289,503.043 0,22.676" /><path
         id="path50"
         style="fill:none;stroke:#000000;stroke-width:7.97009993;stroke-linecap:butt;stroke-linejoin:miter;stroke-miterlimit:10;stroke-dasharray:none;stroke-opacity:1"
         d="m 634.289,571.082 0,22.688" /><path
         id="path52"
         style="fill:none;stroke:#000000;stroke-width:7.97009993;stroke-linecap:butt;stroke-linejoin:miter;stroke-miterlimit:10;stroke-dasharray:none;stroke-opacity:1"
         d="m 634.289,593.77 0,22.675" /><path
         id="path54"
         style="fill:none;stroke:#000000;stroke-width:7.97009993;stroke-linecap:butt;stroke-linejoin:miter;stroke-miterlimit:10;stroke-dasharray:none;stroke-opacity:1"
         d="m 634.289,661.809 0,22.675" /><path
         id="path56"
         style="fill:none;stroke:#000000;stroke-width:7.97009993;stroke-linecap:butt;stroke-linejoin:miter;stroke-miterlimit:10;stroke-dasharray:none;stroke-opacity:1"
         d="m 634.289,684.484 0,22.688" /><path
         id="path58"
         style="fill:none;stroke:#000000;stroke-width:7.97009993;stroke-linecap:butt;stroke-linejoin:miter;stroke-miterlimit:10;stroke-dasharray:none;stroke-opacity:1"
         d="m 634.289,752.523 0,22.688" /><path
         id="path60"
         style="fill:none;stroke:#000000;stroke-width:7.97009993;stroke-linecap:butt;stroke-linejoin:miter;stroke-miterlimit:10;stroke-dasharray:none;stroke-opacity:1"
         d="m 634.289,775.211 0,22.676" /><path
         id="path62"
         style="fill:none;stroke:#000000;stroke-width:7.97009993;stroke-linecap:butt;stroke-linejoin:miter;stroke-miterlimit:10;stroke-dasharray:none;stroke-opacity:1"
         d="m 634.289,843.25 0,22.676" /><path
         id="path64"
         style="fill:none;stroke:#000000;stroke-width:11.95530033;stroke-linecap:butt;stroke-linejoin:miter;stroke-miterlimit:10;stroke-dasharray:none;stroke-opacity:1"
         d="m 377.148,775.211 257.141,0" /><path
         id="path66"
         style="fill:none;stroke:#000000;stroke-width:11.95530033;stroke-linecap:butt;stroke-linejoin:miter;stroke-miterlimit:10;stroke-dasharray:none;stroke-opacity:1"
         d="m 634.289,865.926 0,-90.715" /><path
         id="path68"
         style="fill:none;stroke:#000000;stroke-width:7.97009993;stroke-linecap:butt;stroke-linejoin:miter;stroke-miterlimit:10;stroke-dasharray:none;stroke-opacity:1"
         d="m 891.438,321.602 0,27.21" /><path
         id="path70"
         style="fill:none;stroke:#000000;stroke-width:7.97009993;stroke-linecap:butt;stroke-linejoin:miter;stroke-miterlimit:10;stroke-dasharray:none;stroke-opacity:1"
         d="m 891.438,403.25 0,27.215" /><path
         id="path72"
         style="fill:none;stroke:#000000;stroke-width:7.97009993;stroke-linecap:butt;stroke-linejoin:miter;stroke-miterlimit:10;stroke-dasharray:none;stroke-opacity:1"
         d="m 891.438,430.465 0,27.215" /><path
         id="path74"
         style="fill:none;stroke:#000000;stroke-width:7.97009993;stroke-linecap:butt;stroke-linejoin:miter;stroke-miterlimit:10;stroke-dasharray:none;stroke-opacity:1"
         d="m 891.438,512.117 0,27.211" /><path
         id="path76"
         style="fill:none;stroke:#000000;stroke-width:7.97009993;stroke-linecap:butt;stroke-linejoin:miter;stroke-miterlimit:10;stroke-dasharray:none;stroke-opacity:1"
         d="m 891.438,539.328 0,27.215" /><path
         id="path78"
         style="fill:none;stroke:#000000;stroke-width:7.97009993;stroke-linecap:butt;stroke-linejoin:miter;stroke-miterlimit:10;stroke-dasharray:none;stroke-opacity:1"
         d="m 891.438,620.98 0,27.215" /><path
         id="path80"
         style="fill:none;stroke:#000000;stroke-width:7.97009993;stroke-linecap:butt;stroke-linejoin:miter;stroke-miterlimit:10;stroke-dasharray:none;stroke-opacity:1"
         d="m 891.438,648.195 0,27.215" /><path
         id="path82"
         style="fill:none;stroke:#000000;stroke-width:7.97009993;stroke-linecap:butt;stroke-linejoin:miter;stroke-miterlimit:10;stroke-dasharray:none;stroke-opacity:1"
         d="m 891.438,729.848 0,27.211" /><path
         id="path84"
         style="fill:none;stroke:#000000;stroke-width:7.97009993;stroke-linecap:butt;stroke-linejoin:miter;stroke-miterlimit:10;stroke-dasharray:none;stroke-opacity:1"
         d="m 891.438,757.059 0,27.214" /><path
         id="path86"
         style="fill:none;stroke:#000000;stroke-width:7.97009993;stroke-linecap:butt;stroke-linejoin:miter;stroke-miterlimit:10;stroke-dasharray:none;stroke-opacity:1"
         d="m 891.438,838.711 0,27.215" /><path
         id="path88"
         style="fill:none;stroke:#000000;stroke-width:7.97009993;stroke-linecap:butt;stroke-linejoin:miter;stroke-miterlimit:10;stroke-dasharray:none;stroke-opacity:1"
         d="m 891.438,865.926 0,27.211" /><path
         id="path90"
         style="fill:none;stroke:#000000;stroke-width:7.97009993;stroke-linecap:butt;stroke-linejoin:miter;stroke-miterlimit:10;stroke-dasharray:none;stroke-opacity:1"
         d="m 891.438,947.574 0,27.215" /><path
         id="path92"
         style="fill:none;stroke:#000000;stroke-width:11.95530033;stroke-linecap:butt;stroke-linejoin:miter;stroke-miterlimit:10;stroke-dasharray:none;stroke-opacity:1"
         d="m 634.289,865.926 257.149,0" /><path
         id="path94"
         style="fill:none;stroke:#000000;stroke-width:11.95530033;stroke-linecap:butt;stroke-linejoin:miter;stroke-miterlimit:10;stroke-dasharray:none;stroke-opacity:1"
         d="m 891.438,974.789 0,-108.863" /><path
         id="path96"
         style="fill:none;stroke:#000000;stroke-width:7.97009993;stroke-linecap:butt;stroke-linejoin:miter;stroke-miterlimit:10;stroke-dasharray:none;stroke-opacity:1"
         d="m 1148.59,321.602 0,24.5" /><path
         id="path98"
         style="fill:none;stroke:#000000;stroke-width:7.97009993;stroke-linecap:butt;stroke-linejoin:miter;stroke-miterlimit:10;stroke-dasharray:none;stroke-opacity:1"
         d="m 1148.59,395.09 0,24.488" /><path
         id="path100"
         style="fill:none;stroke:#000000;stroke-width:7.97009993;stroke-linecap:butt;stroke-linejoin:miter;stroke-miterlimit:10;stroke-dasharray:none;stroke-opacity:1"
         d="m 1148.59,419.578 0,24.5" /><path
         id="path102"
         style="fill:none;stroke:#000000;stroke-width:7.97009993;stroke-linecap:butt;stroke-linejoin:miter;stroke-miterlimit:10;stroke-dasharray:none;stroke-opacity:1"
         d="m 1148.59,493.066 0,24.489" /><path
         id="path104"
         style="fill:none;stroke:#000000;stroke-width:7.97009993;stroke-linecap:butt;stroke-linejoin:miter;stroke-miterlimit:10;stroke-dasharray:none;stroke-opacity:1"
         d="m 1148.59,517.555 0,24.5" /><path
         id="path106"
         style="fill:none;stroke:#000000;stroke-width:7.97009993;stroke-linecap:butt;stroke-linejoin:miter;stroke-miterlimit:10;stroke-dasharray:none;stroke-opacity:1"
         d="m 1148.59,591.043 0,24.488" /><path
         id="path108"
         style="fill:none;stroke:#000000;stroke-width:7.97009993;stroke-linecap:butt;stroke-linejoin:miter;stroke-miterlimit:10;stroke-dasharray:none;stroke-opacity:1"
         d="m 1148.59,615.531 0,24.5" /><path
         id="path110"
         style="fill:none;stroke:#000000;stroke-width:7.97009993;stroke-linecap:butt;stroke-linejoin:miter;stroke-miterlimit:10;stroke-dasharray:none;stroke-opacity:1"
         d="m 1148.59,689.02 0,24.5" /><path
         id="path112"
         style="fill:none;stroke:#000000;stroke-width:7.97009993;stroke-linecap:butt;stroke-linejoin:miter;stroke-miterlimit:10;stroke-dasharray:none;stroke-opacity:1"
         d="m 1148.59,713.52 0,24.488" /><path
         id="path114"
         style="fill:none;stroke:#000000;stroke-width:7.97009993;stroke-linecap:butt;stroke-linejoin:miter;stroke-miterlimit:10;stroke-dasharray:none;stroke-opacity:1"
         d="m 1148.59,786.996 0,24.5" /><path
         id="path116"
         style="fill:none;stroke:#000000;stroke-width:7.97009993;stroke-linecap:butt;stroke-linejoin:miter;stroke-miterlimit:10;stroke-dasharray:none;stroke-opacity:1"
         d="m 1148.59,811.496 0,24.492" /><path
         id="path118"
         style="fill:none;stroke:#000000;stroke-width:7.97009993;stroke-linecap:butt;stroke-linejoin:miter;stroke-miterlimit:10;stroke-dasharray:none;stroke-opacity:1"
         d="m 1148.59,884.977 0,24.5" /><path
         id="path120"
         style="fill:none;stroke:#000000;stroke-width:7.97009993;stroke-linecap:butt;stroke-linejoin:miter;stroke-miterlimit:10;stroke-dasharray:none;stroke-opacity:1"
         d="m 1148.59,909.477 0,24.488" /><path
         id="path122"
         style="fill:none;stroke:#000000;stroke-width:7.97009993;stroke-linecap:butt;stroke-linejoin:miter;stroke-miterlimit:10;stroke-dasharray:none;stroke-opacity:1"
         d="m 1148.59,982.953 0,24.497" /><path
         id="path124"
         style="fill:none;stroke:#000000;stroke-width:7.97009993;stroke-linecap:butt;stroke-linejoin:miter;stroke-miterlimit:10;stroke-dasharray:none;stroke-opacity:1"
         d="m 1148.59,1007.45 0,24.5" /><path
         id="path126"
         style="fill:none;stroke:#000000;stroke-width:7.97009993;stroke-linecap:butt;stroke-linejoin:miter;stroke-miterlimit:10;stroke-dasharray:none;stroke-opacity:1"
         d="m 1148.59,1080.94 0,24.49" /><path
         id="path128"
         style="fill:none;stroke:#000000;stroke-width:11.95530033;stroke-linecap:butt;stroke-linejoin:miter;stroke-miterlimit:10;stroke-dasharray:none;stroke-opacity:1"
         d="m 891.438,974.789 257.152,0" /><path
         id="path130"
         style="fill:none;stroke:#000000;stroke-width:11.95530033;stroke-linecap:butt;stroke-linejoin:miter;stroke-miterlimit:10;stroke-dasharray:none;stroke-opacity:1"
         d="m 1148.59,1105.43 0,-130.641" /><path
         id="path132"
         style="fill:none;stroke:#000000;stroke-width:7.97009993;stroke-linecap:butt;stroke-linejoin:miter;stroke-miterlimit:10;stroke-dasharray:none;stroke-opacity:1"
         d="m 1405.72,321.602 0,29.386" /><path
         id="path134"
         style="fill:none;stroke:#000000;stroke-width:7.97009993;stroke-linecap:butt;stroke-linejoin:miter;stroke-miterlimit:10;stroke-dasharray:none;stroke-opacity:1"
         d="m 1405.72,409.777 0,29.399" /><path
         id="path136"
         style="fill:none;stroke:#000000;stroke-width:7.97009993;stroke-linecap:butt;stroke-linejoin:miter;stroke-miterlimit:10;stroke-dasharray:none;stroke-opacity:1"
         d="m 1405.72,439.176 0,29.39" /><path
         id="path138"
         style="fill:none;stroke:#000000;stroke-width:7.97009993;stroke-linecap:butt;stroke-linejoin:miter;stroke-miterlimit:10;stroke-dasharray:none;stroke-opacity:1"
         d="m 1405.72,527.355 0,29.399" /><path
         id="path140"
         style="fill:none;stroke:#000000;stroke-width:7.97009993;stroke-linecap:butt;stroke-linejoin:miter;stroke-miterlimit:10;stroke-dasharray:none;stroke-opacity:1"
         d="m 1405.72,556.754 0,29.391" /><path
         id="path142"
         style="fill:none;stroke:#000000;stroke-width:7.97009993;stroke-linecap:butt;stroke-linejoin:miter;stroke-miterlimit:10;stroke-dasharray:none;stroke-opacity:1"
         d="m 1405.72,644.934 0,29.386" /><path
         id="path144"
         style="fill:none;stroke:#000000;stroke-width:7.97009993;stroke-linecap:butt;stroke-linejoin:miter;stroke-miterlimit:10;stroke-dasharray:none;stroke-opacity:1"
         d="m 1405.72,674.32 0,29.399" /><path
         id="path146"
         style="fill:none;stroke:#000000;stroke-width:7.97009993;stroke-linecap:butt;stroke-linejoin:miter;stroke-miterlimit:10;stroke-dasharray:none;stroke-opacity:1"
         d="m 1405.72,762.508 0,29.39" /><path
         id="path148"
         style="fill:none;stroke:#000000;stroke-width:7.97009993;stroke-linecap:butt;stroke-linejoin:miter;stroke-miterlimit:10;stroke-dasharray:none;stroke-opacity:1"
         d="m 1405.72,791.898 0,29.399" /><path
         id="path150"
         style="fill:none;stroke:#000000;stroke-width:7.97009993;stroke-linecap:butt;stroke-linejoin:miter;stroke-miterlimit:10;stroke-dasharray:none;stroke-opacity:1"
         d="m 1405.72,880.074 0,29.403" /><path
         id="path152"
         style="fill:none;stroke:#000000;stroke-width:7.97009993;stroke-linecap:butt;stroke-linejoin:miter;stroke-miterlimit:10;stroke-dasharray:none;stroke-opacity:1"
         d="m 1405.72,909.477 0,29.386" /><path
         id="path154"
         style="fill:none;stroke:#000000;stroke-width:7.97009993;stroke-linecap:butt;stroke-linejoin:miter;stroke-miterlimit:10;stroke-dasharray:none;stroke-opacity:1"
         d="m 1405.72,997.652 0,29.398" /><path
         id="path156"
         style="fill:none;stroke:#000000;stroke-width:7.97009993;stroke-linecap:butt;stroke-linejoin:miter;stroke-miterlimit:10;stroke-dasharray:none;stroke-opacity:1"
         d="m 1405.72,1027.05 0,29.39" /><path
         id="path158"
         style="fill:none;stroke:#000000;stroke-width:7.97009993;stroke-linecap:butt;stroke-linejoin:miter;stroke-miterlimit:10;stroke-dasharray:none;stroke-opacity:1"
         d="m 1405.72,1115.23 0,29.39" /><path
         id="path160"
         style="fill:none;stroke:#000000;stroke-width:7.97009993;stroke-linecap:butt;stroke-linejoin:miter;stroke-miterlimit:10;stroke-dasharray:none;stroke-opacity:1"
         d="m 1405.72,1144.62 0,29.4" /><path
         id="path162"
         style="fill:none;stroke:#000000;stroke-width:7.97009993;stroke-linecap:butt;stroke-linejoin:miter;stroke-miterlimit:10;stroke-dasharray:none;stroke-opacity:1"
         d="m 1405.72,1232.8 0,29.4" /><path
         id="path164"
         style="fill:none;stroke:#000000;stroke-width:11.95530033;stroke-linecap:butt;stroke-linejoin:miter;stroke-miterlimit:10;stroke-dasharray:none;stroke-opacity:1"
         d="m 1148.59,1105.43 257.13,0" /><path
         id="path166"
         style="fill:none;stroke:#000000;stroke-width:11.95530033;stroke-linecap:butt;stroke-linejoin:miter;stroke-miterlimit:10;stroke-dasharray:none;stroke-opacity:1"
         d="m 1405.72,1262.2 0,-156.77" /><path
         id="path168"
         style="fill:none;stroke:#000000;stroke-width:7.97009993;stroke-linecap:butt;stroke-linejoin:miter;stroke-miterlimit:10;stroke-dasharray:none;stroke-opacity:1"
         d="m 1662.88,321.602 0,28.21" /><path
         id="path170"
         style="fill:none;stroke:#000000;stroke-width:7.97009993;stroke-linecap:butt;stroke-linejoin:miter;stroke-miterlimit:10;stroke-dasharray:none;stroke-opacity:1"
         d="m 1662.88,406.25 0,28.227" /><path
         id="path172"
         style="fill:none;stroke:#000000;stroke-width:7.97009993;stroke-linecap:butt;stroke-linejoin:miter;stroke-miterlimit:10;stroke-dasharray:none;stroke-opacity:1"
         d="m 1662.88,434.477 0,28.211" /><path
         id="path174"
         style="fill:none;stroke:#000000;stroke-width:7.97009993;stroke-linecap:butt;stroke-linejoin:miter;stroke-miterlimit:10;stroke-dasharray:none;stroke-opacity:1"
         d="m 1662.88,519.125 0,28.215" /><path
         id="path176"
         style="fill:none;stroke:#000000;stroke-width:7.97009993;stroke-linecap:butt;stroke-linejoin:miter;stroke-miterlimit:10;stroke-dasharray:none;stroke-opacity:1"
         d="m 1662.88,547.34 0,28.222" /><path
         id="path178"
         style="fill:none;stroke:#000000;stroke-width:7.97009993;stroke-linecap:butt;stroke-linejoin:miter;stroke-miterlimit:10;stroke-dasharray:none;stroke-opacity:1"
         d="m 1662.88,632 0,28.215" /><path
         id="path180"
         style="fill:none;stroke:#000000;stroke-width:7.97009993;stroke-linecap:butt;stroke-linejoin:miter;stroke-miterlimit:10;stroke-dasharray:none;stroke-opacity:1"
         d="m 1662.88,660.215 0,28.223" /><path
         id="path182"
         style="fill:none;stroke:#000000;stroke-width:7.97009993;stroke-linecap:butt;stroke-linejoin:miter;stroke-miterlimit:10;stroke-dasharray:none;stroke-opacity:1"
         d="m 1662.88,744.863 0,28.227" /><path
         id="path184"
         style="fill:none;stroke:#000000;stroke-width:7.97009993;stroke-linecap:butt;stroke-linejoin:miter;stroke-miterlimit:10;stroke-dasharray:none;stroke-opacity:1"
         d="m 1662.88,773.09 0,28.211" /><path
         id="path186"
         style="fill:none;stroke:#000000;stroke-width:7.97009993;stroke-linecap:butt;stroke-linejoin:miter;stroke-miterlimit:10;stroke-dasharray:none;stroke-opacity:1"
         d="m 1662.88,857.738 0,28.215" /><path
         id="path188"
         style="fill:none;stroke:#000000;stroke-width:7.97009993;stroke-linecap:butt;stroke-linejoin:miter;stroke-miterlimit:10;stroke-dasharray:none;stroke-opacity:1"
         d="m 1662.88,885.953 0,28.223" /><path
         id="path190"
         style="fill:none;stroke:#000000;stroke-width:7.97009993;stroke-linecap:butt;stroke-linejoin:miter;stroke-miterlimit:10;stroke-dasharray:none;stroke-opacity:1"
         d="m 1662.88,970.613 0,28.215" /><path
         id="path192"
         style="fill:none;stroke:#000000;stroke-width:7.97009993;stroke-linecap:butt;stroke-linejoin:miter;stroke-miterlimit:10;stroke-dasharray:none;stroke-opacity:1"
         d="m 1662.88,998.828 0,28.222" /><path
         id="path194"
         style="fill:none;stroke:#000000;stroke-width:7.97009993;stroke-linecap:butt;stroke-linejoin:miter;stroke-miterlimit:10;stroke-dasharray:none;stroke-opacity:1"
         d="m 1662.88,1083.49 0,28.21" /><path
         id="path196"
         style="fill:none;stroke:#000000;stroke-width:7.97009993;stroke-linecap:butt;stroke-linejoin:miter;stroke-miterlimit:10;stroke-dasharray:none;stroke-opacity:1"
         d="m 1662.88,1111.7 0,28.22" /><path
         id="path198"
         style="fill:none;stroke:#000000;stroke-width:7.97009993;stroke-linecap:butt;stroke-linejoin:miter;stroke-miterlimit:10;stroke-dasharray:none;stroke-opacity:1"
         d="m 1662.88,1196.36 0,28.21" /><path
         id="path200"
         style="fill:none;stroke:#000000;stroke-width:7.97009993;stroke-linecap:butt;stroke-linejoin:miter;stroke-miterlimit:10;stroke-dasharray:none;stroke-opacity:1"
         d="m 1662.88,1224.57 0,28.22" /><path
         id="path202"
         style="fill:none;stroke:#000000;stroke-width:7.97009993;stroke-linecap:butt;stroke-linejoin:miter;stroke-miterlimit:10;stroke-dasharray:none;stroke-opacity:1"
         d="m 1662.88,1309.23 0,28.21" /><path
         id="path204"
         style="fill:none;stroke:#000000;stroke-width:7.97009993;stroke-linecap:butt;stroke-linejoin:miter;stroke-miterlimit:10;stroke-dasharray:none;stroke-opacity:1"
         d="m 1662.88,1337.44 0,28.23" /><path
         id="path206"
         style="fill:none;stroke:#000000;stroke-width:7.97009993;stroke-linecap:butt;stroke-linejoin:miter;stroke-miterlimit:10;stroke-dasharray:none;stroke-opacity:1"
         d="m 1662.88,1422.09 0,28.23" /><path
         id="path208"
         style="fill:none;stroke:#000000;stroke-width:11.95530033;stroke-linecap:butt;stroke-linejoin:miter;stroke-miterlimit:10;stroke-dasharray:none;stroke-opacity:1"
         d="m 1405.72,1262.2 257.16,0" /><path
         id="path210"
         style="fill:none;stroke:#000000;stroke-width:11.95530033;stroke-linecap:butt;stroke-linejoin:miter;stroke-miterlimit:10;stroke-dasharray:none;stroke-opacity:1"
         d="m 1662.88,1450.32 0,-188.12" /><g
         transform="scale(10,10)"
         id="g212"><text
           id="text214"
           style="font-variant:normal;font-weight:normal;font-size:10.90909958px;font-family:CMR10;-inkscape-font-specification:CMR10;writing-mode:lr-tb;fill:#000000;fill-opacity:1;fill-rule:nonzero;stroke:none"
           transform="matrix(1,0,0,-1,34.9551,21.0953)"><tspan
             id="tspan216"
             y="0"
             x="0 25.71373 51.428551 77.143372 102.85743 128.57225">123456</tspan></text>
</g><g
         transform="matrix(106.8,0,0,-135.6,-23.3936,577.68)"
         id="g218"><rect
           id="rect220"
           style="fill:#ffffff;fill-opacity:1;fill-rule:nonzero"
           transform="matrix(1,0,0,-1,0,1)"
           height="1"
           width="1"
           y="0"
           x="0" /></g><g
         transform="scale(10,10)"
         id="g222"><text
           id="text224"
           style="font-variant:normal;font-weight:normal;font-size:10.90909958px;font-family:CMMI10;-inkscape-font-specification:CMMI10;writing-mode:lr-tb;fill:#000000;fill-opacity:1;fill-rule:nonzero;stroke:none"
           transform="matrix(1,0,0,-1,0.552734,47.2199)"><tspan
             id="tspan226"
             y="0"
             x="0">b</tspan></text>
</g><path
         id="path228"
         style="fill:#000000;fill-opacity:1;fill-rule:nonzero;stroke:none"
         d="m 101.906,688.527 -0.89,-0.574 -0.848,-0.601 -0.8125,-0.637 -0.7774,-0.672 -0.7383,-0.703 -0.7148,-0.735 -0.668,-0.757 -0.6367,-0.793 -0.6172,-0.825 -0.582,-0.843 -0.5391,-0.891 -0.5156,-0.902 -0.4922,-0.946 -0.4648,-0.964 -0.4258,-0.989 -0.3984,-1.023 -0.3829,-1.043 -0.3515,-1.067 -0.3203,-1.097 -0.3047,-1.121 -0.2774,-1.153 -0.25,-1.168 -0.2304,-1.195 -0.211,-1.219 -0.1875,-1.23 -0.1757,-1.266 -0.1407,-1.285 -0.1328,-1.308 -0.1094,-1.329 -0.0976,-1.339 -0.0781,-1.364 -0.0547,-1.394 -0.043,-1.395 -0.0352,-1.429 -0.0117,-1.438 0,-1.461 0.0117,-1.473 0.0235,-1.496 0.0312,-1.515 0.043,-1.528 0.0586,-1.535 0.0625,-1.562 0.0664,-1.571 0.0898,-1.582 0.086,-1.593 0.1015,-1.614 0.0977,-1.629 0.0977,-1.636 0.1093,-1.649 0.1211,-1.656 0.1211,-1.672 0.1211,-1.68 0.1211,-1.691 0.1211,-1.703 0.1211,-1.715 0.1211,-1.715 0.1211,-1.734 0.1211,-1.727 0.1211,-1.746 0.1093,-1.746 0.1211,-1.758 0.0977,-1.769 0.1094,-1.758 0.0898,-1.777 0.086,-1.782 0.0898,-1.781 0.0742,-1.777 0.0547,-1.793 0.0664,-1.789 0.0469,-1.793 0.0312,-1.801 0.0235,-1.801 0.0078,-1.793 0,-1.801 -0.0078,-1.8 -0.0352,-1.801 -0.043,-1.793 -0.0546,-1.801 -0.0782,-1.793 -0.0859,-1.789 -0.1094,-1.789 -0.1328,-1.793 -0.1445,-1.789 -0.1641,-1.781 -0.1875,-1.77 -0.207,-1.777 -0.2305,-1.758 -0.2539,-1.769 -0.2734,-1.747 -0.2969,-1.75 -0.332,-1.746 -0.3399,-1.722 -0.3711,-1.727 -0.4062,-1.723 -0.4297,-1.703 -0.4492,-1.703 -0.4961,-1.691 -0.5039,-1.672 -0.5508,-1.668 -0.5703,-1.66 -0.6055,-1.649 -0.6484,-1.625 -0.668,-1.629 -0.7031,-1.601 -0.7383,-1.594 -0.7813,-1.582 -0.8007,-1.57 -0.8438,-1.551 -0.8906,-1.539 -0.9141,-1.516 -0.9648,-1.504 -0.9883,-1.496 -1.043,-1.468 -1.0781,-1.453 -1.1211,-1.438 -1.1523,-1.418 -1.211,-1.394 -1.2422,-1.383 -1.2929,-1.364 -1.3321,-1.339 1.3321,-1.344 1.2929,-1.36 1.2422,-1.375 1.211,-1.406 1.1523,-1.418 1.1211,-1.426 1.0781,-1.461 1.043,-1.472 0.9883,-1.485 0.9648,-1.503 0.9141,-1.528 0.8906,-1.527 0.8438,-1.559 0.8007,-1.562 0.7813,-1.582 0.7383,-1.594 0.7031,-1.613 0.668,-1.617 0.6484,-1.637 0.6055,-1.649 0.5703,-1.644 0.5508,-1.672 0.5039,-1.68 0.4961,-1.691 0.4492,-1.695 0.4297,-1.711 0.4062,-1.715 0.3711,-1.727 0.3399,-1.734 0.332,-1.735 0.2969,-1.75 0.2734,-1.757 0.2539,-1.754 0.2305,-1.77 0.207,-1.769 0.1875,-1.782 0.1641,-1.777 0.1445,-1.781 0.1328,-1.789 0.1094,-1.793 0.0859,-1.789 0.0782,-1.805 0.0546,-1.789 0.043,-1.801 0.0352,-1.804 0.0078,-1.801 0,-1.789 -0.0078,-1.805 -0.0235,-1.801 -0.0312,-1.789 -0.0469,-1.793 -0.0664,-1.801 -0.0547,-1.781 -0.0742,-1.789 -0.0898,-1.781 -0.086,-1.778 -0.0898,-1.769 -0.1094,-1.77 -0.0977,-1.757 -0.1211,-1.758 -0.1093,-1.758 -0.1211,-1.734 -0.1211,-1.739 -0.1211,-1.722 -0.1211,-1.727 -0.1211,-1.715 -0.1211,-1.691 -0.1211,-1.692 -0.1211,-1.679 -0.1211,-1.684 -0.1211,-1.656 -0.1093,-1.649 -0.0977,-1.636 -0.0977,-1.625 -0.1015,-1.606 -0.086,-1.605 -0.0898,-1.582 -0.0664,-1.57 -0.0625,-1.559 -0.0586,-1.539 -0.043,-1.528 -0.0312,-1.503 -0.0235,-1.497 -0.0117,-1.48 0,-1.453 0.0117,-1.449 0.0352,-1.418 0.043,-1.407 0.0547,-1.382 0.0781,-1.375 0.0976,-1.34 0.1094,-1.328 0.1328,-1.309 0.1407,-1.273 0.1757,-1.266 0.1875,-1.238 0.211,-1.223 0.2304,-1.183 0.25,-1.176 0.2774,-1.145 0.3047,-1.121 0.3203,-1.098 0.3515,-1.078 0.3829,-1.043 0.3984,-1.019 0.4258,-0.988 0.4648,-0.969 0.4922,-0.934 0.5156,-0.91 0.5391,-0.879 0.582,-0.859 0.6172,-0.824 0.6367,-0.79 0.668,-0.757 0.7148,-0.739 0.7383,-0.691 0.7774,-0.668 0.8125,-0.641 0.848,-0.601 0.89,-0.574 -1.156,0.738 -1.1094,0.758 -1.0547,0.789 -1.0195,0.816 -0.9805,0.844 -0.9218,0.867 -0.8907,0.891 -0.8554,0.922 -0.8008,0.945 -0.7695,0.969 -0.7266,0.988 -0.6914,1.019 -0.6602,1.047 -0.6133,1.055 -0.582,1.086 -0.5508,1.109 -0.5156,1.133 -0.4726,1.152 -0.4493,1.165 -0.4179,1.199 -0.3868,1.207 -0.3515,1.242 -0.3281,1.254 -0.2969,1.262 -0.2617,1.297 -0.2422,1.308 -0.2227,1.328 -0.1953,1.34 -0.164,1.363 -0.1446,1.383 -0.1211,1.395 -0.0976,1.41 -0.0782,1.426 -0.0546,1.449 -0.0313,1.453 -0.0234,1.469 0,1.496 0.0234,1.496 0.0313,1.516 0.0546,1.527 0.0665,1.535 0.0781,1.551 0.0859,1.57 0.1094,1.57 0.1211,1.594 0.1211,1.594 0.1445,1.605 0.1406,1.625 0.1563,1.625 0.164,1.637 0.1758,1.649 0.1758,1.648 0.1875,1.668 0.1836,1.672 0.1875,1.668 0.1992,1.695 0.1992,1.692 0.1954,1.691 0.1992,1.703 0.1953,1.711 0.1992,1.715 0.1992,1.715 0.1836,1.726 0.1875,1.723 0.1875,1.738 0.1875,1.723 0.1758,1.734 0.1641,1.75 0.164,1.735 0.1563,1.746 0.1406,1.738 0.1328,1.746 0.1211,1.746 0.1094,1.746 0.1093,1.746 0.0899,1.75 0.0664,1.735 0.0625,1.746 0.0469,1.738 0.0195,1.734 0.0234,1.735 -0.0117,1.738 -0.0234,1.723 -0.043,1.726 -0.0664,1.723 -0.0859,1.715 -0.0977,1.715 -0.1328,1.715 -0.1562,1.691 -0.1758,1.703 -0.1953,1.691 -0.2305,1.68 -0.2539,1.672 -0.2734,1.668 -0.3086,1.66 -0.3399,1.649 -0.3633,1.648 -0.3945,1.637 -0.4297,1.613 -0.4609,1.617 -0.4961,1.602 -0.5274,1.594 -0.5586,1.593 -0.5937,1.571 -0.625,1.558 -0.6719,1.551 -0.7031,1.527 -0.7461,1.528 -0.7812,1.504 -0.8243,1.496 -0.8554,1.48 -0.9141,1.473 -0.9414,1.453 -0.9922,1.437 -1.0312,1.418 -1.0782,1.407 -1.1289,1.394 -1.164,1.375 -1.2227,1.348 -1.2617,1.344 1.2617,1.339 1.2227,1.364 1.164,1.371 1.1289,1.383 1.0782,1.406 1.0312,1.418 0.9922,1.441 0.9414,1.461 0.9141,1.461 0.8554,1.484 0.8243,1.493 0.7812,1.515 0.7461,1.516 0.7031,1.539 0.6719,1.551 0.625,1.558 0.5937,1.571 0.5586,1.582 0.5274,1.593 0.4961,1.606 0.4609,1.613 0.4297,1.625 0.3945,1.637 0.3633,1.641 0.3399,1.644 0.3086,1.66 0.2734,1.672 0.2539,1.68 0.2305,1.679 0.1953,1.692 0.1758,1.691 0.1562,1.703 0.1328,1.704 0.0977,1.714 0.0859,1.715 0.0664,1.723 0.043,1.726 0.0234,1.727 0.0117,1.734 -0.0234,1.735 -0.0195,1.738 -0.0469,1.746 -0.0625,1.735 -0.0664,1.75 -0.0899,1.746 -0.1093,1.734 -0.1094,1.746 -0.1211,1.746 -0.1328,1.75 -0.1406,1.746 -0.1563,1.735 -0.164,1.746 -0.1641,1.738 -0.1758,1.734 -0.1875,1.739 -0.1875,1.722 -0.1875,1.727 -0.1836,1.723 -0.1992,1.726 -0.1992,1.715 -0.1953,1.703 -0.1992,1.699 -0.1954,1.703 -0.1992,1.696 -0.1992,1.679 -0.1875,1.68 -0.1836,1.672 -0.1875,1.656 -0.1758,1.66 -0.1758,1.649 -0.164,1.625 -0.1563,1.637 -0.1406,1.617 -0.1445,1.601 -0.1211,1.606 -0.1211,1.582 -0.1094,1.582 -0.0859,1.558 -0.0781,1.551 -0.0665,1.539 -0.0546,1.528 -0.0313,1.515 -0.0234,1.504 0,1.485 0.0234,1.472 0.0313,1.461 0.0546,1.438 0.0782,1.429 0.0976,1.418 0.1211,1.395 0.1446,1.371 0.164,1.363 0.1953,1.352 0.2227,1.32 0.2422,1.316 0.2617,1.286 0.2969,1.273 0.3281,1.254 0.3515,1.23 0.3868,1.207 0.4179,1.2 0.4493,1.175 0.4726,1.153 0.5156,1.121 0.5508,1.109 0.582,1.09 0.6133,1.063 0.6602,1.046 0.6914,1.008 0.7266,0.992 0.7695,0.977 0.8008,0.945 0.8554,0.91 0.8907,0.903 0.9218,0.867 0.9805,0.836 1.0195,0.824 1.0547,0.778 1.1094,0.769 1.156,0.738" /><path
         id="path230"
         style="fill:none;stroke:#000000;stroke-width:3.9849999;stroke-linecap:butt;stroke-linejoin:miter;stroke-miterlimit:10;stroke-dasharray:none;stroke-opacity:1"
         d="m 101.906,688.527 -0.89,-0.574 -0.848,-0.601 -0.8125,-0.637 -0.7774,-0.672 -0.7383,-0.703 -0.7148,-0.735 -0.668,-0.757 -0.6367,-0.793 -0.6172,-0.825 -0.582,-0.843 -0.5391,-0.891 -0.5156,-0.902 -0.4922,-0.946 -0.4648,-0.964 -0.4258,-0.989 -0.3984,-1.023 -0.3829,-1.043 -0.3515,-1.067 -0.3203,-1.097 -0.3047,-1.121 -0.2774,-1.153 -0.25,-1.168 -0.2304,-1.195 -0.211,-1.219 -0.1875,-1.23 -0.1757,-1.266 -0.1407,-1.285 -0.1328,-1.308 -0.1094,-1.329 -0.0976,-1.339 -0.0781,-1.364 -0.0547,-1.394 -0.043,-1.395 -0.0352,-1.429 -0.0117,-1.438 0,-1.461 0.0117,-1.473 0.0235,-1.496 0.0312,-1.515 0.043,-1.528 0.0586,-1.535 0.0625,-1.562 0.0664,-1.571 0.0898,-1.582 0.086,-1.593 0.1015,-1.614 0.0977,-1.629 0.0977,-1.636 0.1093,-1.649 0.1211,-1.656 0.1211,-1.672 0.1211,-1.68 0.1211,-1.691 0.1211,-1.703 0.1211,-1.715 0.1211,-1.715 0.1211,-1.734 0.1211,-1.727 0.1211,-1.746 0.1093,-1.746 0.1211,-1.758 0.0977,-1.769 0.1094,-1.758 0.0898,-1.777 0.086,-1.782 0.0898,-1.781 0.0742,-1.777 0.0547,-1.793 0.0664,-1.789 0.0469,-1.793 0.0312,-1.801 0.0235,-1.801 0.0078,-1.793 0,-1.801 -0.0078,-1.8 -0.0352,-1.801 -0.043,-1.793 -0.0546,-1.801 -0.0782,-1.793 -0.0859,-1.789 -0.1094,-1.789 -0.1328,-1.793 -0.1445,-1.789 -0.1641,-1.781 -0.1875,-1.77 -0.207,-1.777 -0.2305,-1.758 -0.2539,-1.769 -0.2734,-1.747 -0.2969,-1.75 -0.332,-1.746 -0.3399,-1.722 -0.3711,-1.727 -0.4062,-1.723 -0.4297,-1.703 -0.4492,-1.703 -0.4961,-1.691 -0.5039,-1.672 -0.5508,-1.668 -0.5703,-1.66 -0.6055,-1.649 -0.6484,-1.625 -0.668,-1.629 -0.7031,-1.601 -0.7383,-1.594 -0.7813,-1.582 -0.8007,-1.57 -0.8438,-1.551 -0.8906,-1.539 -0.9141,-1.516 -0.9648,-1.504 -0.9883,-1.496 -1.043,-1.468 -1.0781,-1.453 -1.1211,-1.438 -1.1523,-1.418 -1.211,-1.394 -1.2422,-1.383 -1.2929,-1.364 -1.3321,-1.339 1.3321,-1.344 1.2929,-1.36 1.2422,-1.375 1.211,-1.406 1.1523,-1.418 1.1211,-1.426 1.0781,-1.461 1.043,-1.472 0.9883,-1.485 0.9648,-1.503 0.9141,-1.528 0.8906,-1.527 0.8438,-1.559 0.8007,-1.562 0.7813,-1.582 0.7383,-1.594 0.7031,-1.613 0.668,-1.617 0.6484,-1.637 0.6055,-1.649 0.5703,-1.644 0.5508,-1.672 0.5039,-1.68 0.4961,-1.691 0.4492,-1.695 0.4297,-1.711 0.4062,-1.715 0.3711,-1.727 0.3399,-1.734 0.332,-1.735 0.2969,-1.75 0.2734,-1.757 0.2539,-1.754 0.2305,-1.77 0.207,-1.769 0.1875,-1.782 0.1641,-1.777 0.1445,-1.781 0.1328,-1.789 0.1094,-1.793 0.0859,-1.789 0.0782,-1.805 0.0546,-1.789 0.043,-1.801 0.0352,-1.804 0.0078,-1.801 0,-1.789 -0.0078,-1.805 -0.0235,-1.801 -0.0312,-1.789 -0.0469,-1.793 -0.0664,-1.801 -0.0547,-1.781 -0.0742,-1.789 -0.0898,-1.781 -0.086,-1.778 -0.0898,-1.769 -0.1094,-1.77 -0.0977,-1.757 -0.1211,-1.758 -0.1093,-1.758 -0.1211,-1.734 -0.1211,-1.739 -0.1211,-1.722 -0.1211,-1.727 -0.1211,-1.715 -0.1211,-1.691 -0.1211,-1.692 -0.1211,-1.679 -0.1211,-1.684 -0.1211,-1.656 -0.1093,-1.649 -0.0977,-1.636 -0.0977,-1.625 -0.1015,-1.606 -0.086,-1.605 -0.0898,-1.582 -0.0664,-1.57 -0.0625,-1.559 -0.0586,-1.539 -0.043,-1.528 -0.0312,-1.503 -0.0235,-1.497 -0.0117,-1.48 0,-1.453 0.0117,-1.449 0.0352,-1.418 0.043,-1.407 0.0547,-1.382 0.0781,-1.375 0.0976,-1.34 0.1094,-1.328 0.1328,-1.309 0.1407,-1.273 0.1757,-1.266 0.1875,-1.238 0.211,-1.223 0.2304,-1.183 0.25,-1.176 0.2774,-1.145 0.3047,-1.121 0.3203,-1.098 0.3515,-1.078 0.3829,-1.043 0.3984,-1.019 0.4258,-0.988 0.4648,-0.969 0.4922,-0.934 0.5156,-0.91 0.5391,-0.879 0.582,-0.859 0.6172,-0.824 0.6367,-0.79 0.668,-0.757 0.7148,-0.739 0.7383,-0.691 0.7774,-0.668 0.8125,-0.641 0.848,-0.601 0.89,-0.574 -1.156,0.738 -1.1094,0.758 -1.0547,0.789 -1.0195,0.816 -0.9805,0.844 -0.9218,0.867 -0.8907,0.891 -0.8554,0.922 -0.8008,0.945 -0.7695,0.969 -0.7266,0.988 -0.6914,1.019 -0.6602,1.047 -0.6133,1.055 -0.582,1.086 -0.5508,1.109 -0.5156,1.133 -0.4726,1.152 -0.4493,1.165 -0.4179,1.199 -0.3868,1.207 -0.3515,1.242 -0.3281,1.254 -0.2969,1.262 -0.2617,1.297 -0.2422,1.308 -0.2227,1.328 -0.1953,1.34 -0.164,1.363 -0.1446,1.383 -0.1211,1.395 -0.0976,1.41 -0.0782,1.426 -0.0546,1.449 -0.0313,1.453 -0.0234,1.469 0,1.496 0.0234,1.496 0.0313,1.516 0.0546,1.527 0.0665,1.535 0.0781,1.551 0.0859,1.57 0.1094,1.57 0.1211,1.594 0.1211,1.594 0.1445,1.605 0.1406,1.625 0.1563,1.625 0.164,1.637 0.1758,1.649 0.1758,1.648 0.1875,1.668 0.1836,1.672 0.1875,1.668 0.1992,1.695 0.1992,1.692 0.1954,1.691 0.1992,1.703 0.1953,1.711 0.1992,1.715 0.1992,1.715 0.1836,1.726 0.1875,1.723 0.1875,1.738 0.1875,1.723 0.1758,1.734 0.1641,1.75 0.164,1.735 0.1563,1.746 0.1406,1.738 0.1328,1.746 0.1211,1.746 0.1094,1.746 0.1093,1.746 0.0899,1.75 0.0664,1.735 0.0625,1.746 0.0469,1.738 0.0195,1.734 0.0234,1.735 -0.0117,1.738 -0.0234,1.723 -0.043,1.726 -0.0664,1.723 -0.0859,1.715 -0.0977,1.715 -0.1328,1.715 -0.1562,1.691 -0.1758,1.703 -0.1953,1.691 -0.2305,1.68 -0.2539,1.672 -0.2734,1.668 -0.3086,1.66 -0.3399,1.649 -0.3633,1.648 -0.3945,1.637 -0.4297,1.613 -0.4609,1.617 -0.4961,1.602 -0.5274,1.594 -0.5586,1.593 -0.5937,1.571 -0.625,1.558 -0.6719,1.551 -0.7031,1.527 -0.7461,1.528 -0.7812,1.504 -0.8243,1.496 -0.8554,1.48 -0.9141,1.473 -0.9414,1.453 -0.9922,1.437 -1.0312,1.418 -1.0782,1.407 -1.1289,1.394 -1.164,1.375 -1.2227,1.348 -1.2617,1.344 1.2617,1.339 1.2227,1.364 1.164,1.371 1.1289,1.383 1.0782,1.406 1.0312,1.418 0.9922,1.441 0.9414,1.461 0.9141,1.461 0.8554,1.484 0.8243,1.493 0.7812,1.515 0.7461,1.516 0.7031,1.539 0.6719,1.551 0.625,1.558 0.5937,1.571 0.5586,1.582 0.5274,1.593 0.4961,1.606 0.4609,1.613 0.4297,1.625 0.3945,1.637 0.3633,1.641 0.3399,1.644 0.3086,1.66 0.2734,1.672 0.2539,1.68 0.2305,1.679 0.1953,1.692 0.1758,1.691 0.1562,1.703 0.1328,1.704 0.0977,1.714 0.0859,1.715 0.0664,1.723 0.043,1.726 0.0234,1.727 0.0117,1.734 -0.0234,1.735 -0.0195,1.738 -0.0469,1.746 -0.0625,1.735 -0.0664,1.75 -0.0899,1.746 -0.1093,1.734 -0.1094,1.746 -0.1211,1.746 -0.1328,1.75 -0.1406,1.746 -0.1563,1.735 -0.164,1.746 -0.1641,1.738 -0.1758,1.734 -0.1875,1.739 -0.1875,1.722 -0.1875,1.727 -0.1836,1.723 -0.1992,1.726 -0.1992,1.715 -0.1953,1.703 -0.1992,1.699 -0.1954,1.703 -0.1992,1.696 -0.1992,1.679 -0.1875,1.68 -0.1836,1.672 -0.1875,1.656 -0.1758,1.66 -0.1758,1.649 -0.164,1.625 -0.1563,1.637 -0.1406,1.617 -0.1445,1.601 -0.1211,1.606 -0.1211,1.582 -0.1094,1.582 -0.0859,1.558 -0.0781,1.551 -0.0665,1.539 -0.0546,1.528 -0.0313,1.515 -0.0234,1.504 0,1.485 0.0234,1.472 0.0313,1.461 0.0546,1.438 0.0782,1.429 0.0976,1.418 0.1211,1.395 0.1446,1.371 0.164,1.363 0.1953,1.352 0.2227,1.32 0.2422,1.316 0.2617,1.286 0.2969,1.273 0.3281,1.254 0.3515,1.23 0.3868,1.207 0.4179,1.2 0.4493,1.175 0.4726,1.153 0.5156,1.121 0.5508,1.109 0.582,1.09 0.6133,1.063 0.6602,1.046 0.6914,1.008 0.7266,0.992 0.7695,0.977 0.8008,0.945 0.8554,0.91 0.8907,0.903 0.9218,0.867 0.9805,0.836 1.0195,0.824 1.0547,0.778 1.1094,0.769 1.156,0.738 z" /><g
         transform="matrix(146.4,0,0,-134.4,-26.52,321.48)"
         id="g232"><rect
           id="rect234"
           style="fill:#ffffff;fill-opacity:1;fill-rule:nonzero"
           transform="matrix(1,0,0,-1,0,1)"
           height="1"
           width="1"
           y="0"
           x="0" /></g><g
         transform="scale(10,10)"
         id="g236"><text
           id="text238"
           style="font-variant:normal;font-weight:normal;font-size:10.90909958px;font-family:CMMI10;-inkscape-font-specification:CMMI10;writing-mode:lr-tb;fill:#000000;fill-opacity:1;fill-rule:nonzero;stroke:none"
           transform="matrix(1,0,0,-1,0.360156,21.7199)"><tspan
             id="tspan240"
             y="0"
             x="0">O</tspan></text>
</g><g
         transform="matrix(159.6,0,0,-134.4,1820.78,321.48)"
         id="g242"><rect
           id="rect244"
           style="fill:#ffffff;fill-opacity:1;fill-rule:nonzero"
           transform="matrix(1,0,0,-1,0,1)"
           height="1"
           width="1"
           y="0"
           x="0" /></g><g
         transform="scale(10,10)"
         id="g246"><text
           id="text248"
           style="font-variant:normal;font-weight:normal;font-size:10.90909958px;font-family:CMMI10;-inkscape-font-specification:CMMI10;writing-mode:lr-tb;fill:#000000;fill-opacity:1;fill-rule:nonzero;stroke:none"
           transform="matrix(1,0,0,-1,185.091,21.7199)"><tspan
             id="tspan250"
             y="0"
             x="0">X</tspan></text>
</g><g
         transform="matrix(147.6,0,0,-134.4,-27.7201,1628.78)"
         id="g252"><rect
           id="rect254"
           style="fill:#ffffff;fill-opacity:1;fill-rule:nonzero"
           transform="matrix(1,0,0,-1,0,1)"
           height="1"
           width="1"
           y="0"
           x="0" /></g><g
         transform="scale(10,10)"
         id="g256"><text
           id="text258"
           style="font-variant:normal;font-weight:normal;font-size:10.90909958px;font-family:CMMI10;-inkscape-font-specification:CMMI10;writing-mode:lr-tb;fill:#000000;fill-opacity:1;fill-rule:nonzero;stroke:none"
           transform="matrix(1,0,0,-1,0.239844,152.45)"><tspan
             id="tspan260"
             y="0"
             x="0">Y</tspan></text>
</g><path
         id="path262"
         style="fill:none;stroke:#000000;stroke-width:11.95530033;stroke-linecap:butt;stroke-linejoin:miter;stroke-miterlimit:10;stroke-dasharray:none;stroke-opacity:1"
         d="m 68.5742,321.602 1851.4458,0" /><path
         id="path264"
         style="fill:none;stroke:#000000;stroke-width:11.95530033;stroke-linecap:butt;stroke-linejoin:miter;stroke-miterlimit:10;stroke-dasharray:none;stroke-opacity:1"
         d="m 120,258.605 0,1323.015" /><g
         transform="scale(10,10)"
         id="g266"><text
           id="text268"
           style="font-variant:normal;font-weight:normal;font-size:11.9552002px;font-family:CMCSC10;-inkscape-font-specification:CMCSC10;writing-mode:lr-tb;fill:#000000;fill-opacity:1;fill-rule:nonzero;stroke:none"
           transform="matrix(1,0,0,-1,79.441,0.0890625)"><tspan
             id="tspan270"
             y="0"
             x="0 8.5141897 12.111581 19.790342 28.065218 34.667995 41.270775">Fig.40.</tspan></text>
</g></g></g></svg>