<?xml version="1.0" encoding="UTF-8" standalone="no"?>
<svg
   xmlns:dc="http://purl.org/dc/elements/1.1/"
   xmlns:cc="http://creativecommons.org/ns#"
   xmlns:rdf="http://www.w3.org/1999/02/22-rdf-syntax-ns#"
   xmlns:svg="http://www.w3.org/2000/svg"
   xmlns="http://www.w3.org/2000/svg"
   viewBox="0 0 267.5 213.75"
   height="213.75"
   width="267.5"
   xml:space="preserve"
   version="1.1"
   id="svg2"><metadata
     id="metadata8"><rdf:RDF><cc:Work
         rdf:about=""><dc:format>image/svg+xml</dc:format><dc:type
           rdf:resource="http://purl.org/dc/dcmitype/StillImage" /></cc:Work></rdf:RDF></metadata><defs
     id="defs6"><clipPath
       id="clipPath12"
       clipPathUnits="userSpaceOnUse"><path
         id="path14"
         d="m -2,-2 214,0 0,171 -214,0 0,-171 z" /></clipPath></defs><g
     clip-path="url(#clipPath12)"
     transform="matrix(1.25,0,0,-1.25,2.5,211.25)"
     id="g10"><g
       transform="scale(0.1,0.1)"
       id="g16"><path
         id="path18"
         style="fill:none;stroke:#000000;stroke-width:11.95530033;stroke-linecap:butt;stroke-linejoin:miter;stroke-miterlimit:10;stroke-dasharray:none;stroke-opacity:1"
         d="M 270,741.602 1877.17,1660.37" /><path
         id="path20"
         style="fill:none;stroke:#000000;stroke-width:7.97009993;stroke-linecap:butt;stroke-linejoin:miter;stroke-miterlimit:10;stroke-dasharray:none;stroke-opacity:1"
         d="m 527.148,321.602 0,23.621" /><path
         id="path22"
         style="fill:none;stroke:#000000;stroke-width:7.97009993;stroke-linecap:butt;stroke-linejoin:miter;stroke-miterlimit:10;stroke-dasharray:none;stroke-opacity:1"
         d="m 527.148,392.473 0,23.632" /><path
         id="path24"
         style="fill:none;stroke:#000000;stroke-width:7.97009993;stroke-linecap:butt;stroke-linejoin:miter;stroke-miterlimit:10;stroke-dasharray:none;stroke-opacity:1"
         d="m 527.148,416.105 0,23.622" /><path
         id="path26"
         style="fill:none;stroke:#000000;stroke-width:7.97009993;stroke-linecap:butt;stroke-linejoin:miter;stroke-miterlimit:10;stroke-dasharray:none;stroke-opacity:1"
         d="m 527.148,486.98 0,23.622" /><path
         id="path28"
         style="fill:none;stroke:#000000;stroke-width:7.97009993;stroke-linecap:butt;stroke-linejoin:miter;stroke-miterlimit:10;stroke-dasharray:none;stroke-opacity:1"
         d="m 527.148,510.602 0,23.628" /><path
         id="path30"
         style="fill:none;stroke:#000000;stroke-width:7.97009993;stroke-linecap:butt;stroke-linejoin:miter;stroke-miterlimit:10;stroke-dasharray:none;stroke-opacity:1"
         d="m 527.148,581.473 0,23.632" /><path
         id="path32"
         style="fill:none;stroke:#000000;stroke-width:7.97009993;stroke-linecap:butt;stroke-linejoin:miter;stroke-miterlimit:10;stroke-dasharray:none;stroke-opacity:1"
         d="m 527.148,605.105 0,23.622" /><path
         id="path34"
         style="fill:none;stroke:#000000;stroke-width:7.97009993;stroke-linecap:butt;stroke-linejoin:miter;stroke-miterlimit:10;stroke-dasharray:none;stroke-opacity:1"
         d="m 527.148,675.98 0,23.622" /><path
         id="path36"
         style="fill:none;stroke:#000000;stroke-width:7.97009993;stroke-linecap:butt;stroke-linejoin:miter;stroke-miterlimit:10;stroke-dasharray:none;stroke-opacity:1"
         d="m 527.148,699.602 0,23.628" /><path
         id="path38"
         style="fill:none;stroke:#000000;stroke-width:7.97009993;stroke-linecap:butt;stroke-linejoin:miter;stroke-miterlimit:10;stroke-dasharray:none;stroke-opacity:1"
         d="m 527.148,770.484 0,23.621" /><path
         id="path40"
         style="fill:none;stroke:#000000;stroke-width:7.97009993;stroke-linecap:butt;stroke-linejoin:miter;stroke-miterlimit:10;stroke-dasharray:none;stroke-opacity:1"
         d="m 527.148,794.105 0,23.622" /><path
         id="path42"
         style="fill:none;stroke:#000000;stroke-width:7.97009993;stroke-linecap:butt;stroke-linejoin:miter;stroke-miterlimit:10;stroke-dasharray:none;stroke-opacity:1"
         d="m 527.148,864.98 0,23.633" /><path
         id="path44"
         style="fill:none;stroke:#000000;stroke-width:11.95530033;stroke-linecap:butt;stroke-linejoin:miter;stroke-miterlimit:10;stroke-dasharray:none;stroke-opacity:1"
         d="m 270,741.602 257.148,0" /><path
         id="path46"
         style="fill:none;stroke:#000000;stroke-width:11.95530033;stroke-linecap:butt;stroke-linejoin:miter;stroke-miterlimit:10;stroke-dasharray:none;stroke-opacity:1"
         d="m 527.148,888.613 0,-147.011" /><path
         id="path48"
         style="fill:none;stroke:#000000;stroke-width:7.97009993;stroke-linecap:butt;stroke-linejoin:miter;stroke-miterlimit:10;stroke-dasharray:none;stroke-opacity:1"
         d="m 784.289,321.602 0,29.75" /><path
         id="path50"
         style="fill:none;stroke:#000000;stroke-width:7.97009993;stroke-linecap:butt;stroke-linejoin:miter;stroke-miterlimit:10;stroke-dasharray:none;stroke-opacity:1"
         d="m 784.289,410.855 0,29.75" /><path
         id="path52"
         style="fill:none;stroke:#000000;stroke-width:7.97009993;stroke-linecap:butt;stroke-linejoin:miter;stroke-miterlimit:10;stroke-dasharray:none;stroke-opacity:1"
         d="m 784.289,440.605 0,29.75" /><path
         id="path54"
         style="fill:none;stroke:#000000;stroke-width:7.97009993;stroke-linecap:butt;stroke-linejoin:miter;stroke-miterlimit:10;stroke-dasharray:none;stroke-opacity:1"
         d="m 784.289,529.848 0,29.754" /><path
         id="path56"
         style="fill:none;stroke:#000000;stroke-width:7.97009993;stroke-linecap:butt;stroke-linejoin:miter;stroke-miterlimit:10;stroke-dasharray:none;stroke-opacity:1"
         d="m 784.289,559.602 0,29.75" /><path
         id="path58"
         style="fill:none;stroke:#000000;stroke-width:7.97009993;stroke-linecap:butt;stroke-linejoin:miter;stroke-miterlimit:10;stroke-dasharray:none;stroke-opacity:1"
         d="m 784.289,648.855 0,29.75" /><path
         id="path60"
         style="fill:none;stroke:#000000;stroke-width:7.97009993;stroke-linecap:butt;stroke-linejoin:miter;stroke-miterlimit:10;stroke-dasharray:none;stroke-opacity:1"
         d="m 784.289,678.605 0,29.75" /><path
         id="path62"
         style="fill:none;stroke:#000000;stroke-width:7.97009993;stroke-linecap:butt;stroke-linejoin:miter;stroke-miterlimit:10;stroke-dasharray:none;stroke-opacity:1"
         d="m 784.289,767.859 0,29.75" /><path
         id="path64"
         style="fill:none;stroke:#000000;stroke-width:7.97009993;stroke-linecap:butt;stroke-linejoin:miter;stroke-miterlimit:10;stroke-dasharray:none;stroke-opacity:1"
         d="m 784.289,797.609 0,29.754" /><path
         id="path66"
         style="fill:none;stroke:#000000;stroke-width:7.97009993;stroke-linecap:butt;stroke-linejoin:miter;stroke-miterlimit:10;stroke-dasharray:none;stroke-opacity:1"
         d="m 784.289,886.855 0,29.75" /><path
         id="path68"
         style="fill:none;stroke:#000000;stroke-width:7.97009993;stroke-linecap:butt;stroke-linejoin:miter;stroke-miterlimit:10;stroke-dasharray:none;stroke-opacity:1"
         d="m 784.289,916.605 0,29.75" /><path
         id="path70"
         style="fill:none;stroke:#000000;stroke-width:7.97009993;stroke-linecap:butt;stroke-linejoin:miter;stroke-miterlimit:10;stroke-dasharray:none;stroke-opacity:1"
         d="m 784.289,1005.86 0,29.75" /><path
         id="path72"
         style="fill:none;stroke:#000000;stroke-width:11.95530033;stroke-linecap:butt;stroke-linejoin:miter;stroke-miterlimit:10;stroke-dasharray:none;stroke-opacity:1"
         d="m 527.148,888.613 257.141,0" /><path
         id="path74"
         style="fill:none;stroke:#000000;stroke-width:11.95530033;stroke-linecap:butt;stroke-linejoin:miter;stroke-miterlimit:10;stroke-dasharray:none;stroke-opacity:1"
         d="m 784.289,1035.61 0,-146.997" /><path
         id="path76"
         style="fill:none;stroke:#000000;stroke-width:7.97009993;stroke-linecap:butt;stroke-linejoin:miter;stroke-miterlimit:10;stroke-dasharray:none;stroke-opacity:1"
         d="m 1041.44,321.602 0,26.906" /><path
         id="path78"
         style="fill:none;stroke:#000000;stroke-width:7.97009993;stroke-linecap:butt;stroke-linejoin:miter;stroke-miterlimit:10;stroke-dasharray:none;stroke-opacity:1"
         d="m 1041.44,402.316 0,26.907" /><path
         id="path80"
         style="fill:none;stroke:#000000;stroke-width:7.97009993;stroke-linecap:butt;stroke-linejoin:miter;stroke-miterlimit:10;stroke-dasharray:none;stroke-opacity:1"
         d="m 1041.44,429.223 0,26.906" /><path
         id="path82"
         style="fill:none;stroke:#000000;stroke-width:7.97009993;stroke-linecap:butt;stroke-linejoin:miter;stroke-miterlimit:10;stroke-dasharray:none;stroke-opacity:1"
         d="m 1041.44,509.941 0,26.918" /><path
         id="path84"
         style="fill:none;stroke:#000000;stroke-width:7.97009993;stroke-linecap:butt;stroke-linejoin:miter;stroke-miterlimit:10;stroke-dasharray:none;stroke-opacity:1"
         d="m 1041.44,536.859 0,26.907" /><path
         id="path86"
         style="fill:none;stroke:#000000;stroke-width:7.97009993;stroke-linecap:butt;stroke-linejoin:miter;stroke-miterlimit:10;stroke-dasharray:none;stroke-opacity:1"
         d="m 1041.44,617.574 0,26.906" /><path
         id="path88"
         style="fill:none;stroke:#000000;stroke-width:7.97009993;stroke-linecap:butt;stroke-linejoin:miter;stroke-miterlimit:10;stroke-dasharray:none;stroke-opacity:1"
         d="m 1041.44,644.48 0,26.907" /><path
         id="path90"
         style="fill:none;stroke:#000000;stroke-width:7.97009993;stroke-linecap:butt;stroke-linejoin:miter;stroke-miterlimit:10;stroke-dasharray:none;stroke-opacity:1"
         d="m 1041.44,725.199 0,26.906" /><path
         id="path92"
         style="fill:none;stroke:#000000;stroke-width:7.97009993;stroke-linecap:butt;stroke-linejoin:miter;stroke-miterlimit:10;stroke-dasharray:none;stroke-opacity:1"
         d="m 1041.44,752.105 0,26.907" /><path
         id="path94"
         style="fill:none;stroke:#000000;stroke-width:7.97009993;stroke-linecap:butt;stroke-linejoin:miter;stroke-miterlimit:10;stroke-dasharray:none;stroke-opacity:1"
         d="m 1041.44,832.824 0,26.903" /><path
         id="path96"
         style="fill:none;stroke:#000000;stroke-width:7.97009993;stroke-linecap:butt;stroke-linejoin:miter;stroke-miterlimit:10;stroke-dasharray:none;stroke-opacity:1"
         d="m 1041.44,859.727 0,26.906" /><path
         id="path98"
         style="fill:none;stroke:#000000;stroke-width:7.97009993;stroke-linecap:butt;stroke-linejoin:miter;stroke-miterlimit:10;stroke-dasharray:none;stroke-opacity:1"
         d="m 1041.44,940.457 0,26.906" /><path
         id="path100"
         style="fill:none;stroke:#000000;stroke-width:7.97009993;stroke-linecap:butt;stroke-linejoin:miter;stroke-miterlimit:10;stroke-dasharray:none;stroke-opacity:1"
         d="m 1041.44,967.363 0,26.907" /><path
         id="path102"
         style="fill:none;stroke:#000000;stroke-width:7.97009993;stroke-linecap:butt;stroke-linejoin:miter;stroke-miterlimit:10;stroke-dasharray:none;stroke-opacity:1"
         d="m 1041.44,1048.08 0,26.9" /><path
         id="path104"
         style="fill:none;stroke:#000000;stroke-width:7.97009993;stroke-linecap:butt;stroke-linejoin:miter;stroke-miterlimit:10;stroke-dasharray:none;stroke-opacity:1"
         d="m 1041.44,1074.98 0,26.91" /><path
         id="path106"
         style="fill:none;stroke:#000000;stroke-width:7.97009993;stroke-linecap:butt;stroke-linejoin:miter;stroke-miterlimit:10;stroke-dasharray:none;stroke-opacity:1"
         d="m 1041.44,1155.7 0,26.91" /><path
         id="path108"
         style="fill:none;stroke:#000000;stroke-width:11.95530033;stroke-linecap:butt;stroke-linejoin:miter;stroke-miterlimit:10;stroke-dasharray:none;stroke-opacity:1"
         d="m 784.289,1035.61 257.151,0" /><path
         id="path110"
         style="fill:none;stroke:#000000;stroke-width:11.95530033;stroke-linecap:butt;stroke-linejoin:miter;stroke-miterlimit:10;stroke-dasharray:none;stroke-opacity:1"
         d="m 1041.44,1182.61 0,-147" /><path
         id="path112"
         style="fill:none;stroke:#000000;stroke-width:7.97009993;stroke-linecap:butt;stroke-linejoin:miter;stroke-miterlimit:10;stroke-dasharray:none;stroke-opacity:1"
         d="m 1298.59,321.602 0,25.203" /><path
         id="path114"
         style="fill:none;stroke:#000000;stroke-width:7.97009993;stroke-linecap:butt;stroke-linejoin:miter;stroke-miterlimit:10;stroke-dasharray:none;stroke-opacity:1"
         d="m 1298.59,397.199 0,25.203" /><path
         id="path116"
         style="fill:none;stroke:#000000;stroke-width:7.97009993;stroke-linecap:butt;stroke-linejoin:miter;stroke-miterlimit:10;stroke-dasharray:none;stroke-opacity:1"
         d="m 1298.59,422.402 0,25.203" /><path
         id="path118"
         style="fill:none;stroke:#000000;stroke-width:7.97009993;stroke-linecap:butt;stroke-linejoin:miter;stroke-miterlimit:10;stroke-dasharray:none;stroke-opacity:1"
         d="m 1298.59,498 0,25.203" /><path
         id="path120"
         style="fill:none;stroke:#000000;stroke-width:7.97009993;stroke-linecap:butt;stroke-linejoin:miter;stroke-miterlimit:10;stroke-dasharray:none;stroke-opacity:1"
         d="m 1298.59,523.203 0,25.203" /><path
         id="path122"
         style="fill:none;stroke:#000000;stroke-width:7.97009993;stroke-linecap:butt;stroke-linejoin:miter;stroke-miterlimit:10;stroke-dasharray:none;stroke-opacity:1"
         d="m 1298.59,598.801 0,25.203" /><path
         id="path124"
         style="fill:none;stroke:#000000;stroke-width:7.97009993;stroke-linecap:butt;stroke-linejoin:miter;stroke-miterlimit:10;stroke-dasharray:none;stroke-opacity:1"
         d="m 1298.59,624.004 0,25.203" /><path
         id="path126"
         style="fill:none;stroke:#000000;stroke-width:7.97009993;stroke-linecap:butt;stroke-linejoin:miter;stroke-miterlimit:10;stroke-dasharray:none;stroke-opacity:1"
         d="m 1298.59,699.602 0,25.203" /><path
         id="path128"
         style="fill:none;stroke:#000000;stroke-width:7.97009993;stroke-linecap:butt;stroke-linejoin:miter;stroke-miterlimit:10;stroke-dasharray:none;stroke-opacity:1"
         d="m 1298.59,724.805 0,25.203" /><path
         id="path130"
         style="fill:none;stroke:#000000;stroke-width:7.97009993;stroke-linecap:butt;stroke-linejoin:miter;stroke-miterlimit:10;stroke-dasharray:none;stroke-opacity:1"
         d="m 1298.59,800.402 0,25.203" /><path
         id="path132"
         style="fill:none;stroke:#000000;stroke-width:7.97009993;stroke-linecap:butt;stroke-linejoin:miter;stroke-miterlimit:10;stroke-dasharray:none;stroke-opacity:1"
         d="m 1298.59,825.605 0,25.204" /><path
         id="path134"
         style="fill:none;stroke:#000000;stroke-width:7.97009993;stroke-linecap:butt;stroke-linejoin:miter;stroke-miterlimit:10;stroke-dasharray:none;stroke-opacity:1"
         d="m 1298.59,901.203 0,25.203" /><path
         id="path136"
         style="fill:none;stroke:#000000;stroke-width:7.97009993;stroke-linecap:butt;stroke-linejoin:miter;stroke-miterlimit:10;stroke-dasharray:none;stroke-opacity:1"
         d="m 1298.59,926.406 0,25.203" /><path
         id="path138"
         style="fill:none;stroke:#000000;stroke-width:7.97009993;stroke-linecap:butt;stroke-linejoin:miter;stroke-miterlimit:10;stroke-dasharray:none;stroke-opacity:1"
         d="m 1298.59,1002.02 0,25.19" /><path
         id="path140"
         style="fill:none;stroke:#000000;stroke-width:7.97009993;stroke-linecap:butt;stroke-linejoin:miter;stroke-miterlimit:10;stroke-dasharray:none;stroke-opacity:1"
         d="m 1298.59,1027.21 0,25.2" /><path
         id="path142"
         style="fill:none;stroke:#000000;stroke-width:7.97009993;stroke-linecap:butt;stroke-linejoin:miter;stroke-miterlimit:10;stroke-dasharray:none;stroke-opacity:1"
         d="m 1298.59,1102.82 0,25.19" /><path
         id="path144"
         style="fill:none;stroke:#000000;stroke-width:7.97009993;stroke-linecap:butt;stroke-linejoin:miter;stroke-miterlimit:10;stroke-dasharray:none;stroke-opacity:1"
         d="m 1298.59,1128.01 0,25.2" /><path
         id="path146"
         style="fill:none;stroke:#000000;stroke-width:7.97009993;stroke-linecap:butt;stroke-linejoin:miter;stroke-miterlimit:10;stroke-dasharray:none;stroke-opacity:1"
         d="m 1298.59,1203.62 0,25.19" /><path
         id="path148"
         style="fill:none;stroke:#000000;stroke-width:7.97009993;stroke-linecap:butt;stroke-linejoin:miter;stroke-miterlimit:10;stroke-dasharray:none;stroke-opacity:1"
         d="m 1298.59,1228.81 0,25.2" /><path
         id="path150"
         style="fill:none;stroke:#000000;stroke-width:7.97009993;stroke-linecap:butt;stroke-linejoin:miter;stroke-miterlimit:10;stroke-dasharray:none;stroke-opacity:1"
         d="m 1298.59,1304.42 0,25.19" /><path
         id="path152"
         style="fill:none;stroke:#000000;stroke-width:11.95530033;stroke-linecap:butt;stroke-linejoin:miter;stroke-miterlimit:10;stroke-dasharray:none;stroke-opacity:1"
         d="m 1041.44,1182.61 257.15,0" /><path
         id="path154"
         style="fill:none;stroke:#000000;stroke-width:11.95530033;stroke-linecap:butt;stroke-linejoin:miter;stroke-miterlimit:10;stroke-dasharray:none;stroke-opacity:1"
         d="m 1298.59,1329.61 0,-147" /><path
         id="path156"
         style="fill:none;stroke:#000000;stroke-width:7.97009993;stroke-linecap:butt;stroke-linejoin:miter;stroke-miterlimit:10;stroke-dasharray:none;stroke-opacity:1"
         d="m 1555.72,321.602 0,28.871" /><path
         id="path158"
         style="fill:none;stroke:#000000;stroke-width:7.97009993;stroke-linecap:butt;stroke-linejoin:miter;stroke-miterlimit:10;stroke-dasharray:none;stroke-opacity:1"
         d="m 1555.72,408.227 0,28.875" /><path
         id="path160"
         style="fill:none;stroke:#000000;stroke-width:7.97009993;stroke-linecap:butt;stroke-linejoin:miter;stroke-miterlimit:10;stroke-dasharray:none;stroke-opacity:1"
         d="m 1555.72,437.102 0,28.871" /><path
         id="path162"
         style="fill:none;stroke:#000000;stroke-width:7.97009993;stroke-linecap:butt;stroke-linejoin:miter;stroke-miterlimit:10;stroke-dasharray:none;stroke-opacity:1"
         d="m 1555.72,523.73 0,28.872" /><path
         id="path164"
         style="fill:none;stroke:#000000;stroke-width:7.97009993;stroke-linecap:butt;stroke-linejoin:miter;stroke-miterlimit:10;stroke-dasharray:none;stroke-opacity:1"
         d="m 1555.72,552.602 0,28.871" /><path
         id="path166"
         style="fill:none;stroke:#000000;stroke-width:7.97009993;stroke-linecap:butt;stroke-linejoin:miter;stroke-miterlimit:10;stroke-dasharray:none;stroke-opacity:1"
         d="m 1555.72,639.23 0,28.872" /><path
         id="path168"
         style="fill:none;stroke:#000000;stroke-width:7.97009993;stroke-linecap:butt;stroke-linejoin:miter;stroke-miterlimit:10;stroke-dasharray:none;stroke-opacity:1"
         d="m 1555.72,668.102 0,28.875" /><path
         id="path170"
         style="fill:none;stroke:#000000;stroke-width:7.97009993;stroke-linecap:butt;stroke-linejoin:miter;stroke-miterlimit:10;stroke-dasharray:none;stroke-opacity:1"
         d="m 1555.72,754.73 0,28.872" /><path
         id="path172"
         style="fill:none;stroke:#000000;stroke-width:7.97009993;stroke-linecap:butt;stroke-linejoin:miter;stroke-miterlimit:10;stroke-dasharray:none;stroke-opacity:1"
         d="m 1555.72,783.602 0,28.882" /><path
         id="path174"
         style="fill:none;stroke:#000000;stroke-width:7.97009993;stroke-linecap:butt;stroke-linejoin:miter;stroke-miterlimit:10;stroke-dasharray:none;stroke-opacity:1"
         d="m 1555.72,870.23 0,28.875" /><path
         id="path176"
         style="fill:none;stroke:#000000;stroke-width:7.97009993;stroke-linecap:butt;stroke-linejoin:miter;stroke-miterlimit:10;stroke-dasharray:none;stroke-opacity:1"
         d="m 1555.72,899.105 0,28.883" /><path
         id="path178"
         style="fill:none;stroke:#000000;stroke-width:7.97009993;stroke-linecap:butt;stroke-linejoin:miter;stroke-miterlimit:10;stroke-dasharray:none;stroke-opacity:1"
         d="m 1555.72,985.73 0,28.88" /><path
         id="path180"
         style="fill:none;stroke:#000000;stroke-width:7.97009993;stroke-linecap:butt;stroke-linejoin:miter;stroke-miterlimit:10;stroke-dasharray:none;stroke-opacity:1"
         d="m 1555.72,1014.61 0,28.87" /><path
         id="path182"
         style="fill:none;stroke:#000000;stroke-width:7.97009993;stroke-linecap:butt;stroke-linejoin:miter;stroke-miterlimit:10;stroke-dasharray:none;stroke-opacity:1"
         d="m 1555.72,1101.23 0,28.89" /><path
         id="path184"
         style="fill:none;stroke:#000000;stroke-width:7.97009993;stroke-linecap:butt;stroke-linejoin:miter;stroke-miterlimit:10;stroke-dasharray:none;stroke-opacity:1"
         d="m 1555.72,1130.12 0,28.87" /><path
         id="path186"
         style="fill:none;stroke:#000000;stroke-width:7.97009993;stroke-linecap:butt;stroke-linejoin:miter;stroke-miterlimit:10;stroke-dasharray:none;stroke-opacity:1"
         d="m 1555.72,1216.73 0,28.88" /><path
         id="path188"
         style="fill:none;stroke:#000000;stroke-width:7.97009993;stroke-linecap:butt;stroke-linejoin:miter;stroke-miterlimit:10;stroke-dasharray:none;stroke-opacity:1"
         d="m 1555.72,1245.61 0,28.88" /><path
         id="path190"
         style="fill:none;stroke:#000000;stroke-width:7.97009993;stroke-linecap:butt;stroke-linejoin:miter;stroke-miterlimit:10;stroke-dasharray:none;stroke-opacity:1"
         d="m 1555.72,1332.25 0,28.87" /><path
         id="path192"
         style="fill:none;stroke:#000000;stroke-width:7.97009993;stroke-linecap:butt;stroke-linejoin:miter;stroke-miterlimit:10;stroke-dasharray:none;stroke-opacity:1"
         d="m 1555.72,1361.12 0,28.87" /><path
         id="path194"
         style="fill:none;stroke:#000000;stroke-width:7.97009993;stroke-linecap:butt;stroke-linejoin:miter;stroke-miterlimit:10;stroke-dasharray:none;stroke-opacity:1"
         d="m 1555.72,1447.73 0,28.89" /><path
         id="path196"
         style="fill:none;stroke:#000000;stroke-width:11.95530033;stroke-linecap:butt;stroke-linejoin:miter;stroke-miterlimit:10;stroke-dasharray:none;stroke-opacity:1"
         d="m 1298.59,1329.61 257.13,0" /><path
         id="path198"
         style="fill:none;stroke:#000000;stroke-width:11.95530033;stroke-linecap:butt;stroke-linejoin:miter;stroke-miterlimit:10;stroke-dasharray:none;stroke-opacity:1"
         d="m 1555.72,1476.62 0,-147.01" /><path
         id="path200"
         style="fill:none;stroke:#000000;stroke-width:7.97009993;stroke-linecap:butt;stroke-linejoin:miter;stroke-miterlimit:10;stroke-dasharray:none;stroke-opacity:1"
         d="m 1812.88,321.602 0,27.125" /><path
         id="path202"
         style="fill:none;stroke:#000000;stroke-width:7.97009993;stroke-linecap:butt;stroke-linejoin:miter;stroke-miterlimit:10;stroke-dasharray:none;stroke-opacity:1"
         d="m 1812.88,402.977 0,27.125" /><path
         id="path204"
         style="fill:none;stroke:#000000;stroke-width:7.97009993;stroke-linecap:butt;stroke-linejoin:miter;stroke-miterlimit:10;stroke-dasharray:none;stroke-opacity:1"
         d="m 1812.88,430.102 0,27.125" /><path
         id="path206"
         style="fill:none;stroke:#000000;stroke-width:7.97009993;stroke-linecap:butt;stroke-linejoin:miter;stroke-miterlimit:10;stroke-dasharray:none;stroke-opacity:1"
         d="m 1812.88,511.48 0,27.125" /><path
         id="path208"
         style="fill:none;stroke:#000000;stroke-width:7.97009993;stroke-linecap:butt;stroke-linejoin:miter;stroke-miterlimit:10;stroke-dasharray:none;stroke-opacity:1"
         d="m 1812.88,538.605 0,27.125" /><path
         id="path210"
         style="fill:none;stroke:#000000;stroke-width:7.97009993;stroke-linecap:butt;stroke-linejoin:miter;stroke-miterlimit:10;stroke-dasharray:none;stroke-opacity:1"
         d="m 1812.88,619.98 0,27.125" /><path
         id="path212"
         style="fill:none;stroke:#000000;stroke-width:7.97009993;stroke-linecap:butt;stroke-linejoin:miter;stroke-miterlimit:10;stroke-dasharray:none;stroke-opacity:1"
         d="m 1812.88,647.105 0,27.129" /><path
         id="path214"
         style="fill:none;stroke:#000000;stroke-width:7.97009993;stroke-linecap:butt;stroke-linejoin:miter;stroke-miterlimit:10;stroke-dasharray:none;stroke-opacity:1"
         d="m 1812.88,728.484 0,27.125" /><path
         id="path216"
         style="fill:none;stroke:#000000;stroke-width:7.97009993;stroke-linecap:butt;stroke-linejoin:miter;stroke-miterlimit:10;stroke-dasharray:none;stroke-opacity:1"
         d="m 1812.88,755.609 0,27.125" /><path
         id="path218"
         style="fill:none;stroke:#000000;stroke-width:7.97009993;stroke-linecap:butt;stroke-linejoin:miter;stroke-miterlimit:10;stroke-dasharray:none;stroke-opacity:1"
         d="m 1812.88,836.984 0,27.129" /><path
         id="path220"
         style="fill:none;stroke:#000000;stroke-width:7.97009993;stroke-linecap:butt;stroke-linejoin:miter;stroke-miterlimit:10;stroke-dasharray:none;stroke-opacity:1"
         d="m 1812.88,864.113 0,27.125" /><path
         id="path222"
         style="fill:none;stroke:#000000;stroke-width:7.97009993;stroke-linecap:butt;stroke-linejoin:miter;stroke-miterlimit:10;stroke-dasharray:none;stroke-opacity:1"
         d="m 1812.88,945.477 0,27.125" /><path
         id="path224"
         style="fill:none;stroke:#000000;stroke-width:7.97009993;stroke-linecap:butt;stroke-linejoin:miter;stroke-miterlimit:10;stroke-dasharray:none;stroke-opacity:1"
         d="m 1812.88,972.602 0,27.128" /><path
         id="path226"
         style="fill:none;stroke:#000000;stroke-width:7.97009993;stroke-linecap:butt;stroke-linejoin:miter;stroke-miterlimit:10;stroke-dasharray:none;stroke-opacity:1"
         d="m 1812.88,1053.99 0,27.12" /><path
         id="path228"
         style="fill:none;stroke:#000000;stroke-width:7.97009993;stroke-linecap:butt;stroke-linejoin:miter;stroke-miterlimit:10;stroke-dasharray:none;stroke-opacity:1"
         d="m 1812.88,1081.11 0,27.12" /><path
         id="path230"
         style="fill:none;stroke:#000000;stroke-width:7.97009993;stroke-linecap:butt;stroke-linejoin:miter;stroke-miterlimit:10;stroke-dasharray:none;stroke-opacity:1"
         d="m 1812.88,1162.48 0,27.14" /><path
         id="path232"
         style="fill:none;stroke:#000000;stroke-width:7.97009993;stroke-linecap:butt;stroke-linejoin:miter;stroke-miterlimit:10;stroke-dasharray:none;stroke-opacity:1"
         d="m 1812.88,1189.62 0,27.11" /><path
         id="path234"
         style="fill:none;stroke:#000000;stroke-width:7.97009993;stroke-linecap:butt;stroke-linejoin:miter;stroke-miterlimit:10;stroke-dasharray:none;stroke-opacity:1"
         d="m 1812.88,1270.98 0,27.13" /><path
         id="path236"
         style="fill:none;stroke:#000000;stroke-width:7.97009993;stroke-linecap:butt;stroke-linejoin:miter;stroke-miterlimit:10;stroke-dasharray:none;stroke-opacity:1"
         d="m 1812.88,1298.11 0,27.12" /><path
         id="path238"
         style="fill:none;stroke:#000000;stroke-width:7.97009993;stroke-linecap:butt;stroke-linejoin:miter;stroke-miterlimit:10;stroke-dasharray:none;stroke-opacity:1"
         d="m 1812.88,1379.49 0,27.12" /><path
         id="path240"
         style="fill:none;stroke:#000000;stroke-width:7.97009993;stroke-linecap:butt;stroke-linejoin:miter;stroke-miterlimit:10;stroke-dasharray:none;stroke-opacity:1"
         d="m 1812.88,1406.61 0,27.13" /><path
         id="path242"
         style="fill:none;stroke:#000000;stroke-width:7.97009993;stroke-linecap:butt;stroke-linejoin:miter;stroke-miterlimit:10;stroke-dasharray:none;stroke-opacity:1"
         d="m 1812.88,1487.99 0,27.12" /><path
         id="path244"
         style="fill:none;stroke:#000000;stroke-width:7.97009993;stroke-linecap:butt;stroke-linejoin:miter;stroke-miterlimit:10;stroke-dasharray:none;stroke-opacity:1"
         d="m 1812.88,1515.11 0,27.13" /><path
         id="path246"
         style="fill:none;stroke:#000000;stroke-width:7.97009993;stroke-linecap:butt;stroke-linejoin:miter;stroke-miterlimit:10;stroke-dasharray:none;stroke-opacity:1"
         d="m 1812.88,1596.49 0,27.13" /><path
         id="path248"
         style="fill:none;stroke:#000000;stroke-width:11.95530033;stroke-linecap:butt;stroke-linejoin:miter;stroke-miterlimit:10;stroke-dasharray:none;stroke-opacity:1"
         d="m 1555.72,1476.62 257.16,0" /><path
         id="path250"
         style="fill:none;stroke:#000000;stroke-width:11.95530033;stroke-linecap:butt;stroke-linejoin:miter;stroke-miterlimit:10;stroke-dasharray:none;stroke-opacity:1"
         d="m 1812.88,1623.62 0,-147" /><g
         transform="scale(10,10)"
         id="g252"><text
           id="text254"
           style="font-variant:normal;font-weight:normal;font-size:10.90909958px;font-family:CMR10;-inkscape-font-specification:CMR10;writing-mode:lr-tb;fill:#000000;fill-opacity:1;fill-rule:nonzero;stroke:none"
           transform="matrix(1,0,0,-1,49.9551,21.0953)"><tspan
             id="tspan256"
             y="0"
             x="0 25.71373 51.428551 77.143372 102.85743 128.57225">123456</tspan></text>
</g><g
         transform="matrix(266.4,0,0,-157.2,-32.4786,610.686)"
         id="g258"><rect
           id="rect260"
           style="fill:#ffffff;fill-opacity:1;fill-rule:nonzero"
           transform="matrix(1,0,0,-1,0,1)"
           height="1"
           width="1"
           y="0"
           x="0" /></g><g
         transform="scale(10,10)"
         id="g262"><text
           id="text264"
           style="font-variant:normal;font-weight:normal;font-size:10.90909958px;font-family:CMR10;-inkscape-font-specification:CMR10;writing-mode:lr-tb;fill:#000000;fill-opacity:1;fill-rule:nonzero;stroke:none"
           transform="matrix(1,0,0,-1,-0.235938,50.4008)"><tspan
             id="tspan266"
             y="0"
             x="0 3.0024307 8.4024353">log</tspan></text>
<text
           id="text268"
           style="font-variant:normal;font-weight:normal;font-size:10.90909958px;font-family:CMMI10;-inkscape-font-specification:CMMI10;writing-mode:lr-tb;fill:#000000;fill-opacity:1;fill-rule:nonzero;stroke:none"
           transform="matrix(1,0,0,-1,15.724262,50.4008)"><tspan
             id="tspan270"
             y="0"
             x="0">b</tspan></text>
</g><path
         id="path272"
         style="fill:#000000;fill-opacity:1;fill-rule:nonzero;stroke:none"
         d="m 256.992,720.355 -0.637,-1.066 -0.617,-1.066 -0.582,-1.067 -0.558,-1.066 -0.539,-1.063 -0.504,-1.066 -0.485,-1.078 -0.461,-1.078 -0.441,-1.075 -0.418,-1.078 -0.395,-1.074 -0.363,-1.09 -0.351,-1.086 -0.329,-1.09 -0.32,-1.085 -0.285,-1.098 -0.273,-1.109 -0.254,-1.102 -0.231,-1.109 -0.219,-1.11 -0.199,-1.121 -0.176,-1.121 -0.175,-1.129 -0.141,-1.133 -0.144,-1.144 -0.122,-1.141 -0.097,-1.152 -0.098,-1.156 -0.078,-1.164 -0.066,-1.165 -0.055,-1.175 -0.043,-1.188 -0.035,-1.183 -0.02,-1.2 -0.011,-1.199 0,-1.207 0.011,-1.219 0.008,-1.23 0.023,-1.231 0.036,-1.242 0.043,-1.254 0.043,-1.261 0.054,-1.262 0.055,-1.289 0.066,-1.285 0.067,-1.293 0.078,-1.309 0.074,-1.32 0.078,-1.317 0.078,-1.339 0.086,-1.352 0.09,-1.352 0.086,-1.375 0.09,-1.371 0.086,-1.398 0.09,-1.406 0.086,-1.407 0.09,-1.425 0.085,-1.442 0.079,-1.449 0.086,-1.461 0.078,-1.473 0.066,-1.492 0.066,-1.496 0.067,-1.516 0.066,-1.527 0.055,-1.539 0.043,-1.559 0.031,-1.57 0.035,-1.582 0.032,-1.594 0.011,-1.613 0.012,-1.629 0,-1.637 -0.012,-1.656 -0.023,-1.672 -0.031,-1.691 -0.036,-1.703 -0.054,-1.715 -0.063,-1.734 -0.078,-1.746 -0.098,-1.77 -0.101,-1.793 -0.121,-1.801 -0.141,-1.812 -0.144,-1.836 -0.164,-1.856 -0.188,-1.867 -0.195,-1.891 -0.211,-1.91 -0.231,-1.922 -0.254,-1.945 -0.273,-1.957 -0.285,-1.976 -0.309,-2 -0.328,-2.024 -0.351,-2.043 -0.364,-2.055 -0.394,-2.074 -0.418,-2.097 -0.43,-2.121 -0.461,-2.145 -0.484,-2.152 -0.504,-2.176 -0.527,-2.207 -0.563,-2.219 -0.582,-2.242 -0.602,-2.262 -0.636,-2.285 -0.66,-2.32 -0.692,-2.328 -0.726,-2.352 -0.735,-2.371 -0.781,-2.399 -0.801,-2.425 -0.836,-2.442 -0.867,-2.468 -0.891,-2.485 -0.933,-2.515 -0.957,-2.54 0.957,-2.535 0.933,-2.519 0.891,-2.492 0.867,-2.473 0.836,-2.438 0.801,-2.418 0.781,-2.406 0.735,-2.371 0.726,-2.351 0.692,-2.332 0.66,-2.305 0.636,-2.285 0.602,-2.274 0.582,-2.242 0.563,-2.219 0.527,-2.199 0.504,-2.184 0.484,-2.156 0.461,-2.14 0.43,-2.11 0.418,-2.097 0.394,-2.09 0.364,-2.055 0.351,-2.031 0.328,-2.024 0.309,-1.996 0.285,-1.98 0.273,-1.965 0.254,-1.945 0.231,-1.922 0.211,-1.914 0.195,-1.887 0.188,-1.867 0.164,-1.848 0.144,-1.844 0.141,-1.812 0.121,-1.805 0.101,-1.777 0.098,-1.77 0.078,-1.757 0.063,-1.739 0.054,-1.711 0.036,-1.703 0.031,-1.691 0.023,-1.672 0.012,-1.66 0,-1.637 -0.012,-1.625 -0.011,-1.613 -0.032,-1.594 -0.035,-1.582 -0.031,-1.57 -0.043,-1.551 -0.055,-1.547 -0.066,-1.527 -0.067,-1.508 -0.066,-1.504 -0.066,-1.484 -0.078,-1.481 -0.086,-1.465 -0.079,-1.449 -0.085,-1.437 -0.09,-1.418 -0.086,-1.418 -0.09,-1.407 -0.086,-1.382 -0.09,-1.387 -0.086,-1.36 -0.09,-1.363 -0.086,-1.351 -0.078,-1.329 -0.078,-1.332 -0.074,-1.316 -0.078,-1.309 -0.067,-1.296 -0.066,-1.286 -0.055,-1.273 -0.054,-1.273 -0.043,-1.254 -0.043,-1.254 -0.036,-1.239 -0.023,-1.242 -0.008,-1.219 -0.011,-1.222 0,-1.207 0.011,-1.207 0.02,-1.199 0.035,-1.188 0.043,-1.184 0.055,-1.175 0.066,-1.168 0.078,-1.164 0.098,-1.153 0.097,-1.152 0.122,-1.145 0.144,-1.132 0.141,-1.141 0.175,-1.121 0.176,-1.121 0.199,-1.121 0.219,-1.121 0.231,-1.11 0.254,-1.097 0.273,-1.098 0.285,-1.098 0.32,-1.101 0.329,-1.086 0.351,-1.086 0.363,-1.09 0.395,-1.078 0.418,-1.074 0.441,-1.078 0.461,-1.075 0.485,-1.066 0.504,-1.078 0.539,-1.067 0.558,-1.066 0.582,-1.063 0.617,-1.066 0.637,-1.055 -0.836,1.371 -0.789,1.364 -0.769,1.363 -0.727,1.352 -0.703,1.339 -0.668,1.329 -0.637,1.32 -0.617,1.316 -0.582,1.309 -0.551,1.308 -0.527,1.297 -0.492,1.285 -0.473,1.286 -0.441,1.273 -0.418,1.274 -0.395,1.265 -0.371,1.262 -0.344,1.266 -0.316,1.25 -0.309,1.253 -0.273,1.243 -0.254,1.25 -0.23,1.242 -0.219,1.23 -0.188,1.242 -0.175,1.231 -0.153,1.242 -0.144,1.231 -0.121,1.23 -0.098,1.23 -0.09,1.231 -0.074,1.23 -0.059,1.231 -0.031,1.242 -0.031,1.231 -0.012,1.238 0,1.23 0.012,1.243 0.031,1.242 0.031,1.254 0.047,1.238 0.055,1.254 0.066,1.265 0.074,1.25 0.09,1.266 0.086,1.273 0.102,1.274 0.109,1.285 0.11,1.285 0.121,1.285 0.121,1.297 0.132,1.309 0.129,1.316 0.133,1.321 0.145,1.328 0.129,1.332 0.144,1.347 0.145,1.352 0.14,1.363 0.145,1.375 0.14,1.371 0.145,1.395 0.129,1.41 0.144,1.402 0.133,1.43 0.133,1.43 0.117,1.449 0.121,1.461 0.121,1.473 0.11,1.484 0.101,1.492 0.098,1.504 0.09,1.527 0.086,1.539 0.066,1.551 0.067,1.571 0.054,1.582 0.043,1.593 0.035,1.614 0.008,1.625 0.012,1.648 0,1.66 -0.02,1.68 -0.035,1.691 -0.043,1.715 -0.054,1.738 -0.078,1.746 -0.098,1.77 -0.109,1.789 -0.122,1.801 -0.144,1.824 -0.164,1.848 -0.188,1.867 -0.195,1.891 -0.223,1.898 -0.242,1.934 -0.262,1.957 -0.285,1.964 -0.308,2 -0.328,2.012 -0.352,2.043 -0.387,2.055 -0.394,2.086 -0.43,2.109 -0.461,2.145 -0.473,2.152 -0.503,2.187 -0.539,2.208 -0.559,2.23 -0.594,2.262 -0.629,2.285 -0.644,2.32 -0.684,2.328 -0.715,2.375 -0.734,2.395 -0.781,2.414 -0.813,2.453 -0.836,2.48 -0.879,2.508 -0.91,2.535 0.91,2.54 0.879,2.503 0.836,2.473 0.813,2.449 0.781,2.43 0.734,2.383 0.715,2.375 0.684,2.34 0.644,2.304 0.629,2.286 0.594,2.265 0.559,2.231 0.539,2.207 0.503,2.187 0.473,2.164 0.461,2.129 0.43,2.109 0.394,2.09 0.387,2.063 0.352,2.035 0.328,2.02 0.308,1.988 0.285,1.98 0.262,1.942 0.242,1.933 0.223,1.903 0.195,1.89 0.188,1.867 0.164,1.844 0.144,1.824 0.122,1.813 0.109,1.781 0.098,1.77 0.078,1.746 0.054,1.734 0.043,1.715 0.035,1.691 0.02,1.684 0,1.656 -0.012,1.649 -0.008,1.625 -0.035,1.617 -0.043,1.594 -0.054,1.582 -0.067,1.57 -0.066,1.547 -0.086,1.539 -0.09,1.527 -0.098,1.504 -0.101,1.508 -0.11,1.48 -0.121,1.473 -0.121,1.453 -0.117,1.449 -0.133,1.438 -0.133,1.418 -0.144,1.418 -0.129,1.394 -0.145,1.395 -0.14,1.387 -0.145,1.371 -0.14,1.363 -0.145,1.352 -0.144,1.339 -0.129,1.34 -0.145,1.332 -0.133,1.317 -0.129,1.308 -0.132,1.305 -0.121,1.297 -0.121,1.297 -0.11,1.285 -0.109,1.277 -0.102,1.274 -0.086,1.273 -0.09,1.262 -0.074,1.265 -0.066,1.254 -0.055,1.25 -0.047,1.254 -0.031,1.242 -0.031,1.239 -0.012,1.242 0,1.242 0.012,1.231 0.031,1.242 0.031,1.23 0.059,1.231 0.074,1.23 0.09,1.231 0.098,1.23 0.121,1.231 0.144,1.242 0.153,1.23 0.175,1.231 0.188,1.242 0.219,1.238 0.23,1.242 0.254,1.243 0.273,1.253 0.309,1.239 0.316,1.265 0.344,1.254 0.371,1.262 0.395,1.262 0.418,1.277 0.441,1.273 0.473,1.286 0.492,1.297 0.527,1.285 0.551,1.308 0.582,1.305 0.617,1.32 0.637,1.317 0.668,1.339 0.703,1.344 0.727,1.34 0.769,1.359 0.789,1.364 0.836,1.386" /><path
         id="path274"
         style="fill:none;stroke:#000000;stroke-width:3.9849999;stroke-linecap:butt;stroke-linejoin:miter;stroke-miterlimit:10;stroke-dasharray:none;stroke-opacity:1"
         d="m 256.992,720.355 -0.637,-1.066 -0.617,-1.066 -0.582,-1.067 -0.558,-1.066 -0.539,-1.063 -0.504,-1.066 -0.485,-1.078 -0.461,-1.078 -0.441,-1.075 -0.418,-1.078 -0.395,-1.074 -0.363,-1.09 -0.351,-1.086 -0.329,-1.09 -0.32,-1.085 -0.285,-1.098 -0.273,-1.109 -0.254,-1.102 -0.231,-1.109 -0.219,-1.11 -0.199,-1.121 -0.176,-1.121 -0.175,-1.129 -0.141,-1.133 -0.144,-1.144 -0.122,-1.141 -0.097,-1.152 -0.098,-1.156 -0.078,-1.164 -0.066,-1.165 -0.055,-1.175 -0.043,-1.188 -0.035,-1.183 -0.02,-1.2 -0.011,-1.199 0,-1.207 0.011,-1.219 0.008,-1.23 0.023,-1.231 0.036,-1.242 0.043,-1.254 0.043,-1.261 0.054,-1.262 0.055,-1.289 0.066,-1.285 0.067,-1.293 0.078,-1.309 0.074,-1.32 0.078,-1.317 0.078,-1.339 0.086,-1.352 0.09,-1.352 0.086,-1.375 0.09,-1.371 0.086,-1.398 0.09,-1.406 0.086,-1.407 0.09,-1.425 0.085,-1.442 0.079,-1.449 0.086,-1.461 0.078,-1.473 0.066,-1.492 0.066,-1.496 0.067,-1.516 0.066,-1.527 0.055,-1.539 0.043,-1.559 0.031,-1.57 0.035,-1.582 0.032,-1.594 0.011,-1.613 0.012,-1.629 0,-1.637 -0.012,-1.656 -0.023,-1.672 -0.031,-1.691 -0.036,-1.703 -0.054,-1.715 -0.063,-1.734 -0.078,-1.746 -0.098,-1.77 -0.101,-1.793 -0.121,-1.801 -0.141,-1.812 -0.144,-1.836 -0.164,-1.856 -0.188,-1.867 -0.195,-1.891 -0.211,-1.91 -0.231,-1.922 -0.254,-1.945 -0.273,-1.957 -0.285,-1.976 -0.309,-2 -0.328,-2.024 -0.351,-2.043 -0.364,-2.055 -0.394,-2.074 -0.418,-2.097 -0.43,-2.121 -0.461,-2.145 -0.484,-2.152 -0.504,-2.176 -0.527,-2.207 -0.563,-2.219 -0.582,-2.242 -0.602,-2.262 -0.636,-2.285 -0.66,-2.32 -0.692,-2.328 -0.726,-2.352 -0.735,-2.371 -0.781,-2.399 -0.801,-2.425 -0.836,-2.442 -0.867,-2.468 -0.891,-2.485 -0.933,-2.515 -0.957,-2.54 0.957,-2.535 0.933,-2.519 0.891,-2.492 0.867,-2.473 0.836,-2.438 0.801,-2.418 0.781,-2.406 0.735,-2.371 0.726,-2.351 0.692,-2.332 0.66,-2.305 0.636,-2.285 0.602,-2.274 0.582,-2.242 0.563,-2.219 0.527,-2.199 0.504,-2.184 0.484,-2.156 0.461,-2.14 0.43,-2.11 0.418,-2.097 0.394,-2.09 0.364,-2.055 0.351,-2.031 0.328,-2.024 0.309,-1.996 0.285,-1.98 0.273,-1.965 0.254,-1.945 0.231,-1.922 0.211,-1.914 0.195,-1.887 0.188,-1.867 0.164,-1.848 0.144,-1.844 0.141,-1.812 0.121,-1.805 0.101,-1.777 0.098,-1.77 0.078,-1.757 0.063,-1.739 0.054,-1.711 0.036,-1.703 0.031,-1.691 0.023,-1.672 0.012,-1.66 0,-1.637 -0.012,-1.625 -0.011,-1.613 -0.032,-1.594 -0.035,-1.582 -0.031,-1.57 -0.043,-1.551 -0.055,-1.547 -0.066,-1.527 -0.067,-1.508 -0.066,-1.504 -0.066,-1.484 -0.078,-1.481 -0.086,-1.465 -0.079,-1.449 -0.085,-1.437 -0.09,-1.418 -0.086,-1.418 -0.09,-1.407 -0.086,-1.382 -0.09,-1.387 -0.086,-1.36 -0.09,-1.363 -0.086,-1.351 -0.078,-1.329 -0.078,-1.332 -0.074,-1.316 -0.078,-1.309 -0.067,-1.296 -0.066,-1.286 -0.055,-1.273 -0.054,-1.273 -0.043,-1.254 -0.043,-1.254 -0.036,-1.239 -0.023,-1.242 -0.008,-1.219 -0.011,-1.222 0,-1.207 0.011,-1.207 0.02,-1.199 0.035,-1.188 0.043,-1.184 0.055,-1.175 0.066,-1.168 0.078,-1.164 0.098,-1.153 0.097,-1.152 0.122,-1.145 0.144,-1.132 0.141,-1.141 0.175,-1.121 0.176,-1.121 0.199,-1.121 0.219,-1.121 0.231,-1.11 0.254,-1.097 0.273,-1.098 0.285,-1.098 0.32,-1.101 0.329,-1.086 0.351,-1.086 0.363,-1.09 0.395,-1.078 0.418,-1.074 0.441,-1.078 0.461,-1.075 0.485,-1.066 0.504,-1.078 0.539,-1.067 0.558,-1.066 0.582,-1.063 0.617,-1.066 0.637,-1.055 -0.836,1.371 -0.789,1.364 -0.769,1.363 -0.727,1.352 -0.703,1.339 -0.668,1.329 -0.637,1.32 -0.617,1.316 -0.582,1.309 -0.551,1.308 -0.527,1.297 -0.492,1.285 -0.473,1.286 -0.441,1.273 -0.418,1.274 -0.395,1.265 -0.371,1.262 -0.344,1.266 -0.316,1.25 -0.309,1.253 -0.273,1.243 -0.254,1.25 -0.23,1.242 -0.219,1.23 -0.188,1.242 -0.175,1.231 -0.153,1.242 -0.144,1.231 -0.121,1.23 -0.098,1.23 -0.09,1.231 -0.074,1.23 -0.059,1.231 -0.031,1.242 -0.031,1.231 -0.012,1.238 0,1.23 0.012,1.243 0.031,1.242 0.031,1.254 0.047,1.238 0.055,1.254 0.066,1.265 0.074,1.25 0.09,1.266 0.086,1.273 0.102,1.274 0.109,1.285 0.11,1.285 0.121,1.285 0.121,1.297 0.132,1.309 0.129,1.316 0.133,1.321 0.145,1.328 0.129,1.332 0.144,1.347 0.145,1.352 0.14,1.363 0.145,1.375 0.14,1.371 0.145,1.395 0.129,1.41 0.144,1.402 0.133,1.43 0.133,1.43 0.117,1.449 0.121,1.461 0.121,1.473 0.11,1.484 0.101,1.492 0.098,1.504 0.09,1.527 0.086,1.539 0.066,1.551 0.067,1.571 0.054,1.582 0.043,1.593 0.035,1.614 0.008,1.625 0.012,1.648 0,1.66 -0.02,1.68 -0.035,1.691 -0.043,1.715 -0.054,1.738 -0.078,1.746 -0.098,1.77 -0.109,1.789 -0.122,1.801 -0.144,1.824 -0.164,1.848 -0.188,1.867 -0.195,1.891 -0.223,1.898 -0.242,1.934 -0.262,1.957 -0.285,1.964 -0.308,2 -0.328,2.012 -0.352,2.043 -0.387,2.055 -0.394,2.086 -0.43,2.109 -0.461,2.145 -0.473,2.152 -0.503,2.187 -0.539,2.208 -0.559,2.23 -0.594,2.262 -0.629,2.285 -0.644,2.32 -0.684,2.328 -0.715,2.375 -0.734,2.395 -0.781,2.414 -0.813,2.453 -0.836,2.48 -0.879,2.508 -0.91,2.535 0.91,2.54 0.879,2.503 0.836,2.473 0.813,2.449 0.781,2.43 0.734,2.383 0.715,2.375 0.684,2.34 0.644,2.304 0.629,2.286 0.594,2.265 0.559,2.231 0.539,2.207 0.503,2.187 0.473,2.164 0.461,2.129 0.43,2.109 0.394,2.09 0.387,2.063 0.352,2.035 0.328,2.02 0.308,1.988 0.285,1.98 0.262,1.942 0.242,1.933 0.223,1.903 0.195,1.89 0.188,1.867 0.164,1.844 0.144,1.824 0.122,1.813 0.109,1.781 0.098,1.77 0.078,1.746 0.054,1.734 0.043,1.715 0.035,1.691 0.02,1.684 0,1.656 -0.012,1.649 -0.008,1.625 -0.035,1.617 -0.043,1.594 -0.054,1.582 -0.067,1.57 -0.066,1.547 -0.086,1.539 -0.09,1.527 -0.098,1.504 -0.101,1.508 -0.11,1.48 -0.121,1.473 -0.121,1.453 -0.117,1.449 -0.133,1.438 -0.133,1.418 -0.144,1.418 -0.129,1.394 -0.145,1.395 -0.14,1.387 -0.145,1.371 -0.14,1.363 -0.145,1.352 -0.144,1.339 -0.129,1.34 -0.145,1.332 -0.133,1.317 -0.129,1.308 -0.132,1.305 -0.121,1.297 -0.121,1.297 -0.11,1.285 -0.109,1.277 -0.102,1.274 -0.086,1.273 -0.09,1.262 -0.074,1.265 -0.066,1.254 -0.055,1.25 -0.047,1.254 -0.031,1.242 -0.031,1.239 -0.012,1.242 0,1.242 0.012,1.231 0.031,1.242 0.031,1.23 0.059,1.231 0.074,1.23 0.09,1.231 0.098,1.23 0.121,1.231 0.144,1.242 0.153,1.23 0.175,1.231 0.188,1.242 0.219,1.238 0.23,1.242 0.254,1.243 0.273,1.253 0.309,1.239 0.316,1.265 0.344,1.254 0.371,1.262 0.395,1.262 0.418,1.277 0.441,1.273 0.473,1.286 0.492,1.297 0.527,1.285 0.551,1.308 0.582,1.305 0.617,1.32 0.637,1.317 0.668,1.339 0.703,1.344 0.727,1.34 0.769,1.359 0.789,1.364 0.836,1.386 z" /><g
         transform="scale(10,10)"
         id="g276"><text
           id="text278"
           style="font-variant:normal;font-weight:normal;font-size:10.90909958px;font-family:CMR10;-inkscape-font-specification:CMR10;writing-mode:lr-tb;fill:#000000;fill-opacity:1;fill-rule:nonzero;stroke:none"
           transform="matrix(0,1,1,0,20.8551,88.5609)"><tspan
             id="tspan280"
             y="0"
             x="0 3.0024319 8.4024363">log</tspan></text>
<text
           id="text282"
           style="font-variant:normal;font-weight:normal;font-size:10.90909958px;font-family:CMMI10;-inkscape-font-specification:CMMI10;writing-mode:lr-tb;fill:#000000;fill-opacity:1;fill-rule:nonzero;stroke:none"
           transform="matrix(0,1,1,0,20.8551,104.5211)"><tspan
             id="tspan284"
             y="0"
             x="0">y</tspan></text>
</g><g
         transform="matrix(146.4,0,0,-134.4,123.48,321.48)"
         id="g286"><rect
           id="rect288"
           style="fill:#ffffff;fill-opacity:1;fill-rule:nonzero"
           transform="matrix(1,0,0,-1,0,1)"
           height="1"
           width="1"
           y="0"
           x="0" /></g><g
         transform="scale(10,10)"
         id="g290"><text
           id="text292"
           style="font-variant:normal;font-weight:normal;font-size:10.90909958px;font-family:CMMI10;-inkscape-font-specification:CMMI10;writing-mode:lr-tb;fill:#000000;fill-opacity:1;fill-rule:nonzero;stroke:none"
           transform="matrix(1,0,0,-1,15.3602,21.7199)"><tspan
             id="tspan294"
             y="0"
             x="0">O</tspan></text>
</g><g
         transform="matrix(159.6,0,0,-134.4,1970.78,321.48)"
         id="g296"><rect
           id="rect298"
           style="fill:#ffffff;fill-opacity:1;fill-rule:nonzero"
           transform="matrix(1,0,0,-1,0,1)"
           height="1"
           width="1"
           y="0"
           x="0" /></g><g
         transform="scale(10,10)"
         id="g300"><text
           id="text302"
           style="font-variant:normal;font-weight:normal;font-size:10.90909958px;font-family:CMMI10;-inkscape-font-specification:CMMI10;writing-mode:lr-tb;fill:#000000;fill-opacity:1;fill-rule:nonzero;stroke:none"
           transform="matrix(1,0,0,-1,200.091,21.7199)"><tspan
             id="tspan304"
             y="0"
             x="0">X</tspan></text>
</g><path
         id="path306"
         style="fill:none;stroke:#000000;stroke-width:11.95530033;stroke-linecap:butt;stroke-linejoin:miter;stroke-miterlimit:10;stroke-dasharray:none;stroke-opacity:1"
         d="m 218.574,321.602 1851.446,0" /><path
         id="path308"
         style="fill:none;stroke:#000000;stroke-width:11.95530033;stroke-linecap:butt;stroke-linejoin:miter;stroke-miterlimit:10;stroke-dasharray:none;stroke-opacity:1"
         d="m 270,153.594 0,1428.026" /><g
         transform="scale(10,10)"
         id="g310"><text
           id="text312"
           style="font-variant:normal;font-weight:normal;font-size:11.9552002px;font-family:CMCSC10;-inkscape-font-specification:CMCSC10;writing-mode:lr-tb;fill:#000000;fill-opacity:1;fill-rule:nonzero;stroke:none"
           transform="matrix(1,0,0,-1,94.441,0.0890625)"><tspan
             id="tspan314"
             y="0"
             x="0 8.5141773 12.111574 19.790337 28.065199 34.667976 41.270756">Fig.41.</tspan></text>
</g></g></g></svg>