<?xml version="1.0" encoding="UTF-8" standalone="no"?>
<svg
   xmlns:dc="http://purl.org/dc/elements/1.1/"
   xmlns:cc="http://creativecommons.org/ns#"
   xmlns:rdf="http://www.w3.org/1999/02/22-rdf-syntax-ns#"
   xmlns:svg="http://www.w3.org/2000/svg"
   xmlns="http://www.w3.org/2000/svg"
   viewBox="0 0 275 203.75"
   height="203.75"
   width="275"
   xml:space="preserve"
   version="1.1"
   id="svg2"><metadata
     id="metadata8"><rdf:RDF><cc:Work
         rdf:about=""><dc:format>image/svg+xml</dc:format><dc:type
           rdf:resource="http://purl.org/dc/dcmitype/StillImage" /></cc:Work></rdf:RDF></metadata><defs
     id="defs6"><clipPath
       id="clipPath12"
       clipPathUnits="userSpaceOnUse"><path
         id="path14"
         d="m -2,-2 220,0 0,163 -220,0 0,-163 z" /></clipPath></defs><g
     clip-path="url(#clipPath12)"
     transform="matrix(1.25,0,0,-1.25,2.5,201.25)"
     id="g10"><g
       transform="scale(0.1,0.1)"
       id="g16"><path
         id="path18"
         style="fill:none;stroke:#000000;stroke-width:11.95530033;stroke-linecap:butt;stroke-linejoin:miter;stroke-miterlimit:10;stroke-dasharray:none;stroke-opacity:1"
         d="m 150,1329.61 42.43,-42.57 42.429,-40.77 42.43,-39.06 42.43,-37.4 42.429,-35.83 42.43,-34.31 42.43,-32.86 42.43,-31.47 42.417,-30.14 42.43,-28.872 42.43,-27.652 42.43,-26.488 42.429,-25.368 42.43,-24.293 42.43,-23.269 42.429,-22.281 42.43,-21.344 42.43,-20.449 42.429,-19.579 42.43,-18.753 42.428,-17.961 42.43,-17.196 42.43,-16.48 42.43,-15.774 42.42,-15.117 42.43,-14.469 42.43,-13.867 42.43,-13.281 42.43,-12.711 42.43,-12.184 42.44,-11.667 42.42,-11.176 42.43,-10.699 42.43,-10.25 42.43,-9.813 42.43,-9.402 42.43,-9 42.43,-8.625 42.42,-8.262 42.44,-7.91" /><path
         id="path20"
         style="fill:none;stroke:#000000;stroke-width:7.97009993;stroke-linecap:butt;stroke-linejoin:miter;stroke-miterlimit:10;stroke-dasharray:none;stroke-opacity:1"
         d="m 432.855,321.602 0,23.621" /><path
         id="path22"
         style="fill:none;stroke:#000000;stroke-width:7.97009993;stroke-linecap:butt;stroke-linejoin:miter;stroke-miterlimit:10;stroke-dasharray:none;stroke-opacity:1"
         d="m 432.855,392.473 0,23.632" /><path
         id="path24"
         style="fill:none;stroke:#000000;stroke-width:7.97009993;stroke-linecap:butt;stroke-linejoin:miter;stroke-miterlimit:10;stroke-dasharray:none;stroke-opacity:1"
         d="m 432.855,416.105 0,23.622" /><path
         id="path26"
         style="fill:none;stroke:#000000;stroke-width:7.97009993;stroke-linecap:butt;stroke-linejoin:miter;stroke-miterlimit:10;stroke-dasharray:none;stroke-opacity:1"
         d="m 432.855,486.98 0,23.622" /><path
         id="path28"
         style="fill:none;stroke:#000000;stroke-width:7.97009993;stroke-linecap:butt;stroke-linejoin:miter;stroke-miterlimit:10;stroke-dasharray:none;stroke-opacity:1"
         d="m 432.855,510.602 0,23.628" /><path
         id="path30"
         style="fill:none;stroke:#000000;stroke-width:7.97009993;stroke-linecap:butt;stroke-linejoin:miter;stroke-miterlimit:10;stroke-dasharray:none;stroke-opacity:1"
         d="m 432.855,581.473 0,23.632" /><path
         id="path32"
         style="fill:none;stroke:#000000;stroke-width:7.97009993;stroke-linecap:butt;stroke-linejoin:miter;stroke-miterlimit:10;stroke-dasharray:none;stroke-opacity:1"
         d="m 432.855,605.105 0,23.622" /><path
         id="path34"
         style="fill:none;stroke:#000000;stroke-width:7.97009993;stroke-linecap:butt;stroke-linejoin:miter;stroke-miterlimit:10;stroke-dasharray:none;stroke-opacity:1"
         d="m 432.855,675.98 0,23.622" /><path
         id="path36"
         style="fill:none;stroke:#000000;stroke-width:7.97009993;stroke-linecap:butt;stroke-linejoin:miter;stroke-miterlimit:10;stroke-dasharray:none;stroke-opacity:1"
         d="m 432.855,699.602 0,23.628" /><path
         id="path38"
         style="fill:none;stroke:#000000;stroke-width:7.97009993;stroke-linecap:butt;stroke-linejoin:miter;stroke-miterlimit:10;stroke-dasharray:none;stroke-opacity:1"
         d="m 432.855,770.484 0,23.621" /><path
         id="path40"
         style="fill:none;stroke:#000000;stroke-width:7.97009993;stroke-linecap:butt;stroke-linejoin:miter;stroke-miterlimit:10;stroke-dasharray:none;stroke-opacity:1"
         d="m 432.855,794.105 0,23.622" /><path
         id="path42"
         style="fill:none;stroke:#000000;stroke-width:7.97009993;stroke-linecap:butt;stroke-linejoin:miter;stroke-miterlimit:10;stroke-dasharray:none;stroke-opacity:1"
         d="m 432.855,864.98 0,23.633" /><path
         id="path44"
         style="fill:none;stroke:#000000;stroke-width:7.97009993;stroke-linecap:butt;stroke-linejoin:miter;stroke-miterlimit:10;stroke-dasharray:none;stroke-opacity:1"
         d="m 432.855,888.613 0,23.621" /><path
         id="path46"
         style="fill:none;stroke:#000000;stroke-width:7.97009993;stroke-linecap:butt;stroke-linejoin:miter;stroke-miterlimit:10;stroke-dasharray:none;stroke-opacity:1"
         d="m 432.855,959.484 0,23.621" /><path
         id="path48"
         style="fill:none;stroke:#000000;stroke-width:7.97009993;stroke-linecap:butt;stroke-linejoin:miter;stroke-miterlimit:10;stroke-dasharray:none;stroke-opacity:1"
         d="m 432.855,983.105 0,23.635" /><path
         id="path50"
         style="fill:none;stroke:#000000;stroke-width:7.97009993;stroke-linecap:butt;stroke-linejoin:miter;stroke-miterlimit:10;stroke-dasharray:none;stroke-opacity:1"
         d="m 432.855,1053.99 0,23.62" /><path
         id="path52"
         style="fill:none;stroke:#000000;stroke-width:11.95530033;stroke-linecap:butt;stroke-linejoin:miter;stroke-miterlimit:10;stroke-dasharray:none;stroke-opacity:1"
         d="m 150,1329.61 282.855,0" /><path
         id="path54"
         style="fill:none;stroke:#000000;stroke-width:11.95530033;stroke-linecap:butt;stroke-linejoin:miter;stroke-miterlimit:10;stroke-dasharray:none;stroke-opacity:1"
         d="m 432.855,1077.61 0,252" /><path
         id="path56"
         style="fill:none;stroke:#000000;stroke-width:7.97009993;stroke-linecap:butt;stroke-linejoin:miter;stroke-miterlimit:10;stroke-dasharray:none;stroke-opacity:1"
         d="m 715.727,321.602 0,23.621" /><path
         id="path58"
         style="fill:none;stroke:#000000;stroke-width:7.97009993;stroke-linecap:butt;stroke-linejoin:miter;stroke-miterlimit:10;stroke-dasharray:none;stroke-opacity:1"
         d="m 715.727,392.473 0,23.632" /><path
         id="path60"
         style="fill:none;stroke:#000000;stroke-width:7.97009993;stroke-linecap:butt;stroke-linejoin:miter;stroke-miterlimit:10;stroke-dasharray:none;stroke-opacity:1"
         d="m 715.727,416.105 0,23.622" /><path
         id="path62"
         style="fill:none;stroke:#000000;stroke-width:7.97009993;stroke-linecap:butt;stroke-linejoin:miter;stroke-miterlimit:10;stroke-dasharray:none;stroke-opacity:1"
         d="m 715.727,486.98 0,23.622" /><path
         id="path64"
         style="fill:none;stroke:#000000;stroke-width:7.97009993;stroke-linecap:butt;stroke-linejoin:miter;stroke-miterlimit:10;stroke-dasharray:none;stroke-opacity:1"
         d="m 715.727,510.602 0,23.628" /><path
         id="path66"
         style="fill:none;stroke:#000000;stroke-width:7.97009993;stroke-linecap:butt;stroke-linejoin:miter;stroke-miterlimit:10;stroke-dasharray:none;stroke-opacity:1"
         d="m 715.727,581.473 0,23.632" /><path
         id="path68"
         style="fill:none;stroke:#000000;stroke-width:7.97009993;stroke-linecap:butt;stroke-linejoin:miter;stroke-miterlimit:10;stroke-dasharray:none;stroke-opacity:1"
         d="m 715.727,605.105 0,23.622" /><path
         id="path70"
         style="fill:none;stroke:#000000;stroke-width:7.97009993;stroke-linecap:butt;stroke-linejoin:miter;stroke-miterlimit:10;stroke-dasharray:none;stroke-opacity:1"
         d="m 715.727,675.98 0,23.622" /><path
         id="path72"
         style="fill:none;stroke:#000000;stroke-width:7.97009993;stroke-linecap:butt;stroke-linejoin:miter;stroke-miterlimit:10;stroke-dasharray:none;stroke-opacity:1"
         d="m 715.727,699.602 0,23.628" /><path
         id="path74"
         style="fill:none;stroke:#000000;stroke-width:7.97009993;stroke-linecap:butt;stroke-linejoin:miter;stroke-miterlimit:10;stroke-dasharray:none;stroke-opacity:1"
         d="m 715.727,770.484 0,23.621" /><path
         id="path76"
         style="fill:none;stroke:#000000;stroke-width:7.97009993;stroke-linecap:butt;stroke-linejoin:miter;stroke-miterlimit:10;stroke-dasharray:none;stroke-opacity:1"
         d="m 715.727,794.105 0,23.622" /><path
         id="path78"
         style="fill:none;stroke:#000000;stroke-width:7.97009993;stroke-linecap:butt;stroke-linejoin:miter;stroke-miterlimit:10;stroke-dasharray:none;stroke-opacity:1"
         d="m 715.727,864.98 0,23.633" /><path
         id="path80"
         style="fill:none;stroke:#000000;stroke-width:11.95530033;stroke-linecap:butt;stroke-linejoin:miter;stroke-miterlimit:10;stroke-dasharray:none;stroke-opacity:1"
         d="m 432.855,1077.61 282.872,0" /><path
         id="path82"
         style="fill:none;stroke:#000000;stroke-width:11.95530033;stroke-linecap:butt;stroke-linejoin:miter;stroke-miterlimit:10;stroke-dasharray:none;stroke-opacity:1"
         d="m 715.727,888.613 0,188.997" /><path
         id="path84"
         style="fill:none;stroke:#000000;stroke-width:7.97009993;stroke-linecap:butt;stroke-linejoin:miter;stroke-miterlimit:10;stroke-dasharray:none;stroke-opacity:1"
         d="m 998.582,321.602 0,26.574" /><path
         id="path86"
         style="fill:none;stroke:#000000;stroke-width:7.97009993;stroke-linecap:butt;stroke-linejoin:miter;stroke-miterlimit:10;stroke-dasharray:none;stroke-opacity:1"
         d="m 998.582,401.34 0,26.574" /><path
         id="path88"
         style="fill:none;stroke:#000000;stroke-width:7.97009993;stroke-linecap:butt;stroke-linejoin:miter;stroke-miterlimit:10;stroke-dasharray:none;stroke-opacity:1"
         d="m 998.582,427.914 0,26.578" /><path
         id="path90"
         style="fill:none;stroke:#000000;stroke-width:7.97009993;stroke-linecap:butt;stroke-linejoin:miter;stroke-miterlimit:10;stroke-dasharray:none;stroke-opacity:1"
         d="m 998.582,507.645 0,26.585" /><path
         id="path92"
         style="fill:none;stroke:#000000;stroke-width:7.97009993;stroke-linecap:butt;stroke-linejoin:miter;stroke-miterlimit:10;stroke-dasharray:none;stroke-opacity:1"
         d="m 998.582,534.23 0,26.579" /><path
         id="path94"
         style="fill:none;stroke:#000000;stroke-width:7.97009993;stroke-linecap:butt;stroke-linejoin:miter;stroke-miterlimit:10;stroke-dasharray:none;stroke-opacity:1"
         d="m 998.582,613.961 0,26.578" /><path
         id="path96"
         style="fill:none;stroke:#000000;stroke-width:7.97009993;stroke-linecap:butt;stroke-linejoin:miter;stroke-miterlimit:10;stroke-dasharray:none;stroke-opacity:1"
         d="m 998.582,640.539 0,26.586" /><path
         id="path98"
         style="fill:none;stroke:#000000;stroke-width:7.97009993;stroke-linecap:butt;stroke-linejoin:miter;stroke-miterlimit:10;stroke-dasharray:none;stroke-opacity:1"
         d="m 998.582,720.277 0,26.575" /><path
         id="path100"
         style="fill:none;stroke:#000000;stroke-width:11.95530033;stroke-linecap:butt;stroke-linejoin:miter;stroke-miterlimit:10;stroke-dasharray:none;stroke-opacity:1"
         d="m 715.727,888.613 282.855,0" /><path
         id="path102"
         style="fill:none;stroke:#000000;stroke-width:11.95530033;stroke-linecap:butt;stroke-linejoin:miter;stroke-miterlimit:10;stroke-dasharray:none;stroke-opacity:1"
         d="m 998.582,746.852 0,141.761" /><path
         id="path104"
         style="fill:none;stroke:#000000;stroke-width:7.97009993;stroke-linecap:butt;stroke-linejoin:miter;stroke-miterlimit:10;stroke-dasharray:none;stroke-opacity:1"
         d="m 1281.44,321.602 0,19.929" /><path
         id="path106"
         style="fill:none;stroke:#000000;stroke-width:7.97009993;stroke-linecap:butt;stroke-linejoin:miter;stroke-miterlimit:10;stroke-dasharray:none;stroke-opacity:1"
         d="m 1281.44,381.398 0,19.942" /><path
         id="path108"
         style="fill:none;stroke:#000000;stroke-width:7.97009993;stroke-linecap:butt;stroke-linejoin:miter;stroke-miterlimit:10;stroke-dasharray:none;stroke-opacity:1"
         d="m 1281.44,401.34 0,19.93" /><path
         id="path110"
         style="fill:none;stroke:#000000;stroke-width:7.97009993;stroke-linecap:butt;stroke-linejoin:miter;stroke-miterlimit:10;stroke-dasharray:none;stroke-opacity:1"
         d="m 1281.44,461.141 0,19.929" /><path
         id="path112"
         style="fill:none;stroke:#000000;stroke-width:7.97009993;stroke-linecap:butt;stroke-linejoin:miter;stroke-miterlimit:10;stroke-dasharray:none;stroke-opacity:1"
         d="m 1281.44,481.07 0,19.938" /><path
         id="path114"
         style="fill:none;stroke:#000000;stroke-width:7.97009993;stroke-linecap:butt;stroke-linejoin:miter;stroke-miterlimit:10;stroke-dasharray:none;stroke-opacity:1"
         d="m 1281.44,540.867 0,19.942" /><path
         id="path116"
         style="fill:none;stroke:#000000;stroke-width:7.97009993;stroke-linecap:butt;stroke-linejoin:miter;stroke-miterlimit:10;stroke-dasharray:none;stroke-opacity:1"
         d="m 1281.44,560.809 0,19.929" /><path
         id="path118"
         style="fill:none;stroke:#000000;stroke-width:7.97009993;stroke-linecap:butt;stroke-linejoin:miter;stroke-miterlimit:10;stroke-dasharray:none;stroke-opacity:1"
         d="m 1281.44,620.609 0,19.93" /><path
         id="path120"
         style="fill:none;stroke:#000000;stroke-width:11.95530033;stroke-linecap:butt;stroke-linejoin:miter;stroke-miterlimit:10;stroke-dasharray:none;stroke-opacity:1"
         d="m 998.582,746.852 282.858,0" /><path
         id="path122"
         style="fill:none;stroke:#000000;stroke-width:11.95530033;stroke-linecap:butt;stroke-linejoin:miter;stroke-miterlimit:10;stroke-dasharray:none;stroke-opacity:1"
         d="m 1281.44,640.539 0,106.313" /><path
         id="path124"
         style="fill:none;stroke:#000000;stroke-width:7.97009993;stroke-linecap:butt;stroke-linejoin:miter;stroke-miterlimit:10;stroke-dasharray:none;stroke-opacity:1"
         d="m 1564.31,321.602 0,14.949" /><path
         id="path126"
         style="fill:none;stroke:#000000;stroke-width:7.97009993;stroke-linecap:butt;stroke-linejoin:miter;stroke-miterlimit:10;stroke-dasharray:none;stroke-opacity:1"
         d="m 1564.31,366.445 0,14.953" /><path
         id="path128"
         style="fill:none;stroke:#000000;stroke-width:7.97009993;stroke-linecap:butt;stroke-linejoin:miter;stroke-miterlimit:10;stroke-dasharray:none;stroke-opacity:1"
         d="m 1564.31,381.398 0,14.954" /><path
         id="path130"
         style="fill:none;stroke:#000000;stroke-width:7.97009993;stroke-linecap:butt;stroke-linejoin:miter;stroke-miterlimit:10;stroke-dasharray:none;stroke-opacity:1"
         d="m 1564.31,426.258 0,14.941" /><path
         id="path132"
         style="fill:none;stroke:#000000;stroke-width:7.97009993;stroke-linecap:butt;stroke-linejoin:miter;stroke-miterlimit:10;stroke-dasharray:none;stroke-opacity:1"
         d="m 1564.31,441.199 0,14.953" /><path
         id="path134"
         style="fill:none;stroke:#000000;stroke-width:7.97009993;stroke-linecap:butt;stroke-linejoin:miter;stroke-miterlimit:10;stroke-dasharray:none;stroke-opacity:1"
         d="m 1564.31,486.055 0,14.953" /><path
         id="path136"
         style="fill:none;stroke:#000000;stroke-width:7.97009993;stroke-linecap:butt;stroke-linejoin:miter;stroke-miterlimit:10;stroke-dasharray:none;stroke-opacity:1"
         d="m 1564.31,501.008 0,14.941" /><path
         id="path138"
         style="fill:none;stroke:#000000;stroke-width:7.97009993;stroke-linecap:butt;stroke-linejoin:miter;stroke-miterlimit:10;stroke-dasharray:none;stroke-opacity:1"
         d="m 1564.31,545.855 0,14.954" /><path
         id="path140"
         style="fill:none;stroke:#000000;stroke-width:11.95530033;stroke-linecap:butt;stroke-linejoin:miter;stroke-miterlimit:10;stroke-dasharray:none;stroke-opacity:1"
         d="m 1281.44,640.539 282.87,0" /><path
         id="path142"
         style="fill:none;stroke:#000000;stroke-width:11.95530033;stroke-linecap:butt;stroke-linejoin:miter;stroke-miterlimit:10;stroke-dasharray:none;stroke-opacity:1"
         d="m 1564.31,560.809 0,79.73" /><path
         id="path144"
         style="fill:none;stroke:#000000;stroke-width:7.97009993;stroke-linecap:butt;stroke-linejoin:miter;stroke-miterlimit:10;stroke-dasharray:none;stroke-opacity:1"
         d="m 1847.17,321.602 0,22.421" /><path
         id="path146"
         style="fill:none;stroke:#000000;stroke-width:7.97009993;stroke-linecap:butt;stroke-linejoin:miter;stroke-miterlimit:10;stroke-dasharray:none;stroke-opacity:1"
         d="m 1847.17,388.883 0,22.422" /><path
         id="path148"
         style="fill:none;stroke:#000000;stroke-width:7.97009993;stroke-linecap:butt;stroke-linejoin:miter;stroke-miterlimit:10;stroke-dasharray:none;stroke-opacity:1"
         d="m 1847.17,411.305 0,22.422" /><path
         id="path150"
         style="fill:none;stroke:#000000;stroke-width:7.97009993;stroke-linecap:butt;stroke-linejoin:miter;stroke-miterlimit:10;stroke-dasharray:none;stroke-opacity:1"
         d="m 1847.17,478.574 0,22.434" /><path
         id="path152"
         style="fill:none;stroke:#000000;stroke-width:11.95530033;stroke-linecap:butt;stroke-linejoin:miter;stroke-miterlimit:10;stroke-dasharray:none;stroke-opacity:1"
         d="m 1564.31,560.809 282.86,0" /><path
         id="path154"
         style="fill:none;stroke:#000000;stroke-width:11.95530033;stroke-linecap:butt;stroke-linejoin:miter;stroke-miterlimit:10;stroke-dasharray:none;stroke-opacity:1"
         d="m 1847.17,501.008 0,59.801" /><g
         transform="scale(10,10)"
         id="g156"><text
           id="text158"
           style="font-variant:normal;font-weight:normal;font-size:10.90909958px;font-family:CMR10;-inkscape-font-specification:CMR10;writing-mode:lr-tb;fill:#000000;fill-opacity:1;fill-rule:nonzero;stroke:none"
           transform="matrix(1,0,0,-1,40.5258,21.0953)"><tspan
             id="tspan160"
             y="0"
             x="0 28.286751 56.572739 84.858292 113.14548 141.43103">123456</tspan></text>
</g><g
         transform="matrix(106.8,0,0,-135.6,-30.5059,892.684)"
         id="g162"><rect
           id="rect164"
           style="fill:#ffffff;fill-opacity:1;fill-rule:nonzero"
           transform="matrix(1,0,0,-1,0,1)"
           height="1"
           width="1"
           y="0"
           x="0" /></g><g
         transform="scale(10,10)"
         id="g166"><text
           id="text168"
           style="font-variant:normal;font-weight:normal;font-size:10.90909958px;font-family:CMMI10;-inkscape-font-specification:CMMI10;writing-mode:lr-tb;fill:#000000;fill-opacity:1;fill-rule:nonzero;stroke:none"
           transform="matrix(1,0,0,-1,-0.158594,78.7203)"><tspan
             id="tspan170"
             y="0"
             x="0">b</tspan></text>
</g><path
         id="path172"
         style="fill:#000000;fill-opacity:1;fill-rule:nonzero;stroke:none"
         d="m 137.246,1314.46 -1.574,-0.83 -1.504,-0.99 -1.449,-1.12 -1.395,-1.26 -1.34,-1.39 -1.296,-1.54 -1.231,-1.67 -1.187,-1.8 -1.133,-1.94 -1.086,-2.06 -1.043,-2.19 -0.988,-2.29 -0.946,-2.43 -0.89,-2.55 -0.86,-2.67 -0.812,-2.77 -0.77,-2.89 -0.722,-3 -0.692,-3.09 -0.648,-3.2 -0.606,-3.31 -0.57,-3.41 -0.539,-3.5 -0.508,-3.61 -0.469,-3.68 -0.429,-3.77 -0.407,-3.87 -0.375,-3.96 -0.339,-4.04 -0.309,-4.11 -0.285,-4.2 -0.262,-4.27 -0.23,-4.34 -0.211,-4.43 -0.188,-4.48 -0.152,-4.55 -0.145,-4.63 -0.121,-4.67 -0.097,-4.74 -0.079,-4.8 -0.062,-4.84 -0.047,-4.92 -0.02,-4.95 -0.023,-5.01 0,-5.04 0.012,-5.1 0.023,-5.13 0.031,-5.19 0.043,-5.21 0.055,-5.23 0.055,-5.29 0.066,-5.3 0.078,-5.34 0.067,-5.36 0.086,-5.38 0.078,-5.41 0.086,-5.42 0.078,-5.43 0.09,-5.46 0.074,-5.45 0.078,-5.47 0.078,-5.48 0.067,-5.48 0.062,-5.49 0.059,-5.48 0.054,-5.48 0.043,-5.47 0.02,-5.48 0.023,-5.46 0.012,-5.43 0,-5.44 -0.023,-5.41 -0.032,-5.4 -0.054,-5.37 -0.067,-5.36 -0.078,-5.312 -0.109,-5.297 -0.121,-5.274 -0.141,-5.226 -0.168,-5.2 -0.184,-5.164 -0.21,-5.117 -0.243,-5.078 -0.261,-5.031 -0.297,-4.989 -0.321,-4.929 -0.339,-4.891 -0.383,-4.836 -0.406,-4.777 -0.442,-4.715 -0.484,-4.656 -0.504,-4.594 -0.551,-4.527 -0.582,-4.457 -0.613,-4.387 -0.66,-4.316 -0.692,-4.25 -0.738,-4.165 -0.777,-4.089 -0.813,-3.996 -0.8711,-3.922 -0.9101,-3.836 -0.957,-3.746 -1,-3.661 -1.043,-3.558 -1.0977,-3.461 -1.1445,-3.371 -1.1953,-3.266 -1.2422,-3.164 -1.3086,-3.062 -1.3516,-2.957 -1.4062,-2.844 -1.4609,-2.727 -1.5274,-2.613 -1.5703,-2.508 -1.6367,-2.383 -1.7032,-2.261 -1.7578,-2.133 -1.8125,-2.012 -1.8906,-1.887 1.8906,-1.878 1.8125,-2.012 1.7578,-2.141 1.7032,-2.265 1.6367,-2.383 1.5703,-2.496 1.5274,-2.614 1.4609,-2.734 1.4062,-2.848 1.3516,-2.953 1.3086,-3.054 1.2422,-3.165 1.1953,-3.273 1.1445,-3.363 1.0977,-3.473 1.043,-3.558 1,-3.661 0.957,-3.734 0.9101,-3.832 0.8711,-3.922 0.813,-4.012 0.777,-4.086 0.738,-4.164 0.692,-4.242 0.66,-4.316 0.613,-4.395 0.582,-4.461 0.551,-4.527 0.504,-4.59 0.484,-4.66 0.442,-4.715 0.406,-4.777 0.383,-4.836 0.339,-4.875 0.321,-4.945 0.297,-4.977 0.261,-5.043 0.243,-5.074 0.21,-5.121 0.184,-5.164 0.168,-5.196 0.141,-5.23 0.121,-5.262 0.109,-5.297 0.078,-5.328 0.067,-5.351 0.054,-5.372 0.032,-5.394 0.023,-5.418 0,-5.426 -0.012,-5.449 -0.023,-5.461 -0.02,-5.461 -0.043,-5.48 -0.054,-5.485 -0.059,-5.48 -0.062,-5.481 -0.067,-5.484 -0.078,-5.473 -0.078,-5.468 -0.074,-5.461 -0.09,-5.45 -0.078,-5.437 -0.086,-5.43 -0.078,-5.402 -0.086,-5.375 -0.067,-5.36 -0.078,-5.339 -0.066,-5.309 -0.055,-5.273 -0.055,-5.25 -0.043,-5.207 -0.031,-5.176 -0.023,-5.141 -0.012,-5.086 0,-5.054 0.023,-5.012 0.02,-4.953 0.047,-4.899 0.062,-4.859 0.079,-4.801 0.097,-4.734 0.121,-4.68 0.145,-4.613 0.152,-4.559 0.188,-4.484 0.211,-4.418 0.23,-4.348 0.262,-4.265 0.285,-4.196 0.309,-4.121 0.339,-4.031 0.375,-3.953 0.407,-3.871 0.429,-3.778 0.469,-3.691 0.508,-3.606 0.539,-3.492 0.57,-3.406 0.606,-3.305 0.648,-3.211 0.692,-3.097 0.722,-3 0.77,-2.887 0.812,-2.77 0.86,-2.66 0.89,-2.547 0.946,-2.429 0.988,-2.305 1.043,-2.187 1.086,-2.055 1.133,-1.934 1.187,-1.801 1.231,-1.683 1.296,-1.535 1.34,-1.399 1.395,-1.261 1.449,-1.122 1.504,-0.976 1.574,-0.836 -2.199,1.207 -2.109,1.344 -2.043,1.461 -1.957,1.601 -1.887,1.727 -1.813,1.844 -1.75,1.98 -1.668,2.086 -1.593,2.207 -1.539,2.332 -1.461,2.438 -1.407,2.55 -1.328,2.657 -1.273,2.769 -1.211,2.879 -1.153,2.977 -1.085,3.074 -1.036,3.176 -0.976,3.273 -0.914,3.375 -0.867,3.449 -0.813,3.559 -0.758,3.637 -0.715,3.726 -0.66,3.801 -0.613,3.887 -0.563,3.968 -0.527,4.043 -0.469,4.118 -0.441,4.199 -0.383,4.261 -0.3514,4.329 -0.3203,4.394 -0.2735,4.461 -0.2421,4.527 -0.1993,4.582 -0.164,4.645 -0.1446,4.691 -0.0976,4.746 -0.0781,4.801 -0.043,4.86 -0.0195,4.886 0.0078,4.946 0.0351,4.988 0.0547,5.019 0.0781,5.067 0.0977,5.098 0.1211,5.128 0.1406,5.165 0.1563,5.187 0.1758,5.227 0.1874,5.242 0.1954,5.261 0.2187,5.297 0.2227,5.305 0.242,5.328 0.238,5.34 0.243,5.352 0.265,5.359 0.262,5.363 0.266,5.371 0.261,5.383 0.266,5.375 0.273,5.383 0.266,5.371 0.262,5.375 0.254,5.359 0.254,5.364 0.25,5.336 0.242,5.332 0.218,5.304 0.223,5.297 0.207,5.274 0.199,5.25 0.176,5.23 0.164,5.195 0.141,5.176 0.133,5.141 0.109,5.097 0.09,5.079 0.066,5.031 0.043,4.996 0.024,4.945 -0.012,4.91 -0.035,4.868 -0.055,4.812 -0.098,4.758 -0.121,4.711 -0.152,4.66 -0.187,4.594 -0.219,4.535 -0.266,4.484 -0.297,4.414 -0.328,4.34 -0.375,4.285 -0.418,4.207 -0.461,4.145 -0.504,4.062 -0.539,3.989 -0.593,3.914 -0.637,3.82 -0.6916,3.746 -0.7383,3.66 -0.789,3.571 -0.8477,3.484 -0.8906,3.395 -0.9531,3.293 -1,3.199 -1.0665,3.097 -1.1328,3.012 -1.1757,2.899 -1.25,2.793 -1.3086,2.691 -1.375,2.582 -1.4258,2.461 -1.5078,2.359 -1.5703,2.242 -1.6368,2.122 -1.7148,2 -1.7774,1.878 1.7774,1.879 1.7148,2.008 1.6368,2.121 1.5703,2.242 1.5078,2.352 1.4258,2.473 1.375,2.57 1.3086,2.691 1.25,2.801 1.1757,2.903 1.1328,2.996 1.0665,3.097 1,3.211 0.9531,3.293 0.8906,3.387 0.8477,3.48 0.789,3.582 0.7383,3.661 0.6916,3.746 0.637,3.824 0.593,3.91 0.539,3.988 0.504,4.055 0.461,4.141 0.418,4.207 0.375,4.285 0.328,4.351 0.297,4.407 0.266,4.48 0.219,4.539 0.187,4.602 0.152,4.648 0.121,4.711 0.098,4.77 0.055,4.812 0.035,4.856 0.012,4.91 -0.024,4.957 -0.043,4.988 -0.066,5.031 -0.09,5.075 -0.109,5.109 -0.133,5.141 -0.141,5.164 -0.164,5.211 -0.176,5.21 -0.199,5.26 -0.207,5.27 -0.223,5.29 -0.218,5.32 -0.242,5.33 -0.25,5.34 -0.254,5.35 -0.254,5.38 -0.262,5.36 -0.266,5.37 -0.273,5.38 -0.266,5.39 -0.261,5.37 -0.266,5.37 -0.262,5.37 -0.265,5.36 -0.243,5.35 -0.238,5.34 -0.242,5.33 -0.2227,5.31 -0.2187,5.28 -0.1954,5.26 -0.1874,5.26 -0.1758,5.22 -0.1563,5.19 -0.1406,5.17 -0.1211,5.13 -0.0977,5.1 -0.0781,5.06 -0.0547,5.01 -0.0351,5 -0.0078,4.93 0.0195,4.9 0.043,4.85 0.0781,4.8 0.0976,4.75 0.1446,4.7 0.164,4.64 0.1993,4.57 0.2421,4.53 0.2735,4.46 0.3203,4.41 0.3514,4.32 0.383,4.26 0.441,4.2 0.469,4.11 0.527,4.05 0.563,3.96 0.613,3.89 0.66,3.81 0.715,3.73 0.758,3.63 0.813,3.55 0.867,3.46 0.914,3.38 0.976,3.26 1.036,3.17 1.085,3.09 1.153,2.97 1.211,2.88 1.273,2.76 1.328,2.66 1.407,2.56 1.461,2.44 1.539,2.32 1.593,2.22 1.668,2.09 1.75,1.96 1.813,1.86 1.887,1.71 1.957,1.61 2.043,1.47 2.109,1.33 2.199,1.21" /><path
         id="path174"
         style="fill:none;stroke:#000000;stroke-width:3.9849999;stroke-linecap:butt;stroke-linejoin:miter;stroke-miterlimit:10;stroke-dasharray:none;stroke-opacity:1"
         d="m 137.246,1314.46 -1.574,-0.83 -1.504,-0.99 -1.449,-1.12 -1.395,-1.26 -1.34,-1.39 -1.296,-1.54 -1.231,-1.67 -1.187,-1.8 -1.133,-1.94 -1.086,-2.06 -1.043,-2.19 -0.988,-2.29 -0.946,-2.43 -0.89,-2.55 -0.86,-2.67 -0.812,-2.77 -0.77,-2.89 -0.722,-3 -0.692,-3.09 -0.648,-3.2 -0.606,-3.31 -0.57,-3.41 -0.539,-3.5 -0.508,-3.61 -0.469,-3.68 -0.429,-3.77 -0.407,-3.87 -0.375,-3.96 -0.339,-4.04 -0.309,-4.11 -0.285,-4.2 -0.262,-4.27 -0.23,-4.34 -0.211,-4.43 -0.188,-4.48 -0.152,-4.55 -0.145,-4.63 -0.121,-4.67 -0.097,-4.74 -0.079,-4.8 -0.062,-4.84 -0.047,-4.92 -0.02,-4.95 -0.023,-5.01 0,-5.04 0.012,-5.1 0.023,-5.13 0.031,-5.19 0.043,-5.21 0.055,-5.23 0.055,-5.29 0.066,-5.3 0.078,-5.34 0.067,-5.36 0.086,-5.38 0.078,-5.41 0.086,-5.42 0.078,-5.43 0.09,-5.46 0.074,-5.45 0.078,-5.47 0.078,-5.48 0.067,-5.48 0.062,-5.49 0.059,-5.48 0.054,-5.48 0.043,-5.47 0.02,-5.48 0.023,-5.46 0.012,-5.43 0,-5.44 -0.023,-5.41 -0.032,-5.4 -0.054,-5.37 -0.067,-5.36 -0.078,-5.312 -0.109,-5.297 -0.121,-5.274 -0.141,-5.226 -0.168,-5.2 -0.184,-5.164 -0.21,-5.117 -0.243,-5.078 -0.261,-5.031 -0.297,-4.989 -0.321,-4.929 -0.339,-4.891 -0.383,-4.836 -0.406,-4.777 -0.442,-4.715 -0.484,-4.656 -0.504,-4.594 -0.551,-4.527 -0.582,-4.457 -0.613,-4.387 -0.66,-4.316 -0.692,-4.25 -0.738,-4.165 -0.777,-4.089 -0.813,-3.996 -0.8711,-3.922 -0.9101,-3.836 -0.957,-3.746 -1,-3.661 -1.043,-3.558 -1.0977,-3.461 -1.1445,-3.371 -1.1953,-3.266 -1.2422,-3.164 -1.3086,-3.062 -1.3516,-2.957 -1.4062,-2.844 -1.4609,-2.727 -1.5274,-2.613 -1.5703,-2.508 -1.6367,-2.383 -1.7032,-2.261 -1.7578,-2.133 -1.8125,-2.012 -1.8906,-1.887 1.8906,-1.878 1.8125,-2.012 1.7578,-2.141 1.7032,-2.265 1.6367,-2.383 1.5703,-2.496 1.5274,-2.614 1.4609,-2.734 1.4062,-2.848 1.3516,-2.953 1.3086,-3.054 1.2422,-3.165 1.1953,-3.273 1.1445,-3.363 1.0977,-3.473 1.043,-3.558 1,-3.661 0.957,-3.734 0.9101,-3.832 0.8711,-3.922 0.813,-4.012 0.777,-4.086 0.738,-4.164 0.692,-4.242 0.66,-4.316 0.613,-4.395 0.582,-4.461 0.551,-4.527 0.504,-4.59 0.484,-4.66 0.442,-4.715 0.406,-4.777 0.383,-4.836 0.339,-4.875 0.321,-4.945 0.297,-4.977 0.261,-5.043 0.243,-5.074 0.21,-5.121 0.184,-5.164 0.168,-5.196 0.141,-5.23 0.121,-5.262 0.109,-5.297 0.078,-5.328 0.067,-5.351 0.054,-5.372 0.032,-5.394 0.023,-5.418 0,-5.426 -0.012,-5.449 -0.023,-5.461 -0.02,-5.461 -0.043,-5.48 -0.054,-5.485 -0.059,-5.48 -0.062,-5.481 -0.067,-5.484 -0.078,-5.473 -0.078,-5.468 -0.074,-5.461 -0.09,-5.45 -0.078,-5.437 -0.086,-5.43 -0.078,-5.402 -0.086,-5.375 -0.067,-5.36 -0.078,-5.339 -0.066,-5.309 -0.055,-5.273 -0.055,-5.25 -0.043,-5.207 -0.031,-5.176 -0.023,-5.141 -0.012,-5.086 0,-5.054 0.023,-5.012 0.02,-4.953 0.047,-4.899 0.062,-4.859 0.079,-4.801 0.097,-4.734 0.121,-4.68 0.145,-4.613 0.152,-4.559 0.188,-4.484 0.211,-4.418 0.23,-4.348 0.262,-4.265 0.285,-4.196 0.309,-4.121 0.339,-4.031 0.375,-3.953 0.407,-3.871 0.429,-3.778 0.469,-3.691 0.508,-3.606 0.539,-3.492 0.57,-3.406 0.606,-3.305 0.648,-3.211 0.692,-3.097 0.722,-3 0.77,-2.887 0.812,-2.77 0.86,-2.66 0.89,-2.547 0.946,-2.429 0.988,-2.305 1.043,-2.187 1.086,-2.055 1.133,-1.934 1.187,-1.801 1.231,-1.683 1.296,-1.535 1.34,-1.399 1.395,-1.261 1.449,-1.122 1.504,-0.976 1.574,-0.836 -2.199,1.207 -2.109,1.344 -2.043,1.461 -1.957,1.601 -1.887,1.727 -1.813,1.844 -1.75,1.98 -1.668,2.086 -1.593,2.207 -1.539,2.332 -1.461,2.438 -1.407,2.55 -1.328,2.657 -1.273,2.769 -1.211,2.879 -1.153,2.977 -1.085,3.074 -1.036,3.176 -0.976,3.273 -0.914,3.375 -0.867,3.449 -0.813,3.559 -0.758,3.637 -0.715,3.726 -0.66,3.801 -0.613,3.887 -0.563,3.968 -0.527,4.043 -0.469,4.118 -0.441,4.199 -0.383,4.261 -0.3514,4.329 -0.3203,4.394 -0.2735,4.461 -0.2421,4.527 -0.1993,4.582 -0.164,4.645 -0.1446,4.691 -0.0976,4.746 -0.0781,4.801 -0.043,4.86 -0.0195,4.886 0.0078,4.946 0.0351,4.988 0.0547,5.019 0.0781,5.067 0.0977,5.098 0.1211,5.128 0.1406,5.165 0.1563,5.187 0.1758,5.227 0.1874,5.242 0.1954,5.261 0.2187,5.297 0.2227,5.305 0.242,5.328 0.238,5.34 0.243,5.352 0.265,5.359 0.262,5.363 0.266,5.371 0.261,5.383 0.266,5.375 0.273,5.383 0.266,5.371 0.262,5.375 0.254,5.359 0.254,5.364 0.25,5.336 0.242,5.332 0.218,5.304 0.223,5.297 0.207,5.274 0.199,5.25 0.176,5.23 0.164,5.195 0.141,5.176 0.133,5.141 0.109,5.097 0.09,5.079 0.066,5.031 0.043,4.996 0.024,4.945 -0.012,4.91 -0.035,4.868 -0.055,4.812 -0.098,4.758 -0.121,4.711 -0.152,4.66 -0.187,4.594 -0.219,4.535 -0.266,4.484 -0.297,4.414 -0.328,4.34 -0.375,4.285 -0.418,4.207 -0.461,4.145 -0.504,4.062 -0.539,3.989 -0.593,3.914 -0.637,3.82 -0.6916,3.746 -0.7383,3.66 -0.789,3.571 -0.8477,3.484 -0.8906,3.395 -0.9531,3.293 -1,3.199 -1.0665,3.097 -1.1328,3.012 -1.1757,2.899 -1.25,2.793 -1.3086,2.691 -1.375,2.582 -1.4258,2.461 -1.5078,2.359 -1.5703,2.242 -1.6368,2.122 -1.7148,2 -1.7774,1.878 1.7774,1.879 1.7148,2.008 1.6368,2.121 1.5703,2.242 1.5078,2.352 1.4258,2.473 1.375,2.57 1.3086,2.691 1.25,2.801 1.1757,2.903 1.1328,2.996 1.0665,3.097 1,3.211 0.9531,3.293 0.8906,3.387 0.8477,3.48 0.789,3.582 0.7383,3.661 0.6916,3.746 0.637,3.824 0.593,3.91 0.539,3.988 0.504,4.055 0.461,4.141 0.418,4.207 0.375,4.285 0.328,4.351 0.297,4.407 0.266,4.48 0.219,4.539 0.187,4.602 0.152,4.648 0.121,4.711 0.098,4.77 0.055,4.812 0.035,4.856 0.012,4.91 -0.024,4.957 -0.043,4.988 -0.066,5.031 -0.09,5.075 -0.109,5.109 -0.133,5.141 -0.141,5.164 -0.164,5.211 -0.176,5.21 -0.199,5.26 -0.207,5.27 -0.223,5.29 -0.218,5.32 -0.242,5.33 -0.25,5.34 -0.254,5.35 -0.254,5.38 -0.262,5.36 -0.266,5.37 -0.273,5.38 -0.266,5.39 -0.261,5.37 -0.266,5.37 -0.262,5.37 -0.265,5.36 -0.243,5.35 -0.238,5.34 -0.242,5.33 -0.2227,5.31 -0.2187,5.28 -0.1954,5.26 -0.1874,5.26 -0.1758,5.22 -0.1563,5.19 -0.1406,5.17 -0.1211,5.13 -0.0977,5.1 -0.0781,5.06 -0.0547,5.01 -0.0351,5 -0.0078,4.93 0.0195,4.9 0.043,4.85 0.0781,4.8 0.0976,4.75 0.1446,4.7 0.164,4.64 0.1993,4.57 0.2421,4.53 0.2735,4.46 0.3203,4.41 0.3514,4.32 0.383,4.26 0.441,4.2 0.469,4.11 0.527,4.05 0.563,3.96 0.613,3.89 0.66,3.81 0.715,3.73 0.758,3.63 0.813,3.55 0.867,3.46 0.914,3.38 0.976,3.26 1.036,3.17 1.085,3.09 1.153,2.97 1.211,2.88 1.273,2.76 1.328,2.66 1.407,2.56 1.461,2.44 1.539,2.32 1.593,2.22 1.668,2.09 1.75,1.96 1.813,1.86 1.887,1.71 1.957,1.61 2.043,1.47 2.109,1.33 2.199,1.21 z" /><g
         transform="matrix(146.4,0,0,-134.4,3.47998,321.48)"
         id="g176"><rect
           id="rect178"
           style="fill:#ffffff;fill-opacity:1;fill-rule:nonzero"
           transform="matrix(1,0,0,-1,0,1)"
           height="1"
           width="1"
           y="0"
           x="0" /></g><g
         transform="scale(10,10)"
         id="g180"><text
           id="text182"
           style="font-variant:normal;font-weight:normal;font-size:10.90909958px;font-family:CMMI10;-inkscape-font-specification:CMMI10;writing-mode:lr-tb;fill:#000000;fill-opacity:1;fill-rule:nonzero;stroke:none"
           transform="matrix(1,0,0,-1,3.36016,21.7199)"><tspan
             id="tspan184"
             y="0"
             x="0">O</tspan></text>
</g><g
         transform="matrix(159.6,0,0,-134.4,2030.79,321.48)"
         id="g186"><rect
           id="rect188"
           style="fill:#ffffff;fill-opacity:1;fill-rule:nonzero"
           transform="matrix(1,0,0,-1,0,1)"
           height="1"
           width="1"
           y="0"
           x="0" /></g><g
         transform="scale(10,10)"
         id="g190"><text
           id="text192"
           style="font-variant:normal;font-weight:normal;font-size:10.90909958px;font-family:CMMI10;-inkscape-font-specification:CMMI10;writing-mode:lr-tb;fill:#000000;fill-opacity:1;fill-rule:nonzero;stroke:none"
           transform="matrix(1,0,0,-1,206.091,21.7199)"><tspan
             id="tspan194"
             y="0"
             x="0">X</tspan></text>
</g><g
         transform="matrix(147.6,0,0,-134.4,2.2799,1628.78)"
         id="g196"><rect
           id="rect198"
           style="fill:#ffffff;fill-opacity:1;fill-rule:nonzero"
           transform="matrix(1,0,0,-1,0,1)"
           height="1"
           width="1"
           y="0"
           x="0" /></g><g
         transform="scale(10,10)"
         id="g200"><text
           id="text202"
           style="font-variant:normal;font-weight:normal;font-size:10.90909958px;font-family:CMMI10;-inkscape-font-specification:CMMI10;writing-mode:lr-tb;fill:#000000;fill-opacity:1;fill-rule:nonzero;stroke:none"
           transform="matrix(1,0,0,-1,3.23984,152.45)"><tspan
             id="tspan204"
             y="0"
             x="0">Y</tspan></text>
</g><path
         id="path206"
         style="fill:none;stroke:#000000;stroke-width:11.95530033;stroke-linecap:butt;stroke-linejoin:miter;stroke-miterlimit:10;stroke-dasharray:none;stroke-opacity:1"
         d="m 93.4297,321.602 2036.5903,0" /><path
         id="path208"
         style="fill:none;stroke:#000000;stroke-width:11.95530033;stroke-linecap:butt;stroke-linejoin:miter;stroke-miterlimit:10;stroke-dasharray:none;stroke-opacity:1"
         d="m 150,120 0,1461.62" /><g
         transform="scale(10,10)"
         id="g210"><text
           id="text212"
           style="font-variant:normal;font-weight:normal;font-size:11.9552002px;font-family:CMCSC10;-inkscape-font-specification:CMCSC10;writing-mode:lr-tb;fill:#000000;fill-opacity:1;fill-rule:nonzero;stroke:none"
           transform="matrix(1,0,0,-1,91.4414,0.0890625)"><tspan
             id="tspan214"
             y="0"
             x="0 8.5141897 12.111574 19.790337 28.065199 34.667976 41.270756">Fig.42.</tspan></text>
</g></g></g></svg>