<?xml version="1.0" encoding="UTF-8" standalone="no"?>
<svg
   xmlns:dc="http://purl.org/dc/elements/1.1/"
   xmlns:cc="http://creativecommons.org/ns#"
   xmlns:rdf="http://www.w3.org/1999/02/22-rdf-syntax-ns#"
   xmlns:svg="http://www.w3.org/2000/svg"
   xmlns="http://www.w3.org/2000/svg"
   viewBox="0 0 222.5 211.25"
   height="211.25"
   width="222.5"
   xml:space="preserve"
   version="1.1"
   id="svg2"><metadata
     id="metadata8"><rdf:RDF><cc:Work
         rdf:about=""><dc:format>image/svg+xml</dc:format><dc:type
           rdf:resource="http://purl.org/dc/dcmitype/StillImage" /></cc:Work></rdf:RDF></metadata><defs
     id="defs6"><clipPath
       id="clipPath12"
       clipPathUnits="userSpaceOnUse"><path
         id="path14"
         d="m -2,-2 178,0 0,169 -178,0 0,-169 z" /></clipPath></defs><g
     clip-path="url(#clipPath12)"
     transform="matrix(1.25,0,0,-1.25,2.5,208.75)"
     id="g10"><g
       transform="scale(0.1,0.1)"
       id="g16"><path
         id="path18"
         style="fill:none;stroke:#000000;stroke-width:11.95530033;stroke-linecap:butt;stroke-linejoin:miter;stroke-miterlimit:10;stroke-dasharray:none;stroke-opacity:1"
         d="m 730.008,921.609 1008.012,0" /><path
         id="path20"
         style="fill:none;stroke:#000000;stroke-width:11.95530033;stroke-linecap:butt;stroke-linejoin:miter;stroke-miterlimit:10;stroke-dasharray:none;stroke-opacity:1"
         d="m 730.008,921.609 402.512,303.311 402.52,303.33" /><path
         id="path22"
         style="fill:none;stroke:#000000;stroke-width:11.95530033;stroke-linecap:butt;stroke-linejoin:miter;stroke-miterlimit:10;stroke-dasharray:none;stroke-opacity:1"
         d="m 730.008,921.609 356.382,356.381 356.39,356.39" /><g
         transform="scale(10,10)"
         id="g24"><text
           id="text26"
           style="font-variant:normal;font-weight:normal;font-size:10.90909958px;font-family:CMMI10;-inkscape-font-specification:CMMI10;writing-mode:lr-tb;fill:#000000;fill-opacity:1;fill-rule:nonzero;stroke:none"
           transform="matrix(1,0,0,-1,140.202,151.834)"><tspan
             id="tspan28"
             y="0"
             x="0 5.6347194">dθ</tspan></text>
</g><path
         id="path30"
         style="fill:none;stroke:#000000;stroke-width:11.95530033;stroke-linecap:butt;stroke-linejoin:miter;stroke-miterlimit:10;stroke-dasharray:none;stroke-opacity:1"
         d="m 1003.13,1013 -4.61,12.76 -5.2,12.54 -5.789,12.26 -6.359,11.99 -6.922,11.68" /><path
         id="path32"
         style="fill:#000000;fill-opacity:1;fill-rule:nonzero;stroke:none"
         d="m 995.199,1038.87 6.431,3.81 -27.38,31.55 14.523,-39.16 6.426,3.8" /><path
         id="path34"
         style="fill:none;stroke:#000000;stroke-width:11.95530033;stroke-linecap:butt;stroke-linejoin:miter;stroke-miterlimit:10;stroke-dasharray:none;stroke-opacity:1"
         d="m 995.199,1038.87 6.431,3.81 -27.38,31.55 14.523,-39.16 6.426,3.8 z" /><path
         id="path36"
         style="fill:none;stroke:#000000;stroke-width:11.95530033;stroke-linecap:butt;stroke-linejoin:miter;stroke-miterlimit:10;stroke-dasharray:none;stroke-opacity:1"
         d="m 1003.13,1013 4,-12.97 3.39,-13.151 2.77,-13.281 2.12,-13.403 1.51,-13.48" /><path
         id="path38"
         style="fill:#000000;fill-opacity:1;fill-rule:nonzero;stroke:none"
         d="m 1012.37,987.551 -7.42,-0.824 11.97,-40.012 2.88,41.672 -7.43,-0.836" /><path
         id="path40"
         style="fill:none;stroke:#000000;stroke-width:11.95530033;stroke-linecap:butt;stroke-linejoin:miter;stroke-miterlimit:10;stroke-dasharray:none;stroke-opacity:1"
         d="m 1012.37,987.551 -7.42,-0.824 11.97,-40.012 2.88,41.672 -7.43,-0.836 z" /><g
         transform="scale(10,10)"
         id="g42"><text
           id="text44"
           style="font-variant:normal;font-weight:normal;font-size:10.90909958px;font-family:CMMI10;-inkscape-font-specification:CMMI10;writing-mode:lr-tb;fill:#000000;fill-opacity:1;fill-rule:nonzero;stroke:none"
           transform="matrix(1,0,0,-1,102.305,101.3)"><tspan
             id="tspan46"
             y="0"
             x="0">θ</tspan><tspan
             id="tspan48"
             y="18.571501"
             x="-39.937099">O</tspan></text>
</g><path
         id="path50"
         style="fill:none;stroke:#000000;stroke-width:7.97009993;stroke-linecap:butt;stroke-linejoin:miter;stroke-miterlimit:10;stroke-dasharray:none;stroke-opacity:1"
         d="m 1239.13,921.609 16.48,0" /><path
         id="path52"
         style="fill:none;stroke:#000000;stroke-width:7.97009993;stroke-linecap:butt;stroke-linejoin:miter;stroke-miterlimit:10;stroke-dasharray:none;stroke-opacity:1"
         d="m 1288.56,921.609 16.48,0" /><path
         id="path54"
         style="fill:none;stroke:#000000;stroke-width:7.97009993;stroke-linecap:butt;stroke-linejoin:miter;stroke-miterlimit:10;stroke-dasharray:none;stroke-opacity:1"
         d="m 1305.04,921.609 0,27.082" /><path
         id="path56"
         style="fill:none;stroke:#000000;stroke-width:7.97009993;stroke-linecap:butt;stroke-linejoin:miter;stroke-miterlimit:10;stroke-dasharray:none;stroke-opacity:1"
         d="m 1305.04,1002.86 0,27.08" /><path
         id="path58"
         style="fill:none;stroke:#000000;stroke-width:7.97009993;stroke-linecap:butt;stroke-linejoin:miter;stroke-miterlimit:10;stroke-dasharray:none;stroke-opacity:1"
         d="m 1305.04,1029.94 0,27.08" /><path
         id="path60"
         style="fill:none;stroke:#000000;stroke-width:7.97009993;stroke-linecap:butt;stroke-linejoin:miter;stroke-miterlimit:10;stroke-dasharray:none;stroke-opacity:1"
         d="m 1305.04,1111.18 0,27.08" /><path
         id="path62"
         style="fill:none;stroke:#000000;stroke-width:7.97009993;stroke-linecap:butt;stroke-linejoin:miter;stroke-miterlimit:10;stroke-dasharray:none;stroke-opacity:1"
         d="m 1305.04,1138.26 0,27.08" /><path
         id="path64"
         style="fill:none;stroke:#000000;stroke-width:7.97009993;stroke-linecap:butt;stroke-linejoin:miter;stroke-miterlimit:10;stroke-dasharray:none;stroke-opacity:1"
         d="m 1305.04,1219.52 0,27.07" /><path
         id="path66"
         style="fill:none;stroke:#000000;stroke-width:7.97009993;stroke-linecap:butt;stroke-linejoin:miter;stroke-miterlimit:10;stroke-dasharray:none;stroke-opacity:1"
         d="m 1305.04,1246.59 0,27.08" /><path
         id="path68"
         style="fill:none;stroke:#000000;stroke-width:7.97009993;stroke-linecap:butt;stroke-linejoin:miter;stroke-miterlimit:10;stroke-dasharray:none;stroke-opacity:1"
         d="m 1305.04,1327.83 0,27.1" /><path
         id="path70"
         style="fill:none;stroke:#000000;stroke-width:7.97009993;stroke-linecap:butt;stroke-linejoin:miter;stroke-miterlimit:10;stroke-dasharray:none;stroke-opacity:1"
         d="m 1305.04,1354.93 -16.48,0" /><path
         id="path72"
         style="fill:none;stroke:#000000;stroke-width:7.97009993;stroke-linecap:butt;stroke-linejoin:miter;stroke-miterlimit:10;stroke-dasharray:none;stroke-opacity:1"
         d="m 1255.61,1354.93 -16.48,0" /><path
         id="path74"
         style="fill:none;stroke:#000000;stroke-width:7.97009993;stroke-linecap:butt;stroke-linejoin:miter;stroke-miterlimit:10;stroke-dasharray:none;stroke-opacity:1"
         d="m 1239.13,1354.93 0,-27.1" /><path
         id="path76"
         style="fill:none;stroke:#000000;stroke-width:7.97009993;stroke-linecap:butt;stroke-linejoin:miter;stroke-miterlimit:10;stroke-dasharray:none;stroke-opacity:1"
         d="m 1239.13,1273.67 0,-27.08" /><path
         id="path78"
         style="fill:none;stroke:#000000;stroke-width:7.97009993;stroke-linecap:butt;stroke-linejoin:miter;stroke-miterlimit:10;stroke-dasharray:none;stroke-opacity:1"
         d="m 1239.13,1246.59 0,-27.07" /><path
         id="path80"
         style="fill:none;stroke:#000000;stroke-width:7.97009993;stroke-linecap:butt;stroke-linejoin:miter;stroke-miterlimit:10;stroke-dasharray:none;stroke-opacity:1"
         d="m 1239.13,1165.34 0,-27.08" /><path
         id="path82"
         style="fill:none;stroke:#000000;stroke-width:7.97009993;stroke-linecap:butt;stroke-linejoin:miter;stroke-miterlimit:10;stroke-dasharray:none;stroke-opacity:1"
         d="m 1239.13,1138.26 0,-27.08" /><path
         id="path84"
         style="fill:none;stroke:#000000;stroke-width:7.97009993;stroke-linecap:butt;stroke-linejoin:miter;stroke-miterlimit:10;stroke-dasharray:none;stroke-opacity:1"
         d="m 1239.13,1057.02 0,-27.08" /><path
         id="path86"
         style="fill:none;stroke:#000000;stroke-width:7.97009993;stroke-linecap:butt;stroke-linejoin:miter;stroke-miterlimit:10;stroke-dasharray:none;stroke-opacity:1"
         d="m 1239.13,1029.94 0,-27.08" /><path
         id="path88"
         style="fill:none;stroke:#000000;stroke-width:7.97009993;stroke-linecap:butt;stroke-linejoin:miter;stroke-miterlimit:10;stroke-dasharray:none;stroke-opacity:1"
         d="m 1239.13,948.691 0,-27.082" /><g
         transform="matrix(117.6,0,0,-128.4,1405.52,1202.94)"
         id="g90"><rect
           id="rect92"
           style="fill:#ffffff;fill-opacity:1;fill-rule:nonzero"
           transform="matrix(1,0,0,-1,0,1)"
           height="1"
           width="1"
           y="0"
           x="0" /></g><g
         transform="scale(10,10)"
         id="g94"><text
           id="text96"
           style="font-variant:normal;font-weight:normal;font-size:10.90909958px;font-family:CMMI10;-inkscape-font-specification:CMMI10;writing-mode:lr-tb;fill:#000000;fill-opacity:1;fill-rule:nonzero;stroke:none"
           transform="matrix(1,0,0,-1,143.564,112.506)"><tspan
             id="tspan98"
             y="0"
             x="0">y</tspan></text>
</g><path
         id="path100"
         style="fill:#000000;fill-opacity:1;fill-rule:nonzero;stroke:none"
         d="m 1324.96,931.574 0.98,0.516 0.93,0.582 0.9,0.617 0.85,0.656 0.82,0.727 0.77,0.758 0.75,0.8 0.7,0.848 0.68,0.902 0.63,0.934 0.61,0.977 0.56,1.023 0.54,1.055 0.51,1.109 0.47,1.129 0.45,1.188 0.42,1.207 0.37,1.253 0.37,1.297 0.32,1.328 0.31,1.364 0.28,1.394 0.26,1.43 0.23,1.461 0.21,1.492 0.17,1.527 0.17,1.563 0.14,1.582 0.14,1.613 0.09,1.649 0.09,1.672 0.07,1.691 0.04,1.723 0.03,1.746 0.03,1.781 0,1.801 -0.01,1.824 -0.04,1.848 -0.03,1.855 -0.04,1.891 -0.07,1.91 -0.07,1.922 -0.09,1.945 -0.08,1.969 -0.1,1.988 -0.1,2 -0.12,2.008 -0.11,2.035 -0.12,2.046 -0.14,2.05 -0.11,2.08 -0.15,2.09 -0.13,2.09 -0.13,2.1 -0.14,2.12 -0.14,2.13 -0.13,2.13 -0.13,2.15 -0.13,2.15 -0.12,2.15 -0.12,2.17 -0.12,2.17 -0.11,2.18 -0.11,2.17 -0.1,2.17 -0.09,2.19 -0.08,2.18 -0.07,2.19 -0.07,2.17 -0.04,2.19 -0.05,2.18 -0.02,2.18 -0.02,2.18 0,2.17 0.02,2.17 0.03,2.16 0.05,2.15 0.06,2.16 0.09,2.14 0.1,2.13 0.12,2.13 0.13,2.12 0.18,2.1 0.18,2.1 0.2,2.08 0.22,2.07 0.25,2.06 0.29,2.04 0.3,2.03 0.33,2.01 0.35,2 0.39,1.99 0.41,1.96 0.44,1.94 0.47,1.93 0.51,1.91 0.53,1.88 0.57,1.86 0.59,1.85 0.64,1.82 0.67,1.8 0.7,1.77 0.74,1.75 0.78,1.72 0.81,1.71 0.86,1.66 0.87,1.64 0.95,1.62 0.97,1.58 1.02,1.56 1.04,1.51 1.11,1.5 1.13,1.46 1.19,1.42 1.23,1.41 1.29,1.35 1.31,1.31 1.38,1.3 1.43,1.25 1.46,1.21 -1.46,1.22 -1.43,1.25 -1.38,1.29 -1.31,1.32 -1.29,1.36 -1.23,1.4 -1.19,1.42 -1.13,1.46 -1.11,1.49 -1.04,1.53 -1.02,1.55 -0.97,1.59 -0.95,1.61 -0.87,1.64 -0.86,1.67 -0.81,1.69 -0.78,1.74 -0.74,1.73 -0.7,1.78 -0.67,1.79 -0.64,1.83 -0.59,1.84 -0.57,1.86 -0.53,1.89 -0.51,1.91 -0.47,1.92 -0.44,1.95 -0.41,1.96 -0.39,2 -0.35,1.98 -0.33,2.02 -0.3,2.03 -0.29,2.05 -0.25,2.04 -0.22,2.08 -0.2,2.08 -0.18,2.09 -0.18,2.11 -0.13,2.12 -0.12,2.13 -0.1,2.14 -0.09,2.13 -0.06,2.15 -0.05,2.17 -0.03,2.16 -0.02,2.16 0,2.18 0.02,2.18 0.02,2.17 0.05,2.18 0.04,2.18 0.07,2.19 0.07,2.19 0.08,2.17 0.09,2.18 0.1,2.18 0.11,2.18 0.11,2.17 0.12,2.17 0.12,2.16 0.12,2.16 0.13,2.15 0.13,2.14 0.13,2.14 0.14,2.12 0.14,2.12 0.13,2.11 0.13,2.1 0.15,2.08 0.11,2.08 0.14,2.05 0.12,2.04 0.11,2.03 0.12,2.03 0.1,1.99 0.1,1.98 0.08,1.97 0.09,1.94 0.07,1.94 0.07,1.9 0.04,1.89 0.03,1.86 0.04,1.85 0.01,1.83 0,1.8 -0.03,1.77 -0.03,1.74 -0.04,1.74 -0.07,1.69 -0.09,1.67 -0.09,1.65 -0.14,1.6 -0.14,1.59 -0.17,1.57 -0.17,1.52 -0.21,1.48 -0.23,1.47 -0.26,1.44 -0.28,1.39 -0.31,1.36 -0.32,1.32 -0.37,1.3 -0.37,1.25 -0.42,1.22 -0.45,1.18 -0.47,1.14 -0.51,1.1 -0.54,1.06 -0.56,1.02 -0.61,0.97 -0.63,0.95 -0.68,0.9 -0.7,0.84 -0.75,0.81 -0.77,0.75 -0.82,0.72 -0.85,0.67 -0.9,0.61 -0.93,0.57 -0.98,0.53 1.26,-0.67 1.23,-0.71 1.17,-0.76 1.12,-0.8 1.08,-0.84 1.02,-0.89 0.98,-0.92 0.93,-0.97 0.89,-1 0.84,-1.04 0.81,-1.08 0.75,-1.12 0.73,-1.14 0.68,-1.2 0.64,-1.22 0.6,-1.26 0.56,-1.3 0.54,-1.32 0.48,-1.35 0.46,-1.41 0.43,-1.41 0.39,-1.45 0.36,-1.48 0.32,-1.52 0.3,-1.54 0.27,-1.56 0.24,-1.6 0.21,-1.62 0.18,-1.65 0.16,-1.67 0.13,-1.7 0.11,-1.71 0.08,-1.76 0.07,-1.76 0.04,-1.79 0.01,-1.81 0,-1.84 -0.02,-1.84 -0.03,-1.87 -0.06,-1.9 -0.06,-1.9 -0.1,-1.92 -0.1,-1.95 -0.11,-1.95 -0.13,-1.97 -0.15,-1.99 -0.14,-2 -0.17,-2.01 -0.17,-2.03 -0.19,-2.05 -0.18,-2.04 -0.19,-2.06 -0.21,-2.07 -0.21,-2.08 -0.21,-2.08 -0.21,-2.1 -0.21,-2.1 -0.22,-2.11 -0.21,-2.12 -0.23,-2.12 -0.21,-2.12 -0.22,-2.13 -0.21,-2.13 -0.21,-2.15 -0.21,-2.13 -0.2,-2.13 -0.18,-2.14 -0.19,-2.14 -0.18,-2.14 -0.17,-2.14 -0.16,-2.13 -0.14,-2.13 -0.14,-2.13 -0.13,-2.12 -0.1,-2.12 -0.11,-2.12 -0.08,-2.1 -0.06,-2.1 -0.05,-2.1 -0.03,-2.07 -0.01,-2.09 0,-2.07 0.03,-2.05 0.05,-2.04 0.07,-2.04 0.09,-2.02 0.12,-2.01 0.14,-2 0.17,-1.98 0.18,-1.97 0.24,-1.95 0.24,-1.93 0.28,-1.92 0.31,-1.91 0.34,-1.88 0.36,-1.86 0.41,-1.85 0.44,-1.82 0.46,-1.8 0.52,-1.78 0.54,-1.77 0.57,-1.74 0.62,-1.71 0.65,-1.69 0.69,-1.66 0.74,-1.64 0.78,-1.61 0.82,-1.6 0.86,-1.56 0.9,-1.52 0.96,-1.51 1,-1.47 1.04,-1.45 1.09,-1.41 1.13,-1.37 1.18,-1.35 1.25,-1.32 1.28,-1.28 1.34,-1.25 1.4,-1.22 -1.4,-1.21 -1.34,-1.25 -1.28,-1.27 -1.25,-1.32 -1.18,-1.35 -1.13,-1.39 -1.09,-1.4 -1.04,-1.44 -1,-1.49 -0.96,-1.5 -0.9,-1.52 -0.86,-1.57 -0.82,-1.58 -0.78,-1.61 -0.74,-1.64 -0.69,-1.66 -0.65,-1.69 -0.62,-1.72 -0.57,-1.74 -0.54,-1.76 -0.52,-1.78 -0.46,-1.8 -0.44,-1.84 -0.41,-1.84 -0.36,-1.86 -0.34,-1.88 -0.31,-1.9 -0.28,-1.92 -0.24,-1.95 -0.24,-1.94 -0.18,-1.97 -0.17,-1.97 -0.14,-2.02 -0.12,-2 -0.09,-2.02 -0.07,-2.03 -0.05,-2.04 -0.03,-2.07 0,-2.06 0.01,-2.08 0.03,-2.09 0.05,-2.1 0.06,-2.08 0.08,-2.11 0.11,-2.11 0.1,-2.14 0.13,-2.11 0.14,-2.12 0.14,-2.14 0.16,-2.14 0.17,-2.13 0.18,-2.14 0.19,-2.13 0.18,-2.15 0.2,-2.13 0.21,-2.14 0.21,-2.13 0.21,-2.13 0.22,-2.13 0.21,-2.12 0.23,-2.14 0.21,-2.11 0.22,-2.1 0.21,-2.11 0.21,-2.09 0.21,-2.1 0.21,-2.06 0.21,-2.08 0.19,-2.06 0.18,-2.05 0.19,-2.04 0.17,-2.02 0.17,-2.016 0.14,-2.011 0.15,-1.977 0.13,-1.965 0.11,-1.969 0.1,-1.945 0.1,-1.922 0.06,-1.898 0.06,-1.891 0.03,-1.867 0.02,-1.859 0,-1.825 -0.01,-1.812 -0.04,-1.789 -0.07,-1.77 -0.08,-1.746 -0.11,-1.715 -0.13,-1.703 -0.16,-1.668 -0.18,-1.648 -0.21,-1.625 -0.24,-1.594 -0.27,-1.57 -0.3,-1.539 -0.32,-1.516 -0.36,-1.484 -0.39,-1.449 -0.43,-1.418 -0.46,-1.395 -0.48,-1.363 -0.54,-1.321 -0.56,-1.292 -0.6,-1.254 -0.64,-1.231 -0.68,-1.187 -0.73,-1.153 -0.75,-1.121 -0.81,-1.078 -0.84,-1.043 -0.89,-1 -0.93,-0.953 -0.98,-0.926 -1.02,-0.89 -1.08,-0.844 -1.12,-0.793 -1.17,-0.758 -1.23,-0.715 -1.26,-0.668" /><path
         id="path102"
         style="fill:none;stroke:#000000;stroke-width:3.9849999;stroke-linecap:butt;stroke-linejoin:miter;stroke-miterlimit:10;stroke-dasharray:none;stroke-opacity:1"
         d="m 1324.96,931.574 0.98,0.516 0.93,0.582 0.9,0.617 0.85,0.656 0.82,0.727 0.77,0.758 0.75,0.8 0.7,0.848 0.68,0.902 0.63,0.934 0.61,0.977 0.56,1.023 0.54,1.055 0.51,1.109 0.47,1.129 0.45,1.188 0.42,1.207 0.37,1.253 0.37,1.297 0.32,1.328 0.31,1.364 0.28,1.394 0.26,1.43 0.23,1.461 0.21,1.492 0.17,1.527 0.17,1.563 0.14,1.582 0.14,1.613 0.09,1.649 0.09,1.672 0.07,1.691 0.04,1.723 0.03,1.746 0.03,1.781 0,1.801 -0.01,1.824 -0.04,1.848 -0.03,1.855 -0.04,1.891 -0.07,1.91 -0.07,1.922 -0.09,1.945 -0.08,1.969 -0.1,1.988 -0.1,2 -0.12,2.008 -0.11,2.035 -0.12,2.046 -0.14,2.05 -0.11,2.08 -0.15,2.09 -0.13,2.09 -0.13,2.1 -0.14,2.12 -0.14,2.13 -0.13,2.13 -0.13,2.15 -0.13,2.15 -0.12,2.15 -0.12,2.17 -0.12,2.17 -0.11,2.18 -0.11,2.17 -0.1,2.17 -0.09,2.19 -0.08,2.18 -0.07,2.19 -0.07,2.17 -0.04,2.19 -0.05,2.18 -0.02,2.18 -0.02,2.18 0,2.17 0.02,2.17 0.03,2.16 0.05,2.15 0.06,2.16 0.09,2.14 0.1,2.13 0.12,2.13 0.13,2.12 0.18,2.1 0.18,2.1 0.2,2.08 0.22,2.07 0.25,2.06 0.29,2.04 0.3,2.03 0.33,2.01 0.35,2 0.39,1.99 0.41,1.96 0.44,1.94 0.47,1.93 0.51,1.91 0.53,1.88 0.57,1.86 0.59,1.85 0.64,1.82 0.67,1.8 0.7,1.77 0.74,1.75 0.78,1.72 0.81,1.71 0.86,1.66 0.87,1.64 0.95,1.62 0.97,1.58 1.02,1.56 1.04,1.51 1.11,1.5 1.13,1.46 1.19,1.42 1.23,1.41 1.29,1.35 1.31,1.31 1.38,1.3 1.43,1.25 1.46,1.21 -1.46,1.22 -1.43,1.25 -1.38,1.29 -1.31,1.32 -1.29,1.36 -1.23,1.4 -1.19,1.42 -1.13,1.46 -1.11,1.49 -1.04,1.53 -1.02,1.55 -0.97,1.59 -0.95,1.61 -0.87,1.64 -0.86,1.67 -0.81,1.69 -0.78,1.74 -0.74,1.73 -0.7,1.78 -0.67,1.79 -0.64,1.83 -0.59,1.84 -0.57,1.86 -0.53,1.89 -0.51,1.91 -0.47,1.92 -0.44,1.95 -0.41,1.96 -0.39,2 -0.35,1.98 -0.33,2.02 -0.3,2.03 -0.29,2.05 -0.25,2.04 -0.22,2.08 -0.2,2.08 -0.18,2.09 -0.18,2.11 -0.13,2.12 -0.12,2.13 -0.1,2.14 -0.09,2.13 -0.06,2.15 -0.05,2.17 -0.03,2.16 -0.02,2.16 0,2.18 0.02,2.18 0.02,2.17 0.05,2.18 0.04,2.18 0.07,2.19 0.07,2.19 0.08,2.17 0.09,2.18 0.1,2.18 0.11,2.18 0.11,2.17 0.12,2.17 0.12,2.16 0.12,2.16 0.13,2.15 0.13,2.14 0.13,2.14 0.14,2.12 0.14,2.12 0.13,2.11 0.13,2.1 0.15,2.08 0.11,2.08 0.14,2.05 0.12,2.04 0.11,2.03 0.12,2.03 0.1,1.99 0.1,1.98 0.08,1.97 0.09,1.94 0.07,1.94 0.07,1.9 0.04,1.89 0.03,1.86 0.04,1.85 0.01,1.83 0,1.8 -0.03,1.77 -0.03,1.74 -0.04,1.74 -0.07,1.69 -0.09,1.67 -0.09,1.65 -0.14,1.6 -0.14,1.59 -0.17,1.57 -0.17,1.52 -0.21,1.48 -0.23,1.47 -0.26,1.44 -0.28,1.39 -0.31,1.36 -0.32,1.32 -0.37,1.3 -0.37,1.25 -0.42,1.22 -0.45,1.18 -0.47,1.14 -0.51,1.1 -0.54,1.06 -0.56,1.02 -0.61,0.97 -0.63,0.95 -0.68,0.9 -0.7,0.84 -0.75,0.81 -0.77,0.75 -0.82,0.72 -0.85,0.67 -0.9,0.61 -0.93,0.57 -0.98,0.53 1.26,-0.67 1.23,-0.71 1.17,-0.76 1.12,-0.8 1.08,-0.84 1.02,-0.89 0.98,-0.92 0.93,-0.97 0.89,-1 0.84,-1.04 0.81,-1.08 0.75,-1.12 0.73,-1.14 0.68,-1.2 0.64,-1.22 0.6,-1.26 0.56,-1.3 0.54,-1.32 0.48,-1.35 0.46,-1.41 0.43,-1.41 0.39,-1.45 0.36,-1.48 0.32,-1.52 0.3,-1.54 0.27,-1.56 0.24,-1.6 0.21,-1.62 0.18,-1.65 0.16,-1.67 0.13,-1.7 0.11,-1.71 0.08,-1.76 0.07,-1.76 0.04,-1.79 0.01,-1.81 0,-1.84 -0.02,-1.84 -0.03,-1.87 -0.06,-1.9 -0.06,-1.9 -0.1,-1.92 -0.1,-1.95 -0.11,-1.95 -0.13,-1.97 -0.15,-1.99 -0.14,-2 -0.17,-2.01 -0.17,-2.03 -0.19,-2.05 -0.18,-2.04 -0.19,-2.06 -0.21,-2.07 -0.21,-2.08 -0.21,-2.08 -0.21,-2.1 -0.21,-2.1 -0.22,-2.11 -0.21,-2.12 -0.23,-2.12 -0.21,-2.12 -0.22,-2.13 -0.21,-2.13 -0.21,-2.15 -0.21,-2.13 -0.2,-2.13 -0.18,-2.14 -0.19,-2.14 -0.18,-2.14 -0.17,-2.14 -0.16,-2.13 -0.14,-2.13 -0.14,-2.13 -0.13,-2.12 -0.1,-2.12 -0.11,-2.12 -0.08,-2.1 -0.06,-2.1 -0.05,-2.1 -0.03,-2.07 -0.01,-2.09 0,-2.07 0.03,-2.05 0.05,-2.04 0.07,-2.04 0.09,-2.02 0.12,-2.01 0.14,-2 0.17,-1.98 0.18,-1.97 0.24,-1.95 0.24,-1.93 0.28,-1.92 0.31,-1.91 0.34,-1.88 0.36,-1.86 0.41,-1.85 0.44,-1.82 0.46,-1.8 0.52,-1.78 0.54,-1.77 0.57,-1.74 0.62,-1.71 0.65,-1.69 0.69,-1.66 0.74,-1.64 0.78,-1.61 0.82,-1.6 0.86,-1.56 0.9,-1.52 0.96,-1.51 1,-1.47 1.04,-1.45 1.09,-1.41 1.13,-1.37 1.18,-1.35 1.25,-1.32 1.28,-1.28 1.34,-1.25 1.4,-1.22 -1.4,-1.21 -1.34,-1.25 -1.28,-1.27 -1.25,-1.32 -1.18,-1.35 -1.13,-1.39 -1.09,-1.4 -1.04,-1.44 -1,-1.49 -0.96,-1.5 -0.9,-1.52 -0.86,-1.57 -0.82,-1.58 -0.78,-1.61 -0.74,-1.64 -0.69,-1.66 -0.65,-1.69 -0.62,-1.72 -0.57,-1.74 -0.54,-1.76 -0.52,-1.78 -0.46,-1.8 -0.44,-1.84 -0.41,-1.84 -0.36,-1.86 -0.34,-1.88 -0.31,-1.9 -0.28,-1.92 -0.24,-1.95 -0.24,-1.94 -0.18,-1.97 -0.17,-1.97 -0.14,-2.02 -0.12,-2 -0.09,-2.02 -0.07,-2.03 -0.05,-2.04 -0.03,-2.07 0,-2.06 0.01,-2.08 0.03,-2.09 0.05,-2.1 0.06,-2.08 0.08,-2.11 0.11,-2.11 0.1,-2.14 0.13,-2.11 0.14,-2.12 0.14,-2.14 0.16,-2.14 0.17,-2.13 0.18,-2.14 0.19,-2.13 0.18,-2.15 0.2,-2.13 0.21,-2.14 0.21,-2.13 0.21,-2.13 0.22,-2.13 0.21,-2.12 0.23,-2.14 0.21,-2.11 0.22,-2.1 0.21,-2.11 0.21,-2.09 0.21,-2.1 0.21,-2.06 0.21,-2.08 0.19,-2.06 0.18,-2.05 0.19,-2.04 0.17,-2.02 0.17,-2.016 0.14,-2.011 0.15,-1.977 0.13,-1.965 0.11,-1.969 0.1,-1.945 0.1,-1.922 0.06,-1.898 0.06,-1.891 0.03,-1.867 0.02,-1.859 0,-1.825 -0.01,-1.812 -0.04,-1.789 -0.07,-1.77 -0.08,-1.746 -0.11,-1.715 -0.13,-1.703 -0.16,-1.668 -0.18,-1.648 -0.21,-1.625 -0.24,-1.594 -0.27,-1.57 -0.3,-1.539 -0.32,-1.516 -0.36,-1.484 -0.39,-1.449 -0.43,-1.418 -0.46,-1.395 -0.48,-1.363 -0.54,-1.321 -0.56,-1.292 -0.6,-1.254 -0.64,-1.231 -0.68,-1.187 -0.73,-1.153 -0.75,-1.121 -0.81,-1.078 -0.84,-1.043 -0.89,-1 -0.93,-0.953 -0.98,-0.926 -1.02,-0.89 -1.08,-0.844 -1.12,-0.793 -1.17,-0.758 -1.23,-0.715 -1.26,-0.668 z" /><path
         id="path104"
         style="fill:none;stroke:#000000;stroke-width:11.95530033;stroke-linecap:butt;stroke-linejoin:miter;stroke-miterlimit:10;stroke-dasharray:none;stroke-opacity:1"
         d="m 1450.02,921.609 -0.99,37.684 -2.96,37.574 -4.92,37.373 -6.86,37.07 -8.81,36.65 -10.69,36.15 -12.59,35.53 -14.43,34.82 -16.23,34.03 -17.98,33.12 -19.7,32.15 -21.35,31.06 -22.95,29.9 -24.49,28.67 -25.94,27.34 -27.34,25.94 -28.67,24.49 -29.9,22.95 -31.06,21.35 -32.14,19.7 -33.13,17.98 -34.03,16.23 -34.825,14.42 -35.527,12.6 -36.145,10.7 -36.652,8.8 -37.07,6.86 -37.375,4.93 -37.575,2.95 -37.683,0.99 -37.684,-0.99 -37.574,-2.95 -37.375,-4.93 -37.066,-6.86 -36.653,-8.8 -36.144,-10.7 -35.532,-12.6 -34.828,-14.42 -34.023,-16.23 -33.125,-17.98 -32.137,-19.7 -31.066,-21.35 -29.906,-22.95 -28.665,-24.49 -27.343,-25.94 -25.953,-27.34 -24.477,-28.67 -22.949,-29.9 -21.348,-31.06 -19.699,-32.15 -17.9844,-33.12 -16.2266,-34.03 -14.4258,-34.82 -12.5781,-35.53 -10.7149,-36.15 -8.8007,-36.65 -6.8633,-37.07 -4.9219,-37.373 -2.957,-37.574 L 10,921.609 l 0.9883,-37.683 2.957,-37.574 4.9219,-37.375 6.8633,-37.071 8.8007,-36.648 10.7149,-36.149 12.5781,-35.527 14.4258,-34.828 16.2266,-34.024 17.9844,-33.125 19.699,-32.136 21.348,-31.071 22.949,-29.902 24.477,-28.664 25.953,-27.348 27.343,-25.949 28.665,-24.476 29.906,-22.954 31.066,-21.343 32.137,-19.7 33.125,-17.984 34.023,-16.23 34.828,-14.422 35.532,-12.582 36.144,-10.711 36.653,-8.801 37.066,-6.867 37.375,-4.922 37.574,-2.953 37.684,-0.988 37.683,0.988 37.575,2.953 37.375,4.922 37.07,6.867 36.652,8.801 36.145,10.711 35.527,12.582 34.825,14.422 34.03,16.23 33.13,17.984 32.14,19.7 31.06,21.343 29.9,22.954 28.67,24.476 27.34,25.949 25.94,27.348 24.49,28.664 22.95,29.902 21.35,31.071 19.7,32.136 17.98,33.125 16.23,34.024 14.43,34.828 12.59,35.527 10.69,36.149 8.81,36.648 6.86,37.071 4.92,37.375 2.96,37.574 0.99,37.683 z" /><g
         transform="scale(10,10)"
         id="g106"><text
           id="text108"
           style="font-variant:normal;font-weight:normal;font-size:11.9552002px;font-family:CMCSC10;-inkscape-font-specification:CMCSC10;writing-mode:lr-tb;fill:#000000;fill-opacity:1;fill-rule:nonzero;stroke:none"
           transform="matrix(1,0,0,-1,50.441,0.0445313)"><tspan
             id="tspan110"
             y="0"
             x="0 8.5141897 12.111581 19.790342 28.065218 34.667988 41.270763">Fig.43.</tspan></text>
</g></g></g></svg>