<?xml version="1.0" encoding="UTF-8" standalone="no"?>
<svg
   xmlns:dc="http://purl.org/dc/elements/1.1/"
   xmlns:cc="http://creativecommons.org/ns#"
   xmlns:rdf="http://www.w3.org/1999/02/22-rdf-syntax-ns#"
   xmlns:svg="http://www.w3.org/2000/svg"
   xmlns="http://www.w3.org/2000/svg"
   viewBox="0 0 418.75 226.25"
   height="226.25"
   width="418.75"
   xml:space="preserve"
   version="1.1"
   id="svg2"><metadata
     id="metadata8"><rdf:RDF><cc:Work
         rdf:about=""><dc:format>image/svg+xml</dc:format><dc:type
           rdf:resource="http://purl.org/dc/dcmitype/StillImage" /></cc:Work></rdf:RDF></metadata><defs
     id="defs6"><clipPath
       id="clipPath12"
       clipPathUnits="userSpaceOnUse"><path
         id="path14"
         d="m -2,-2 335,0 0,181 -335,0 0,-181 z" /></clipPath></defs><g
     clip-path="url(#clipPath12)"
     transform="matrix(1.25,0,0,-1.25,2.5,223.75)"
     id="g10"><g
       transform="scale(0.1,0.1)"
       id="g16"><path
         id="path18"
         style="fill:none;stroke:#000000;stroke-width:11.95530033;stroke-linecap:butt;stroke-linejoin:miter;stroke-miterlimit:10;stroke-dasharray:none;stroke-opacity:1"
         d="m 260,267.059 0,1309.101" /><g
         transform="matrix(60,0,0,-6,229.88,270.537)"
         id="g20"><rect
           id="rect22"
           style="fill:#000000;fill-opacity:1;fill-rule:nonzero"
           transform="matrix(1,0,0,-1,0,1)"
           height="1"
           width="1"
           y="0"
           x="0" /></g><g
         transform="matrix(60,0,0,-6,229.88,335.995)"
         id="g24"><rect
           id="rect26"
           style="fill:#000000;fill-opacity:1;fill-rule:nonzero"
           transform="matrix(1,0,0,-1,0,1)"
           height="1"
           width="1"
           y="0"
           x="0" /></g><g
         transform="matrix(60,0,0,-6,229.88,401.441)"
         id="g28"><rect
           id="rect30"
           style="fill:#000000;fill-opacity:1;fill-rule:nonzero"
           transform="matrix(1,0,0,-1,0,1)"
           height="1"
           width="1"
           y="0"
           x="0" /></g><g
         transform="matrix(60,0,0,-6,229.88,466.898)"
         id="g32"><rect
           id="rect34"
           style="fill:#000000;fill-opacity:1;fill-rule:nonzero"
           transform="matrix(1,0,0,-1,0,1)"
           height="1"
           width="1"
           y="0"
           x="0" /></g><g
         transform="matrix(60,0,0,-6,229.88,532.356)"
         id="g36"><rect
           id="rect38"
           style="fill:#000000;fill-opacity:1;fill-rule:nonzero"
           transform="matrix(1,0,0,-1,0,1)"
           height="1"
           width="1"
           y="0"
           x="0" /></g><g
         transform="matrix(60,0,0,-6,229.88,597.813)"
         id="g40"><rect
           id="rect42"
           style="fill:#000000;fill-opacity:1;fill-rule:nonzero"
           transform="matrix(1,0,0,-1,0,1)"
           height="1"
           width="1"
           y="0"
           x="0" /></g><g
         transform="matrix(60,0,0,-6,229.88,663.271)"
         id="g44"><rect
           id="rect46"
           style="fill:#000000;fill-opacity:1;fill-rule:nonzero"
           transform="matrix(1,0,0,-1,0,1)"
           height="1"
           width="1"
           y="0"
           x="0" /></g><g
         transform="matrix(60,0,0,-6,229.88,728.728)"
         id="g48"><rect
           id="rect50"
           style="fill:#000000;fill-opacity:1;fill-rule:nonzero"
           transform="matrix(1,0,0,-1,0,1)"
           height="1"
           width="1"
           y="0"
           x="0" /></g><g
         transform="matrix(60,0,0,-6,229.88,794.175)"
         id="g52"><rect
           id="rect54"
           style="fill:#000000;fill-opacity:1;fill-rule:nonzero"
           transform="matrix(1,0,0,-1,0,1)"
           height="1"
           width="1"
           y="0"
           x="0" /></g><g
         transform="matrix(60,0,0,-6,229.88,859.632)"
         id="g56"><rect
           id="rect58"
           style="fill:#000000;fill-opacity:1;fill-rule:nonzero"
           transform="matrix(1,0,0,-1,0,1)"
           height="1"
           width="1"
           y="0"
           x="0" /></g><g
         transform="matrix(60,0,0,-6,229.88,925.089)"
         id="g60"><rect
           id="rect62"
           style="fill:#000000;fill-opacity:1;fill-rule:nonzero"
           transform="matrix(1,0,0,-1,0,1)"
           height="1"
           width="1"
           y="0"
           x="0" /></g><g
         transform="matrix(60,0,0,-6,229.88,990.547)"
         id="g64"><rect
           id="rect66"
           style="fill:#000000;fill-opacity:1;fill-rule:nonzero"
           transform="matrix(1,0,0,-1,0,1)"
           height="1"
           width="1"
           y="0"
           x="0" /></g><g
         transform="matrix(60,0,0,-6,229.88,1056)"
         id="g68"><rect
           id="rect70"
           style="fill:#000000;fill-opacity:1;fill-rule:nonzero"
           transform="matrix(1,0,0,-1,0,1)"
           height="1"
           width="1"
           y="0"
           x="0" /></g><g
         transform="matrix(60,0,0,-6,229.88,1121.46)"
         id="g72"><rect
           id="rect74"
           style="fill:#000000;fill-opacity:1;fill-rule:nonzero"
           transform="matrix(1,0,0,-1,0,1)"
           height="1"
           width="1"
           y="0"
           x="0" /></g><g
         transform="matrix(60,0,0,-6,229.88,1186.92)"
         id="g76"><rect
           id="rect78"
           style="fill:#000000;fill-opacity:1;fill-rule:nonzero"
           transform="matrix(1,0,0,-1,0,1)"
           height="1"
           width="1"
           y="0"
           x="0" /></g><g
         transform="matrix(60,0,0,-6,229.88,1252.36)"
         id="g80"><rect
           id="rect82"
           style="fill:#000000;fill-opacity:1;fill-rule:nonzero"
           transform="matrix(1,0,0,-1,0,1)"
           height="1"
           width="1"
           y="0"
           x="0" /></g><g
         transform="matrix(60,0,0,-6,229.88,1317.82)"
         id="g84"><rect
           id="rect86"
           style="fill:#000000;fill-opacity:1;fill-rule:nonzero"
           transform="matrix(1,0,0,-1,0,1)"
           height="1"
           width="1"
           y="0"
           x="0" /></g><g
         transform="matrix(60,0,0,-6,229.88,1383.27)"
         id="g88"><rect
           id="rect90"
           style="fill:#000000;fill-opacity:1;fill-rule:nonzero"
           transform="matrix(1,0,0,-1,0,1)"
           height="1"
           width="1"
           y="0"
           x="0" /></g><g
         transform="matrix(60,0,0,-6,229.88,1448.73)"
         id="g92"><rect
           id="rect94"
           style="fill:#000000;fill-opacity:1;fill-rule:nonzero"
           transform="matrix(1,0,0,-1,0,1)"
           height="1"
           width="1"
           y="0"
           x="0" /></g><g
         transform="matrix(60,0,0,-6,229.88,1514.18)"
         id="g96"><rect
           id="rect98"
           style="fill:#000000;fill-opacity:1;fill-rule:nonzero"
           transform="matrix(1,0,0,-1,0,1)"
           height="1"
           width="1"
           y="0"
           x="0" /></g><g
         transform="matrix(60,0,0,-6,229.88,1579.64)"
         id="g100"><rect
           id="rect102"
           style="fill:#000000;fill-opacity:1;fill-rule:nonzero"
           transform="matrix(1,0,0,-1,0,1)"
           height="1"
           width="1"
           y="0"
           x="0" /></g><g
         transform="scale(10,10)"
         id="g104"><text
           id="text106"
           style="font-variant:normal;font-weight:normal;font-size:10.90909958px;font-family:CMSY10;-inkscape-font-specification:CMSY10;writing-mode:lr-tb;fill:#000000;fill-opacity:1;fill-rule:nonzero;stroke:none"
           transform="matrix(1,0,0,-1,8.09531,23.5855)"><tspan
             id="tspan108"
             y="0"
             x="0">−</tspan></text>
<text
           id="text110"
           style="font-variant:normal;font-weight:normal;font-size:10.90909958px;font-family:CMR10;-inkscape-font-specification:CMR10;writing-mode:lr-tb;fill:#000000;fill-opacity:1;fill-rule:nonzero;stroke:none"
           transform="matrix(1,0,0,-1,16.61523,23.5855)"><tspan
             id="tspan112"
             y="0"
             x="0">1</tspan></text>
<text
           id="text114"
           style="font-variant:normal;font-weight:normal;font-size:10.90909958px;font-family:CMSY10;-inkscape-font-specification:CMSY10;writing-mode:lr-tb;fill:#000000;fill-opacity:1;fill-rule:nonzero;stroke:none"
           transform="matrix(1,0,0,-1,-0.42457,56.3132)"><tspan
             id="tspan116"
             y="0"
             x="0">−</tspan></text>
<text
           id="text118"
           style="font-variant:normal;font-weight:normal;font-size:10.90909958px;font-family:CMR10;-inkscape-font-specification:CMR10;writing-mode:lr-tb;fill:#000000;fill-opacity:1;fill-rule:nonzero;stroke:none"
           transform="matrix(1,0,0,-1,8.09535,56.3132)"><tspan
             id="tspan120"
             y="0"
             x="0">0</tspan></text>
<text
           id="text122"
           style="font-variant:normal;font-weight:normal;font-size:10.90909958px;font-family:CMMI10;-inkscape-font-specification:CMMI10;writing-mode:lr-tb;fill:#000000;fill-opacity:1;fill-rule:nonzero;stroke:none"
           transform="matrix(1,0,0,-1,13.49535,56.3132)"><tspan
             id="tspan124"
             y="0"
             x="0">.</tspan></text>
<text
           id="text126"
           style="font-variant:normal;font-weight:normal;font-size:10.90909958px;font-family:CMR10;-inkscape-font-specification:CMR10;writing-mode:lr-tb;fill:#000000;fill-opacity:1;fill-rule:nonzero;stroke:none"
           transform="matrix(1,0,0,-1,16.49535,56.3132)"><tspan
             id="tspan128"
             y="0"
             x="0">5</tspan><tspan
             id="tspan130"
             y="-65.095299"
             x="-8.3999996">0</tspan></text>
<text
           id="text132"
           style="font-variant:normal;font-weight:normal;font-size:10.90909958px;font-family:CMMI10;-inkscape-font-specification:CMMI10;writing-mode:lr-tb;fill:#000000;fill-opacity:1;fill-rule:nonzero;stroke:none"
           transform="matrix(1,0,0,-1,13.49535,121.4085)"><tspan
             id="tspan134"
             y="0"
             x="0">.</tspan></text>
<text
           id="text136"
           style="font-variant:normal;font-weight:normal;font-size:10.90909958px;font-family:CMR10;-inkscape-font-specification:CMR10;writing-mode:lr-tb;fill:#000000;fill-opacity:1;fill-rule:nonzero;stroke:none"
           transform="matrix(1,0,0,-1,16.49535,121.4085)"><tspan
             id="tspan138"
             y="0"
             x="0">5</tspan><tspan
             id="tspan140"
             y="-32.727299"
             x="0.119922">1</tspan></text>
</g><path
         id="path142"
         style="fill:none;stroke:#000000;stroke-width:11.95530033;stroke-linecap:butt;stroke-linejoin:miter;stroke-miterlimit:10;stroke-dasharray:none;stroke-opacity:1"
         d="m 156.652,921.609 3086.748,0" /><path
         id="path144"
         style="fill:none;stroke:#000000;stroke-width:11.95530033;stroke-linecap:butt;stroke-linejoin:miter;stroke-miterlimit:10;stroke-dasharray:none;stroke-opacity:1"
         d="m 260,201.602 0,1440.018" /><path
         id="path146"
         style="fill:none;stroke:#000000;stroke-width:11.95530033;stroke-linecap:butt;stroke-linejoin:miter;stroke-miterlimit:10;stroke-dasharray:none;stroke-opacity:1"
         d="m 260,1576.16 25.203,-0.99 25.203,-2.96 25.192,-4.94 25.203,-6.86 25.203,-8.82 25.203,-10.72 25.191,-12.58 25.204,-14.42 25.203,-16.21 25.203,-17.95 25.191,-19.63 25.203,-21.27 25.203,-22.83 25.204,-24.32 25.191,-25.73 25.203,-27.09 25.203,-28.34 25.203,-29.52 25.192,-30.61 25.203,-31.6 25.203,-32.5 25.203,-33.3 25.192,-33.99 25.203,-34.59 25.203,-35.09 25.203,-35.46 25.203,-35.75 25.191,-35.914 25.204,-35.992 25.201,-35.926 25.2,-35.781 25.2,-35.52 25.2,-35.148 25.2,-34.661 25.21,-34.089 25.19,-33.399 25.2,-32.621 25.2,-31.738 25.21,-30.754 25.19,-29.672 25.2,-28.523 25.2,-27.266 25.21,-25.941 25.19,-24.52 25.2,-23.051 25.2,-21.488 25.21,-19.875 25.19,-18.195 25.2,-16.457 25.21,-14.676 25.2,-12.856 25.2,-10.988 25.19,-9.074 25.21,-7.164 25.2,-5.207 25.2,-3.25 25.19,-1.266 25.21,0.703 25.2,2.684 25.2,4.644 25.19,6.606 25.21,8.535 25.2,10.449 25.2,12.324 25.2,14.153 25.2,15.961 25.2,17.703 25.2,19.398 25.2,21.039 25.2,22.602 25.2,24.113 25.21,25.543 25.19,26.899 25.2,28.168 25.2,29.355 25.21,30.453 25.2,31.465 25.19,32.379 25.2,33.191 25.21,33.891 25.2,34.519 25.19,35.016 25.2,35.422 25.21,35.715 25.2,35.902 25.19,35.981 25.21,35.949 25.2,35.8 25.2,35.57 25.19,35.2 25.21,34.75 25.2,34.17 25.2,33.51 25.19,32.73 25.21,31.87 25.2,30.9 25.2,29.84 25.19,28.69 25.21,27.45 25.2,26.13 25.2,24.74 25.21,23.25 25.19,21.72 25.2,20.1 25.21,18.45 25.2,16.71 25.19,14.93 25.2,13.11 25.21,11.27 25.2,9.35 25.19,7.44 25.2,5.48 25.21,3.52 25.2,1.57 25.19,-0.43 25.2,-2.4 25.21,-4.37 25.2,-6.33 25.19,-8.26 25.21,-10.18" /><path
         id="path148"
         style="fill:none;stroke:#000000;stroke-width:7.97009993;stroke-linecap:butt;stroke-linejoin:miter;stroke-miterlimit:10;stroke-dasharray:none;stroke-opacity:1"
         d="m 500,921.609 0,23.621" /><path
         id="path150"
         style="fill:none;stroke:#000000;stroke-width:7.97009993;stroke-linecap:butt;stroke-linejoin:miter;stroke-miterlimit:10;stroke-dasharray:none;stroke-opacity:1"
         d="m 500,992.461 0,23.629" /><path
         id="path152"
         style="fill:none;stroke:#000000;stroke-width:7.97009993;stroke-linecap:butt;stroke-linejoin:miter;stroke-miterlimit:10;stroke-dasharray:none;stroke-opacity:1"
         d="m 500,1016.09 0,23.61" /><path
         id="path154"
         style="fill:none;stroke:#000000;stroke-width:7.97009993;stroke-linecap:butt;stroke-linejoin:miter;stroke-miterlimit:10;stroke-dasharray:none;stroke-opacity:1"
         d="m 500,1086.95 0,23.62" /><path
         id="path156"
         style="fill:none;stroke:#000000;stroke-width:7.97009993;stroke-linecap:butt;stroke-linejoin:miter;stroke-miterlimit:10;stroke-dasharray:none;stroke-opacity:1"
         d="m 500,1110.57 0,23.62" /><path
         id="path158"
         style="fill:none;stroke:#000000;stroke-width:7.97009993;stroke-linecap:butt;stroke-linejoin:miter;stroke-miterlimit:10;stroke-dasharray:none;stroke-opacity:1"
         d="m 500,1181.42 0,23.62" /><path
         id="path160"
         style="fill:none;stroke:#000000;stroke-width:7.97009993;stroke-linecap:butt;stroke-linejoin:miter;stroke-miterlimit:10;stroke-dasharray:none;stroke-opacity:1"
         d="m 500,1205.04 0,23.62" /><path
         id="path162"
         style="fill:none;stroke:#000000;stroke-width:7.97009993;stroke-linecap:butt;stroke-linejoin:miter;stroke-miterlimit:10;stroke-dasharray:none;stroke-opacity:1"
         d="m 500,1275.9 0,23.61" /><path
         id="path164"
         style="fill:none;stroke:#000000;stroke-width:7.97009993;stroke-linecap:butt;stroke-linejoin:miter;stroke-miterlimit:10;stroke-dasharray:none;stroke-opacity:1"
         d="m 500,1299.51 0,23.62" /><path
         id="path166"
         style="fill:none;stroke:#000000;stroke-width:7.97009993;stroke-linecap:butt;stroke-linejoin:miter;stroke-miterlimit:10;stroke-dasharray:none;stroke-opacity:1"
         d="m 500,1370.38 0,23.62" /><path
         id="path168"
         style="fill:none;stroke:#000000;stroke-width:7.97009993;stroke-linecap:butt;stroke-linejoin:miter;stroke-miterlimit:10;stroke-dasharray:none;stroke-opacity:1"
         d="m 500,1394 0,23.61" /><path
         id="path170"
         style="fill:none;stroke:#000000;stroke-width:7.97009993;stroke-linecap:butt;stroke-linejoin:miter;stroke-miterlimit:10;stroke-dasharray:none;stroke-opacity:1"
         d="m 500,1464.85 0,23.62" /><g
         transform="matrix(206.4,0,0,-128.4,396.679,901.56)"
         id="g172"><rect
           id="rect174"
           style="fill:#ffffff;fill-opacity:1;fill-rule:nonzero"
           transform="matrix(1,0,0,-1,0,1)"
           height="1"
           width="1"
           y="0"
           x="0" /></g><g
         transform="scale(10,10)"
         id="g176"><text
           id="text178"
           style="font-variant:normal;font-weight:normal;font-size:9.96263981px;font-family:CMR10;-inkscape-font-specification:CMR10;writing-mode:lr-tb;fill:#000000;fill-opacity:1;fill-rule:nonzero;stroke:none"
           transform="matrix(1,0,0,-1,42.6801,80.3281)"><tspan
             id="tspan180"
             y="0"
             x="0 5.0399995">30</tspan></text>
<text
           id="text182"
           style="font-variant:normal;font-weight:normal;font-size:6.97384977px;font-family:CMSY7;-inkscape-font-specification:CMSY7;writing-mode:lr-tb;fill:#000000;fill-opacity:1;fill-rule:nonzero;stroke:none"
           transform="matrix(1,0,0,-1,52.7598,83.9281)"><tspan
             id="tspan184"
             y="0"
             x="0">◦</tspan></text>
</g><path
         id="path186"
         style="fill:none;stroke:#000000;stroke-width:7.97009993;stroke-linecap:butt;stroke-linejoin:miter;stroke-miterlimit:10;stroke-dasharray:none;stroke-opacity:1"
         d="m 740.008,921.609 0,20.457" /><path
         id="path188"
         style="fill:none;stroke:#000000;stroke-width:7.97009993;stroke-linecap:butt;stroke-linejoin:miter;stroke-miterlimit:10;stroke-dasharray:none;stroke-opacity:1"
         d="m 740.008,982.98 0,20.46" /><path
         id="path190"
         style="fill:none;stroke:#000000;stroke-width:7.97009993;stroke-linecap:butt;stroke-linejoin:miter;stroke-miterlimit:10;stroke-dasharray:none;stroke-opacity:1"
         d="m 740.008,1003.44 0,20.44" /><path
         id="path192"
         style="fill:none;stroke:#000000;stroke-width:7.97009993;stroke-linecap:butt;stroke-linejoin:miter;stroke-miterlimit:10;stroke-dasharray:none;stroke-opacity:1"
         d="m 740.008,1064.79 0,20.45" /><path
         id="path194"
         style="fill:none;stroke:#000000;stroke-width:7.97009993;stroke-linecap:butt;stroke-linejoin:miter;stroke-miterlimit:10;stroke-dasharray:none;stroke-opacity:1"
         d="m 740.008,1085.24 0,20.46" /><path
         id="path196"
         style="fill:none;stroke:#000000;stroke-width:7.97009993;stroke-linecap:butt;stroke-linejoin:miter;stroke-miterlimit:10;stroke-dasharray:none;stroke-opacity:1"
         d="m 740.008,1146.61 0,20.46" /><path
         id="path198"
         style="fill:none;stroke:#000000;stroke-width:7.97009993;stroke-linecap:butt;stroke-linejoin:miter;stroke-miterlimit:10;stroke-dasharray:none;stroke-opacity:1"
         d="m 740.008,1167.07 0,20.46" /><path
         id="path200"
         style="fill:none;stroke:#000000;stroke-width:7.97009993;stroke-linecap:butt;stroke-linejoin:miter;stroke-miterlimit:10;stroke-dasharray:none;stroke-opacity:1"
         d="m 740.008,1228.44 0,20.45" /><g
         transform="matrix(206.4,0,0,-128.4,636.69,901.56)"
         id="g202"><rect
           id="rect204"
           style="fill:#ffffff;fill-opacity:1;fill-rule:nonzero"
           transform="matrix(1,0,0,-1,0,1)"
           height="1"
           width="1"
           y="0"
           x="0" /></g><g
         transform="scale(10,10)"
         id="g206"><text
           id="text208"
           style="font-variant:normal;font-weight:normal;font-size:9.96263981px;font-family:CMR10;-inkscape-font-specification:CMR10;writing-mode:lr-tb;fill:#000000;fill-opacity:1;fill-rule:nonzero;stroke:none"
           transform="matrix(1,0,0,-1,66.6809,80.3281)"><tspan
             id="tspan210"
             y="0"
             x="0 5.0399995">60</tspan></text>
<text
           id="text212"
           style="font-variant:normal;font-weight:normal;font-size:6.97384977px;font-family:CMSY7;-inkscape-font-specification:CMSY7;writing-mode:lr-tb;fill:#000000;fill-opacity:1;fill-rule:nonzero;stroke:none"
           transform="matrix(1,0,0,-1,76.761,83.9281)"><tspan
             id="tspan214"
             y="0"
             x="0">◦</tspan></text>
</g><g
         transform="matrix(206.4,0,0,-128.4,876.689,901.56)"
         id="g216"><rect
           id="rect218"
           style="fill:#ffffff;fill-opacity:1;fill-rule:nonzero"
           transform="matrix(1,0,0,-1,0,1)"
           height="1"
           width="1"
           y="0"
           x="0" /></g><g
         transform="scale(10,10)"
         id="g220"><text
           id="text222"
           style="font-variant:normal;font-weight:normal;font-size:9.96263981px;font-family:CMR10;-inkscape-font-specification:CMR10;writing-mode:lr-tb;fill:#000000;fill-opacity:1;fill-rule:nonzero;stroke:none"
           transform="matrix(1,0,0,-1,90.6809,80.3281)"><tspan
             id="tspan224"
             y="0"
             x="0 5.0399995">90</tspan></text>
<text
           id="text226"
           style="font-variant:normal;font-weight:normal;font-size:6.97384977px;font-family:CMSY7;-inkscape-font-specification:CMSY7;writing-mode:lr-tb;fill:#000000;fill-opacity:1;fill-rule:nonzero;stroke:none"
           transform="matrix(1,0,0,-1,100.761,83.9281)"><tspan
             id="tspan228"
             y="0"
             x="0">◦</tspan></text>
</g><path
         id="path230"
         style="fill:none;stroke:#000000;stroke-width:7.97009993;stroke-linecap:butt;stroke-linejoin:miter;stroke-miterlimit:10;stroke-dasharray:none;stroke-opacity:1"
         d="m 1220.01,921.609 0,-20.457" /><path
         id="path232"
         style="fill:none;stroke:#000000;stroke-width:7.97009993;stroke-linecap:butt;stroke-linejoin:miter;stroke-miterlimit:10;stroke-dasharray:none;stroke-opacity:1"
         d="m 1220.01,860.25 0,-20.457" /><path
         id="path234"
         style="fill:none;stroke:#000000;stroke-width:7.97009993;stroke-linecap:butt;stroke-linejoin:miter;stroke-miterlimit:10;stroke-dasharray:none;stroke-opacity:1"
         d="m 1220.01,839.793 0,-20.457" /><path
         id="path236"
         style="fill:none;stroke:#000000;stroke-width:7.97009993;stroke-linecap:butt;stroke-linejoin:miter;stroke-miterlimit:10;stroke-dasharray:none;stroke-opacity:1"
         d="m 1220.01,778.422 0,-20.457" /><path
         id="path238"
         style="fill:none;stroke:#000000;stroke-width:7.97009993;stroke-linecap:butt;stroke-linejoin:miter;stroke-miterlimit:10;stroke-dasharray:none;stroke-opacity:1"
         d="m 1220.01,757.965 0,-20.445" /><path
         id="path240"
         style="fill:none;stroke:#000000;stroke-width:7.97009993;stroke-linecap:butt;stroke-linejoin:miter;stroke-miterlimit:10;stroke-dasharray:none;stroke-opacity:1"
         d="m 1220.01,696.605 0,-20.457" /><path
         id="path242"
         style="fill:none;stroke:#000000;stroke-width:7.97009993;stroke-linecap:butt;stroke-linejoin:miter;stroke-miterlimit:10;stroke-dasharray:none;stroke-opacity:1"
         d="m 1220.01,676.148 0,-20.457" /><path
         id="path244"
         style="fill:none;stroke:#000000;stroke-width:7.97009993;stroke-linecap:butt;stroke-linejoin:miter;stroke-miterlimit:10;stroke-dasharray:none;stroke-opacity:1"
         d="m 1220.01,614.789 0,-20.457" /><path
         id="path246"
         style="fill:none;stroke:#000000;stroke-width:7.97009993;stroke-linecap:butt;stroke-linejoin:miter;stroke-miterlimit:10;stroke-dasharray:none;stroke-opacity:1"
         d="m 1460.02,921.609 0,-23.621" /><path
         id="path248"
         style="fill:none;stroke:#000000;stroke-width:7.97009993;stroke-linecap:butt;stroke-linejoin:miter;stroke-miterlimit:10;stroke-dasharray:none;stroke-opacity:1"
         d="m 1460.02,850.746 0,-23.609" /><path
         id="path250"
         style="fill:none;stroke:#000000;stroke-width:7.97009993;stroke-linecap:butt;stroke-linejoin:miter;stroke-miterlimit:10;stroke-dasharray:none;stroke-opacity:1"
         d="m 1460.02,827.137 0,-23.621" /><path
         id="path252"
         style="fill:none;stroke:#000000;stroke-width:7.97009993;stroke-linecap:butt;stroke-linejoin:miter;stroke-miterlimit:10;stroke-dasharray:none;stroke-opacity:1"
         d="m 1460.02,756.273 0,-23.621" /><path
         id="path254"
         style="fill:none;stroke:#000000;stroke-width:7.97009993;stroke-linecap:butt;stroke-linejoin:miter;stroke-miterlimit:10;stroke-dasharray:none;stroke-opacity:1"
         d="m 1460.02,732.652 0,-23.621" /><path
         id="path256"
         style="fill:none;stroke:#000000;stroke-width:7.97009993;stroke-linecap:butt;stroke-linejoin:miter;stroke-miterlimit:10;stroke-dasharray:none;stroke-opacity:1"
         d="m 1460.02,661.801 0,-23.621" /><path
         id="path258"
         style="fill:none;stroke:#000000;stroke-width:7.97009993;stroke-linecap:butt;stroke-linejoin:miter;stroke-miterlimit:10;stroke-dasharray:none;stroke-opacity:1"
         d="m 1460.02,638.18 0,-23.621" /><path
         id="path260"
         style="fill:none;stroke:#000000;stroke-width:7.97009993;stroke-linecap:butt;stroke-linejoin:miter;stroke-miterlimit:10;stroke-dasharray:none;stroke-opacity:1"
         d="m 1460.02,567.316 0,-23.609" /><path
         id="path262"
         style="fill:none;stroke:#000000;stroke-width:7.97009993;stroke-linecap:butt;stroke-linejoin:miter;stroke-miterlimit:10;stroke-dasharray:none;stroke-opacity:1"
         d="m 1460.02,543.707 0,-23.621" /><path
         id="path264"
         style="fill:none;stroke:#000000;stroke-width:7.97009993;stroke-linecap:butt;stroke-linejoin:miter;stroke-miterlimit:10;stroke-dasharray:none;stroke-opacity:1"
         d="m 1460.02,472.844 0,-23.621" /><path
         id="path266"
         style="fill:none;stroke:#000000;stroke-width:7.97009993;stroke-linecap:butt;stroke-linejoin:miter;stroke-miterlimit:10;stroke-dasharray:none;stroke-opacity:1"
         d="m 1460.02,449.223 0,-23.621" /><path
         id="path268"
         style="fill:none;stroke:#000000;stroke-width:7.97009993;stroke-linecap:butt;stroke-linejoin:miter;stroke-miterlimit:10;stroke-dasharray:none;stroke-opacity:1"
         d="m 1460.02,378.371 0,-23.621" /><path
         id="path270"
         style="fill:none;stroke:#000000;stroke-width:7.97009993;stroke-linecap:butt;stroke-linejoin:miter;stroke-miterlimit:10;stroke-dasharray:none;stroke-opacity:1"
         d="m 1700.02,921.609 0,-27.269" /><path
         id="path272"
         style="fill:none;stroke:#000000;stroke-width:7.97009993;stroke-linecap:butt;stroke-linejoin:miter;stroke-miterlimit:10;stroke-dasharray:none;stroke-opacity:1"
         d="m 1700.02,839.793 0,-27.281" /><path
         id="path274"
         style="fill:none;stroke:#000000;stroke-width:7.97009993;stroke-linecap:butt;stroke-linejoin:miter;stroke-miterlimit:10;stroke-dasharray:none;stroke-opacity:1"
         d="m 1700.02,812.512 0,-27.266" /><path
         id="path276"
         style="fill:none;stroke:#000000;stroke-width:7.97009993;stroke-linecap:butt;stroke-linejoin:miter;stroke-miterlimit:10;stroke-dasharray:none;stroke-opacity:1"
         d="m 1700.02,730.695 0,-27.265" /><path
         id="path278"
         style="fill:none;stroke:#000000;stroke-width:7.97009993;stroke-linecap:butt;stroke-linejoin:miter;stroke-miterlimit:10;stroke-dasharray:none;stroke-opacity:1"
         d="m 1700.02,703.43 0,-27.282" /><path
         id="path280"
         style="fill:none;stroke:#000000;stroke-width:7.97009993;stroke-linecap:butt;stroke-linejoin:miter;stroke-miterlimit:10;stroke-dasharray:none;stroke-opacity:1"
         d="m 1700.02,621.602 0,-27.27" /><path
         id="path282"
         style="fill:none;stroke:#000000;stroke-width:7.97009993;stroke-linecap:butt;stroke-linejoin:miter;stroke-miterlimit:10;stroke-dasharray:none;stroke-opacity:1"
         d="m 1700.02,594.332 0,-27.266" /><path
         id="path284"
         style="fill:none;stroke:#000000;stroke-width:7.97009993;stroke-linecap:butt;stroke-linejoin:miter;stroke-miterlimit:10;stroke-dasharray:none;stroke-opacity:1"
         d="m 1700.02,512.516 0,-27.278" /><path
         id="path286"
         style="fill:none;stroke:#000000;stroke-width:7.97009993;stroke-linecap:butt;stroke-linejoin:miter;stroke-miterlimit:10;stroke-dasharray:none;stroke-opacity:1"
         d="m 1700.02,485.238 0,-27.269" /><path
         id="path288"
         style="fill:none;stroke:#000000;stroke-width:7.97009993;stroke-linecap:butt;stroke-linejoin:miter;stroke-miterlimit:10;stroke-dasharray:none;stroke-opacity:1"
         d="m 1700.02,403.422 0,-27.281" /><path
         id="path290"
         style="fill:none;stroke:#000000;stroke-width:7.97009993;stroke-linecap:butt;stroke-linejoin:miter;stroke-miterlimit:10;stroke-dasharray:none;stroke-opacity:1"
         d="m 1700.02,376.141 0,-27.266" /><path
         id="path292"
         style="fill:none;stroke:#000000;stroke-width:7.97009993;stroke-linecap:butt;stroke-linejoin:miter;stroke-miterlimit:10;stroke-dasharray:none;stroke-opacity:1"
         d="m 1700.02,294.324 0,-27.265" /><g
         transform="matrix(255.6,0,0,-128.4,1572.7,901.56)"
         id="g294"><rect
           id="rect296"
           style="fill:#ffffff;fill-opacity:1;fill-rule:nonzero"
           transform="matrix(1,0,0,-1,0,1)"
           height="1"
           width="1"
           y="0"
           x="0" /></g><g
         transform="scale(10,10)"
         id="g298"><text
           id="text300"
           style="font-variant:normal;font-weight:normal;font-size:9.96263981px;font-family:CMR10;-inkscape-font-specification:CMR10;writing-mode:lr-tb;fill:#000000;fill-opacity:1;fill-rule:nonzero;stroke:none"
           transform="matrix(1,0,0,-1,160.282,80.3281)"><tspan
             id="tspan302"
             y="0"
             x="0 5.0399995 10.079987">180</tspan></text>
<text
           id="text304"
           style="font-variant:normal;font-weight:normal;font-size:6.97384977px;font-family:CMSY7;-inkscape-font-specification:CMSY7;writing-mode:lr-tb;fill:#000000;fill-opacity:1;fill-rule:nonzero;stroke:none"
           transform="matrix(1,0,0,-1,175.4019,83.9281)"><tspan
             id="tspan306"
             y="0"
             x="0">◦</tspan></text>
</g><path
         id="path308"
         style="fill:none;stroke:#000000;stroke-width:7.97009993;stroke-linecap:butt;stroke-linejoin:miter;stroke-miterlimit:10;stroke-dasharray:none;stroke-opacity:1"
         d="m 1940.02,921.609 0,-23.621" /><path
         id="path310"
         style="fill:none;stroke:#000000;stroke-width:7.97009993;stroke-linecap:butt;stroke-linejoin:miter;stroke-miterlimit:10;stroke-dasharray:none;stroke-opacity:1"
         d="m 1940.02,850.746 0,-23.609" /><path
         id="path312"
         style="fill:none;stroke:#000000;stroke-width:7.97009993;stroke-linecap:butt;stroke-linejoin:miter;stroke-miterlimit:10;stroke-dasharray:none;stroke-opacity:1"
         d="m 1940.02,827.137 0,-23.621" /><path
         id="path314"
         style="fill:none;stroke:#000000;stroke-width:7.97009993;stroke-linecap:butt;stroke-linejoin:miter;stroke-miterlimit:10;stroke-dasharray:none;stroke-opacity:1"
         d="m 1940.02,756.273 0,-23.621" /><path
         id="path316"
         style="fill:none;stroke:#000000;stroke-width:7.97009993;stroke-linecap:butt;stroke-linejoin:miter;stroke-miterlimit:10;stroke-dasharray:none;stroke-opacity:1"
         d="m 1940.02,732.652 0,-23.621" /><path
         id="path318"
         style="fill:none;stroke:#000000;stroke-width:7.97009993;stroke-linecap:butt;stroke-linejoin:miter;stroke-miterlimit:10;stroke-dasharray:none;stroke-opacity:1"
         d="m 1940.02,661.801 0,-23.621" /><path
         id="path320"
         style="fill:none;stroke:#000000;stroke-width:7.97009993;stroke-linecap:butt;stroke-linejoin:miter;stroke-miterlimit:10;stroke-dasharray:none;stroke-opacity:1"
         d="m 1940.02,638.18 0,-23.621" /><path
         id="path322"
         style="fill:none;stroke:#000000;stroke-width:7.97009993;stroke-linecap:butt;stroke-linejoin:miter;stroke-miterlimit:10;stroke-dasharray:none;stroke-opacity:1"
         d="m 1940.02,567.316 0,-23.609" /><path
         id="path324"
         style="fill:none;stroke:#000000;stroke-width:7.97009993;stroke-linecap:butt;stroke-linejoin:miter;stroke-miterlimit:10;stroke-dasharray:none;stroke-opacity:1"
         d="m 1940.02,543.707 0,-23.621" /><path
         id="path326"
         style="fill:none;stroke:#000000;stroke-width:7.97009993;stroke-linecap:butt;stroke-linejoin:miter;stroke-miterlimit:10;stroke-dasharray:none;stroke-opacity:1"
         d="m 1940.02,472.844 0,-23.621" /><path
         id="path328"
         style="fill:none;stroke:#000000;stroke-width:7.97009993;stroke-linecap:butt;stroke-linejoin:miter;stroke-miterlimit:10;stroke-dasharray:none;stroke-opacity:1"
         d="m 1940.02,449.223 0,-23.621" /><path
         id="path330"
         style="fill:none;stroke:#000000;stroke-width:7.97009993;stroke-linecap:butt;stroke-linejoin:miter;stroke-miterlimit:10;stroke-dasharray:none;stroke-opacity:1"
         d="m 1940.02,378.371 0,-23.621" /><path
         id="path332"
         style="fill:none;stroke:#000000;stroke-width:7.97009993;stroke-linecap:butt;stroke-linejoin:miter;stroke-miterlimit:10;stroke-dasharray:none;stroke-opacity:1"
         d="m 2180.03,921.609 0,-20.457" /><path
         id="path334"
         style="fill:none;stroke:#000000;stroke-width:7.97009993;stroke-linecap:butt;stroke-linejoin:miter;stroke-miterlimit:10;stroke-dasharray:none;stroke-opacity:1"
         d="m 2180.03,860.25 0,-20.457" /><path
         id="path336"
         style="fill:none;stroke:#000000;stroke-width:7.97009993;stroke-linecap:butt;stroke-linejoin:miter;stroke-miterlimit:10;stroke-dasharray:none;stroke-opacity:1"
         d="m 2180.03,839.793 0,-20.457" /><path
         id="path338"
         style="fill:none;stroke:#000000;stroke-width:7.97009993;stroke-linecap:butt;stroke-linejoin:miter;stroke-miterlimit:10;stroke-dasharray:none;stroke-opacity:1"
         d="m 2180.03,778.422 0,-20.457" /><path
         id="path340"
         style="fill:none;stroke:#000000;stroke-width:7.97009993;stroke-linecap:butt;stroke-linejoin:miter;stroke-miterlimit:10;stroke-dasharray:none;stroke-opacity:1"
         d="m 2180.03,757.965 0,-20.445" /><path
         id="path342"
         style="fill:none;stroke:#000000;stroke-width:7.97009993;stroke-linecap:butt;stroke-linejoin:miter;stroke-miterlimit:10;stroke-dasharray:none;stroke-opacity:1"
         d="m 2180.03,696.605 0,-20.457" /><path
         id="path344"
         style="fill:none;stroke:#000000;stroke-width:7.97009993;stroke-linecap:butt;stroke-linejoin:miter;stroke-miterlimit:10;stroke-dasharray:none;stroke-opacity:1"
         d="m 2180.03,676.148 0,-20.457" /><path
         id="path346"
         style="fill:none;stroke:#000000;stroke-width:7.97009993;stroke-linecap:butt;stroke-linejoin:miter;stroke-miterlimit:10;stroke-dasharray:none;stroke-opacity:1"
         d="m 2180.03,614.789 0,-20.457" /><g
         transform="matrix(255.6,0,0,-128.4,2292.71,901.56)"
         id="g348"><rect
           id="rect350"
           style="fill:#ffffff;fill-opacity:1;fill-rule:nonzero"
           transform="matrix(1,0,0,-1,0,1)"
           height="1"
           width="1"
           y="0"
           x="0" /></g><g
         transform="scale(10,10)"
         id="g352"><text
           id="text354"
           style="font-variant:normal;font-weight:normal;font-size:9.96263981px;font-family:CMR10;-inkscape-font-specification:CMR10;writing-mode:lr-tb;fill:#000000;fill-opacity:1;fill-rule:nonzero;stroke:none"
           transform="matrix(1,0,0,-1,232.283,80.3281)"><tspan
             id="tspan356"
             y="0"
             x="0 5.0399871 10.079998">270</tspan></text>
<text
           id="text358"
           style="font-variant:normal;font-weight:normal;font-size:6.97384977px;font-family:CMSY7;-inkscape-font-specification:CMSY7;writing-mode:lr-tb;fill:#000000;fill-opacity:1;fill-rule:nonzero;stroke:none"
           transform="matrix(1,0,0,-1,247.4029,83.9281)"><tspan
             id="tspan360"
             y="0"
             x="0">◦</tspan></text>
</g><path
         id="path362"
         style="fill:none;stroke:#000000;stroke-width:7.97009993;stroke-linecap:butt;stroke-linejoin:miter;stroke-miterlimit:10;stroke-dasharray:none;stroke-opacity:1"
         d="m 2660.03,921.609 0,20.457" /><path
         id="path364"
         style="fill:none;stroke:#000000;stroke-width:7.97009993;stroke-linecap:butt;stroke-linejoin:miter;stroke-miterlimit:10;stroke-dasharray:none;stroke-opacity:1"
         d="m 2660.03,982.98 0,20.46" /><path
         id="path366"
         style="fill:none;stroke:#000000;stroke-width:7.97009993;stroke-linecap:butt;stroke-linejoin:miter;stroke-miterlimit:10;stroke-dasharray:none;stroke-opacity:1"
         d="m 2660.03,1003.44 0,20.44" /><path
         id="path368"
         style="fill:none;stroke:#000000;stroke-width:7.97009993;stroke-linecap:butt;stroke-linejoin:miter;stroke-miterlimit:10;stroke-dasharray:none;stroke-opacity:1"
         d="m 2660.03,1064.79 0,20.45" /><path
         id="path370"
         style="fill:none;stroke:#000000;stroke-width:7.97009993;stroke-linecap:butt;stroke-linejoin:miter;stroke-miterlimit:10;stroke-dasharray:none;stroke-opacity:1"
         d="m 2660.03,1085.24 0,20.46" /><path
         id="path372"
         style="fill:none;stroke:#000000;stroke-width:7.97009993;stroke-linecap:butt;stroke-linejoin:miter;stroke-miterlimit:10;stroke-dasharray:none;stroke-opacity:1"
         d="m 2660.03,1146.61 0,20.46" /><path
         id="path374"
         style="fill:none;stroke:#000000;stroke-width:7.97009993;stroke-linecap:butt;stroke-linejoin:miter;stroke-miterlimit:10;stroke-dasharray:none;stroke-opacity:1"
         d="m 2660.03,1167.07 0,20.46" /><path
         id="path376"
         style="fill:none;stroke:#000000;stroke-width:7.97009993;stroke-linecap:butt;stroke-linejoin:miter;stroke-miterlimit:10;stroke-dasharray:none;stroke-opacity:1"
         d="m 2660.03,1228.44 0,20.45" /><path
         id="path378"
         style="fill:none;stroke:#000000;stroke-width:7.97009993;stroke-linecap:butt;stroke-linejoin:miter;stroke-miterlimit:10;stroke-dasharray:none;stroke-opacity:1"
         d="m 2900.04,921.609 0,23.621" /><path
         id="path380"
         style="fill:none;stroke:#000000;stroke-width:7.97009993;stroke-linecap:butt;stroke-linejoin:miter;stroke-miterlimit:10;stroke-dasharray:none;stroke-opacity:1"
         d="m 2900.04,992.461 0,23.629" /><path
         id="path382"
         style="fill:none;stroke:#000000;stroke-width:7.97009993;stroke-linecap:butt;stroke-linejoin:miter;stroke-miterlimit:10;stroke-dasharray:none;stroke-opacity:1"
         d="m 2900.04,1016.09 0,23.61" /><path
         id="path384"
         style="fill:none;stroke:#000000;stroke-width:7.97009993;stroke-linecap:butt;stroke-linejoin:miter;stroke-miterlimit:10;stroke-dasharray:none;stroke-opacity:1"
         d="m 2900.04,1086.95 0,23.62" /><path
         id="path386"
         style="fill:none;stroke:#000000;stroke-width:7.97009993;stroke-linecap:butt;stroke-linejoin:miter;stroke-miterlimit:10;stroke-dasharray:none;stroke-opacity:1"
         d="m 2900.04,1110.57 0,23.62" /><path
         id="path388"
         style="fill:none;stroke:#000000;stroke-width:7.97009993;stroke-linecap:butt;stroke-linejoin:miter;stroke-miterlimit:10;stroke-dasharray:none;stroke-opacity:1"
         d="m 2900.04,1181.42 0,23.62" /><path
         id="path390"
         style="fill:none;stroke:#000000;stroke-width:7.97009993;stroke-linecap:butt;stroke-linejoin:miter;stroke-miterlimit:10;stroke-dasharray:none;stroke-opacity:1"
         d="m 2900.04,1205.04 0,23.62" /><path
         id="path392"
         style="fill:none;stroke:#000000;stroke-width:7.97009993;stroke-linecap:butt;stroke-linejoin:miter;stroke-miterlimit:10;stroke-dasharray:none;stroke-opacity:1"
         d="m 2900.04,1275.9 0,23.61" /><path
         id="path394"
         style="fill:none;stroke:#000000;stroke-width:7.97009993;stroke-linecap:butt;stroke-linejoin:miter;stroke-miterlimit:10;stroke-dasharray:none;stroke-opacity:1"
         d="m 2900.04,1299.51 0,23.62" /><path
         id="path396"
         style="fill:none;stroke:#000000;stroke-width:7.97009993;stroke-linecap:butt;stroke-linejoin:miter;stroke-miterlimit:10;stroke-dasharray:none;stroke-opacity:1"
         d="m 2900.04,1370.38 0,23.62" /><path
         id="path398"
         style="fill:none;stroke:#000000;stroke-width:7.97009993;stroke-linecap:butt;stroke-linejoin:miter;stroke-miterlimit:10;stroke-dasharray:none;stroke-opacity:1"
         d="m 2900.04,1394 0,23.61" /><path
         id="path400"
         style="fill:none;stroke:#000000;stroke-width:7.97009993;stroke-linecap:butt;stroke-linejoin:miter;stroke-miterlimit:10;stroke-dasharray:none;stroke-opacity:1"
         d="m 2900.04,1464.85 0,23.62" /><path
         id="path402"
         style="fill:none;stroke:#000000;stroke-width:7.97009993;stroke-linecap:butt;stroke-linejoin:miter;stroke-miterlimit:10;stroke-dasharray:none;stroke-opacity:1"
         d="m 3140.04,921.609 0,27.282" /><path
         id="path404"
         style="fill:none;stroke:#000000;stroke-width:7.97009993;stroke-linecap:butt;stroke-linejoin:miter;stroke-miterlimit:10;stroke-dasharray:none;stroke-opacity:1"
         d="m 3140.04,1003.44 0,27.26" /><path
         id="path406"
         style="fill:none;stroke:#000000;stroke-width:7.97009993;stroke-linecap:butt;stroke-linejoin:miter;stroke-miterlimit:10;stroke-dasharray:none;stroke-opacity:1"
         d="m 3140.04,1030.7 0,27.27" /><path
         id="path408"
         style="fill:none;stroke:#000000;stroke-width:7.97009993;stroke-linecap:butt;stroke-linejoin:miter;stroke-miterlimit:10;stroke-dasharray:none;stroke-opacity:1"
         d="m 3140.04,1112.52 0,27.27" /><path
         id="path410"
         style="fill:none;stroke:#000000;stroke-width:7.97009993;stroke-linecap:butt;stroke-linejoin:miter;stroke-miterlimit:10;stroke-dasharray:none;stroke-opacity:1"
         d="m 3140.04,1139.79 0,27.28" /><path
         id="path412"
         style="fill:none;stroke:#000000;stroke-width:7.97009993;stroke-linecap:butt;stroke-linejoin:miter;stroke-miterlimit:10;stroke-dasharray:none;stroke-opacity:1"
         d="m 3140.04,1221.62 0,27.27" /><path
         id="path414"
         style="fill:none;stroke:#000000;stroke-width:7.97009993;stroke-linecap:butt;stroke-linejoin:miter;stroke-miterlimit:10;stroke-dasharray:none;stroke-opacity:1"
         d="m 3140.04,1248.89 0,27.26" /><path
         id="path416"
         style="fill:none;stroke:#000000;stroke-width:7.97009993;stroke-linecap:butt;stroke-linejoin:miter;stroke-miterlimit:10;stroke-dasharray:none;stroke-opacity:1"
         d="m 3140.04,1330.7 0,27.28" /><path
         id="path418"
         style="fill:none;stroke:#000000;stroke-width:7.97009993;stroke-linecap:butt;stroke-linejoin:miter;stroke-miterlimit:10;stroke-dasharray:none;stroke-opacity:1"
         d="m 3140.04,1357.98 0,27.27" /><path
         id="path420"
         style="fill:none;stroke:#000000;stroke-width:7.97009993;stroke-linecap:butt;stroke-linejoin:miter;stroke-miterlimit:10;stroke-dasharray:none;stroke-opacity:1"
         d="m 3140.04,1439.8 0,27.28" /><path
         id="path422"
         style="fill:none;stroke:#000000;stroke-width:7.97009993;stroke-linecap:butt;stroke-linejoin:miter;stroke-miterlimit:10;stroke-dasharray:none;stroke-opacity:1"
         d="m 3140.04,1467.08 0,27.26" /><path
         id="path424"
         style="fill:none;stroke:#000000;stroke-width:7.97009993;stroke-linecap:butt;stroke-linejoin:miter;stroke-miterlimit:10;stroke-dasharray:none;stroke-opacity:1"
         d="m 3140.04,1548.89 0,27.27" /><g
         transform="matrix(255.6,0,0,-128.4,3012.72,901.56)"
         id="g426"><rect
           id="rect428"
           style="fill:#ffffff;fill-opacity:1;fill-rule:nonzero"
           transform="matrix(1,0,0,-1,0,1)"
           height="1"
           width="1"
           y="0"
           x="0" /></g><g
         transform="scale(10,10)"
         id="g430"><text
           id="text432"
           style="font-variant:normal;font-weight:normal;font-size:9.96263981px;font-family:CMR10;-inkscape-font-specification:CMR10;writing-mode:lr-tb;fill:#000000;fill-opacity:1;fill-rule:nonzero;stroke:none"
           transform="matrix(1,0,0,-1,304.284,80.3281)"><tspan
             id="tspan434"
             y="0"
             x="0 5.0399871 10.079998">360</tspan></text>
<text
           id="text436"
           style="font-variant:normal;font-weight:normal;font-size:6.97384977px;font-family:CMSY7;-inkscape-font-specification:CMSY7;writing-mode:lr-tb;fill:#000000;fill-opacity:1;fill-rule:nonzero;stroke:none"
           transform="matrix(1,0,0,-1,319.4039,83.9281)"><tspan
             id="tspan438"
             y="0"
             x="0">◦</tspan></text>
<text
           id="text440"
           style="font-variant:normal;font-weight:normal;font-size:10.90909958px;font-family:CMMI10;-inkscape-font-specification:CMMI10;writing-mode:lr-tb;fill:#000000;fill-opacity:1;fill-rule:nonzero;stroke:none"
           transform="matrix(1,0,0,-1,318.06015,94.0043)"><tspan
             id="tspan442"
             y="0"
             x="0">θ</tspan><tspan
             id="tspan444"
             y="-76.182404"
             x="-294.94">y</tspan></text>
<text
           id="text446"
           style="font-variant:normal;font-weight:normal;font-size:11.9552002px;font-family:CMCSC10;-inkscape-font-specification:CMCSC10;writing-mode:lr-tb;fill:#000000;fill-opacity:1;fill-rule:nonzero;stroke:none"
           transform="matrix(1,0,0,-1,147.44215,0.0447)"><tspan
             id="tspan448"
             y="0"
             x="0 8.5141773 12.111574 19.790337 28.065199 34.667976 41.270756">Fig.45.</tspan></text>
</g></g></g></svg>