<?xml version="1.0" encoding="UTF-8" standalone="no"?>
<svg
   xmlns:dc="http://purl.org/dc/elements/1.1/"
   xmlns:cc="http://creativecommons.org/ns#"
   xmlns:rdf="http://www.w3.org/1999/02/22-rdf-syntax-ns#"
   xmlns:svg="http://www.w3.org/2000/svg"
   xmlns="http://www.w3.org/2000/svg"
   viewBox="0 0 343.75 82.5"
   height="82.5"
   width="343.75"
   xml:space="preserve"
   version="1.1"
   id="svg2"><metadata
     id="metadata8"><rdf:RDF><cc:Work
         rdf:about=""><dc:format>image/svg+xml</dc:format><dc:type
           rdf:resource="http://purl.org/dc/dcmitype/StillImage" /></cc:Work></rdf:RDF></metadata><defs
     id="defs6"><clipPath
       id="clipPath12"
       clipPathUnits="userSpaceOnUse"><path
         id="path14"
         d="m -2,-2 275,0 0,66 -275,0 0,-66 z" /></clipPath></defs><g
     clip-path="url(#clipPath12)"
     transform="matrix(1.25,0,0,-1.25,2.5,80)"
     id="g10"><g
       transform="scale(0.1,0.1)"
       id="g16"><path
         id="path18"
         style="fill:none;stroke:#000000;stroke-width:11.95530033;stroke-linecap:butt;stroke-linejoin:miter;stroke-miterlimit:10;stroke-dasharray:none;stroke-opacity:1"
         d="m 0,561.605 2700.04,0" /><g
         transform="matrix(6,0,0,-60,1347.5,591.485)"
         id="g20"><rect
           id="rect22"
           style="fill:#000000;fill-opacity:1;fill-rule:nonzero"
           transform="matrix(1,0,0,-1,0,1)"
           height="1"
           width="1"
           y="0"
           x="0" /></g><g
         transform="matrix(6,0,0,-60,2022.51,591.485)"
         id="g24"><rect
           id="rect26"
           style="fill:#000000;fill-opacity:1;fill-rule:nonzero"
           transform="matrix(1,0,0,-1,0,1)"
           height="1"
           width="1"
           y="0"
           x="0" /></g><g
         transform="matrix(6,0,0,-60,2360.01,591.485)"
         id="g28"><rect
           id="rect30"
           style="fill:#000000;fill-opacity:1;fill-rule:nonzero"
           transform="matrix(1,0,0,-1,0,1)"
           height="1"
           width="1"
           y="0"
           x="0" /></g><g
         transform="matrix(6,0,0,-60,2528.76,591.485)"
         id="g32"><rect
           id="rect34"
           style="fill:#000000;fill-opacity:1;fill-rule:nonzero"
           transform="matrix(1,0,0,-1,0,1)"
           height="1"
           width="1"
           y="0"
           x="0" /></g><g
         transform="matrix(6,0,0,-60,2613.14,591.485)"
         id="g36"><rect
           id="rect38"
           style="fill:#000000;fill-opacity:1;fill-rule:nonzero"
           transform="matrix(1,0,0,-1,0,1)"
           height="1"
           width="1"
           y="0"
           x="0" /></g><g
         transform="matrix(6,0,0,-120,-2.52009,621.485)"
         id="g40"><rect
           id="rect42"
           style="fill:#000000;fill-opacity:1;fill-rule:nonzero"
           transform="matrix(1,0,0,-1,0,1)"
           height="1"
           width="1"
           y="0"
           x="0" /></g><g
         transform="matrix(6,0,0,-120,2697.51,621.485)"
         id="g44"><rect
           id="rect46"
           style="fill:#000000;fill-opacity:1;fill-rule:nonzero"
           transform="matrix(1,0,0,-1,0,1)"
           height="1"
           width="1"
           y="0"
           x="0" /></g><g
         transform="matrix(115.2,0,0,-130.8,617.288,421.587)"
         id="g48"><rect
           id="rect50"
           style="fill:#ffffff;fill-opacity:1;fill-rule:nonzero"
           transform="matrix(1,0,0,-1,0,1)"
           height="1"
           width="1"
           y="0"
           x="0" /></g><g
         transform="scale(10,10)"
         id="g52"><text
           id="text54"
           style="font-variant:normal;font-weight:normal;font-size:10.90909958px;font-family:CMR10;-inkscape-font-specification:CMR10;writing-mode:lr-tb;fill:#000000;fill-opacity:1;fill-rule:nonzero;stroke:none"
           transform="matrix(1,0,0,-1,64.741,32.0906)"><tspan
             id="tspan56"
             y="0"
             x="0">1</tspan></text>
</g><path
         id="path58"
         style="fill:#000000;fill-opacity:1;fill-rule:nonzero;stroke:none"
         d="m 19.3047,541.016 1.0625,-2.528 1.2656,-2.437 1.461,-2.34 1.6601,-2.254 1.832,-2.164 2.0352,-2.074 2.2187,-2 2.3946,-1.914 2.5703,-1.832 2.7344,-1.75 2.9218,-1.68 3.0782,-1.594 3.25,-1.527 3.4062,-1.438 3.5625,-1.386 3.7227,-1.305 3.8672,-1.242 4.0195,-1.176 4.164,-1.109 4.3086,-1.043 4.4493,-0.989 4.582,-0.925 4.7109,-0.868 4.8477,-0.8 4.9648,-0.758 5.0855,-0.703 5.219,-0.649 5.328,-0.605 5.438,-0.547 5.551,-0.508 5.656,-0.461 5.758,-0.418 5.867,-0.371 5.953,-0.344 6.055,-0.297 6.14,-0.25 6.231,-0.23 6.316,-0.188 6.406,-0.164 6.469,-0.121 6.551,-0.101 6.625,-0.074 6.691,-0.055 6.754,-0.024 6.824,0 6.876,0.024 6.933,0.031 6.988,0.055 7.032,0.066 7.086,0.09 7.121,0.086 7.16,0.109 7.207,0.11 7.23,0.133 7.274,0.121 7.285,0.132 7.328,0.129 7.328,0.133 7.36,0.145 7.371,0.121 7.371,0.133 7.394,0.117 7.395,0.113 7.394,0.109 7.395,0.086 7.394,0.079 7.383,0.066 7.371,0.055 7.348,0.031 7.34,0.012 7.316,-0.012 7.297,-0.02 7.273,-0.054 7.239,-0.078 7.195,-0.11 7.176,-0.133 7.129,-0.164 7.078,-0.199 7.039,-0.242 6.988,-0.262 6.946,-0.308 6.875,-0.34 6.824,-0.387 6.758,-0.426 6.699,-0.472 6.625,-0.508 6.558,-0.571 6.485,-0.605 6.394,-0.656 6.328,-0.715 6.239,-0.77 6.14,-0.824 6.067,-0.879 5.965,-0.933 5.867,-1 5.769,-1.067 5.657,-1.121 5.558,-1.183 5.449,-1.254 5.34,-1.328 5.219,-1.399 5.098,-1.461 4.976,-1.535 4.844,-1.617 4.726,-1.692 4.59,-1.769 4.461,-1.844 4.309,-1.933 4.176,-2.012 4.031,-2.098 3.891,-2.187 3.722,-2.274 3.57,-2.363 3.43,-2.449 3.25,-2.547 3.098,-2.637 2.922,-2.75 2.758,-2.832 2.582,-2.934 2.406,-3.043 2.406,3.043 2.582,2.934 2.758,2.832 2.922,2.75 3.097,2.637 3.254,2.547 3.426,2.449 3.57,2.363 3.727,2.274 3.887,2.187 4.035,2.098 4.172,2.012 4.308,1.933 4.461,1.844 4.59,1.769 4.727,1.692 4.843,1.617 4.977,1.535 5.098,1.461 5.218,1.399 5.34,1.328 5.438,1.254 5.558,1.183 5.672,1.121 5.766,1.067 5.867,1 5.965,0.933 6.066,0.879 6.141,0.824 6.242,0.77 6.317,0.715 6.414,0.656 6.472,0.605 6.559,0.571 6.625,0.508 6.703,0.472 6.754,0.426 6.824,0.387 6.879,0.34 6.941,0.308 6.989,0.262 7.043,0.242 7.086,0.199 7.117,0.164 7.176,0.133 7.207,0.11 7.23,0.078 7.262,0.054 7.293,0.02 7.328,0.012 7.34,-0.012 7.347,-0.031 7.387,-0.055 7.371,-0.066 7.395,-0.079 7.39,-0.086 7.39,-0.109 7.4,-0.113 7.38,-0.117 7.4,-0.133 7.36,-0.121 7.36,-0.145 7.34,-0.133 7.32,-0.129 7.28,-0.132 7.27,-0.121 7.23,-0.133 7.21,-0.11 7.16,-0.109 7.13,-0.086 7.08,-0.09 7.04,-0.066 6.97,-0.055 6.95,-0.031 6.87,-0.024 6.82,0 6.76,0.024 6.69,0.055 6.62,0.074 6.55,0.101 6.48,0.121 6.39,0.164 6.31,0.188 6.24,0.23 6.14,0.25 6.06,0.297 5.95,0.344 5.87,0.371 5.75,0.418 5.66,0.461 5.55,0.508 5.45,0.547 5.32,0.605 5.22,0.649 5.08,0.703 4.97,0.758 4.84,0.8 4.71,0.868 4.59,0.925 4.45,0.989 4.29,1.043 4.18,1.109 4.02,1.176 3.87,1.242 3.71,1.305 3.57,1.386 3.41,1.438 3.25,1.527 3.07,1.594 2.93,1.68 2.74,1.75 2.57,1.832 2.39,1.914 2.22,2 2.03,2.074 1.85,2.164 1.64,2.254 1.46,2.34 1.27,2.437 1.06,2.528 -1.53,-3.539 -1.73,-3.415 -1.91,-3.285 -2.08,-3.164 -2.25,-3.043 -2.43,-2.933 -2.6,-2.813 -2.76,-2.691 -2.92,-2.582 -3.09,-2.473 -3.24,-2.375 -3.38,-2.25 -3.55,-2.152 -3.69,-2.055 -3.84,-1.957 -3.98,-1.855 -4.11,-1.758 -4.26,-1.66 -4.38,-1.582 -4.52,-1.485 -4.63,-1.394 -4.77,-1.309 -4.88,-1.23 -5,-1.141 -5.12,-1.066 -5.22,-0.989 -5.34,-0.914 -5.45,-0.844 -5.54,-0.769 -5.65,-0.703 -5.75,-0.625 -5.83,-0.57 -5.92,-0.508 -6.02,-0.438 -6.1,-0.387 -6.19,-0.328 -6.26,-0.273 -6.34,-0.223 -6.4,-0.164 -6.48,-0.121 -6.55,-0.078 -6.61,-0.031 -6.67,0.011 -6.73,0.055 -6.79,0.086 -6.83,0.133 -6.89,0.164 -6.93,0.199 -6.96,0.219 -7.03,0.254 -7.05,0.285 -7.08,0.297 -7.11,0.328 -7.16,0.344 -7.17,0.359 -7.19,0.387 -7.2,0.383 -7.23,0.406 -7.25,0.418 -7.25,0.418 -7.26,0.43 -7.26,0.425 -7.272,0.442 -7.25,0.429 -7.262,0.426 -7.25,0.43 -7.242,0.418 -7.227,0.406 -7.207,0.395 -7.187,0.386 -7.161,0.371 -7.144,0.352 -7.117,0.332 -7.074,0.316 -7.055,0.286 -7,0.265 -6.977,0.242 -6.922,0.207 -6.875,0.176 -6.824,0.145 -6.789,0.109 -6.711,0.067 -6.66,0.031 -6.602,-0.012 -6.539,-0.055 -6.48,-0.097 -6.395,-0.153 -6.328,-0.199 -6.25,-0.254 -6.164,-0.297 -6.086,-0.363 -6,-0.414 -5.922,-0.484 -5.82,-0.539 -5.726,-0.606 -5.625,-0.668 -5.536,-0.738 -5.429,-0.813 -5.328,-0.879 -5.196,-0.957 -5.109,-1.031 -4.988,-1.109 -4.868,-1.188 -4.746,-1.273 -4.613,-1.363 -4.492,-1.45 -4.375,-1.527 -4.231,-1.625 -4.097,-1.727 -3.953,-1.812 -3.813,-1.898 -3.672,-2.012 -3.515,-2.11 -3.371,-2.218 -3.219,-2.321 -3.055,-2.425 -2.898,-2.539 -2.739,-2.637 -2.57,-2.77 -2.406,-2.867 -2.406,2.867 -2.571,2.77 -2.734,2.637 -2.902,2.539 -3.055,2.425 -3.219,2.321 -3.371,2.218 -3.516,2.11 -3.672,2.012 -3.812,1.898 -3.953,1.812 -4.098,1.727 -4.23,1.625 -4.371,1.527 -4.496,1.45 -4.614,1.363 -4.746,1.273 -4.867,1.188 -4.988,1.109 -5.098,1.031 -5.219,0.957 -5.316,0.879 -5.426,0.813 -5.527,0.738 -5.637,0.668 -5.723,0.606 -5.824,0.539 -5.922,0.484 -5.996,0.414 -6.09,0.363 -6.171,0.297 -6.243,0.254 -6.328,0.199 -6.406,0.153 -6.469,0.097 -6.527,0.055 -6.602,0.012 -6.668,-0.031 -6.715,-0.067 -6.777,-0.109 -6.836,-0.145 -6.875,-0.176 -6.922,-0.207 -6.965,-0.242 -7.011,-0.265 -7.051,-0.286 -7.078,-0.316 -7.117,-0.332 -7.141,-0.352 -7.164,-0.371 -7.184,-0.386 -7.207,-0.395 -7.23,-0.406 -7.242,-0.418 -7.25,-0.43 -7.262,-0.426 -7.262,-0.429 -7.261,-0.442 -7.262,-0.425 -7.25,-0.43 -7.262,-0.418 -7.242,-0.418 -7.219,-0.406 -7.219,-0.383 -7.195,-0.387 -7.164,-0.359 -7.141,-0.344 -7.117,-0.328 -7.086,-0.297 -7.054,-0.285 -7.02,-0.254 -6.965,-0.219 -6.933,-0.199 -6.891,-0.164 -6.832,-0.133 -6.789,-0.086 -6.723,-0.055 -6.679,-0.011 -6.606,0.031 -6.547,0.078 -6.48,0.121 -6.407,0.164 -6.339,0.223 -6.262,0.273 -6.188,0.328 -6.093,0.387 -6.012,0.438 -5.934,0.508 -5.832,0.57 -5.746,0.625 -5.648,0.703 -5.547,0.769 -5.438,0.844 -5.339,0.914 -5.231,0.989 -5.121,1.066 -4.9961,1.141 -4.8906,1.23 -4.7578,1.309 -4.6445,1.394 -4.5078,1.485 -4.3829,1.582 -4.25,1.66 -4.1211,1.758 -3.9765,1.855 -3.8359,1.957 -3.6915,2.055 -3.5468,2.152 -3.3946,2.25 -3.2421,2.375 -3.0743,2.473 -2.9257,2.582 -2.7657,2.691 -2.5937,2.813 -2.4297,2.933 -2.25,3.043 -2.0899,3.164 -1.8984,3.285 -1.7266,3.415 -1.5351,3.539" /><path
         id="path60"
         style="fill:none;stroke:#000000;stroke-width:3.9849999;stroke-linecap:butt;stroke-linejoin:miter;stroke-miterlimit:10;stroke-dasharray:none;stroke-opacity:1"
         d="m 19.3047,541.016 1.0625,-2.528 1.2656,-2.437 1.461,-2.34 1.6601,-2.254 1.832,-2.164 2.0352,-2.074 2.2187,-2 2.3946,-1.914 2.5703,-1.832 2.7344,-1.75 2.9218,-1.68 3.0782,-1.594 3.25,-1.527 3.4062,-1.438 3.5625,-1.386 3.7227,-1.305 3.8672,-1.242 4.0195,-1.176 4.164,-1.109 4.3086,-1.043 4.4493,-0.989 4.582,-0.925 4.7109,-0.868 4.8477,-0.8 4.9648,-0.758 5.0855,-0.703 5.219,-0.649 5.328,-0.605 5.438,-0.547 5.551,-0.508 5.656,-0.461 5.758,-0.418 5.867,-0.371 5.953,-0.344 6.055,-0.297 6.14,-0.25 6.231,-0.23 6.316,-0.188 6.406,-0.164 6.469,-0.121 6.551,-0.101 6.625,-0.074 6.691,-0.055 6.754,-0.024 6.824,0 6.876,0.024 6.933,0.031 6.988,0.055 7.032,0.066 7.086,0.09 7.121,0.086 7.16,0.109 7.207,0.11 7.23,0.133 7.274,0.121 7.285,0.132 7.328,0.129 7.328,0.133 7.36,0.145 7.371,0.121 7.371,0.133 7.394,0.117 7.395,0.113 7.394,0.109 7.395,0.086 7.394,0.079 7.383,0.066 7.371,0.055 7.348,0.031 7.34,0.012 7.316,-0.012 7.297,-0.02 7.273,-0.054 7.239,-0.078 7.195,-0.11 7.176,-0.133 7.129,-0.164 7.078,-0.199 7.039,-0.242 6.988,-0.262 6.946,-0.308 6.875,-0.34 6.824,-0.387 6.758,-0.426 6.699,-0.472 6.625,-0.508 6.558,-0.571 6.485,-0.605 6.394,-0.656 6.328,-0.715 6.239,-0.77 6.14,-0.824 6.067,-0.879 5.965,-0.933 5.867,-1 5.769,-1.067 5.657,-1.121 5.558,-1.183 5.449,-1.254 5.34,-1.328 5.219,-1.399 5.098,-1.461 4.976,-1.535 4.844,-1.617 4.726,-1.692 4.59,-1.769 4.461,-1.844 4.309,-1.933 4.176,-2.012 4.031,-2.098 3.891,-2.187 3.722,-2.274 3.57,-2.363 3.43,-2.449 3.25,-2.547 3.098,-2.637 2.922,-2.75 2.758,-2.832 2.582,-2.934 2.406,-3.043 2.406,3.043 2.582,2.934 2.758,2.832 2.922,2.75 3.097,2.637 3.254,2.547 3.426,2.449 3.57,2.363 3.727,2.274 3.887,2.187 4.035,2.098 4.172,2.012 4.308,1.933 4.461,1.844 4.59,1.769 4.727,1.692 4.843,1.617 4.977,1.535 5.098,1.461 5.218,1.399 5.34,1.328 5.438,1.254 5.558,1.183 5.672,1.121 5.766,1.067 5.867,1 5.965,0.933 6.066,0.879 6.141,0.824 6.242,0.77 6.317,0.715 6.414,0.656 6.472,0.605 6.559,0.571 6.625,0.508 6.703,0.472 6.754,0.426 6.824,0.387 6.879,0.34 6.941,0.308 6.989,0.262 7.043,0.242 7.086,0.199 7.117,0.164 7.176,0.133 7.207,0.11 7.23,0.078 7.262,0.054 7.293,0.02 7.328,0.012 7.34,-0.012 7.347,-0.031 7.387,-0.055 7.371,-0.066 7.395,-0.079 7.39,-0.086 7.39,-0.109 7.4,-0.113 7.38,-0.117 7.4,-0.133 7.36,-0.121 7.36,-0.145 7.34,-0.133 7.32,-0.129 7.28,-0.132 7.27,-0.121 7.23,-0.133 7.21,-0.11 7.16,-0.109 7.13,-0.086 7.08,-0.09 7.04,-0.066 6.97,-0.055 6.95,-0.031 6.87,-0.024 6.82,0 6.76,0.024 6.69,0.055 6.62,0.074 6.55,0.101 6.48,0.121 6.39,0.164 6.31,0.188 6.24,0.23 6.14,0.25 6.06,0.297 5.95,0.344 5.87,0.371 5.75,0.418 5.66,0.461 5.55,0.508 5.45,0.547 5.32,0.605 5.22,0.649 5.08,0.703 4.97,0.758 4.84,0.8 4.71,0.868 4.59,0.925 4.45,0.989 4.29,1.043 4.18,1.109 4.02,1.176 3.87,1.242 3.71,1.305 3.57,1.386 3.41,1.438 3.25,1.527 3.07,1.594 2.93,1.68 2.74,1.75 2.57,1.832 2.39,1.914 2.22,2 2.03,2.074 1.85,2.164 1.64,2.254 1.46,2.34 1.27,2.437 1.06,2.528 -1.53,-3.539 -1.73,-3.415 -1.91,-3.285 -2.08,-3.164 -2.25,-3.043 -2.43,-2.933 -2.6,-2.813 -2.76,-2.691 -2.92,-2.582 -3.09,-2.473 -3.24,-2.375 -3.38,-2.25 -3.55,-2.152 -3.69,-2.055 -3.84,-1.957 -3.98,-1.855 -4.11,-1.758 -4.26,-1.66 -4.38,-1.582 -4.52,-1.485 -4.63,-1.394 -4.77,-1.309 -4.88,-1.23 -5,-1.141 -5.12,-1.066 -5.22,-0.989 -5.34,-0.914 -5.45,-0.844 -5.54,-0.769 -5.65,-0.703 -5.75,-0.625 -5.83,-0.57 -5.92,-0.508 -6.02,-0.438 -6.1,-0.387 -6.19,-0.328 -6.26,-0.273 -6.34,-0.223 -6.4,-0.164 -6.48,-0.121 -6.55,-0.078 -6.61,-0.031 -6.67,0.011 -6.73,0.055 -6.79,0.086 -6.83,0.133 -6.89,0.164 -6.93,0.199 -6.96,0.219 -7.03,0.254 -7.05,0.285 -7.08,0.297 -7.11,0.328 -7.16,0.344 -7.17,0.359 -7.19,0.387 -7.2,0.383 -7.23,0.406 -7.25,0.418 -7.25,0.418 -7.26,0.43 -7.26,0.425 -7.272,0.442 -7.25,0.429 -7.262,0.426 -7.25,0.43 -7.242,0.418 -7.227,0.406 -7.207,0.395 -7.187,0.386 -7.161,0.371 -7.144,0.352 -7.117,0.332 -7.074,0.316 -7.055,0.286 -7,0.265 -6.977,0.242 -6.922,0.207 -6.875,0.176 -6.824,0.145 -6.789,0.109 -6.711,0.067 -6.66,0.031 -6.602,-0.012 -6.539,-0.055 -6.48,-0.097 -6.395,-0.153 -6.328,-0.199 -6.25,-0.254 -6.164,-0.297 -6.086,-0.363 -6,-0.414 -5.922,-0.484 -5.82,-0.539 -5.726,-0.606 -5.625,-0.668 -5.536,-0.738 -5.429,-0.813 -5.328,-0.879 -5.196,-0.957 -5.109,-1.031 -4.988,-1.109 -4.868,-1.188 -4.746,-1.273 -4.613,-1.363 -4.492,-1.45 -4.375,-1.527 -4.231,-1.625 -4.097,-1.727 -3.953,-1.812 -3.813,-1.898 -3.672,-2.012 -3.515,-2.11 -3.371,-2.218 -3.219,-2.321 -3.055,-2.425 -2.898,-2.539 -2.739,-2.637 -2.57,-2.77 -2.406,-2.867 -2.406,2.867 -2.571,2.77 -2.734,2.637 -2.902,2.539 -3.055,2.425 -3.219,2.321 -3.371,2.218 -3.516,2.11 -3.672,2.012 -3.812,1.898 -3.953,1.812 -4.098,1.727 -4.23,1.625 -4.371,1.527 -4.496,1.45 -4.614,1.363 -4.746,1.273 -4.867,1.188 -4.988,1.109 -5.098,1.031 -5.219,0.957 -5.316,0.879 -5.426,0.813 -5.527,0.738 -5.637,0.668 -5.723,0.606 -5.824,0.539 -5.922,0.484 -5.996,0.414 -6.09,0.363 -6.171,0.297 -6.243,0.254 -6.328,0.199 -6.406,0.153 -6.469,0.097 -6.527,0.055 -6.602,0.012 -6.668,-0.031 -6.715,-0.067 -6.777,-0.109 -6.836,-0.145 -6.875,-0.176 -6.922,-0.207 -6.965,-0.242 -7.011,-0.265 -7.051,-0.286 -7.078,-0.316 -7.117,-0.332 -7.141,-0.352 -7.164,-0.371 -7.184,-0.386 -7.207,-0.395 -7.23,-0.406 -7.242,-0.418 -7.25,-0.43 -7.262,-0.426 -7.262,-0.429 -7.261,-0.442 -7.262,-0.425 -7.25,-0.43 -7.262,-0.418 -7.242,-0.418 -7.219,-0.406 -7.219,-0.383 -7.195,-0.387 -7.164,-0.359 -7.141,-0.344 -7.117,-0.328 -7.086,-0.297 -7.054,-0.285 -7.02,-0.254 -6.965,-0.219 -6.933,-0.199 -6.891,-0.164 -6.832,-0.133 -6.789,-0.086 -6.723,-0.055 -6.679,-0.011 -6.606,0.031 -6.547,0.078 -6.48,0.121 -6.407,0.164 -6.339,0.223 -6.262,0.273 -6.188,0.328 -6.093,0.387 -6.012,0.438 -5.934,0.508 -5.832,0.57 -5.746,0.625 -5.648,0.703 -5.547,0.769 -5.438,0.844 -5.339,0.914 -5.231,0.989 -5.121,1.066 -4.9961,1.141 -4.8906,1.23 -4.7578,1.309 -4.6445,1.394 -4.5078,1.485 -4.3829,1.582 -4.25,1.66 -4.1211,1.758 -3.9765,1.855 -3.8359,1.957 -3.6915,2.055 -3.5468,2.152 -3.3946,2.25 -3.2421,2.375 -3.0743,2.473 -2.9257,2.582 -2.7657,2.691 -2.5937,2.813 -2.4297,2.933 -2.25,3.043 -2.0899,3.164 -1.8984,3.285 -1.7266,3.415 -1.5351,3.539 z" /><g
         transform="matrix(210,0,0,-159.6,1583,434.787)"
         id="g62"><rect
           id="rect64"
           style="fill:#ffffff;fill-opacity:1;fill-rule:nonzero"
           transform="matrix(1,0,0,-1,0,1)"
           height="1"
           width="1"
           y="0"
           x="0" /></g><g
         transform="scale(10,10)"
         id="g66"><text
           id="text68"
           style="font-variant:normal;font-weight:normal;font-size:9.96263981px;font-family:CMR10;-inkscape-font-specification:CMR10;writing-mode:lr-tb;fill:#000000;fill-opacity:1;fill-rule:nonzero;stroke:none"
           transform="matrix(1,0,0,-1,161.312,33.0508)"><tspan
             id="tspan70"
             y="0"
             x="0">1</tspan></text>
<text
           id="text72"
           style="font-variant:normal;font-weight:normal;font-size:9.96263981px;font-family:CMMI10;-inkscape-font-specification:CMMI10;writing-mode:lr-tb;fill:#000000;fill-opacity:1;fill-rule:nonzero;stroke:none"
           transform="matrix(1,0,0,-1,166.35184,33.0508)"><tspan
             id="tspan74"
             y="0"
             x="0">/</tspan></text>
<text
           id="text76"
           style="font-variant:normal;font-weight:normal;font-size:9.96263981px;font-family:CMR10;-inkscape-font-specification:CMR10;writing-mode:lr-tb;fill:#000000;fill-opacity:1;fill-rule:nonzero;stroke:none"
           transform="matrix(1,0,0,-1,171.39168,33.0508)"><tspan
             id="tspan78"
             y="0"
             x="0">2</tspan></text>
</g><path
         id="path80"
         style="fill:#000000;fill-opacity:1;fill-rule:nonzero;stroke:none"
         d="m 1369.32,541.016 0.99,-2.528 1.07,-2.437 1.1,-2.34 1.19,-2.254 1.23,-2.164 1.29,-2.074 1.35,-2 1.41,-1.914 1.46,-1.832 1.51,-1.75 1.57,-1.68 1.62,-1.594 1.67,-1.527 1.72,-1.438 1.78,-1.386 1.83,-1.305 1.85,-1.242 1.93,-1.176 1.96,-1.109 2.01,-1.043 2.06,-0.989 2.1,-0.925 2.14,-0.868 2.18,-0.8 2.23,-0.758 2.27,-0.703 2.3,-0.649 2.34,-0.605 2.39,-0.547 2.43,-0.508 2.46,-0.461 2.48,-0.418 2.54,-0.371 2.56,-0.344 2.59,-0.297 2.64,-0.25 2.66,-0.23 2.68,-0.188 2.72,-0.164 2.76,-0.121 2.77,-0.101 2.8,-0.074 2.84,-0.055 2.85,-0.024 2.88,0 2.91,0.024 2.94,0.031 2.94,0.055 2.98,0.066 2.99,0.09 3,0.086 3.04,0.109 3.05,0.11 3.05,0.133 3.11,0.121 3.08,0.132 3.11,0.129 3.13,0.133 3.14,0.145 3.16,0.121 3.15,0.133 3.17,0.117 3.19,0.113 3.19,0.109 3.21,0.086 3.2,0.079 3.21,0.066 3.22,0.055 3.22,0.031 3.23,0.012 3.23,-0.012 3.23,-0.02 3.23,-0.054 3.23,-0.078 3.23,-0.11 3.23,-0.133 3.23,-0.164 3.23,-0.199 3.22,-0.242 3.22,-0.262 3.21,-0.308 3.2,-0.34 3.2,-0.387 3.19,-0.426 3.17,-0.472 3.18,-0.508 3.15,-0.571 3.15,-0.605 3.14,-0.656 3.12,-0.715 3.11,-0.77 3.09,-0.824 3.09,-0.879 3.05,-0.933 3.05,-1 3.03,-1.067 3.01,-1.121 2.99,-1.183 2.96,-1.254 2.95,-1.328 2.91,-1.399 2.9,-1.461 2.88,-1.535 2.84,-1.617 2.83,-1.692 2.8,-1.769 2.77,-1.844 2.73,-1.933 2.72,-2.012 2.69,-2.098 2.65,-2.187 2.62,-2.274 2.58,-2.363 2.56,-2.449 2.52,-2.547 2.48,-2.637 2.45,-2.75 2.41,-2.832 2.38,-2.934 2.33,-3.043 2.33,3.043 2.38,2.934 2.41,2.832 2.45,2.75 2.48,2.637 2.52,2.547 2.56,2.449 2.58,2.363 2.63,2.274 2.64,2.187 2.7,2.098 2.71,2.012 2.73,1.933 2.77,1.844 2.8,1.769 2.83,1.692 2.85,1.617 2.87,1.535 2.9,1.461 2.91,1.399 2.95,1.328 2.96,1.254 2.99,1.183 3.01,1.121 3.04,1.067 3.04,1 3.05,0.933 3.09,0.879 3.09,0.824 3.11,0.77 3.12,0.715 3.14,0.656 3.15,0.605 3.15,0.571 3.18,0.508 3.18,0.472 3.18,0.426 3.2,0.387 3.21,0.34 3.21,0.308 3.22,0.262 3.21,0.242 3.24,0.199 3.23,0.164 3.22,0.133 3.23,0.11 3.23,0.078 3.23,0.054 3.23,0.02 3.23,0.012 3.23,-0.012 3.22,-0.031 3.22,-0.055 3.21,-0.066 3.21,-0.079 3.21,-0.086 3.18,-0.109 3.19,-0.113 3.17,-0.117 3.16,-0.133 3.15,-0.121 3.14,-0.145 3.13,-0.133 3.11,-0.129 3.09,-0.132 3.1,-0.121 3.05,-0.133 3.05,-0.11 3.04,-0.109 3.01,-0.086 2.99,-0.09 2.97,-0.066 2.95,-0.055 2.93,-0.031 2.91,-0.024 2.88,0 2.85,0.024 2.84,0.055 2.8,0.074 2.77,0.101 2.76,0.121 2.73,0.164 2.68,0.188 2.65,0.23 2.64,0.25 2.59,0.297 2.57,0.344 2.53,0.371 2.49,0.418 2.46,0.461 2.42,0.508 2.39,0.547 2.34,0.605 2.31,0.649 2.26,0.703 2.23,0.758 2.19,0.8 2.14,0.868 2.09,0.925 2.06,0.989 2.01,1.043 1.97,1.109 1.92,1.176 1.86,1.242 1.82,1.305 1.78,1.386 1.73,1.438 1.66,1.527 1.62,1.594 1.57,1.68 1.52,1.75 1.46,1.832 1.4,1.914 1.36,2 1.28,2.074 1.23,2.164 1.19,2.254 1.11,2.34 1.06,2.437 0.99,2.528 -1.47,-3.539 -1.52,-3.415 -1.55,-3.285 -1.61,-3.164 -1.65,-3.043 -1.68,-2.933 -1.74,-2.813 -1.76,-2.691 -1.82,-2.582 -1.85,-2.473 -1.89,-2.375 -1.94,-2.25 -1.96,-2.152 -2.01,-2.055 -2.05,-1.957 -2.07,-1.855 -2.12,-1.758 -2.15,-1.66 -2.18,-1.582 -2.22,-1.485 -2.25,-1.394 -2.28,-1.309 -2.32,-1.23 -2.34,-1.141 -2.38,-1.066 -2.41,-0.989 -2.43,-0.914 -2.46,-0.844 -2.49,-0.769 -2.51,-0.703 -2.56,-0.625 -2.57,-0.57 -2.59,-0.508 -2.61,-0.438 -2.65,-0.387 -2.67,-0.328 -2.68,-0.273 -2.71,-0.223 -2.74,-0.164 -2.76,-0.121 -2.77,-0.078 -2.79,-0.031 -2.81,0.011 -2.82,0.055 -2.86,0.086 -2.86,0.133 -2.87,0.164 -2.9,0.199 -2.92,0.219 -2.92,0.254 -2.94,0.285 -2.95,0.297 -2.96,0.328 -2.98,0.344 -2.99,0.359 -3,0.387 -3.01,0.383 -3.01,0.406 -3.02,0.418 -3.03,0.418 -3.06,0.43 -3.04,0.425 -3.06,0.442 -3.04,0.429 -3.07,0.426 -3.07,0.43 -3.07,0.418 -3.07,0.406 -3.08,0.395 -3.07,0.386 -3.07,0.371 -3.08,0.352 -3.08,0.332 -3.08,0.316 -3.06,0.286 -3.08,0.265 -3.06,0.242 -3.08,0.207 -3.05,0.176 -3.06,0.145 -3.05,0.109 -3.05,0.067 -3.03,0.031 -3.03,-0.012 -3.02,-0.055 -3.01,-0.097 -3,-0.153 -3,-0.199 -2.98,-0.254 -2.98,-0.297 -2.95,-0.363 -2.94,-0.414 -2.94,-0.484 -2.92,-0.539 -2.9,-0.606 -2.89,-0.668 -2.88,-0.738 -2.86,-0.813 -2.84,-0.879 -2.83,-0.957 -2.78,-1.031 -2.8,-1.109 -2.76,-1.188 -2.74,-1.273 -2.72,-1.363 -2.72,-1.45 -2.67,-1.527 -2.66,-1.625 -2.62,-1.727 -2.62,-1.812 -2.59,-1.898 -2.55,-2.012 -2.54,-2.11 -2.5,-2.218 -2.48,-2.321 -2.44,-2.425 -2.43,-2.539 -2.4,-2.637 -2.36,-2.77 -2.33,-2.867 -2.33,2.867 -2.36,2.77 -2.4,2.637 -2.42,2.539 -2.45,2.425 -2.47,2.321 -2.51,2.218 -2.54,2.11 -2.55,2.012 -2.59,1.898 -2.61,1.812 -2.63,1.727 -2.66,1.625 -2.67,1.527 -2.71,1.45 -2.73,1.363 -2.73,1.273 -2.77,1.188 -2.79,1.109 -2.79,1.031 -2.83,0.957 -2.84,0.879 -2.86,0.813 -2.88,0.738 -2.88,0.668 -2.91,0.606 -2.92,0.539 -2.93,0.484 -2.95,0.414 -2.95,0.363 -2.98,0.297 -2.98,0.254 -2.99,0.199 -3,0.153 -3.02,0.097 -3.01,0.055 -3.04,0.012 -3.03,-0.031 -3.04,-0.067 -3.06,-0.109 -3.05,-0.145 -3.06,-0.176 -3.07,-0.207 -3.07,-0.242 -3.07,-0.265 -3.07,-0.286 -3.07,-0.316 -3.08,-0.332 -3.09,-0.352 -3.06,-0.371 -3.08,-0.386 -3.08,-0.395 -3.07,-0.406 -3.07,-0.418 -3.06,-0.43 -3.08,-0.426 -3.04,-0.429 -3.06,-0.442 -3.04,-0.425 -3.05,-0.43 -3.04,-0.418 -3.02,-0.418 -3.01,-0.406 -3.01,-0.383 -3,-0.387 -2.99,-0.359 -2.97,-0.344 -2.97,-0.328 -2.94,-0.297 -2.95,-0.285 -2.92,-0.254 -2.91,-0.219 -2.9,-0.199 -2.88,-0.164 -2.86,-0.133 -2.86,-0.086 -2.82,-0.055 -2.81,-0.011 -2.79,0.031 -2.77,0.078 -2.76,0.121 -2.73,0.164 -2.72,0.223 -2.68,0.273 -2.67,0.328 -2.64,0.387 -2.62,0.438 -2.59,0.508 -2.57,0.57 -2.55,0.625 -2.52,0.703 -2.49,0.769 -2.46,0.844 -2.43,0.914 -2.41,0.989 -2.38,1.066 -2.34,1.141 -2.32,1.23 -2.27,1.309 -2.26,1.394 -2.22,1.485 -2.18,1.582 -2.14,1.66 -2.13,1.758 -2.07,1.855 -2.04,1.957 -2.01,2.055 -1.97,2.152 -1.93,2.25 -1.89,2.375 -1.86,2.473 -1.82,2.582 -1.76,2.691 -1.74,2.813 -1.68,2.933 -1.65,3.043 -1.6,3.164 -1.56,3.285 -1.52,3.415 -1.47,3.539" /><path
         id="path82"
         style="fill:none;stroke:#000000;stroke-width:3.9849999;stroke-linecap:butt;stroke-linejoin:miter;stroke-miterlimit:10;stroke-dasharray:none;stroke-opacity:1"
         d="m 1369.32,541.016 0.99,-2.528 1.07,-2.437 1.1,-2.34 1.19,-2.254 1.23,-2.164 1.29,-2.074 1.35,-2 1.41,-1.914 1.46,-1.832 1.51,-1.75 1.57,-1.68 1.62,-1.594 1.67,-1.527 1.72,-1.438 1.78,-1.386 1.83,-1.305 1.85,-1.242 1.93,-1.176 1.96,-1.109 2.01,-1.043 2.06,-0.989 2.1,-0.925 2.14,-0.868 2.18,-0.8 2.23,-0.758 2.27,-0.703 2.3,-0.649 2.34,-0.605 2.39,-0.547 2.43,-0.508 2.46,-0.461 2.48,-0.418 2.54,-0.371 2.56,-0.344 2.59,-0.297 2.64,-0.25 2.66,-0.23 2.68,-0.188 2.72,-0.164 2.76,-0.121 2.77,-0.101 2.8,-0.074 2.84,-0.055 2.85,-0.024 2.88,0 2.91,0.024 2.94,0.031 2.94,0.055 2.98,0.066 2.99,0.09 3,0.086 3.04,0.109 3.05,0.11 3.05,0.133 3.11,0.121 3.08,0.132 3.11,0.129 3.13,0.133 3.14,0.145 3.16,0.121 3.15,0.133 3.17,0.117 3.19,0.113 3.19,0.109 3.21,0.086 3.2,0.079 3.21,0.066 3.22,0.055 3.22,0.031 3.23,0.012 3.23,-0.012 3.23,-0.02 3.23,-0.054 3.23,-0.078 3.23,-0.11 3.23,-0.133 3.23,-0.164 3.23,-0.199 3.22,-0.242 3.22,-0.262 3.21,-0.308 3.2,-0.34 3.2,-0.387 3.19,-0.426 3.17,-0.472 3.18,-0.508 3.15,-0.571 3.15,-0.605 3.14,-0.656 3.12,-0.715 3.11,-0.77 3.09,-0.824 3.09,-0.879 3.05,-0.933 3.05,-1 3.03,-1.067 3.01,-1.121 2.99,-1.183 2.96,-1.254 2.95,-1.328 2.91,-1.399 2.9,-1.461 2.88,-1.535 2.84,-1.617 2.83,-1.692 2.8,-1.769 2.77,-1.844 2.73,-1.933 2.72,-2.012 2.69,-2.098 2.65,-2.187 2.62,-2.274 2.58,-2.363 2.56,-2.449 2.52,-2.547 2.48,-2.637 2.45,-2.75 2.41,-2.832 2.38,-2.934 2.33,-3.043 2.33,3.043 2.38,2.934 2.41,2.832 2.45,2.75 2.48,2.637 2.52,2.547 2.56,2.449 2.58,2.363 2.63,2.274 2.64,2.187 2.7,2.098 2.71,2.012 2.73,1.933 2.77,1.844 2.8,1.769 2.83,1.692 2.85,1.617 2.87,1.535 2.9,1.461 2.91,1.399 2.95,1.328 2.96,1.254 2.99,1.183 3.01,1.121 3.04,1.067 3.04,1 3.05,0.933 3.09,0.879 3.09,0.824 3.11,0.77 3.12,0.715 3.14,0.656 3.15,0.605 3.15,0.571 3.18,0.508 3.18,0.472 3.18,0.426 3.2,0.387 3.21,0.34 3.21,0.308 3.22,0.262 3.21,0.242 3.24,0.199 3.23,0.164 3.22,0.133 3.23,0.11 3.23,0.078 3.23,0.054 3.23,0.02 3.23,0.012 3.23,-0.012 3.22,-0.031 3.22,-0.055 3.21,-0.066 3.21,-0.079 3.21,-0.086 3.18,-0.109 3.19,-0.113 3.17,-0.117 3.16,-0.133 3.15,-0.121 3.14,-0.145 3.13,-0.133 3.11,-0.129 3.09,-0.132 3.1,-0.121 3.05,-0.133 3.05,-0.11 3.04,-0.109 3.01,-0.086 2.99,-0.09 2.97,-0.066 2.95,-0.055 2.93,-0.031 2.91,-0.024 2.88,0 2.85,0.024 2.84,0.055 2.8,0.074 2.77,0.101 2.76,0.121 2.73,0.164 2.68,0.188 2.65,0.23 2.64,0.25 2.59,0.297 2.57,0.344 2.53,0.371 2.49,0.418 2.46,0.461 2.42,0.508 2.39,0.547 2.34,0.605 2.31,0.649 2.26,0.703 2.23,0.758 2.19,0.8 2.14,0.868 2.09,0.925 2.06,0.989 2.01,1.043 1.97,1.109 1.92,1.176 1.86,1.242 1.82,1.305 1.78,1.386 1.73,1.438 1.66,1.527 1.62,1.594 1.57,1.68 1.52,1.75 1.46,1.832 1.4,1.914 1.36,2 1.28,2.074 1.23,2.164 1.19,2.254 1.11,2.34 1.06,2.437 0.99,2.528 -1.47,-3.539 -1.52,-3.415 -1.55,-3.285 -1.61,-3.164 -1.65,-3.043 -1.68,-2.933 -1.74,-2.813 -1.76,-2.691 -1.82,-2.582 -1.85,-2.473 -1.89,-2.375 -1.94,-2.25 -1.96,-2.152 -2.01,-2.055 -2.05,-1.957 -2.07,-1.855 -2.12,-1.758 -2.15,-1.66 -2.18,-1.582 -2.22,-1.485 -2.25,-1.394 -2.28,-1.309 -2.32,-1.23 -2.34,-1.141 -2.38,-1.066 -2.41,-0.989 -2.43,-0.914 -2.46,-0.844 -2.49,-0.769 -2.51,-0.703 -2.56,-0.625 -2.57,-0.57 -2.59,-0.508 -2.61,-0.438 -2.65,-0.387 -2.67,-0.328 -2.68,-0.273 -2.71,-0.223 -2.74,-0.164 -2.76,-0.121 -2.77,-0.078 -2.79,-0.031 -2.81,0.011 -2.82,0.055 -2.86,0.086 -2.86,0.133 -2.87,0.164 -2.9,0.199 -2.92,0.219 -2.92,0.254 -2.94,0.285 -2.95,0.297 -2.96,0.328 -2.98,0.344 -2.99,0.359 -3,0.387 -3.01,0.383 -3.01,0.406 -3.02,0.418 -3.03,0.418 -3.06,0.43 -3.04,0.425 -3.06,0.442 -3.04,0.429 -3.07,0.426 -3.07,0.43 -3.07,0.418 -3.07,0.406 -3.08,0.395 -3.07,0.386 -3.07,0.371 -3.08,0.352 -3.08,0.332 -3.08,0.316 -3.06,0.286 -3.08,0.265 -3.06,0.242 -3.08,0.207 -3.05,0.176 -3.06,0.145 -3.05,0.109 -3.05,0.067 -3.03,0.031 -3.03,-0.012 -3.02,-0.055 -3.01,-0.097 -3,-0.153 -3,-0.199 -2.98,-0.254 -2.98,-0.297 -2.95,-0.363 -2.94,-0.414 -2.94,-0.484 -2.92,-0.539 -2.9,-0.606 -2.89,-0.668 -2.88,-0.738 -2.86,-0.813 -2.84,-0.879 -2.83,-0.957 -2.78,-1.031 -2.8,-1.109 -2.76,-1.188 -2.74,-1.273 -2.72,-1.363 -2.72,-1.45 -2.67,-1.527 -2.66,-1.625 -2.62,-1.727 -2.62,-1.812 -2.59,-1.898 -2.55,-2.012 -2.54,-2.11 -2.5,-2.218 -2.48,-2.321 -2.44,-2.425 -2.43,-2.539 -2.4,-2.637 -2.36,-2.77 -2.33,-2.867 -2.33,2.867 -2.36,2.77 -2.4,2.637 -2.42,2.539 -2.45,2.425 -2.47,2.321 -2.51,2.218 -2.54,2.11 -2.55,2.012 -2.59,1.898 -2.61,1.812 -2.63,1.727 -2.66,1.625 -2.67,1.527 -2.71,1.45 -2.73,1.363 -2.73,1.273 -2.77,1.188 -2.79,1.109 -2.79,1.031 -2.83,0.957 -2.84,0.879 -2.86,0.813 -2.88,0.738 -2.88,0.668 -2.91,0.606 -2.92,0.539 -2.93,0.484 -2.95,0.414 -2.95,0.363 -2.98,0.297 -2.98,0.254 -2.99,0.199 -3,0.153 -3.02,0.097 -3.01,0.055 -3.04,0.012 -3.03,-0.031 -3.04,-0.067 -3.06,-0.109 -3.05,-0.145 -3.06,-0.176 -3.07,-0.207 -3.07,-0.242 -3.07,-0.265 -3.07,-0.286 -3.07,-0.316 -3.08,-0.332 -3.09,-0.352 -3.06,-0.371 -3.08,-0.386 -3.08,-0.395 -3.07,-0.406 -3.07,-0.418 -3.06,-0.43 -3.08,-0.426 -3.04,-0.429 -3.06,-0.442 -3.04,-0.425 -3.05,-0.43 -3.04,-0.418 -3.02,-0.418 -3.01,-0.406 -3.01,-0.383 -3,-0.387 -2.99,-0.359 -2.97,-0.344 -2.97,-0.328 -2.94,-0.297 -2.95,-0.285 -2.92,-0.254 -2.91,-0.219 -2.9,-0.199 -2.88,-0.164 -2.86,-0.133 -2.86,-0.086 -2.82,-0.055 -2.81,-0.011 -2.79,0.031 -2.77,0.078 -2.76,0.121 -2.73,0.164 -2.72,0.223 -2.68,0.273 -2.67,0.328 -2.64,0.387 -2.62,0.438 -2.59,0.508 -2.57,0.57 -2.55,0.625 -2.52,0.703 -2.49,0.769 -2.46,0.844 -2.43,0.914 -2.41,0.989 -2.38,1.066 -2.34,1.141 -2.32,1.23 -2.27,1.309 -2.26,1.394 -2.22,1.485 -2.18,1.582 -2.14,1.66 -2.13,1.758 -2.07,1.855 -2.04,1.957 -2.01,2.055 -1.97,2.152 -1.93,2.25 -1.89,2.375 -1.86,2.473 -1.82,2.582 -1.76,2.691 -1.74,2.813 -1.68,2.933 -1.65,3.043 -1.6,3.164 -1.56,3.285 -1.52,3.415 -1.47,3.539 z" /><g
         transform="matrix(210,0,0,-159.6,2089.26,434.787)"
         id="g84"><rect
           id="rect86"
           style="fill:#ffffff;fill-opacity:1;fill-rule:nonzero"
           transform="matrix(1,0,0,-1,0,1)"
           height="1"
           width="1"
           y="0"
           x="0" /></g><g
         transform="scale(10,10)"
         id="g88"><text
           id="text90"
           style="font-variant:normal;font-weight:normal;font-size:9.96263981px;font-family:CMR10;-inkscape-font-specification:CMR10;writing-mode:lr-tb;fill:#000000;fill-opacity:1;fill-rule:nonzero;stroke:none"
           transform="matrix(1,0,0,-1,211.938,33.0508)"><tspan
             id="tspan92"
             y="0"
             x="0">1</tspan></text>
<text
           id="text94"
           style="font-variant:normal;font-weight:normal;font-size:9.96263981px;font-family:CMMI10;-inkscape-font-specification:CMMI10;writing-mode:lr-tb;fill:#000000;fill-opacity:1;fill-rule:nonzero;stroke:none"
           transform="matrix(1,0,0,-1,216.97784,33.0508)"><tspan
             id="tspan96"
             y="0"
             x="0">/</tspan></text>
<text
           id="text98"
           style="font-variant:normal;font-weight:normal;font-size:9.96263981px;font-family:CMR10;-inkscape-font-specification:CMR10;writing-mode:lr-tb;fill:#000000;fill-opacity:1;fill-rule:nonzero;stroke:none"
           transform="matrix(1,0,0,-1,222.01768,33.0508)"><tspan
             id="tspan100"
             y="0"
             x="0">4</tspan></text>
</g><path
         id="path102"
         style="fill:#000000;fill-opacity:1;fill-rule:nonzero;stroke:none"
         d="m 2034.67,541.016 0.51,-1.012 0.52,-0.965 0.57,-0.922 0.58,-0.879 0.61,-0.847 0.65,-0.813 0.67,-0.758 0.72,-0.738 0.72,-0.691 0.76,-0.661 0.78,-0.613 0.81,-0.594 0.84,-0.558 0.86,-0.52 0.88,-0.492 0.92,-0.461 0.93,-0.43 0.95,-0.394 1,-0.375 0.99,-0.34 1.04,-0.308 1.05,-0.297 1.07,-0.262 1.08,-0.231 1.12,-0.222 1.14,-0.184 1.15,-0.176 1.18,-0.144 1.18,-0.133 1.21,-0.098 1.23,-0.086 1.25,-0.078 1.27,-0.043 1.28,-0.035 1.3,-0.019 1.32,0 1.31,0.008 1.36,0.023 1.36,0.043 1.37,0.055 1.39,0.054 1.4,0.078 1.41,0.09 1.44,0.086 1.44,0.098 1.45,0.109 1.46,0.121 1.48,0.121 1.48,0.122 1.5,0.132 1.5,0.133 1.52,0.133 1.53,0.141 1.52,0.144 1.54,0.141 1.55,0.133 1.57,0.144 1.56,0.129 1.57,0.145 1.57,0.132 1.59,0.121 1.58,0.118 1.59,0.121 1.6,0.113 1.6,0.098 1.6,0.086 1.61,0.089 1.6,0.079 1.62,0.054 1.61,0.055 1.62,0.043 1.61,0.023 1.62,0.02 1.61,0 1.62,-0.02 1.61,-0.035 1.62,-0.043 1.61,-0.066 1.61,-0.09 1.61,-0.109 1.61,-0.121 1.6,-0.141 1.59,-0.164 1.61,-0.199 1.58,-0.207 1.59,-0.231 1.57,-0.266 1.58,-0.285 1.58,-0.32 1.55,-0.34 1.55,-0.363 1.56,-0.395 1.53,-0.429 1.53,-0.461 1.53,-0.481 1.5,-0.519 1.51,-0.559 1.49,-0.582 1.48,-0.617 1.48,-0.656 1.46,-0.696 1.45,-0.722 1.44,-0.758 1.42,-0.805 1.41,-0.844 1.41,-0.878 1.37,-0.922 1.38,-0.957 1.36,-1.012 1.34,-1.043 1.32,-1.086 1.3,-1.145 1.3,-1.175 1.27,-1.231 1.27,-1.273 1.25,-1.321 1.22,-1.363 1.19,-1.414 1.2,-1.473 1.17,-1.515 1.16,1.515 1.2,1.473 1.2,1.414 1.22,1.363 1.25,1.321 1.26,1.273 1.28,1.231 1.29,1.175 1.31,1.145 1.32,1.086 1.34,1.043 1.35,1.012 1.38,0.957 1.38,0.922 1.4,0.878 1.41,0.844 1.43,0.805 1.44,0.758 1.45,0.722 1.46,0.696 1.47,0.656 1.49,0.617 1.49,0.582 1.51,0.559 1.5,0.519 1.53,0.481 1.52,0.461 1.54,0.429 1.55,0.395 1.56,0.363 1.55,0.34 1.57,0.32 1.59,0.285 1.57,0.266 1.59,0.231 1.58,0.207 1.6,0.199 1.6,0.164 1.6,0.141 1.6,0.121 1.62,0.109 1.6,0.09 1.62,0.066 1.61,0.043 1.62,0.035 1.61,0.02 1.62,0 1.61,-0.02 1.62,-0.023 1.61,-0.043 1.62,-0.055 1.62,-0.054 1.6,-0.079 1.6,-0.089 1.61,-0.086 1.6,-0.098 1.59,-0.113 1.6,-0.121 1.58,-0.118 1.58,-0.121 1.57,-0.132 1.57,-0.145 1.56,-0.129 1.57,-0.144 1.55,-0.133 1.54,-0.141 1.53,-0.144 1.53,-0.141 1.51,-0.133 1.51,-0.133 1.49,-0.132 1.49,-0.122 1.48,-0.121 1.46,-0.121 1.45,-0.109 1.44,-0.098 1.44,-0.086 1.4,-0.09 1.41,-0.078 1.38,-0.054 1.38,-0.055 1.36,-0.043 1.35,-0.023 1.32,-0.008 1.32,0 1.29,0.019 1.29,0.035 1.26,0.043 1.25,0.078 1.23,0.086 1.22,0.098 1.18,0.133 1.17,0.144 1.16,0.176 1.13,0.184 1.12,0.222 1.09,0.231 1.07,0.262 1.05,0.297 1.03,0.308 1,0.34 0.99,0.375 0.96,0.394 0.93,0.43 0.91,0.461 0.88,0.492 0.87,0.52 0.83,0.558 0.82,0.594 0.78,0.613 0.76,0.661 0.72,0.691 0.71,0.738 0.68,0.758 0.64,0.813 0.62,0.847 0.58,0.879 0.56,0.922 0.53,0.965 0.5,1.012 -0.65,-1.317 -0.65,-1.254 -0.7,-1.207 -0.71,-1.168 -0.75,-1.097 -0.77,-1.067 -0.77,-1.008 -0.82,-0.968 -0.83,-0.91 -0.86,-0.879 -0.89,-0.825 -0.9,-0.793 -0.92,-0.746 -0.95,-0.703 -0.98,-0.66 -0.98,-0.625 -1,-0.582 -1.04,-0.551 -1.04,-0.504 -1.08,-0.472 -1.07,-0.442 -1.11,-0.406 -1.12,-0.359 -1.15,-0.344 -1.15,-0.305 -1.18,-0.277 -1.2,-0.25 -1.19,-0.211 -1.23,-0.195 -1.24,-0.157 -1.26,-0.14 -1.26,-0.114 -1.3,-0.085 -1.29,-0.067 -1.31,-0.043 -1.33,-0.012 -1.33,0 -1.36,0.024 -1.37,0.031 -1.37,0.055 -1.38,0.078 -1.4,0.086 -1.42,0.109 -1.41,0.121 -1.43,0.133 -1.44,0.145 -1.46,0.152 -1.45,0.176 -1.47,0.176 -1.47,0.187 -1.49,0.199 -1.49,0.196 -1.51,0.211 -1.5,0.207 -1.51,0.218 -1.53,0.223 -1.51,0.219 -1.54,0.23 -1.52,0.219 -1.54,0.23 -1.55,0.231 -1.55,0.219 -1.55,0.222 -1.56,0.207 -1.56,0.219 -1.56,0.199 -1.56,0.2 -1.57,0.195 -1.56,0.187 -1.57,0.164 -1.57,0.164 -1.58,0.157 -1.56,0.14 -1.57,0.133 -1.57,0.11 -1.57,0.101 -1.57,0.086 -1.56,0.066 -1.56,0.055 -1.56,0.031 -1.56,0.012 -1.55,-0.012 -1.55,-0.019 -1.55,-0.055 -1.54,-0.066 -1.54,-0.098 -1.53,-0.121 -1.53,-0.145 -1.53,-0.175 -1.51,-0.2 -1.51,-0.23 -1.5,-0.262 -1.5,-0.285 -1.48,-0.32 -1.48,-0.352 -1.48,-0.371 -1.46,-0.418 -1.46,-0.453 -1.44,-0.492 -1.44,-0.516 -1.42,-0.562 -1.41,-0.602 -1.41,-0.64 -1.39,-0.668 -1.39,-0.727 -1.37,-0.758 -1.35,-0.801 -1.34,-0.847 -1.34,-0.891 -1.32,-0.933 -1.31,-0.977 -1.28,-1.031 -1.29,-1.078 -1.25,-1.133 -1.25,-1.176 -1.23,-1.219 -1.22,-1.285 -1.2,-1.328 -1.19,-1.387 -1.16,-1.437 -1.17,1.437 -1.18,1.387 -1.2,1.328 -1.22,1.285 -1.23,1.219 -1.25,1.176 -1.26,1.133 -1.28,1.078 -1.29,1.031 -1.31,0.977 -1.31,0.933 -1.34,0.891 -1.34,0.847 -1.35,0.801 -1.38,0.758 -1.38,0.727 -1.4,0.668 -1.4,0.64 -1.41,0.602 -1.43,0.562 -1.44,0.516 -1.44,0.492 -1.46,0.453 -1.46,0.418 -1.47,0.371 -1.49,0.352 -1.48,0.32 -1.49,0.285 -1.51,0.262 -1.5,0.23 -1.52,0.2 -1.53,0.175 -1.52,0.145 -1.53,0.121 -1.54,0.098 -1.55,0.066 -1.54,0.055 -1.56,0.019 -1.54,0.012 -1.56,-0.012 -1.56,-0.031 -1.57,-0.055 -1.55,-0.066 -1.57,-0.086 -1.57,-0.101 -1.58,-0.11 -1.57,-0.133 -1.56,-0.14 -1.57,-0.157 -1.57,-0.164 -1.57,-0.164 -1.56,-0.187 -1.57,-0.195 -1.56,-0.2 -1.56,-0.199 -1.56,-0.219 -1.56,-0.207 -1.55,-0.222 -1.55,-0.219 -1.55,-0.231 -1.54,-0.23 -1.52,-0.219 -1.54,-0.23 -1.52,-0.219 -1.53,-0.223 -1.5,-0.218 -1.51,-0.207 -1.5,-0.211 -1.49,-0.196 -1.49,-0.199 -1.47,-0.187 -1.47,-0.176 -1.45,-0.176 -1.46,-0.152 -1.45,-0.145 -1.42,-0.133 -1.42,-0.121 -1.42,-0.109 -1.39,-0.086 -1.38,-0.078 -1.38,-0.055 -1.36,-0.031 -1.37,-0.024 -1.32,0 -1.33,0.012 -1.31,0.043 -1.3,0.067 -1.3,0.085 -1.26,0.114 -1.25,0.14 -1.24,0.157 -1.23,0.195 -1.2,0.211 -1.2,0.25 -1.17,0.277 -1.16,0.305 -1.14,0.344 -1.12,0.359 -1.11,0.406 -1.08,0.442 -1.07,0.472 -1.05,0.504 -1.03,0.551 -1,0.582 -0.99,0.625 -0.98,0.66 -0.94,0.703 -0.92,0.746 -0.9,0.793 -0.89,0.825 -0.86,0.879 -0.83,0.91 -0.82,0.968 -0.78,1.008 -0.77,1.067 -0.74,1.097 -0.72,1.168 -0.69,1.207 -0.66,1.254 -0.65,1.317" /><path
         id="path104"
         style="fill:none;stroke:#000000;stroke-width:3.9849999;stroke-linecap:butt;stroke-linejoin:miter;stroke-miterlimit:10;stroke-dasharray:none;stroke-opacity:1"
         d="m 2034.67,541.016 0.51,-1.012 0.52,-0.965 0.57,-0.922 0.58,-0.879 0.61,-0.847 0.65,-0.813 0.67,-0.758 0.72,-0.738 0.72,-0.691 0.76,-0.661 0.78,-0.613 0.81,-0.594 0.84,-0.558 0.86,-0.52 0.88,-0.492 0.92,-0.461 0.93,-0.43 0.95,-0.394 1,-0.375 0.99,-0.34 1.04,-0.308 1.05,-0.297 1.07,-0.262 1.08,-0.231 1.12,-0.222 1.14,-0.184 1.15,-0.176 1.18,-0.144 1.18,-0.133 1.21,-0.098 1.23,-0.086 1.25,-0.078 1.27,-0.043 1.28,-0.035 1.3,-0.019 1.32,0 1.31,0.008 1.36,0.023 1.36,0.043 1.37,0.055 1.39,0.054 1.4,0.078 1.41,0.09 1.44,0.086 1.44,0.098 1.45,0.109 1.46,0.121 1.48,0.121 1.48,0.122 1.5,0.132 1.5,0.133 1.52,0.133 1.53,0.141 1.52,0.144 1.54,0.141 1.55,0.133 1.57,0.144 1.56,0.129 1.57,0.145 1.57,0.132 1.59,0.121 1.58,0.118 1.59,0.121 1.6,0.113 1.6,0.098 1.6,0.086 1.61,0.089 1.6,0.079 1.62,0.054 1.61,0.055 1.62,0.043 1.61,0.023 1.62,0.02 1.61,0 1.62,-0.02 1.61,-0.035 1.62,-0.043 1.61,-0.066 1.61,-0.09 1.61,-0.109 1.61,-0.121 1.6,-0.141 1.59,-0.164 1.61,-0.199 1.58,-0.207 1.59,-0.231 1.57,-0.266 1.58,-0.285 1.58,-0.32 1.55,-0.34 1.55,-0.363 1.56,-0.395 1.53,-0.429 1.53,-0.461 1.53,-0.481 1.5,-0.519 1.51,-0.559 1.49,-0.582 1.48,-0.617 1.48,-0.656 1.46,-0.696 1.45,-0.722 1.44,-0.758 1.42,-0.805 1.41,-0.844 1.41,-0.878 1.37,-0.922 1.38,-0.957 1.36,-1.012 1.34,-1.043 1.32,-1.086 1.3,-1.145 1.3,-1.175 1.27,-1.231 1.27,-1.273 1.25,-1.321 1.22,-1.363 1.19,-1.414 1.2,-1.473 1.17,-1.515 1.16,1.515 1.2,1.473 1.2,1.414 1.22,1.363 1.25,1.321 1.26,1.273 1.28,1.231 1.29,1.175 1.31,1.145 1.32,1.086 1.34,1.043 1.35,1.012 1.38,0.957 1.38,0.922 1.4,0.878 1.41,0.844 1.43,0.805 1.44,0.758 1.45,0.722 1.46,0.696 1.47,0.656 1.49,0.617 1.49,0.582 1.51,0.559 1.5,0.519 1.53,0.481 1.52,0.461 1.54,0.429 1.55,0.395 1.56,0.363 1.55,0.34 1.57,0.32 1.59,0.285 1.57,0.266 1.59,0.231 1.58,0.207 1.6,0.199 1.6,0.164 1.6,0.141 1.6,0.121 1.62,0.109 1.6,0.09 1.62,0.066 1.61,0.043 1.62,0.035 1.61,0.02 1.62,0 1.61,-0.02 1.62,-0.023 1.61,-0.043 1.62,-0.055 1.62,-0.054 1.6,-0.079 1.6,-0.089 1.61,-0.086 1.6,-0.098 1.59,-0.113 1.6,-0.121 1.58,-0.118 1.58,-0.121 1.57,-0.132 1.57,-0.145 1.56,-0.129 1.57,-0.144 1.55,-0.133 1.54,-0.141 1.53,-0.144 1.53,-0.141 1.51,-0.133 1.51,-0.133 1.49,-0.132 1.49,-0.122 1.48,-0.121 1.46,-0.121 1.45,-0.109 1.44,-0.098 1.44,-0.086 1.4,-0.09 1.41,-0.078 1.38,-0.054 1.38,-0.055 1.36,-0.043 1.35,-0.023 1.32,-0.008 1.32,0 1.29,0.019 1.29,0.035 1.26,0.043 1.25,0.078 1.23,0.086 1.22,0.098 1.18,0.133 1.17,0.144 1.16,0.176 1.13,0.184 1.12,0.222 1.09,0.231 1.07,0.262 1.05,0.297 1.03,0.308 1,0.34 0.99,0.375 0.96,0.394 0.93,0.43 0.91,0.461 0.88,0.492 0.87,0.52 0.83,0.558 0.82,0.594 0.78,0.613 0.76,0.661 0.72,0.691 0.71,0.738 0.68,0.758 0.64,0.813 0.62,0.847 0.58,0.879 0.56,0.922 0.53,0.965 0.5,1.012 -0.65,-1.317 -0.65,-1.254 -0.7,-1.207 -0.71,-1.168 -0.75,-1.097 -0.77,-1.067 -0.77,-1.008 -0.82,-0.968 -0.83,-0.91 -0.86,-0.879 -0.89,-0.825 -0.9,-0.793 -0.92,-0.746 -0.95,-0.703 -0.98,-0.66 -0.98,-0.625 -1,-0.582 -1.04,-0.551 -1.04,-0.504 -1.08,-0.472 -1.07,-0.442 -1.11,-0.406 -1.12,-0.359 -1.15,-0.344 -1.15,-0.305 -1.18,-0.277 -1.2,-0.25 -1.19,-0.211 -1.23,-0.195 -1.24,-0.157 -1.26,-0.14 -1.26,-0.114 -1.3,-0.085 -1.29,-0.067 -1.31,-0.043 -1.33,-0.012 -1.33,0 -1.36,0.024 -1.37,0.031 -1.37,0.055 -1.38,0.078 -1.4,0.086 -1.42,0.109 -1.41,0.121 -1.43,0.133 -1.44,0.145 -1.46,0.152 -1.45,0.176 -1.47,0.176 -1.47,0.187 -1.49,0.199 -1.49,0.196 -1.51,0.211 -1.5,0.207 -1.51,0.218 -1.53,0.223 -1.51,0.219 -1.54,0.23 -1.52,0.219 -1.54,0.23 -1.55,0.231 -1.55,0.219 -1.55,0.222 -1.56,0.207 -1.56,0.219 -1.56,0.199 -1.56,0.2 -1.57,0.195 -1.56,0.187 -1.57,0.164 -1.57,0.164 -1.58,0.157 -1.56,0.14 -1.57,0.133 -1.57,0.11 -1.57,0.101 -1.57,0.086 -1.56,0.066 -1.56,0.055 -1.56,0.031 -1.56,0.012 -1.55,-0.012 -1.55,-0.019 -1.55,-0.055 -1.54,-0.066 -1.54,-0.098 -1.53,-0.121 -1.53,-0.145 -1.53,-0.175 -1.51,-0.2 -1.51,-0.23 -1.5,-0.262 -1.5,-0.285 -1.48,-0.32 -1.48,-0.352 -1.48,-0.371 -1.46,-0.418 -1.46,-0.453 -1.44,-0.492 -1.44,-0.516 -1.42,-0.562 -1.41,-0.602 -1.41,-0.64 -1.39,-0.668 -1.39,-0.727 -1.37,-0.758 -1.35,-0.801 -1.34,-0.847 -1.34,-0.891 -1.32,-0.933 -1.31,-0.977 -1.28,-1.031 -1.29,-1.078 -1.25,-1.133 -1.25,-1.176 -1.23,-1.219 -1.22,-1.285 -1.2,-1.328 -1.19,-1.387 -1.16,-1.437 -1.17,1.437 -1.18,1.387 -1.2,1.328 -1.22,1.285 -1.23,1.219 -1.25,1.176 -1.26,1.133 -1.28,1.078 -1.29,1.031 -1.31,0.977 -1.31,0.933 -1.34,0.891 -1.34,0.847 -1.35,0.801 -1.38,0.758 -1.38,0.727 -1.4,0.668 -1.4,0.64 -1.41,0.602 -1.43,0.562 -1.44,0.516 -1.44,0.492 -1.46,0.453 -1.46,0.418 -1.47,0.371 -1.49,0.352 -1.48,0.32 -1.49,0.285 -1.51,0.262 -1.5,0.23 -1.52,0.2 -1.53,0.175 -1.52,0.145 -1.53,0.121 -1.54,0.098 -1.55,0.066 -1.54,0.055 -1.56,0.019 -1.54,0.012 -1.56,-0.012 -1.56,-0.031 -1.57,-0.055 -1.55,-0.066 -1.57,-0.086 -1.57,-0.101 -1.58,-0.11 -1.57,-0.133 -1.56,-0.14 -1.57,-0.157 -1.57,-0.164 -1.57,-0.164 -1.56,-0.187 -1.57,-0.195 -1.56,-0.2 -1.56,-0.199 -1.56,-0.219 -1.56,-0.207 -1.55,-0.222 -1.55,-0.219 -1.55,-0.231 -1.54,-0.23 -1.52,-0.219 -1.54,-0.23 -1.52,-0.219 -1.53,-0.223 -1.5,-0.218 -1.51,-0.207 -1.5,-0.211 -1.49,-0.196 -1.49,-0.199 -1.47,-0.187 -1.47,-0.176 -1.45,-0.176 -1.46,-0.152 -1.45,-0.145 -1.42,-0.133 -1.42,-0.121 -1.42,-0.109 -1.39,-0.086 -1.38,-0.078 -1.38,-0.055 -1.36,-0.031 -1.37,-0.024 -1.32,0 -1.33,0.012 -1.31,0.043 -1.3,0.067 -1.3,0.085 -1.26,0.114 -1.25,0.14 -1.24,0.157 -1.23,0.195 -1.2,0.211 -1.2,0.25 -1.17,0.277 -1.16,0.305 -1.14,0.344 -1.12,0.359 -1.11,0.406 -1.08,0.442 -1.07,0.472 -1.05,0.504 -1.03,0.551 -1,0.582 -0.99,0.625 -0.98,0.66 -0.94,0.703 -0.92,0.746 -0.9,0.793 -0.89,0.825 -0.86,0.879 -0.83,0.91 -0.82,0.968 -0.78,1.008 -0.77,1.067 -0.74,1.097 -0.72,1.168 -0.69,1.207 -0.66,1.254 -0.65,1.317 z" /><g
         transform="scale(10,10)"
         id="g106"><text
           id="text108"
           style="font-variant:normal;font-weight:normal;font-size:9.96263981px;font-family:CMR10;-inkscape-font-specification:CMR10;writing-mode:lr-tb;fill:#000000;fill-opacity:1;fill-rule:nonzero;stroke:none"
           transform="matrix(1,0,0,-1,237.251,32.7801)"><tspan
             id="tspan110"
             y="0"
             x="0">1</tspan></text>
<text
           id="text112"
           style="font-variant:normal;font-weight:normal;font-size:9.96263981px;font-family:CMMI10;-inkscape-font-specification:CMMI10;writing-mode:lr-tb;fill:#000000;fill-opacity:1;fill-rule:nonzero;stroke:none"
           transform="matrix(1,0,0,-1,242.29084,32.7801)"><tspan
             id="tspan114"
             y="0"
             x="0">/</tspan></text>
<text
           id="text116"
           style="font-variant:normal;font-weight:normal;font-size:9.96263981px;font-family:CMR10;-inkscape-font-specification:CMR10;writing-mode:lr-tb;fill:#000000;fill-opacity:1;fill-rule:nonzero;stroke:none"
           transform="matrix(1,0,0,-1,247.33068,32.7801)"><tspan
             id="tspan118"
             y="0"
             x="0">8</tspan></text>
<text
           id="text120"
           style="font-variant:normal;font-weight:normal;font-size:11.9552002px;font-family:CMCSC10;-inkscape-font-specification:CMCSC10;writing-mode:lr-tb;fill:#000000;fill-opacity:1;fill-rule:nonzero;stroke:none"
           transform="matrix(1,0,0,-1,112.44168,0.0446)"><tspan
             id="tspan122"
             y="0"
             x="0 8.5141773 12.111574 19.790337 28.065199 34.667976 41.270756">Fig.46.</tspan></text>
</g></g></g></svg>