<?xml version="1.0" encoding="UTF-8" standalone="no"?>
<svg
   xmlns:dc="http://purl.org/dc/elements/1.1/"
   xmlns:cc="http://creativecommons.org/ns#"
   xmlns:rdf="http://www.w3.org/1999/02/22-rdf-syntax-ns#"
   xmlns:svg="http://www.w3.org/2000/svg"
   xmlns="http://www.w3.org/2000/svg"
   viewBox="0 0 242.5 256.25"
   height="256.25"
   width="242.5"
   xml:space="preserve"
   version="1.1"
   id="svg2"><metadata
     id="metadata8"><rdf:RDF><cc:Work
         rdf:about=""><dc:format>image/svg+xml</dc:format><dc:type
           rdf:resource="http://purl.org/dc/dcmitype/StillImage" /></cc:Work></rdf:RDF></metadata><defs
     id="defs6"><clipPath
       id="clipPath12"
       clipPathUnits="userSpaceOnUse"><path
         id="path14"
         d="m -2,-2 194,0 0,205 -194,0 0,-205 z" /></clipPath></defs><g
     clip-path="url(#clipPath12)"
     transform="matrix(1.25,0,0,-1.25,2.5,253.75)"
     id="g10"><g
       transform="scale(0.1,0.1)"
       id="g16"><path
         id="path18"
         style="fill:none;stroke:#000000;stroke-width:11.95530033;stroke-linecap:butt;stroke-linejoin:miter;stroke-miterlimit:10;stroke-dasharray:none;stroke-opacity:1"
         d="m 200,921.605 37.805,0.661 37.793,1.988 37.804,3.308 37.805,4.626 37.793,5.953 37.805,7.285 37.793,8.59 37.804,9.933 37.805,11.239 37.793,12.57 37.805,13.902 37.804,15.2 37.793,16.55 37.805,17.85 37.805,19.19 37.793,20.5 37.804,21.83 37.805,23.15 37.793,24.48 37.805,25.8 37.793,27.12 37.805,28.44 37.8,29.78 37.8,31.09 37.8,32.41 37.81,33.73 37.79,35.07 37.8,36.38 37.81,37.71 37.79,39.02 37.81,40.36 37.79,41.67 37.8,43 37.81,44.32 37.79,45.65 37.81,46.97 37.8,48.28 37.79,49.61 37.81,50.94 37.8,52.26" /><path
         id="path20"
         style="fill:none;stroke:#000000;stroke-width:7.97009993;stroke-linecap:butt;stroke-linejoin:miter;stroke-miterlimit:10;stroke-dasharray:none;stroke-opacity:1"
         d="m 200,921.605 27.004,0" /><path
         id="path22"
         style="fill:none;stroke:#000000;stroke-width:7.97009993;stroke-linecap:butt;stroke-linejoin:miter;stroke-miterlimit:10;stroke-dasharray:none;stroke-opacity:1"
         d="m 281.004,921.605 26.992,0" /><path
         id="path24"
         style="fill:none;stroke:#000000;stroke-width:7.97009993;stroke-linecap:butt;stroke-linejoin:miter;stroke-miterlimit:10;stroke-dasharray:none;stroke-opacity:1"
         d="m 307.996,921.605 27.004,0" /><path
         id="path26"
         style="fill:none;stroke:#000000;stroke-width:7.97009993;stroke-linecap:butt;stroke-linejoin:miter;stroke-miterlimit:10;stroke-dasharray:none;stroke-opacity:1"
         d="m 389,921.605 27.004,0" /><path
         id="path28"
         style="fill:none;stroke:#000000;stroke-width:7.97009993;stroke-linecap:butt;stroke-linejoin:miter;stroke-miterlimit:10;stroke-dasharray:none;stroke-opacity:1"
         d="m 416.004,921.605 26.996,0" /><path
         id="path30"
         style="fill:none;stroke:#000000;stroke-width:7.97009993;stroke-linecap:butt;stroke-linejoin:miter;stroke-miterlimit:10;stroke-dasharray:none;stroke-opacity:1"
         d="m 497.008,921.605 26.992,0" /><path
         id="path32"
         style="fill:none;stroke:#000000;stroke-width:7.97009993;stroke-linecap:butt;stroke-linejoin:miter;stroke-miterlimit:10;stroke-dasharray:none;stroke-opacity:1"
         d="m 524,921.605 27.008,0" /><path
         id="path34"
         style="fill:none;stroke:#000000;stroke-width:7.97009993;stroke-linecap:butt;stroke-linejoin:miter;stroke-miterlimit:10;stroke-dasharray:none;stroke-opacity:1"
         d="m 605.004,921.605 27.004,0" /><path
         id="path36"
         style="fill:none;stroke:#000000;stroke-width:7.97009993;stroke-linecap:butt;stroke-linejoin:miter;stroke-miterlimit:10;stroke-dasharray:none;stroke-opacity:1"
         d="m 632.008,921.605 26.996,0" /><path
         id="path38"
         style="fill:none;stroke:#000000;stroke-width:7.97009993;stroke-linecap:butt;stroke-linejoin:miter;stroke-miterlimit:10;stroke-dasharray:none;stroke-opacity:1"
         d="m 713,921.605 27.008,0" /><path
         id="path40"
         style="fill:none;stroke:#000000;stroke-width:7.97009993;stroke-linecap:butt;stroke-linejoin:miter;stroke-miterlimit:10;stroke-dasharray:none;stroke-opacity:1"
         d="m 740.008,921.605 27.004,0" /><path
         id="path42"
         style="fill:none;stroke:#000000;stroke-width:7.97009993;stroke-linecap:butt;stroke-linejoin:miter;stroke-miterlimit:10;stroke-dasharray:none;stroke-opacity:1"
         d="m 821.012,921.605 26.992,0" /><path
         id="path44"
         style="fill:none;stroke:#000000;stroke-width:7.97009993;stroke-linecap:butt;stroke-linejoin:miter;stroke-miterlimit:10;stroke-dasharray:none;stroke-opacity:1"
         d="m 848.004,921.605 27.004,0" /><path
         id="path46"
         style="fill:none;stroke:#000000;stroke-width:7.97009993;stroke-linecap:butt;stroke-linejoin:miter;stroke-miterlimit:10;stroke-dasharray:none;stroke-opacity:1"
         d="m 929.008,921.605 27.004,0" /><path
         id="path48"
         style="fill:none;stroke:#000000;stroke-width:7.97009993;stroke-linecap:butt;stroke-linejoin:miter;stroke-miterlimit:10;stroke-dasharray:none;stroke-opacity:1"
         d="m 956.012,921.605 26.992,0" /><path
         id="path50"
         style="fill:none;stroke:#000000;stroke-width:7.97009993;stroke-linecap:butt;stroke-linejoin:miter;stroke-miterlimit:10;stroke-dasharray:none;stroke-opacity:1"
         d="m 1037.02,921.605 26.99,0" /><path
         id="path52"
         style="fill:none;stroke:#000000;stroke-width:7.97009993;stroke-linecap:butt;stroke-linejoin:miter;stroke-miterlimit:10;stroke-dasharray:none;stroke-opacity:1"
         d="m 1064.01,921.605 27,0" /><path
         id="path54"
         style="fill:none;stroke:#000000;stroke-width:7.97009993;stroke-linecap:butt;stroke-linejoin:miter;stroke-miterlimit:10;stroke-dasharray:none;stroke-opacity:1"
         d="m 1145.01,921.605 27.01,0" /><path
         id="path56"
         style="fill:none;stroke:#000000;stroke-width:7.97009993;stroke-linecap:butt;stroke-linejoin:miter;stroke-miterlimit:10;stroke-dasharray:none;stroke-opacity:1"
         d="m 1172.02,921.605 26.99,0" /><path
         id="path58"
         style="fill:none;stroke:#000000;stroke-width:7.97009993;stroke-linecap:butt;stroke-linejoin:miter;stroke-miterlimit:10;stroke-dasharray:none;stroke-opacity:1"
         d="m 1253.01,921.605 27.01,0" /><path
         id="path60"
         style="fill:none;stroke:#000000;stroke-width:7.97009993;stroke-linecap:butt;stroke-linejoin:miter;stroke-miterlimit:10;stroke-dasharray:none;stroke-opacity:1"
         d="m 1280.02,921.605 27,0" /><path
         id="path62"
         style="fill:none;stroke:#000000;stroke-width:7.97009993;stroke-linecap:butt;stroke-linejoin:miter;stroke-miterlimit:10;stroke-dasharray:none;stroke-opacity:1"
         d="m 1361.02,921.605 26.99,0" /><path
         id="path64"
         style="fill:none;stroke:#000000;stroke-width:7.97009993;stroke-linecap:butt;stroke-linejoin:miter;stroke-miterlimit:10;stroke-dasharray:none;stroke-opacity:1"
         d="m 1388.01,921.605 27.01,0" /><path
         id="path66"
         style="fill:none;stroke:#000000;stroke-width:7.97009993;stroke-linecap:butt;stroke-linejoin:miter;stroke-miterlimit:10;stroke-dasharray:none;stroke-opacity:1"
         d="m 1469.02,921.605 27,0" /><path
         id="path68"
         style="fill:none;stroke:#000000;stroke-width:7.97009993;stroke-linecap:butt;stroke-linejoin:miter;stroke-miterlimit:10;stroke-dasharray:none;stroke-opacity:1"
         d="m 1496.02,921.605 26.99,0" /><path
         id="path70"
         style="fill:none;stroke:#000000;stroke-width:7.97009993;stroke-linecap:butt;stroke-linejoin:miter;stroke-miterlimit:10;stroke-dasharray:none;stroke-opacity:1"
         d="m 1577.02,921.605 27,0" /><path
         id="path72"
         style="fill:none;stroke:#000000;stroke-width:7.97009993;stroke-linecap:butt;stroke-linejoin:miter;stroke-miterlimit:10;stroke-dasharray:none;stroke-opacity:1"
         d="m 1604.02,921.605 27,0" /><path
         id="path74"
         style="fill:none;stroke:#000000;stroke-width:7.97009993;stroke-linecap:butt;stroke-linejoin:miter;stroke-miterlimit:10;stroke-dasharray:none;stroke-opacity:1"
         d="m 1685.02,921.605 27,0" /><path
         id="path76"
         style="fill:none;stroke:#000000;stroke-width:7.97009993;stroke-linecap:butt;stroke-linejoin:miter;stroke-miterlimit:10;stroke-dasharray:none;stroke-opacity:1"
         d="m 1712.02,381.602 0,28.543" /><path
         id="path78"
         style="fill:none;stroke:#000000;stroke-width:7.97009993;stroke-linecap:butt;stroke-linejoin:miter;stroke-miterlimit:10;stroke-dasharray:none;stroke-opacity:1"
         d="m 1712.02,467.227 0,28.543" /><path
         id="path80"
         style="fill:none;stroke:#000000;stroke-width:7.97009993;stroke-linecap:butt;stroke-linejoin:miter;stroke-miterlimit:10;stroke-dasharray:none;stroke-opacity:1"
         d="m 1712.02,495.77 0,28.542" /><path
         id="path82"
         style="fill:none;stroke:#000000;stroke-width:7.97009993;stroke-linecap:butt;stroke-linejoin:miter;stroke-miterlimit:10;stroke-dasharray:none;stroke-opacity:1"
         d="m 1712.02,581.398 0,28.543" /><path
         id="path84"
         style="fill:none;stroke:#000000;stroke-width:7.97009993;stroke-linecap:butt;stroke-linejoin:miter;stroke-miterlimit:10;stroke-dasharray:none;stroke-opacity:1"
         d="m 1712.02,609.941 0,28.543" /><path
         id="path86"
         style="fill:none;stroke:#000000;stroke-width:7.97009993;stroke-linecap:butt;stroke-linejoin:miter;stroke-miterlimit:10;stroke-dasharray:none;stroke-opacity:1"
         d="m 1712.02,695.57 0,28.543" /><path
         id="path88"
         style="fill:none;stroke:#000000;stroke-width:7.97009993;stroke-linecap:butt;stroke-linejoin:miter;stroke-miterlimit:10;stroke-dasharray:none;stroke-opacity:1"
         d="m 1712.02,724.113 0,28.543" /><path
         id="path90"
         style="fill:none;stroke:#000000;stroke-width:7.97009993;stroke-linecap:butt;stroke-linejoin:miter;stroke-miterlimit:10;stroke-dasharray:none;stroke-opacity:1"
         d="m 1712.02,809.754 0,28.543" /><path
         id="path92"
         style="fill:none;stroke:#000000;stroke-width:7.97009993;stroke-linecap:butt;stroke-linejoin:miter;stroke-miterlimit:10;stroke-dasharray:none;stroke-opacity:1"
         d="m 1712.02,838.297 0,28.543" /><path
         id="path94"
         style="fill:none;stroke:#000000;stroke-width:7.97009993;stroke-linecap:butt;stroke-linejoin:miter;stroke-miterlimit:10;stroke-dasharray:none;stroke-opacity:1"
         d="m 1712.02,923.926 0,28.543" /><path
         id="path96"
         style="fill:none;stroke:#000000;stroke-width:7.97009993;stroke-linecap:butt;stroke-linejoin:miter;stroke-miterlimit:10;stroke-dasharray:none;stroke-opacity:1"
         d="m 1712.02,952.469 0,28.543" /><path
         id="path98"
         style="fill:none;stroke:#000000;stroke-width:7.97009993;stroke-linecap:butt;stroke-linejoin:miter;stroke-miterlimit:10;stroke-dasharray:none;stroke-opacity:1"
         d="m 1712.02,1038.1 0,28.54" /><path
         id="path100"
         style="fill:none;stroke:#000000;stroke-width:7.97009993;stroke-linecap:butt;stroke-linejoin:miter;stroke-miterlimit:10;stroke-dasharray:none;stroke-opacity:1"
         d="m 1712.02,1066.64 0,28.54" /><path
         id="path102"
         style="fill:none;stroke:#000000;stroke-width:7.97009993;stroke-linecap:butt;stroke-linejoin:miter;stroke-miterlimit:10;stroke-dasharray:none;stroke-opacity:1"
         d="m 1712.02,1152.27 0,28.54" /><path
         id="path104"
         style="fill:none;stroke:#000000;stroke-width:7.97009993;stroke-linecap:butt;stroke-linejoin:miter;stroke-miterlimit:10;stroke-dasharray:none;stroke-opacity:1"
         d="m 1712.02,1180.81 0,28.54" /><path
         id="path106"
         style="fill:none;stroke:#000000;stroke-width:7.97009993;stroke-linecap:butt;stroke-linejoin:miter;stroke-miterlimit:10;stroke-dasharray:none;stroke-opacity:1"
         d="m 1712.02,1266.44 0,28.54" /><path
         id="path108"
         style="fill:none;stroke:#000000;stroke-width:7.97009993;stroke-linecap:butt;stroke-linejoin:miter;stroke-miterlimit:10;stroke-dasharray:none;stroke-opacity:1"
         d="m 1712.02,1294.98 0,28.54" /><path
         id="path110"
         style="fill:none;stroke:#000000;stroke-width:7.97009993;stroke-linecap:butt;stroke-linejoin:miter;stroke-miterlimit:10;stroke-dasharray:none;stroke-opacity:1"
         d="m 1712.02,1380.61 0,28.54" /><path
         id="path112"
         style="fill:none;stroke:#000000;stroke-width:7.97009993;stroke-linecap:butt;stroke-linejoin:miter;stroke-miterlimit:10;stroke-dasharray:none;stroke-opacity:1"
         d="m 1712.02,1409.15 0,28.56" /><path
         id="path114"
         style="fill:none;stroke:#000000;stroke-width:7.97009993;stroke-linecap:butt;stroke-linejoin:miter;stroke-miterlimit:10;stroke-dasharray:none;stroke-opacity:1"
         d="m 1712.02,1494.78 0,28.54" /><path
         id="path116"
         style="fill:none;stroke:#000000;stroke-width:7.97009993;stroke-linecap:butt;stroke-linejoin:miter;stroke-miterlimit:10;stroke-dasharray:none;stroke-opacity:1"
         d="m 1712.02,1523.32 0,28.56" /><path
         id="path118"
         style="fill:none;stroke:#000000;stroke-width:7.97009993;stroke-linecap:butt;stroke-linejoin:miter;stroke-miterlimit:10;stroke-dasharray:none;stroke-opacity:1"
         d="m 1712.02,1608.95 0,28.56" /><path
         id="path120"
         style="fill:none;stroke:#000000;stroke-width:7.97009993;stroke-linecap:butt;stroke-linejoin:miter;stroke-miterlimit:10;stroke-dasharray:none;stroke-opacity:1"
         d="m 1712.02,1637.51 0,28.54" /><path
         id="path122"
         style="fill:none;stroke:#000000;stroke-width:7.97009993;stroke-linecap:butt;stroke-linejoin:miter;stroke-miterlimit:10;stroke-dasharray:none;stroke-opacity:1"
         d="m 1712.02,1723.12 0,28.56" /><path
         id="path124"
         style="fill:none;stroke:#000000;stroke-width:7.97009993;stroke-linecap:butt;stroke-linejoin:miter;stroke-miterlimit:10;stroke-dasharray:none;stroke-opacity:1"
         d="m 1712.02,1751.68 0,28.54" /><path
         id="path126"
         style="fill:none;stroke:#000000;stroke-width:7.97009993;stroke-linecap:butt;stroke-linejoin:miter;stroke-miterlimit:10;stroke-dasharray:none;stroke-opacity:1"
         d="m 1712.02,1837.31 0,28.54" /><path
         id="path128"
         style="fill:none;stroke:#000000;stroke-width:7.97009993;stroke-linecap:butt;stroke-linejoin:miter;stroke-miterlimit:10;stroke-dasharray:none;stroke-opacity:1"
         d="m 1712.02,1865.85 0,28.54" /><path
         id="path130"
         style="fill:none;stroke:#000000;stroke-width:7.97009993;stroke-linecap:butt;stroke-linejoin:miter;stroke-miterlimit:10;stroke-dasharray:none;stroke-opacity:1"
         d="m 1712.02,1951.48 0,28.54" /><g
         transform="matrix(146.4,0,0,-134.4,-32.7227,718.684)"
         id="g132"><rect
           id="rect134"
           style="fill:#ffffff;fill-opacity:1;fill-rule:nonzero"
           transform="matrix(1,0,0,-1,0,1)"
           height="1"
           width="1"
           y="0"
           x="0" /></g><g
         transform="scale(10,10)"
         id="g136"><text
           id="text138"
           style="font-variant:normal;font-weight:normal;font-size:10.90909958px;font-family:CMMI10;-inkscape-font-specification:CMMI10;writing-mode:lr-tb;fill:#000000;fill-opacity:1;fill-rule:nonzero;stroke:none"
           transform="matrix(1,0,0,-1,-0.260156,61.4402)"><tspan
             id="tspan140"
             y="0"
             x="0">C</tspan></text>
</g><path
         id="path142"
         style="fill:#000000;fill-opacity:1;fill-rule:nonzero;stroke:none"
         d="m 180.07,901.676 -2.437,-1.008 -2.363,-1.047 -2.262,-1.062 -2.188,-1.11 -2.086,-1.133 -2.011,-1.164 -1.934,-1.187 -1.855,-1.219 -1.77,-1.254 -1.691,-1.273 -1.629,-1.309 -1.535,-1.328 -1.473,-1.363 -1.406,-1.383 -1.34,-1.418 -1.266,-1.438 -1.195,-1.472 -1.133,-1.485 -1.078,-1.515 -1.012,-1.551 -0.953,-1.559 -0.902,-1.593 -0.836,-1.614 -0.777,-1.636 -0.739,-1.66 -0.679,-1.692 -0.625,-1.703 -0.583,-1.727 -0.531,-1.757 -0.492,-1.77 -0.441,-1.801 -0.407,-1.812 -0.359,-1.836 -0.332,-1.856 -0.285,-1.879 -0.254,-1.898 -0.219,-1.914 -0.176,-1.934 -0.152,-1.953 -0.133,-1.98 -0.097,-1.988 -0.067,-2.008 -0.043,-2.024 -0.023,-2.043 -0.012,-2.054 0.023,-2.078 0.032,-2.098 0.054,-2.11 0.067,-2.121 0.078,-2.14 0.098,-2.153 0.097,-2.164 0.114,-2.187 0.117,-2.199 0.121,-2.207 0.133,-2.231 0.121,-2.23 0.133,-2.25 0.132,-2.266 0.121,-2.262 0.118,-2.285 0.121,-2.297 0.113,-2.308 0.098,-2.317 0.086,-2.328 0.078,-2.34 0.066,-2.351 0.055,-2.352 0.023,-2.375 0.02,-2.371 -0.012,-2.387 -0.031,-2.394 -0.043,-2.395 -0.078,-2.406 -0.11,-2.414 -0.132,-2.418 -0.153,-2.43 -0.199,-2.425 -0.219,-2.442 -0.265,-2.449 -0.286,-2.449 -0.339,-2.449 -0.375,-2.461 -0.407,-2.461 -0.461,-2.461 -0.492,-2.473 -0.539,-2.473 -0.594,-2.484 -0.648,-2.469 -0.68,-2.484 -0.75,-2.484 -0.789,-2.481 -0.855,-2.484 -0.903,-2.485 -0.968,-2.492 -1.032,-2.484 -1.086,-2.481 -1.144,-2.496 -1.219,-2.48 -1.273,-2.485 -1.352,-2.484 -1.418,-2.481 -1.496,-2.484 -1.558,-2.473 -1.637,-2.472 -1.715,-2.469 -1.789,-2.473 -1.867,-2.461 -1.946,-2.461 -2.031,-2.46 -2.109,-2.45 -2.199,-2.441 -2.2856,-2.449 -2.3828,-2.43 -2.4609,-2.426 -2.5625,-2.429 -2.6445,-2.418 -2.75,-2.403 -2.8321,-2.406 -2.9453,-2.398 2.9453,-2.395 2.8321,-2.406 2.75,-2.406 2.6445,-2.415 2.5625,-2.429 2.4609,-2.426 2.3828,-2.43 2.2856,-2.449 2.199,-2.441 2.109,-2.45 2.031,-2.46 1.946,-2.461 1.867,-2.461 1.789,-2.473 1.715,-2.469 1.637,-2.472 1.558,-2.473 1.496,-2.484 1.418,-2.481 1.352,-2.484 1.273,-2.485 1.219,-2.48 1.144,-2.496 1.086,-2.481 1.032,-2.484 0.968,-2.492 0.903,-2.485 0.855,-2.484 0.789,-2.48 0.75,-2.485 0.68,-2.484 0.648,-2.469 0.594,-2.484 0.539,-2.473 0.492,-2.473 0.461,-2.461 0.407,-2.461 0.375,-2.46 0.339,-2.45 0.286,-2.449 0.265,-2.449 0.219,-2.442 0.199,-2.425 0.153,-2.43 0.132,-2.418 0.11,-2.414 0.078,-2.406 0.043,-2.395 0.031,-2.398 0.012,-2.383 -0.02,-2.371 -0.023,-2.375 -0.055,-2.352 -0.066,-2.351 -0.078,-2.34 -0.086,-2.328 -0.098,-2.317 -0.113,-2.308 -0.121,-2.297 -0.118,-2.285 -0.121,-2.262 -0.132,-2.266 -0.133,-2.25 -0.121,-2.23 -0.133,-2.231 -0.121,-2.207 -0.117,-2.199 -0.114,-2.187 -0.097,-2.164 -0.098,-2.153 -0.078,-2.14 -0.067,-2.121 -0.054,-2.11 -0.032,-2.097 -0.023,-2.079 0.012,-2.054 0.023,-2.043 0.043,-2.024 0.067,-2.008 0.097,-1.988 0.133,-1.98 0.152,-1.953 0.176,-1.934 0.219,-1.914 0.254,-1.898 0.285,-1.879 0.332,-1.856 0.359,-1.836 0.407,-1.812 0.441,-1.801 0.492,-1.77 0.531,-1.757 0.583,-1.727 0.625,-1.703 0.679,-1.692 0.739,-1.66 0.777,-1.636 0.836,-1.614 0.902,-1.593 0.953,-1.559 1.012,-1.551 1.078,-1.515 1.133,-1.485 1.195,-1.472 1.266,-1.438 1.34,-1.418 1.406,-1.383 1.473,-1.363 1.535,-1.328 1.629,-1.309 1.691,-1.273 1.77,-1.254 1.855,-1.219 1.934,-1.187 2.011,-1.164 2.086,-1.133 2.188,-1.11 2.262,-1.066 2.363,-1.043 2.437,-1.008 -3.418,1.492 -3.304,1.516 -3.188,1.539 -3.055,1.539 -2.953,1.559 -2.824,1.57 -2.726,1.594 -2.602,1.594 -2.504,1.613 -2.398,1.629 -2.286,1.644 -2.183,1.649 -2.09,1.672 -1.988,1.679 -1.891,1.692 -1.789,1.703 -1.703,1.715 -1.613,1.734 -1.528,1.75 -1.429,1.746 -1.352,1.77 -1.273,1.777 -1.188,1.793 -1.109,1.812 -1.031,1.813 -0.957,1.824 -0.879,1.832 -0.813,1.86 -0.746,1.855 -0.684,1.867 -0.601,1.891 -0.551,1.891 -0.496,1.91 -0.426,1.91 -0.375,1.926 -0.32,1.933 -0.262,1.953 -0.207,1.957 -0.168,1.965 -0.121,1.981 -0.062,1.976 -0.036,2 0.012,2.008 0.055,2.012 0.086,2.023 0.121,2.043 0.168,2.043 0.183,2.043 0.223,2.067 0.242,2.066 0.262,2.074 0.297,2.086 0.32,2.102 0.328,2.109 0.352,2.109 0.363,2.118 0.383,2.121 0.394,2.144 0.399,2.141 0.406,2.152 0.418,2.156 0.418,2.165 0.414,2.175 0.418,2.176 0.418,2.184 0.406,2.199 0.407,2.195 0.398,2.211 0.383,2.219 0.375,2.219 0.351,2.23 0.34,2.231 0.328,2.238 0.297,2.242 0.285,2.254 0.254,2.25 0.231,2.266 0.199,2.261 0.176,2.274 0.14,2.285 0.098,2.277 0.066,2.293 0.036,2.285 -0.012,2.309 -0.055,2.297 -0.097,2.304 -0.145,2.309 -0.187,2.32 -0.243,2.317 -0.297,2.328 -0.351,2.328 -0.395,2.332 -0.461,2.34 -0.527,2.328 -0.582,2.352 -0.648,2.339 -0.715,2.352 -0.789,2.352 -0.848,2.351 -0.922,2.36 -1,2.363 -1.078,2.363 -1.152,2.359 -1.231,2.375 -1.32,2.372 -1.395,2.375 -1.492,2.375 -1.57,2.371 -1.66,2.382 -1.758,2.375 -1.848,2.383 -1.941,2.383 -2.047,2.387 -2.141,2.383 -2.2418,2.382 -2.3516,2.399 -2.4492,2.383 -2.5586,2.394 -2.6719,2.383 -2.789,2.395 2.789,2.398 2.6719,2.383 2.5586,2.394 2.4492,2.383 2.3516,2.399 2.2418,2.382 2.141,2.383 2.047,2.387 1.941,2.383 1.848,2.383 1.758,2.375 1.66,2.382 1.57,2.371 1.492,2.375 1.395,2.372 1.32,2.375 1.231,2.371 1.152,2.363 1.078,2.363 1,2.364 0.922,2.359 0.848,2.351 0.789,2.352 0.715,2.352 0.648,2.339 0.582,2.352 0.527,2.328 0.461,2.34 0.395,2.328 0.351,2.332 0.297,2.328 0.243,2.317 0.187,2.32 0.145,2.305 0.097,2.308 0.055,2.297 0.012,2.309 -0.036,2.285 -0.066,2.293 -0.098,2.277 -0.14,2.285 -0.176,2.274 -0.199,2.261 -0.231,2.266 -0.254,2.25 -0.285,2.254 -0.297,2.238 -0.328,2.242 -0.34,2.231 -0.351,2.23 -0.375,2.219 -0.383,2.219 -0.398,2.211 -0.407,2.195 -0.406,2.199 -0.418,2.184 -0.418,2.176 -0.414,2.176 -0.418,2.164 -0.418,2.152 -0.406,2.156 -0.399,2.141 -0.394,2.144 -0.383,2.121 -0.363,2.118 -0.352,2.109 -0.328,2.109 -0.32,2.102 -0.297,2.086 -0.262,2.074 -0.242,2.066 -0.223,2.067 -0.183,2.043 -0.168,2.043 -0.121,2.043 -0.086,2.023 -0.055,2.012 -0.012,2.008 0.036,2 0.062,1.976 0.121,1.981 0.168,1.965 0.207,1.957 0.262,1.953 0.32,1.933 0.375,1.926 0.426,1.91 0.496,1.91 0.551,1.891 0.601,1.891 0.684,1.867 0.746,1.855 0.813,1.86 0.879,1.832 0.957,1.824 1.031,1.813 1.109,1.812 1.188,1.793 1.273,1.777 1.352,1.77 1.429,1.746 1.528,1.75 1.613,1.734 1.703,1.715 1.789,1.703 1.891,1.692 1.988,1.679 2.09,1.672 2.183,1.649 2.286,1.644 2.398,1.629 2.504,1.613 2.602,1.594 2.726,1.594 2.824,1.57 2.953,1.559 3.055,1.539 3.188,1.539 3.304,1.516 3.418,1.492" /><path
         id="path144"
         style="fill:none;stroke:#000000;stroke-width:3.9849999;stroke-linecap:butt;stroke-linejoin:miter;stroke-miterlimit:10;stroke-dasharray:none;stroke-opacity:1"
         d="m 180.07,901.676 -2.437,-1.008 -2.363,-1.047 -2.262,-1.062 -2.188,-1.11 -2.086,-1.133 -2.011,-1.164 -1.934,-1.187 -1.855,-1.219 -1.77,-1.254 -1.691,-1.273 -1.629,-1.309 -1.535,-1.328 -1.473,-1.363 -1.406,-1.383 -1.34,-1.418 -1.266,-1.438 -1.195,-1.472 -1.133,-1.485 -1.078,-1.515 -1.012,-1.551 -0.953,-1.559 -0.902,-1.593 -0.836,-1.614 -0.777,-1.636 -0.739,-1.66 -0.679,-1.692 -0.625,-1.703 -0.583,-1.727 -0.531,-1.757 -0.492,-1.77 -0.441,-1.801 -0.407,-1.812 -0.359,-1.836 -0.332,-1.856 -0.285,-1.879 -0.254,-1.898 -0.219,-1.914 -0.176,-1.934 -0.152,-1.953 -0.133,-1.98 -0.097,-1.988 -0.067,-2.008 -0.043,-2.024 -0.023,-2.043 -0.012,-2.054 0.023,-2.078 0.032,-2.098 0.054,-2.11 0.067,-2.121 0.078,-2.14 0.098,-2.153 0.097,-2.164 0.114,-2.187 0.117,-2.199 0.121,-2.207 0.133,-2.231 0.121,-2.23 0.133,-2.25 0.132,-2.266 0.121,-2.262 0.118,-2.285 0.121,-2.297 0.113,-2.308 0.098,-2.317 0.086,-2.328 0.078,-2.34 0.066,-2.351 0.055,-2.352 0.023,-2.375 0.02,-2.371 -0.012,-2.387 -0.031,-2.394 -0.043,-2.395 -0.078,-2.406 -0.11,-2.414 -0.132,-2.418 -0.153,-2.43 -0.199,-2.425 -0.219,-2.442 -0.265,-2.449 -0.286,-2.449 -0.339,-2.449 -0.375,-2.461 -0.407,-2.461 -0.461,-2.461 -0.492,-2.473 -0.539,-2.473 -0.594,-2.484 -0.648,-2.469 -0.68,-2.484 -0.75,-2.484 -0.789,-2.481 -0.855,-2.484 -0.903,-2.485 -0.968,-2.492 -1.032,-2.484 -1.086,-2.481 -1.144,-2.496 -1.219,-2.48 -1.273,-2.485 -1.352,-2.484 -1.418,-2.481 -1.496,-2.484 -1.558,-2.473 -1.637,-2.472 -1.715,-2.469 -1.789,-2.473 -1.867,-2.461 -1.946,-2.461 -2.031,-2.46 -2.109,-2.45 -2.199,-2.441 -2.2856,-2.449 -2.3828,-2.43 -2.4609,-2.426 -2.5625,-2.429 -2.6445,-2.418 -2.75,-2.403 -2.8321,-2.406 -2.9453,-2.398 2.9453,-2.395 2.8321,-2.406 2.75,-2.406 2.6445,-2.415 2.5625,-2.429 2.4609,-2.426 2.3828,-2.43 2.2856,-2.449 2.199,-2.441 2.109,-2.45 2.031,-2.46 1.946,-2.461 1.867,-2.461 1.789,-2.473 1.715,-2.469 1.637,-2.472 1.558,-2.473 1.496,-2.484 1.418,-2.481 1.352,-2.484 1.273,-2.485 1.219,-2.48 1.144,-2.496 1.086,-2.481 1.032,-2.484 0.968,-2.492 0.903,-2.485 0.855,-2.484 0.789,-2.48 0.75,-2.485 0.68,-2.484 0.648,-2.469 0.594,-2.484 0.539,-2.473 0.492,-2.473 0.461,-2.461 0.407,-2.461 0.375,-2.46 0.339,-2.45 0.286,-2.449 0.265,-2.449 0.219,-2.442 0.199,-2.425 0.153,-2.43 0.132,-2.418 0.11,-2.414 0.078,-2.406 0.043,-2.395 0.031,-2.398 0.012,-2.383 -0.02,-2.371 -0.023,-2.375 -0.055,-2.352 -0.066,-2.351 -0.078,-2.34 -0.086,-2.328 -0.098,-2.317 -0.113,-2.308 -0.121,-2.297 -0.118,-2.285 -0.121,-2.262 -0.132,-2.266 -0.133,-2.25 -0.121,-2.23 -0.133,-2.231 -0.121,-2.207 -0.117,-2.199 -0.114,-2.187 -0.097,-2.164 -0.098,-2.153 -0.078,-2.14 -0.067,-2.121 -0.054,-2.11 -0.032,-2.097 -0.023,-2.079 0.012,-2.054 0.023,-2.043 0.043,-2.024 0.067,-2.008 0.097,-1.988 0.133,-1.98 0.152,-1.953 0.176,-1.934 0.219,-1.914 0.254,-1.898 0.285,-1.879 0.332,-1.856 0.359,-1.836 0.407,-1.812 0.441,-1.801 0.492,-1.77 0.531,-1.757 0.583,-1.727 0.625,-1.703 0.679,-1.692 0.739,-1.66 0.777,-1.636 0.836,-1.614 0.902,-1.593 0.953,-1.559 1.012,-1.551 1.078,-1.515 1.133,-1.485 1.195,-1.472 1.266,-1.438 1.34,-1.418 1.406,-1.383 1.473,-1.363 1.535,-1.328 1.629,-1.309 1.691,-1.273 1.77,-1.254 1.855,-1.219 1.934,-1.187 2.011,-1.164 2.086,-1.133 2.188,-1.11 2.262,-1.066 2.363,-1.043 2.437,-1.008 -3.418,1.492 -3.304,1.516 -3.188,1.539 -3.055,1.539 -2.953,1.559 -2.824,1.57 -2.726,1.594 -2.602,1.594 -2.504,1.613 -2.398,1.629 -2.286,1.644 -2.183,1.649 -2.09,1.672 -1.988,1.679 -1.891,1.692 -1.789,1.703 -1.703,1.715 -1.613,1.734 -1.528,1.75 -1.429,1.746 -1.352,1.77 -1.273,1.777 -1.188,1.793 -1.109,1.812 -1.031,1.813 -0.957,1.824 -0.879,1.832 -0.813,1.86 -0.746,1.855 -0.684,1.867 -0.601,1.891 -0.551,1.891 -0.496,1.91 -0.426,1.91 -0.375,1.926 -0.32,1.933 -0.262,1.953 -0.207,1.957 -0.168,1.965 -0.121,1.981 -0.062,1.976 -0.036,2 0.012,2.008 0.055,2.012 0.086,2.023 0.121,2.043 0.168,2.043 0.183,2.043 0.223,2.067 0.242,2.066 0.262,2.074 0.297,2.086 0.32,2.102 0.328,2.109 0.352,2.109 0.363,2.118 0.383,2.121 0.394,2.144 0.399,2.141 0.406,2.152 0.418,2.156 0.418,2.165 0.414,2.175 0.418,2.176 0.418,2.184 0.406,2.199 0.407,2.195 0.398,2.211 0.383,2.219 0.375,2.219 0.351,2.23 0.34,2.231 0.328,2.238 0.297,2.242 0.285,2.254 0.254,2.25 0.231,2.266 0.199,2.261 0.176,2.274 0.14,2.285 0.098,2.277 0.066,2.293 0.036,2.285 -0.012,2.309 -0.055,2.297 -0.097,2.304 -0.145,2.309 -0.187,2.32 -0.243,2.317 -0.297,2.328 -0.351,2.328 -0.395,2.332 -0.461,2.34 -0.527,2.328 -0.582,2.352 -0.648,2.339 -0.715,2.352 -0.789,2.352 -0.848,2.351 -0.922,2.36 -1,2.363 -1.078,2.363 -1.152,2.359 -1.231,2.375 -1.32,2.372 -1.395,2.375 -1.492,2.375 -1.57,2.371 -1.66,2.382 -1.758,2.375 -1.848,2.383 -1.941,2.383 -2.047,2.387 -2.141,2.383 -2.2418,2.382 -2.3516,2.399 -2.4492,2.383 -2.5586,2.394 -2.6719,2.383 -2.789,2.395 2.789,2.398 2.6719,2.383 2.5586,2.394 2.4492,2.383 2.3516,2.399 2.2418,2.382 2.141,2.383 2.047,2.387 1.941,2.383 1.848,2.383 1.758,2.375 1.66,2.382 1.57,2.371 1.492,2.375 1.395,2.372 1.32,2.375 1.231,2.371 1.152,2.363 1.078,2.363 1,2.364 0.922,2.359 0.848,2.351 0.789,2.352 0.715,2.352 0.648,2.339 0.582,2.352 0.527,2.328 0.461,2.34 0.395,2.328 0.351,2.332 0.297,2.328 0.243,2.317 0.187,2.32 0.145,2.305 0.097,2.308 0.055,2.297 0.012,2.309 -0.036,2.285 -0.066,2.293 -0.098,2.277 -0.14,2.285 -0.176,2.274 -0.199,2.261 -0.231,2.266 -0.254,2.25 -0.285,2.254 -0.297,2.238 -0.328,2.242 -0.34,2.231 -0.351,2.23 -0.375,2.219 -0.383,2.219 -0.398,2.211 -0.407,2.195 -0.406,2.199 -0.418,2.184 -0.418,2.176 -0.414,2.176 -0.418,2.164 -0.418,2.152 -0.406,2.156 -0.399,2.141 -0.394,2.144 -0.383,2.121 -0.363,2.118 -0.352,2.109 -0.328,2.109 -0.32,2.102 -0.297,2.086 -0.262,2.074 -0.242,2.066 -0.223,2.067 -0.183,2.043 -0.168,2.043 -0.121,2.043 -0.086,2.023 -0.055,2.012 -0.012,2.008 0.036,2 0.062,1.976 0.121,1.981 0.168,1.965 0.207,1.957 0.262,1.953 0.32,1.933 0.375,1.926 0.426,1.91 0.496,1.91 0.551,1.891 0.601,1.891 0.684,1.867 0.746,1.855 0.813,1.86 0.879,1.832 0.957,1.824 1.031,1.813 1.109,1.812 1.188,1.793 1.273,1.777 1.352,1.77 1.429,1.746 1.528,1.75 1.613,1.734 1.703,1.715 1.789,1.703 1.891,1.692 1.988,1.679 2.09,1.672 2.183,1.649 2.286,1.644 2.398,1.629 2.504,1.613 2.602,1.594 2.726,1.594 2.824,1.57 2.953,1.559 3.055,1.539 3.188,1.539 3.304,1.516 3.418,1.492 z" /><g
         transform="matrix(122.4,0,0,-106.8,894.692,254.948)"
         id="g146"><rect
           id="rect148"
           style="fill:#ffffff;fill-opacity:1;fill-rule:nonzero"
           transform="matrix(1,0,0,-1,0,1)"
           height="1"
           width="1"
           y="0"
           x="0" /></g><g
         transform="scale(10,10)"
         id="g150"><text
           id="text152"
           style="font-variant:normal;font-weight:normal;font-size:10.90909958px;font-family:CMMI10;-inkscape-font-specification:CMMI10;writing-mode:lr-tb;fill:#000000;fill-opacity:1;fill-rule:nonzero;stroke:none"
           transform="matrix(1,0,0,-1,92.4813,17.827)"><tspan
             id="tspan154"
             y="0"
             x="0">x</tspan></text>
</g><path
         id="path156"
         style="fill:#000000;fill-opacity:1;fill-rule:nonzero;stroke:none"
         d="m 219.93,361.672 1.109,-2.442 1.34,-2.359 1.57,-2.266 1.793,-2.183 2.008,-2.09 2.223,-2.008 2.437,-1.937 2.649,-1.856 2.843,-1.769 3.055,-1.692 3.242,-1.625 3.438,-1.539 3.625,-1.472 3.812,-1.407 4,-1.339 4.176,-1.262 4.34,-1.199 4.523,-1.129 4.684,-1.078 4.844,-1.012 5.007,-0.957 5.164,-0.899 5.321,-0.836 5.469,-0.781 5.605,-0.734 5.754,-0.68 5.891,-0.629 6.019,-0.582 6.152,-0.527 6.274,-0.492 6.406,-0.442 6.516,-0.406 6.633,-0.363 6.746,-0.328 6.855,-0.286 6.969,-0.254 7.051,-0.218 7.164,-0.176 7.238,-0.156 7.34,-0.129 7.426,-0.102 7.504,-0.066 7.593,-0.043 7.657,-0.02 7.722,-0.011 7.801,0.019 7.855,0.035 7.922,0.055 7.977,0.066 8.031,0.075 8.074,0.101 8.121,0.098 8.161,0.109 8.207,0.121 8.23,0.121 8.262,0.133 8.293,0.121 8.32,0.133 8.324,0.129 8.352,0.121 8.359,0.121 8.364,0.121 8.371,0.11 8.371,0.101 8.371,0.086 8.359,0.078 8.352,0.067 8.34,0.054 8.328,0.02 8.293,0.023 8.273,-0.011 8.238,-0.032 8.207,-0.046 8.176,-0.075 8.141,-0.109 8.086,-0.133 8.043,-0.156 7.984,-0.195 7.945,-0.219 7.875,-0.266 7.813,-0.285 7.746,-0.34 7.68,-0.375 7.601,-0.406 7.539,-0.461 7.45,-0.496 7.359,-0.535 7.273,-0.594 7.184,-0.648 7.086,-0.684 6.988,-0.746 6.879,-0.789 6.777,-0.86 6.668,-0.898 6.551,-0.969 6.438,-1.031 6.316,-1.09 6.184,-1.14 6.066,-1.219 5.922,-1.278 5.789,-1.351 5.648,-1.414 5.516,-1.496 5.348,-1.559 5.207,-1.637 5.054,-1.714 4.903,-1.793 4.722,-1.868 4.571,-1.945 4.394,-2.031 4.219,-2.11 4.055,-2.195 3.867,-2.285 3.668,-2.387 3.496,-2.461 3.293,-2.558 3.121,-2.649 2.902,-2.746 2.692,-2.836 2.504,-2.941 2.492,2.941 2.703,2.836 2.902,2.746 3.11,2.649 3.297,2.558 3.492,2.461 3.68,2.387 3.867,2.285 4.043,2.195 4.218,2.11 4.407,2.031 4.558,1.945 4.739,1.868 4.9,1.793 5.05,1.714 5.2,1.637 5.36,1.559 5.5,1.496 5.66,1.414 5.79,1.351 5.92,1.278 6.06,1.219 6.19,1.14 6.32,1.09 6.43,1.031 6.56,0.969 6.66,0.898 6.77,0.86 6.89,0.789 6.99,0.746 7.09,0.684 7.18,0.648 7.27,0.594 7.36,0.535 7.45,0.496 7.53,0.461 7.6,0.406 7.68,0.375 7.76,0.34 7.81,0.285 7.88,0.266 7.93,0.219 7.99,0.195 8.05,0.156 8.08,0.133 8.13,0.109 8.18,0.075 8.21,0.046 8.25,0.032 8.27,0.011 8.29,-0.023 8.32,-0.02 8.34,-0.054 8.35,-0.067 8.36,-0.078 8.37,-0.086 8.37,-0.101 8.38,-0.11 8.37,-0.121 8.36,-0.121 8.34,-0.121 8.33,-0.129 8.31,-0.133 8.29,-0.121 8.28,-0.133 8.23,-0.121 8.19,-0.121 8.16,-0.109 8.14,-0.098 8.07,-0.101 8.03,-0.075 7.97,-0.066 7.92,-0.055 7.87,-0.035 7.8,-0.019 7.72,0.011 7.66,0.02 7.58,0.043 7.51,0.066 7.42,0.102 7.34,0.129 7.25,0.156 7.16,0.176 7.05,0.218 6.97,0.254 6.84,0.286 6.75,0.328 6.63,0.363 6.53,0.406 6.39,0.442 6.29,0.492 6.15,0.527 6.02,0.582 5.89,0.629 5.75,0.68 5.61,0.734 5.46,0.781 5.32,0.836 5.16,0.899 5.01,0.957 4.86,1.012 4.68,1.078 4.51,1.129 4.35,1.199 4.18,1.262 3.99,1.339 3.81,1.407 3.64,1.472 3.42,1.539 3.26,1.625 3.04,1.692 2.85,1.769 2.64,1.856 2.44,1.937 2.23,2.008 2.01,2.09 1.79,2.183 1.57,2.266 1.34,2.359 1.11,2.442 -1.6,-3.418 -1.81,-3.309 -2.04,-3.183 -2.23,-3.055 -2.43,-2.957 -2.63,-2.82 -2.83,-2.727 -3.03,-2.605 -3.22,-2.504 -3.39,-2.395 -3.58,-2.285 -3.76,-2.187 -3.93,-2.086 -4.11,-1.989 -4.27,-1.89 -4.44,-1.789 -4.59,-1.703 -4.77,-1.618 -4.91,-1.527 -5.06,-1.426 -5.22,-1.351 -5.35,-1.274 -5.49,-1.187 -5.63,-1.11 -5.76,-1.035 -5.89,-0.953 -6.02,-0.879 -6.14,-0.812 -6.26,-0.75 -6.39,-0.68 -6.48,-0.606 -6.6,-0.546 -6.71,-0.496 -6.81,-0.43 -6.9,-0.371 -7,-0.321 -7.08,-0.261 -7.19,-0.211 -7.25,-0.164 -7.35,-0.121 -7.41,-0.067 -7.5,-0.031 -7.57,0.012 -7.62,0.054 -7.69,0.086 -7.76,0.121 -7.81,0.164 -7.87,0.188 -7.91,0.219 -7.95,0.242 -8.01,0.266 -8.03,0.296 -8.09,0.317 -8.11,0.332 -8.13,0.351 -8.16,0.36 -8.18,0.387 -8.2,0.394 -8.22,0.395 -8.22,0.406 -8.23,0.418 -8.23,0.418 -8.24,0.418 -8.24,0.418 -8.23,0.418 -8.22,0.406 -8.2,0.406 -8.18,0.395 -8.18,0.386 -8.14,0.372 -8.11,0.351 -8.09,0.34 -8.05,0.332 -8.01,0.297 -7.98,0.285 -7.91,0.254 -7.88,0.23 -7.83,0.196 -7.77,0.175 -7.71,0.145 -7.64,0.098 -7.6,0.066 -7.5,0.031 -7.45,-0.008 -7.36,-0.054 -7.29,-0.102 -7.2,-0.14 -7.11,-0.188 -7.02,-0.242 -6.93,-0.297 -6.84,-0.352 -6.73,-0.394 -6.63,-0.461 -6.52,-0.527 -6.41,-0.582 -6.29,-0.649 -6.18,-0.715 -6.05,-0.793 -5.93,-0.843 -5.79,-0.922 -5.68,-1 -5.53,-1.078 -5.39,-1.153 -5.25,-1.23 -5.1,-1.32 -4.96,-1.395 -4.8,-1.496 -4.648,-1.57 -4.48,-1.657 -4.317,-1.758 -4.156,-1.847 -3.988,-1.945 -3.801,-2.043 -3.637,-2.141 -3.449,-2.242 -3.262,-2.352 -3.078,-2.449 -2.875,-2.563 -2.695,-2.668 -2.492,-2.789 -2.492,2.789 -2.696,2.668 -2.875,2.563 -3.09,2.449 -3.261,2.352 -3.438,2.242 -3.637,2.141 -3.804,2.043 -3.996,1.945 -4.145,1.847 -4.328,1.758 -4.48,1.657 -4.637,1.57 -4.801,1.496 -4.957,1.395 -5.105,1.32 -5.254,1.23 -5.395,1.153 -5.527,1.078 -5.668,1 -5.801,0.922 -5.934,0.843 -6.05,0.793 -6.176,0.715 -6.297,0.649 -6.402,0.582 -6.516,0.527 -6.637,0.461 -6.722,0.394 -6.836,0.352 -6.93,0.297 -7.02,0.242 -7.121,0.188 -7.195,0.14 -7.285,0.102 -7.371,0.054 -7.438,0.008 -7.515,-0.031 -7.582,-0.066 -7.645,-0.098 -7.715,-0.145 -7.765,-0.175 -7.832,-0.196 -7.879,-0.23 -7.922,-0.254 -7.977,-0.285 -8.008,-0.297 -8.054,-0.332 -8.086,-0.34 -8.106,-0.351 -8.14,-0.372 -8.176,-0.386 -8.184,-0.395 -8.207,-0.406 -8.218,-0.406 -8.231,-0.418 -8.226,-0.418 -8.243,-0.418 -8.238,-0.418 -8.226,-0.418 -8.231,-0.406 -8.207,-0.395 -8.207,-0.394 -8.176,-0.387 -8.16,-0.36 -8.141,-0.351 -8.109,-0.332 -8.074,-0.317 -8.031,-0.296 -8.012,-0.266 -7.953,-0.242 -7.91,-0.219 -7.868,-0.188 -7.808,-0.164 -7.758,-0.121 -7.691,-0.086 -7.633,-0.054 -7.563,-0.012 -7.492,0.031 -7.426,0.067 -7.34,0.121 -7.261,0.164 -7.172,0.211 -7.086,0.261 -7,0.321 -6.91,0.371 -6.801,0.43 -6.703,0.496 -6.602,0.546 -6.492,0.606 -6.375,0.68 -6.262,0.75 -6.14,0.812 -6.02,0.879 -5.89,0.953 -5.766,1.035 -5.625,1.11 -5.496,1.187 -5.359,1.274 -5.208,1.351 -5.066,1.426 -4.91,1.527 -4.758,1.618 -4.59,1.703 -4.441,1.789 -4.274,1.89 -4.109,1.989 -3.934,2.086 -3.753,2.187 -3.582,2.285 -3.407,2.395 -3.211,2.504 -3.019,2.605 -2.836,2.727 -2.637,2.82 -2.437,2.957 -2.231,3.055 -2.019,3.183 -1.825,3.309 -1.593,3.418" /><path
         id="path158"
         style="fill:none;stroke:#000000;stroke-width:3.9849999;stroke-linecap:butt;stroke-linejoin:miter;stroke-miterlimit:10;stroke-dasharray:none;stroke-opacity:1"
         d="m 219.93,361.672 1.109,-2.442 1.34,-2.359 1.57,-2.266 1.793,-2.183 2.008,-2.09 2.223,-2.008 2.437,-1.937 2.649,-1.856 2.843,-1.769 3.055,-1.692 3.242,-1.625 3.438,-1.539 3.625,-1.472 3.812,-1.407 4,-1.339 4.176,-1.262 4.34,-1.199 4.523,-1.129 4.684,-1.078 4.844,-1.012 5.007,-0.957 5.164,-0.899 5.321,-0.836 5.469,-0.781 5.605,-0.734 5.754,-0.68 5.891,-0.629 6.019,-0.582 6.152,-0.527 6.274,-0.492 6.406,-0.442 6.516,-0.406 6.633,-0.363 6.746,-0.328 6.855,-0.286 6.969,-0.254 7.051,-0.218 7.164,-0.176 7.238,-0.156 7.34,-0.129 7.426,-0.102 7.504,-0.066 7.593,-0.043 7.657,-0.02 7.722,-0.011 7.801,0.019 7.855,0.035 7.922,0.055 7.977,0.066 8.031,0.075 8.074,0.101 8.121,0.098 8.161,0.109 8.207,0.121 8.23,0.121 8.262,0.133 8.293,0.121 8.32,0.133 8.324,0.129 8.352,0.121 8.359,0.121 8.364,0.121 8.371,0.11 8.371,0.101 8.371,0.086 8.359,0.078 8.352,0.067 8.34,0.054 8.328,0.02 8.293,0.023 8.273,-0.011 8.238,-0.032 8.207,-0.046 8.176,-0.075 8.141,-0.109 8.086,-0.133 8.043,-0.156 7.984,-0.195 7.945,-0.219 7.875,-0.266 7.813,-0.285 7.746,-0.34 7.68,-0.375 7.601,-0.406 7.539,-0.461 7.45,-0.496 7.359,-0.535 7.273,-0.594 7.184,-0.648 7.086,-0.684 6.988,-0.746 6.879,-0.789 6.777,-0.86 6.668,-0.898 6.551,-0.969 6.438,-1.031 6.316,-1.09 6.184,-1.14 6.066,-1.219 5.922,-1.278 5.789,-1.351 5.648,-1.414 5.516,-1.496 5.348,-1.559 5.207,-1.637 5.054,-1.714 4.903,-1.793 4.722,-1.868 4.571,-1.945 4.394,-2.031 4.219,-2.11 4.055,-2.195 3.867,-2.285 3.668,-2.387 3.496,-2.461 3.293,-2.558 3.121,-2.649 2.902,-2.746 2.692,-2.836 2.504,-2.941 2.492,2.941 2.703,2.836 2.902,2.746 3.11,2.649 3.297,2.558 3.492,2.461 3.68,2.387 3.867,2.285 4.043,2.195 4.218,2.11 4.407,2.031 4.558,1.945 4.739,1.868 4.9,1.793 5.05,1.714 5.2,1.637 5.36,1.559 5.5,1.496 5.66,1.414 5.79,1.351 5.92,1.278 6.06,1.219 6.19,1.14 6.32,1.09 6.43,1.031 6.56,0.969 6.66,0.898 6.77,0.86 6.89,0.789 6.99,0.746 7.09,0.684 7.18,0.648 7.27,0.594 7.36,0.535 7.45,0.496 7.53,0.461 7.6,0.406 7.68,0.375 7.76,0.34 7.81,0.285 7.88,0.266 7.93,0.219 7.99,0.195 8.05,0.156 8.08,0.133 8.13,0.109 8.18,0.075 8.21,0.046 8.25,0.032 8.27,0.011 8.29,-0.023 8.32,-0.02 8.34,-0.054 8.35,-0.067 8.36,-0.078 8.37,-0.086 8.37,-0.101 8.38,-0.11 8.37,-0.121 8.36,-0.121 8.34,-0.121 8.33,-0.129 8.31,-0.133 8.29,-0.121 8.28,-0.133 8.23,-0.121 8.19,-0.121 8.16,-0.109 8.14,-0.098 8.07,-0.101 8.03,-0.075 7.97,-0.066 7.92,-0.055 7.87,-0.035 7.8,-0.019 7.72,0.011 7.66,0.02 7.58,0.043 7.51,0.066 7.42,0.102 7.34,0.129 7.25,0.156 7.16,0.176 7.05,0.218 6.97,0.254 6.84,0.286 6.75,0.328 6.63,0.363 6.53,0.406 6.39,0.442 6.29,0.492 6.15,0.527 6.02,0.582 5.89,0.629 5.75,0.68 5.61,0.734 5.46,0.781 5.32,0.836 5.16,0.899 5.01,0.957 4.86,1.012 4.68,1.078 4.51,1.129 4.35,1.199 4.18,1.262 3.99,1.339 3.81,1.407 3.64,1.472 3.42,1.539 3.26,1.625 3.04,1.692 2.85,1.769 2.64,1.856 2.44,1.937 2.23,2.008 2.01,2.09 1.79,2.183 1.57,2.266 1.34,2.359 1.11,2.442 -1.6,-3.418 -1.81,-3.309 -2.04,-3.183 -2.23,-3.055 -2.43,-2.957 -2.63,-2.82 -2.83,-2.727 -3.03,-2.605 -3.22,-2.504 -3.39,-2.395 -3.58,-2.285 -3.76,-2.187 -3.93,-2.086 -4.11,-1.989 -4.27,-1.89 -4.44,-1.789 -4.59,-1.703 -4.77,-1.618 -4.91,-1.527 -5.06,-1.426 -5.22,-1.351 -5.35,-1.274 -5.49,-1.187 -5.63,-1.11 -5.76,-1.035 -5.89,-0.953 -6.02,-0.879 -6.14,-0.812 -6.26,-0.75 -6.39,-0.68 -6.48,-0.606 -6.6,-0.546 -6.71,-0.496 -6.81,-0.43 -6.9,-0.371 -7,-0.321 -7.08,-0.261 -7.19,-0.211 -7.25,-0.164 -7.35,-0.121 -7.41,-0.067 -7.5,-0.031 -7.57,0.012 -7.62,0.054 -7.69,0.086 -7.76,0.121 -7.81,0.164 -7.87,0.188 -7.91,0.219 -7.95,0.242 -8.01,0.266 -8.03,0.296 -8.09,0.317 -8.11,0.332 -8.13,0.351 -8.16,0.36 -8.18,0.387 -8.2,0.394 -8.22,0.395 -8.22,0.406 -8.23,0.418 -8.23,0.418 -8.24,0.418 -8.24,0.418 -8.23,0.418 -8.22,0.406 -8.2,0.406 -8.18,0.395 -8.18,0.386 -8.14,0.372 -8.11,0.351 -8.09,0.34 -8.05,0.332 -8.01,0.297 -7.98,0.285 -7.91,0.254 -7.88,0.23 -7.83,0.196 -7.77,0.175 -7.71,0.145 -7.64,0.098 -7.6,0.066 -7.5,0.031 -7.45,-0.008 -7.36,-0.054 -7.29,-0.102 -7.2,-0.14 -7.11,-0.188 -7.02,-0.242 -6.93,-0.297 -6.84,-0.352 -6.73,-0.394 -6.63,-0.461 -6.52,-0.527 -6.41,-0.582 -6.29,-0.649 -6.18,-0.715 -6.05,-0.793 -5.93,-0.843 -5.79,-0.922 -5.68,-1 -5.53,-1.078 -5.39,-1.153 -5.25,-1.23 -5.1,-1.32 -4.96,-1.395 -4.8,-1.496 -4.648,-1.57 -4.48,-1.657 -4.317,-1.758 -4.156,-1.847 -3.988,-1.945 -3.801,-2.043 -3.637,-2.141 -3.449,-2.242 -3.262,-2.352 -3.078,-2.449 -2.875,-2.563 -2.695,-2.668 -2.492,-2.789 -2.492,2.789 -2.696,2.668 -2.875,2.563 -3.09,2.449 -3.261,2.352 -3.438,2.242 -3.637,2.141 -3.804,2.043 -3.996,1.945 -4.145,1.847 -4.328,1.758 -4.48,1.657 -4.637,1.57 -4.801,1.496 -4.957,1.395 -5.105,1.32 -5.254,1.23 -5.395,1.153 -5.527,1.078 -5.668,1 -5.801,0.922 -5.934,0.843 -6.05,0.793 -6.176,0.715 -6.297,0.649 -6.402,0.582 -6.516,0.527 -6.637,0.461 -6.722,0.394 -6.836,0.352 -6.93,0.297 -7.02,0.242 -7.121,0.188 -7.195,0.14 -7.285,0.102 -7.371,0.054 -7.438,0.008 -7.515,-0.031 -7.582,-0.066 -7.645,-0.098 -7.715,-0.145 -7.765,-0.175 -7.832,-0.196 -7.879,-0.23 -7.922,-0.254 -7.977,-0.285 -8.008,-0.297 -8.054,-0.332 -8.086,-0.34 -8.106,-0.351 -8.14,-0.372 -8.176,-0.386 -8.184,-0.395 -8.207,-0.406 -8.218,-0.406 -8.231,-0.418 -8.226,-0.418 -8.243,-0.418 -8.238,-0.418 -8.226,-0.418 -8.231,-0.406 -8.207,-0.395 -8.207,-0.394 -8.176,-0.387 -8.16,-0.36 -8.141,-0.351 -8.109,-0.332 -8.074,-0.317 -8.031,-0.296 -8.012,-0.266 -7.953,-0.242 -7.91,-0.219 -7.868,-0.188 -7.808,-0.164 -7.758,-0.121 -7.691,-0.086 -7.633,-0.054 -7.563,-0.012 -7.492,0.031 -7.426,0.067 -7.34,0.121 -7.261,0.164 -7.172,0.211 -7.086,0.261 -7,0.321 -6.91,0.371 -6.801,0.43 -6.703,0.496 -6.602,0.546 -6.492,0.606 -6.375,0.68 -6.262,0.75 -6.14,0.812 -6.02,0.879 -5.89,0.953 -5.766,1.035 -5.625,1.11 -5.496,1.187 -5.359,1.274 -5.208,1.351 -5.066,1.426 -4.91,1.527 -4.758,1.618 -4.59,1.703 -4.441,1.789 -4.274,1.89 -4.109,1.989 -3.934,2.086 -3.753,2.187 -3.582,2.285 -3.407,2.395 -3.211,2.504 -3.019,2.605 -2.836,2.727 -2.637,2.82 -2.437,2.957 -2.231,3.055 -2.019,3.183 -1.825,3.309 -1.593,3.418 z" /><g
         transform="matrix(117.6,0,0,-128.4,1812.51,1245.49)"
         id="g160"><rect
           id="rect162"
           style="fill:#ffffff;fill-opacity:1;fill-rule:nonzero"
           transform="matrix(1,0,0,-1,0,1)"
           height="1"
           width="1"
           y="0"
           x="0" /></g><g
         transform="scale(10,10)"
         id="g164"><text
           id="text166"
           style="font-variant:normal;font-weight:normal;font-size:10.90909958px;font-family:CMMI10;-inkscape-font-specification:CMMI10;writing-mode:lr-tb;fill:#000000;fill-opacity:1;fill-rule:nonzero;stroke:none"
           transform="matrix(1,0,0,-1,184.263,116.761)"><tspan
             id="tspan168"
             y="0"
             x="0">y</tspan></text>
</g><path
         id="path170"
         style="fill:#000000;fill-opacity:1;fill-rule:nonzero;stroke:none"
         d="m 1731.94,401.531 2.45,1.117 2.35,1.364 2.28,1.617 2.17,1.855 2.1,2.086 2.01,2.321 1.93,2.547 1.85,2.769 1.78,2.988 1.69,3.207 1.62,3.418 1.54,3.625 1.48,3.836 1.4,4.02 1.34,4.23 1.27,4.418 1.19,4.602 1.14,4.789 1.08,4.969 1.01,5.14 0.95,5.305 0.89,5.484 0.85,5.645 0.78,5.812 0.72,5.957 0.68,6.118 0.63,6.253 0.59,6.403 0.53,6.551 0.49,6.679 0.45,6.809 0.4,6.933 0.36,7.063 0.32,7.187 0.29,7.293 0.25,7.407 0.22,7.515 0.19,7.625 0.15,7.711 0.13,7.824 0.09,7.911 0.08,7.984 0.04,8.078 0.02,8.16 0,8.231 -0.01,8.304 -0.03,8.371 -0.06,8.438 -0.07,8.504 -0.08,8.547 -0.09,8.605 -0.09,8.645 -0.12,8.703 -0.12,8.734 -0.13,8.766 -0.12,8.801 -0.12,8.832 -0.13,8.843 -0.14,8.879 -0.12,8.887 -0.13,8.899 -0.11,8.91 -0.11,8.91 -0.1,8.91 -0.09,8.898 -0.08,8.899 -0.06,8.89 -0.05,8.864 -0.03,8.855 -0.01,8.824 0.01,8.79 0.02,8.765 0.05,8.723 0.08,8.691 0.1,8.649 0.13,8.589 0.15,8.536 0.2,8.492 0.23,8.418 0.26,8.359 0.29,8.297 0.33,8.215 0.38,8.141 0.41,8.066 0.45,7.976 0.51,7.899 0.54,7.789 0.59,7.7 0.64,7.6 0.69,7.5 0.74,7.39 0.8,7.27 0.84,7.17 0.92,7.03 0.96,6.92 1.04,6.78 1.07,6.66 1.16,6.51 1.2,6.38 1.29,6.23 1.35,6.09 1.42,5.93 1.48,5.77 1.57,5.62 1.63,5.45 1.71,5.28 1.79,5.11 1.87,4.93 1.94,4.76 2.04,4.57 2.12,4.38 2.19,4.19 2.29,3.99 2.38,3.79 2.46,3.59 2.55,3.37 2.65,3.16 2.76,2.96 2.83,2.72 2.94,2.51 -2.94,2.51 -2.83,2.72 -2.76,2.96 -2.65,3.16 -2.55,3.37 -2.46,3.59 -2.38,3.79 -2.29,3.99 -2.19,4.19 -2.12,4.38 -2.04,4.57 -1.94,4.76 -1.87,4.92 -1.79,5.12 -1.71,5.28 -1.63,5.45 -1.57,5.61 -1.48,5.78 -1.42,5.93 -1.35,6.09 -1.29,6.23 -1.2,6.37 -1.16,6.53 -1.07,6.65 -1.04,6.78 -0.96,6.92 -0.92,7.03 -0.84,7.17 -0.8,7.27 -0.74,7.39 -0.69,7.5 -0.64,7.6 -0.59,7.69 -0.54,7.8 -0.51,7.89 -0.45,7.99 -0.41,8.06 -0.38,8.14 -0.33,8.22 -0.29,8.29 -0.26,8.35 -0.23,8.43 -0.2,8.49 -0.15,8.54 -0.13,8.6 -0.1,8.64 -0.08,8.68 -0.05,8.73 -0.02,8.75 -0.01,8.81 0.01,8.83 0.03,8.83 0.05,8.88 0.06,8.88 0.08,8.9 0.09,8.91 0.1,8.91 0.11,8.91 0.11,8.91 0.13,8.9 0.12,8.88 0.14,8.88 0.13,8.84 0.12,8.84 0.12,8.8 0.13,8.76 0.12,8.74 0.12,8.69 0.09,8.65 0.09,8.61 0.08,8.55 0.07,8.49 0.06,8.45 0.03,8.37 0.01,8.29 0,8.24 -0.02,8.16 -0.04,8.08 -0.08,7.99 -0.09,7.91 -0.13,7.82 -0.15,7.71 -0.19,7.63 -0.22,7.51 -0.25,7.41 -0.29,7.3 -0.32,7.18 -0.36,7.06 -0.4,6.94 -0.45,6.81 -0.49,6.68 -0.53,6.55 -0.59,6.4 -0.63,6.25 -0.68,6.11 -0.72,5.97 -0.78,5.81 -0.85,5.64 -0.89,5.49 -0.95,5.3 -1.01,5.15 -1.08,4.96 -1.14,4.79 -1.19,4.61 -1.27,4.41 -1.34,4.22 -1.4,4.03 -1.48,3.84 -1.54,3.62 -1.62,3.42 -1.69,3.21 -1.78,2.98 -1.85,2.77 -1.93,2.55 -2.01,2.32 -2.1,2.09 -2.17,1.85 -2.28,1.62 -2.35,1.36 -2.45,1.13 3.43,-1.61 3.31,-1.85 3.17,-2.07 3.07,-2.29 2.94,-2.51 2.84,-2.73 2.71,-2.95 2.61,-3.15 2.51,-3.35 2.4,-3.56 2.28,-3.76 2.18,-3.94 2.09,-4.13 1.99,-4.32 1.88,-4.51 1.8,-4.68 1.71,-4.86 1.61,-5.03 1.52,-5.19 1.44,-5.36 1.35,-5.52 1.27,-5.66 1.19,-5.82 1.11,-5.97 1.02,-6.12 0.97,-6.25 0.87,-6.39 0.82,-6.53 0.74,-6.65 0.68,-6.78 0.61,-6.9 0.55,-7.02 0.48,-7.12 0.44,-7.25 0.36,-7.34 0.34,-7.45 0.25,-7.54 0.22,-7.65 0.16,-7.72 0.11,-7.82 0.08,-7.91 0.03,-7.98 -0.02,-8.06 -0.04,-8.12 -0.09,-8.21 -0.13,-8.25 -0.16,-8.33 -0.18,-8.38 -0.23,-8.43 -0.24,-8.48 -0.27,-8.54 -0.29,-8.57 -0.32,-8.6 -0.32,-8.64 -0.37,-8.68 -0.36,-8.69 -0.37,-8.72 -0.4,-8.73 -0.4,-8.76 -0.4,-8.77 -0.42,-8.78 -0.41,-8.76 -0.42,-8.78 -0.42,-8.78 -0.42,-8.76 -0.4,-8.75 -0.41,-8.75 -0.39,-8.71 -0.39,-8.7 -0.38,-8.67 -0.36,-8.63 -0.34,-8.62 -0.32,-8.55 -0.3,-8.53 -0.28,-8.48 -0.26,-8.43 -0.22,-8.37 -0.21,-8.33 -0.18,-8.26 -0.13,-8.19 -0.1,-8.12 -0.07,-8.06 -0.03,-7.97 0.01,-7.9 0.06,-7.81 0.09,-7.73 0.14,-7.64 0.2,-7.54 0.23,-7.45 0.3,-7.33 0.35,-7.24 0.4,-7.12 0.47,-7.02 0.52,-6.89 0.58,-6.76 0.65,-6.65 0.72,-6.52 0.78,-6.37 0.85,-6.25 0.93,-6.11 1,-5.96 1.07,-5.8 1.16,-5.67 1.23,-5.51 1.32,-5.35 1.39,-5.18 1.48,-5.02 1.58,-4.85 1.66,-4.67 1.76,-4.49 1.85,-4.31 1.93,-4.12 2.06,-3.94 2.13,-3.74 2.25,-3.53 2.34,-3.36 2.46,-3.14 2.56,-2.92 2.67,-2.73 2.78,-2.49 -2.78,-2.49 -2.67,-2.73 -2.56,-2.92 -2.46,-3.14 -2.34,-3.35 -2.25,-3.54 -2.13,-3.74 -2.06,-3.94 -1.93,-4.12 -1.85,-4.31 -1.76,-4.49 -1.66,-4.67 -1.58,-4.85 -1.48,-5.02 -1.39,-5.18 -1.32,-5.35 -1.23,-5.51 -1.16,-5.66 -1.07,-5.8 -1,-5.97 -0.93,-6.11 -0.85,-6.24 -0.78,-6.38 -0.72,-6.53 -0.65,-6.63 -0.58,-6.78 -0.52,-6.89 -0.47,-7.01 -0.4,-7.12 -0.35,-7.24 -0.3,-7.34 -0.23,-7.44 -0.2,-7.53 -0.14,-7.642 -0.09,-7.734 -0.06,-7.809 -0.01,-7.902 0.03,-7.976 0.07,-8.051 0.1,-8.129 0.13,-8.188 0.18,-8.261 0.21,-8.317 0.22,-8.383 0.26,-8.425 0.28,-8.481 0.3,-8.527 0.32,-8.57 0.34,-8.602 0.36,-8.633 0.38,-8.672 0.39,-8.699 0.39,-8.711 0.41,-8.746 0.4,-8.746 0.42,-8.766 0.42,-8.781 0.42,-8.777 0.41,-8.766 0.42,-8.777 0.4,-8.77 0.4,-8.754 0.4,-8.734 0.37,-8.727 0.36,-8.687 0.37,-8.68 0.32,-8.637 0.32,-8.601 0.29,-8.57 0.27,-8.536 0.24,-8.48 0.23,-8.43 0.18,-8.383 0.16,-8.324 0.13,-8.265 0.09,-8.196 0.04,-8.129 0.02,-8.054 -0.03,-7.985 -0.08,-7.898 -0.11,-7.824 -0.16,-7.735 -0.22,-7.636 -0.25,-7.547 -0.34,-7.449 -0.36,-7.348 -0.44,-7.242 -0.48,-7.129 -0.55,-7.012 -0.61,-6.898 -0.68,-6.778 -0.74,-6.66 -0.82,-6.512 -0.87,-6.394 -0.97,-6.254 -1.02,-6.117 -1.11,-5.965 -1.19,-5.824 -1.27,-5.668 -1.35,-5.528 -1.44,-5.351 -1.52,-5.196 -1.61,-5.019 -1.71,-4.859 -1.8,-4.68 -1.88,-4.504 -1.99,-4.328 -2.09,-4.133 -2.18,-3.941 -2.28,-3.758 -2.4,-3.559 -2.51,-3.351 -2.61,-3.153 -2.71,-2.945 -2.84,-2.727 -2.94,-2.515 -3.07,-2.297 -3.17,-2.063 -3.31,-1.847 -3.43,-1.602" /><path
         id="path172"
         style="fill:none;stroke:#000000;stroke-width:3.9849999;stroke-linecap:butt;stroke-linejoin:miter;stroke-miterlimit:10;stroke-dasharray:none;stroke-opacity:1"
         d="m 1731.94,401.531 2.45,1.117 2.35,1.364 2.28,1.617 2.17,1.855 2.1,2.086 2.01,2.321 1.93,2.547 1.85,2.769 1.78,2.988 1.69,3.207 1.62,3.418 1.54,3.625 1.48,3.836 1.4,4.02 1.34,4.23 1.27,4.418 1.19,4.602 1.14,4.789 1.08,4.969 1.01,5.14 0.95,5.305 0.89,5.484 0.85,5.645 0.78,5.812 0.72,5.957 0.68,6.118 0.63,6.253 0.59,6.403 0.53,6.551 0.49,6.679 0.45,6.809 0.4,6.933 0.36,7.063 0.32,7.187 0.29,7.293 0.25,7.407 0.22,7.515 0.19,7.625 0.15,7.711 0.13,7.824 0.09,7.911 0.08,7.984 0.04,8.078 0.02,8.16 0,8.231 -0.01,8.304 -0.03,8.371 -0.06,8.438 -0.07,8.504 -0.08,8.547 -0.09,8.605 -0.09,8.645 -0.12,8.703 -0.12,8.734 -0.13,8.766 -0.12,8.801 -0.12,8.832 -0.13,8.843 -0.14,8.879 -0.12,8.887 -0.13,8.899 -0.11,8.91 -0.11,8.91 -0.1,8.91 -0.09,8.898 -0.08,8.899 -0.06,8.89 -0.05,8.864 -0.03,8.855 -0.01,8.824 0.01,8.79 0.02,8.765 0.05,8.723 0.08,8.691 0.1,8.649 0.13,8.589 0.15,8.536 0.2,8.492 0.23,8.418 0.26,8.359 0.29,8.297 0.33,8.215 0.38,8.141 0.41,8.066 0.45,7.976 0.51,7.899 0.54,7.789 0.59,7.7 0.64,7.6 0.69,7.5 0.74,7.39 0.8,7.27 0.84,7.17 0.92,7.03 0.96,6.92 1.04,6.78 1.07,6.66 1.16,6.51 1.2,6.38 1.29,6.23 1.35,6.09 1.42,5.93 1.48,5.77 1.57,5.62 1.63,5.45 1.71,5.28 1.79,5.11 1.87,4.93 1.94,4.76 2.04,4.57 2.12,4.38 2.19,4.19 2.29,3.99 2.38,3.79 2.46,3.59 2.55,3.37 2.65,3.16 2.76,2.96 2.83,2.72 2.94,2.51 -2.94,2.51 -2.83,2.72 -2.76,2.96 -2.65,3.16 -2.55,3.37 -2.46,3.59 -2.38,3.79 -2.29,3.99 -2.19,4.19 -2.12,4.38 -2.04,4.57 -1.94,4.76 -1.87,4.92 -1.79,5.12 -1.71,5.28 -1.63,5.45 -1.57,5.61 -1.48,5.78 -1.42,5.93 -1.35,6.09 -1.29,6.23 -1.2,6.37 -1.16,6.53 -1.07,6.65 -1.04,6.78 -0.96,6.92 -0.92,7.03 -0.84,7.17 -0.8,7.27 -0.74,7.39 -0.69,7.5 -0.64,7.6 -0.59,7.69 -0.54,7.8 -0.51,7.89 -0.45,7.99 -0.41,8.06 -0.38,8.14 -0.33,8.22 -0.29,8.29 -0.26,8.35 -0.23,8.43 -0.2,8.49 -0.15,8.54 -0.13,8.6 -0.1,8.64 -0.08,8.68 -0.05,8.73 -0.02,8.75 -0.01,8.81 0.01,8.83 0.03,8.83 0.05,8.88 0.06,8.88 0.08,8.9 0.09,8.91 0.1,8.91 0.11,8.91 0.11,8.91 0.13,8.9 0.12,8.88 0.14,8.88 0.13,8.84 0.12,8.84 0.12,8.8 0.13,8.76 0.12,8.74 0.12,8.69 0.09,8.65 0.09,8.61 0.08,8.55 0.07,8.49 0.06,8.45 0.03,8.37 0.01,8.29 0,8.24 -0.02,8.16 -0.04,8.08 -0.08,7.99 -0.09,7.91 -0.13,7.82 -0.15,7.71 -0.19,7.63 -0.22,7.51 -0.25,7.41 -0.29,7.3 -0.32,7.18 -0.36,7.06 -0.4,6.94 -0.45,6.81 -0.49,6.68 -0.53,6.55 -0.59,6.4 -0.63,6.25 -0.68,6.11 -0.72,5.97 -0.78,5.81 -0.85,5.64 -0.89,5.49 -0.95,5.3 -1.01,5.15 -1.08,4.96 -1.14,4.79 -1.19,4.61 -1.27,4.41 -1.34,4.22 -1.4,4.03 -1.48,3.84 -1.54,3.62 -1.62,3.42 -1.69,3.21 -1.78,2.98 -1.85,2.77 -1.93,2.55 -2.01,2.32 -2.1,2.09 -2.17,1.85 -2.28,1.62 -2.35,1.36 -2.45,1.13 3.43,-1.61 3.31,-1.85 3.17,-2.07 3.07,-2.29 2.94,-2.51 2.84,-2.73 2.71,-2.95 2.61,-3.15 2.51,-3.35 2.4,-3.56 2.28,-3.76 2.18,-3.94 2.09,-4.13 1.99,-4.32 1.88,-4.51 1.8,-4.68 1.71,-4.86 1.61,-5.03 1.52,-5.19 1.44,-5.36 1.35,-5.52 1.27,-5.66 1.19,-5.82 1.11,-5.97 1.02,-6.12 0.97,-6.25 0.87,-6.39 0.82,-6.53 0.74,-6.65 0.68,-6.78 0.61,-6.9 0.55,-7.02 0.48,-7.12 0.44,-7.25 0.36,-7.34 0.34,-7.45 0.25,-7.54 0.22,-7.65 0.16,-7.72 0.11,-7.82 0.08,-7.91 0.03,-7.98 -0.02,-8.06 -0.04,-8.12 -0.09,-8.21 -0.13,-8.25 -0.16,-8.33 -0.18,-8.38 -0.23,-8.43 -0.24,-8.48 -0.27,-8.54 -0.29,-8.57 -0.32,-8.6 -0.32,-8.64 -0.37,-8.68 -0.36,-8.69 -0.37,-8.72 -0.4,-8.73 -0.4,-8.76 -0.4,-8.77 -0.42,-8.78 -0.41,-8.76 -0.42,-8.78 -0.42,-8.78 -0.42,-8.76 -0.4,-8.75 -0.41,-8.75 -0.39,-8.71 -0.39,-8.7 -0.38,-8.67 -0.36,-8.63 -0.34,-8.62 -0.32,-8.55 -0.3,-8.53 -0.28,-8.48 -0.26,-8.43 -0.22,-8.37 -0.21,-8.33 -0.18,-8.26 -0.13,-8.19 -0.1,-8.12 -0.07,-8.06 -0.03,-7.97 0.01,-7.9 0.06,-7.81 0.09,-7.73 0.14,-7.64 0.2,-7.54 0.23,-7.45 0.3,-7.33 0.35,-7.24 0.4,-7.12 0.47,-7.02 0.52,-6.89 0.58,-6.76 0.65,-6.65 0.72,-6.52 0.78,-6.37 0.85,-6.25 0.93,-6.11 1,-5.96 1.07,-5.8 1.16,-5.67 1.23,-5.51 1.32,-5.35 1.39,-5.18 1.48,-5.02 1.58,-4.85 1.66,-4.67 1.76,-4.49 1.85,-4.31 1.93,-4.12 2.06,-3.94 2.13,-3.74 2.25,-3.53 2.34,-3.36 2.46,-3.14 2.56,-2.92 2.67,-2.73 2.78,-2.49 -2.78,-2.49 -2.67,-2.73 -2.56,-2.92 -2.46,-3.14 -2.34,-3.35 -2.25,-3.54 -2.13,-3.74 -2.06,-3.94 -1.93,-4.12 -1.85,-4.31 -1.76,-4.49 -1.66,-4.67 -1.58,-4.85 -1.48,-5.02 -1.39,-5.18 -1.32,-5.35 -1.23,-5.51 -1.16,-5.66 -1.07,-5.8 -1,-5.97 -0.93,-6.11 -0.85,-6.24 -0.78,-6.38 -0.72,-6.53 -0.65,-6.63 -0.58,-6.78 -0.52,-6.89 -0.47,-7.01 -0.4,-7.12 -0.35,-7.24 -0.3,-7.34 -0.23,-7.44 -0.2,-7.53 -0.14,-7.642 -0.09,-7.734 -0.06,-7.809 -0.01,-7.902 0.03,-7.976 0.07,-8.051 0.1,-8.129 0.13,-8.188 0.18,-8.261 0.21,-8.317 0.22,-8.383 0.26,-8.425 0.28,-8.481 0.3,-8.527 0.32,-8.57 0.34,-8.602 0.36,-8.633 0.38,-8.672 0.39,-8.699 0.39,-8.711 0.41,-8.746 0.4,-8.746 0.42,-8.766 0.42,-8.781 0.42,-8.777 0.41,-8.766 0.42,-8.777 0.4,-8.77 0.4,-8.754 0.4,-8.734 0.37,-8.727 0.36,-8.687 0.37,-8.68 0.32,-8.637 0.32,-8.601 0.29,-8.57 0.27,-8.536 0.24,-8.48 0.23,-8.43 0.18,-8.383 0.16,-8.324 0.13,-8.265 0.09,-8.196 0.04,-8.129 0.02,-8.054 -0.03,-7.985 -0.08,-7.898 -0.11,-7.824 -0.16,-7.735 -0.22,-7.636 -0.25,-7.547 -0.34,-7.449 -0.36,-7.348 -0.44,-7.242 -0.48,-7.129 -0.55,-7.012 -0.61,-6.898 -0.68,-6.778 -0.74,-6.66 -0.82,-6.512 -0.87,-6.394 -0.97,-6.254 -1.02,-6.117 -1.11,-5.965 -1.19,-5.824 -1.27,-5.668 -1.35,-5.528 -1.44,-5.351 -1.52,-5.196 -1.61,-5.019 -1.71,-4.859 -1.8,-4.68 -1.88,-4.504 -1.99,-4.328 -2.09,-4.133 -2.18,-3.941 -2.28,-3.758 -2.4,-3.559 -2.51,-3.351 -2.61,-3.153 -2.71,-2.945 -2.84,-2.727 -2.94,-2.515 -3.07,-2.297 -3.17,-2.063 -3.31,-1.847 -3.43,-1.602 z" /><g
         transform="matrix(147.6,0,0,-134.4,52.2799,2048.78)"
         id="g174"><rect
           id="rect176"
           style="fill:#ffffff;fill-opacity:1;fill-rule:nonzero"
           transform="matrix(1,0,0,-1,0,1)"
           height="1"
           width="1"
           y="0"
           x="0" /></g><g
         transform="scale(10,10)"
         id="g178"><text
           id="text180"
           style="font-variant:normal;font-weight:normal;font-size:10.90909958px;font-family:CMMI10;-inkscape-font-specification:CMMI10;writing-mode:lr-tb;fill:#000000;fill-opacity:1;fill-rule:nonzero;stroke:none"
           transform="matrix(1,0,0,-1,8.23984,194.45)"><tspan
             id="tspan182"
             y="0"
             x="0">Y</tspan></text>
</g><path
         id="path184"
         style="fill:none;stroke:#000000;stroke-width:11.95530033;stroke-linecap:butt;stroke-linejoin:miter;stroke-miterlimit:10;stroke-dasharray:none;stroke-opacity:1"
         d="m 156.801,381.602 1663.219,0" /><path
         id="path186"
         style="fill:none;stroke:#000000;stroke-width:11.95530033;stroke-linecap:butt;stroke-linejoin:miter;stroke-miterlimit:10;stroke-dasharray:none;stroke-opacity:1"
         d="m 200,338.402 0,1663.218" /><g
         transform="scale(10,10)"
         id="g188"><text
           id="text190"
           style="font-variant:normal;font-weight:normal;font-size:11.9552002px;font-family:CMCSC10;-inkscape-font-specification:CMCSC10;writing-mode:lr-tb;fill:#000000;fill-opacity:1;fill-rule:nonzero;stroke:none"
           transform="matrix(1,0,0,-1,78.441,0.111328)"><tspan
             id="tspan192"
             y="0"
             x="0 8.5141897 12.111581 19.790342 28.065218 34.667995 41.270775">Fig.51.</tspan></text>
</g></g></g></svg>