<?xml version="1.0" encoding="UTF-8" standalone="no"?>
<svg
   xmlns:dc="http://purl.org/dc/elements/1.1/"
   xmlns:cc="http://creativecommons.org/ns#"
   xmlns:rdf="http://www.w3.org/1999/02/22-rdf-syntax-ns#"
   xmlns:svg="http://www.w3.org/2000/svg"
   xmlns="http://www.w3.org/2000/svg"
   viewBox="0 0 202.5 256.25"
   height="256.25"
   width="202.5"
   xml:space="preserve"
   version="1.1"
   id="svg2"><metadata
     id="metadata8"><rdf:RDF><cc:Work
         rdf:about=""><dc:format>image/svg+xml</dc:format><dc:type
           rdf:resource="http://purl.org/dc/dcmitype/StillImage" /></cc:Work></rdf:RDF></metadata><defs
     id="defs6"><clipPath
       id="clipPath12"
       clipPathUnits="userSpaceOnUse"><path
         id="path14"
         d="m -2,-2 162,0 0,205 -162,0 0,-205 z" /></clipPath></defs><g
     clip-path="url(#clipPath12)"
     transform="matrix(1.25,0,0,-1.25,2.5,253.75)"
     id="g10"><g
       transform="scale(0.1,0.1)"
       id="g16"><path
         id="path18"
         style="fill:none;stroke:#000000;stroke-width:11.95530033;stroke-linecap:butt;stroke-linejoin:miter;stroke-miterlimit:10;stroke-dasharray:none;stroke-opacity:1"
         d="m 130,1191.61 33.598,4.85 33.605,5.11 33.598,5.39 33.597,5.68 33.606,5.98 33.598,6.31 33.597,6.65 33.606,7.01 33.597,7.38 33.598,7.78 33.605,8.2 33.598,8.64 33.609,9.11 33.594,9.61 33.598,10.11 33.609,10.67 33.594,11.22 33.598,11.85 33.609,12.49 33.594,13.15 33.597,13.86 33.61,14.61 33.594,15.4 33.597,16.22 33.61,17.11 33.594,18.03 33.6,19 33.61,20.01 33.59,21.11 33.6,22.23 33.61,23.43 33.59,24.7 33.6,26.03 33.61,27.44 33.59,28.9 33.6,30.48 33.61,32.11 33.59,33.85 33.61,35.66 33.6,37.59" /><path
         id="path20"
         style="fill:none;stroke:#000000;stroke-width:11.95530033;stroke-linecap:butt;stroke-linejoin:miter;stroke-miterlimit:10;stroke-dasharray:none;stroke-opacity:1"
         d="m 770.004,561.602 0,784.648" /><path
         id="path22"
         style="fill:none;stroke:#000000;stroke-width:11.95530033;stroke-linecap:butt;stroke-linejoin:miter;stroke-miterlimit:10;stroke-dasharray:none;stroke-opacity:1"
         d="m 828.191,561.602 0,807.938" /><path
         id="path24"
         style="fill:none;stroke:#000000;stroke-width:11.95530033;stroke-linecap:butt;stroke-linejoin:miter;stroke-miterlimit:10;stroke-dasharray:none;stroke-opacity:1"
         d="m 886.375,561.602 0,833.438" /><path
         id="path26"
         style="fill:none;stroke:#000000;stroke-width:11.95530033;stroke-linecap:butt;stroke-linejoin:miter;stroke-miterlimit:10;stroke-dasharray:none;stroke-opacity:1"
         d="m 944.559,561.602 0,861.358" /><path
         id="path28"
         style="fill:none;stroke:#000000;stroke-width:11.95530033;stroke-linecap:butt;stroke-linejoin:miter;stroke-miterlimit:10;stroke-dasharray:none;stroke-opacity:1"
         d="m 1002.73,561.602 0,891.948" /><path
         id="path30"
         style="fill:none;stroke:#000000;stroke-width:11.95530033;stroke-linecap:butt;stroke-linejoin:miter;stroke-miterlimit:10;stroke-dasharray:none;stroke-opacity:1"
         d="m 1060.92,561.602 0,925.448" /><path
         id="path32"
         style="fill:none;stroke:#000000;stroke-width:11.95530033;stroke-linecap:butt;stroke-linejoin:miter;stroke-miterlimit:10;stroke-dasharray:none;stroke-opacity:1"
         d="m 1119.1,561.602 0,962.118" /><path
         id="path34"
         style="fill:none;stroke:#000000;stroke-width:11.95530033;stroke-linecap:butt;stroke-linejoin:miter;stroke-miterlimit:10;stroke-dasharray:none;stroke-opacity:1"
         d="m 1177.29,561.602 0,1002.288" /><path
         id="path36"
         style="fill:none;stroke:#000000;stroke-width:11.95530033;stroke-linecap:butt;stroke-linejoin:miter;stroke-miterlimit:10;stroke-dasharray:none;stroke-opacity:1"
         d="m 1235.47,561.602 0,1046.288" /><path
         id="path38"
         style="fill:none;stroke:#000000;stroke-width:11.95530033;stroke-linecap:butt;stroke-linejoin:miter;stroke-miterlimit:10;stroke-dasharray:none;stroke-opacity:1"
         d="m 1293.65,561.602 0,1094.468" /><path
         id="path40"
         style="fill:none;stroke:#000000;stroke-width:11.95530033;stroke-linecap:butt;stroke-linejoin:miter;stroke-miterlimit:10;stroke-dasharray:none;stroke-opacity:1"
         d="m 1351.84,561.602 0,1147.238" /><path
         id="path42"
         style="fill:none;stroke:#000000;stroke-width:11.95530033;stroke-linecap:butt;stroke-linejoin:miter;stroke-miterlimit:10;stroke-dasharray:none;stroke-opacity:1"
         d="m 1410.02,561.602 0,1205.028" /><g
         transform="scale(10,10)"
         id="g44"><text
           id="text46"
           style="font-variant:normal;font-weight:normal;font-size:10.90909958px;font-family:CMMI10;-inkscape-font-specification:CMMI10;writing-mode:lr-tb;fill:#000000;fill-opacity:1;fill-rule:nonzero;stroke:none"
           transform="matrix(1,0,0,-1,14.8094,123.232)"><tspan
             id="tspan48"
             y="0"
             x="0">A</tspan><tspan
             id="tspan50"
             y="-15.3777"
             x="57.991001">P</tspan><tspan
             id="tspan52"
             y="-55.470299"
             x="115.5598">Q</tspan><tspan
             id="tspan54"
             y="-62.53046"
             x="134.46449">B</tspan><tspan
             id="tspan56"
             y="64.966537"
             x="48.558998 128.06343">MN</tspan><tspan
             id="tspan58"
             y="29.159941"
             x="47.766422">y</tspan></text>
<text
           id="text60"
           style="font-variant:normal;font-weight:normal;font-size:8.96638012px;font-family:CMR9;-inkscape-font-specification:CMR9;writing-mode:lr-tb;fill:#000000;fill-opacity:1;fill-rule:nonzero;stroke:none"
           transform="matrix(1,0,0,-1,67.975822,92.03222)"><tspan
             id="tspan62"
             y="0"
             x="0">1</tspan></text>
<text
           id="text64"
           style="font-variant:normal;font-weight:normal;font-size:10.90909958px;font-family:CMMI10;-inkscape-font-specification:CMMI10;writing-mode:lr-tb;fill:#000000;fill-opacity:1;fill-rule:nonzero;stroke:none"
           transform="matrix(1,0,0,-1,144.98712,115.09122)"><tspan
             id="tspan66"
             y="0"
             x="0">y</tspan></text>
<text
           id="text68"
           style="font-variant:normal;font-weight:normal;font-size:8.96638012px;font-family:CMR9;-inkscape-font-specification:CMR9;writing-mode:lr-tb;fill:#000000;fill-opacity:1;fill-rule:nonzero;stroke:none"
           transform="matrix(1,0,0,-1,150.38712,113.05138)"><tspan
             id="tspan70"
             y="0"
             x="0">2</tspan></text>
</g><g
         transform="matrix(174,0,0,-127.2,363.483,434.542)"
         id="g72"><rect
           id="rect74"
           style="fill:#ffffff;fill-opacity:1;fill-rule:nonzero"
           transform="matrix(1,0,0,-1,0,1)"
           height="1"
           width="1"
           y="0"
           x="0" /></g><g
         transform="scale(10,10)"
         id="g76"><text
           id="text78"
           style="font-variant:normal;font-weight:normal;font-size:10.90909958px;font-family:CMMI10;-inkscape-font-specification:CMMI10;writing-mode:lr-tb;fill:#000000;fill-opacity:1;fill-rule:nonzero;stroke:none"
           transform="matrix(1,0,0,-1,39.3602,35.7863)"><tspan
             id="tspan80"
             y="0"
             x="0">x</tspan></text>
<text
           id="text82"
           style="font-variant:normal;font-weight:normal;font-size:8.96638012px;font-family:CMR9;-inkscape-font-specification:CMR9;writing-mode:lr-tb;fill:#000000;fill-opacity:1;fill-rule:nonzero;stroke:none"
           transform="matrix(1,0,0,-1,45.60043,33.74607)"><tspan
             id="tspan84"
             y="0"
             x="0">1</tspan></text>
</g><path
         id="path86"
         style="fill:#000000;fill-opacity:1;fill-rule:nonzero;stroke:none"
         d="m 148.82,540.43 0.965,-2.594 1.024,-2.504 1.086,-2.418 1.132,-2.305 1.188,-2.23 1.242,-2.145 1.285,-2.054 1.352,-1.953 1.394,-1.891 1.438,-1.801 1.496,-1.715 1.535,-1.648 1.582,-1.559 1.641,-1.496 1.679,-1.418 1.723,-1.351 1.77,-1.274 1.812,-1.207 1.859,-1.133 1.899,-1.078 1.945,-1.008 1.977,-0.957 2.023,-0.89 2.055,-0.836 2.098,-0.777 2.132,-0.715 2.172,-0.672 2.211,-0.613 2.242,-0.575 2.274,-0.515 2.316,-0.473 2.34,-0.426 2.375,-0.398 2.418,-0.34 2.438,-0.309 2.46,-0.261 2.504,-0.231 2.516,-0.199 2.562,-0.164 2.579,-0.133 2.605,-0.098 2.637,-0.078 2.648,-0.054 2.68,-0.02 2.703,0 2.734,0.02 2.75,0.035 2.766,0.054 2.793,0.075 2.801,0.078 2.824,0.097 2.844,0.114 2.867,0.121 2.879,0.117 2.89,0.133 2.911,0.133 2.921,0.144 2.934,0.129 2.945,0.145 2.954,0.132 2.98,0.129 2.977,0.121 2.988,0.121 3,0.102 3.008,0.098 3.011,0.086 3.02,0.066 3.035,0.055 3.02,0.035 3.043,0.012 3.031,-0.012 3.047,-0.035 3.043,-0.055 3.043,-0.074 3.043,-0.113 3.043,-0.141 3.043,-0.164 3.042,-0.211 3.043,-0.231 3.032,-0.273 3.035,-0.32 3.019,-0.352 3.02,-0.394 3.012,-0.438 3.011,-0.484 3,-0.528 2.989,-0.582 2.976,-0.629 2.965,-0.679 2.969,-0.735 2.941,-0.793 2.934,-0.835 2.922,-0.911 2.914,-0.968 2.886,-1.02 2.879,-1.09 2.86,-1.152 2.843,-1.219 2.825,-1.297 2.812,-1.363 2.778,-1.426 2.769,-1.508 2.746,-1.582 2.727,-1.656 2.703,-1.75 2.68,-1.812 2.66,-1.899 2.625,-1.988 2.601,-2.067 2.582,-2.164 2.551,-2.242 2.527,-2.34 2.493,-2.429 2.472,-2.524 2.438,-2.617 2.394,-2.715 2.387,-2.808 2.34,-2.926 2.305,-3.02 2.277,-3.121 2.273,3.121 2.305,3.02 2.352,2.926 2.375,2.808 2.406,2.715 2.426,2.617 2.472,2.524 2.496,2.429 2.528,2.34 2.547,2.242 2.582,2.164 2.605,2.067 2.637,1.988 2.644,1.899 2.684,1.812 2.703,1.75 2.723,1.656 2.746,1.582 2.769,1.508 2.789,1.426 2.805,1.363 2.82,1.297 2.848,1.219 2.856,1.152 2.878,1.09 2.899,1.02 2.902,0.968 2.922,0.911 2.934,0.835 2.945,0.793 2.965,0.735 2.969,0.679 2.976,0.629 2.988,0.582 3,0.528 3.008,0.484 3.012,0.438 3.019,0.394 3.036,0.352 3.019,0.32 3.043,0.273 3.031,0.231 3.043,0.211 3.047,0.164 3.043,0.141 3.043,0.113 3.043,0.074 3.043,0.055 3.043,0.035 3.043,0.012 3.031,-0.012 3.032,-0.035 3.023,-0.055 3.02,-0.066 3.011,-0.086 3.012,-0.098 2.996,-0.102 2.988,-0.121 2.981,-0.121 2.976,-0.129 2.953,-0.132 2.946,-0.145 2.945,-0.129 2.922,-0.144 2.902,-0.133 2.899,-0.133 2.867,-0.117 2.867,-0.121 2.848,-0.114 2.82,-0.097 2.817,-0.078 2.777,-0.075 2.769,-0.054 2.758,-0.035 2.723,-0.02 2.703,0 2.68,0.02 2.66,0.054 2.625,0.078 2.605,0.098 2.582,0.133 2.559,0.164 2.527,0.199 2.492,0.231 2.473,0.261 2.442,0.309 2.406,0.34 2.371,0.398 2.34,0.426 2.32,0.473 2.273,0.515 2.243,0.575 2.207,0.613 2.175,0.672 2.129,0.715 2.102,0.777 2.055,0.836 2.019,0.89 1.988,0.957 1.934,1.008 1.902,1.078 1.856,1.133 1.812,1.207 1.77,1.274 1.723,1.351 1.683,1.418 1.637,1.496 1.582,1.559 1.539,1.648 1.492,1.715 1.449,1.801 1.399,1.891 1.34,1.953 1.285,2.054 1.242,2.145 1.184,2.23 1.144,2.305 1.074,2.418 1.024,2.504 0.969,2.594 -1.43,-3.637 -1.473,-3.516 -1.515,-3.371 -1.551,-3.265 -1.582,-3.129 -1.625,-3 -1.668,-2.891 -1.703,-2.777 -1.739,-2.66 -1.777,-2.539 -1.805,-2.426 -1.843,-2.332 -1.879,-2.219 -1.91,-2.109 -1.946,-2 -1.98,-1.911 -1.996,-1.812 -2.047,-1.715 -2.063,-1.613 -2.109,-1.528 -2.133,-1.429 -2.152,-1.352 -2.188,-1.261 -2.219,-1.176 -2.242,-1.098 -2.261,-1.023 -2.297,-0.934 -2.328,-0.867 -2.34,-0.793 -2.375,-0.715 -2.395,-0.648 -2.418,-0.59 -2.437,-0.52 -2.461,-0.449 -2.485,-0.395 -2.504,-0.339 -2.527,-0.289 -2.547,-0.219 -2.574,-0.176 -2.582,-0.121 -2.602,-0.074 -2.613,-0.035 -2.637,0.011 -2.66,0.055 -2.672,0.098 -2.691,0.132 -2.691,0.165 -2.711,0.199 -2.739,0.23 -2.734,0.262 -2.758,0.289 -2.769,0.305 -2.778,0.343 -2.793,0.352 -2.8,0.371 -2.813,0.387 -2.812,0.406 -2.836,0.418 -2.832,0.426 -2.848,0.429 -2.844,0.442 -2.855,0.437 -2.867,0.45 -2.868,0.441 -2.871,0.437 -2.875,0.442 -2.89,0.426 -2.879,0.418 -2.891,0.418 -2.887,0.398 -2.89,0.371 -2.891,0.363 -2.887,0.352 -2.902,0.316 -2.891,0.297 -2.886,0.278 -2.879,0.242 -2.891,0.207 -2.879,0.187 -2.879,0.141 -2.879,0.113 -2.867,0.074 -2.867,0.036 -2.855,-0.012 -2.844,-0.055 -2.848,-0.109 -2.836,-0.145 -2.832,-0.207 -2.824,-0.254 -2.801,-0.32 -2.8,-0.359 -2.793,-0.442 -2.778,-0.484 -2.769,-0.559 -2.758,-0.617 -2.746,-0.691 -2.727,-0.758 -2.722,-0.836 -2.704,-0.898 -2.679,-0.989 -2.672,-1.066 -2.656,-1.133 -2.637,-1.23 -2.629,-1.309 -2.602,-1.395 -2.593,-1.492 -2.559,-1.57 -2.551,-1.672 -2.527,-1.769 -2.504,-1.868 -2.492,-1.964 -2.461,-2.067 -2.441,-2.164 -2.426,-2.273 -2.395,-2.387 -2.375,-2.492 -2.351,-2.617 -2.317,-2.711 -2.297,-2.848 -2.273,-2.953 -2.277,2.953 -2.293,2.848 -2.321,2.711 -2.351,2.617 -2.371,2.492 -2.395,2.387 -2.418,2.273 -2.449,2.164 -2.461,2.067 -2.484,1.964 -2.516,1.868 -2.527,1.769 -2.547,1.672 -2.563,1.57 -2.59,1.492 -2.605,1.395 -2.613,1.309 -2.649,1.23 -2.648,1.133 -2.68,1.066 -2.684,0.989 -2.699,0.898 -2.715,0.836 -2.734,0.758 -2.75,0.691 -2.746,0.617 -2.766,0.559 -2.781,0.484 -2.789,0.442 -2.805,0.359 -2.812,0.32 -2.82,0.254 -2.825,0.207 -2.847,0.145 -2.832,0.109 -2.86,0.055 -2.855,0.012 -2.867,-0.036 -2.868,-0.074 -2.867,-0.113 -2.89,-0.141 -2.879,-0.187 -2.879,-0.207 -2.887,-0.242 -2.891,-0.278 -2.89,-0.297 -2.887,-0.316 -2.902,-0.352 -2.891,-0.363 -2.887,-0.371 -2.89,-0.398 -2.891,-0.418 -2.879,-0.418 -2.875,-0.426 -2.879,-0.442 -2.879,-0.437 -2.867,-0.441 -2.867,-0.45 -2.859,-0.437 -2.844,-0.442 -2.844,-0.429 -2.836,-0.426 -2.836,-0.418 -2.812,-0.406 -2.813,-0.387 -2.8,-0.371 -2.79,-0.352 -2.781,-0.343 -2.769,-0.305 -2.746,-0.289 -2.746,-0.262 -2.723,-0.23 -2.715,-0.199 -2.703,-0.165 -2.692,-0.132 -2.671,-0.098 -2.645,-0.055 -2.648,-0.011 -2.618,0.035 -2.601,0.074 -2.582,0.121 -2.57,0.176 -2.551,0.219 -2.516,0.289 -2.504,0.339 -2.496,0.395 -2.461,0.449 -2.437,0.52 -2.418,0.59 -2.395,0.648 -2.371,0.715 -2.34,0.793 -2.332,0.867 -2.285,0.934 -2.273,1.023 -2.243,1.098 -2.218,1.176 -2.184,1.261 -2.156,1.352 -2.129,1.429 -2.102,1.528 -2.074,1.613 -2.031,1.715 -2.012,1.812 -1.976,1.911 -1.946,2 -1.914,2.109 -1.879,2.219 -1.843,2.332 -1.801,2.426 -1.781,2.539 -1.735,2.66 -1.703,2.777 -1.66,2.891 -1.625,3 -1.594,3.129 -1.551,3.265 -1.515,3.371 -1.473,3.516 -1.426,3.637" /><path
         id="path88"
         style="fill:none;stroke:#000000;stroke-width:3.9849999;stroke-linecap:butt;stroke-linejoin:miter;stroke-miterlimit:10;stroke-dasharray:none;stroke-opacity:1"
         d="m 148.82,540.43 0.965,-2.594 1.024,-2.504 1.086,-2.418 1.132,-2.305 1.188,-2.23 1.242,-2.145 1.285,-2.054 1.352,-1.953 1.394,-1.891 1.438,-1.801 1.496,-1.715 1.535,-1.648 1.582,-1.559 1.641,-1.496 1.679,-1.418 1.723,-1.351 1.77,-1.274 1.812,-1.207 1.859,-1.133 1.899,-1.078 1.945,-1.008 1.977,-0.957 2.023,-0.89 2.055,-0.836 2.098,-0.777 2.132,-0.715 2.172,-0.672 2.211,-0.613 2.242,-0.575 2.274,-0.515 2.316,-0.473 2.34,-0.426 2.375,-0.398 2.418,-0.34 2.438,-0.309 2.46,-0.261 2.504,-0.231 2.516,-0.199 2.562,-0.164 2.579,-0.133 2.605,-0.098 2.637,-0.078 2.648,-0.054 2.68,-0.02 2.703,0 2.734,0.02 2.75,0.035 2.766,0.054 2.793,0.075 2.801,0.078 2.824,0.097 2.844,0.114 2.867,0.121 2.879,0.117 2.89,0.133 2.911,0.133 2.921,0.144 2.934,0.129 2.945,0.145 2.954,0.132 2.98,0.129 2.977,0.121 2.988,0.121 3,0.102 3.008,0.098 3.011,0.086 3.02,0.066 3.035,0.055 3.02,0.035 3.043,0.012 3.031,-0.012 3.047,-0.035 3.043,-0.055 3.043,-0.074 3.043,-0.113 3.043,-0.141 3.043,-0.164 3.042,-0.211 3.043,-0.231 3.032,-0.273 3.035,-0.32 3.019,-0.352 3.02,-0.394 3.012,-0.438 3.011,-0.484 3,-0.528 2.989,-0.582 2.976,-0.629 2.965,-0.679 2.969,-0.735 2.941,-0.793 2.934,-0.835 2.922,-0.911 2.914,-0.968 2.886,-1.02 2.879,-1.09 2.86,-1.152 2.843,-1.219 2.825,-1.297 2.812,-1.363 2.778,-1.426 2.769,-1.508 2.746,-1.582 2.727,-1.656 2.703,-1.75 2.68,-1.812 2.66,-1.899 2.625,-1.988 2.601,-2.067 2.582,-2.164 2.551,-2.242 2.527,-2.34 2.493,-2.429 2.472,-2.524 2.438,-2.617 2.394,-2.715 2.387,-2.808 2.34,-2.926 2.305,-3.02 2.277,-3.121 2.273,3.121 2.305,3.02 2.352,2.926 2.375,2.808 2.406,2.715 2.426,2.617 2.472,2.524 2.496,2.429 2.528,2.34 2.547,2.242 2.582,2.164 2.605,2.067 2.637,1.988 2.644,1.899 2.684,1.812 2.703,1.75 2.723,1.656 2.746,1.582 2.769,1.508 2.789,1.426 2.805,1.363 2.82,1.297 2.848,1.219 2.856,1.152 2.878,1.09 2.899,1.02 2.902,0.968 2.922,0.911 2.934,0.835 2.945,0.793 2.965,0.735 2.969,0.679 2.976,0.629 2.988,0.582 3,0.528 3.008,0.484 3.012,0.438 3.019,0.394 3.036,0.352 3.019,0.32 3.043,0.273 3.031,0.231 3.043,0.211 3.047,0.164 3.043,0.141 3.043,0.113 3.043,0.074 3.043,0.055 3.043,0.035 3.043,0.012 3.031,-0.012 3.032,-0.035 3.023,-0.055 3.02,-0.066 3.011,-0.086 3.012,-0.098 2.996,-0.102 2.988,-0.121 2.981,-0.121 2.976,-0.129 2.953,-0.132 2.946,-0.145 2.945,-0.129 2.922,-0.144 2.902,-0.133 2.899,-0.133 2.867,-0.117 2.867,-0.121 2.848,-0.114 2.82,-0.097 2.817,-0.078 2.777,-0.075 2.769,-0.054 2.758,-0.035 2.723,-0.02 2.703,0 2.68,0.02 2.66,0.054 2.625,0.078 2.605,0.098 2.582,0.133 2.559,0.164 2.527,0.199 2.492,0.231 2.473,0.261 2.442,0.309 2.406,0.34 2.371,0.398 2.34,0.426 2.32,0.473 2.273,0.515 2.243,0.575 2.207,0.613 2.175,0.672 2.129,0.715 2.102,0.777 2.055,0.836 2.019,0.89 1.988,0.957 1.934,1.008 1.902,1.078 1.856,1.133 1.812,1.207 1.77,1.274 1.723,1.351 1.683,1.418 1.637,1.496 1.582,1.559 1.539,1.648 1.492,1.715 1.449,1.801 1.399,1.891 1.34,1.953 1.285,2.054 1.242,2.145 1.184,2.23 1.144,2.305 1.074,2.418 1.024,2.504 0.969,2.594 -1.43,-3.637 -1.473,-3.516 -1.515,-3.371 -1.551,-3.265 -1.582,-3.129 -1.625,-3 -1.668,-2.891 -1.703,-2.777 -1.739,-2.66 -1.777,-2.539 -1.805,-2.426 -1.843,-2.332 -1.879,-2.219 -1.91,-2.109 -1.946,-2 -1.98,-1.911 -1.996,-1.812 -2.047,-1.715 -2.063,-1.613 -2.109,-1.528 -2.133,-1.429 -2.152,-1.352 -2.188,-1.261 -2.219,-1.176 -2.242,-1.098 -2.261,-1.023 -2.297,-0.934 -2.328,-0.867 -2.34,-0.793 -2.375,-0.715 -2.395,-0.648 -2.418,-0.59 -2.437,-0.52 -2.461,-0.449 -2.485,-0.395 -2.504,-0.339 -2.527,-0.289 -2.547,-0.219 -2.574,-0.176 -2.582,-0.121 -2.602,-0.074 -2.613,-0.035 -2.637,0.011 -2.66,0.055 -2.672,0.098 -2.691,0.132 -2.691,0.165 -2.711,0.199 -2.739,0.23 -2.734,0.262 -2.758,0.289 -2.769,0.305 -2.778,0.343 -2.793,0.352 -2.8,0.371 -2.813,0.387 -2.812,0.406 -2.836,0.418 -2.832,0.426 -2.848,0.429 -2.844,0.442 -2.855,0.437 -2.867,0.45 -2.868,0.441 -2.871,0.437 -2.875,0.442 -2.89,0.426 -2.879,0.418 -2.891,0.418 -2.887,0.398 -2.89,0.371 -2.891,0.363 -2.887,0.352 -2.902,0.316 -2.891,0.297 -2.886,0.278 -2.879,0.242 -2.891,0.207 -2.879,0.187 -2.879,0.141 -2.879,0.113 -2.867,0.074 -2.867,0.036 -2.855,-0.012 -2.844,-0.055 -2.848,-0.109 -2.836,-0.145 -2.832,-0.207 -2.824,-0.254 -2.801,-0.32 -2.8,-0.359 -2.793,-0.442 -2.778,-0.484 -2.769,-0.559 -2.758,-0.617 -2.746,-0.691 -2.727,-0.758 -2.722,-0.836 -2.704,-0.898 -2.679,-0.989 -2.672,-1.066 -2.656,-1.133 -2.637,-1.23 -2.629,-1.309 -2.602,-1.395 -2.593,-1.492 -2.559,-1.57 -2.551,-1.672 -2.527,-1.769 -2.504,-1.868 -2.492,-1.964 -2.461,-2.067 -2.441,-2.164 -2.426,-2.273 -2.395,-2.387 -2.375,-2.492 -2.351,-2.617 -2.317,-2.711 -2.297,-2.848 -2.273,-2.953 -2.277,2.953 -2.293,2.848 -2.321,2.711 -2.351,2.617 -2.371,2.492 -2.395,2.387 -2.418,2.273 -2.449,2.164 -2.461,2.067 -2.484,1.964 -2.516,1.868 -2.527,1.769 -2.547,1.672 -2.563,1.57 -2.59,1.492 -2.605,1.395 -2.613,1.309 -2.649,1.23 -2.648,1.133 -2.68,1.066 -2.684,0.989 -2.699,0.898 -2.715,0.836 -2.734,0.758 -2.75,0.691 -2.746,0.617 -2.766,0.559 -2.781,0.484 -2.789,0.442 -2.805,0.359 -2.812,0.32 -2.82,0.254 -2.825,0.207 -2.847,0.145 -2.832,0.109 -2.86,0.055 -2.855,0.012 -2.867,-0.036 -2.868,-0.074 -2.867,-0.113 -2.89,-0.141 -2.879,-0.187 -2.879,-0.207 -2.887,-0.242 -2.891,-0.278 -2.89,-0.297 -2.887,-0.316 -2.902,-0.352 -2.891,-0.363 -2.887,-0.371 -2.89,-0.398 -2.891,-0.418 -2.879,-0.418 -2.875,-0.426 -2.879,-0.442 -2.879,-0.437 -2.867,-0.441 -2.867,-0.45 -2.859,-0.437 -2.844,-0.442 -2.844,-0.429 -2.836,-0.426 -2.836,-0.418 -2.812,-0.406 -2.813,-0.387 -2.8,-0.371 -2.79,-0.352 -2.781,-0.343 -2.769,-0.305 -2.746,-0.289 -2.746,-0.262 -2.723,-0.23 -2.715,-0.199 -2.703,-0.165 -2.692,-0.132 -2.671,-0.098 -2.645,-0.055 -2.648,-0.011 -2.618,0.035 -2.601,0.074 -2.582,0.121 -2.57,0.176 -2.551,0.219 -2.516,0.289 -2.504,0.339 -2.496,0.395 -2.461,0.449 -2.437,0.52 -2.418,0.59 -2.395,0.648 -2.371,0.715 -2.34,0.793 -2.332,0.867 -2.285,0.934 -2.273,1.023 -2.243,1.098 -2.218,1.176 -2.184,1.261 -2.156,1.352 -2.129,1.429 -2.102,1.528 -2.074,1.613 -2.031,1.715 -2.012,1.812 -1.976,1.911 -1.946,2 -1.914,2.109 -1.879,2.219 -1.843,2.332 -1.801,2.426 -1.781,2.539 -1.735,2.66 -1.703,2.777 -1.66,2.891 -1.625,3 -1.594,3.129 -1.551,3.265 -1.515,3.371 -1.473,3.516 -1.426,3.637 z" /><g
         transform="matrix(174,0,0,-127.2,683.485,254.539)"
         id="g90"><rect
           id="rect92"
           style="fill:#ffffff;fill-opacity:1;fill-rule:nonzero"
           transform="matrix(1,0,0,-1,0,1)"
           height="1"
           width="1"
           y="0"
           x="0" /></g><g
         transform="scale(10,10)"
         id="g94"><text
           id="text96"
           style="font-variant:normal;font-weight:normal;font-size:10.90909958px;font-family:CMMI10;-inkscape-font-specification:CMMI10;writing-mode:lr-tb;fill:#000000;fill-opacity:1;fill-rule:nonzero;stroke:none"
           transform="matrix(1,0,0,-1,71.3605,17.7859)"><tspan
             id="tspan98"
             y="0"
             x="0">x</tspan></text>
<text
           id="text100"
           style="font-variant:normal;font-weight:normal;font-size:8.96638012px;font-family:CMR9;-inkscape-font-specification:CMR9;writing-mode:lr-tb;fill:#000000;fill-opacity:1;fill-rule:nonzero;stroke:none"
           transform="matrix(1,0,0,-1,77.60034,15.74606)"><tspan
             id="tspan102"
             y="0"
             x="0">2</tspan></text>
</g><path
         id="path104"
         style="fill:#000000;fill-opacity:1;fill-rule:nonzero;stroke:none"
         d="m 148.82,360.426 1.032,-2.59 1.218,-2.508 1.407,-2.414 1.593,-2.309 1.758,-2.23 1.945,-2.141 2.11,-2.054 2.285,-1.957 2.437,-1.891 2.618,-1.801 2.769,-1.715 2.93,-1.648 3.078,-1.559 3.23,-1.496 3.383,-1.414 3.528,-1.351 3.66,-1.278 3.812,-1.207 3.942,-1.133 4.078,-1.074 4.207,-1.011 4.328,-0.957 4.461,-0.891 4.57,-0.832 4.703,-0.781 4.813,-0.715 4.922,-0.668 5.031,-0.617 5.141,-0.571 5.25,-0.515 5.339,-0.473 5.438,-0.43 5.539,-0.394 5.625,-0.34 5.723,-0.309 5.8,-0.265 5.879,-0.231 5.965,-0.195 6.043,-0.168 6.11,-0.129 6.183,-0.102 6.254,-0.074 6.316,-0.054 6.383,-0.024 6.426,0 6.496,0.024 6.547,0.031 6.59,0.055 6.648,0.066 6.692,0.09 6.722,0.097 6.758,0.11 6.801,0.121 6.832,0.121 6.855,0.133 6.891,0.129 6.91,0.144 6.922,0.133 6.953,0.141 6.953,0.133 6.965,0.132 6.988,0.121 6.977,0.121 6.988,0.098 6.989,0.098 6.976,0.09 6.977,0.066 6.965,0.043 6.941,0.043 6.934,0.012 6.921,-0.012 6.887,-0.031 6.879,-0.055 6.832,-0.078 6.813,-0.109 6.781,-0.145 6.742,-0.164 6.703,-0.207 6.656,-0.231 6.618,-0.277 6.558,-0.316 6.516,-0.352 6.445,-0.398 6.406,-0.438 6.34,-0.484 6.274,-0.527 6.207,-0.583 6.14,-0.625 6.067,-0.683 5.996,-0.735 5.914,-0.792 5.832,-0.832 5.746,-0.915 5.656,-0.964 5.571,-1.024 5.484,-1.086 5.371,-1.156 5.285,-1.219 5.176,-1.297 5.074,-1.359 4.965,-1.43 4.855,-1.504 4.739,-1.582 4.625,-1.66 4.504,-1.746 4.371,-1.812 4.254,-1.903 4.129,-1.988 3.988,-2.066 3.855,-2.165 3.715,-2.242 3.582,-2.34 3.438,-2.425 3.285,-2.528 3.133,-2.613 2.988,-2.715 2.824,-2.812 2.668,-2.922 2.504,-3.024 2.34,-3.117 2.344,3.117 2.504,3.024 2.668,2.922 2.835,2.812 2.977,2.715 3.141,2.613 3.285,2.528 3.43,2.425 3.582,2.34 3.71,2.242 3.868,2.165 3.988,2.066 4.121,1.988 4.25,1.903 4.387,1.812 4.504,1.746 4.613,1.66 4.746,1.582 4.844,1.504 4.969,1.43 5.074,1.359 5.187,1.297 5.274,1.219 5.383,1.156 5.468,1.086 5.571,1.024 5.66,0.964 5.758,0.915 5.832,0.832 5.91,0.792 5.988,0.735 6.066,0.683 6.141,0.625 6.207,0.583 6.285,0.527 6.336,0.484 6.395,0.438 6.461,0.398 6.504,0.352 6.57,0.316 6.613,0.277 6.66,0.231 6.688,0.207 6.758,0.164 6.769,0.145 6.812,0.109 6.84,0.078 6.87,0.055 6.89,0.031 6.92,0.012 6.93,-0.012 6.96,-0.043 6.96,-0.043 6.97,-0.066 6.98,-0.09 6.99,-0.098 6.98,-0.098 6.98,-0.121 6.98,-0.121 6.98,-0.132 6.95,-0.133 6.95,-0.141 6.92,-0.133 6.92,-0.144 6.88,-0.129 6.87,-0.133 6.82,-0.121 6.8,-0.121 6.77,-0.11 6.72,-0.097 6.69,-0.09 6.63,-0.066 6.6,-0.055 6.54,-0.031 6.5,-0.024 6.44,0 6.38,0.024 6.3,0.054 6.25,0.074 6.19,0.102 6.12,0.129 6.03,0.168 5.97,0.195 5.89,0.231 5.8,0.265 5.71,0.309 5.64,0.34 5.52,0.394 5.44,0.43 5.35,0.473 5.24,0.515 5.14,0.571 5.04,0.617 4.93,0.668 4.8,0.715 4.7,0.781 4.58,0.832 4.47,0.891 4.32,0.957 4.21,1.011 4.07,1.074 3.94,1.133 3.81,1.207 3.67,1.278 3.53,1.351 3.37,1.414 3.23,1.496 3.09,1.559 2.92,1.648 2.77,1.715 2.61,1.801 2.44,1.891 2.29,1.957 2.11,2.054 1.94,2.141 1.77,2.23 1.58,2.309 1.41,2.414 1.22,2.508 1.03,2.59 -1.49,-3.637 -1.67,-3.516 -1.84,-3.371 -2,-3.261 -2.16,-3.133 -2.33,-3 -2.49,-2.887 -2.64,-2.781 -2.79,-2.66 -2.94,-2.535 -3.09,-2.43 -3.22,-2.328 -3.37,-2.219 -3.52,-2.109 -3.64,-2 -3.78,-1.914 -3.91,-1.813 -4.03,-1.711 -4.15,-1.617 -4.27,-1.527 -4.4,-1.426 -4.51,-1.352 -4.62,-1.265 -4.75,-1.176 -4.84,-1.098 -4.95,-1.023 -5.04,-0.934 -5.15,-0.867 -5.24,-0.789 -5.34,-0.715 -5.43,-0.648 -5.51,-0.594 -5.61,-0.516 -5.68,-0.453 -5.75,-0.394 -5.85,-0.34 -5.91,-0.285 -5.98,-0.219 -6.05,-0.176 -6.12,-0.121 -6.18,-0.078 -6.24,-0.031 -6.3,0.007 -6.35,0.059 -6.4,0.098 -6.45,0.132 -6.5,0.165 -6.55,0.195 -6.58,0.23 -6.61,0.266 -6.67,0.285 -6.68,0.309 -6.71,0.339 -6.75,0.352 -6.77,0.375 -6.78,0.383 -6.81,0.406 -6.82,0.418 -6.83,0.43 -6.85,0.426 -6.85,0.441 -6.86,0.437 -6.84,0.454 -6.86,0.437 -6.85,0.441 -6.85,0.438 -6.83,0.43 -6.82,0.418 -6.81,0.418 -6.78,0.394 -6.77,0.371 -6.75,0.364 -6.72,0.351 -6.69,0.32 -6.649,0.297 -6.625,0.274 -6.59,0.242 -6.551,0.207 -6.492,0.187 -6.461,0.145 -6.402,0.109 -6.363,0.078 -6.293,0.032 -6.242,-0.012 -6.184,-0.055 -6.121,-0.109 -6.055,-0.145 -5.996,-0.207 -5.91,-0.254 -5.848,-0.316 -5.765,-0.363 -5.692,-0.438 -5.601,-0.484 -5.528,-0.563 -5.429,-0.613 -5.348,-0.691 -5.254,-0.758 -5.152,-0.836 -5.055,-0.902 -4.953,-0.989 -4.844,-1.066 -4.746,-1.129 -4.625,-1.23 -4.527,-1.309 -4.395,-1.395 -4.297,-1.496 -4.164,-1.57 -4.031,-1.672 -3.922,-1.765 -3.781,-1.868 -3.656,-1.968 -3.516,-2.067 -3.383,-2.164 -3.23,-2.273 -3.098,-2.383 -2.957,-2.496 -2.801,-2.613 -2.648,-2.715 -2.492,-2.844 -2.344,-2.957 -2.34,2.957 -2.492,2.844 -2.649,2.715 -2.8,2.613 -2.946,2.496 -3.097,2.383 -3.242,2.273 -3.383,2.164 -3.516,2.067 -3.648,1.968 -3.789,1.868 -3.911,1.765 -4.043,1.672 -4.164,1.57 -4.285,1.496 -4.406,1.395 -4.516,1.309 -4.636,1.23 -4.746,1.129 -4.844,1.066 -4.957,0.989 -5.051,0.902 -5.156,0.836 -5.25,0.758 -5.34,0.691 -5.438,0.613 -5.515,0.563 -5.614,0.484 -5.679,0.438 -5.77,0.363 -5.843,0.316 -5.922,0.254 -5.989,0.207 -6.054,0.145 -6.118,0.109 -6.187,0.055 -6.25,0.012 -6.293,-0.032 -6.363,-0.078 -6.407,-0.109 -6.449,-0.145 -6.504,-0.187 -6.547,-0.207 -6.582,-0.242 -6.625,-0.274 -6.656,-0.297 -6.691,-0.32 -6.711,-0.351 -6.746,-0.364 -6.77,-0.371 -6.789,-0.394 -6.812,-0.418 -6.821,-0.418 -6.836,-0.43 -6.843,-0.438 -6.844,-0.441 -6.856,-0.437 -6.855,-0.454 -6.856,-0.437 -6.855,-0.441 -6.844,-0.426 -6.836,-0.43 -6.808,-0.418 -6.813,-0.406 -6.789,-0.383 -6.769,-0.375 -6.735,-0.352 -6.722,-0.339 -6.68,-0.309 -6.66,-0.285 -6.613,-0.266 -6.59,-0.23 -6.539,-0.195 -6.493,-0.165 -6.461,-0.132 -6.402,-0.098 -6.351,-0.059 -6.297,-0.007 -6.239,0.031 -6.175,0.078 -6.118,0.121 -6.054,0.176 -5.989,0.219 -5.91,0.285 -5.836,0.34 -5.765,0.394 -5.68,0.453 -5.605,0.516 -5.516,0.594 -5.426,0.648 -5.34,0.715 -5.238,0.789 -5.144,0.867 -5.051,0.934 -4.946,1.023 -4.843,1.098 -4.739,1.176 -4.625,1.265 -4.504,1.352 -4.406,1.426 -4.273,1.527 -4.153,1.617 -4.031,1.711 -3.91,1.813 -3.769,1.914 -3.649,2 -3.504,2.109 -3.371,2.219 -3.23,2.328 -3.09,2.43 -2.942,2.535 -2.793,2.66 -2.636,2.781 -2.481,2.887 -2.332,3 -2.164,3.133 -2.008,3.261 -1.836,3.371 -1.672,3.516 -1.492,3.637" /><path
         id="path106"
         style="fill:none;stroke:#000000;stroke-width:3.9849999;stroke-linecap:butt;stroke-linejoin:miter;stroke-miterlimit:10;stroke-dasharray:none;stroke-opacity:1"
         d="m 148.82,360.426 1.032,-2.59 1.218,-2.508 1.407,-2.414 1.593,-2.309 1.758,-2.23 1.945,-2.141 2.11,-2.054 2.285,-1.957 2.437,-1.891 2.618,-1.801 2.769,-1.715 2.93,-1.648 3.078,-1.559 3.23,-1.496 3.383,-1.414 3.528,-1.351 3.66,-1.278 3.812,-1.207 3.942,-1.133 4.078,-1.074 4.207,-1.011 4.328,-0.957 4.461,-0.891 4.57,-0.832 4.703,-0.781 4.813,-0.715 4.922,-0.668 5.031,-0.617 5.141,-0.571 5.25,-0.515 5.339,-0.473 5.438,-0.43 5.539,-0.394 5.625,-0.34 5.723,-0.309 5.8,-0.265 5.879,-0.231 5.965,-0.195 6.043,-0.168 6.11,-0.129 6.183,-0.102 6.254,-0.074 6.316,-0.054 6.383,-0.024 6.426,0 6.496,0.024 6.547,0.031 6.59,0.055 6.648,0.066 6.692,0.09 6.722,0.097 6.758,0.11 6.801,0.121 6.832,0.121 6.855,0.133 6.891,0.129 6.91,0.144 6.922,0.133 6.953,0.141 6.953,0.133 6.965,0.132 6.988,0.121 6.977,0.121 6.988,0.098 6.989,0.098 6.976,0.09 6.977,0.066 6.965,0.043 6.941,0.043 6.934,0.012 6.921,-0.012 6.887,-0.031 6.879,-0.055 6.832,-0.078 6.813,-0.109 6.781,-0.145 6.742,-0.164 6.703,-0.207 6.656,-0.231 6.618,-0.277 6.558,-0.316 6.516,-0.352 6.445,-0.398 6.406,-0.438 6.34,-0.484 6.274,-0.527 6.207,-0.583 6.14,-0.625 6.067,-0.683 5.996,-0.735 5.914,-0.792 5.832,-0.832 5.746,-0.915 5.656,-0.964 5.571,-1.024 5.484,-1.086 5.371,-1.156 5.285,-1.219 5.176,-1.297 5.074,-1.359 4.965,-1.43 4.855,-1.504 4.739,-1.582 4.625,-1.66 4.504,-1.746 4.371,-1.812 4.254,-1.903 4.129,-1.988 3.988,-2.066 3.855,-2.165 3.715,-2.242 3.582,-2.34 3.438,-2.425 3.285,-2.528 3.133,-2.613 2.988,-2.715 2.824,-2.812 2.668,-2.922 2.504,-3.024 2.34,-3.117 2.344,3.117 2.504,3.024 2.668,2.922 2.835,2.812 2.977,2.715 3.141,2.613 3.285,2.528 3.43,2.425 3.582,2.34 3.71,2.242 3.868,2.165 3.988,2.066 4.121,1.988 4.25,1.903 4.387,1.812 4.504,1.746 4.613,1.66 4.746,1.582 4.844,1.504 4.969,1.43 5.074,1.359 5.187,1.297 5.274,1.219 5.383,1.156 5.468,1.086 5.571,1.024 5.66,0.964 5.758,0.915 5.832,0.832 5.91,0.792 5.988,0.735 6.066,0.683 6.141,0.625 6.207,0.583 6.285,0.527 6.336,0.484 6.395,0.438 6.461,0.398 6.504,0.352 6.57,0.316 6.613,0.277 6.66,0.231 6.688,0.207 6.758,0.164 6.769,0.145 6.812,0.109 6.84,0.078 6.87,0.055 6.89,0.031 6.92,0.012 6.93,-0.012 6.96,-0.043 6.96,-0.043 6.97,-0.066 6.98,-0.09 6.99,-0.098 6.98,-0.098 6.98,-0.121 6.98,-0.121 6.98,-0.132 6.95,-0.133 6.95,-0.141 6.92,-0.133 6.92,-0.144 6.88,-0.129 6.87,-0.133 6.82,-0.121 6.8,-0.121 6.77,-0.11 6.72,-0.097 6.69,-0.09 6.63,-0.066 6.6,-0.055 6.54,-0.031 6.5,-0.024 6.44,0 6.38,0.024 6.3,0.054 6.25,0.074 6.19,0.102 6.12,0.129 6.03,0.168 5.97,0.195 5.89,0.231 5.8,0.265 5.71,0.309 5.64,0.34 5.52,0.394 5.44,0.43 5.35,0.473 5.24,0.515 5.14,0.571 5.04,0.617 4.93,0.668 4.8,0.715 4.7,0.781 4.58,0.832 4.47,0.891 4.32,0.957 4.21,1.011 4.07,1.074 3.94,1.133 3.81,1.207 3.67,1.278 3.53,1.351 3.37,1.414 3.23,1.496 3.09,1.559 2.92,1.648 2.77,1.715 2.61,1.801 2.44,1.891 2.29,1.957 2.11,2.054 1.94,2.141 1.77,2.23 1.58,2.309 1.41,2.414 1.22,2.508 1.03,2.59 -1.49,-3.637 -1.67,-3.516 -1.84,-3.371 -2,-3.261 -2.16,-3.133 -2.33,-3 -2.49,-2.887 -2.64,-2.781 -2.79,-2.66 -2.94,-2.535 -3.09,-2.43 -3.22,-2.328 -3.37,-2.219 -3.52,-2.109 -3.64,-2 -3.78,-1.914 -3.91,-1.813 -4.03,-1.711 -4.15,-1.617 -4.27,-1.527 -4.4,-1.426 -4.51,-1.352 -4.62,-1.265 -4.75,-1.176 -4.84,-1.098 -4.95,-1.023 -5.04,-0.934 -5.15,-0.867 -5.24,-0.789 -5.34,-0.715 -5.43,-0.648 -5.51,-0.594 -5.61,-0.516 -5.68,-0.453 -5.75,-0.394 -5.85,-0.34 -5.91,-0.285 -5.98,-0.219 -6.05,-0.176 -6.12,-0.121 -6.18,-0.078 -6.24,-0.031 -6.3,0.007 -6.35,0.059 -6.4,0.098 -6.45,0.132 -6.5,0.165 -6.55,0.195 -6.58,0.23 -6.61,0.266 -6.67,0.285 -6.68,0.309 -6.71,0.339 -6.75,0.352 -6.77,0.375 -6.78,0.383 -6.81,0.406 -6.82,0.418 -6.83,0.43 -6.85,0.426 -6.85,0.441 -6.86,0.437 -6.84,0.454 -6.86,0.437 -6.85,0.441 -6.85,0.438 -6.83,0.43 -6.82,0.418 -6.81,0.418 -6.78,0.394 -6.77,0.371 -6.75,0.364 -6.72,0.351 -6.69,0.32 -6.649,0.297 -6.625,0.274 -6.59,0.242 -6.551,0.207 -6.492,0.187 -6.461,0.145 -6.402,0.109 -6.363,0.078 -6.293,0.032 -6.242,-0.012 -6.184,-0.055 -6.121,-0.109 -6.055,-0.145 -5.996,-0.207 -5.91,-0.254 -5.848,-0.316 -5.765,-0.363 -5.692,-0.438 -5.601,-0.484 -5.528,-0.563 -5.429,-0.613 -5.348,-0.691 -5.254,-0.758 -5.152,-0.836 -5.055,-0.902 -4.953,-0.989 -4.844,-1.066 -4.746,-1.129 -4.625,-1.23 -4.527,-1.309 -4.395,-1.395 -4.297,-1.496 -4.164,-1.57 -4.031,-1.672 -3.922,-1.765 -3.781,-1.868 -3.656,-1.968 -3.516,-2.067 -3.383,-2.164 -3.23,-2.273 -3.098,-2.383 -2.957,-2.496 -2.801,-2.613 -2.648,-2.715 -2.492,-2.844 -2.344,-2.957 -2.34,2.957 -2.492,2.844 -2.649,2.715 -2.8,2.613 -2.946,2.496 -3.097,2.383 -3.242,2.273 -3.383,2.164 -3.516,2.067 -3.648,1.968 -3.789,1.868 -3.911,1.765 -4.043,1.672 -4.164,1.57 -4.285,1.496 -4.406,1.395 -4.516,1.309 -4.636,1.23 -4.746,1.129 -4.844,1.066 -4.957,0.989 -5.051,0.902 -5.156,0.836 -5.25,0.758 -5.34,0.691 -5.438,0.613 -5.515,0.563 -5.614,0.484 -5.679,0.438 -5.77,0.363 -5.843,0.316 -5.922,0.254 -5.989,0.207 -6.054,0.145 -6.118,0.109 -6.187,0.055 -6.25,0.012 -6.293,-0.032 -6.363,-0.078 -6.407,-0.109 -6.449,-0.145 -6.504,-0.187 -6.547,-0.207 -6.582,-0.242 -6.625,-0.274 -6.656,-0.297 -6.691,-0.32 -6.711,-0.351 -6.746,-0.364 -6.77,-0.371 -6.789,-0.394 -6.812,-0.418 -6.821,-0.418 -6.836,-0.43 -6.843,-0.438 -6.844,-0.441 -6.856,-0.437 -6.855,-0.454 -6.856,-0.437 -6.855,-0.441 -6.844,-0.426 -6.836,-0.43 -6.808,-0.418 -6.813,-0.406 -6.789,-0.383 -6.769,-0.375 -6.735,-0.352 -6.722,-0.339 -6.68,-0.309 -6.66,-0.285 -6.613,-0.266 -6.59,-0.23 -6.539,-0.195 -6.493,-0.165 -6.461,-0.132 -6.402,-0.098 -6.351,-0.059 -6.297,-0.007 -6.239,0.031 -6.175,0.078 -6.118,0.121 -6.054,0.176 -5.989,0.219 -5.91,0.285 -5.836,0.34 -5.765,0.394 -5.68,0.453 -5.605,0.516 -5.516,0.594 -5.426,0.648 -5.34,0.715 -5.238,0.789 -5.144,0.867 -5.051,0.934 -4.946,1.023 -4.843,1.098 -4.739,1.176 -4.625,1.265 -4.504,1.352 -4.406,1.426 -4.273,1.527 -4.153,1.617 -4.031,1.711 -3.91,1.813 -3.769,1.914 -3.649,2 -3.504,2.109 -3.371,2.219 -3.23,2.328 -3.09,2.43 -2.942,2.535 -2.793,2.66 -2.636,2.781 -2.481,2.887 -2.332,3 -2.164,3.133 -2.008,3.261 -1.836,3.371 -1.672,3.516 -1.492,3.637 z" /><g
         transform="matrix(146.4,0,0,-134.4,-16.5201,561.48)"
         id="g108"><rect
           id="rect110"
           style="fill:#ffffff;fill-opacity:1;fill-rule:nonzero"
           transform="matrix(1,0,0,-1,0,1)"
           height="1"
           width="1"
           y="0"
           x="0" /></g><g
         transform="scale(10,10)"
         id="g112"><text
           id="text114"
           style="font-variant:normal;font-weight:normal;font-size:10.90909958px;font-family:CMMI10;-inkscape-font-specification:CMMI10;writing-mode:lr-tb;fill:#000000;fill-opacity:1;fill-rule:nonzero;stroke:none"
           transform="matrix(1,0,0,-1,1.36016,45.7199)"><tspan
             id="tspan116"
             y="0"
             x="0">O</tspan></text>
</g><g
         transform="matrix(147.6,0,0,-134.4,-17.7201,2048.78)"
         id="g118"><rect
           id="rect120"
           style="fill:#ffffff;fill-opacity:1;fill-rule:nonzero"
           transform="matrix(1,0,0,-1,0,1)"
           height="1"
           width="1"
           y="0"
           x="0" /></g><g
         transform="scale(10,10)"
         id="g122"><text
           id="text124"
           style="font-variant:normal;font-weight:normal;font-size:10.90909958px;font-family:CMMI10;-inkscape-font-specification:CMMI10;writing-mode:lr-tb;fill:#000000;fill-opacity:1;fill-rule:nonzero;stroke:none"
           transform="matrix(1,0,0,-1,1.23984,194.45)"><tspan
             id="tspan126"
             y="0"
             x="0">Y</tspan></text>
</g><path
         id="path128"
         style="fill:none;stroke:#000000;stroke-width:11.95530033;stroke-linecap:butt;stroke-linejoin:miter;stroke-miterlimit:10;stroke-dasharray:none;stroke-opacity:1"
         d="m 1.99609,561.602 1568.02391,0" /><path
         id="path130"
         style="fill:none;stroke:#000000;stroke-width:11.95530033;stroke-linecap:butt;stroke-linejoin:miter;stroke-miterlimit:10;stroke-dasharray:none;stroke-opacity:1"
         d="m 130,417.602 0,1584.018" /><g
         transform="scale(10,10)"
         id="g132"><text
           id="text134"
           style="font-variant:normal;font-weight:normal;font-size:11.9552002px;font-family:CMCSC10;-inkscape-font-specification:CMCSC10;writing-mode:lr-tb;fill:#000000;fill-opacity:1;fill-rule:nonzero;stroke:none"
           transform="matrix(1,0,0,-1,62.441,0.179297)"><tspan
             id="tspan136"
             y="0"
             x="0 8.5141897 12.111581 19.790342 28.065218 34.667988 41.270767">Fig.52.</tspan></text>
</g></g></g></svg>