<?xml version="1.0" encoding="UTF-8" standalone="no"?>
<svg
   xmlns:dc="http://purl.org/dc/elements/1.1/"
   xmlns:cc="http://creativecommons.org/ns#"
   xmlns:rdf="http://www.w3.org/1999/02/22-rdf-syntax-ns#"
   xmlns:svg="http://www.w3.org/2000/svg"
   xmlns="http://www.w3.org/2000/svg"
   viewBox="0 0 193.75 137.5"
   height="137.5"
   width="193.75"
   xml:space="preserve"
   version="1.1"
   id="svg2"><metadata
     id="metadata8"><rdf:RDF><cc:Work
         rdf:about=""><dc:format>image/svg+xml</dc:format><dc:type
           rdf:resource="http://purl.org/dc/dcmitype/StillImage" /></cc:Work></rdf:RDF></metadata><defs
     id="defs6"><clipPath
       id="clipPath12"
       clipPathUnits="userSpaceOnUse"><path
         id="path14"
         d="m -2,-2 155,0 0,110 -155,0 0,-110 z" /></clipPath></defs><g
     clip-path="url(#clipPath12)"
     transform="matrix(1.25,0,0,-1.25,2.5,135)"
     id="g10"><g
       transform="scale(0.1,0.1)"
       id="g16"><path
         id="path18"
         style="fill:none;stroke:#000000;stroke-width:11.95530033;stroke-linecap:butt;stroke-linejoin:miter;stroke-miterlimit:10;stroke-dasharray:none;stroke-opacity:1"
         d="m 122.855,527.32 0,308.567" /><g
         transform="matrix(60,0,0,-6,92.7349,530.801)"
         id="g20"><rect
           id="rect22"
           style="fill:#000000;fill-opacity:1;fill-rule:nonzero"
           transform="matrix(1,0,0,-1,0,1)"
           height="1"
           width="1"
           y="0"
           x="0" /></g><g
         transform="matrix(60,0,0,-6,92.7349,633.657)"
         id="g24"><rect
           id="rect26"
           style="fill:#000000;fill-opacity:1;fill-rule:nonzero"
           transform="matrix(1,0,0,-1,0,1)"
           height="1"
           width="1"
           y="0"
           x="0" /></g><g
         transform="matrix(60,0,0,-6,92.7349,736.512)"
         id="g28"><rect
           id="rect30"
           style="fill:#000000;fill-opacity:1;fill-rule:nonzero"
           transform="matrix(1,0,0,-1,0,1)"
           height="1"
           width="1"
           y="0"
           x="0" /></g><g
         transform="matrix(60,0,0,-6,92.7349,839.367)"
         id="g32"><rect
           id="rect34"
           style="fill:#000000;fill-opacity:1;fill-rule:nonzero"
           transform="matrix(1,0,0,-1,0,1)"
           height="1"
           width="1"
           y="0"
           x="0" /></g><path
         id="path36"
         style="fill:none;stroke:#000000;stroke-width:11.95530033;stroke-linecap:butt;stroke-linejoin:miter;stroke-miterlimit:10;stroke-dasharray:none;stroke-opacity:1"
         d="M 122.855,424.457 1408.59,853.039" /><path
         id="path38"
         style="fill:none;stroke:#000000;stroke-width:7.97009993;stroke-linecap:butt;stroke-linejoin:miter;stroke-miterlimit:10;stroke-dasharray:none;stroke-opacity:1"
         d="m 225.723,424.457 0,4.281" /><path
         id="path40"
         style="fill:none;stroke:#000000;stroke-width:7.97009993;stroke-linecap:butt;stroke-linejoin:miter;stroke-miterlimit:10;stroke-dasharray:none;stroke-opacity:1"
         d="m 225.723,437.32 0,4.285" /><path
         id="path42"
         style="fill:none;stroke:#000000;stroke-width:7.97009993;stroke-linecap:butt;stroke-linejoin:miter;stroke-miterlimit:10;stroke-dasharray:none;stroke-opacity:1"
         d="m 225.723,441.605 0,4.286" /><path
         id="path44"
         style="fill:none;stroke:#000000;stroke-width:7.97009993;stroke-linecap:butt;stroke-linejoin:miter;stroke-miterlimit:10;stroke-dasharray:none;stroke-opacity:1"
         d="m 225.723,454.461 0,4.281" /><path
         id="path46"
         style="fill:none;stroke:#000000;stroke-width:7.97009993;stroke-linecap:butt;stroke-linejoin:miter;stroke-miterlimit:10;stroke-dasharray:none;stroke-opacity:1"
         d="m 328.578,424.457 0,8.566" /><path
         id="path48"
         style="fill:none;stroke:#000000;stroke-width:7.97009993;stroke-linecap:butt;stroke-linejoin:miter;stroke-miterlimit:10;stroke-dasharray:none;stroke-opacity:1"
         d="m 328.578,450.176 0,8.566" /><path
         id="path50"
         style="fill:none;stroke:#000000;stroke-width:7.97009993;stroke-linecap:butt;stroke-linejoin:miter;stroke-miterlimit:10;stroke-dasharray:none;stroke-opacity:1"
         d="m 328.578,458.742 0,8.57" /><path
         id="path52"
         style="fill:none;stroke:#000000;stroke-width:7.97009993;stroke-linecap:butt;stroke-linejoin:miter;stroke-miterlimit:10;stroke-dasharray:none;stroke-opacity:1"
         d="m 328.578,484.465 0,8.566" /><path
         id="path54"
         style="fill:none;stroke:#000000;stroke-width:7.97009993;stroke-linecap:butt;stroke-linejoin:miter;stroke-miterlimit:10;stroke-dasharray:none;stroke-opacity:1"
         d="m 431.434,424.457 0,12.863" /><path
         id="path56"
         style="fill:none;stroke:#000000;stroke-width:7.97009993;stroke-linecap:butt;stroke-linejoin:miter;stroke-miterlimit:10;stroke-dasharray:none;stroke-opacity:1"
         d="m 431.434,463.027 0,12.856" /><path
         id="path58"
         style="fill:none;stroke:#000000;stroke-width:7.97009993;stroke-linecap:butt;stroke-linejoin:miter;stroke-miterlimit:10;stroke-dasharray:none;stroke-opacity:1"
         d="m 431.434,475.883 0,12.867" /><path
         id="path60"
         style="fill:none;stroke:#000000;stroke-width:7.97009993;stroke-linecap:butt;stroke-linejoin:miter;stroke-miterlimit:10;stroke-dasharray:none;stroke-opacity:1"
         d="m 431.434,514.457 0,12.863" /><path
         id="path62"
         style="fill:none;stroke:#000000;stroke-width:7.97009993;stroke-linecap:butt;stroke-linejoin:miter;stroke-miterlimit:10;stroke-dasharray:none;stroke-opacity:1"
         d="m 534.289,424.457 0,17.148" /><path
         id="path64"
         style="fill:none;stroke:#000000;stroke-width:7.97009993;stroke-linecap:butt;stroke-linejoin:miter;stroke-miterlimit:10;stroke-dasharray:none;stroke-opacity:1"
         d="m 534.289,475.883 0,17.148" /><path
         id="path66"
         style="fill:none;stroke:#000000;stroke-width:7.97009993;stroke-linecap:butt;stroke-linejoin:miter;stroke-miterlimit:10;stroke-dasharray:none;stroke-opacity:1"
         d="m 534.289,493.031 0,17.141" /><path
         id="path68"
         style="fill:none;stroke:#000000;stroke-width:7.97009993;stroke-linecap:butt;stroke-linejoin:miter;stroke-miterlimit:10;stroke-dasharray:none;stroke-opacity:1"
         d="m 534.289,544.461 0,17.137" /><path
         id="path70"
         style="fill:none;stroke:#000000;stroke-width:7.97009993;stroke-linecap:butt;stroke-linejoin:miter;stroke-miterlimit:10;stroke-dasharray:none;stroke-opacity:1"
         d="m 637.152,424.457 0,21.434" /><path
         id="path72"
         style="fill:none;stroke:#000000;stroke-width:7.97009993;stroke-linecap:butt;stroke-linejoin:miter;stroke-miterlimit:10;stroke-dasharray:none;stroke-opacity:1"
         d="m 637.152,488.75 0,21.422" /><path
         id="path74"
         style="fill:none;stroke:#000000;stroke-width:7.97009993;stroke-linecap:butt;stroke-linejoin:miter;stroke-miterlimit:10;stroke-dasharray:none;stroke-opacity:1"
         d="m 637.152,510.172 0,21.433" /><path
         id="path76"
         style="fill:none;stroke:#000000;stroke-width:7.97009993;stroke-linecap:butt;stroke-linejoin:miter;stroke-miterlimit:10;stroke-dasharray:none;stroke-opacity:1"
         d="m 637.152,574.465 0,21.422" /><path
         id="path78"
         style="fill:none;stroke:#000000;stroke-width:7.97009993;stroke-linecap:butt;stroke-linejoin:miter;stroke-miterlimit:10;stroke-dasharray:none;stroke-opacity:1"
         d="m 740.008,424.457 0,25.719" /><path
         id="path80"
         style="fill:none;stroke:#000000;stroke-width:7.97009993;stroke-linecap:butt;stroke-linejoin:miter;stroke-miterlimit:10;stroke-dasharray:none;stroke-opacity:1"
         d="m 740.008,501.602 0,25.718" /><path
         id="path82"
         style="fill:none;stroke:#000000;stroke-width:7.97009993;stroke-linecap:butt;stroke-linejoin:miter;stroke-miterlimit:10;stroke-dasharray:none;stroke-opacity:1"
         d="m 740.008,527.32 0,25.711" /><path
         id="path84"
         style="fill:none;stroke:#000000;stroke-width:7.97009993;stroke-linecap:butt;stroke-linejoin:miter;stroke-miterlimit:10;stroke-dasharray:none;stroke-opacity:1"
         d="m 740.008,604.457 0,25.719" /><path
         id="path86"
         style="fill:none;stroke:#000000;stroke-width:7.97009993;stroke-linecap:butt;stroke-linejoin:miter;stroke-miterlimit:10;stroke-dasharray:none;stroke-opacity:1"
         d="m 842.863,424.457 0,15.004" /><path
         id="path88"
         style="fill:none;stroke:#000000;stroke-width:7.97009993;stroke-linecap:butt;stroke-linejoin:miter;stroke-miterlimit:10;stroke-dasharray:none;stroke-opacity:1"
         d="m 842.863,469.457 0,15.008" /><path
         id="path90"
         style="fill:none;stroke:#000000;stroke-width:7.97009993;stroke-linecap:butt;stroke-linejoin:miter;stroke-miterlimit:10;stroke-dasharray:none;stroke-opacity:1"
         d="m 842.863,484.465 0,14.996" /><path
         id="path92"
         style="fill:none;stroke:#000000;stroke-width:7.97009993;stroke-linecap:butt;stroke-linejoin:miter;stroke-miterlimit:10;stroke-dasharray:none;stroke-opacity:1"
         d="m 842.863,529.465 0,14.996" /><path
         id="path94"
         style="fill:none;stroke:#000000;stroke-width:7.97009993;stroke-linecap:butt;stroke-linejoin:miter;stroke-miterlimit:10;stroke-dasharray:none;stroke-opacity:1"
         d="m 842.863,544.461 0,14.996" /><path
         id="path96"
         style="fill:none;stroke:#000000;stroke-width:7.97009993;stroke-linecap:butt;stroke-linejoin:miter;stroke-miterlimit:10;stroke-dasharray:none;stroke-opacity:1"
         d="m 842.863,589.461 0,14.996" /><path
         id="path98"
         style="fill:none;stroke:#000000;stroke-width:7.97009993;stroke-linecap:butt;stroke-linejoin:miter;stroke-miterlimit:10;stroke-dasharray:none;stroke-opacity:1"
         d="m 842.863,604.457 0,15.008" /><path
         id="path100"
         style="fill:none;stroke:#000000;stroke-width:7.97009993;stroke-linecap:butt;stroke-linejoin:miter;stroke-miterlimit:10;stroke-dasharray:none;stroke-opacity:1"
         d="m 842.863,649.457 0,15.008" /><path
         id="path102"
         style="fill:none;stroke:#000000;stroke-width:7.97009993;stroke-linecap:butt;stroke-linejoin:miter;stroke-miterlimit:10;stroke-dasharray:none;stroke-opacity:1"
         d="m 945.719,424.457 0,17.148" /><path
         id="path104"
         style="fill:none;stroke:#000000;stroke-width:7.97009993;stroke-linecap:butt;stroke-linejoin:miter;stroke-miterlimit:10;stroke-dasharray:none;stroke-opacity:1"
         d="m 945.719,475.883 0,17.148" /><path
         id="path106"
         style="fill:none;stroke:#000000;stroke-width:7.97009993;stroke-linecap:butt;stroke-linejoin:miter;stroke-miterlimit:10;stroke-dasharray:none;stroke-opacity:1"
         d="m 945.719,493.031 0,17.141" /><path
         id="path108"
         style="fill:none;stroke:#000000;stroke-width:7.97009993;stroke-linecap:butt;stroke-linejoin:miter;stroke-miterlimit:10;stroke-dasharray:none;stroke-opacity:1"
         d="m 945.719,544.461 0,17.137" /><path
         id="path110"
         style="fill:none;stroke:#000000;stroke-width:7.97009993;stroke-linecap:butt;stroke-linejoin:miter;stroke-miterlimit:10;stroke-dasharray:none;stroke-opacity:1"
         d="m 945.719,561.598 0,17.152" /><path
         id="path112"
         style="fill:none;stroke:#000000;stroke-width:7.97009993;stroke-linecap:butt;stroke-linejoin:miter;stroke-miterlimit:10;stroke-dasharray:none;stroke-opacity:1"
         d="m 945.719,613.027 0,17.149" /><path
         id="path114"
         style="fill:none;stroke:#000000;stroke-width:7.97009993;stroke-linecap:butt;stroke-linejoin:miter;stroke-miterlimit:10;stroke-dasharray:none;stroke-opacity:1"
         d="m 945.719,630.176 0,17.14" /><path
         id="path116"
         style="fill:none;stroke:#000000;stroke-width:7.97009993;stroke-linecap:butt;stroke-linejoin:miter;stroke-miterlimit:10;stroke-dasharray:none;stroke-opacity:1"
         d="m 945.719,681.605 0,17.137" /><path
         id="path118"
         style="fill:none;stroke:#000000;stroke-width:7.97009993;stroke-linecap:butt;stroke-linejoin:miter;stroke-miterlimit:10;stroke-dasharray:none;stroke-opacity:1"
         d="m 1048.59,424.457 0,19.289" /><path
         id="path120"
         style="fill:none;stroke:#000000;stroke-width:7.97009993;stroke-linecap:butt;stroke-linejoin:miter;stroke-miterlimit:10;stroke-dasharray:none;stroke-opacity:1"
         d="m 1048.59,482.32 0,19.282" /><path
         id="path122"
         style="fill:none;stroke:#000000;stroke-width:7.97009993;stroke-linecap:butt;stroke-linejoin:miter;stroke-miterlimit:10;stroke-dasharray:none;stroke-opacity:1"
         d="m 1048.59,501.602 0,19.281" /><path
         id="path124"
         style="fill:none;stroke:#000000;stroke-width:7.97009993;stroke-linecap:butt;stroke-linejoin:miter;stroke-miterlimit:10;stroke-dasharray:none;stroke-opacity:1"
         d="m 1048.59,559.457 0,19.293" /><path
         id="path126"
         style="fill:none;stroke:#000000;stroke-width:7.97009993;stroke-linecap:butt;stroke-linejoin:miter;stroke-miterlimit:10;stroke-dasharray:none;stroke-opacity:1"
         d="m 1048.59,578.75 0,19.281" /><path
         id="path128"
         style="fill:none;stroke:#000000;stroke-width:7.97009993;stroke-linecap:butt;stroke-linejoin:miter;stroke-miterlimit:10;stroke-dasharray:none;stroke-opacity:1"
         d="m 1048.59,636.605 0,19.282" /><path
         id="path130"
         style="fill:none;stroke:#000000;stroke-width:7.97009993;stroke-linecap:butt;stroke-linejoin:miter;stroke-miterlimit:10;stroke-dasharray:none;stroke-opacity:1"
         d="m 1048.59,655.887 0,19.289" /><path
         id="path132"
         style="fill:none;stroke:#000000;stroke-width:7.97009993;stroke-linecap:butt;stroke-linejoin:miter;stroke-miterlimit:10;stroke-dasharray:none;stroke-opacity:1"
         d="m 1048.59,713.75 0,19.281" /><path
         id="path134"
         style="fill:none;stroke:#000000;stroke-width:7.97009993;stroke-linecap:butt;stroke-linejoin:miter;stroke-miterlimit:10;stroke-dasharray:none;stroke-opacity:1"
         d="m 1151.44,424.457 0,21.434" /><path
         id="path136"
         style="fill:none;stroke:#000000;stroke-width:7.97009993;stroke-linecap:butt;stroke-linejoin:miter;stroke-miterlimit:10;stroke-dasharray:none;stroke-opacity:1"
         d="m 1151.44,488.75 0,21.422" /><path
         id="path138"
         style="fill:none;stroke:#000000;stroke-width:7.97009993;stroke-linecap:butt;stroke-linejoin:miter;stroke-miterlimit:10;stroke-dasharray:none;stroke-opacity:1"
         d="m 1151.44,510.172 0,21.433" /><path
         id="path140"
         style="fill:none;stroke:#000000;stroke-width:7.97009993;stroke-linecap:butt;stroke-linejoin:miter;stroke-miterlimit:10;stroke-dasharray:none;stroke-opacity:1"
         d="m 1151.44,574.465 0,21.422" /><path
         id="path142"
         style="fill:none;stroke:#000000;stroke-width:7.97009993;stroke-linecap:butt;stroke-linejoin:miter;stroke-miterlimit:10;stroke-dasharray:none;stroke-opacity:1"
         d="m 1151.44,595.887 0,21.437" /><path
         id="path144"
         style="fill:none;stroke:#000000;stroke-width:7.97009993;stroke-linecap:butt;stroke-linejoin:miter;stroke-miterlimit:10;stroke-dasharray:none;stroke-opacity:1"
         d="m 1151.44,660.18 0,21.425" /><path
         id="path146"
         style="fill:none;stroke:#000000;stroke-width:7.97009993;stroke-linecap:butt;stroke-linejoin:miter;stroke-miterlimit:10;stroke-dasharray:none;stroke-opacity:1"
         d="m 1151.44,681.605 0,21.422" /><path
         id="path148"
         style="fill:none;stroke:#000000;stroke-width:7.97009993;stroke-linecap:butt;stroke-linejoin:miter;stroke-miterlimit:10;stroke-dasharray:none;stroke-opacity:1"
         d="m 1151.44,745.887 0,21.433" /><path
         id="path150"
         style="fill:none;stroke:#000000;stroke-width:7.97009993;stroke-linecap:butt;stroke-linejoin:miter;stroke-miterlimit:10;stroke-dasharray:none;stroke-opacity:1"
         d="m 1254.31,424.457 0,23.574" /><path
         id="path152"
         style="fill:none;stroke:#000000;stroke-width:7.97009993;stroke-linecap:butt;stroke-linejoin:miter;stroke-miterlimit:10;stroke-dasharray:none;stroke-opacity:1"
         d="m 1254.31,495.176 0,23.566" /><path
         id="path154"
         style="fill:none;stroke:#000000;stroke-width:7.97009993;stroke-linecap:butt;stroke-linejoin:miter;stroke-miterlimit:10;stroke-dasharray:none;stroke-opacity:1"
         d="m 1254.31,518.742 0,23.574" /><path
         id="path156"
         style="fill:none;stroke:#000000;stroke-width:7.97009993;stroke-linecap:butt;stroke-linejoin:miter;stroke-miterlimit:10;stroke-dasharray:none;stroke-opacity:1"
         d="m 1254.31,589.461 0,23.566" /><path
         id="path158"
         style="fill:none;stroke:#000000;stroke-width:7.97009993;stroke-linecap:butt;stroke-linejoin:miter;stroke-miterlimit:10;stroke-dasharray:none;stroke-opacity:1"
         d="m 1254.31,613.027 0,23.578" /><path
         id="path160"
         style="fill:none;stroke:#000000;stroke-width:7.97009993;stroke-linecap:butt;stroke-linejoin:miter;stroke-miterlimit:10;stroke-dasharray:none;stroke-opacity:1"
         d="m 1254.31,683.746 0,23.578" /><path
         id="path162"
         style="fill:none;stroke:#000000;stroke-width:7.97009993;stroke-linecap:butt;stroke-linejoin:miter;stroke-miterlimit:10;stroke-dasharray:none;stroke-opacity:1"
         d="m 1254.31,707.324 0,23.567" /><path
         id="path164"
         style="fill:none;stroke:#000000;stroke-width:7.97009993;stroke-linecap:butt;stroke-linejoin:miter;stroke-miterlimit:10;stroke-dasharray:none;stroke-opacity:1"
         d="m 1254.31,778.031 0,23.578" /><path
         id="path166"
         style="fill:none;stroke:#000000;stroke-width:11.95530033;stroke-linecap:butt;stroke-linejoin:miter;stroke-miterlimit:10;stroke-dasharray:none;stroke-opacity:1"
         d="m 1357.16,424.457 0,411.43" /><g
         transform="matrix(169.2,0,0,-130.8,655.889,311.003)"
         id="g168"><rect
           id="rect170"
           style="fill:#ffffff;fill-opacity:1;fill-rule:nonzero"
           transform="matrix(1,0,0,-1,0,1)"
           height="1"
           width="1"
           y="0"
           x="0" /></g><g
         transform="scale(10,10)"
         id="g172"><text
           id="text174"
           style="font-variant:normal;font-weight:normal;font-size:10.90909958px;font-family:CMR10;-inkscape-font-specification:CMR10;writing-mode:lr-tb;fill:#000000;fill-opacity:1;fill-rule:nonzero;stroke:none"
           transform="matrix(1,0,0,-1,68.6008,21.0324)"><tspan
             id="tspan176"
             y="0"
             x="0 5.4000044">12</tspan></text>
</g><path
         id="path178"
         style="fill:#000000;fill-opacity:1;fill-rule:nonzero;stroke:none"
         d="m 142.785,404.535 1.086,-2.449 1.254,-2.352 1.43,-2.273 1.59,-2.176 1.757,-2.097 1.926,-2.012 2.074,-1.934 2.243,-1.844 2.394,-1.781 2.539,-1.691 2.692,-1.614 2.832,-1.55 2.988,-1.473 3.121,-1.406 3.254,-1.328 3.394,-1.274 3.528,-1.199 3.644,-1.133 3.781,-1.074 3.911,-1.012 4.023,-0.957 4.141,-0.89 4.261,-0.844 4.372,-0.781 4.472,-0.735 4.594,-0.672 4.691,-0.636 4.801,-0.582 4.887,-0.528 5,-0.496 5.086,-0.437 5.176,-0.407 5.261,-0.363 5.352,-0.316 5.426,-0.297 5.515,-0.254 5.594,-0.211 5.656,-0.184 5.735,-0.156 5.812,-0.129 5.867,-0.09 5.946,-0.078 5.988,-0.043 6.051,-0.023 6.109,0 6.164,0.012 6.219,0.035 6.25,0.054 6.305,0.067 6.351,0.086 6.383,0.09 6.418,0.097 6.461,0.11 6.48,0.121 6.516,0.121 6.535,0.133 6.559,0.129 6.582,0.121 6.601,0.132 6.617,0.133 6.622,0.121 6.625,0.11 6.648,0.109 6.637,0.098 6.644,0.101 6.637,0.075 6.637,0.054 6.636,0.059 6.614,0.031 6.601,0.012 6.594,-0.012 6.57,-0.023 6.547,-0.055 6.524,-0.074 6.507,-0.102 6.469,-0.129 6.438,-0.168 6.406,-0.183 6.359,-0.235 6.328,-0.25 6.274,-0.296 6.242,-0.333 6.184,-0.371 6.144,-0.418 6.074,-0.449 6.032,-0.508 5.965,-0.539 5.902,-0.59 5.832,-0.64 5.777,-0.692 5.703,-0.746 5.625,-0.789 5.547,-0.859 5.473,-0.899 5.394,-0.968 5.309,-1.024 5.215,-1.086 5.133,-1.152 5.043,-1.223 4.933,-1.273 4.856,-1.352 4.734,-1.418 4.648,-1.492 4.536,-1.558 4.429,-1.641 4.305,-1.699 4.207,-1.793 4.078,-1.867 3.965,-1.957 3.848,-2.02 3.711,-2.121 3.593,-2.195 3.461,-2.286 3.317,-2.375 3.187,-2.472 3.055,-2.547 2.91,-2.66 2.758,-2.735 2.613,-2.847 2.473,-2.942 2.472,2.942 2.614,2.847 2.758,2.735 2.914,2.66 3.043,2.547 3.195,2.472 3.32,2.375 3.461,2.286 3.59,2.195 3.715,2.121 3.836,2.02 3.976,1.957 4.075,1.867 4.207,1.793 4.308,1.699 4.438,1.641 4.527,1.558 4.637,1.492 4.746,1.418 4.844,1.352 4.957,1.273 5.031,1.223 5.129,1.152 5.219,1.086 5.308,1.024 5.395,0.968 5.468,0.899 5.551,0.859 5.625,0.789 5.699,0.746 5.782,0.692 5.832,0.64 5.898,0.59 5.969,0.539 6.031,0.508 6.074,0.449 6.141,0.418 6.187,0.371 6.239,0.333 6.285,0.296 6.316,0.25 6.364,0.235 6.402,0.183 6.441,0.168 6.469,0.129 6.504,0.102 6.527,0.074 6.547,0.055 6.571,0.023 6.589,0.012 6.606,-0.012 6.61,-0.031 6.64,-0.059 6.63,-0.054 6.64,-0.075 6.65,-0.101 6.63,-0.098 6.65,-0.109 6.62,-0.11 6.63,-0.121 6.61,-0.133 6.61,-0.132 6.58,-0.121 6.55,-0.129 6.54,-0.133 6.52,-0.121 6.48,-0.121 6.46,-0.11 6.41,-0.097 6.39,-0.09 6.35,-0.086 6.3,-0.067 6.27,-0.054 6.19,-0.035 6.17,-0.012 6.12,0 6.05,0.023 5.99,0.043 5.94,0.078 5.87,0.09 5.8,0.129 5.74,0.156 5.66,0.184 5.59,0.211 5.52,0.254 5.43,0.297 5.35,0.316 5.26,0.363 5.17,0.407 5.09,0.437 5,0.496 4.89,0.528 4.8,0.582 4.69,0.636 4.59,0.672 4.48,0.735 4.37,0.781 4.26,0.844 4.14,0.89 4.02,0.957 3.92,1.012 3.77,1.074 3.65,1.133 3.53,1.199 3.39,1.274 3.25,1.328 3.13,1.406 2.98,1.473 2.84,1.55 2.69,1.614 2.54,1.691 2.4,1.781 2.23,1.844 2.08,1.934 1.92,2.012 1.76,2.097 1.59,2.176 1.43,2.273 1.25,2.352 1.09,2.449 -1.57,-3.426 -1.73,-3.308 -1.88,-3.172 -2.03,-3.067 -2.19,-2.945 -2.34,-2.836 -2.47,-2.722 -2.62,-2.606 -2.76,-2.504 -2.89,-2.394 -3.03,-2.285 -3.15,-2.188 -3.28,-2.086 -3.42,-1.988 -3.54,-1.891 -3.66,-1.789 -3.78,-1.703 -3.89,-1.617 -4.01,-1.516 -4.11,-1.437 -4.22,-1.352 -4.34,-1.265 -4.43,-1.196 -4.54,-1.109 -4.64,-1.024 -4.72,-0.964 -4.82,-0.879 -4.92,-0.817 -5,-0.746 -5.1,-0.668 -5.18,-0.617 -5.25,-0.551 -5.33,-0.492 -5.41,-0.43 -5.48,-0.371 -5.55,-0.308 -5.62,-0.266 -5.69,-0.219 -5.75,-0.164 -5.81,-0.109 -5.87,-0.078 -5.91,-0.032 -5.98,0.008 -6.02,0.059 -6.08,0.086 -6.13,0.133 -6.16,0.152 -6.2,0.187 -6.24,0.219 -6.27,0.242 -6.32,0.274 -6.33,0.289 -6.37,0.316 -6.39,0.328 -6.41,0.352 -6.44,0.375 -6.46,0.375 -6.46,0.395 -6.48,0.394 -6.49,0.406 -6.5,0.418 -6.5,0.418 -6.5,0.418 -6.51,0.418 -6.5,0.418 -6.49,0.406 -6.5,0.407 -6.47,0.394 -6.467,0.383 -6.449,0.375 -6.438,0.363 -6.406,0.34 -6.395,0.32 -6.371,0.305 -6.328,0.277 -6.308,0.25 -6.274,0.235 -6.238,0.207 -6.196,0.164 -6.152,0.144 -6.121,0.098 -6.074,0.066 -6.024,0.032 -5.976,-0.008 -5.91,-0.059 -5.868,-0.086 -5.8,-0.144 -5.735,-0.195 -5.691,-0.243 -5.613,-0.297 -5.536,-0.339 -5.484,-0.407 -5.406,-0.461 -5.317,-0.527 -5.25,-0.586 -5.164,-0.644 -5.086,-0.715 -4.988,-0.781 -4.914,-0.856 -4.809,-0.926 -4.726,-1 -4.637,-1.074 -4.515,-1.152 -4.426,-1.231 -4.328,-1.32 -4.219,-1.395 -4.109,-1.484 -4,-1.582 -3.879,-1.66 -3.766,-1.758 -3.648,-1.844 -3.516,-1.945 -3.406,-2.043 -3.274,-2.141 -3.144,-2.242 -3.02,-2.351 -2.879,-2.45 -2.746,-2.562 -2.605,-2.668 -2.461,-2.781 -2.461,2.781 -2.602,2.668 -2.746,2.562 -2.879,2.45 -3.011,2.351 -3.153,2.242 -3.273,2.141 -3.406,2.043 -3.516,1.945 -3.649,1.844 -3.769,1.758 -3.887,1.66 -3.988,1.582 -4.109,1.484 -4.219,1.395 -4.328,1.32 -4.418,1.231 -4.535,1.152 -4.629,1.074 -4.723,1 -4.812,0.926 -4.911,0.856 -4.988,0.781 -5.086,0.715 -5.164,0.644 -5.25,0.586 -5.332,0.527 -5.391,0.461 -5.472,0.407 -5.547,0.339 -5.617,0.297 -5.68,0.243 -5.746,0.195 -5.801,0.144 -5.867,0.086 -5.922,0.059 -5.965,0.008 -6.019,-0.032 -6.075,-0.066 -6.109,-0.098 -6.164,-0.144 -6.195,-0.164 -6.242,-0.207 -6.274,-0.235 -6.305,-0.25 -6.339,-0.277 -6.36,-0.305 -6.394,-0.32 -6.407,-0.34 -6.437,-0.363 -6.449,-0.375 -6.461,-0.383 -6.481,-0.394 -6.492,-0.407 -6.496,-0.406 -6.504,-0.418 -6.504,-0.418 -6.504,-0.418 -6.504,-0.418 -6.492,-0.418 -6.492,-0.406 -6.484,-0.394 -6.457,-0.395 -6.461,-0.375 -6.426,-0.375 -6.418,-0.352 -6.395,-0.328 -6.371,-0.316 -6.34,-0.289 -6.304,-0.274 -6.274,-0.242 -6.242,-0.219 -6.207,-0.187 -6.164,-0.152 -6.117,-0.133 -6.067,-0.086 -6.031,-0.059 -5.976,-0.008 -5.922,0.032 -5.867,0.078 -5.813,0.109 -5.746,0.164 -5.687,0.219 -5.618,0.266 -5.558,0.308 -5.473,0.371 -5.414,0.43 -5.328,0.492 -5.254,0.551 -5.172,0.617 -5.086,0.668 -5.012,0.746 -4.91,0.817 -4.824,0.879 -4.734,0.964 -4.637,1.024 -4.539,1.109 -4.438,1.196 -4.328,1.265 -4.23,1.352 -4.117,1.437 -4,1.516 -3.903,1.617 -3.765,1.703 -3.66,1.789 -3.54,1.891 -3.414,1.988 -3.285,2.086 -3.152,2.188 -3.035,2.285 -2.887,2.394 -2.758,2.504 -2.617,2.606 -2.473,2.722 -2.339,2.836 -2.176,2.945 -2.043,3.067 -1.879,3.172 -1.735,3.308 -1.57,3.426" /><path
         id="path180"
         style="fill:none;stroke:#000000;stroke-width:3.9849999;stroke-linecap:butt;stroke-linejoin:miter;stroke-miterlimit:10;stroke-dasharray:none;stroke-opacity:1"
         d="m 142.785,404.535 1.086,-2.449 1.254,-2.352 1.43,-2.273 1.59,-2.176 1.757,-2.097 1.926,-2.012 2.074,-1.934 2.243,-1.844 2.394,-1.781 2.539,-1.691 2.692,-1.614 2.832,-1.55 2.988,-1.473 3.121,-1.406 3.254,-1.328 3.394,-1.274 3.528,-1.199 3.644,-1.133 3.781,-1.074 3.911,-1.012 4.023,-0.957 4.141,-0.89 4.261,-0.844 4.372,-0.781 4.472,-0.735 4.594,-0.672 4.691,-0.636 4.801,-0.582 4.887,-0.528 5,-0.496 5.086,-0.437 5.176,-0.407 5.261,-0.363 5.352,-0.316 5.426,-0.297 5.515,-0.254 5.594,-0.211 5.656,-0.184 5.735,-0.156 5.812,-0.129 5.867,-0.09 5.946,-0.078 5.988,-0.043 6.051,-0.023 6.109,0 6.164,0.012 6.219,0.035 6.25,0.054 6.305,0.067 6.351,0.086 6.383,0.09 6.418,0.097 6.461,0.11 6.48,0.121 6.516,0.121 6.535,0.133 6.559,0.129 6.582,0.121 6.601,0.132 6.617,0.133 6.622,0.121 6.625,0.11 6.648,0.109 6.637,0.098 6.644,0.101 6.637,0.075 6.637,0.054 6.636,0.059 6.614,0.031 6.601,0.012 6.594,-0.012 6.57,-0.023 6.547,-0.055 6.524,-0.074 6.507,-0.102 6.469,-0.129 6.438,-0.168 6.406,-0.183 6.359,-0.235 6.328,-0.25 6.274,-0.296 6.242,-0.333 6.184,-0.371 6.144,-0.418 6.074,-0.449 6.032,-0.508 5.965,-0.539 5.902,-0.59 5.832,-0.64 5.777,-0.692 5.703,-0.746 5.625,-0.789 5.547,-0.859 5.473,-0.899 5.394,-0.968 5.309,-1.024 5.215,-1.086 5.133,-1.152 5.043,-1.223 4.933,-1.273 4.856,-1.352 4.734,-1.418 4.648,-1.492 4.536,-1.558 4.429,-1.641 4.305,-1.699 4.207,-1.793 4.078,-1.867 3.965,-1.957 3.848,-2.02 3.711,-2.121 3.593,-2.195 3.461,-2.286 3.317,-2.375 3.187,-2.472 3.055,-2.547 2.91,-2.66 2.758,-2.735 2.613,-2.847 2.473,-2.942 2.472,2.942 2.614,2.847 2.758,2.735 2.914,2.66 3.043,2.547 3.195,2.472 3.32,2.375 3.461,2.286 3.59,2.195 3.715,2.121 3.836,2.02 3.976,1.957 4.075,1.867 4.207,1.793 4.308,1.699 4.438,1.641 4.527,1.558 4.637,1.492 4.746,1.418 4.844,1.352 4.957,1.273 5.031,1.223 5.129,1.152 5.219,1.086 5.308,1.024 5.395,0.968 5.468,0.899 5.551,0.859 5.625,0.789 5.699,0.746 5.782,0.692 5.832,0.64 5.898,0.59 5.969,0.539 6.031,0.508 6.074,0.449 6.141,0.418 6.187,0.371 6.239,0.333 6.285,0.296 6.316,0.25 6.364,0.235 6.402,0.183 6.441,0.168 6.469,0.129 6.504,0.102 6.527,0.074 6.547,0.055 6.571,0.023 6.589,0.012 6.606,-0.012 6.61,-0.031 6.64,-0.059 6.63,-0.054 6.64,-0.075 6.65,-0.101 6.63,-0.098 6.65,-0.109 6.62,-0.11 6.63,-0.121 6.61,-0.133 6.61,-0.132 6.58,-0.121 6.55,-0.129 6.54,-0.133 6.52,-0.121 6.48,-0.121 6.46,-0.11 6.41,-0.097 6.39,-0.09 6.35,-0.086 6.3,-0.067 6.27,-0.054 6.19,-0.035 6.17,-0.012 6.12,0 6.05,0.023 5.99,0.043 5.94,0.078 5.87,0.09 5.8,0.129 5.74,0.156 5.66,0.184 5.59,0.211 5.52,0.254 5.43,0.297 5.35,0.316 5.26,0.363 5.17,0.407 5.09,0.437 5,0.496 4.89,0.528 4.8,0.582 4.69,0.636 4.59,0.672 4.48,0.735 4.37,0.781 4.26,0.844 4.14,0.89 4.02,0.957 3.92,1.012 3.77,1.074 3.65,1.133 3.53,1.199 3.39,1.274 3.25,1.328 3.13,1.406 2.98,1.473 2.84,1.55 2.69,1.614 2.54,1.691 2.4,1.781 2.23,1.844 2.08,1.934 1.92,2.012 1.76,2.097 1.59,2.176 1.43,2.273 1.25,2.352 1.09,2.449 -1.57,-3.426 -1.73,-3.308 -1.88,-3.172 -2.03,-3.067 -2.19,-2.945 -2.34,-2.836 -2.47,-2.722 -2.62,-2.606 -2.76,-2.504 -2.89,-2.394 -3.03,-2.285 -3.15,-2.188 -3.28,-2.086 -3.42,-1.988 -3.54,-1.891 -3.66,-1.789 -3.78,-1.703 -3.89,-1.617 -4.01,-1.516 -4.11,-1.437 -4.22,-1.352 -4.34,-1.265 -4.43,-1.196 -4.54,-1.109 -4.64,-1.024 -4.72,-0.964 -4.82,-0.879 -4.92,-0.817 -5,-0.746 -5.1,-0.668 -5.18,-0.617 -5.25,-0.551 -5.33,-0.492 -5.41,-0.43 -5.48,-0.371 -5.55,-0.308 -5.62,-0.266 -5.69,-0.219 -5.75,-0.164 -5.81,-0.109 -5.87,-0.078 -5.91,-0.032 -5.98,0.008 -6.02,0.059 -6.08,0.086 -6.13,0.133 -6.16,0.152 -6.2,0.187 -6.24,0.219 -6.27,0.242 -6.32,0.274 -6.33,0.289 -6.37,0.316 -6.39,0.328 -6.41,0.352 -6.44,0.375 -6.46,0.375 -6.46,0.395 -6.48,0.394 -6.49,0.406 -6.5,0.418 -6.5,0.418 -6.5,0.418 -6.51,0.418 -6.5,0.418 -6.49,0.406 -6.5,0.407 -6.47,0.394 -6.467,0.383 -6.449,0.375 -6.438,0.363 -6.406,0.34 -6.395,0.32 -6.371,0.305 -6.328,0.277 -6.308,0.25 -6.274,0.235 -6.238,0.207 -6.196,0.164 -6.152,0.144 -6.121,0.098 -6.074,0.066 -6.024,0.032 -5.976,-0.008 -5.91,-0.059 -5.868,-0.086 -5.8,-0.144 -5.735,-0.195 -5.691,-0.243 -5.613,-0.297 -5.536,-0.339 -5.484,-0.407 -5.406,-0.461 -5.317,-0.527 -5.25,-0.586 -5.164,-0.644 -5.086,-0.715 -4.988,-0.781 -4.914,-0.856 -4.809,-0.926 -4.726,-1 -4.637,-1.074 -4.515,-1.152 -4.426,-1.231 -4.328,-1.32 -4.219,-1.395 -4.109,-1.484 -4,-1.582 -3.879,-1.66 -3.766,-1.758 -3.648,-1.844 -3.516,-1.945 -3.406,-2.043 -3.274,-2.141 -3.144,-2.242 -3.02,-2.351 -2.879,-2.45 -2.746,-2.562 -2.605,-2.668 -2.461,-2.781 -2.461,2.781 -2.602,2.668 -2.746,2.562 -2.879,2.45 -3.011,2.351 -3.153,2.242 -3.273,2.141 -3.406,2.043 -3.516,1.945 -3.649,1.844 -3.769,1.758 -3.887,1.66 -3.988,1.582 -4.109,1.484 -4.219,1.395 -4.328,1.32 -4.418,1.231 -4.535,1.152 -4.629,1.074 -4.723,1 -4.812,0.926 -4.911,0.856 -4.988,0.781 -5.086,0.715 -5.164,0.644 -5.25,0.586 -5.332,0.527 -5.391,0.461 -5.472,0.407 -5.547,0.339 -5.617,0.297 -5.68,0.243 -5.746,0.195 -5.801,0.144 -5.867,0.086 -5.922,0.059 -5.965,0.008 -6.019,-0.032 -6.075,-0.066 -6.109,-0.098 -6.164,-0.144 -6.195,-0.164 -6.242,-0.207 -6.274,-0.235 -6.305,-0.25 -6.339,-0.277 -6.36,-0.305 -6.394,-0.32 -6.407,-0.34 -6.437,-0.363 -6.449,-0.375 -6.461,-0.383 -6.481,-0.394 -6.492,-0.407 -6.496,-0.406 -6.504,-0.418 -6.504,-0.418 -6.504,-0.418 -6.504,-0.418 -6.492,-0.418 -6.492,-0.406 -6.484,-0.394 -6.457,-0.395 -6.461,-0.375 -6.426,-0.375 -6.418,-0.352 -6.395,-0.328 -6.371,-0.316 -6.34,-0.289 -6.304,-0.274 -6.274,-0.242 -6.242,-0.219 -6.207,-0.187 -6.164,-0.152 -6.117,-0.133 -6.067,-0.086 -6.031,-0.059 -5.976,-0.008 -5.922,0.032 -5.867,0.078 -5.813,0.109 -5.746,0.164 -5.687,0.219 -5.618,0.266 -5.558,0.308 -5.473,0.371 -5.414,0.43 -5.328,0.492 -5.254,0.551 -5.172,0.617 -5.086,0.668 -5.012,0.746 -4.91,0.817 -4.824,0.879 -4.734,0.964 -4.637,1.024 -4.539,1.109 -4.438,1.196 -4.328,1.265 -4.23,1.352 -4.117,1.437 -4,1.516 -3.903,1.617 -3.765,1.703 -3.66,1.789 -3.54,1.891 -3.414,1.988 -3.285,2.086 -3.152,2.188 -3.035,2.285 -2.887,2.394 -2.758,2.504 -2.617,2.606 -2.473,2.722 -2.339,2.836 -2.176,2.945 -2.043,3.067 -1.879,3.172 -1.735,3.308 -1.57,3.426 z" /><g
         transform="matrix(115.2,0,0,-130.8,1419,696.057)"
         id="g182"><rect
           id="rect184"
           style="fill:#ffffff;fill-opacity:1;fill-rule:nonzero"
           transform="matrix(1,0,0,-1,0,1)"
           height="1"
           width="1"
           y="0"
           x="0" /></g><g
         transform="scale(10,10)"
         id="g186"><text
           id="text188"
           style="font-variant:normal;font-weight:normal;font-size:10.90909958px;font-family:CMR10;-inkscape-font-specification:CMR10;writing-mode:lr-tb;fill:#000000;fill-opacity:1;fill-rule:nonzero;stroke:none"
           transform="matrix(1,0,0,-1,144.912,59.5375)"><tspan
             id="tspan190"
             y="0"
             x="0">4</tspan></text>
</g><path
         id="path192"
         style="fill:#000000;fill-opacity:1;fill-rule:nonzero;stroke:none"
         d="m 1377.09,434.418 0.97,0.52 0.93,0.57 0.89,0.605 0.86,0.657 0.82,0.695 0.78,0.734 0.74,0.781 0.71,0.813 0.67,0.855 0.64,0.903 0.6,0.933 0.57,0.965 0.53,1.012 0.51,1.043 0.47,1.09 0.45,1.121 0.41,1.14 0.4,1.188 0.36,1.219 0.33,1.254 0.29,1.285 0.29,1.316 0.25,1.344 0.23,1.383 0.21,1.406 0.19,1.426 0.16,1.465 0.15,1.492 0.12,1.515 0.09,1.54 0.09,1.57 0.07,1.594 0.06,1.613 0.02,1.637 0.02,1.671 0,1.68 -0.01,1.703 -0.03,1.727 -0.03,1.746 -0.05,1.769 -0.07,1.79 -0.07,1.804 -0.08,1.82 -0.08,1.836 -0.11,1.856 -0.1,1.871 -0.11,1.887 -0.12,1.902 -0.12,1.91 -0.13,1.922 -0.13,1.945 -0.12,1.946 -0.15,1.968 -0.13,1.965 -0.13,1.989 -0.13,1.988 -0.14,2 -0.14,2.012 -0.13,2.007 -0.12,2.024 -0.12,2.019 -0.12,2.036 -0.11,2.031 -0.11,2.043 -0.1,2.043 -0.09,2.043 -0.09,2.054 -0.06,2.043 -0.06,2.055 -0.05,2.047 -0.04,2.055 -0.03,2.043 -0.01,2.043 0,2.043 0.01,2.042 0.03,2.032 0.05,2.035 0.06,2.019 0.09,2.024 0.1,2.008 0.12,2 0.15,2 0.15,1.988 0.19,1.976 0.2,1.981 0.24,1.953 0.25,1.945 0.27,1.946 0.31,1.922 0.33,1.914 0.35,1.886 0.39,1.891 0.41,1.855 0.44,1.86 0.47,1.832 0.5,1.812 0.54,1.805 0.56,1.777 0.6,1.77 0.64,1.746 0.66,1.715 0.72,1.703 0.73,1.68 0.77,1.66 0.81,1.637 0.86,1.617 0.89,1.582 0.93,1.558 0.98,1.539 1,1.516 1.06,1.484 1.09,1.45 1.16,1.425 1.18,1.399 1.23,1.371 1.28,1.34 1.32,1.308 1.38,1.274 1.42,1.254 1.46,1.207 -1.46,1.211 -1.42,1.25 -1.38,1.277 -1.32,1.305 -1.28,1.34 -1.23,1.363 -1.18,1.406 -1.16,1.43 -1.09,1.449 -1.06,1.484 -1,1.516 -0.98,1.527 -0.93,1.571 -0.89,1.582 -0.86,1.613 -0.81,1.637 -0.77,1.66 -0.73,1.672 -0.72,1.703 -0.66,1.723 -0.64,1.746 -0.6,1.757 -0.56,1.782 -0.54,1.8 -0.5,1.825 -0.47,1.836 -0.44,1.843 -0.41,1.871 -0.39,1.875 -0.35,1.903 -0.33,1.91 -0.31,1.926 -0.27,1.933 -0.25,1.953 -0.24,1.957 -0.2,1.965 -0.19,1.981 -0.15,1.988 -0.15,1.996 -0.12,2.012 -0.1,2.012 -0.09,2.019 -0.06,2.024 -0.05,2.031 -0.03,2.035 -0.01,2.043 0,2.043 0.01,2.043 0.03,2.043 0.04,2.055 0.05,2.043 0.06,2.054 0.06,2.043 0.09,2.043 0.09,2.055 0.1,2.043 0.11,2.035 0.11,2.043 0.12,2.019 0.12,2.036 0.12,2.019 0.13,2.012 0.14,2.012 0.14,1.996 0.13,1.992 0.13,1.976 0.13,1.977 0.15,1.957 0.12,1.953 0.13,1.934 0.13,1.933 0.12,1.914 0.12,1.899 0.11,1.879 0.1,1.879 0.11,1.847 0.08,1.844 0.08,1.824 0.07,1.801 0.07,1.781 0.05,1.77 0.03,1.746 0.03,1.734 0.01,1.703 0,1.684 -0.02,1.668 -0.02,1.637 -0.06,1.617 -0.07,1.59 -0.09,1.574 -0.09,1.535 -0.12,1.52 -0.15,1.48 -0.16,1.473 -0.19,1.429 -0.21,1.407 -0.23,1.371 -0.25,1.351 -0.29,1.309 -0.29,1.285 -0.33,1.254 -0.36,1.219 -0.4,1.187 -0.41,1.153 -0.45,1.121 -0.47,1.074 -0.51,1.055 -0.53,1.011 -0.57,0.969 -0.6,0.934 -0.64,0.898 -0.67,0.859 -0.71,0.813 -0.74,0.781 -0.78,0.735 -0.82,0.691 -0.86,0.648 -0.89,0.618 -0.93,0.558 -0.97,0.528 1.27,-0.672 1.21,-0.703 1.17,-0.747 1.12,-0.789 1.08,-0.824 1.02,-0.859 0.99,-0.887 0.92,-0.933 0.89,-0.969 0.85,-1 0.8,-1.031 0.77,-1.079 0.71,-1.097 0.68,-1.133 0.64,-1.164 0.6,-1.199 0.58,-1.231 0.52,-1.262 0.5,-1.285 0.46,-1.32 0.42,-1.34 0.39,-1.371 0.36,-1.394 0.32,-1.43 0.3,-1.449 0.26,-1.473 0.24,-1.508 0.22,-1.523 0.18,-1.551 0.15,-1.57 0.14,-1.594 0.11,-1.617 0.08,-1.637 0.06,-1.656 0.04,-1.684 0.02,-1.691 0,-1.711 -0.02,-1.739 -0.04,-1.746 -0.06,-1.769 -0.06,-1.789 -0.09,-1.805 -0.1,-1.812 -0.12,-1.832 -0.13,-1.836 -0.15,-1.868 -0.15,-1.867 -0.15,-1.879 -0.18,-1.902 -0.17,-1.898 -0.19,-1.926 -0.2,-1.922 -0.2,-1.934 -0.2,-1.945 -0.21,-1.953 -0.22,-1.957 -0.21,-1.965 -0.22,-1.969 -0.22,-1.988 -0.22,-1.977 -0.22,-1.988 -0.21,-1.988 -0.22,-2 -0.21,-2 -0.2,-2 -0.2,-2 -0.19,-2.008 -0.19,-2 -0.17,-2 -0.17,-2.012 -0.16,-2 -0.16,-2 -0.13,-1.996 -0.12,-1.992 -0.11,-1.988 -0.1,-1.989 -0.07,-1.976 -0.07,-1.977 -0.05,-1.968 -0.03,-1.965 -0.02,-1.957 0.01,-1.946 0.04,-1.941 0.03,-1.934 0.07,-1.914 0.1,-1.91 0.11,-1.902 0.15,-1.887 0.16,-1.879 0.2,-1.859 0.22,-1.856 0.25,-1.836 0.28,-1.824 0.3,-1.801 0.34,-1.789 0.37,-1.781 0.4,-1.758 0.44,-1.746 0.47,-1.715 0.51,-1.714 0.54,-1.68 0.58,-1.668 0.62,-1.649 0.66,-1.628 0.69,-1.602 0.73,-1.582 0.77,-1.551 0.83,-1.539 0.85,-1.516 0.92,-1.48 0.94,-1.461 1,-1.441 1.04,-1.418 1.09,-1.383 1.14,-1.352 1.19,-1.328 1.24,-1.297 1.28,-1.277 1.35,-1.238 1.38,-1.211 -1.38,-1.207 -1.35,-1.242 -1.28,-1.274 -1.24,-1.297 -1.19,-1.328 -1.14,-1.363 -1.09,-1.383 -1.04,-1.41 -1,-1.438 -0.94,-1.461 -0.92,-1.484 -0.85,-1.516 -0.83,-1.539 -0.77,-1.558 -0.73,-1.582 -0.69,-1.606 -0.66,-1.625 -0.62,-1.636 -0.58,-1.668 -0.54,-1.696 -0.51,-1.699 -0.47,-1.726 -0.44,-1.735 -0.4,-1.758 -0.37,-1.781 -0.34,-1.793 -0.3,-1.801 -0.28,-1.824 -0.25,-1.832 -0.22,-1.859 -0.2,-1.867 -0.16,-1.868 -0.15,-1.89 -0.11,-1.899 -0.1,-1.914 -0.07,-1.922 -0.03,-1.922 -0.04,-1.945 -0.01,-1.945 0.02,-1.953 0.03,-1.969 0.05,-1.965 0.07,-1.976 0.07,-1.981 0.1,-1.988 0.11,-1.989 0.12,-2 0.13,-1.988 0.16,-2 0.16,-2 0.17,-2.008 0.17,-2 0.19,-2.011 0.19,-2 0.2,-2 0.2,-1.996 0.21,-2 0.22,-2 0.21,-1.989 0.22,-1.988 0.22,-1.988 0.22,-1.981 0.22,-1.965 0.21,-1.968 0.22,-1.965 0.21,-1.945 0.2,-1.946 0.2,-1.941 0.2,-1.926 0.19,-1.91 0.17,-1.91 0.18,-1.891 0.15,-1.879 0.15,-1.879 0.15,-1.855 0.13,-1.848 0.12,-1.824 0.1,-1.824 0.09,-1.789 0.06,-1.793 0.06,-1.766 0.04,-1.75 0.02,-1.734 0,-1.715 -0.02,-1.703 -0.04,-1.668 -0.06,-1.66 -0.08,-1.637 -0.11,-1.613 -0.14,-1.594 -0.15,-1.57 -0.18,-1.551 -0.22,-1.528 -0.24,-1.504 -0.26,-1.472 -0.3,-1.449 -0.32,-1.43 -0.36,-1.395 -0.39,-1.375 -0.42,-1.351 -0.46,-1.305 -0.5,-1.297 -0.52,-1.254 -0.58,-1.23 -0.6,-1.195 -0.64,-1.168 -0.68,-1.129 -0.71,-1.11 -0.77,-1.066 -0.8,-1.035 -0.85,-0.996 -0.89,-0.969 -0.92,-0.934 -0.99,-0.902 -1.02,-0.855 -1.08,-0.825 -1.12,-0.781 -1.17,-0.746 -1.21,-0.703 -1.27,-0.672" /><path
         id="path194"
         style="fill:none;stroke:#000000;stroke-width:3.9849999;stroke-linecap:butt;stroke-linejoin:miter;stroke-miterlimit:10;stroke-dasharray:none;stroke-opacity:1"
         d="m 1377.09,434.418 0.97,0.52 0.93,0.57 0.89,0.605 0.86,0.657 0.82,0.695 0.78,0.734 0.74,0.781 0.71,0.813 0.67,0.855 0.64,0.903 0.6,0.933 0.57,0.965 0.53,1.012 0.51,1.043 0.47,1.09 0.45,1.121 0.41,1.14 0.4,1.188 0.36,1.219 0.33,1.254 0.29,1.285 0.29,1.316 0.25,1.344 0.23,1.383 0.21,1.406 0.19,1.426 0.16,1.465 0.15,1.492 0.12,1.515 0.09,1.54 0.09,1.57 0.07,1.594 0.06,1.613 0.02,1.637 0.02,1.671 0,1.68 -0.01,1.703 -0.03,1.727 -0.03,1.746 -0.05,1.769 -0.07,1.79 -0.07,1.804 -0.08,1.82 -0.08,1.836 -0.11,1.856 -0.1,1.871 -0.11,1.887 -0.12,1.902 -0.12,1.91 -0.13,1.922 -0.13,1.945 -0.12,1.946 -0.15,1.968 -0.13,1.965 -0.13,1.989 -0.13,1.988 -0.14,2 -0.14,2.012 -0.13,2.007 -0.12,2.024 -0.12,2.019 -0.12,2.036 -0.11,2.031 -0.11,2.043 -0.1,2.043 -0.09,2.043 -0.09,2.054 -0.06,2.043 -0.06,2.055 -0.05,2.047 -0.04,2.055 -0.03,2.043 -0.01,2.043 0,2.043 0.01,2.042 0.03,2.032 0.05,2.035 0.06,2.019 0.09,2.024 0.1,2.008 0.12,2 0.15,2 0.15,1.988 0.19,1.976 0.2,1.981 0.24,1.953 0.25,1.945 0.27,1.946 0.31,1.922 0.33,1.914 0.35,1.886 0.39,1.891 0.41,1.855 0.44,1.86 0.47,1.832 0.5,1.812 0.54,1.805 0.56,1.777 0.6,1.77 0.64,1.746 0.66,1.715 0.72,1.703 0.73,1.68 0.77,1.66 0.81,1.637 0.86,1.617 0.89,1.582 0.93,1.558 0.98,1.539 1,1.516 1.06,1.484 1.09,1.45 1.16,1.425 1.18,1.399 1.23,1.371 1.28,1.34 1.32,1.308 1.38,1.274 1.42,1.254 1.46,1.207 -1.46,1.211 -1.42,1.25 -1.38,1.277 -1.32,1.305 -1.28,1.34 -1.23,1.363 -1.18,1.406 -1.16,1.43 -1.09,1.449 -1.06,1.484 -1,1.516 -0.98,1.527 -0.93,1.571 -0.89,1.582 -0.86,1.613 -0.81,1.637 -0.77,1.66 -0.73,1.672 -0.72,1.703 -0.66,1.723 -0.64,1.746 -0.6,1.757 -0.56,1.782 -0.54,1.8 -0.5,1.825 -0.47,1.836 -0.44,1.843 -0.41,1.871 -0.39,1.875 -0.35,1.903 -0.33,1.91 -0.31,1.926 -0.27,1.933 -0.25,1.953 -0.24,1.957 -0.2,1.965 -0.19,1.981 -0.15,1.988 -0.15,1.996 -0.12,2.012 -0.1,2.012 -0.09,2.019 -0.06,2.024 -0.05,2.031 -0.03,2.035 -0.01,2.043 0,2.043 0.01,2.043 0.03,2.043 0.04,2.055 0.05,2.043 0.06,2.054 0.06,2.043 0.09,2.043 0.09,2.055 0.1,2.043 0.11,2.035 0.11,2.043 0.12,2.019 0.12,2.036 0.12,2.019 0.13,2.012 0.14,2.012 0.14,1.996 0.13,1.992 0.13,1.976 0.13,1.977 0.15,1.957 0.12,1.953 0.13,1.934 0.13,1.933 0.12,1.914 0.12,1.899 0.11,1.879 0.1,1.879 0.11,1.847 0.08,1.844 0.08,1.824 0.07,1.801 0.07,1.781 0.05,1.77 0.03,1.746 0.03,1.734 0.01,1.703 0,1.684 -0.02,1.668 -0.02,1.637 -0.06,1.617 -0.07,1.59 -0.09,1.574 -0.09,1.535 -0.12,1.52 -0.15,1.48 -0.16,1.473 -0.19,1.429 -0.21,1.407 -0.23,1.371 -0.25,1.351 -0.29,1.309 -0.29,1.285 -0.33,1.254 -0.36,1.219 -0.4,1.187 -0.41,1.153 -0.45,1.121 -0.47,1.074 -0.51,1.055 -0.53,1.011 -0.57,0.969 -0.6,0.934 -0.64,0.898 -0.67,0.859 -0.71,0.813 -0.74,0.781 -0.78,0.735 -0.82,0.691 -0.86,0.648 -0.89,0.618 -0.93,0.558 -0.97,0.528 1.27,-0.672 1.21,-0.703 1.17,-0.747 1.12,-0.789 1.08,-0.824 1.02,-0.859 0.99,-0.887 0.92,-0.933 0.89,-0.969 0.85,-1 0.8,-1.031 0.77,-1.079 0.71,-1.097 0.68,-1.133 0.64,-1.164 0.6,-1.199 0.58,-1.231 0.52,-1.262 0.5,-1.285 0.46,-1.32 0.42,-1.34 0.39,-1.371 0.36,-1.394 0.32,-1.43 0.3,-1.449 0.26,-1.473 0.24,-1.508 0.22,-1.523 0.18,-1.551 0.15,-1.57 0.14,-1.594 0.11,-1.617 0.08,-1.637 0.06,-1.656 0.04,-1.684 0.02,-1.691 0,-1.711 -0.02,-1.739 -0.04,-1.746 -0.06,-1.769 -0.06,-1.789 -0.09,-1.805 -0.1,-1.812 -0.12,-1.832 -0.13,-1.836 -0.15,-1.868 -0.15,-1.867 -0.15,-1.879 -0.18,-1.902 -0.17,-1.898 -0.19,-1.926 -0.2,-1.922 -0.2,-1.934 -0.2,-1.945 -0.21,-1.953 -0.22,-1.957 -0.21,-1.965 -0.22,-1.969 -0.22,-1.988 -0.22,-1.977 -0.22,-1.988 -0.21,-1.988 -0.22,-2 -0.21,-2 -0.2,-2 -0.2,-2 -0.19,-2.008 -0.19,-2 -0.17,-2 -0.17,-2.012 -0.16,-2 -0.16,-2 -0.13,-1.996 -0.12,-1.992 -0.11,-1.988 -0.1,-1.989 -0.07,-1.976 -0.07,-1.977 -0.05,-1.968 -0.03,-1.965 -0.02,-1.957 0.01,-1.946 0.04,-1.941 0.03,-1.934 0.07,-1.914 0.1,-1.91 0.11,-1.902 0.15,-1.887 0.16,-1.879 0.2,-1.859 0.22,-1.856 0.25,-1.836 0.28,-1.824 0.3,-1.801 0.34,-1.789 0.37,-1.781 0.4,-1.758 0.44,-1.746 0.47,-1.715 0.51,-1.714 0.54,-1.68 0.58,-1.668 0.62,-1.649 0.66,-1.628 0.69,-1.602 0.73,-1.582 0.77,-1.551 0.83,-1.539 0.85,-1.516 0.92,-1.48 0.94,-1.461 1,-1.441 1.04,-1.418 1.09,-1.383 1.14,-1.352 1.19,-1.328 1.24,-1.297 1.28,-1.277 1.35,-1.238 1.38,-1.211 -1.38,-1.207 -1.35,-1.242 -1.28,-1.274 -1.24,-1.297 -1.19,-1.328 -1.14,-1.363 -1.09,-1.383 -1.04,-1.41 -1,-1.438 -0.94,-1.461 -0.92,-1.484 -0.85,-1.516 -0.83,-1.539 -0.77,-1.558 -0.73,-1.582 -0.69,-1.606 -0.66,-1.625 -0.62,-1.636 -0.58,-1.668 -0.54,-1.696 -0.51,-1.699 -0.47,-1.726 -0.44,-1.735 -0.4,-1.758 -0.37,-1.781 -0.34,-1.793 -0.3,-1.801 -0.28,-1.824 -0.25,-1.832 -0.22,-1.859 -0.2,-1.867 -0.16,-1.868 -0.15,-1.89 -0.11,-1.899 -0.1,-1.914 -0.07,-1.922 -0.03,-1.922 -0.04,-1.945 -0.01,-1.945 0.02,-1.953 0.03,-1.969 0.05,-1.965 0.07,-1.976 0.07,-1.981 0.1,-1.988 0.11,-1.989 0.12,-2 0.13,-1.988 0.16,-2 0.16,-2 0.17,-2.008 0.17,-2 0.19,-2.011 0.19,-2 0.2,-2 0.2,-1.996 0.21,-2 0.22,-2 0.21,-1.989 0.22,-1.988 0.22,-1.988 0.22,-1.981 0.22,-1.965 0.21,-1.968 0.22,-1.965 0.21,-1.945 0.2,-1.946 0.2,-1.941 0.2,-1.926 0.19,-1.91 0.17,-1.91 0.18,-1.891 0.15,-1.879 0.15,-1.879 0.15,-1.855 0.13,-1.848 0.12,-1.824 0.1,-1.824 0.09,-1.789 0.06,-1.793 0.06,-1.766 0.04,-1.75 0.02,-1.734 0,-1.715 -0.02,-1.703 -0.04,-1.668 -0.06,-1.66 -0.08,-1.637 -0.11,-1.613 -0.14,-1.594 -0.15,-1.57 -0.18,-1.551 -0.22,-1.528 -0.24,-1.504 -0.26,-1.472 -0.3,-1.449 -0.32,-1.43 -0.36,-1.395 -0.39,-1.375 -0.42,-1.351 -0.46,-1.305 -0.5,-1.297 -0.52,-1.254 -0.58,-1.23 -0.6,-1.195 -0.64,-1.168 -0.68,-1.129 -0.71,-1.11 -0.77,-1.066 -0.8,-1.035 -0.85,-0.996 -0.89,-0.969 -0.92,-0.934 -0.99,-0.902 -1.02,-0.855 -1.08,-0.825 -1.12,-0.781 -1.17,-0.746 -1.21,-0.703 -1.27,-0.672 z" /><g
         transform="matrix(146.4,0,0,-134.4,-23.6652,424.335)"
         id="g196"><rect
           id="rect198"
           style="fill:#ffffff;fill-opacity:1;fill-rule:nonzero"
           transform="matrix(1,0,0,-1,0,1)"
           height="1"
           width="1"
           y="0"
           x="0" /></g><g
         transform="scale(10,10)"
         id="g200"><text
           id="text202"
           style="font-variant:normal;font-weight:normal;font-size:10.90909958px;font-family:CMMI10;-inkscape-font-specification:CMMI10;writing-mode:lr-tb;fill:#000000;fill-opacity:1;fill-rule:nonzero;stroke:none"
           transform="matrix(1,0,0,-1,0.645313,32.0055)"><tspan
             id="tspan204"
             y="0"
             x="0">O</tspan></text>
</g><g
         transform="matrix(122.4,0,0,-106.8,1378.78,424.335)"
         id="g206"><rect
           id="rect208"
           style="fill:#ffffff;fill-opacity:1;fill-rule:nonzero"
           transform="matrix(1,0,0,-1,0,1)"
           height="1"
           width="1"
           y="0"
           x="0" /></g><g
         transform="scale(10,10)"
         id="g210"><text
           id="text212"
           style="font-variant:normal;font-weight:normal;font-size:10.90909958px;font-family:CMMI10;-inkscape-font-specification:CMMI10;writing-mode:lr-tb;fill:#000000;fill-opacity:1;fill-rule:nonzero;stroke:none"
           transform="matrix(1,0,0,-1,140.89,34.7656)"><tspan
             id="tspan214"
             y="0"
             x="0">x</tspan></text>
</g><g
         transform="matrix(117.6,0,0,-128.4,5.13488,1086.36)"
         id="g216"><rect
           id="rect218"
           style="fill:#ffffff;fill-opacity:1;fill-rule:nonzero"
           transform="matrix(1,0,0,-1,0,1)"
           height="1"
           width="1"
           y="0"
           x="0" /></g><g
         transform="scale(10,10)"
         id="g220"><text
           id="text222"
           style="font-variant:normal;font-weight:normal;font-size:10.90909958px;font-family:CMMI10;-inkscape-font-specification:CMMI10;writing-mode:lr-tb;fill:#000000;fill-opacity:1;fill-rule:nonzero;stroke:none"
           transform="matrix(1,0,0,-1,3.52539,100.848)"><tspan
             id="tspan224"
             y="0"
             x="0">y</tspan></text>
</g><path
         id="path226"
         style="fill:none;stroke:#000000;stroke-width:11.95530033;stroke-linecap:butt;stroke-linejoin:miter;stroke-miterlimit:10;stroke-dasharray:none;stroke-opacity:1"
         d="m -0.566406,424.457 1460.586406,0" /><path
         id="path228"
         style="fill:none;stroke:#000000;stroke-width:11.95530033;stroke-linecap:butt;stroke-linejoin:miter;stroke-miterlimit:10;stroke-dasharray:none;stroke-opacity:1"
         d="m 122.855,301.035 0,740.575" /><g
         transform="scale(10,10)"
         id="g230"><text
           id="text232"
           style="font-variant:normal;font-weight:normal;font-size:11.9552002px;font-family:CMCSC10;-inkscape-font-specification:CMCSC10;writing-mode:lr-tb;fill:#000000;fill-opacity:1;fill-rule:nonzero;stroke:none"
           transform="matrix(1,0,0,-1,51.441,0.0890625)"><tspan
             id="tspan234"
             y="0"
             x="0 8.5141897 12.111581 19.790342 28.065218 34.667988 41.270763">Fig.53.</tspan></text>
</g></g></g></svg>