<?xml version="1.0" encoding="UTF-8" standalone="no"?>
<svg
   xmlns:dc="http://purl.org/dc/elements/1.1/"
   xmlns:cc="http://creativecommons.org/ns#"
   xmlns:rdf="http://www.w3.org/1999/02/22-rdf-syntax-ns#"
   xmlns:svg="http://www.w3.org/2000/svg"
   xmlns="http://www.w3.org/2000/svg"
   viewBox="0 0 271.25 238.75"
   height="238.75"
   width="271.25"
   xml:space="preserve"
   version="1.1"
   id="svg2"><metadata
     id="metadata8"><rdf:RDF><cc:Work
         rdf:about=""><dc:format>image/svg+xml</dc:format><dc:type
           rdf:resource="http://purl.org/dc/dcmitype/StillImage" /></cc:Work></rdf:RDF></metadata><defs
     id="defs6"><clipPath
       id="clipPath12"
       clipPathUnits="userSpaceOnUse"><path
         id="path14"
         d="m -2,-2 217,0 0,191 -217,0 0,-191 z" /></clipPath></defs><g
     clip-path="url(#clipPath12)"
     transform="matrix(1.25,0,0,-1.25,2.5,236.25)"
     id="g10"><g
       transform="scale(0.1,0.1)"
       id="g16"><path
         id="path18"
         style="fill:none;stroke:#000000;stroke-width:11.95530033;stroke-linecap:butt;stroke-linejoin:miter;stroke-miterlimit:10;stroke-dasharray:none;stroke-opacity:1"
         d="m 446.5,1773.04 40.84,-144.59 40.836,-117.01 40.847,-96.64 40.836,-81.15 40.836,-69.12 40.84,-59.58 40.836,-51.86 40.836,-45.6 40.836,-40.37 40.848,-36.01 40.836,-32.298 40.828,-29.156 40.847,-26.445 40.838,-24.082 40.83,-22.039 40.84,-20.238 40.84,-18.645 40.84,-17.246 40.84,-15.988 40.83,-14.852 40.83,-13.863 40.85,-12.946 40.84,-12.117 40.84,-11.383 40.83,-10.699 40.84,-10.074 40.85,-9.516 40.82,-8.984 40.84,-8.504 40.85,-8.066 40.83,-7.657 40.84,-7.285 40.84,-6.933 40.83,-6.602 40.85,-6.293 40.83,-6.011 40.83,-5.758 40.85,-5.504 40.84,-5.274 40.83,-5.054" /><path
         id="path20"
         style="fill:none;stroke:#000000;stroke-width:11.95530033;stroke-linecap:butt;stroke-linejoin:miter;stroke-miterlimit:10;stroke-dasharray:none;stroke-opacity:1"
         d="m 595.008,401.602 0,960.008" /><path
         id="path22"
         style="fill:none;stroke:#000000;stroke-width:11.95530033;stroke-linecap:butt;stroke-linejoin:miter;stroke-miterlimit:10;stroke-dasharray:none;stroke-opacity:1"
         d="m 718.758,401.602 0,768.008" /><path
         id="path24"
         style="fill:none;stroke:#000000;stroke-width:11.95530033;stroke-linecap:butt;stroke-linejoin:miter;stroke-miterlimit:10;stroke-dasharray:none;stroke-opacity:1"
         d="m 842.508,401.602 0,640.008" /><path
         id="path26"
         style="fill:none;stroke:#000000;stroke-width:11.95530033;stroke-linecap:butt;stroke-linejoin:miter;stroke-miterlimit:10;stroke-dasharray:none;stroke-opacity:1"
         d="m 966.262,401.602 0,548.574" /><path
         id="path28"
         style="fill:none;stroke:#000000;stroke-width:11.95530033;stroke-linecap:butt;stroke-linejoin:miter;stroke-miterlimit:10;stroke-dasharray:none;stroke-opacity:1"
         d="m 1090.01,401.602 0,480.007" /><path
         id="path30"
         style="fill:none;stroke:#000000;stroke-width:11.95530033;stroke-linecap:butt;stroke-linejoin:miter;stroke-miterlimit:10;stroke-dasharray:none;stroke-opacity:1"
         d="m 1213.77,401.602 0,426.668" /><path
         id="path32"
         style="fill:none;stroke:#000000;stroke-width:11.95530033;stroke-linecap:butt;stroke-linejoin:miter;stroke-miterlimit:10;stroke-dasharray:none;stroke-opacity:1"
         d="m 1337.52,401.602 0,384.007" /><path
         id="path34"
         style="fill:none;stroke:#000000;stroke-width:11.95530033;stroke-linecap:butt;stroke-linejoin:miter;stroke-miterlimit:10;stroke-dasharray:none;stroke-opacity:1"
         d="m 1461.27,401.602 0,349.093" /><path
         id="path36"
         style="fill:none;stroke:#000000;stroke-width:11.95530033;stroke-linecap:butt;stroke-linejoin:miter;stroke-miterlimit:10;stroke-dasharray:none;stroke-opacity:1"
         d="m 1585.02,401.602 0,320" /><path
         id="path38"
         style="fill:none;stroke:#000000;stroke-width:7.97009993;stroke-linecap:butt;stroke-linejoin:miter;stroke-miterlimit:10;stroke-dasharray:none;stroke-opacity:1"
         d="m 100,401.602 0,25.718" /><path
         id="path40"
         style="fill:none;stroke:#000000;stroke-width:7.97009993;stroke-linecap:butt;stroke-linejoin:miter;stroke-miterlimit:10;stroke-dasharray:none;stroke-opacity:1"
         d="m 100,478.746 0,25.711" /><path
         id="path42"
         style="fill:none;stroke:#000000;stroke-width:7.97009993;stroke-linecap:butt;stroke-linejoin:miter;stroke-miterlimit:10;stroke-dasharray:none;stroke-opacity:1"
         d="m 100,504.457 0,25.719" /><path
         id="path44"
         style="fill:none;stroke:#000000;stroke-width:7.97009993;stroke-linecap:butt;stroke-linejoin:miter;stroke-miterlimit:10;stroke-dasharray:none;stroke-opacity:1"
         d="m 100,581.602 0,25.718" /><path
         id="path46"
         style="fill:none;stroke:#000000;stroke-width:7.97009993;stroke-linecap:butt;stroke-linejoin:miter;stroke-miterlimit:10;stroke-dasharray:none;stroke-opacity:1"
         d="m 100,607.32 0,25.711" /><path
         id="path48"
         style="fill:none;stroke:#000000;stroke-width:7.97009993;stroke-linecap:butt;stroke-linejoin:miter;stroke-miterlimit:10;stroke-dasharray:none;stroke-opacity:1"
         d="m 100,684.457 0,25.719" /><path
         id="path50"
         style="fill:none;stroke:#000000;stroke-width:7.97009993;stroke-linecap:butt;stroke-linejoin:miter;stroke-miterlimit:10;stroke-dasharray:none;stroke-opacity:1"
         d="m 100,710.176 0,25.711" /><path
         id="path52"
         style="fill:none;stroke:#000000;stroke-width:7.97009993;stroke-linecap:butt;stroke-linejoin:miter;stroke-miterlimit:10;stroke-dasharray:none;stroke-opacity:1"
         d="m 100,787.324 0,25.707" /><path
         id="path54"
         style="fill:none;stroke:#000000;stroke-width:7.97009993;stroke-linecap:butt;stroke-linejoin:miter;stroke-miterlimit:10;stroke-dasharray:none;stroke-opacity:1"
         d="m 100,813.031 0,25.719" /><path
         id="path56"
         style="fill:none;stroke:#000000;stroke-width:7.97009993;stroke-linecap:butt;stroke-linejoin:miter;stroke-miterlimit:10;stroke-dasharray:none;stroke-opacity:1"
         d="m 100,890.18 0,25.707" /><path
         id="path58"
         style="fill:none;stroke:#000000;stroke-width:7.97009993;stroke-linecap:butt;stroke-linejoin:miter;stroke-miterlimit:10;stroke-dasharray:none;stroke-opacity:1"
         d="m 100,915.887 0,25.718" /><path
         id="path60"
         style="fill:none;stroke:#000000;stroke-width:7.97009993;stroke-linecap:butt;stroke-linejoin:miter;stroke-miterlimit:10;stroke-dasharray:none;stroke-opacity:1"
         d="m 100,993.035 0,25.715" /><path
         id="path62"
         style="fill:none;stroke:#000000;stroke-width:7.97009993;stroke-linecap:butt;stroke-linejoin:miter;stroke-miterlimit:10;stroke-dasharray:none;stroke-opacity:1"
         d="m 100,1018.75 0,25.71" /><path
         id="path64"
         style="fill:none;stroke:#000000;stroke-width:7.97009993;stroke-linecap:butt;stroke-linejoin:miter;stroke-miterlimit:10;stroke-dasharray:none;stroke-opacity:1"
         d="m 100,1095.89 0,25.72" /><path
         id="path66"
         style="fill:none;stroke:#000000;stroke-width:7.97009993;stroke-linecap:butt;stroke-linejoin:miter;stroke-miterlimit:10;stroke-dasharray:none;stroke-opacity:1"
         d="m 100,1121.61 0,25.71" /><path
         id="path68"
         style="fill:none;stroke:#000000;stroke-width:7.97009993;stroke-linecap:butt;stroke-linejoin:miter;stroke-miterlimit:10;stroke-dasharray:none;stroke-opacity:1"
         d="m 100,1198.76 0,25.7" /><path
         id="path70"
         style="fill:none;stroke:#000000;stroke-width:7.97009993;stroke-linecap:butt;stroke-linejoin:miter;stroke-miterlimit:10;stroke-dasharray:none;stroke-opacity:1"
         d="m 100,1224.46 0,25.72" /><path
         id="path72"
         style="fill:none;stroke:#000000;stroke-width:7.97009993;stroke-linecap:butt;stroke-linejoin:miter;stroke-miterlimit:10;stroke-dasharray:none;stroke-opacity:1"
         d="m 100,1301.61 0,25.71" /><path
         id="path74"
         style="fill:none;stroke:#000000;stroke-width:7.97009993;stroke-linecap:butt;stroke-linejoin:miter;stroke-miterlimit:10;stroke-dasharray:none;stroke-opacity:1"
         d="m 100,1327.32 0,25.72" /><path
         id="path76"
         style="fill:none;stroke:#000000;stroke-width:7.97009993;stroke-linecap:butt;stroke-linejoin:miter;stroke-miterlimit:10;stroke-dasharray:none;stroke-opacity:1"
         d="m 100,1404.47 0,25.72" /><path
         id="path78"
         style="fill:none;stroke:#000000;stroke-width:7.97009993;stroke-linecap:butt;stroke-linejoin:miter;stroke-miterlimit:10;stroke-dasharray:none;stroke-opacity:1"
         d="m 100,1430.19 0,25.72" /><path
         id="path80"
         style="fill:none;stroke:#000000;stroke-width:7.97009993;stroke-linecap:butt;stroke-linejoin:miter;stroke-miterlimit:10;stroke-dasharray:none;stroke-opacity:1"
         d="m 100,1507.32 0,25.72" /><path
         id="path82"
         style="fill:none;stroke:#000000;stroke-width:7.97009993;stroke-linecap:butt;stroke-linejoin:miter;stroke-miterlimit:10;stroke-dasharray:none;stroke-opacity:1"
         d="m 100,1533.04 0,25.72" /><path
         id="path84"
         style="fill:none;stroke:#000000;stroke-width:7.97009993;stroke-linecap:butt;stroke-linejoin:miter;stroke-miterlimit:10;stroke-dasharray:none;stroke-opacity:1"
         d="m 100,1610.19 0,25.72" /><path
         id="path86"
         style="fill:none;stroke:#000000;stroke-width:7.97009993;stroke-linecap:butt;stroke-linejoin:miter;stroke-miterlimit:10;stroke-dasharray:none;stroke-opacity:1"
         d="m 100,1635.91 0,25.71" /><path
         id="path88"
         style="fill:none;stroke:#000000;stroke-width:7.97009993;stroke-linecap:butt;stroke-linejoin:miter;stroke-miterlimit:10;stroke-dasharray:none;stroke-opacity:1"
         d="m 100,1713.04 0,25.72" /><path
         id="path90"
         style="fill:none;stroke:#000000;stroke-width:7.97009993;stroke-linecap:butt;stroke-linejoin:miter;stroke-miterlimit:10;stroke-dasharray:none;stroke-opacity:1"
         d="m 100,1738.76 0,25.71" /><path
         id="path92"
         style="fill:none;stroke:#000000;stroke-width:7.97009993;stroke-linecap:butt;stroke-linejoin:miter;stroke-miterlimit:10;stroke-dasharray:none;stroke-opacity:1"
         d="m 100,1815.91 0,25.71" /><g
         transform="matrix(117.6,0,0,-106.8,288.583,277.673)"
         id="g94"><rect
           id="rect96"
           style="fill:#ffffff;fill-opacity:1;fill-rule:nonzero"
           transform="matrix(1,0,0,-1,0,1)"
           height="1"
           width="1"
           y="0"
           x="0" /></g><g
         transform="scale(10,10)"
         id="g98"><text
           id="text100"
           style="font-variant:normal;font-weight:normal;font-size:10.90909958px;font-family:CMMI10;-inkscape-font-specification:CMMI10;writing-mode:lr-tb;fill:#000000;fill-opacity:1;fill-rule:nonzero;stroke:none"
           transform="matrix(1,0,0,-1,31.8703,20.0992)"><tspan
             id="tspan102"
             y="0"
             x="0">a</tspan></text>
</g><path
         id="path104"
         style="fill:#000000;fill-opacity:1;fill-rule:nonzero;stroke:none"
         d="m 120.238,381.977 1.02,-2.403 1.043,-2.332 1.066,-2.23 1.078,-2.141 1.11,-2.066 1.121,-1.989 1.14,-1.898 1.157,-1.824 1.183,-1.739 1.199,-1.667 1.219,-1.594 1.242,-1.528 1.254,-1.449 1.274,-1.387 1.297,-1.304 1.304,-1.254 1.332,-1.188 1.352,-1.109 1.359,-1.066 1.387,-0.989 1.406,-0.945 1.418,-0.879 1.438,-0.824 1.449,-0.777 1.473,-0.715 1.484,-0.672 1.504,-0.613 1.527,-0.571 1.539,-0.527 1.547,-0.485 1.574,-0.441 1.582,-0.394 1.602,-0.364 1.617,-0.316 1.637,-0.285 1.648,-0.242 1.657,-0.223 1.683,-0.176 1.692,-0.152 1.714,-0.121 1.711,-0.098 1.75,-0.066 1.746,-0.055 1.77,-0.024 1.777,0 1.793,0.024 1.813,0.031 1.824,0.055 1.832,0.066 1.848,0.078 1.855,0.086 1.879,0.102 1.891,0.109 1.898,0.121 1.914,0.121 1.934,0.122 1.933,0.128 1.946,0.122 1.965,0.132 1.976,0.121 1.988,0.122 2,0.121 2.012,0.097 2.02,0.102 2.023,0.086 2.043,0.078 2.066,0.066 2.055,0.043 2.074,0.032 2.09,0.011 2.098,0 2.109,-0.031 2.121,-0.047 2.118,-0.074 2.144,-0.102 2.141,-0.129 2.156,-0.168 2.164,-0.183 2.176,-0.223 2.183,-0.25 2.2,-0.297 2.195,-0.32 2.211,-0.371 2.219,-0.406 2.23,-0.442 2.231,-0.492 2.238,-0.539 2.254,-0.582 2.261,-0.629 2.266,-0.68 2.273,-0.734 2.274,-0.781 2.297,-0.836 2.285,-0.903 2.309,-0.941 2.304,-1.012 2.321,-1.078 2.316,-1.129 2.328,-1.199 2.34,-1.254 2.344,-1.328 2.34,-1.394 2.347,-1.473 2.363,-1.539 2.364,-1.613 2.363,-1.684 2.371,-1.758 2.383,-1.844 2.387,-1.921 2.382,-2 2.395,-2.079 2.395,-2.164 2.394,-2.25 2.406,-2.343 2.418,-2.426 2.406,-2.516 2.418,-2.613 2.418,-2.703 2.426,-2.805 2.43,-2.887 2.426,2.887 2.429,2.805 2.418,2.703 2.414,2.613 2.407,2.516 2.418,2.426 2.406,2.343 2.394,2.25 2.395,2.164 2.394,2.079 2.387,2 2.383,1.921 2.383,1.844 2.375,1.758 2.363,1.684 2.359,1.613 2.364,1.539 2.351,1.473 2.34,1.394 2.34,1.328 2.34,1.254 2.328,1.199 2.32,1.129 2.317,1.078 2.308,1.012 2.309,0.941 2.285,0.903 2.293,0.836 2.277,0.781 2.274,0.734 2.261,0.68 2.262,0.629 2.254,0.582 2.242,0.539 2.231,0.492 2.23,0.442 2.219,0.406 2.207,0.371 2.199,0.32 2.196,0.297 2.187,0.25 2.176,0.223 2.164,0.183 2.152,0.168 2.145,0.129 2.14,0.102 2.122,0.074 2.121,0.047 2.109,0.031 2.098,0 2.086,-0.011 2.078,-0.032 2.054,-0.043 2.063,-0.066 2.047,-0.078 2.019,-0.086 2.024,-0.102 2.008,-0.097 2,-0.121 1.988,-0.122 1.976,-0.121 1.969,-0.132 1.945,-0.122 1.934,-0.128 1.934,-0.122 1.91,-0.121 1.902,-0.121 1.891,-0.109 1.875,-0.102 1.859,-0.086 1.844,-0.078 1.836,-0.066 1.824,-0.055 1.813,-0.031 1.789,-0.024 1.781,0 1.769,0.024 1.746,0.055 1.747,0.066 1.714,0.098 1.715,0.121 1.692,0.152 1.679,0.176 1.661,0.223 1.648,0.242 1.637,0.285 1.613,0.316 1.605,0.364 1.582,0.394 1.571,0.441 1.551,0.485 1.535,0.527 1.527,0.571 1.508,0.613 1.48,0.672 1.473,0.715 1.449,0.777 1.442,0.824 1.418,0.879 1.406,0.945 1.383,0.989 1.363,1.066 1.351,1.109 1.329,1.188 1.308,1.254 1.297,1.304 1.274,1.387 1.253,1.449 1.239,1.528 1.222,1.594 1.196,1.667 1.187,1.739 1.153,1.824 1.144,1.898 1.121,1.989 1.109,2.066 1.075,2.141 1.066,2.23 1.043,2.332 1.024,2.403 -1.516,-3.372 -1.527,-3.25 -1.528,-3.132 -1.527,-3.024 -1.539,-2.898 -1.539,-2.789 -1.535,-2.684 -1.551,-2.57 -1.547,-2.461 -1.563,-2.352 -1.558,-2.261 -1.563,-2.153 -1.57,-2.054 -1.57,-1.957 -1.582,-1.856 -1.582,-1.769 -1.582,-1.68 -1.594,-1.582 -1.594,-1.508 -1.601,-1.406 -1.606,-1.328 -1.613,-1.254 -1.617,-1.176 -1.614,-1.086 -1.636,-1.023 -1.629,-0.934 -1.637,-0.879 -1.648,-0.801 -1.645,-0.726 -1.648,-0.668 -1.661,-0.606 -1.668,-0.539 -1.671,-0.48 -1.668,-0.418 -1.684,-0.375 -1.691,-0.309 -1.692,-0.262 -1.703,-0.21 -1.703,-0.165 -1.715,-0.109 -1.723,-0.078 -1.726,-0.02 -1.723,0.012 -1.738,0.055 -1.746,0.086 -1.758,0.121 -1.758,0.152 -1.758,0.188 -1.781,0.211 -1.765,0.242 -1.793,0.262 -1.789,0.296 -1.805,0.309 -1.801,0.328 -1.812,0.34 -1.825,0.363 -1.824,0.375 -1.832,0.383 -1.848,0.395 -1.855,0.41 -1.859,0.406 -1.868,0.406 -1.867,0.407 -1.879,0.418 -1.886,0.406 -1.903,0.406 -1.902,0.395 -1.91,0.394 -1.922,0.375 -1.934,0.375 -1.933,0.348 -1.946,0.332 -1.957,0.316 -1.965,0.297 -1.968,0.277 -1.989,0.25 -1.988,0.231 -1.988,0.199 -2.008,0.164 -2.012,0.145 -2.031,0.097 -2.035,0.067 -2.031,0.031 -2.055,-0.008 -2.066,-0.055 -2.067,-0.089 -2.074,-0.145 -2.09,-0.184 -2.098,-0.242 -2.109,-0.297 -2.121,-0.339 -2.117,-0.399 -2.133,-0.449 -2.152,-0.516 -2.157,-0.582 -2.164,-0.636 -2.171,-0.704 -2.188,-0.769 -2.199,-0.848 -2.196,-0.898 -2.218,-0.988 -2.231,-1.055 -2.23,-1.145 -2.254,-1.207 -2.25,-1.297 -2.277,-1.386 -2.274,-1.461 -2.285,-1.547 -2.305,-1.637 -2.308,-1.726 -2.328,-1.825 -2.329,-1.91 -2.343,-2.011 -2.348,-2.11 -2.375,-2.207 -2.371,-2.32 -2.399,-2.414 -2.394,-2.516 -2.406,-2.637 -2.426,-2.738 -2.43,2.738 -2.406,2.637 -2.395,2.516 -2.394,2.414 -2.375,2.32 -2.371,2.207 -2.352,2.11 -2.34,2.011 -2.328,1.91 -2.332,1.825 -2.304,1.726 -2.309,1.637 -2.285,1.547 -2.274,1.461 -2.273,1.386 -2.254,1.297 -2.25,1.207 -2.23,1.145 -2.231,1.055 -2.219,0.988 -2.199,0.898 -2.195,0.848 -2.188,0.769 -2.175,0.704 -2.165,0.636 -2.152,0.582 -2.156,0.516 -2.129,0.449 -2.121,0.399 -2.121,0.339 -2.11,0.297 -2.097,0.242 -2.086,0.184 -2.078,0.145 -2.067,0.089 -2.062,0.055 -2.055,0.008 -2.035,-0.031 -2.031,-0.067 -2.032,-0.097 -2.011,-0.145 -2.012,-0.164 -1.988,-0.199 -1.989,-0.231 -1.988,-0.25 -1.965,-0.277 -1.968,-0.297 -1.954,-0.316 -1.945,-0.332 -1.933,-0.348 -1.934,-0.375 -1.926,-0.375 -1.91,-0.394 -1.898,-0.395 -1.903,-0.406 -1.89,-0.406 -1.879,-0.418 -1.867,-0.407 -1.868,-0.406 -1.855,-0.406 -1.86,-0.41 -1.843,-0.395 -1.836,-0.383 -1.824,-0.375 -1.825,-0.363 -1.812,-0.34 -1.801,-0.328 -1.801,-0.309 -1.793,-0.296 -1.789,-0.262 -1.769,-0.242 -1.778,-0.211 -1.757,-0.188 -1.762,-0.152 -1.758,-0.121 -1.746,-0.086 -1.734,-0.055 -1.727,-0.012 -1.723,0.02 -1.726,0.078 -1.715,0.109 -1.703,0.165 -1.699,0.21 -1.696,0.262 -1.691,0.309 -1.68,0.375 -1.672,0.418 -1.668,0.48 -1.672,0.539 -1.656,0.606 -1.648,0.668 -1.649,0.726 -1.648,0.801 -1.637,0.879 -1.625,0.934 -1.625,1.023 -1.629,1.086 -1.613,1.176 -1.617,1.254 -1.602,1.328 -1.605,1.406 -1.594,1.508 -1.59,1.582 -1.582,1.68 -1.586,1.769 -1.582,1.856 -1.57,1.957 -1.57,2.054 -1.559,2.153 -1.563,2.261 -1.558,2.352 -1.551,2.461 -1.547,2.57 -1.539,2.684 -1.539,2.789 -1.535,2.898 -1.527,3.024 -1.528,3.132 -1.527,3.25 -1.516,3.372" /><path
         id="path106"
         style="fill:none;stroke:#000000;stroke-width:3.9849999;stroke-linecap:butt;stroke-linejoin:miter;stroke-miterlimit:10;stroke-dasharray:none;stroke-opacity:1"
         d="m 120.238,381.977 1.02,-2.403 1.043,-2.332 1.066,-2.23 1.078,-2.141 1.11,-2.066 1.121,-1.989 1.14,-1.898 1.157,-1.824 1.183,-1.739 1.199,-1.667 1.219,-1.594 1.242,-1.528 1.254,-1.449 1.274,-1.387 1.297,-1.304 1.304,-1.254 1.332,-1.188 1.352,-1.109 1.359,-1.066 1.387,-0.989 1.406,-0.945 1.418,-0.879 1.438,-0.824 1.449,-0.777 1.473,-0.715 1.484,-0.672 1.504,-0.613 1.527,-0.571 1.539,-0.527 1.547,-0.485 1.574,-0.441 1.582,-0.394 1.602,-0.364 1.617,-0.316 1.637,-0.285 1.648,-0.242 1.657,-0.223 1.683,-0.176 1.692,-0.152 1.714,-0.121 1.711,-0.098 1.75,-0.066 1.746,-0.055 1.77,-0.024 1.777,0 1.793,0.024 1.813,0.031 1.824,0.055 1.832,0.066 1.848,0.078 1.855,0.086 1.879,0.102 1.891,0.109 1.898,0.121 1.914,0.121 1.934,0.122 1.933,0.128 1.946,0.122 1.965,0.132 1.976,0.121 1.988,0.122 2,0.121 2.012,0.097 2.02,0.102 2.023,0.086 2.043,0.078 2.066,0.066 2.055,0.043 2.074,0.032 2.09,0.011 2.098,0 2.109,-0.031 2.121,-0.047 2.118,-0.074 2.144,-0.102 2.141,-0.129 2.156,-0.168 2.164,-0.183 2.176,-0.223 2.183,-0.25 2.2,-0.297 2.195,-0.32 2.211,-0.371 2.219,-0.406 2.23,-0.442 2.231,-0.492 2.238,-0.539 2.254,-0.582 2.261,-0.629 2.266,-0.68 2.273,-0.734 2.274,-0.781 2.297,-0.836 2.285,-0.903 2.309,-0.941 2.304,-1.012 2.321,-1.078 2.316,-1.129 2.328,-1.199 2.34,-1.254 2.344,-1.328 2.34,-1.394 2.347,-1.473 2.363,-1.539 2.364,-1.613 2.363,-1.684 2.371,-1.758 2.383,-1.844 2.387,-1.921 2.382,-2 2.395,-2.079 2.395,-2.164 2.394,-2.25 2.406,-2.343 2.418,-2.426 2.406,-2.516 2.418,-2.613 2.418,-2.703 2.426,-2.805 2.43,-2.887 2.426,2.887 2.429,2.805 2.418,2.703 2.414,2.613 2.407,2.516 2.418,2.426 2.406,2.343 2.394,2.25 2.395,2.164 2.394,2.079 2.387,2 2.383,1.921 2.383,1.844 2.375,1.758 2.363,1.684 2.359,1.613 2.364,1.539 2.351,1.473 2.34,1.394 2.34,1.328 2.34,1.254 2.328,1.199 2.32,1.129 2.317,1.078 2.308,1.012 2.309,0.941 2.285,0.903 2.293,0.836 2.277,0.781 2.274,0.734 2.261,0.68 2.262,0.629 2.254,0.582 2.242,0.539 2.231,0.492 2.23,0.442 2.219,0.406 2.207,0.371 2.199,0.32 2.196,0.297 2.187,0.25 2.176,0.223 2.164,0.183 2.152,0.168 2.145,0.129 2.14,0.102 2.122,0.074 2.121,0.047 2.109,0.031 2.098,0 2.086,-0.011 2.078,-0.032 2.054,-0.043 2.063,-0.066 2.047,-0.078 2.019,-0.086 2.024,-0.102 2.008,-0.097 2,-0.121 1.988,-0.122 1.976,-0.121 1.969,-0.132 1.945,-0.122 1.934,-0.128 1.934,-0.122 1.91,-0.121 1.902,-0.121 1.891,-0.109 1.875,-0.102 1.859,-0.086 1.844,-0.078 1.836,-0.066 1.824,-0.055 1.813,-0.031 1.789,-0.024 1.781,0 1.769,0.024 1.746,0.055 1.747,0.066 1.714,0.098 1.715,0.121 1.692,0.152 1.679,0.176 1.661,0.223 1.648,0.242 1.637,0.285 1.613,0.316 1.605,0.364 1.582,0.394 1.571,0.441 1.551,0.485 1.535,0.527 1.527,0.571 1.508,0.613 1.48,0.672 1.473,0.715 1.449,0.777 1.442,0.824 1.418,0.879 1.406,0.945 1.383,0.989 1.363,1.066 1.351,1.109 1.329,1.188 1.308,1.254 1.297,1.304 1.274,1.387 1.253,1.449 1.239,1.528 1.222,1.594 1.196,1.667 1.187,1.739 1.153,1.824 1.144,1.898 1.121,1.989 1.109,2.066 1.075,2.141 1.066,2.23 1.043,2.332 1.024,2.403 -1.516,-3.372 -1.527,-3.25 -1.528,-3.132 -1.527,-3.024 -1.539,-2.898 -1.539,-2.789 -1.535,-2.684 -1.551,-2.57 -1.547,-2.461 -1.563,-2.352 -1.558,-2.261 -1.563,-2.153 -1.57,-2.054 -1.57,-1.957 -1.582,-1.856 -1.582,-1.769 -1.582,-1.68 -1.594,-1.582 -1.594,-1.508 -1.601,-1.406 -1.606,-1.328 -1.613,-1.254 -1.617,-1.176 -1.614,-1.086 -1.636,-1.023 -1.629,-0.934 -1.637,-0.879 -1.648,-0.801 -1.645,-0.726 -1.648,-0.668 -1.661,-0.606 -1.668,-0.539 -1.671,-0.48 -1.668,-0.418 -1.684,-0.375 -1.691,-0.309 -1.692,-0.262 -1.703,-0.21 -1.703,-0.165 -1.715,-0.109 -1.723,-0.078 -1.726,-0.02 -1.723,0.012 -1.738,0.055 -1.746,0.086 -1.758,0.121 -1.758,0.152 -1.758,0.188 -1.781,0.211 -1.765,0.242 -1.793,0.262 -1.789,0.296 -1.805,0.309 -1.801,0.328 -1.812,0.34 -1.825,0.363 -1.824,0.375 -1.832,0.383 -1.848,0.395 -1.855,0.41 -1.859,0.406 -1.868,0.406 -1.867,0.407 -1.879,0.418 -1.886,0.406 -1.903,0.406 -1.902,0.395 -1.91,0.394 -1.922,0.375 -1.934,0.375 -1.933,0.348 -1.946,0.332 -1.957,0.316 -1.965,0.297 -1.968,0.277 -1.989,0.25 -1.988,0.231 -1.988,0.199 -2.008,0.164 -2.012,0.145 -2.031,0.097 -2.035,0.067 -2.031,0.031 -2.055,-0.008 -2.066,-0.055 -2.067,-0.089 -2.074,-0.145 -2.09,-0.184 -2.098,-0.242 -2.109,-0.297 -2.121,-0.339 -2.117,-0.399 -2.133,-0.449 -2.152,-0.516 -2.157,-0.582 -2.164,-0.636 -2.171,-0.704 -2.188,-0.769 -2.199,-0.848 -2.196,-0.898 -2.218,-0.988 -2.231,-1.055 -2.23,-1.145 -2.254,-1.207 -2.25,-1.297 -2.277,-1.386 -2.274,-1.461 -2.285,-1.547 -2.305,-1.637 -2.308,-1.726 -2.328,-1.825 -2.329,-1.91 -2.343,-2.011 -2.348,-2.11 -2.375,-2.207 -2.371,-2.32 -2.399,-2.414 -2.394,-2.516 -2.406,-2.637 -2.426,-2.738 -2.43,2.738 -2.406,2.637 -2.395,2.516 -2.394,2.414 -2.375,2.32 -2.371,2.207 -2.352,2.11 -2.34,2.011 -2.328,1.91 -2.332,1.825 -2.304,1.726 -2.309,1.637 -2.285,1.547 -2.274,1.461 -2.273,1.386 -2.254,1.297 -2.25,1.207 -2.23,1.145 -2.231,1.055 -2.219,0.988 -2.199,0.898 -2.195,0.848 -2.188,0.769 -2.175,0.704 -2.165,0.636 -2.152,0.582 -2.156,0.516 -2.129,0.449 -2.121,0.399 -2.121,0.339 -2.11,0.297 -2.097,0.242 -2.086,0.184 -2.078,0.145 -2.067,0.089 -2.062,0.055 -2.055,0.008 -2.035,-0.031 -2.031,-0.067 -2.032,-0.097 -2.011,-0.145 -2.012,-0.164 -1.988,-0.199 -1.989,-0.231 -1.988,-0.25 -1.965,-0.277 -1.968,-0.297 -1.954,-0.316 -1.945,-0.332 -1.933,-0.348 -1.934,-0.375 -1.926,-0.375 -1.91,-0.394 -1.898,-0.395 -1.903,-0.406 -1.89,-0.406 -1.879,-0.418 -1.867,-0.407 -1.868,-0.406 -1.855,-0.406 -1.86,-0.41 -1.843,-0.395 -1.836,-0.383 -1.824,-0.375 -1.825,-0.363 -1.812,-0.34 -1.801,-0.328 -1.801,-0.309 -1.793,-0.296 -1.789,-0.262 -1.769,-0.242 -1.778,-0.211 -1.757,-0.188 -1.762,-0.152 -1.758,-0.121 -1.746,-0.086 -1.734,-0.055 -1.727,-0.012 -1.723,0.02 -1.726,0.078 -1.715,0.109 -1.703,0.165 -1.699,0.21 -1.696,0.262 -1.691,0.309 -1.68,0.375 -1.672,0.418 -1.668,0.48 -1.672,0.539 -1.656,0.606 -1.648,0.668 -1.649,0.726 -1.648,0.801 -1.637,0.879 -1.625,0.934 -1.625,1.023 -1.629,1.086 -1.613,1.176 -1.617,1.254 -1.602,1.328 -1.605,1.406 -1.594,1.508 -1.59,1.582 -1.582,1.68 -1.586,1.769 -1.582,1.856 -1.57,1.957 -1.57,2.054 -1.559,2.153 -1.563,2.261 -1.558,2.352 -1.551,2.461 -1.547,2.57 -1.539,2.684 -1.539,2.789 -1.535,2.898 -1.527,3.024 -1.528,3.132 -1.527,3.25 -1.516,3.372 z" /><g
         transform="matrix(122.4,0,0,-106.8,1028.69,277.673)"
         id="g108"><rect
           id="rect110"
           style="fill:#ffffff;fill-opacity:1;fill-rule:nonzero"
           transform="matrix(1,0,0,-1,0,1)"
           height="1"
           width="1"
           y="0"
           x="0" /></g><g
         transform="scale(10,10)"
         id="g112"><text
           id="text114"
           style="font-variant:normal;font-weight:normal;font-size:10.90909958px;font-family:CMMI10;-inkscape-font-specification:CMMI10;writing-mode:lr-tb;fill:#000000;fill-opacity:1;fill-rule:nonzero;stroke:none"
           transform="matrix(1,0,0,-1,105.881,20.0992)"><tspan
             id="tspan116"
             y="0"
             x="0">x</tspan></text>
</g><path
         id="path118"
         style="fill:#000000;fill-opacity:1;fill-rule:nonzero;stroke:none"
         d="m 615.242,381.977 1.078,-2.403 1.188,-2.332 1.316,-2.23 1.442,-2.141 1.546,-2.066 1.661,-1.989 1.777,-1.898 1.879,-1.824 2,-1.739 2.098,-1.667 2.211,-1.594 2.304,-1.528 2.418,-1.449 2.504,-1.387 2.617,-1.304 2.703,-1.254 2.801,-1.188 2.891,-1.109 2.976,-1.066 3.067,-0.989 3.152,-0.945 3.238,-0.879 3.321,-0.824 3.406,-0.777 3.48,-0.715 3.563,-0.672 3.625,-0.613 3.711,-0.571 3.781,-0.527 3.844,-0.485 3.91,-0.441 3.988,-0.394 4.043,-0.364 4.11,-0.316 4.164,-0.285 4.23,-0.242 4.285,-0.223 4.328,-0.176 4.395,-0.152 4.437,-0.121 4.497,-0.098 4.535,-0.066 4.582,-0.055 4.625,-0.024 4.672,0 4.699,0.024 4.746,0.031 4.781,0.055 4.821,0.066 4.847,0.078 4.879,0.086 4.91,0.102 4.934,0.109 4.953,0.121 4.977,0.121 5.011,0.122 5.02,0.128 5.031,0.122 5.055,0.132 5.074,0.121 5.078,0.122 5.098,0.121 5.097,0.097 5.098,0.102 5.109,0.086 5.106,0.078 5.121,0.066 5.109,0.043 5.11,0.032 5.097,0.011 5.098,0 5.086,-0.031 5.074,-0.047 5.067,-0.074 5.054,-0.102 5.031,-0.129 5.02,-0.168 4.988,-0.183 4.977,-0.223 4.957,-0.25 4.922,-0.297 4.898,-0.32 4.867,-0.371 4.832,-0.406 4.805,-0.442 4.777,-0.492 4.723,-0.539 4.692,-0.582 4.66,-0.629 4.613,-0.68 4.559,-0.734 4.527,-0.781 4.484,-0.836 4.414,-0.903 4.373,-0.941 4.32,-1.012 4.27,-1.078 4.2,-1.129 4.15,-1.199 4.09,-1.254 4.02,-1.328 3.96,-1.394 3.89,-1.473 3.83,-1.539 3.76,-1.613 3.68,-1.684 3.6,-1.758 3.54,-1.844 3.45,-1.921 3.38,-2 3.28,-2.079 3.23,-2.164 3.13,-2.25 3.03,-2.343 2.94,-2.426 2.87,-2.516 2.77,-2.613 2.67,-2.703 2.58,-2.805 2.47,-2.887 2.47,2.887 2.59,2.805 2.66,2.703 2.77,2.613 2.87,2.516 2.95,2.426 3.03,2.343 3.13,2.25 3.22,2.164 3.28,2.079 3.39,2 3.45,1.921 3.54,1.844 3.6,1.758 3.68,1.684 3.75,1.613 3.83,1.539 3.9,1.473 3.95,1.394 4.03,1.328 4.08,1.254 4.16,1.199 4.19,1.129 4.27,1.078 4.32,1.012 4.38,0.941 4.41,0.903 4.48,0.836 4.53,0.781 4.56,0.734 4.62,0.68 4.65,0.629 4.7,0.582 4.72,0.539 4.78,0.492 4.8,0.442 4.83,0.406 4.87,0.371 4.9,0.32 4.92,0.297 4.96,0.25 4.97,0.223 4.99,0.183 5.02,0.168 5.04,0.129 5.05,0.102 5.06,0.074 5.08,0.047 5.09,0.031 5.09,0 5.1,-0.011 5.11,-0.032 5.11,-0.043 5.12,-0.066 5.11,-0.078 5.11,-0.086 5.1,-0.102 5.09,-0.097 5.1,-0.121 5.07,-0.122 5.08,-0.121 5.05,-0.132 5.03,-0.122 5.03,-0.128 5.01,-0.122 4.97,-0.121 4.96,-0.121 4.94,-0.109 4.9,-0.102 4.88,-0.086 4.85,-0.078 4.82,-0.066 4.78,-0.055 4.74,-0.031 4.71,-0.024 4.66,0 4.63,0.024 4.58,0.055 4.54,0.066 4.49,0.098 4.44,0.121 4.39,0.152 4.34,0.176 4.28,0.223 4.23,0.242 4.16,0.285 4.11,0.316 4.05,0.364 3.97,0.394 3.92,0.441 3.85,0.485 3.78,0.527 3.71,0.571 3.63,0.613 3.56,0.672 3.48,0.715 3.41,0.777 3.31,0.824 3.25,0.879 3.15,0.945 3.07,0.989 2.97,1.066 2.89,1.109 2.8,1.188 2.71,1.254 2.61,1.304 2.5,1.387 2.41,1.449 2.32,1.528 2.21,1.594 2.09,1.667 2,1.739 1.88,1.824 1.78,1.898 1.66,1.989 1.56,2.066 1.43,2.141 1.31,2.23 1.2,2.332 1.07,2.403 -1.57,-3.372 -1.68,-3.25 -1.78,-3.132 -1.88,-3.024 -1.98,-2.898 -2.07,-2.789 -2.18,-2.684 -2.27,-2.57 -2.37,-2.461 -2.46,-2.352 -2.54,-2.261 -2.64,-2.153 -2.73,-2.054 -2.81,-1.957 -2.89,-1.856 -2.98,-1.769 -3.05,-1.68 -3.13,-1.582 -3.21,-1.508 -3.28,-1.406 -3.35,-1.328 -3.44,-1.254 -3.5,-1.176 -3.57,-1.086 -3.63,-1.023 -3.71,-0.934 -3.78,-0.879 -3.82,-0.801 -3.88,-0.726 -3.95,-0.668 -4.01,-0.606 -4.06,-0.539 -4.12,-0.48 -4.16,-0.418 -4.22,-0.375 -4.26,-0.309 -4.32,-0.262 -4.36,-0.21 -4.39,-0.165 -4.45,-0.109 -4.49,-0.078 -4.52,-0.02 -4.56,0.012 -4.61,0.055 -4.62,0.086 -4.67,0.121 -4.69,0.152 -4.73,0.188 -4.74,0.211 -4.79,0.242 -4.81,0.262 -4.82,0.296 -4.84,0.309 -4.86,0.328 -4.89,0.34 -4.89,0.363 -4.91,0.375 -4.92,0.383 -4.93,0.395 -4.96,0.41 -4.94,0.406 -4.95,0.406 -4.98,0.407 -4.96,0.418 -4.96,0.406 -4.97,0.406 -4.95,0.395 -4.97,0.394 -4.96,0.375 -4.94,0.375 -4.93,0.348 -4.93,0.332 -4.91,0.316 -4.91,0.297 -4.87,0.277 -4.87,0.25 -4.85,0.231 -4.83,0.199 -4.8,0.164 -4.79,0.145 -4.76,0.097 -4.72,0.067 -4.7,0.031 -4.67,-0.008 -4.64,-0.055 -4.6,-0.089 -4.57,-0.145 -4.54,-0.184 -4.49,-0.242 -4.45,-0.297 -4.42,-0.339 -4.36,-0.399 -4.33,-0.449 -4.26,-0.516 -4.23,-0.582 -4.18,-0.636 -4.12,-0.704 -4.08,-0.769 -4,-0.848 -3.97,-0.898 -3.89,-0.988 -3.84,-1.055 -3.78,-1.145 -3.72,-1.207 -3.64,-1.297 -3.6,-1.386 -3.5,-1.461 -3.45,-1.547 -3.36,-1.637 -3.31,-1.726 -3.22,-1.825 -3.15,-1.91 -3.07,-2.011 -2.99,-2.11 -2.9,-2.207 -2.83,-2.32 -2.74,-2.414 -2.65,-2.516 -2.57,-2.637 -2.47,-2.738 -2.47,2.738 -2.57,2.637 -2.65,2.516 -2.73,2.414 -2.84,2.32 -2.9,2.207 -2.99,2.11 -3.06,2.011 -3.16,1.91 -3.21,1.825 -3.31,1.726 -3.36,1.637 -3.45,1.547 -3.51,1.461 -3.59,1.386 -3.65,1.297 -3.71,1.207 -3.78,1.145 -3.85,1.055 -3.88,0.988 -3.97,0.898 -4.01,0.848 -4.08,0.769 -4.12,0.704 -4.17,0.636 -4.23,0.582 -4.264,0.516 -4.328,0.449 -4.363,0.399 -4.418,0.339 -4.449,0.297 -4.493,0.242 -4.539,0.184 -4.566,0.145 -4.606,0.089 -4.636,0.055 -4.668,0.008 -4.703,-0.031 -4.723,-0.067 -4.758,-0.097 -4.789,-0.145 -4.801,-0.164 -4.824,-0.199 -4.855,-0.231 -4.868,-0.25 -4.879,-0.277 -4.898,-0.297 -4.914,-0.316 -4.93,-0.332 -4.933,-0.348 -4.946,-0.375 -4.953,-0.375 -4.968,-0.394 -4.954,-0.395 -4.964,-0.406 -4.969,-0.406 -4.953,-0.418 -4.977,-0.407 -4.957,-0.406 -4.941,-0.406 -4.957,-0.41 -4.934,-0.395 -4.922,-0.383 -4.91,-0.375 -4.887,-0.363 -4.89,-0.34 -4.856,-0.328 -4.844,-0.309 -4.835,-0.296 -4.79,-0.262 -4.781,-0.242 -4.754,-0.211 -4.726,-0.188 -4.692,-0.152 -4.668,-0.121 -4.625,-0.086 -4.605,-0.055 -4.559,-0.012 -4.527,0.02 -4.481,0.078 -4.449,0.109 -4.406,0.165 -4.352,0.21 -4.316,0.262 -4.262,0.309 -4.218,0.375 -4.165,0.418 -4.121,0.48 -4.054,0.539 -4.008,0.606 -3.945,0.668 -3.891,0.726 -3.832,0.801 -3.77,0.879 -3.703,0.934 -3.636,1.023 -3.571,1.086 -3.492,1.176 -3.441,1.254 -3.348,1.328 -3.285,1.406 -3.211,1.508 -3.141,1.582 -3.054,1.68 -2.965,1.769 -2.891,1.856 -2.812,1.957 -2.727,2.054 -2.637,2.153 -2.547,2.261 -2.449,2.352 -2.375,2.461 -2.261,2.57 -2.188,2.684 -2.074,2.789 -1.981,2.898 -1.886,3.024 -1.77,3.132 -1.684,3.25 -1.57,3.372" /><path
         id="path120"
         style="fill:none;stroke:#000000;stroke-width:3.9849999;stroke-linecap:butt;stroke-linejoin:miter;stroke-miterlimit:10;stroke-dasharray:none;stroke-opacity:1"
         d="m 615.242,381.977 1.078,-2.403 1.188,-2.332 1.316,-2.23 1.442,-2.141 1.546,-2.066 1.661,-1.989 1.777,-1.898 1.879,-1.824 2,-1.739 2.098,-1.667 2.211,-1.594 2.304,-1.528 2.418,-1.449 2.504,-1.387 2.617,-1.304 2.703,-1.254 2.801,-1.188 2.891,-1.109 2.976,-1.066 3.067,-0.989 3.152,-0.945 3.238,-0.879 3.321,-0.824 3.406,-0.777 3.48,-0.715 3.563,-0.672 3.625,-0.613 3.711,-0.571 3.781,-0.527 3.844,-0.485 3.91,-0.441 3.988,-0.394 4.043,-0.364 4.11,-0.316 4.164,-0.285 4.23,-0.242 4.285,-0.223 4.328,-0.176 4.395,-0.152 4.437,-0.121 4.497,-0.098 4.535,-0.066 4.582,-0.055 4.625,-0.024 4.672,0 4.699,0.024 4.746,0.031 4.781,0.055 4.821,0.066 4.847,0.078 4.879,0.086 4.91,0.102 4.934,0.109 4.953,0.121 4.977,0.121 5.011,0.122 5.02,0.128 5.031,0.122 5.055,0.132 5.074,0.121 5.078,0.122 5.098,0.121 5.097,0.097 5.098,0.102 5.109,0.086 5.106,0.078 5.121,0.066 5.109,0.043 5.11,0.032 5.097,0.011 5.098,0 5.086,-0.031 5.074,-0.047 5.067,-0.074 5.054,-0.102 5.031,-0.129 5.02,-0.168 4.988,-0.183 4.977,-0.223 4.957,-0.25 4.922,-0.297 4.898,-0.32 4.867,-0.371 4.832,-0.406 4.805,-0.442 4.777,-0.492 4.723,-0.539 4.692,-0.582 4.66,-0.629 4.613,-0.68 4.559,-0.734 4.527,-0.781 4.484,-0.836 4.414,-0.903 4.373,-0.941 4.32,-1.012 4.27,-1.078 4.2,-1.129 4.15,-1.199 4.09,-1.254 4.02,-1.328 3.96,-1.394 3.89,-1.473 3.83,-1.539 3.76,-1.613 3.68,-1.684 3.6,-1.758 3.54,-1.844 3.45,-1.921 3.38,-2 3.28,-2.079 3.23,-2.164 3.13,-2.25 3.03,-2.343 2.94,-2.426 2.87,-2.516 2.77,-2.613 2.67,-2.703 2.58,-2.805 2.47,-2.887 2.47,2.887 2.59,2.805 2.66,2.703 2.77,2.613 2.87,2.516 2.95,2.426 3.03,2.343 3.13,2.25 3.22,2.164 3.28,2.079 3.39,2 3.45,1.921 3.54,1.844 3.6,1.758 3.68,1.684 3.75,1.613 3.83,1.539 3.9,1.473 3.95,1.394 4.03,1.328 4.08,1.254 4.16,1.199 4.19,1.129 4.27,1.078 4.32,1.012 4.38,0.941 4.41,0.903 4.48,0.836 4.53,0.781 4.56,0.734 4.62,0.68 4.65,0.629 4.7,0.582 4.72,0.539 4.78,0.492 4.8,0.442 4.83,0.406 4.87,0.371 4.9,0.32 4.92,0.297 4.96,0.25 4.97,0.223 4.99,0.183 5.02,0.168 5.04,0.129 5.05,0.102 5.06,0.074 5.08,0.047 5.09,0.031 5.09,0 5.1,-0.011 5.11,-0.032 5.11,-0.043 5.12,-0.066 5.11,-0.078 5.11,-0.086 5.1,-0.102 5.09,-0.097 5.1,-0.121 5.07,-0.122 5.08,-0.121 5.05,-0.132 5.03,-0.122 5.03,-0.128 5.01,-0.122 4.97,-0.121 4.96,-0.121 4.94,-0.109 4.9,-0.102 4.88,-0.086 4.85,-0.078 4.82,-0.066 4.78,-0.055 4.74,-0.031 4.71,-0.024 4.66,0 4.63,0.024 4.58,0.055 4.54,0.066 4.49,0.098 4.44,0.121 4.39,0.152 4.34,0.176 4.28,0.223 4.23,0.242 4.16,0.285 4.11,0.316 4.05,0.364 3.97,0.394 3.92,0.441 3.85,0.485 3.78,0.527 3.71,0.571 3.63,0.613 3.56,0.672 3.48,0.715 3.41,0.777 3.31,0.824 3.25,0.879 3.15,0.945 3.07,0.989 2.97,1.066 2.89,1.109 2.8,1.188 2.71,1.254 2.61,1.304 2.5,1.387 2.41,1.449 2.32,1.528 2.21,1.594 2.09,1.667 2,1.739 1.88,1.824 1.78,1.898 1.66,1.989 1.56,2.066 1.43,2.141 1.31,2.23 1.2,2.332 1.07,2.403 -1.57,-3.372 -1.68,-3.25 -1.78,-3.132 -1.88,-3.024 -1.98,-2.898 -2.07,-2.789 -2.18,-2.684 -2.27,-2.57 -2.37,-2.461 -2.46,-2.352 -2.54,-2.261 -2.64,-2.153 -2.73,-2.054 -2.81,-1.957 -2.89,-1.856 -2.98,-1.769 -3.05,-1.68 -3.13,-1.582 -3.21,-1.508 -3.28,-1.406 -3.35,-1.328 -3.44,-1.254 -3.5,-1.176 -3.57,-1.086 -3.63,-1.023 -3.71,-0.934 -3.78,-0.879 -3.82,-0.801 -3.88,-0.726 -3.95,-0.668 -4.01,-0.606 -4.06,-0.539 -4.12,-0.48 -4.16,-0.418 -4.22,-0.375 -4.26,-0.309 -4.32,-0.262 -4.36,-0.21 -4.39,-0.165 -4.45,-0.109 -4.49,-0.078 -4.52,-0.02 -4.56,0.012 -4.61,0.055 -4.62,0.086 -4.67,0.121 -4.69,0.152 -4.73,0.188 -4.74,0.211 -4.79,0.242 -4.81,0.262 -4.82,0.296 -4.84,0.309 -4.86,0.328 -4.89,0.34 -4.89,0.363 -4.91,0.375 -4.92,0.383 -4.93,0.395 -4.96,0.41 -4.94,0.406 -4.95,0.406 -4.98,0.407 -4.96,0.418 -4.96,0.406 -4.97,0.406 -4.95,0.395 -4.97,0.394 -4.96,0.375 -4.94,0.375 -4.93,0.348 -4.93,0.332 -4.91,0.316 -4.91,0.297 -4.87,0.277 -4.87,0.25 -4.85,0.231 -4.83,0.199 -4.8,0.164 -4.79,0.145 -4.76,0.097 -4.72,0.067 -4.7,0.031 -4.67,-0.008 -4.64,-0.055 -4.6,-0.089 -4.57,-0.145 -4.54,-0.184 -4.49,-0.242 -4.45,-0.297 -4.42,-0.339 -4.36,-0.399 -4.33,-0.449 -4.26,-0.516 -4.23,-0.582 -4.18,-0.636 -4.12,-0.704 -4.08,-0.769 -4,-0.848 -3.97,-0.898 -3.89,-0.988 -3.84,-1.055 -3.78,-1.145 -3.72,-1.207 -3.64,-1.297 -3.6,-1.386 -3.5,-1.461 -3.45,-1.547 -3.36,-1.637 -3.31,-1.726 -3.22,-1.825 -3.15,-1.91 -3.07,-2.011 -2.99,-2.11 -2.9,-2.207 -2.83,-2.32 -2.74,-2.414 -2.65,-2.516 -2.57,-2.637 -2.47,-2.738 -2.47,2.738 -2.57,2.637 -2.65,2.516 -2.73,2.414 -2.84,2.32 -2.9,2.207 -2.99,2.11 -3.06,2.011 -3.16,1.91 -3.21,1.825 -3.31,1.726 -3.36,1.637 -3.45,1.547 -3.51,1.461 -3.59,1.386 -3.65,1.297 -3.71,1.207 -3.78,1.145 -3.85,1.055 -3.88,0.988 -3.97,0.898 -4.01,0.848 -4.08,0.769 -4.12,0.704 -4.17,0.636 -4.23,0.582 -4.264,0.516 -4.328,0.449 -4.363,0.399 -4.418,0.339 -4.449,0.297 -4.493,0.242 -4.539,0.184 -4.566,0.145 -4.606,0.089 -4.636,0.055 -4.668,0.008 -4.703,-0.031 -4.723,-0.067 -4.758,-0.097 -4.789,-0.145 -4.801,-0.164 -4.824,-0.199 -4.855,-0.231 -4.868,-0.25 -4.879,-0.277 -4.898,-0.297 -4.914,-0.316 -4.93,-0.332 -4.933,-0.348 -4.946,-0.375 -4.953,-0.375 -4.968,-0.394 -4.954,-0.395 -4.964,-0.406 -4.969,-0.406 -4.953,-0.418 -4.977,-0.407 -4.957,-0.406 -4.941,-0.406 -4.957,-0.41 -4.934,-0.395 -4.922,-0.383 -4.91,-0.375 -4.887,-0.363 -4.89,-0.34 -4.856,-0.328 -4.844,-0.309 -4.835,-0.296 -4.79,-0.262 -4.781,-0.242 -4.754,-0.211 -4.726,-0.188 -4.692,-0.152 -4.668,-0.121 -4.625,-0.086 -4.605,-0.055 -4.559,-0.012 -4.527,0.02 -4.481,0.078 -4.449,0.109 -4.406,0.165 -4.352,0.21 -4.316,0.262 -4.262,0.309 -4.218,0.375 -4.165,0.418 -4.121,0.48 -4.054,0.539 -4.008,0.606 -3.945,0.668 -3.891,0.726 -3.832,0.801 -3.77,0.879 -3.703,0.934 -3.636,1.023 -3.571,1.086 -3.492,1.176 -3.441,1.254 -3.348,1.328 -3.285,1.406 -3.211,1.508 -3.141,1.582 -3.054,1.68 -2.965,1.769 -2.891,1.856 -2.812,1.957 -2.727,2.054 -2.637,2.153 -2.547,2.261 -2.449,2.352 -2.375,2.461 -2.261,2.57 -2.188,2.684 -2.074,2.789 -1.981,2.898 -1.886,3.024 -1.77,3.132 -1.684,3.25 -1.57,3.372 z" /><g
         transform="matrix(141.6,0,0,-284.4,341.953,1023.09)"
         id="g122"><rect
           id="rect124"
           style="fill:#ffffff;fill-opacity:1;fill-rule:nonzero"
           transform="matrix(1,0,0,-1,0,1)"
           height="1"
           width="1"
           y="0"
           x="0" /></g><g
         transform="scale(10,10)"
         id="g126"><text
           id="text128"
           style="font-variant:normal;font-weight:normal;font-size:10.90909958px;font-family:CMMI10;-inkscape-font-specification:CMMI10;writing-mode:lr-tb;fill:#000000;fill-opacity:1;fill-rule:nonzero;stroke:none"
           transform="matrix(1,0,0,-1,38.8871,91.7609)"><tspan
             id="tspan130"
             y="0"
             x="0">b</tspan></text>
</g><g
         transform="matrix(58.8,0,0,-4.8,383.953,874.29)"
         id="g132"><rect
           id="rect134"
           style="fill:#000000;fill-opacity:1;fill-rule:nonzero"
           transform="matrix(1,0,0,-1,0,1)"
           height="1"
           width="1"
           y="0"
           x="0" /></g><g
         transform="scale(10,10)"
         id="g136"><text
           id="text138"
           style="font-variant:normal;font-weight:normal;font-size:10.90909958px;font-family:CMMI10;-inkscape-font-specification:CMMI10;writing-mode:lr-tb;fill:#000000;fill-opacity:1;fill-rule:nonzero;stroke:none"
           transform="matrix(1,0,0,-1,38.4074,76.8809)"><tspan
             id="tspan140"
             y="0"
             x="0">a</tspan></text>
</g><path
         id="path142"
         style="fill:#000000;fill-opacity:1;fill-rule:nonzero;stroke:none"
         d="m 574.77,1341.99 -2.485,-1.05 -2.394,-1.15 -2.297,-1.27 -2.219,-1.4 -2.129,-1.5 -2.047,-1.61 -1.953,-1.72 -1.879,-1.84 -1.801,-1.92 -1.726,-2.05 -1.649,-2.14 -1.558,-2.24 -1.508,-2.34 -1.414,-2.43 -1.363,-2.53 -1.286,-2.62 -1.218,-2.71 -1.156,-2.81 -1.086,-2.88 -1.036,-2.98 -0.964,-3.07 -0.903,-3.13 -0.855,-3.22 -0.793,-3.29 -0.746,-3.39 -0.692,-3.45 -0.636,-3.52 -0.594,-3.6 -0.539,-3.65 -0.492,-3.74 -0.454,-3.79 -0.418,-3.87 -0.359,-3.92 -0.332,-3.98 -0.297,-4.04 -0.25,-4.1 -0.222,-4.15 -0.184,-4.21 -0.168,-4.26 -0.121,-4.3 -0.098,-4.36 -0.078,-4.39 -0.043,-4.45 -0.019,-4.49 0,-4.52 0.007,-4.57 0.047,-4.61 0.043,-4.63 0.078,-4.66 0.075,-4.7 0.101,-4.74 0.098,-4.75 0.109,-4.78 0.121,-4.81 0.133,-4.84 0.121,-4.84 0.129,-4.87 0.133,-4.89 0.133,-4.9 0.133,-4.92 0.121,-4.92 0.117,-4.94 0.113,-4.94 0.098,-4.96 0.097,-4.95 0.079,-4.96 0.066,-4.95 0.043,-4.96 0.031,-4.95 0.012,-4.94 0,-4.95 -0.031,-4.93 -0.055,-4.92 -0.078,-4.92 -0.098,-4.89 -0.144,-4.88 -0.153,-4.87 -0.199,-4.84 -0.23,-4.83 -0.262,-4.8 -0.297,-4.77 -0.34,-4.75 -0.375,-4.72 -0.418,-4.69 -0.461,-4.65 -0.515,-4.63 -0.551,-4.59 -0.606,-4.55 -0.648,-4.516 -0.691,-4.472 -0.758,-4.43 -0.813,-4.383 -0.855,-4.34 -0.926,-4.293 -0.977,-4.242 -1.043,-4.187 -1.109,-4.129 -1.164,-4.086 -1.23,-4.024 -1.309,-3.953 -1.363,-3.914 -1.45,-3.832 -1.503,-3.781 -1.594,-3.703 -1.66,-3.645 -1.735,-3.57 -1.812,-3.496 -1.903,-3.426 -1.976,-3.351 -2.067,-3.274 -2.14,-3.199 -2.242,-3.109 -2.317,-3.032 -2.418,-2.945 -2.496,-2.867 -2.601,-2.77 -2.692,-2.679 -2.793,-2.594 -2.879,-2.504 -2.988,-2.395 2.988,-2.406 2.879,-2.492 2.793,-2.594 2.692,-2.691 2.601,-2.77 2.496,-2.855 2.418,-2.957 2.317,-3.02 2.242,-3.121 2.14,-3.195 2.067,-3.274 1.976,-3.351 1.903,-3.418 1.812,-3.504 1.735,-3.57 1.66,-3.637 1.594,-3.715 1.503,-3.777 1.45,-3.836 1.363,-3.899 1.309,-3.968 1.23,-4.02 1.164,-4.078 1.109,-4.141 1.043,-4.183 0.977,-4.242 0.926,-4.286 0.855,-4.339 0.813,-4.383 0.758,-4.438 0.691,-4.472 0.648,-4.504 0.606,-4.559 0.551,-4.582 0.515,-4.625 0.461,-4.672 0.418,-4.68 0.375,-4.722 0.34,-4.746 0.297,-4.782 0.262,-4.8 0.23,-4.821 0.199,-4.847 0.153,-4.867 0.144,-4.879 0.098,-4.899 0.078,-4.91 0.055,-4.922 0.031,-4.933 0,-4.934 -0.012,-4.953 -0.031,-4.957 -0.043,-4.953 -0.066,-4.957 -0.079,-4.953 -0.097,-4.958 -0.098,-4.941 -0.113,-4.945 -0.117,-4.942 -0.121,-4.922 -0.133,-4.914 -0.133,-4.91 -0.133,-4.879 -0.129,-4.875 -0.121,-4.847 -0.133,-4.832 -0.121,-4.801 -0.109,-4.793 -0.098,-4.754 -0.101,-4.738 -0.075,-4.692 -0.078,-4.668 -0.043,-4.636 -0.047,-4.602 -0.007,-4.57 0,-4.528 0.019,-4.484 0.043,-4.437 0.078,-4.407 0.098,-4.347 0.121,-4.309 0.168,-4.262 0.184,-4.207 0.222,-4.144 0.25,-4.098 0.297,-4.043 0.332,-3.988 0.359,-3.922 0.418,-3.855 0.454,-3.801 0.492,-3.727 0.539,-3.668 0.594,-3.594 0.636,-3.527 0.692,-3.449 0.746,-3.371 0.793,-3.297 0.855,-3.231 0.903,-3.128 0.964,-3.067 1.036,-2.976 1.086,-2.891 1.156,-2.801 1.218,-2.715 1.286,-2.613 1.363,-2.527 1.414,-2.438 1.508,-2.344 1.558,-2.238 1.649,-2.144 1.726,-2.032 1.801,-1.933 1.879,-1.836 1.953,-1.723 2.047,-1.605 2.129,-1.504 2.219,-1.395 2.297,-1.277 2.394,-1.152 2.485,-1.043 -3.485,1.527 -3.351,1.625 -3.227,1.727 -3.109,1.82 -3,1.926 -2.868,2.007 -2.769,2.11 -2.649,2.211 -2.539,2.293 -2.425,2.386 -2.328,2.461 -2.219,2.559 -2.121,2.637 -2.024,2.726 -1.91,2.813 -1.824,2.875 -1.734,2.969 -1.641,3.031 -1.535,3.109 -1.461,3.188 -1.375,3.261 -1.285,3.328 -1.207,3.395 -1.133,3.461 -1.043,3.527 -0.969,3.594 -0.898,3.649 -0.825,3.71 -0.757,3.77 -0.696,3.836 -0.613,3.875 -0.562,3.945 -0.493,3.988 -0.441,4.032 -0.371,4.097 -0.332,4.133 -0.262,4.184 -0.219,4.23 -0.168,4.262 -0.117,4.32 -0.078,4.352 -0.023,4.383 0.011,4.425 0.055,4.45 0.09,4.496 0.121,4.523 0.164,4.551 0.187,4.582 0.219,4.613 0.25,4.625 0.278,4.657 0.296,4.683 0.317,4.692 0.34,4.722 0.363,4.735 0.363,4.746 0.387,4.757 0.406,4.778 0.407,4.781 0.406,4.801 0.426,4.801 0.418,4.8 0.429,4.813 0.418,4.812 0.43,4.825 0.414,4.808 0.406,4.813 0.41,4.812 0.383,4.801 0.383,4.793 0.363,4.789 0.34,4.777 0.332,4.758 0.309,4.758 0.285,4.734 0.262,4.727 0.23,4.699 0.211,4.68 0.164,4.66 0.141,4.637 0.113,4.613 0.062,4.582 0.036,4.559 -0.012,4.527 -0.055,4.492 -0.097,4.473 -0.145,4.426 -0.195,4.394 -0.243,4.363 -0.296,4.317 -0.364,4.273 -0.406,4.231 -0.473,4.199 -0.527,4.141 -0.594,4.097 -0.66,4.055 -0.722,4 -0.793,3.941 -0.868,3.891 -0.945,3.844 -1.012,3.781 -1.097,3.723 -1.164,3.66 -1.254,3.601 -1.34,3.539 -1.418,3.485 -1.504,3.406 -1.605,3.34 -1.68,3.262 -1.789,3.195 -1.879,3.133 -1.969,3.054 -2.074,2.977 -2.176,2.891 -2.285,2.82 -2.387,2.738 -2.48,2.656 -2.606,2.575 -2.711,2.48 -2.824,2.406 2.824,2.395 2.711,2.484 2.606,2.571 2.48,2.66 2.387,2.734 2.285,2.824 2.176,2.899 2.074,2.98 1.969,3.043 1.879,3.129 1.789,3.199 1.68,3.274 1.605,3.34 1.504,3.406 1.418,3.469 1.34,3.539 1.254,3.605 1.164,3.656 1.097,3.727 1.012,3.789 0.945,3.832 0.868,3.891 0.793,3.957 0.722,3.996 0.66,4.043 0.594,4.097 0.527,4.145 0.473,4.195 0.406,4.231 0.364,4.285 0.296,4.316 0.243,4.352 0.195,4.394 0.145,4.434 0.097,4.46 0.055,4.5 0.012,4.52 -0.036,4.56 -0.062,4.6 -0.113,4.61 -0.141,4.64 -0.164,4.66 -0.211,4.68 -0.23,4.7 -0.262,4.71 -0.285,4.74 -0.309,4.75 -0.332,4.77 -0.34,4.77 -0.363,4.79 -0.383,4.8 -0.383,4.8 -0.41,4.8 -0.406,4.82 -0.414,4.82 -0.43,4.81 -0.418,4.81 -0.429,4.81 -0.418,4.82 -0.426,4.8 -0.406,4.79 -0.407,4.78 -0.406,4.77 -0.387,4.77 -0.363,4.75 -0.363,4.73 -0.34,4.72 -0.317,4.69 -0.296,4.68 -0.278,4.66 -0.25,4.63 -0.219,4.61 -0.187,4.58 -0.164,4.56 -0.121,4.52 -0.09,4.49 -0.055,4.46 -0.011,4.42 0.023,4.39 0.078,4.35 0.117,4.31 0.168,4.26 0.219,4.23 0.262,4.19 0.332,4.14 0.371,4.08 0.441,4.05 0.493,3.98 0.562,3.94 0.613,3.88 0.696,3.83 0.757,3.77 0.825,3.71 0.898,3.66 0.969,3.58 1.043,3.53 1.133,3.47 1.207,3.38 1.285,3.34 1.375,3.26 1.461,3.18 1.535,3.11 1.641,3.04 1.734,2.96 1.824,2.88 1.91,2.81 2.024,2.73 2.121,2.63 2.219,2.56 2.328,2.47 2.425,2.39 2.539,2.29 2.649,2.2 2.769,2.11 2.868,2.03 3,1.92 3.109,1.82 3.227,1.72 3.351,1.62 3.485,1.53" /><path
         id="path144"
         style="fill:none;stroke:#000000;stroke-width:3.9849999;stroke-linecap:butt;stroke-linejoin:miter;stroke-miterlimit:10;stroke-dasharray:none;stroke-opacity:1"
         d="m 574.77,1341.99 -2.485,-1.05 -2.394,-1.15 -2.297,-1.27 -2.219,-1.4 -2.129,-1.5 -2.047,-1.61 -1.953,-1.72 -1.879,-1.84 -1.801,-1.92 -1.726,-2.05 -1.649,-2.14 -1.558,-2.24 -1.508,-2.34 -1.414,-2.43 -1.363,-2.53 -1.286,-2.62 -1.218,-2.71 -1.156,-2.81 -1.086,-2.88 -1.036,-2.98 -0.964,-3.07 -0.903,-3.13 -0.855,-3.22 -0.793,-3.29 -0.746,-3.39 -0.692,-3.45 -0.636,-3.52 -0.594,-3.6 -0.539,-3.65 -0.492,-3.74 -0.454,-3.79 -0.418,-3.87 -0.359,-3.92 -0.332,-3.98 -0.297,-4.04 -0.25,-4.1 -0.222,-4.15 -0.184,-4.21 -0.168,-4.26 -0.121,-4.3 -0.098,-4.36 -0.078,-4.39 -0.043,-4.45 -0.019,-4.49 0,-4.52 0.007,-4.57 0.047,-4.61 0.043,-4.63 0.078,-4.66 0.075,-4.7 0.101,-4.74 0.098,-4.75 0.109,-4.78 0.121,-4.81 0.133,-4.84 0.121,-4.84 0.129,-4.87 0.133,-4.89 0.133,-4.9 0.133,-4.92 0.121,-4.92 0.117,-4.94 0.113,-4.94 0.098,-4.96 0.097,-4.95 0.079,-4.96 0.066,-4.95 0.043,-4.96 0.031,-4.95 0.012,-4.94 0,-4.95 -0.031,-4.93 -0.055,-4.92 -0.078,-4.92 -0.098,-4.89 -0.144,-4.88 -0.153,-4.87 -0.199,-4.84 -0.23,-4.83 -0.262,-4.8 -0.297,-4.77 -0.34,-4.75 -0.375,-4.72 -0.418,-4.69 -0.461,-4.65 -0.515,-4.63 -0.551,-4.59 -0.606,-4.55 -0.648,-4.516 -0.691,-4.472 -0.758,-4.43 -0.813,-4.383 -0.855,-4.34 -0.926,-4.293 -0.977,-4.242 -1.043,-4.187 -1.109,-4.129 -1.164,-4.086 -1.23,-4.024 -1.309,-3.953 -1.363,-3.914 -1.45,-3.832 -1.503,-3.781 -1.594,-3.703 -1.66,-3.645 -1.735,-3.57 -1.812,-3.496 -1.903,-3.426 -1.976,-3.351 -2.067,-3.274 -2.14,-3.199 -2.242,-3.109 -2.317,-3.032 -2.418,-2.945 -2.496,-2.867 -2.601,-2.77 -2.692,-2.679 -2.793,-2.594 -2.879,-2.504 -2.988,-2.395 2.988,-2.406 2.879,-2.492 2.793,-2.594 2.692,-2.691 2.601,-2.77 2.496,-2.855 2.418,-2.957 2.317,-3.02 2.242,-3.121 2.14,-3.195 2.067,-3.274 1.976,-3.351 1.903,-3.418 1.812,-3.504 1.735,-3.57 1.66,-3.637 1.594,-3.715 1.503,-3.777 1.45,-3.836 1.363,-3.899 1.309,-3.968 1.23,-4.02 1.164,-4.078 1.109,-4.141 1.043,-4.183 0.977,-4.242 0.926,-4.286 0.855,-4.339 0.813,-4.383 0.758,-4.438 0.691,-4.472 0.648,-4.504 0.606,-4.559 0.551,-4.582 0.515,-4.625 0.461,-4.672 0.418,-4.68 0.375,-4.722 0.34,-4.746 0.297,-4.782 0.262,-4.8 0.23,-4.821 0.199,-4.847 0.153,-4.867 0.144,-4.879 0.098,-4.899 0.078,-4.91 0.055,-4.922 0.031,-4.933 0,-4.934 -0.012,-4.953 -0.031,-4.957 -0.043,-4.953 -0.066,-4.957 -0.079,-4.953 -0.097,-4.958 -0.098,-4.941 -0.113,-4.945 -0.117,-4.942 -0.121,-4.922 -0.133,-4.914 -0.133,-4.91 -0.133,-4.879 -0.129,-4.875 -0.121,-4.847 -0.133,-4.832 -0.121,-4.801 -0.109,-4.793 -0.098,-4.754 -0.101,-4.738 -0.075,-4.692 -0.078,-4.668 -0.043,-4.636 -0.047,-4.602 -0.007,-4.57 0,-4.528 0.019,-4.484 0.043,-4.437 0.078,-4.407 0.098,-4.347 0.121,-4.309 0.168,-4.262 0.184,-4.207 0.222,-4.144 0.25,-4.098 0.297,-4.043 0.332,-3.988 0.359,-3.922 0.418,-3.855 0.454,-3.801 0.492,-3.727 0.539,-3.668 0.594,-3.594 0.636,-3.527 0.692,-3.449 0.746,-3.371 0.793,-3.297 0.855,-3.231 0.903,-3.128 0.964,-3.067 1.036,-2.976 1.086,-2.891 1.156,-2.801 1.218,-2.715 1.286,-2.613 1.363,-2.527 1.414,-2.438 1.508,-2.344 1.558,-2.238 1.649,-2.144 1.726,-2.032 1.801,-1.933 1.879,-1.836 1.953,-1.723 2.047,-1.605 2.129,-1.504 2.219,-1.395 2.297,-1.277 2.394,-1.152 2.485,-1.043 -3.485,1.527 -3.351,1.625 -3.227,1.727 -3.109,1.82 -3,1.926 -2.868,2.007 -2.769,2.11 -2.649,2.211 -2.539,2.293 -2.425,2.386 -2.328,2.461 -2.219,2.559 -2.121,2.637 -2.024,2.726 -1.91,2.813 -1.824,2.875 -1.734,2.969 -1.641,3.031 -1.535,3.109 -1.461,3.188 -1.375,3.261 -1.285,3.328 -1.207,3.395 -1.133,3.461 -1.043,3.527 -0.969,3.594 -0.898,3.649 -0.825,3.71 -0.757,3.77 -0.696,3.836 -0.613,3.875 -0.562,3.945 -0.493,3.988 -0.441,4.032 -0.371,4.097 -0.332,4.133 -0.262,4.184 -0.219,4.23 -0.168,4.262 -0.117,4.32 -0.078,4.352 -0.023,4.383 0.011,4.425 0.055,4.45 0.09,4.496 0.121,4.523 0.164,4.551 0.187,4.582 0.219,4.613 0.25,4.625 0.278,4.657 0.296,4.683 0.317,4.692 0.34,4.722 0.363,4.735 0.363,4.746 0.387,4.757 0.406,4.778 0.407,4.781 0.406,4.801 0.426,4.801 0.418,4.8 0.429,4.813 0.418,4.812 0.43,4.825 0.414,4.808 0.406,4.813 0.41,4.812 0.383,4.801 0.383,4.793 0.363,4.789 0.34,4.777 0.332,4.758 0.309,4.758 0.285,4.734 0.262,4.727 0.23,4.699 0.211,4.68 0.164,4.66 0.141,4.637 0.113,4.613 0.062,4.582 0.036,4.559 -0.012,4.527 -0.055,4.492 -0.097,4.473 -0.145,4.426 -0.195,4.394 -0.243,4.363 -0.296,4.317 -0.364,4.273 -0.406,4.231 -0.473,4.199 -0.527,4.141 -0.594,4.097 -0.66,4.055 -0.722,4 -0.793,3.941 -0.868,3.891 -0.945,3.844 -1.012,3.781 -1.097,3.723 -1.164,3.66 -1.254,3.601 -1.34,3.539 -1.418,3.485 -1.504,3.406 -1.605,3.34 -1.68,3.262 -1.789,3.195 -1.879,3.133 -1.969,3.054 -2.074,2.977 -2.176,2.891 -2.285,2.82 -2.387,2.738 -2.48,2.656 -2.606,2.575 -2.711,2.48 -2.824,2.406 2.824,2.395 2.711,2.484 2.606,2.571 2.48,2.66 2.387,2.734 2.285,2.824 2.176,2.899 2.074,2.98 1.969,3.043 1.879,3.129 1.789,3.199 1.68,3.274 1.605,3.34 1.504,3.406 1.418,3.469 1.34,3.539 1.254,3.605 1.164,3.656 1.097,3.727 1.012,3.789 0.945,3.832 0.868,3.891 0.793,3.957 0.722,3.996 0.66,4.043 0.594,4.097 0.527,4.145 0.473,4.195 0.406,4.231 0.364,4.285 0.296,4.316 0.243,4.352 0.195,4.394 0.145,4.434 0.097,4.46 0.055,4.5 0.012,4.52 -0.036,4.56 -0.062,4.6 -0.113,4.61 -0.141,4.64 -0.164,4.66 -0.211,4.68 -0.23,4.7 -0.262,4.71 -0.285,4.74 -0.309,4.75 -0.332,4.77 -0.34,4.77 -0.363,4.79 -0.383,4.8 -0.383,4.8 -0.41,4.8 -0.406,4.82 -0.414,4.82 -0.43,4.81 -0.418,4.81 -0.429,4.81 -0.418,4.82 -0.426,4.8 -0.406,4.79 -0.407,4.78 -0.406,4.77 -0.387,4.77 -0.363,4.75 -0.363,4.73 -0.34,4.72 -0.317,4.69 -0.296,4.68 -0.278,4.66 -0.25,4.63 -0.219,4.61 -0.187,4.58 -0.164,4.56 -0.121,4.52 -0.09,4.49 -0.055,4.46 -0.011,4.42 0.023,4.39 0.078,4.35 0.117,4.31 0.168,4.26 0.219,4.23 0.262,4.19 0.332,4.14 0.371,4.08 0.441,4.05 0.493,3.98 0.562,3.94 0.613,3.88 0.696,3.83 0.757,3.77 0.825,3.71 0.898,3.66 0.969,3.58 1.043,3.53 1.133,3.47 1.207,3.38 1.285,3.34 1.375,3.26 1.461,3.18 1.535,3.11 1.641,3.04 1.734,2.96 1.824,2.88 1.91,2.81 2.024,2.73 2.121,2.63 2.219,2.56 2.328,2.47 2.425,2.39 2.539,2.29 2.649,2.2 2.769,2.11 2.868,2.03 3,1.92 3.109,1.82 3.227,1.72 3.351,1.62 3.485,1.53 z" /><g
         transform="scale(10,10)"
         id="g146"><text
           id="text148"
           style="font-variant:normal;font-weight:normal;font-size:10.90909958px;font-family:CMMI10;-inkscape-font-specification:CMMI10;writing-mode:lr-tb;fill:#000000;fill-opacity:1;fill-rule:nonzero;stroke:none"
           transform="matrix(1,0,0,-1,203.082,28.7352)"><tspan
             id="tspan150"
             y="0"
             x="0">X</tspan><tspan
             id="tspan152"
             y="-151.707"
             x="-139.597">Y</tspan><tspan
             id="tspan154"
             y="7.9699998"
             x="-147.90208">O</tspan></text>
</g><path
         id="path156"
         style="fill:none;stroke:#000000;stroke-width:11.95530033;stroke-linecap:butt;stroke-linejoin:miter;stroke-miterlimit:10;stroke-dasharray:none;stroke-opacity:1"
         d="m 1,401.602 2079.02,0" /><path
         id="path158"
         style="fill:none;stroke:#000000;stroke-width:11.95530033;stroke-linecap:butt;stroke-linejoin:miter;stroke-miterlimit:10;stroke-dasharray:none;stroke-opacity:1"
         d="m 595.008,305.602 0,1536.018" /><g
         transform="scale(10,10)"
         id="g160"><text
           id="text162"
           style="font-variant:normal;font-weight:normal;font-size:11.9552002px;font-family:CMCSC10;-inkscape-font-specification:CMCSC10;writing-mode:lr-tb;fill:#000000;fill-opacity:1;fill-rule:nonzero;stroke:none"
           transform="matrix(1,0,0,-1,86.4414,0.119531)"><tspan
             id="tspan164"
             y="0"
             x="0 8.5141897 12.111581 19.790342 28.065205 34.667984 41.270763">Fig.55.</tspan></text>
</g></g></g></svg>