<?xml version="1.0" encoding="UTF-8" standalone="no"?>
<svg
   xmlns:dc="http://purl.org/dc/elements/1.1/"
   xmlns:cc="http://creativecommons.org/ns#"
   xmlns:rdf="http://www.w3.org/1999/02/22-rdf-syntax-ns#"
   xmlns:svg="http://www.w3.org/2000/svg"
   xmlns="http://www.w3.org/2000/svg"
   viewBox="0 0 142.5 166.25"
   height="166.25"
   width="142.5"
   xml:space="preserve"
   version="1.1"
   id="svg2"><metadata
     id="metadata8"><rdf:RDF><cc:Work
         rdf:about=""><dc:format>image/svg+xml</dc:format><dc:type
           rdf:resource="http://purl.org/dc/dcmitype/StillImage" /></cc:Work></rdf:RDF></metadata><defs
     id="defs6"><clipPath
       id="clipPath12"
       clipPathUnits="userSpaceOnUse"><path
         id="path14"
         d="m -2,-2 114,0 0,133 -114,0 0,-133 z" /></clipPath></defs><g
     clip-path="url(#clipPath12)"
     transform="matrix(1.25,0,0,-1.25,2.5,163.75)"
     id="g10"><g
       transform="scale(0.1,0.1)"
       id="g16"><path
         id="path18"
         style="fill:none;stroke:#000000;stroke-width:11.95530033;stroke-linecap:butt;stroke-linejoin:miter;stroke-miterlimit:10;stroke-dasharray:none;stroke-opacity:1"
         d="m 910.012,741.605 -0.496,18.844 -1.481,18.785 -2.461,18.688 -3.429,18.535 -4.407,18.324 -5.347,18.074 -6.286,17.766 -7.218,17.414 -8.121,17.008 -8.985,16.566 -9.843,16.075 -10.68,15.523 -11.481,14.961 -12.238,14.328 -12.977,13.668 -13.667,12.976 -14.325,12.24 -14.965,11.48 -15.523,10.68 -16.074,9.84 -16.567,8.99 -17.007,8.12 -17.414,7.21 -17.766,6.29 -18.07,5.35 -18.325,4.41 -18.535,3.42 -18.687,2.46 -18.789,1.49 -18.84,0.49 -18.844,-0.49 -18.785,-1.49 -18.688,-2.46 -18.535,-3.42 -18.324,-4.41 -18.074,-5.35 -17.766,-6.29 -17.414,-7.21 -17.008,-8.12 -16.566,-8.99 -16.074,-9.84 -15.535,-10.68 -14.95,-11.48 -14.328,-12.24 -13.668,-12.976 -12.972,-13.668 -12.25,-14.328 -11.473,-14.961 -10.676,-15.523 -9.844,-16.075 -8.988,-16.566 -8.121,-17.008 -7.215,-17.414 -6.285,-17.766 -5.352,-18.074 -4.406,-18.324 -3.437,-18.535 -2.45,-18.688 -1.484,-18.785 -0.492,-18.844 0.492,-18.839 1.484,-18.789 2.45,-18.688 3.437,-18.531 4.406,-18.328 5.352,-18.071 6.285,-17.765 7.215,-17.414 8.121,-17.008 8.988,-16.567 9.844,-16.074 10.676,-15.535 11.473,-14.953 12.25,-14.324 12.972,-13.668 13.668,-12.977 14.328,-12.25 14.95,-11.469 15.535,-10.679 16.074,-9.844 16.566,-8.984 17.008,-8.121 17.414,-7.219 17.766,-6.285 18.074,-5.348 18.324,-4.406 18.535,-3.438 18.688,-2.453 18.785,-1.48 18.844,-0.496 18.84,0.496 18.789,1.48 18.687,2.453 18.535,3.438 18.325,4.406 18.07,5.348 17.766,6.285 17.414,7.219 17.007,8.121 16.567,8.984 16.074,9.844 15.523,10.679 14.965,11.469 14.325,12.25 13.667,12.977 12.977,13.668 12.238,14.324 11.481,14.953 10.68,15.535 9.843,16.074 8.985,16.567 8.121,17.008 7.218,17.414 6.286,17.765 5.347,18.071 4.407,18.328 3.429,18.531 2.461,18.688 1.481,18.789 0.496,18.839 z" /><path
         id="path20"
         style="fill:none;stroke:#000000;stroke-width:11.95530033;stroke-linecap:butt;stroke-linejoin:miter;stroke-miterlimit:10;stroke-dasharray:none;stroke-opacity:1"
         d="m 1090.02,741.605 -0.75,28.258 -2.21,28.192 -3.69,28.027 -5.16,27.797 -6.6,27.488 -8.03,27.113 -9.43,26.653 -10.82,26.117 -12.18,25.508 -13.48,24.852 -14.78,24.1 -16.007,23.31 -17.215,22.42 -18.359,21.5 -19.457,20.51 -20.512,19.46 -21.5,18.36 -22.422,17.21 -23.305,16.01 -24.101,14.78 -24.852,13.48 -25.512,12.18 -26.113,10.82 -26.656,9.43 -27.113,8.03 -27.489,6.6 -27.797,5.16 -28.023,3.69 -28.191,2.21 -28.258,0.74 -28.258,-0.74 -28.191,-2.21 -28.028,-3.69 -27.797,-5.16 -27.488,-6.6 -27.113,-8.03 -26.653,-9.43 -26.117,-10.82 -25.519,-12.18 -24.84,-13.48 -24.106,-14.78 -23.3,-16.01 -22.426,-17.21 -21.5,-18.36 -20.512,-19.46 -19.457,-20.51 -18.359,-21.5 -17.215,-22.42 -16.0079,-23.31 -14.7773,-24.1 L 68.8555,986.758 56.6797,961.25 45.8711,935.133 36.4336,908.48 28.4023,881.367 21.8008,853.879 16.6484,826.082 12.957,798.055 10.7344,769.863 10,741.605 l 0.7344,-28.257 2.2226,-28.188 3.6914,-28.027 5.1524,-27.797 6.6015,-27.488 8.0313,-27.114 9.4375,-26.652 10.8086,-26.117 12.1758,-25.52 13.4883,-24.843 14.7773,-24.102 16.0079,-23.305 17.215,-22.422 18.359,-21.5 19.457,-20.511 20.512,-19.457 21.5,-18.36 22.426,-17.215 23.3,-16.007 24.106,-14.778 24.84,-13.492 25.519,-12.172 26.117,-10.812 26.653,-9.434 27.113,-8.031 27.488,-6.606 27.797,-5.152 28.028,-3.691 28.191,-2.219 28.258,-0.734 28.258,0.734 28.191,2.219 28.023,3.691 27.797,5.152 27.489,6.606 27.113,8.031 26.656,9.434 26.113,10.812 25.512,12.172 24.852,13.492 24.101,14.778 23.305,16.007 22.422,17.215 21.5,18.36 20.512,19.457 19.457,20.511 18.359,21.5 17.215,22.422 16.007,23.305 14.78,24.102 13.48,24.843 12.18,25.52 10.82,26.117 9.43,26.652 8.03,27.114 6.6,27.488 5.16,27.797 3.69,28.027 2.21,28.188 0.75,28.257 z" /><path
         id="path22"
         style="fill:none;stroke:#000000;stroke-width:11.95530033;stroke-linecap:butt;stroke-linejoin:miter;stroke-miterlimit:10;stroke-dasharray:none;stroke-opacity:1"
         d="m 550.008,741.605 360.004,0" /><path
         id="path24"
         style="fill:#000000;fill-opacity:1;fill-rule:nonzero;stroke:none"
         d="m 900.672,741.605 -28.027,-24.906 37.367,24.906 -37.367,24.907 28.027,-24.907" /><path
         id="path26"
         style="fill:none;stroke:#000000;stroke-width:11.95530033;stroke-linecap:butt;stroke-linejoin:miter;stroke-miterlimit:10;stroke-dasharray:none;stroke-opacity:1"
         d="m 900.672,741.605 -28.027,-24.906 37.367,24.906 -37.367,24.907 28.027,-24.907 z" /><path
         id="path28"
         style="fill:none;stroke:#000000;stroke-width:11.95530033;stroke-linecap:butt;stroke-linejoin:miter;stroke-miterlimit:10;stroke-dasharray:none;stroke-opacity:1"
         d="m 550.008,741.605 413.66,347.105" /><path
         id="path30"
         style="fill:#000000;fill-opacity:1;fill-rule:nonzero;stroke:none"
         d="m 956.527,1082.71 -5.461,-37.09 12.602,43.09 -44.625,-4.93 37.484,-1.07" /><path
         id="path32"
         style="fill:none;stroke:#000000;stroke-width:11.95530033;stroke-linecap:butt;stroke-linejoin:miter;stroke-miterlimit:10;stroke-dasharray:none;stroke-opacity:1"
         d="m 956.527,1082.71 -5.461,-37.09 12.602,43.09 -44.625,-4.93 37.484,-1.07 z" /><g
         transform="scale(10,10)"
         id="g34"><text
           id="text36"
           style="font-variant:normal;font-weight:normal;font-size:10.90909958px;font-family:CMMI10;-inkscape-font-specification:CMMI10;writing-mode:lr-tb;fill:#000000;fill-opacity:1;fill-rule:nonzero;stroke:none"
           transform="matrix(1,0,0,-1,67.9609,65.4957)"><tspan
             id="tspan38"
             y="0"
             x="0">r</tspan></text>
<text
           id="text40"
           style="font-variant:normal;font-weight:normal;font-size:8.96638012px;font-family:CMR9;-inkscape-font-specification:CMR9;writing-mode:lr-tb;fill:#000000;fill-opacity:1;fill-rule:nonzero;stroke:none"
           transform="matrix(1,0,0,-1,72.88082,63.45586)"><tspan
             id="tspan42"
             y="0"
             x="0">1</tspan></text>
<text
           id="text44"
           style="font-variant:normal;font-weight:normal;font-size:10.90909863px;font-family:CMMI10;-inkscape-font-specification:CMMI10;writing-mode:lr-tb;fill:#000000;fill-opacity:1;fill-rule:nonzero;stroke:none"
           transform="matrix(0.766044,0.642788,0.642788,-0.766044,70.691,93.0762)"><tspan
             id="tspan46"
             y="0"
             x="0">r</tspan></text>
<text
           id="text48"
           style="font-variant:normal;font-weight:normal;font-size:8.96637917px;font-family:CMR9;-inkscape-font-specification:CMR9;writing-mode:lr-tb;fill:#000000;fill-opacity:1;fill-rule:nonzero;stroke:none"
           transform="matrix(0.766044,0.642788,0.642788,-0.766044,75.7711,94.6758)"><tspan
             id="tspan50"
             y="0"
             x="0">2</tspan></text>
<text
           id="text52"
           style="font-variant:normal;font-weight:normal;font-size:11.9552002px;font-family:CMCSC10;-inkscape-font-specification:CMCSC10;writing-mode:lr-tb;fill:#000000;fill-opacity:1;fill-rule:nonzero;stroke:none"
           transform="matrix(1,0,0,-1,32.4406,0.0445313)"><tspan
             id="tspan54"
             y="0"
             x="0 8.514184 12.111577 19.790333 28.065208 34.66798 41.270752">Fig.56.</tspan></text>
</g></g></g></svg>