<?xml version="1.0" encoding="UTF-8" standalone="no"?>
<svg
   xmlns:dc="http://purl.org/dc/elements/1.1/"
   xmlns:cc="http://creativecommons.org/ns#"
   xmlns:rdf="http://www.w3.org/1999/02/22-rdf-syntax-ns#"
   xmlns:svg="http://www.w3.org/2000/svg"
   xmlns="http://www.w3.org/2000/svg"
   viewBox="0 0 232.5 181.25"
   height="181.25"
   width="232.5"
   xml:space="preserve"
   version="1.1"
   id="svg2"><metadata
     id="metadata8"><rdf:RDF><cc:Work
         rdf:about=""><dc:format>image/svg+xml</dc:format><dc:type
           rdf:resource="http://purl.org/dc/dcmitype/StillImage" /></cc:Work></rdf:RDF></metadata><defs
     id="defs6"><clipPath
       id="clipPath12"
       clipPathUnits="userSpaceOnUse"><path
         id="path14"
         d="m -2,-2 186,0 0,145 -186,0 0,-145 z" /></clipPath></defs><g
     clip-path="url(#clipPath12)"
     transform="matrix(1.25,0,0,-1.25,2.5,178.75)"
     id="g10"><g
       transform="scale(0.1,0.1)"
       id="g16"><path
         id="path18"
         style="fill:none;stroke:#000000;stroke-width:11.95530033;stroke-linecap:butt;stroke-linejoin:miter;stroke-miterlimit:10;stroke-dasharray:none;stroke-opacity:1"
         d="m 170,1185.61 37.969,-39.56 37.969,-37.76 37.968,-36.02 37.969,-34.38 37.973,-32.8 37.968,-31.301 37.969,-29.859 37.969,-28.5 37.969,-27.203 37.968,-25.938 37.969,-24.766 37.969,-23.621 37.973,-22.543 37.968,-21.511 37.969,-20.536 37.969,-19.585 37.969,-18.688 37.968,-17.832 37.969,-17.019 37.969,-16.239 37.972,-15.488 37.965,-14.789 37.97,-14.106 37.97,-13.461 37.97,-12.843 37.97,-12.258 37.97,-11.703 37.97,-11.149 37.97,-10.66 37.97,-10.16 37.97,-9.691 37.97,-9.25 37.96,-8.832 37.97,-8.43 37.97,-8.031 37.97,-7.668 37.97,-7.328 37.97,-6.977 37.97,-6.668 37.97,-6.359" /><path
         id="path20"
         style="fill:none;stroke:#000000;stroke-width:11.95530033;stroke-linecap:butt;stroke-linejoin:miter;stroke-miterlimit:10;stroke-dasharray:none;stroke-opacity:1"
         d="m 170,321.602 0,864.008" /><path
         id="path22"
         style="fill:none;stroke:#000000;stroke-width:11.95530033;stroke-linecap:butt;stroke-linejoin:miter;stroke-miterlimit:10;stroke-dasharray:none;stroke-opacity:1"
         d="m 232.305,321.602 0,800.028" /><path
         id="path24"
         style="fill:none;stroke:#000000;stroke-width:11.95530033;stroke-linecap:butt;stroke-linejoin:miter;stroke-miterlimit:10;stroke-dasharray:none;stroke-opacity:1"
         d="m 294.621,321.602 0,740.808" /><path
         id="path26"
         style="fill:none;stroke:#000000;stroke-width:11.95530033;stroke-linecap:butt;stroke-linejoin:miter;stroke-miterlimit:10;stroke-dasharray:none;stroke-opacity:1"
         d="m 356.922,321.602 0,685.958" /><path
         id="path28"
         style="fill:none;stroke:#000000;stroke-width:11.95530033;stroke-linecap:butt;stroke-linejoin:miter;stroke-miterlimit:10;stroke-dasharray:none;stroke-opacity:1"
         d="m 419.238,321.602 0,635.168" /><path
         id="path30"
         style="fill:none;stroke:#000000;stroke-width:11.95530033;stroke-linecap:butt;stroke-linejoin:miter;stroke-miterlimit:10;stroke-dasharray:none;stroke-opacity:1"
         d="m 481.543,321.602 0,588.136" /><path
         id="path32"
         style="fill:none;stroke:#000000;stroke-width:11.95530033;stroke-linecap:butt;stroke-linejoin:miter;stroke-miterlimit:10;stroke-dasharray:none;stroke-opacity:1"
         d="m 543.848,321.602 0,544.597" /><path
         id="path34"
         style="fill:none;stroke:#000000;stroke-width:11.95530033;stroke-linecap:butt;stroke-linejoin:miter;stroke-miterlimit:10;stroke-dasharray:none;stroke-opacity:1"
         d="m 606.164,321.602 0,504.277" /><path
         id="path36"
         style="fill:none;stroke:#000000;stroke-width:11.95530033;stroke-linecap:butt;stroke-linejoin:miter;stroke-miterlimit:10;stroke-dasharray:none;stroke-opacity:1"
         d="m 668.469,321.602 0,466.933" /><path
         id="path38"
         style="fill:none;stroke:#000000;stroke-width:11.95530033;stroke-linecap:butt;stroke-linejoin:miter;stroke-miterlimit:10;stroke-dasharray:none;stroke-opacity:1"
         d="m 730.77,321.602 0,432.371" /><path
         id="path40"
         style="fill:none;stroke:#000000;stroke-width:11.95530033;stroke-linecap:butt;stroke-linejoin:miter;stroke-miterlimit:10;stroke-dasharray:none;stroke-opacity:1"
         d="m 793.086,321.602 0,400.355" /><path
         id="path42"
         style="fill:none;stroke:#000000;stroke-width:11.95530033;stroke-linecap:butt;stroke-linejoin:miter;stroke-miterlimit:10;stroke-dasharray:none;stroke-opacity:1"
         d="m 855.391,321.602 0,370.714" /><path
         id="path44"
         style="fill:none;stroke:#000000;stroke-width:11.95530033;stroke-linecap:butt;stroke-linejoin:miter;stroke-miterlimit:10;stroke-dasharray:none;stroke-opacity:1"
         d="m 917.707,321.602 0,343.269" /><path
         id="path46"
         style="fill:none;stroke:#000000;stroke-width:11.95530033;stroke-linecap:butt;stroke-linejoin:miter;stroke-miterlimit:10;stroke-dasharray:none;stroke-opacity:1"
         d="m 980.012,321.602 0,317.847" /><g
         transform="matrix(117.6,0,0,-106.8,516.085,209.56)"
         id="g48"><rect
           id="rect50"
           style="fill:#ffffff;fill-opacity:1;fill-rule:nonzero"
           transform="matrix(1,0,0,-1,0,1)"
           height="1"
           width="1"
           y="0"
           x="0" /></g><g
         transform="scale(10,10)"
         id="g52"><text
           id="text54"
           style="font-variant:normal;font-weight:normal;font-size:10.90909958px;font-family:CMMI10;-inkscape-font-specification:CMMI10;writing-mode:lr-tb;fill:#000000;fill-opacity:1;fill-rule:nonzero;stroke:none"
           transform="matrix(1,0,0,-1,54.6203,13.2879)"><tspan
             id="tspan56"
             y="0"
             x="0">a</tspan></text>
</g><path
         id="path58"
         style="fill:#000000;fill-opacity:1;fill-rule:nonzero;stroke:none"
         d="m 189.305,301.012 1.007,-2.528 1.102,-2.437 1.184,-2.34 1.277,-2.254 1.352,-2.164 1.437,-2.078 1.527,-1.996 1.606,-1.914 1.68,-1.836 1.757,-1.746 1.836,-1.68 1.91,-1.594 1.989,-1.515 2.054,-1.45 2.133,-1.386 2.207,-1.305 2.274,-1.242 2.328,-1.176 2.406,-1.109 2.473,-1.043 2.539,-0.992 2.594,-0.922 2.656,-0.867 2.715,-0.801 2.769,-0.758 2.832,-0.703 2.891,-0.649 2.945,-0.605 3,-0.551 3.043,-0.504 3.098,-0.461 3.14,-0.418 3.2,-0.375 3.238,-0.34 3.297,-0.296 3.328,-0.25 3.375,-0.231 3.414,-0.187 3.453,-0.164 3.492,-0.122 3.539,-0.101 3.571,-0.074 3.601,-0.055 3.637,-0.023 3.672,0 3.687,0.023 3.739,0.031 3.757,0.055 3.778,0.066 3.812,0.086 3.836,0.09 3.856,0.109 3.879,0.11 3.898,0.133 3.922,0.121 3.945,0.133 3.946,0.128 3.976,0.133 3.977,0.145 4,0.121 3.996,0.129 4.023,0.121 4.02,0.109 4.031,0.114 4.043,0.085 4.043,0.079 4.043,0.066 4.055,0.055 4.043,0.031 4.054,0.012 4.043,-0.012 4.043,-0.02 4.043,-0.058 4.031,-0.074 4.024,-0.11 4.019,-0.133 4.012,-0.164 4,-0.199 3.977,-0.242 3.976,-0.262 3.953,-0.308 3.946,-0.34 3.921,-0.387 3.903,-0.426 3.875,-0.472 3.867,-0.508 3.836,-0.57 3.812,-0.606 3.789,-0.656 3.77,-0.715 3.734,-0.77 3.704,-0.824 3.668,-0.879 3.648,-0.933 3.605,-1 3.582,-1.067 3.536,-1.121 3.503,-1.183 3.461,-1.254 3.418,-1.328 3.383,-1.399 3.34,-1.461 3.297,-1.535 3.254,-1.617 3.195,-1.692 3.164,-1.769 3.098,-1.844 3.066,-1.933 3,-2.012 2.953,-2.098 2.891,-2.187 2.844,-2.274 2.793,-2.363 2.722,-2.449 2.672,-2.551 2.602,-2.637 2.539,-2.746 2.484,-2.832 2.414,-2.933 2.352,-3.043 2.351,3.043 2.418,2.933 2.485,2.832 2.535,2.746 2.605,2.637 2.668,2.551 2.727,2.449 2.789,2.363 2.848,2.274 2.886,2.187 2.957,2.098 3,2.012 3.063,1.933 3.102,1.844 3.164,1.769 3.195,1.692 3.25,1.617 3.297,1.535 3.34,1.461 3.386,1.399 3.414,1.328 3.461,1.254 3.504,1.183 3.539,1.121 3.582,1.067 3.602,1 3.648,0.933 3.672,0.879 3.699,0.824 3.739,0.77 3.765,0.715 3.793,0.656 3.813,0.606 3.832,0.57 3.867,0.508 3.879,0.472 3.898,0.426 3.926,0.387 3.942,0.34 3.957,0.308 3.976,0.262 3.977,0.242 4,0.199 4.007,0.164 4.024,0.133 4.019,0.11 4.032,0.074 4.043,0.058 4.043,0.02 4.043,0.012 4.054,-0.012 4.043,-0.031 4.055,-0.055 4.043,-0.066 4.043,-0.079 4.043,-0.085 4.031,-0.114 4.024,-0.109 4.019,-0.121 4,-0.129 4,-0.121 3.977,-0.145 3.976,-0.133 3.946,-0.128 3.941,-0.133 3.922,-0.121 3.902,-0.133 3.879,-0.11 3.856,-0.109 3.832,-0.09 3.812,-0.086 3.781,-0.066 3.758,-0.055 3.735,-0.031 3.691,-0.023 3.668,0 3.637,0.023 3.605,0.055 3.57,0.074 3.539,0.101 3.493,0.122 3.449,0.164 3.418,0.187 3.371,0.231 3.328,0.25 3.297,0.296 3.242,0.34 3.195,0.375 3.145,0.418 3.098,0.461 3.054,0.504 2.989,0.551 2.945,0.605 2.887,0.649 2.836,0.703 2.769,0.758 2.723,0.801 2.66,0.867 2.582,0.922 2.535,0.992 2.473,1.043 2.406,1.109 2.34,1.176 2.265,1.242 2.207,1.305 2.133,1.386 2.055,1.45 1.988,1.515 1.91,1.594 1.836,1.68 1.758,1.746 1.692,1.836 1.593,1.914 1.528,1.996 1.437,2.078 1.352,2.164 1.273,2.254 1.188,2.34 1.097,2.437 1.012,2.528 -1.484,-3.539 -1.559,-3.414 -1.625,-3.286 -1.703,-3.164 -1.77,-3.043 -1.836,-2.933 -1.898,-2.813 -1.98,-2.691 -2.032,-2.582 -2.097,-2.473 -2.164,-2.375 -2.219,-2.25 -2.285,-2.156 -2.34,-2.051 -2.406,-1.957 -2.461,-1.855 -2.516,-1.758 -2.574,-1.672 -2.613,-1.57 -2.68,-1.485 -2.727,-1.394 -2.777,-1.309 -2.836,-1.23 -2.867,-1.141 -2.922,-1.066 -2.977,-0.989 -3.011,-0.914 -3.067,-0.843 -3.097,-0.77 -3.141,-0.703 -3.188,-0.625 -3.218,-0.574 -3.262,-0.504 -3.297,-0.442 -3.34,-0.382 -3.371,-0.329 -3.398,-0.277 -3.438,-0.219 -3.472,-0.164 -3.493,-0.121 -3.527,-0.078 -3.559,-0.031 -3.582,0.012 -3.613,0.054 -3.637,0.086 -3.66,0.133 -3.679,0.164 -3.704,0.199 -3.722,0.219 -3.738,0.254 -3.766,0.285 -3.781,0.297 -3.789,0.328 -3.813,0.34 -3.824,0.363 -3.832,0.387 -3.848,0.383 -3.867,0.406 -3.867,0.418 -3.879,0.418 -3.875,0.43 -3.891,0.425 -3.902,0.442 -3.887,0.426 -3.91,0.429 -3.902,0.43 -3.899,0.418 -3.902,0.406 -3.91,0.395 -3.891,0.383 -3.898,0.375 -3.891,0.351 -3.887,0.328 -3.867,0.321 -3.879,0.285 -3.855,0.265 -3.848,0.243 -3.832,0.207 -3.824,0.175 -3.813,0.145 -3.8,0.109 -3.782,0.067 -3.757,0.031 -3.747,-0.012 -3.722,-0.055 -3.703,-0.097 -3.68,-0.156 -3.66,-0.196 -3.637,-0.254 -3.613,-0.297 -3.582,-0.363 -3.559,-0.418 -3.527,-0.48 -3.504,-0.539 -3.473,-0.606 -3.425,-0.668 -3.407,-0.738 -3.375,-0.813 -3.34,-0.878 -3.296,-0.957 -3.262,-1.032 -3.231,-1.109 -3.183,-1.188 -3.145,-1.273 -3.097,-1.363 -3.067,-1.45 -3.019,-1.527 -2.965,-1.625 -2.926,-1.726 -2.875,-1.813 -2.836,-1.902 -2.781,-2.008 -2.735,-2.109 -2.667,-2.219 -2.629,-2.321 -2.571,-2.425 -2.527,-2.539 -2.461,-2.637 -2.395,-2.77 -2.351,-2.867 -2.352,2.867 -2.394,2.77 -2.461,2.637 -2.527,2.539 -2.571,2.425 -2.625,2.321 -2.668,2.219 -2.738,2.109 -2.777,2.008 -2.836,1.902 -2.879,1.813 -2.922,1.726 -2.965,1.625 -3.023,1.527 -3.063,1.45 -3.101,1.363 -3.141,1.273 -3.188,1.188 -3.23,1.109 -3.262,1.032 -3.297,0.957 -3.339,0.878 -3.372,0.813 -3.406,0.738 -3.426,0.668 -3.472,0.606 -3.504,0.539 -3.527,0.48 -3.563,0.418 -3.578,0.363 -3.617,0.297 -3.637,0.254 -3.656,0.196 -3.68,0.156 -3.703,0.097 -3.727,0.055 -3.746,0.012 -3.758,-0.031 -3.777,-0.067 -3.801,-0.109 -3.812,-0.145 -3.824,-0.175 -3.836,-0.207 -3.844,-0.243 -3.856,-0.265 -3.878,-0.285 -3.868,-0.321 -3.89,-0.328 -3.887,-0.351 -3.902,-0.375 -3.887,-0.383 -3.914,-0.395 -3.899,-0.406 -3.902,-0.418 -3.898,-0.43 -3.91,-0.429 -3.891,-0.426 -3.899,-0.442 -3.89,-0.425 -3.879,-0.43 -3.879,-0.418 -3.867,-0.418 -3.867,-0.406 -3.844,-0.383 -3.836,-0.387 -3.82,-0.363 -3.813,-0.34 -3.793,-0.328 -3.777,-0.297 -3.77,-0.285 -3.734,-0.254 -3.727,-0.219 -3.699,-0.199 -3.683,-0.164 -3.657,-0.133 -3.636,-0.086 -3.618,-0.054 -3.578,-0.012 -3.562,0.031 -3.524,0.078 -3.496,0.121 -3.472,0.164 -3.438,0.219 -3.394,0.277 -3.372,0.329 -3.339,0.382 -3.297,0.442 -3.266,0.504 -3.219,0.574 -3.183,0.625 -3.145,0.703 -3.097,0.77 -3.067,0.843 -3.008,0.914 -2.964,0.989 -2.926,1.066 -2.879,1.141 -2.832,1.23 -2.781,1.309 -2.723,1.394 -2.68,1.485 -2.617,1.57 -2.57,1.672 -2.516,1.758 -2.461,1.855 -2.406,1.957 -2.34,2.051 -2.285,2.156 -2.219,2.25 -2.164,2.375 -2.101,2.473 -2.032,2.582 -1.976,2.691 -1.903,2.813 -1.832,2.933 -1.769,3.043 -1.703,3.164 -1.625,3.286 -1.563,3.414 -1.48,3.539" /><path
         id="path60"
         style="fill:none;stroke:#000000;stroke-width:3.9849999;stroke-linecap:butt;stroke-linejoin:miter;stroke-miterlimit:10;stroke-dasharray:none;stroke-opacity:1"
         d="m 189.305,301.012 1.007,-2.528 1.102,-2.437 1.184,-2.34 1.277,-2.254 1.352,-2.164 1.437,-2.078 1.527,-1.996 1.606,-1.914 1.68,-1.836 1.757,-1.746 1.836,-1.68 1.91,-1.594 1.989,-1.515 2.054,-1.45 2.133,-1.386 2.207,-1.305 2.274,-1.242 2.328,-1.176 2.406,-1.109 2.473,-1.043 2.539,-0.992 2.594,-0.922 2.656,-0.867 2.715,-0.801 2.769,-0.758 2.832,-0.703 2.891,-0.649 2.945,-0.605 3,-0.551 3.043,-0.504 3.098,-0.461 3.14,-0.418 3.2,-0.375 3.238,-0.34 3.297,-0.296 3.328,-0.25 3.375,-0.231 3.414,-0.187 3.453,-0.164 3.492,-0.122 3.539,-0.101 3.571,-0.074 3.601,-0.055 3.637,-0.023 3.672,0 3.687,0.023 3.739,0.031 3.757,0.055 3.778,0.066 3.812,0.086 3.836,0.09 3.856,0.109 3.879,0.11 3.898,0.133 3.922,0.121 3.945,0.133 3.946,0.128 3.976,0.133 3.977,0.145 4,0.121 3.996,0.129 4.023,0.121 4.02,0.109 4.031,0.114 4.043,0.085 4.043,0.079 4.043,0.066 4.055,0.055 4.043,0.031 4.054,0.012 4.043,-0.012 4.043,-0.02 4.043,-0.058 4.031,-0.074 4.024,-0.11 4.019,-0.133 4.012,-0.164 4,-0.199 3.977,-0.242 3.976,-0.262 3.953,-0.308 3.946,-0.34 3.921,-0.387 3.903,-0.426 3.875,-0.472 3.867,-0.508 3.836,-0.57 3.812,-0.606 3.789,-0.656 3.77,-0.715 3.734,-0.77 3.704,-0.824 3.668,-0.879 3.648,-0.933 3.605,-1 3.582,-1.067 3.536,-1.121 3.503,-1.183 3.461,-1.254 3.418,-1.328 3.383,-1.399 3.34,-1.461 3.297,-1.535 3.254,-1.617 3.195,-1.692 3.164,-1.769 3.098,-1.844 3.066,-1.933 3,-2.012 2.953,-2.098 2.891,-2.187 2.844,-2.274 2.793,-2.363 2.722,-2.449 2.672,-2.551 2.602,-2.637 2.539,-2.746 2.484,-2.832 2.414,-2.933 2.352,-3.043 2.351,3.043 2.418,2.933 2.485,2.832 2.535,2.746 2.605,2.637 2.668,2.551 2.727,2.449 2.789,2.363 2.848,2.274 2.886,2.187 2.957,2.098 3,2.012 3.063,1.933 3.102,1.844 3.164,1.769 3.195,1.692 3.25,1.617 3.297,1.535 3.34,1.461 3.386,1.399 3.414,1.328 3.461,1.254 3.504,1.183 3.539,1.121 3.582,1.067 3.602,1 3.648,0.933 3.672,0.879 3.699,0.824 3.739,0.77 3.765,0.715 3.793,0.656 3.813,0.606 3.832,0.57 3.867,0.508 3.879,0.472 3.898,0.426 3.926,0.387 3.942,0.34 3.957,0.308 3.976,0.262 3.977,0.242 4,0.199 4.007,0.164 4.024,0.133 4.019,0.11 4.032,0.074 4.043,0.058 4.043,0.02 4.043,0.012 4.054,-0.012 4.043,-0.031 4.055,-0.055 4.043,-0.066 4.043,-0.079 4.043,-0.085 4.031,-0.114 4.024,-0.109 4.019,-0.121 4,-0.129 4,-0.121 3.977,-0.145 3.976,-0.133 3.946,-0.128 3.941,-0.133 3.922,-0.121 3.902,-0.133 3.879,-0.11 3.856,-0.109 3.832,-0.09 3.812,-0.086 3.781,-0.066 3.758,-0.055 3.735,-0.031 3.691,-0.023 3.668,0 3.637,0.023 3.605,0.055 3.57,0.074 3.539,0.101 3.493,0.122 3.449,0.164 3.418,0.187 3.371,0.231 3.328,0.25 3.297,0.296 3.242,0.34 3.195,0.375 3.145,0.418 3.098,0.461 3.054,0.504 2.989,0.551 2.945,0.605 2.887,0.649 2.836,0.703 2.769,0.758 2.723,0.801 2.66,0.867 2.582,0.922 2.535,0.992 2.473,1.043 2.406,1.109 2.34,1.176 2.265,1.242 2.207,1.305 2.133,1.386 2.055,1.45 1.988,1.515 1.91,1.594 1.836,1.68 1.758,1.746 1.692,1.836 1.593,1.914 1.528,1.996 1.437,2.078 1.352,2.164 1.273,2.254 1.188,2.34 1.097,2.437 1.012,2.528 -1.484,-3.539 -1.559,-3.414 -1.625,-3.286 -1.703,-3.164 -1.77,-3.043 -1.836,-2.933 -1.898,-2.813 -1.98,-2.691 -2.032,-2.582 -2.097,-2.473 -2.164,-2.375 -2.219,-2.25 -2.285,-2.156 -2.34,-2.051 -2.406,-1.957 -2.461,-1.855 -2.516,-1.758 -2.574,-1.672 -2.613,-1.57 -2.68,-1.485 -2.727,-1.394 -2.777,-1.309 -2.836,-1.23 -2.867,-1.141 -2.922,-1.066 -2.977,-0.989 -3.011,-0.914 -3.067,-0.843 -3.097,-0.77 -3.141,-0.703 -3.188,-0.625 -3.218,-0.574 -3.262,-0.504 -3.297,-0.442 -3.34,-0.382 -3.371,-0.329 -3.398,-0.277 -3.438,-0.219 -3.472,-0.164 -3.493,-0.121 -3.527,-0.078 -3.559,-0.031 -3.582,0.012 -3.613,0.054 -3.637,0.086 -3.66,0.133 -3.679,0.164 -3.704,0.199 -3.722,0.219 -3.738,0.254 -3.766,0.285 -3.781,0.297 -3.789,0.328 -3.813,0.34 -3.824,0.363 -3.832,0.387 -3.848,0.383 -3.867,0.406 -3.867,0.418 -3.879,0.418 -3.875,0.43 -3.891,0.425 -3.902,0.442 -3.887,0.426 -3.91,0.429 -3.902,0.43 -3.899,0.418 -3.902,0.406 -3.91,0.395 -3.891,0.383 -3.898,0.375 -3.891,0.351 -3.887,0.328 -3.867,0.321 -3.879,0.285 -3.855,0.265 -3.848,0.243 -3.832,0.207 -3.824,0.175 -3.813,0.145 -3.8,0.109 -3.782,0.067 -3.757,0.031 -3.747,-0.012 -3.722,-0.055 -3.703,-0.097 -3.68,-0.156 -3.66,-0.196 -3.637,-0.254 -3.613,-0.297 -3.582,-0.363 -3.559,-0.418 -3.527,-0.48 -3.504,-0.539 -3.473,-0.606 -3.425,-0.668 -3.407,-0.738 -3.375,-0.813 -3.34,-0.878 -3.296,-0.957 -3.262,-1.032 -3.231,-1.109 -3.183,-1.188 -3.145,-1.273 -3.097,-1.363 -3.067,-1.45 -3.019,-1.527 -2.965,-1.625 -2.926,-1.726 -2.875,-1.813 -2.836,-1.902 -2.781,-2.008 -2.735,-2.109 -2.667,-2.219 -2.629,-2.321 -2.571,-2.425 -2.527,-2.539 -2.461,-2.637 -2.395,-2.77 -2.351,-2.867 -2.352,2.867 -2.394,2.77 -2.461,2.637 -2.527,2.539 -2.571,2.425 -2.625,2.321 -2.668,2.219 -2.738,2.109 -2.777,2.008 -2.836,1.902 -2.879,1.813 -2.922,1.726 -2.965,1.625 -3.023,1.527 -3.063,1.45 -3.101,1.363 -3.141,1.273 -3.188,1.188 -3.23,1.109 -3.262,1.032 -3.297,0.957 -3.339,0.878 -3.372,0.813 -3.406,0.738 -3.426,0.668 -3.472,0.606 -3.504,0.539 -3.527,0.48 -3.563,0.418 -3.578,0.363 -3.617,0.297 -3.637,0.254 -3.656,0.196 -3.68,0.156 -3.703,0.097 -3.727,0.055 -3.746,0.012 -3.758,-0.031 -3.777,-0.067 -3.801,-0.109 -3.812,-0.145 -3.824,-0.175 -3.836,-0.207 -3.844,-0.243 -3.856,-0.265 -3.878,-0.285 -3.868,-0.321 -3.89,-0.328 -3.887,-0.351 -3.902,-0.375 -3.887,-0.383 -3.914,-0.395 -3.899,-0.406 -3.902,-0.418 -3.898,-0.43 -3.91,-0.429 -3.891,-0.426 -3.899,-0.442 -3.89,-0.425 -3.879,-0.43 -3.879,-0.418 -3.867,-0.418 -3.867,-0.406 -3.844,-0.383 -3.836,-0.387 -3.82,-0.363 -3.813,-0.34 -3.793,-0.328 -3.777,-0.297 -3.77,-0.285 -3.734,-0.254 -3.727,-0.219 -3.699,-0.199 -3.683,-0.164 -3.657,-0.133 -3.636,-0.086 -3.618,-0.054 -3.578,-0.012 -3.562,0.031 -3.524,0.078 -3.496,0.121 -3.472,0.164 -3.438,0.219 -3.394,0.277 -3.372,0.329 -3.339,0.382 -3.297,0.442 -3.266,0.504 -3.219,0.574 -3.183,0.625 -3.145,0.703 -3.097,0.77 -3.067,0.843 -3.008,0.914 -2.964,0.989 -2.926,1.066 -2.879,1.141 -2.832,1.23 -2.781,1.309 -2.723,1.394 -2.68,1.485 -2.617,1.57 -2.57,1.672 -2.516,1.758 -2.461,1.855 -2.406,1.957 -2.34,2.051 -2.285,2.156 -2.219,2.25 -2.164,2.375 -2.101,2.473 -2.032,2.582 -1.976,2.691 -1.903,2.813 -1.832,2.933 -1.769,3.043 -1.703,3.164 -1.625,3.286 -1.563,3.414 -1.48,3.539 z" /><g
         transform="matrix(106.8,0,0,-135.6,-37.3458,820.689)"
         id="g62"><rect
           id="rect64"
           style="fill:#ffffff;fill-opacity:1;fill-rule:nonzero"
           transform="matrix(1,0,0,-1,0,1)"
           height="1"
           width="1"
           y="0"
           x="0" /></g><g
         transform="scale(10,10)"
         id="g66"><text
           id="text68"
           style="font-variant:normal;font-weight:normal;font-size:10.90909958px;font-family:CMMI10;-inkscape-font-specification:CMMI10;writing-mode:lr-tb;fill:#000000;fill-opacity:1;fill-rule:nonzero;stroke:none"
           transform="matrix(1,0,0,-1,-0.842578,71.5211)"><tspan
             id="tspan70"
             y="0"
             x="0">b</tspan></text>
</g><path
         id="path72"
         style="fill:#000000;fill-opacity:1;fill-rule:nonzero;stroke:none"
         d="m 150.695,1165.02 -2.371,-1.07 -2.273,-1.18 -2.199,-1.27 -2.122,-1.35 -2.019,-1.45 -1.957,-1.52 -1.867,-1.64 -1.789,-1.7 -1.715,-1.79 -1.649,-1.88 -1.57,-1.96 -1.496,-2.05 -1.426,-2.11 -1.363,-2.2 -1.285,-2.28 -1.231,-2.35 -1.164,-2.41 -1.101,-2.5 -1.043,-2.57 -0.977,-2.63 -0.922,-2.7 -0.871,-2.78 -0.812,-2.82 -0.758,-2.9 -0.703,-2.96 -0.657,-3.02 -0.617,-3.08 -0.558,-3.15 -0.52,-3.18 -0.469,-3.25 -0.441,-3.31 -0.383,-3.36 -0.351,-3.41 -0.321,-3.45 -0.273,-3.51 -0.242,-3.55 -0.211,-3.61 -0.184,-3.64 -0.144,-3.68 -0.121,-3.73 -0.098,-3.77 -0.067,-3.8 -0.043,-3.84 -0.023,-3.89 0,-3.91 0.012,-3.95 0.031,-3.97 0.055,-4.01 0.066,-4.04 0.078,-4.06 0.086,-4.1 0.102,-4.11 0.109,-4.14 0.11,-4.15 0.121,-4.19 0.121,-4.195 0.132,-4.219 0.122,-4.231 0.117,-4.25 0.121,-4.265 0.121,-4.274 0.121,-4.285 0.102,-4.293 0.097,-4.297 0.086,-4.308 0.078,-4.317 0.055,-4.304 0.055,-4.332 0.023,-4.317 0.02,-4.316 -0.008,-4.321 -0.035,-4.304 -0.043,-4.309 -0.078,-4.305 -0.098,-4.296 -0.121,-4.286 -0.164,-4.273 -0.188,-4.262 -0.207,-4.254 -0.254,-4.238 -0.285,-4.219 -0.332,-4.199 -0.351,-4.183 -0.407,-4.165 -0.437,-4.14 -0.484,-4.121 -0.528,-4.098 -0.57,-4.066 -0.617,-4.043 -0.668,-4.008 -0.727,-3.988 -0.769,-3.957 -0.825,-3.911 -0.879,-3.89 -0.933,-3.844 -0.9884,-3.812 -1.0547,-3.782 -1.1211,-3.734 -1.1758,-3.691 -1.2422,-3.649 -1.3046,-3.613 -1.375,-3.559 -1.4375,-3.515 -1.5157,-3.461 -1.582,-3.418 -1.6602,-3.371 -1.7343,-3.309 -1.8047,-3.262 -1.8867,-3.207 -1.9688,-3.144 -2.0547,-3.098 -2.1289,-3.031 -2.2109,-2.969 -2.3047,-2.91 -2.3867,-2.844 -2.4727,-2.781 -2.5703,-2.715 -2.6562,-2.644 -2.7579,-2.575 -2.8476,-2.504 2.8476,-2.515 2.7579,-2.571 2.6562,-2.648 2.5703,-2.715 2.4727,-2.777 2.3867,-2.848 2.3047,-2.91 2.2109,-2.965 2.1289,-3.035 2.0547,-3.086 1.9688,-3.152 1.8867,-3.207 1.8047,-3.254 1.7343,-3.317 1.6602,-3.363 1.582,-3.426 1.5157,-3.461 1.4375,-3.515 1.375,-3.563 1.3046,-3.601 1.2422,-3.66 1.1758,-3.692 1.1211,-3.734 1.0547,-3.77 0.9884,-3.812 0.933,-3.856 0.879,-3.879 0.825,-3.922 0.769,-3.953 0.727,-3.988 0.668,-4.012 0.617,-4.043 0.57,-4.062 0.528,-4.102 0.484,-4.117 0.437,-4.144 0.407,-4.164 0.351,-4.184 0.332,-4.195 0.285,-4.223 0.254,-4.238 0.207,-4.254 0.188,-4.262 0.164,-4.273 0.121,-4.286 0.098,-4.296 0.078,-4.293 0.043,-4.321 0.035,-4.304 0.008,-4.317 -0.02,-4.32 -0.023,-4.316 -0.055,-4.317 -0.055,-4.32 -0.078,-4.317 -0.086,-4.308 -0.097,-4.293 -0.102,-4.297 -0.121,-4.285 -0.121,-4.274 -0.121,-4.261 -0.117,-4.243 -0.122,-4.238 -0.132,-4.219 -0.121,-4.199 -0.121,-4.176 -0.11,-4.164 -0.109,-4.14 -0.102,-4.11 -0.086,-4.097 -0.078,-4.055 -0.066,-4.043 -0.055,-4.008 -0.031,-3.976 -0.012,-3.946 0,-3.91 0.023,-3.879 0.043,-3.847 0.067,-3.813 0.098,-3.754 0.121,-3.738 0.144,-3.68 0.184,-3.648 0.211,-3.59 0.242,-3.563 0.273,-3.503 0.321,-3.461 0.351,-3.407 0.383,-3.359 0.441,-3.297 0.469,-3.254 0.52,-3.195 0.558,-3.141 0.617,-3.078 0.657,-3.019 0.703,-2.969 0.758,-2.887 0.812,-2.836 0.871,-2.769 0.922,-2.703 0.977,-2.637 1.043,-2.559 1.101,-2.492 1.164,-2.43 1.231,-2.351 1.285,-2.274 1.363,-2.199 1.426,-2.109 1.496,-2.043 1.57,-1.953 1.649,-1.879 1.715,-1.805 1.789,-1.703 1.867,-1.625 1.957,-1.539 2.019,-1.449 2.122,-1.352 2.199,-1.262 2.273,-1.175 2.371,-1.078 -3.316,1.582 -3.195,1.66 -3.09,1.746 -2.965,1.812 -2.856,1.879 -2.738,1.969 -2.637,2.019 -2.527,2.11 -2.426,2.164 -2.32,2.242 -2.219,2.309 -2.109,2.371 -2.02,2.437 -1.925,2.496 -1.832,2.559 -1.739,2.625 -1.656,2.684 -1.563,2.746 -1.472,2.8 -1.395,2.844 -1.304,2.914 -1.231,2.965 -1.144,3.024 -1.0785,3.062 -0.9961,3.121 -0.9258,3.164 -0.8554,3.219 -0.793,3.262 -0.7227,3.308 -0.6484,3.352 -0.5938,3.394 -0.539,3.438 -0.4727,3.484 -0.4179,3.516 -0.3594,3.558 -0.3086,3.594 -0.2539,3.625 -0.207,3.668 -0.1563,3.703 -0.1211,3.727 -0.0664,3.765 -0.0195,3.793 0.0117,3.821 0.043,3.859 0.0859,3.875 0.1211,3.902 0.1562,3.922 0.1758,3.953 0.2188,3.969 0.2304,4 0.2657,4.008 0.2851,4.031 0.3047,4.043 0.3203,4.067 0.3399,4.074 0.3515,4.101 0.375,4.098 0.3711,4.117 0.3985,4.121 0.3945,4.141 0.3945,4.145 0.4063,4.152 0.4062,4.152 0.4063,4.153 0.3984,4.164 0.3945,4.164 0.3946,4.164 0.3867,4.164 0.3711,4.164 0.3633,4.152 0.3394,4.164 0.332,4.141 0.317,4.144 0.297,4.141 0.265,4.121 0.25,4.117 0.219,4.11 0.199,4.086 0.164,4.078 0.133,4.066 0.098,4.051 0.066,4.035 0.035,4.008 -0.011,3.988 -0.055,3.977 -0.09,3.957 -0.14,3.922 -0.188,3.898 -0.23,3.879 -0.286,3.855 -0.339,3.825 -0.387,3.789 -0.449,3.769 -0.5082,3.735 -0.5703,3.703 -0.625,3.66 -0.6914,3.637 -0.7578,3.59 -0.8242,3.562 -0.9024,3.523 -0.9687,3.473 -1.043,3.449 -1.1094,3.395 -1.1953,3.351 -1.2773,3.309 -1.3516,3.273 -1.4375,3.207 -1.5273,3.176 -1.6133,3.121 -1.6953,3.067 -1.7891,3.019 -1.8906,2.965 -1.9766,2.914 -2.0742,2.856 -2.1758,2.8 -2.2773,2.747 -2.3711,2.683 -2.4844,2.625 -2.582,2.57 -2.7031,2.504 2.7031,2.496 2.582,2.571 2.4844,2.625 2.3711,2.679 2.2773,2.747 2.1758,2.8 2.0742,2.86 1.9766,2.91 1.8906,2.965 1.7891,3.023 1.6953,3.067 1.6133,3.117 1.5273,3.176 1.4375,3.218 1.3516,3.266 1.2773,3.305 1.1953,3.351 1.1094,3.406 1.043,3.438 0.9687,3.484 0.9024,3.516 0.8242,3.559 0.7578,3.593 0.6914,3.637 0.625,3.656 0.5703,3.703 0.5082,3.735 0.449,3.769 0.387,3.789 0.339,3.825 0.286,3.855 0.23,3.879 0.188,3.902 0.14,3.93 0.09,3.945 0.055,3.977 0.011,3.988 -0.035,4.024 -0.066,4.019 -0.098,4.055 -0.133,4.066 -0.164,4.074 -0.199,4.098 -0.219,4.098 -0.25,4.121 -0.265,4.129 -0.297,4.133 -0.317,4.14 -0.332,4.152 -0.3394,4.153 -0.3633,4.156 -0.3711,4.164 -0.3867,4.16 -0.3946,4.164 -0.3945,4.164 -0.3984,4.164 -0.4063,4.153 -0.4062,4.164 -0.4063,4.144 -0.3945,4.141 -0.3945,4.141 -0.3985,4.121 -0.3711,4.121 -0.375,4.109 -0.3515,4.086 -0.3399,4.074 -0.3203,4.071 -0.3047,4.05 -0.2851,4.02 -0.2657,4.02 -0.2304,3.99 -0.2188,3.97 -0.1758,3.95 -0.1562,3.93 -0.1211,3.91 -0.0859,3.87 -0.043,3.85 -0.0117,3.82 0.0195,3.79 0.0664,3.77 0.1211,3.72 0.1563,3.71 0.207,3.66 0.2539,3.63 0.3086,3.59 0.3594,3.57 0.4179,3.51 0.4727,3.48 0.539,3.44 0.5938,3.39 0.6484,3.36 0.7227,3.3 0.793,3.27 0.8554,3.21 0.9258,3.17 0.9961,3.12 1.0785,3.07 1.144,3.02 1.231,2.96 1.304,2.91 1.395,2.86 1.472,2.79 1.563,2.75 1.656,2.68 1.739,2.62 1.832,2.56 1.925,2.5 2.02,2.44 2.109,2.37 2.219,2.31 2.32,2.24 2.426,2.17 2.527,2.09 2.637,2.05 2.738,1.95 2.856,1.89 2.965,1.8 3.09,1.75 3.195,1.66 3.316,1.58" /><path
         id="path74"
         style="fill:none;stroke:#000000;stroke-width:3.9849999;stroke-linecap:butt;stroke-linejoin:miter;stroke-miterlimit:10;stroke-dasharray:none;stroke-opacity:1"
         d="m 150.695,1165.02 -2.371,-1.07 -2.273,-1.18 -2.199,-1.27 -2.122,-1.35 -2.019,-1.45 -1.957,-1.52 -1.867,-1.64 -1.789,-1.7 -1.715,-1.79 -1.649,-1.88 -1.57,-1.96 -1.496,-2.05 -1.426,-2.11 -1.363,-2.2 -1.285,-2.28 -1.231,-2.35 -1.164,-2.41 -1.101,-2.5 -1.043,-2.57 -0.977,-2.63 -0.922,-2.7 -0.871,-2.78 -0.812,-2.82 -0.758,-2.9 -0.703,-2.96 -0.657,-3.02 -0.617,-3.08 -0.558,-3.15 -0.52,-3.18 -0.469,-3.25 -0.441,-3.31 -0.383,-3.36 -0.351,-3.41 -0.321,-3.45 -0.273,-3.51 -0.242,-3.55 -0.211,-3.61 -0.184,-3.64 -0.144,-3.68 -0.121,-3.73 -0.098,-3.77 -0.067,-3.8 -0.043,-3.84 -0.023,-3.89 0,-3.91 0.012,-3.95 0.031,-3.97 0.055,-4.01 0.066,-4.04 0.078,-4.06 0.086,-4.1 0.102,-4.11 0.109,-4.14 0.11,-4.15 0.121,-4.19 0.121,-4.195 0.132,-4.219 0.122,-4.231 0.117,-4.25 0.121,-4.265 0.121,-4.274 0.121,-4.285 0.102,-4.293 0.097,-4.297 0.086,-4.308 0.078,-4.317 0.055,-4.304 0.055,-4.332 0.023,-4.317 0.02,-4.316 -0.008,-4.321 -0.035,-4.304 -0.043,-4.309 -0.078,-4.305 -0.098,-4.296 -0.121,-4.286 -0.164,-4.273 -0.188,-4.262 -0.207,-4.254 -0.254,-4.238 -0.285,-4.219 -0.332,-4.199 -0.351,-4.183 -0.407,-4.165 -0.437,-4.14 -0.484,-4.121 -0.528,-4.098 -0.57,-4.066 -0.617,-4.043 -0.668,-4.008 -0.727,-3.988 -0.769,-3.957 -0.825,-3.911 -0.879,-3.89 -0.933,-3.844 -0.9884,-3.812 -1.0547,-3.782 -1.1211,-3.734 -1.1758,-3.691 -1.2422,-3.649 -1.3046,-3.613 -1.375,-3.559 -1.4375,-3.515 -1.5157,-3.461 -1.582,-3.418 -1.6602,-3.371 -1.7343,-3.309 -1.8047,-3.262 -1.8867,-3.207 -1.9688,-3.144 -2.0547,-3.098 -2.1289,-3.031 -2.2109,-2.969 -2.3047,-2.91 -2.3867,-2.844 -2.4727,-2.781 -2.5703,-2.715 -2.6562,-2.644 -2.7579,-2.575 -2.8476,-2.504 2.8476,-2.515 2.7579,-2.571 2.6562,-2.648 2.5703,-2.715 2.4727,-2.777 2.3867,-2.848 2.3047,-2.91 2.2109,-2.965 2.1289,-3.035 2.0547,-3.086 1.9688,-3.152 1.8867,-3.207 1.8047,-3.254 1.7343,-3.317 1.6602,-3.363 1.582,-3.426 1.5157,-3.461 1.4375,-3.515 1.375,-3.563 1.3046,-3.601 1.2422,-3.66 1.1758,-3.692 1.1211,-3.734 1.0547,-3.77 0.9884,-3.812 0.933,-3.856 0.879,-3.879 0.825,-3.922 0.769,-3.953 0.727,-3.988 0.668,-4.012 0.617,-4.043 0.57,-4.062 0.528,-4.102 0.484,-4.117 0.437,-4.144 0.407,-4.164 0.351,-4.184 0.332,-4.195 0.285,-4.223 0.254,-4.238 0.207,-4.254 0.188,-4.262 0.164,-4.273 0.121,-4.286 0.098,-4.296 0.078,-4.293 0.043,-4.321 0.035,-4.304 0.008,-4.317 -0.02,-4.32 -0.023,-4.316 -0.055,-4.317 -0.055,-4.32 -0.078,-4.317 -0.086,-4.308 -0.097,-4.293 -0.102,-4.297 -0.121,-4.285 -0.121,-4.274 -0.121,-4.261 -0.117,-4.243 -0.122,-4.238 -0.132,-4.219 -0.121,-4.199 -0.121,-4.176 -0.11,-4.164 -0.109,-4.14 -0.102,-4.11 -0.086,-4.097 -0.078,-4.055 -0.066,-4.043 -0.055,-4.008 -0.031,-3.976 -0.012,-3.946 0,-3.91 0.023,-3.879 0.043,-3.847 0.067,-3.813 0.098,-3.754 0.121,-3.738 0.144,-3.68 0.184,-3.648 0.211,-3.59 0.242,-3.563 0.273,-3.503 0.321,-3.461 0.351,-3.407 0.383,-3.359 0.441,-3.297 0.469,-3.254 0.52,-3.195 0.558,-3.141 0.617,-3.078 0.657,-3.019 0.703,-2.969 0.758,-2.887 0.812,-2.836 0.871,-2.769 0.922,-2.703 0.977,-2.637 1.043,-2.559 1.101,-2.492 1.164,-2.43 1.231,-2.351 1.285,-2.274 1.363,-2.199 1.426,-2.109 1.496,-2.043 1.57,-1.953 1.649,-1.879 1.715,-1.805 1.789,-1.703 1.867,-1.625 1.957,-1.539 2.019,-1.449 2.122,-1.352 2.199,-1.262 2.273,-1.175 2.371,-1.078 -3.316,1.582 -3.195,1.66 -3.09,1.746 -2.965,1.812 -2.856,1.879 -2.738,1.969 -2.637,2.019 -2.527,2.11 -2.426,2.164 -2.32,2.242 -2.219,2.309 -2.109,2.371 -2.02,2.437 -1.925,2.496 -1.832,2.559 -1.739,2.625 -1.656,2.684 -1.563,2.746 -1.472,2.8 -1.395,2.844 -1.304,2.914 -1.231,2.965 -1.144,3.024 -1.0785,3.062 -0.9961,3.121 -0.9258,3.164 -0.8554,3.219 -0.793,3.262 -0.7227,3.308 -0.6484,3.352 -0.5938,3.394 -0.539,3.438 -0.4727,3.484 -0.4179,3.516 -0.3594,3.558 -0.3086,3.594 -0.2539,3.625 -0.207,3.668 -0.1563,3.703 -0.1211,3.727 -0.0664,3.765 -0.0195,3.793 0.0117,3.821 0.043,3.859 0.0859,3.875 0.1211,3.902 0.1562,3.922 0.1758,3.953 0.2188,3.969 0.2304,4 0.2657,4.008 0.2851,4.031 0.3047,4.043 0.3203,4.067 0.3399,4.074 0.3515,4.101 0.375,4.098 0.3711,4.117 0.3985,4.121 0.3945,4.141 0.3945,4.145 0.4063,4.152 0.4062,4.152 0.4063,4.153 0.3984,4.164 0.3945,4.164 0.3946,4.164 0.3867,4.164 0.3711,4.164 0.3633,4.152 0.3394,4.164 0.332,4.141 0.317,4.144 0.297,4.141 0.265,4.121 0.25,4.117 0.219,4.11 0.199,4.086 0.164,4.078 0.133,4.066 0.098,4.051 0.066,4.035 0.035,4.008 -0.011,3.988 -0.055,3.977 -0.09,3.957 -0.14,3.922 -0.188,3.898 -0.23,3.879 -0.286,3.855 -0.339,3.825 -0.387,3.789 -0.449,3.769 -0.5082,3.735 -0.5703,3.703 -0.625,3.66 -0.6914,3.637 -0.7578,3.59 -0.8242,3.562 -0.9024,3.523 -0.9687,3.473 -1.043,3.449 -1.1094,3.395 -1.1953,3.351 -1.2773,3.309 -1.3516,3.273 -1.4375,3.207 -1.5273,3.176 -1.6133,3.121 -1.6953,3.067 -1.7891,3.019 -1.8906,2.965 -1.9766,2.914 -2.0742,2.856 -2.1758,2.8 -2.2773,2.747 -2.3711,2.683 -2.4844,2.625 -2.582,2.57 -2.7031,2.504 2.7031,2.496 2.582,2.571 2.4844,2.625 2.3711,2.679 2.2773,2.747 2.1758,2.8 2.0742,2.86 1.9766,2.91 1.8906,2.965 1.7891,3.023 1.6953,3.067 1.6133,3.117 1.5273,3.176 1.4375,3.218 1.3516,3.266 1.2773,3.305 1.1953,3.351 1.1094,3.406 1.043,3.438 0.9687,3.484 0.9024,3.516 0.8242,3.559 0.7578,3.593 0.6914,3.637 0.625,3.656 0.5703,3.703 0.5082,3.735 0.449,3.769 0.387,3.789 0.339,3.825 0.286,3.855 0.23,3.879 0.188,3.902 0.14,3.93 0.09,3.945 0.055,3.977 0.011,3.988 -0.035,4.024 -0.066,4.019 -0.098,4.055 -0.133,4.066 -0.164,4.074 -0.199,4.098 -0.219,4.098 -0.25,4.121 -0.265,4.129 -0.297,4.133 -0.317,4.14 -0.332,4.152 -0.3394,4.153 -0.3633,4.156 -0.3711,4.164 -0.3867,4.16 -0.3946,4.164 -0.3945,4.164 -0.3984,4.164 -0.4063,4.153 -0.4062,4.164 -0.4063,4.144 -0.3945,4.141 -0.3945,4.141 -0.3985,4.121 -0.3711,4.121 -0.375,4.109 -0.3515,4.086 -0.3399,4.074 -0.3203,4.071 -0.3047,4.05 -0.2851,4.02 -0.2657,4.02 -0.2304,3.99 -0.2188,3.97 -0.1758,3.95 -0.1562,3.93 -0.1211,3.91 -0.0859,3.87 -0.043,3.85 -0.0117,3.82 0.0195,3.79 0.0664,3.77 0.1211,3.72 0.1563,3.71 0.207,3.66 0.2539,3.63 0.3086,3.59 0.3594,3.57 0.4179,3.51 0.4727,3.48 0.539,3.44 0.5938,3.39 0.6484,3.36 0.7227,3.3 0.793,3.27 0.8554,3.21 0.9258,3.17 0.9961,3.12 1.0785,3.07 1.144,3.02 1.231,2.96 1.304,2.91 1.395,2.86 1.472,2.79 1.563,2.75 1.656,2.68 1.739,2.62 1.832,2.56 1.925,2.5 2.02,2.44 2.109,2.37 2.219,2.31 2.32,2.24 2.426,2.17 2.527,2.09 2.637,2.05 2.738,1.95 2.856,1.89 2.965,1.8 3.09,1.75 3.195,1.66 3.316,1.58 z" /><g
         transform="matrix(146.4,0,0,-134.4,23.4799,321.48)"
         id="g76"><rect
           id="rect78"
           style="fill:#ffffff;fill-opacity:1;fill-rule:nonzero"
           transform="matrix(1,0,0,-1,0,1)"
           height="1"
           width="1"
           y="0"
           x="0" /></g><g
         transform="scale(10,10)"
         id="g80"><text
           id="text82"
           style="font-variant:normal;font-weight:normal;font-size:10.90909958px;font-family:CMMI10;-inkscape-font-specification:CMMI10;writing-mode:lr-tb;fill:#000000;fill-opacity:1;fill-rule:nonzero;stroke:none"
           transform="matrix(1,0,0,-1,5.36016,21.7199)"><tspan
             id="tspan84"
             y="0"
             x="0">O</tspan></text>
</g><g
         transform="matrix(159.6,0,0,-134.4,1690.78,321.48)"
         id="g86"><rect
           id="rect88"
           style="fill:#ffffff;fill-opacity:1;fill-rule:nonzero"
           transform="matrix(1,0,0,-1,0,1)"
           height="1"
           width="1"
           y="0"
           x="0" /></g><g
         transform="scale(10,10)"
         id="g90"><text
           id="text92"
           style="font-variant:normal;font-weight:normal;font-size:10.90909958px;font-family:CMMI10;-inkscape-font-specification:CMMI10;writing-mode:lr-tb;fill:#000000;fill-opacity:1;fill-rule:nonzero;stroke:none"
           transform="matrix(1,0,0,-1,172.09,21.7199)"><tspan
             id="tspan94"
             y="0"
             x="0">X</tspan></text>
</g><g
         transform="matrix(147.6,0,0,-134.4,22.2799,1448.78)"
         id="g96"><rect
           id="rect98"
           style="fill:#ffffff;fill-opacity:1;fill-rule:nonzero"
           transform="matrix(1,0,0,-1,0,1)"
           height="1"
           width="1"
           y="0"
           x="0" /></g><g
         transform="scale(10,10)"
         id="g100"><text
           id="text102"
           style="font-variant:normal;font-weight:normal;font-size:10.90909958px;font-family:CMMI10;-inkscape-font-specification:CMMI10;writing-mode:lr-tb;fill:#000000;fill-opacity:1;fill-rule:nonzero;stroke:none"
           transform="matrix(1,0,0,-1,5.23984,134.45)"><tspan
             id="tspan104"
             y="0"
             x="0">Y</tspan></text>
</g><path
         id="path106"
         style="fill:none;stroke:#000000;stroke-width:11.95530033;stroke-linecap:butt;stroke-linejoin:miter;stroke-miterlimit:10;stroke-dasharray:none;stroke-opacity:1"
         d="m 7.99219,321.602 1782.02781,0" /><path
         id="path108"
         style="fill:none;stroke:#000000;stroke-width:11.95530033;stroke-linecap:butt;stroke-linejoin:miter;stroke-miterlimit:10;stroke-dasharray:none;stroke-opacity:1"
         d="m 170,148.793 0,1252.817" /><g
         transform="scale(10,10)"
         id="g110"><text
           id="text112"
           style="font-variant:normal;font-weight:normal;font-size:11.9552002px;font-family:CMCSC10;-inkscape-font-specification:CMCSC10;writing-mode:lr-tb;fill:#000000;fill-opacity:1;fill-rule:nonzero;stroke:none"
           transform="matrix(1,0,0,-1,75.441,0.0890625)"><tspan
             id="tspan114"
             y="0"
             x="0 8.5141897 12.111581 19.790342 28.065218 34.667995 41.270775">Fig.57.</tspan></text>
</g></g></g></svg>