<?xml version="1.0" encoding="UTF-8" standalone="no"?>
<svg
   xmlns:dc="http://purl.org/dc/elements/1.1/"
   xmlns:cc="http://creativecommons.org/ns#"
   xmlns:rdf="http://www.w3.org/1999/02/22-rdf-syntax-ns#"
   xmlns:svg="http://www.w3.org/2000/svg"
   xmlns="http://www.w3.org/2000/svg"
   viewBox="0 0 228.75 202.5"
   height="202.5"
   width="228.75"
   xml:space="preserve"
   version="1.1"
   id="svg2"><metadata
     id="metadata8"><rdf:RDF><cc:Work
         rdf:about=""><dc:format>image/svg+xml</dc:format><dc:type
           rdf:resource="http://purl.org/dc/dcmitype/StillImage" /></cc:Work></rdf:RDF></metadata><defs
     id="defs6"><clipPath
       id="clipPath12"
       clipPathUnits="userSpaceOnUse"><path
         id="path14"
         d="m -2,-2 183,0 0,162 -183,0 0,-162 z" /></clipPath></defs><g
     clip-path="url(#clipPath12)"
     transform="matrix(1.25,0,0,-1.25,2.5,200)"
     id="g10"><g
       transform="scale(0.1,0.1)"
       id="g16"><path
         id="path18"
         style="fill:none;stroke:#000000;stroke-width:11.95530033;stroke-linecap:butt;stroke-linejoin:miter;stroke-miterlimit:10;stroke-dasharray:none;stroke-opacity:1"
         d="m 447.23,1561.61 1.211,-8.26 35.442,-176.29 35.433,-132.74 35.442,-102.91 35.43,-81.68 35.441,-66.128 35.445,-54.407 35.43,-45.418 35.441,-38.363 35.434,-32.762 35.441,-28.246 35.442,-24.554 35.433,-21.489 35.442,-18.965 35.429,-16.808 35.446,-14.985 35.438,-13.437 35.43,-12.106 35.45,-10.945 35.43,-9.929 35.44,-9.043 35.43,-8.274 35.44,-7.59 35.45,-6.976 35.43,-6.426 35.44,-5.957 35.44,-5.504 35.43,-5.121 35.45,-4.766 35.43,-4.437 35.44,-4.156 35.44,-3.887 35.43,-3.649 35.44,-3.418 35.45,-3.218 35.43,-3.032" /><path
         id="path20"
         style="fill:none;stroke:#000000;stroke-width:11.95530033;stroke-linecap:butt;stroke-linejoin:miter;stroke-miterlimit:10;stroke-dasharray:none;stroke-opacity:1"
         d="m 494,481.602 0,853.828" /><path
         id="path22"
         style="fill:none;stroke:#000000;stroke-width:11.95530033;stroke-linecap:butt;stroke-linejoin:miter;stroke-miterlimit:10;stroke-dasharray:none;stroke-opacity:1"
         d="m 580.07,481.602 0,599.668" /><path
         id="path24"
         style="fill:none;stroke:#000000;stroke-width:11.95530033;stroke-linecap:butt;stroke-linejoin:miter;stroke-miterlimit:10;stroke-dasharray:none;stroke-opacity:1"
         d="m 666.125,481.602 0,450.609" /><path
         id="path26"
         style="fill:none;stroke:#000000;stroke-width:11.95530033;stroke-linecap:butt;stroke-linejoin:miter;stroke-miterlimit:10;stroke-dasharray:none;stroke-opacity:1"
         d="m 752.195,481.602 0,354.476" /><path
         id="path28"
         style="fill:none;stroke:#000000;stroke-width:11.95530033;stroke-linecap:butt;stroke-linejoin:miter;stroke-miterlimit:10;stroke-dasharray:none;stroke-opacity:1"
         d="m 838.262,481.602 0,288.25" /><path
         id="path30"
         style="fill:none;stroke:#000000;stroke-width:11.95530033;stroke-linecap:butt;stroke-linejoin:miter;stroke-miterlimit:10;stroke-dasharray:none;stroke-opacity:1"
         d="m 924.32,481.602 0,240.359" /><path
         id="path32"
         style="fill:none;stroke:#000000;stroke-width:11.95530033;stroke-linecap:butt;stroke-linejoin:miter;stroke-miterlimit:10;stroke-dasharray:none;stroke-opacity:1"
         d="m 1010.39,481.602 0,204.402" /><path
         id="path34"
         style="fill:none;stroke:#000000;stroke-width:11.95530033;stroke-linecap:butt;stroke-linejoin:miter;stroke-miterlimit:10;stroke-dasharray:none;stroke-opacity:1"
         d="m 1096.45,481.602 0,176.582" /><path
         id="path36"
         style="fill:none;stroke:#000000;stroke-width:11.95530033;stroke-linecap:butt;stroke-linejoin:miter;stroke-miterlimit:10;stroke-dasharray:none;stroke-opacity:1"
         d="m 1182.51,481.602 0,154.554" /><path
         id="path38"
         style="fill:none;stroke:#000000;stroke-width:7.97009993;stroke-linecap:butt;stroke-linejoin:miter;stroke-miterlimit:10;stroke-dasharray:none;stroke-opacity:1"
         d="m 170,352.004 0,16.195" /><path
         id="path40"
         style="fill:none;stroke:#000000;stroke-width:7.97009993;stroke-linecap:butt;stroke-linejoin:miter;stroke-miterlimit:10;stroke-dasharray:none;stroke-opacity:1"
         d="m 170,400.598 0,16.203" /><path
         id="path42"
         style="fill:none;stroke:#000000;stroke-width:7.97009993;stroke-linecap:butt;stroke-linejoin:miter;stroke-miterlimit:10;stroke-dasharray:none;stroke-opacity:1"
         d="m 170,416.801 0,16.195" /><path
         id="path44"
         style="fill:none;stroke:#000000;stroke-width:7.97009993;stroke-linecap:butt;stroke-linejoin:miter;stroke-miterlimit:10;stroke-dasharray:none;stroke-opacity:1"
         d="m 170,465.395 0,16.207" /><path
         id="path46"
         style="fill:none;stroke:#000000;stroke-width:7.97009993;stroke-linecap:butt;stroke-linejoin:miter;stroke-miterlimit:10;stroke-dasharray:none;stroke-opacity:1"
         d="m 1182.51,352.004 0,16.195" /><path
         id="path48"
         style="fill:none;stroke:#000000;stroke-width:7.97009993;stroke-linecap:butt;stroke-linejoin:miter;stroke-miterlimit:10;stroke-dasharray:none;stroke-opacity:1"
         d="m 1182.51,400.598 0,16.203" /><path
         id="path50"
         style="fill:none;stroke:#000000;stroke-width:7.97009993;stroke-linecap:butt;stroke-linejoin:miter;stroke-miterlimit:10;stroke-dasharray:none;stroke-opacity:1"
         d="m 1182.51,416.801 0,16.195" /><path
         id="path52"
         style="fill:none;stroke:#000000;stroke-width:7.97009993;stroke-linecap:butt;stroke-linejoin:miter;stroke-miterlimit:10;stroke-dasharray:none;stroke-opacity:1"
         d="m 1182.51,465.395 0,16.207" /><g
         transform="matrix(164.4,0,0,-127.2,250.286,421.537)"
         id="g54"><rect
           id="rect56"
           style="fill:#ffffff;fill-opacity:1;fill-rule:nonzero"
           transform="matrix(1,0,0,-1,0,1)"
           height="1"
           width="1"
           y="0"
           x="0" /></g><g
         transform="scale(10,10)"
         id="g58"><text
           id="text60"
           style="font-variant:normal;font-weight:normal;font-size:10.90909958px;font-family:CMMI10;-inkscape-font-specification:CMMI10;writing-mode:lr-tb;fill:#000000;fill-opacity:1;fill-rule:nonzero;stroke:none"
           transform="matrix(1,0,0,-1,28.0406,34.4855)"><tspan
             id="tspan62"
             y="0"
             x="0">v</tspan></text>
<text
           id="text64"
           style="font-variant:normal;font-weight:normal;font-size:8.96638012px;font-family:CMR9;-inkscape-font-specification:CMR9;writing-mode:lr-tb;fill:#000000;fill-opacity:1;fill-rule:nonzero;stroke:none"
           transform="matrix(1,0,0,-1,33.32068,32.44566)"><tspan
             id="tspan66"
             y="0"
             x="0">1</tspan></text>
</g><path
         id="path68"
         style="fill:#000000;fill-opacity:1;fill-rule:nonzero;stroke:none"
         d="m 179.645,461.012 0.507,-1.012 0.516,-0.965 0.559,-0.926 0.574,-0.879 0.601,-0.843 0.637,-0.813 0.66,-0.758 0.684,-0.738 0.703,-0.691 0.734,-0.66 0.758,-0.625 0.781,-0.582 0.801,-0.563 0.824,-0.516 0.856,-0.492 0.871,-0.453 0.898,-0.437 0.914,-0.395 0.946,-0.375 0.953,-0.34 0.976,-0.308 1,-0.297 1.024,-0.262 1.043,-0.23 1.055,-0.223 1.078,-0.184 1.097,-0.175 1.11,-0.145 1.133,-0.133 1.14,-0.097 1.176,-0.09 1.176,-0.075 1.199,-0.046 1.219,-0.032 1.218,-0.023 1.254,0 1.25,0.012 1.278,0.023 1.285,0.043 1.297,0.055 1.316,0.054 1.328,0.079 1.344,0.085 1.34,0.09 1.363,0.098 1.371,0.109 1.383,0.121 1.398,0.122 1.407,0.121 1.414,0.132 1.418,0.133 1.441,0.141 1.438,0.133 1.449,0.144 1.461,0.141 1.465,0.133 1.468,0.14 1.485,0.133 1.484,0.145 1.492,0.129 1.496,0.121 1.504,0.121 1.504,0.121 1.508,0.109 1.516,0.102 1.527,0.086 1.516,0.09 1.527,0.074 1.527,0.054 1.539,0.059 1.528,0.043 1.535,0.02 1.539,0.023 1.527,0 1.539,-0.023 1.539,-0.032 1.536,-0.043 1.539,-0.066 1.527,-0.09 1.539,-0.109 1.527,-0.121 1.528,-0.141 1.527,-0.164 1.527,-0.199 1.516,-0.211 1.516,-0.239 1.515,-0.253 1.504,-0.286 1.508,-0.32 1.492,-0.34 1.496,-0.363 1.481,-0.395 1.484,-0.429 1.473,-0.461 1.461,-0.485 1.461,-0.515 1.449,-0.559 1.441,-0.582 1.438,-0.617 1.418,-0.66 1.418,-0.692 1.406,-0.722 1.395,-0.758 1.382,-0.805 1.375,-0.843 1.364,-0.879 1.351,-0.926 1.34,-0.953 1.328,-1.012 1.309,-1.043 1.304,-1.09 1.286,-1.14 1.277,-1.176 1.262,-1.231 1.242,-1.273 1.23,-1.32 1.219,-1.364 1.199,-1.414 1.176,-1.472 1.176,-1.516 1.164,1.516 1.176,1.472 1.207,1.414 1.207,1.364 1.23,1.32 1.242,1.273 1.266,1.231 1.273,1.176 1.286,1.14 1.308,1.09 1.305,1.043 1.332,1.012 1.34,0.953 1.351,0.926 1.364,0.879 1.371,0.843 1.382,0.805 1.399,0.758 1.406,0.722 1.414,0.692 1.43,0.66 1.43,0.617 1.437,0.582 1.449,0.559 1.465,0.515 1.461,0.485 1.481,0.461 1.472,0.429 1.485,0.395 1.492,0.363 1.508,0.34 1.492,0.32 1.504,0.286 1.519,0.253 1.516,0.239 1.516,0.211 1.527,0.199 1.527,0.164 1.528,0.141 1.527,0.121 1.535,0.109 1.539,0.09 1.527,0.066 1.54,0.043 1.539,0.032 1.535,0.023 1.539,0 1.527,-0.023 1.539,-0.02 1.539,-0.043 1.528,-0.059 1.523,-0.054 1.527,-0.074 1.528,-0.09 1.515,-0.086 1.52,-0.102 1.504,-0.109 1.515,-0.121 1.496,-0.121 1.504,-0.121 1.485,-0.129 1.492,-0.145 1.473,-0.133 1.472,-0.14 1.461,-0.133 1.461,-0.141 1.449,-0.144 1.442,-0.133 1.437,-0.141 1.418,-0.133 1.418,-0.132 1.406,-0.121 1.395,-0.122 1.383,-0.121 1.375,-0.109 1.363,-0.098 1.352,-0.09 1.328,-0.085 1.328,-0.079 1.32,-0.054 1.297,-0.055 1.285,-0.043 1.274,-0.023 1.261,-0.012 1.243,0 1.23,0.023 1.211,0.032 1.195,0.046 1.188,0.075 1.164,0.09 1.14,0.097 1.133,0.133 1.121,0.145 1.09,0.175 1.074,0.184 1.067,0.223 1.031,0.23 1.024,0.262 1,0.297 0.976,0.308 0.969,0.34 0.933,0.375 0.911,0.395 0.902,0.437 0.867,0.453 0.856,0.492 0.824,0.516 0.805,0.563 0.777,0.582 0.758,0.625 0.738,0.66 0.703,0.691 0.691,0.738 0.649,0.758 0.637,0.813 0.605,0.843 0.582,0.879 0.547,0.926 0.527,0.965 0.496,1.012 -0.636,-1.321 -0.672,-1.25 -0.68,-1.211 -0.703,-1.164 -0.734,-1.097 -0.75,-1.067 -0.77,-1.007 -0.789,-0.969 -0.812,-0.91 -0.836,-0.879 -0.856,-0.825 -0.879,-0.792 -0.89,-0.747 -0.914,-0.703 -0.934,-0.66 -0.945,-0.625 -0.977,-0.582 -0.976,-0.539 -1.012,-0.516 -1.024,-0.472 -1.031,-0.442 -1.055,-0.406 -1.078,-0.363 -1.086,-0.34 -1.097,-0.309 -1.121,-0.273 -1.133,-0.242 -1.153,-0.219 -1.164,-0.199 -1.175,-0.153 -1.188,-0.144 -1.207,-0.109 -1.211,-0.086 -1.23,-0.067 -1.25,-0.043 -1.254,-0.011 -1.262,0 -1.285,0.019 -1.289,0.035 -1.305,0.055 -1.308,0.078 -1.317,0.086 -1.344,0.109 -1.339,0.121 -1.352,0.133 -1.359,0.145 -1.364,0.152 -1.386,0.176 -1.383,0.176 -1.395,0.187 -1.406,0.196 -1.406,0.199 -1.418,0.207 -1.418,0.211 -1.426,0.218 -1.441,0.219 -1.438,0.223 -1.441,0.23 -1.461,0.231 -1.449,0.219 -1.461,0.218 -1.461,0.231 -1.473,0.222 -1.473,0.207 -1.472,0.219 -1.481,0.199 -1.472,0.2 -1.485,0.195 -1.484,0.187 -1.492,0.165 -1.485,0.164 -1.484,0.156 -1.492,0.14 -1.485,0.133 -1.492,0.11 -1.484,0.097 -1.496,0.09 -1.481,0.067 -1.496,0.054 -1.48,0.031 -1.485,0.012 -1.472,-0.012 -1.485,-0.019 -1.472,-0.055 -1.469,-0.066 -1.473,-0.102 -1.461,-0.117 -1.461,-0.144 -1.464,-0.176 -1.45,-0.199 -1.449,-0.231 -1.441,-0.262 -1.438,-0.285 -1.43,-0.32 -1.414,-0.352 -1.418,-0.375 -1.418,-0.414 -1.394,-0.453 -1.395,-0.492 -1.398,-0.516 -1.371,-0.562 -1.375,-0.606 -1.359,-0.636 -1.352,-0.668 -1.352,-0.727 -1.332,-0.758 -1.328,-0.8 -1.308,-0.848 -1.305,-0.891 -1.285,-0.933 -1.289,-0.977 -1.262,-1.031 -1.262,-1.078 -1.242,-1.133 -1.23,-1.176 -1.231,-1.219 -1.199,-1.285 -1.195,-1.328 -1.176,-1.387 -1.164,-1.437 -1.168,1.437 -1.184,1.387 -1.187,1.328 -1.207,1.285 -1.223,1.219 -1.23,1.176 -1.25,1.133 -1.254,1.078 -1.274,1.031 -1.273,0.977 -1.297,0.933 -1.309,0.891 -1.308,0.848 -1.328,0.8 -1.328,0.758 -1.352,0.727 -1.352,0.668 -1.363,0.636 -1.371,0.606 -1.375,0.562 -1.383,0.516 -1.398,0.492 -1.406,0.453 -1.407,0.414 -1.426,0.375 -1.417,0.352 -1.43,0.32 -1.438,0.285 -1.441,0.262 -1.449,0.231 -1.45,0.199 -1.46,0.176 -1.461,0.144 -1.461,0.117 -1.473,0.102 -1.473,0.066 -1.472,0.055 -1.473,0.019 -1.48,0.012 -1.485,-0.012 -1.484,-0.031 -1.485,-0.054 -1.492,-0.067 -1.484,-0.09 -1.492,-0.097 -1.485,-0.11 -1.492,-0.133 -1.484,-0.14 -1.496,-0.156 -1.481,-0.164 -1.496,-0.165 -1.484,-0.187 -1.481,-0.195 -1.472,-0.2 -1.485,-0.199 -1.472,-0.219 -1.473,-0.207 -1.469,-0.222 -1.465,-0.231 -1.461,-0.218 -1.449,-0.219 -1.449,-0.231 -1.449,-0.23 -1.442,-0.223 -1.437,-0.219 -1.43,-0.218 -1.418,-0.211 -1.418,-0.207 -1.406,-0.199 -1.406,-0.196 -1.395,-0.187 -1.383,-0.176 -1.375,-0.176 -1.371,-0.152 -1.363,-0.145 -1.352,-0.133 -1.339,-0.121 -1.329,-0.109 -1.332,-0.086 -1.304,-0.078 -1.309,-0.055 -1.285,-0.035 -1.285,-0.019 -1.266,0 -1.25,0.011 -1.242,0.043 -1.23,0.067 -1.219,0.086 -1.211,0.109 -1.184,0.144 -1.176,0.153 -1.167,0.199 -1.153,0.219 -1.133,0.242 -1.117,0.273 -1.101,0.309 -1.086,0.34 -1.078,0.363 -1.055,0.406 -1.031,0.442 -1.024,0.472 -1,0.516 -0.988,0.539 -0.965,0.582 -0.957,0.625 -0.934,0.66 -0.91,0.703 -0.89,0.747 -0.879,0.792 -0.848,0.825 -0.836,0.879 -0.812,0.91 -0.801,0.969 -0.77,1.007 -0.746,1.067 -0.726,1.097 -0.715,1.164 -0.68,1.211 -0.66,1.25 -0.648,1.321" /><path
         id="path70"
         style="fill:none;stroke:#000000;stroke-width:3.9849999;stroke-linecap:butt;stroke-linejoin:miter;stroke-miterlimit:10;stroke-dasharray:none;stroke-opacity:1"
         d="m 179.645,461.012 0.507,-1.012 0.516,-0.965 0.559,-0.926 0.574,-0.879 0.601,-0.843 0.637,-0.813 0.66,-0.758 0.684,-0.738 0.703,-0.691 0.734,-0.66 0.758,-0.625 0.781,-0.582 0.801,-0.563 0.824,-0.516 0.856,-0.492 0.871,-0.453 0.898,-0.437 0.914,-0.395 0.946,-0.375 0.953,-0.34 0.976,-0.308 1,-0.297 1.024,-0.262 1.043,-0.23 1.055,-0.223 1.078,-0.184 1.097,-0.175 1.11,-0.145 1.133,-0.133 1.14,-0.097 1.176,-0.09 1.176,-0.075 1.199,-0.046 1.219,-0.032 1.218,-0.023 1.254,0 1.25,0.012 1.278,0.023 1.285,0.043 1.297,0.055 1.316,0.054 1.328,0.079 1.344,0.085 1.34,0.09 1.363,0.098 1.371,0.109 1.383,0.121 1.398,0.122 1.407,0.121 1.414,0.132 1.418,0.133 1.441,0.141 1.438,0.133 1.449,0.144 1.461,0.141 1.465,0.133 1.468,0.14 1.485,0.133 1.484,0.145 1.492,0.129 1.496,0.121 1.504,0.121 1.504,0.121 1.508,0.109 1.516,0.102 1.527,0.086 1.516,0.09 1.527,0.074 1.527,0.054 1.539,0.059 1.528,0.043 1.535,0.02 1.539,0.023 1.527,0 1.539,-0.023 1.539,-0.032 1.536,-0.043 1.539,-0.066 1.527,-0.09 1.539,-0.109 1.527,-0.121 1.528,-0.141 1.527,-0.164 1.527,-0.199 1.516,-0.211 1.516,-0.239 1.515,-0.253 1.504,-0.286 1.508,-0.32 1.492,-0.34 1.496,-0.363 1.481,-0.395 1.484,-0.429 1.473,-0.461 1.461,-0.485 1.461,-0.515 1.449,-0.559 1.441,-0.582 1.438,-0.617 1.418,-0.66 1.418,-0.692 1.406,-0.722 1.395,-0.758 1.382,-0.805 1.375,-0.843 1.364,-0.879 1.351,-0.926 1.34,-0.953 1.328,-1.012 1.309,-1.043 1.304,-1.09 1.286,-1.14 1.277,-1.176 1.262,-1.231 1.242,-1.273 1.23,-1.32 1.219,-1.364 1.199,-1.414 1.176,-1.472 1.176,-1.516 1.164,1.516 1.176,1.472 1.207,1.414 1.207,1.364 1.23,1.32 1.242,1.273 1.266,1.231 1.273,1.176 1.286,1.14 1.308,1.09 1.305,1.043 1.332,1.012 1.34,0.953 1.351,0.926 1.364,0.879 1.371,0.843 1.382,0.805 1.399,0.758 1.406,0.722 1.414,0.692 1.43,0.66 1.43,0.617 1.437,0.582 1.449,0.559 1.465,0.515 1.461,0.485 1.481,0.461 1.472,0.429 1.485,0.395 1.492,0.363 1.508,0.34 1.492,0.32 1.504,0.286 1.519,0.253 1.516,0.239 1.516,0.211 1.527,0.199 1.527,0.164 1.528,0.141 1.527,0.121 1.535,0.109 1.539,0.09 1.527,0.066 1.54,0.043 1.539,0.032 1.535,0.023 1.539,0 1.527,-0.023 1.539,-0.02 1.539,-0.043 1.528,-0.059 1.523,-0.054 1.527,-0.074 1.528,-0.09 1.515,-0.086 1.52,-0.102 1.504,-0.109 1.515,-0.121 1.496,-0.121 1.504,-0.121 1.485,-0.129 1.492,-0.145 1.473,-0.133 1.472,-0.14 1.461,-0.133 1.461,-0.141 1.449,-0.144 1.442,-0.133 1.437,-0.141 1.418,-0.133 1.418,-0.132 1.406,-0.121 1.395,-0.122 1.383,-0.121 1.375,-0.109 1.363,-0.098 1.352,-0.09 1.328,-0.085 1.328,-0.079 1.32,-0.054 1.297,-0.055 1.285,-0.043 1.274,-0.023 1.261,-0.012 1.243,0 1.23,0.023 1.211,0.032 1.195,0.046 1.188,0.075 1.164,0.09 1.14,0.097 1.133,0.133 1.121,0.145 1.09,0.175 1.074,0.184 1.067,0.223 1.031,0.23 1.024,0.262 1,0.297 0.976,0.308 0.969,0.34 0.933,0.375 0.911,0.395 0.902,0.437 0.867,0.453 0.856,0.492 0.824,0.516 0.805,0.563 0.777,0.582 0.758,0.625 0.738,0.66 0.703,0.691 0.691,0.738 0.649,0.758 0.637,0.813 0.605,0.843 0.582,0.879 0.547,0.926 0.527,0.965 0.496,1.012 -0.636,-1.321 -0.672,-1.25 -0.68,-1.211 -0.703,-1.164 -0.734,-1.097 -0.75,-1.067 -0.77,-1.007 -0.789,-0.969 -0.812,-0.91 -0.836,-0.879 -0.856,-0.825 -0.879,-0.792 -0.89,-0.747 -0.914,-0.703 -0.934,-0.66 -0.945,-0.625 -0.977,-0.582 -0.976,-0.539 -1.012,-0.516 -1.024,-0.472 -1.031,-0.442 -1.055,-0.406 -1.078,-0.363 -1.086,-0.34 -1.097,-0.309 -1.121,-0.273 -1.133,-0.242 -1.153,-0.219 -1.164,-0.199 -1.175,-0.153 -1.188,-0.144 -1.207,-0.109 -1.211,-0.086 -1.23,-0.067 -1.25,-0.043 -1.254,-0.011 -1.262,0 -1.285,0.019 -1.289,0.035 -1.305,0.055 -1.308,0.078 -1.317,0.086 -1.344,0.109 -1.339,0.121 -1.352,0.133 -1.359,0.145 -1.364,0.152 -1.386,0.176 -1.383,0.176 -1.395,0.187 -1.406,0.196 -1.406,0.199 -1.418,0.207 -1.418,0.211 -1.426,0.218 -1.441,0.219 -1.438,0.223 -1.441,0.23 -1.461,0.231 -1.449,0.219 -1.461,0.218 -1.461,0.231 -1.473,0.222 -1.473,0.207 -1.472,0.219 -1.481,0.199 -1.472,0.2 -1.485,0.195 -1.484,0.187 -1.492,0.165 -1.485,0.164 -1.484,0.156 -1.492,0.14 -1.485,0.133 -1.492,0.11 -1.484,0.097 -1.496,0.09 -1.481,0.067 -1.496,0.054 -1.48,0.031 -1.485,0.012 -1.472,-0.012 -1.485,-0.019 -1.472,-0.055 -1.469,-0.066 -1.473,-0.102 -1.461,-0.117 -1.461,-0.144 -1.464,-0.176 -1.45,-0.199 -1.449,-0.231 -1.441,-0.262 -1.438,-0.285 -1.43,-0.32 -1.414,-0.352 -1.418,-0.375 -1.418,-0.414 -1.394,-0.453 -1.395,-0.492 -1.398,-0.516 -1.371,-0.562 -1.375,-0.606 -1.359,-0.636 -1.352,-0.668 -1.352,-0.727 -1.332,-0.758 -1.328,-0.8 -1.308,-0.848 -1.305,-0.891 -1.285,-0.933 -1.289,-0.977 -1.262,-1.031 -1.262,-1.078 -1.242,-1.133 -1.23,-1.176 -1.231,-1.219 -1.199,-1.285 -1.195,-1.328 -1.176,-1.387 -1.164,-1.437 -1.168,1.437 -1.184,1.387 -1.187,1.328 -1.207,1.285 -1.223,1.219 -1.23,1.176 -1.25,1.133 -1.254,1.078 -1.274,1.031 -1.273,0.977 -1.297,0.933 -1.309,0.891 -1.308,0.848 -1.328,0.8 -1.328,0.758 -1.352,0.727 -1.352,0.668 -1.363,0.636 -1.371,0.606 -1.375,0.562 -1.383,0.516 -1.398,0.492 -1.406,0.453 -1.407,0.414 -1.426,0.375 -1.417,0.352 -1.43,0.32 -1.438,0.285 -1.441,0.262 -1.449,0.231 -1.45,0.199 -1.46,0.176 -1.461,0.144 -1.461,0.117 -1.473,0.102 -1.473,0.066 -1.472,0.055 -1.473,0.019 -1.48,0.012 -1.485,-0.012 -1.484,-0.031 -1.485,-0.054 -1.492,-0.067 -1.484,-0.09 -1.492,-0.097 -1.485,-0.11 -1.492,-0.133 -1.484,-0.14 -1.496,-0.156 -1.481,-0.164 -1.496,-0.165 -1.484,-0.187 -1.481,-0.195 -1.472,-0.2 -1.485,-0.199 -1.472,-0.219 -1.473,-0.207 -1.469,-0.222 -1.465,-0.231 -1.461,-0.218 -1.449,-0.219 -1.449,-0.231 -1.449,-0.23 -1.442,-0.223 -1.437,-0.219 -1.43,-0.218 -1.418,-0.211 -1.418,-0.207 -1.406,-0.199 -1.406,-0.196 -1.395,-0.187 -1.383,-0.176 -1.375,-0.176 -1.371,-0.152 -1.363,-0.145 -1.352,-0.133 -1.339,-0.121 -1.329,-0.109 -1.332,-0.086 -1.304,-0.078 -1.309,-0.055 -1.285,-0.035 -1.285,-0.019 -1.266,0 -1.25,0.011 -1.242,0.043 -1.23,0.067 -1.219,0.086 -1.211,0.109 -1.184,0.144 -1.176,0.153 -1.167,0.199 -1.153,0.219 -1.133,0.242 -1.117,0.273 -1.101,0.309 -1.086,0.34 -1.078,0.363 -1.055,0.406 -1.031,0.442 -1.024,0.472 -1,0.516 -0.988,0.539 -0.965,0.582 -0.957,0.625 -0.934,0.66 -0.91,0.703 -0.89,0.747 -0.879,0.792 -0.848,0.825 -0.836,0.879 -0.812,0.91 -0.801,0.969 -0.77,1.007 -0.746,1.067 -0.726,1.097 -0.715,1.164 -0.68,1.211 -0.66,1.25 -0.648,1.321 z" /><g
         transform="matrix(164.4,0,0,-127.2,594.536,230.175)"
         id="g72"><rect
           id="rect74"
           style="fill:#ffffff;fill-opacity:1;fill-rule:nonzero"
           transform="matrix(1,0,0,-1,0,1)"
           height="1"
           width="1"
           y="0"
           x="0" /></g><g
         transform="scale(10,10)"
         id="g76"><text
           id="text78"
           style="font-variant:normal;font-weight:normal;font-size:10.90909958px;font-family:CMMI10;-inkscape-font-specification:CMMI10;writing-mode:lr-tb;fill:#000000;fill-opacity:1;fill-rule:nonzero;stroke:none"
           transform="matrix(1,0,0,-1,62.4656,15.3496)"><tspan
             id="tspan80"
             y="0"
             x="0">v</tspan></text>
<text
           id="text82"
           style="font-variant:normal;font-weight:normal;font-size:8.96638012px;font-family:CMR9;-inkscape-font-specification:CMR9;writing-mode:lr-tb;fill:#000000;fill-opacity:1;fill-rule:nonzero;stroke:none"
           transform="matrix(1,0,0,-1,67.74568,13.30937)"><tspan
             id="tspan84"
             y="0"
             x="0">2</tspan></text>
</g><path
         id="path86"
         style="fill:#000000;fill-opacity:1;fill-rule:nonzero;stroke:none"
         d="m 189.305,331.402 1.031,-2.523 1.152,-2.43 1.297,-2.34 1.418,-2.261 1.539,-2.168 1.656,-2.075 1.782,-2 1.902,-1.91 2.008,-1.824 2.133,-1.758 2.242,-1.672 2.351,-1.593 2.461,-1.528 2.571,-1.449 2.656,-1.371 2.781,-1.309 2.867,-1.242 2.965,-1.176 3.067,-1.109 3.164,-1.043 3.242,-0.988 3.34,-0.922 3.425,-0.871 3.516,-0.813 3.606,-0.757 3.679,-0.704 3.758,-0.648 3.832,-0.594 3.914,-0.558 3.988,-0.504 4.055,-0.465 4.129,-0.406 4.195,-0.383 4.266,-0.328 4.316,-0.297 4.383,-0.266 4.449,-0.219 4.504,-0.199 4.563,-0.152 4.613,-0.133 4.656,-0.098 4.715,-0.078 4.77,-0.043 4.8,-0.023 4.856,-0.012 4.887,0.024 4.933,0.035 4.969,0.054 4.996,0.075 5.043,0.078 5.066,0.097 5.098,0.11 5.129,0.113 5.141,0.117 5.175,0.133 5.2,0.133 5.218,0.133 5.227,0.129 5.254,0.132 5.262,0.133 5.261,0.121 5.285,0.121 5.297,0.122 5.282,0.097 5.297,0.098 5.304,0.078 5.297,0.066 5.297,0.043 5.285,0.036 5.281,0.019 5.274,-0.012 5.265,-0.031 5.25,-0.055 5.231,-0.078 5.219,-0.097 5.207,-0.145 5.175,-0.164 5.153,-0.195 5.129,-0.231 5.109,-0.265 5.066,-0.309 5.04,-0.34 5.011,-0.383 4.977,-0.429 4.945,-0.473 4.899,-0.516 4.855,-0.562 4.813,-0.613 4.769,-0.661 4.723,-0.714 4.672,-0.77 4.625,-0.812 4.57,-0.891 4.504,-0.934 4.461,-1 4.394,-1.054 4.34,-1.118 4.274,-1.199 4.207,-1.254 4.14,-1.316 4.067,-1.395 4,-1.472 3.922,-1.539 3.855,-1.606 3.769,-1.691 3.692,-1.77 3.613,-1.855 3.539,-1.922 3.438,-2.012 3.351,-2.109 3.274,-2.176 3.176,-2.273 3.074,-2.364 2.988,-2.461 2.891,-2.535 2.789,-2.648 2.683,-2.735 2.59,-2.835 2.473,-2.946 2.375,-3.031 2.371,3.031 2.473,2.946 2.593,2.835 2.68,2.735 2.789,2.648 2.891,2.535 2.988,2.461 3.078,2.364 3.172,2.273 3.273,2.176 3.352,2.109 3.441,2.012 3.536,1.922 3.617,1.855 3.691,1.77 3.766,1.691 3.859,1.606 3.922,1.539 3.996,1.472 4.066,1.395 4.141,1.316 4.211,1.254 4.274,1.199 4.339,1.118 4.395,1.054 4.457,1 4.508,0.934 4.57,0.891 4.625,0.812 4.668,0.77 4.723,0.714 4.769,0.661 4.813,0.613 4.855,0.562 4.899,0.516 4.945,0.473 4.976,0.429 5.012,0.383 5.043,0.34 5.063,0.309 5.109,0.265 5.133,0.231 5.152,0.195 5.172,0.164 5.207,0.145 5.219,0.097 5.23,0.078 5.254,0.055 5.262,0.031 5.273,0.012 5.286,-0.019 5.281,-0.036 5.297,-0.043 5.297,-0.066 5.292,-0.078 5.309,-0.098 5.285,-0.097 5.293,-0.122 5.274,-0.121 5.273,-0.121 5.266,-0.133 5.25,-0.132 5.23,-0.129 5.219,-0.133 5.184,-0.133 5.187,-0.133 5.141,-0.117 5.129,-0.113 5.097,-0.11 5.067,-0.097 5.043,-0.078 5.001,-0.075 4.98,-0.054 4.92,-0.035 4.9,-0.024 4.84,0.012 4.8,0.023 4.77,0.043 4.71,0.078 4.67,0.098 4.61,0.133 4.56,0.152 4.5,0.199 4.44,0.219 4.39,0.266 4.32,0.297 4.26,0.328 4.2,0.383 4.13,0.406 4.06,0.465 3.98,0.504 3.92,0.558 3.83,0.594 3.76,0.648 3.68,0.704 3.6,0.757 3.52,0.813 3.42,0.871 3.34,0.922 3.24,0.988 3.17,1.043 3.06,1.109 2.97,1.176 2.88,1.242 2.76,1.309 2.67,1.371 2.57,1.449 2.46,1.528 2.35,1.593 2.24,1.672 2.12,1.758 2.02,1.824 1.9,1.91 1.78,2 1.66,2.075 1.54,2.168 1.42,2.261 1.29,2.34 1.16,2.43 1.03,2.523 -1.51,-3.535 -1.61,-3.406 -1.73,-3.297 -1.85,-3.164 -1.95,-3.043 -2.06,-2.922 -2.17,-2.812 -2.26,-2.692 -2.37,-2.593 -2.47,-2.473 -2.57,-2.36 -2.65,-2.265 -2.76,-2.152 -2.85,-2.055 -2.94,-1.945 -3.03,-1.856 -3.11,-1.758 -3.2,-1.672 -3.28,-1.57 -3.38,-1.484 -3.44,-1.395 -3.52,-1.316 -3.59,-1.219 -3.69,-1.156 -3.74,-1.067 -3.82,-0.988 -3.88,-0.91 -3.96,-0.836 -4.02,-0.77 -4.08,-0.703 -4.14,-0.636 -4.2,-0.559 -4.27,-0.508 -4.31,-0.449 -4.38,-0.383 -4.42,-0.332 -4.48,-0.262 -4.51,-0.222 -4.58,-0.176 -4.62,-0.117 -4.66,-0.078 -4.7,-0.024 -4.75,0.012 -4.76,0.055 -4.82,0.089 -4.85,0.129 -4.891,0.157 -4.91,0.195 -4.946,0.23 -4.964,0.254 -5,0.274 -5.02,0.308 -5.031,0.321 -5.067,0.351 -5.074,0.363 -5.097,0.372 -5.11,0.394 -5.121,0.406 -5.141,0.407 -5.128,0.429 -5.153,0.43 -5.152,0.43 -5.164,0.425 -5.153,0.43 -5.164,0.43 -5.164,0.426 -5.152,0.418 -5.145,0.406 -5.152,0.398 -5.129,0.383 -5.121,0.375 -5.109,0.352 -5.098,0.339 -5.074,0.309 -5.067,0.285 -5.031,0.274 -5.019,0.23 -5,0.207 -4.965,0.176 -4.946,0.144 -4.91,0.11 -4.886,0.066 -4.848,0.031 -4.813,-0.007 -4.777,-0.055 -4.746,-0.102 -4.703,-0.14 -4.656,-0.199 -4.618,-0.254 -4.57,-0.305 -4.523,-0.352 -4.473,-0.418 -4.418,-0.484 -4.371,-0.539 -4.316,-0.602 -4.266,-0.671 -4.195,-0.735 -4.141,-0.816 -4.09,-0.879 -4.019,-0.953 -3.946,-1.035 -3.886,-1.11 -3.813,-1.195 -3.746,-1.277 -3.672,-1.348 -3.601,-1.453 -3.516,-1.535 -3.453,-1.629 -3.36,-1.715 -3.285,-1.813 -3.199,-1.91 -3.117,-2.011 -3.024,-2.11 -2.945,-2.207 -2.844,-2.316 -2.746,-2.43 -2.672,-2.539 -2.558,-2.648 -2.473,-2.754 -2.359,-2.879 -2.363,2.879 -2.473,2.754 -2.559,2.648 -2.672,2.539 -2.746,2.43 -2.843,2.316 -2.946,2.207 -3.019,2.11 -3.121,2.011 -3.2,1.91 -3.285,1.813 -3.359,1.715 -3.449,1.629 -3.516,1.535 -3.605,1.453 -3.668,1.348 -3.746,1.277 -3.813,1.195 -3.891,1.11 -3.945,1.035 -4.019,0.953 -4.086,0.879 -4.145,0.816 -4.195,0.735 -4.262,0.671 -4.32,0.602 -4.371,0.539 -4.418,0.484 -4.469,0.418 -4.527,0.352 -4.571,0.305 -4.613,0.254 -4.66,0.199 -4.703,0.14 -4.746,0.102 -4.778,0.055 -4.812,0.007 -4.844,-0.031 -4.891,-0.066 -4.91,-0.11 -4.945,-0.144 -4.965,-0.176 -5,-0.207 -5.019,-0.23 -5.032,-0.274 -5.066,-0.285 -5.074,-0.309 -5.098,-0.339 -5.109,-0.352 -5.121,-0.375 -5.129,-0.383 -5.141,-0.398 -5.156,-0.406 -5.153,-0.418 -5.16,-0.426 -5.156,-0.43 -5.16,-0.43 -5.164,-0.425 -5.153,-0.43 -5.144,-0.43 -5.152,-0.429 -5.129,-0.407 -5.121,-0.406 -5.11,-0.394 -5.097,-0.372 -5.075,-0.363 -5.066,-0.351 -5.031,-0.321 -5.02,-0.308 -5,-0.274 -4.965,-0.254 -4.945,-0.23 -4.91,-0.195 -4.891,-0.157 -4.844,-0.129 -4.824,-0.089 -4.777,-0.055 -4.735,-0.012 -4.703,0.024 -4.656,0.078 -4.629,0.117 -4.57,0.176 -4.516,0.222 -4.48,0.262 -4.418,0.332 -4.371,0.383 -4.317,0.449 -4.265,0.508 -4.207,0.559 -4.141,0.636 -4.078,0.703 -4.02,0.77 -3.957,0.836 -3.886,0.91 -3.813,0.988 -3.746,1.067 -3.672,1.156 -3.601,1.219 -3.528,1.316 -3.437,1.395 -3.375,1.484 -3.285,1.57 -3.196,1.672 -3.109,1.758 -3.031,1.856 -2.946,1.945 -2.847,2.055 -2.758,2.152 -2.656,2.265 -2.571,2.36 -2.461,2.473 -2.375,2.593 -2.261,2.692 -2.164,2.812 -2.067,2.922 -1.945,3.043 -1.844,3.164 -1.738,3.297 -1.613,3.406 -1.504,3.535" /><path
         id="path88"
         style="fill:none;stroke:#000000;stroke-width:3.9849999;stroke-linecap:butt;stroke-linejoin:miter;stroke-miterlimit:10;stroke-dasharray:none;stroke-opacity:1"
         d="m 189.305,331.402 1.031,-2.523 1.152,-2.43 1.297,-2.34 1.418,-2.261 1.539,-2.168 1.656,-2.075 1.782,-2 1.902,-1.91 2.008,-1.824 2.133,-1.758 2.242,-1.672 2.351,-1.593 2.461,-1.528 2.571,-1.449 2.656,-1.371 2.781,-1.309 2.867,-1.242 2.965,-1.176 3.067,-1.109 3.164,-1.043 3.242,-0.988 3.34,-0.922 3.425,-0.871 3.516,-0.813 3.606,-0.757 3.679,-0.704 3.758,-0.648 3.832,-0.594 3.914,-0.558 3.988,-0.504 4.055,-0.465 4.129,-0.406 4.195,-0.383 4.266,-0.328 4.316,-0.297 4.383,-0.266 4.449,-0.219 4.504,-0.199 4.563,-0.152 4.613,-0.133 4.656,-0.098 4.715,-0.078 4.77,-0.043 4.8,-0.023 4.856,-0.012 4.887,0.024 4.933,0.035 4.969,0.054 4.996,0.075 5.043,0.078 5.066,0.097 5.098,0.11 5.129,0.113 5.141,0.117 5.175,0.133 5.2,0.133 5.218,0.133 5.227,0.129 5.254,0.132 5.262,0.133 5.261,0.121 5.285,0.121 5.297,0.122 5.282,0.097 5.297,0.098 5.304,0.078 5.297,0.066 5.297,0.043 5.285,0.036 5.281,0.019 5.274,-0.012 5.265,-0.031 5.25,-0.055 5.231,-0.078 5.219,-0.097 5.207,-0.145 5.175,-0.164 5.153,-0.195 5.129,-0.231 5.109,-0.265 5.066,-0.309 5.04,-0.34 5.011,-0.383 4.977,-0.429 4.945,-0.473 4.899,-0.516 4.855,-0.562 4.813,-0.613 4.769,-0.661 4.723,-0.714 4.672,-0.77 4.625,-0.812 4.57,-0.891 4.504,-0.934 4.461,-1 4.394,-1.054 4.34,-1.118 4.274,-1.199 4.207,-1.254 4.14,-1.316 4.067,-1.395 4,-1.472 3.922,-1.539 3.855,-1.606 3.769,-1.691 3.692,-1.77 3.613,-1.855 3.539,-1.922 3.438,-2.012 3.351,-2.109 3.274,-2.176 3.176,-2.273 3.074,-2.364 2.988,-2.461 2.891,-2.535 2.789,-2.648 2.683,-2.735 2.59,-2.835 2.473,-2.946 2.375,-3.031 2.371,3.031 2.473,2.946 2.593,2.835 2.68,2.735 2.789,2.648 2.891,2.535 2.988,2.461 3.078,2.364 3.172,2.273 3.273,2.176 3.352,2.109 3.441,2.012 3.536,1.922 3.617,1.855 3.691,1.77 3.766,1.691 3.859,1.606 3.922,1.539 3.996,1.472 4.066,1.395 4.141,1.316 4.211,1.254 4.274,1.199 4.339,1.118 4.395,1.054 4.457,1 4.508,0.934 4.57,0.891 4.625,0.812 4.668,0.77 4.723,0.714 4.769,0.661 4.813,0.613 4.855,0.562 4.899,0.516 4.945,0.473 4.976,0.429 5.012,0.383 5.043,0.34 5.063,0.309 5.109,0.265 5.133,0.231 5.152,0.195 5.172,0.164 5.207,0.145 5.219,0.097 5.23,0.078 5.254,0.055 5.262,0.031 5.273,0.012 5.286,-0.019 5.281,-0.036 5.297,-0.043 5.297,-0.066 5.292,-0.078 5.309,-0.098 5.285,-0.097 5.293,-0.122 5.274,-0.121 5.273,-0.121 5.266,-0.133 5.25,-0.132 5.23,-0.129 5.219,-0.133 5.184,-0.133 5.187,-0.133 5.141,-0.117 5.129,-0.113 5.097,-0.11 5.067,-0.097 5.043,-0.078 5.001,-0.075 4.98,-0.054 4.92,-0.035 4.9,-0.024 4.84,0.012 4.8,0.023 4.77,0.043 4.71,0.078 4.67,0.098 4.61,0.133 4.56,0.152 4.5,0.199 4.44,0.219 4.39,0.266 4.32,0.297 4.26,0.328 4.2,0.383 4.13,0.406 4.06,0.465 3.98,0.504 3.92,0.558 3.83,0.594 3.76,0.648 3.68,0.704 3.6,0.757 3.52,0.813 3.42,0.871 3.34,0.922 3.24,0.988 3.17,1.043 3.06,1.109 2.97,1.176 2.88,1.242 2.76,1.309 2.67,1.371 2.57,1.449 2.46,1.528 2.35,1.593 2.24,1.672 2.12,1.758 2.02,1.824 1.9,1.91 1.78,2 1.66,2.075 1.54,2.168 1.42,2.261 1.29,2.34 1.16,2.43 1.03,2.523 -1.51,-3.535 -1.61,-3.406 -1.73,-3.297 -1.85,-3.164 -1.95,-3.043 -2.06,-2.922 -2.17,-2.812 -2.26,-2.692 -2.37,-2.593 -2.47,-2.473 -2.57,-2.36 -2.65,-2.265 -2.76,-2.152 -2.85,-2.055 -2.94,-1.945 -3.03,-1.856 -3.11,-1.758 -3.2,-1.672 -3.28,-1.57 -3.38,-1.484 -3.44,-1.395 -3.52,-1.316 -3.59,-1.219 -3.69,-1.156 -3.74,-1.067 -3.82,-0.988 -3.88,-0.91 -3.96,-0.836 -4.02,-0.77 -4.08,-0.703 -4.14,-0.636 -4.2,-0.559 -4.27,-0.508 -4.31,-0.449 -4.38,-0.383 -4.42,-0.332 -4.48,-0.262 -4.51,-0.222 -4.58,-0.176 -4.62,-0.117 -4.66,-0.078 -4.7,-0.024 -4.75,0.012 -4.76,0.055 -4.82,0.089 -4.85,0.129 -4.891,0.157 -4.91,0.195 -4.946,0.23 -4.964,0.254 -5,0.274 -5.02,0.308 -5.031,0.321 -5.067,0.351 -5.074,0.363 -5.097,0.372 -5.11,0.394 -5.121,0.406 -5.141,0.407 -5.128,0.429 -5.153,0.43 -5.152,0.43 -5.164,0.425 -5.153,0.43 -5.164,0.43 -5.164,0.426 -5.152,0.418 -5.145,0.406 -5.152,0.398 -5.129,0.383 -5.121,0.375 -5.109,0.352 -5.098,0.339 -5.074,0.309 -5.067,0.285 -5.031,0.274 -5.019,0.23 -5,0.207 -4.965,0.176 -4.946,0.144 -4.91,0.11 -4.886,0.066 -4.848,0.031 -4.813,-0.007 -4.777,-0.055 -4.746,-0.102 -4.703,-0.14 -4.656,-0.199 -4.618,-0.254 -4.57,-0.305 -4.523,-0.352 -4.473,-0.418 -4.418,-0.484 -4.371,-0.539 -4.316,-0.602 -4.266,-0.671 -4.195,-0.735 -4.141,-0.816 -4.09,-0.879 -4.019,-0.953 -3.946,-1.035 -3.886,-1.11 -3.813,-1.195 -3.746,-1.277 -3.672,-1.348 -3.601,-1.453 -3.516,-1.535 -3.453,-1.629 -3.36,-1.715 -3.285,-1.813 -3.199,-1.91 -3.117,-2.011 -3.024,-2.11 -2.945,-2.207 -2.844,-2.316 -2.746,-2.43 -2.672,-2.539 -2.558,-2.648 -2.473,-2.754 -2.359,-2.879 -2.363,2.879 -2.473,2.754 -2.559,2.648 -2.672,2.539 -2.746,2.43 -2.843,2.316 -2.946,2.207 -3.019,2.11 -3.121,2.011 -3.2,1.91 -3.285,1.813 -3.359,1.715 -3.449,1.629 -3.516,1.535 -3.605,1.453 -3.668,1.348 -3.746,1.277 -3.813,1.195 -3.891,1.11 -3.945,1.035 -4.019,0.953 -4.086,0.879 -4.145,0.816 -4.195,0.735 -4.262,0.671 -4.32,0.602 -4.371,0.539 -4.418,0.484 -4.469,0.418 -4.527,0.352 -4.571,0.305 -4.613,0.254 -4.66,0.199 -4.703,0.14 -4.746,0.102 -4.778,0.055 -4.812,0.007 -4.844,-0.031 -4.891,-0.066 -4.91,-0.11 -4.945,-0.144 -4.965,-0.176 -5,-0.207 -5.019,-0.23 -5.032,-0.274 -5.066,-0.285 -5.074,-0.309 -5.098,-0.339 -5.109,-0.352 -5.121,-0.375 -5.129,-0.383 -5.141,-0.398 -5.156,-0.406 -5.153,-0.418 -5.16,-0.426 -5.156,-0.43 -5.16,-0.43 -5.164,-0.425 -5.153,-0.43 -5.144,-0.43 -5.152,-0.429 -5.129,-0.407 -5.121,-0.406 -5.11,-0.394 -5.097,-0.372 -5.075,-0.363 -5.066,-0.351 -5.031,-0.321 -5.02,-0.308 -5,-0.274 -4.965,-0.254 -4.945,-0.23 -4.91,-0.195 -4.891,-0.157 -4.844,-0.129 -4.824,-0.089 -4.777,-0.055 -4.735,-0.012 -4.703,0.024 -4.656,0.078 -4.629,0.117 -4.57,0.176 -4.516,0.222 -4.48,0.262 -4.418,0.332 -4.371,0.383 -4.317,0.449 -4.265,0.508 -4.207,0.559 -4.141,0.636 -4.078,0.703 -4.02,0.77 -3.957,0.836 -3.886,0.91 -3.813,0.988 -3.746,1.067 -3.672,1.156 -3.601,1.219 -3.528,1.316 -3.437,1.395 -3.375,1.484 -3.285,1.57 -3.196,1.672 -3.109,1.758 -3.031,1.856 -2.946,1.945 -2.847,2.055 -2.758,2.152 -2.656,2.265 -2.571,2.36 -2.461,2.473 -2.375,2.593 -2.261,2.692 -2.164,2.812 -2.067,2.922 -1.945,3.043 -1.844,3.164 -1.738,3.297 -1.613,3.406 -1.504,3.535 z" /><g
         transform="matrix(166.8,0,0,-128.4,237.353,973.192)"
         id="g90"><rect
           id="rect92"
           style="fill:#ffffff;fill-opacity:1;fill-rule:nonzero"
           transform="matrix(1,0,0,-1,0,1)"
           height="1"
           width="1"
           y="0"
           x="0" /></g><g
         transform="scale(10,10)"
         id="g94"><text
           id="text96"
           style="font-variant:normal;font-weight:normal;font-size:10.90909958px;font-family:CMMI10;-inkscape-font-specification:CMMI10;writing-mode:lr-tb;fill:#000000;fill-opacity:1;fill-rule:nonzero;stroke:none"
           transform="matrix(1,0,0,-1,26.7473,89.5312)"><tspan
             id="tspan98"
             y="0"
             x="0">p</tspan></text>
<text
           id="text100"
           style="font-variant:normal;font-weight:normal;font-size:8.96638012px;font-family:CMR9;-inkscape-font-specification:CMR9;writing-mode:lr-tb;fill:#000000;fill-opacity:1;fill-rule:nonzero;stroke:none"
           transform="matrix(1,0,0,-1,32.26722,87.49136)"><tspan
             id="tspan102"
             y="0"
             x="0">1</tspan></text>
</g><path
         id="path104"
         style="fill:#000000;fill-opacity:1;fill-rule:nonzero;stroke:none"
         d="m 474.699,1314.84 -2.363,-1.08 -2.285,-1.17 -2.196,-1.26 -2.109,-1.35 -2.035,-1.44 -1.953,-1.53 -1.867,-1.6 -1.793,-1.69 -1.715,-1.78 -1.649,-1.86 -1.57,-1.94 -1.492,-2.03 -1.43,-2.08 -1.351,-2.18 -1.297,-2.24 -1.231,-2.32 -1.164,-2.39 -1.097,-2.46 -1.032,-2.54 -0.992,-2.6 -0.922,-2.66 -0.867,-2.74 -0.812,-2.79 -0.758,-2.86 -0.703,-2.92 -0.661,-2.97 -0.613,-3.04 -0.562,-3.1 -0.516,-3.15 -0.473,-3.19 -0.429,-3.27 -0.395,-3.3 -0.351,-3.36 -0.321,-3.4 -0.273,-3.46 -0.242,-3.5 -0.207,-3.55 -0.176,-3.59 -0.156,-3.63 -0.121,-3.66 -0.098,-3.72 -0.067,-3.74 -0.043,-3.78 -0.023,-3.83 0,-3.85 0.012,-3.89 0.035,-3.91 0.055,-3.96 0.066,-3.98 0.074,-4 0.09,-4.03 0.098,-4.04 0.109,-4.07 0.11,-4.1 0.121,-4.12 0.121,-4.14 0.132,-4.16 0.122,-4.16 0.132,-4.19 0.122,-4.19 0.109,-4.21 0.121,-4.22 0.098,-4.23 0.097,-4.24 0.09,-4.24 0.074,-4.25 0.067,-4.26 0.047,-4.26 0.031,-4.25 0.012,-4.26 -0.012,-4.26 -0.024,-4.25 -0.054,-4.25 -0.074,-4.24 -0.102,-4.23 -0.121,-4.23 -0.152,-4.22 -0.188,-4.2 -0.219,-4.19 -0.254,-4.18 -0.285,-4.16 -0.316,-4.15 -0.363,-4.13 -0.395,-4.11 -0.453,-4.09 -0.484,-4.06 -0.528,-4.05 -0.57,-4.02 -0.613,-3.99 -0.672,-3.96 -0.715,-3.95 -0.778,-3.9 -0.824,-3.876 -0.879,-3.832 -0.933,-3.813 -0.988,-3.769 -1.055,-3.735 -1.121,-3.691 -1.176,-3.66 -1.242,-3.614 -1.309,-3.57 -1.371,-3.539 -1.441,-3.484 -1.516,-3.426 -1.582,-3.395 -1.66,-3.34 -1.723,-3.285 -1.812,-3.242 -1.891,-3.176 -1.965,-3.129 -2.047,-3.078 -2.129,-3.008 -2.218,-2.957 -2.297,-2.898 -2.395,-2.836 -2.472,-2.769 -2.571,-2.704 -2.66,-2.644 -2.746,-2.574 -2.855,-2.504 2.855,-2.504 2.746,-2.57 2.66,-2.649 2.571,-2.703 2.472,-2.77 2.395,-2.832 2.297,-2.902 2.218,-2.953 2.129,-3.012 2.047,-3.078 1.965,-3.129 1.891,-3.176 1.812,-3.242 1.723,-3.285 1.66,-3.34 1.582,-3.394 1.516,-3.426 1.441,-3.485 1.371,-3.535 1.309,-3.574 1.242,-3.613 1.176,-3.649 1.121,-3.699 1.055,-3.738 0.988,-3.766 0.933,-3.812 0.879,-3.836 0.824,-3.879 0.778,-3.899 0.715,-3.945 0.672,-3.965 0.613,-3.988 0.57,-4.023 0.528,-4.043 0.484,-4.063 0.453,-4.09 0.395,-4.105 0.363,-4.133 0.316,-4.152 0.285,-4.164 0.254,-4.176 0.219,-4.184 0.188,-4.211 0.152,-4.218 0.121,-4.227 0.102,-4.23 0.074,-4.243 0.054,-4.25 0.024,-4.254 0.012,-4.25 -0.012,-4.261 -0.031,-4.254 -0.047,-4.262 -0.067,-4.254 -0.074,-4.238 -0.09,-4.254 -0.097,-4.23 -0.098,-4.227 -0.121,-4.23 -0.109,-4.208 -0.122,-4.199 -0.132,-4.183 -0.122,-4.164 -0.132,-4.153 -0.121,-4.144 -0.121,-4.11 -0.11,-4.097 -0.109,-4.075 -0.098,-4.054 -0.09,-4.031 -0.074,-4 -0.066,-3.977 -0.055,-3.945 -0.035,-3.922 -0.012,-3.891 0,-3.844 0.023,-3.824 0.043,-3.789 0.067,-3.746 0.098,-3.715 0.121,-3.668 0.156,-3.625 0.176,-3.594 0.207,-3.546 0.242,-3.496 0.273,-3.461 0.321,-3.407 0.351,-3.347 0.395,-3.309 0.429,-3.262 0.473,-3.199 0.516,-3.152 0.562,-3.098 0.613,-3.031 0.661,-2.981 0.703,-2.921 0.758,-2.856 0.812,-2.789 0.867,-2.738 0.922,-2.668 0.992,-2.594 1.032,-2.539 1.097,-2.461 1.164,-2.383 1.231,-2.328 1.297,-2.242 1.351,-2.176 1.43,-2.086 1.492,-2.023 1.57,-1.946 1.649,-1.855 1.715,-1.777 1.793,-1.696 1.867,-1.601 1.953,-1.528 2.035,-1.441 2.109,-1.352 2.196,-1.261 2.285,-1.164 2.363,-1.078 -3.32,1.582 -3.195,1.66 -3.086,1.734 -2.969,1.805 -2.844,1.879 -2.746,1.941 -2.637,2.023 -2.527,2.086 -2.43,2.153 -2.316,2.222 -2.211,2.286 -2.117,2.351 -2.024,2.414 -1.922,2.473 -1.835,2.539 -1.735,2.594 -1.648,2.644 -1.559,2.715 -1.484,2.758 -1.387,2.824 -1.316,2.879 -1.219,2.922 -1.152,2.976 -1.079,3.032 -1,3.078 -0.921,3.121 -0.86,3.172 -0.789,3.219 -0.726,3.265 -0.649,3.305 -0.594,3.34 -0.535,3.394 -0.472,3.43 -0.418,3.473 -0.352,3.503 -0.309,3.54 -0.265,3.57 -0.207,3.613 -0.153,3.649 -0.109,3.668 -0.078,3.714 -0.024,3.735 0.012,3.758 0.043,3.789 0.09,3.824 0.121,3.844 0.152,3.867 0.188,3.89 0.207,3.899 0.23,3.933 0.266,3.957 0.285,3.965 0.309,3.989 0.316,4 0.344,4.011 0.359,4.032 0.364,4.043 0.386,4.054 0.383,4.063 0.395,4.066 0.398,4.074 0.406,4.09 0.407,4.098 0.406,4.086 0.394,4.097 0.407,4.11 0.386,4.097 0.383,4.098 0.375,4.098 0.36,4.097 0.343,4.098 0.34,4.086 0.305,4.078 0.297,4.074 0.265,4.067 0.254,4.066 0.219,4.043 0.199,4.031 0.164,4.02 0.129,4.012 0.113,3.988 0.055,3.977 0.031,3.953 -0.011,3.945 -0.043,3.922 -0.098,3.902 -0.144,3.867 -0.188,3.856 -0.23,3.832 -0.286,3.805 -0.328,3.777 -0.398,3.746 -0.449,3.715 -0.504,3.691 -0.571,3.656 -0.628,3.629 -0.692,3.59 -0.758,3.559 -0.824,3.519 -0.902,3.481 -0.965,3.449 -1.031,3.406 -1.121,3.375 -1.2,3.317 -1.273,3.285 -1.352,3.23 -1.441,3.196 -1.524,3.144 -1.605,3.098 -1.703,3.055 -1.789,2.996 -1.891,2.957 -1.976,2.89 -2.079,2.844 -2.164,2.793 -2.273,2.734 -2.387,2.68 -2.48,2.617 -2.582,2.559 -2.692,2.504 2.692,2.504 2.582,2.562 2.48,2.613 2.387,2.68 2.273,2.738 2.164,2.789 2.079,2.844 1.976,2.903 1.891,2.945 1.789,3 1.703,3.051 1.605,3.101 1.524,3.141 1.441,3.195 1.352,3.231 1.273,3.285 1.2,3.328 1.121,3.363 1.031,3.406 0.965,3.45 0.902,3.484 0.824,3.516 0.758,3.558 0.692,3.594 0.628,3.625 0.571,3.656 0.504,3.692 0.449,3.714 0.398,3.75 0.328,3.78 0.286,3.8 0.23,3.83 0.188,3.86 0.144,3.87 0.098,3.9 0.043,3.92 0.011,3.94 -0.031,3.96 -0.055,3.97 -0.113,3.99 -0.129,4.01 -0.164,4.02 -0.199,4.04 -0.219,4.05 -0.254,4.05 -0.265,4.07 -0.297,4.07 -0.305,4.08 -0.34,4.09 -0.343,4.09 -0.36,4.1 -0.375,4.1 -0.383,4.1 -0.386,4.11 -0.407,4.09 -0.394,4.1 -0.406,4.1 -0.407,4.09 -0.406,4.09 -0.398,4.07 -0.395,4.08 -0.383,4.05 -0.386,4.05 -0.364,4.05 -0.359,4.03 -0.344,4.01 -0.316,4 -0.309,3.99 -0.285,3.96 -0.266,3.96 -0.23,3.93 -0.207,3.91 -0.188,3.89 -0.152,3.86 -0.121,3.84 -0.09,3.83 -0.043,3.79 -0.012,3.75 0.024,3.74 0.078,3.71 0.109,3.67 0.153,3.65 0.207,3.61 0.265,3.58 0.309,3.54 0.352,3.51 0.418,3.46 0.472,3.44 0.535,3.38 0.594,3.34 0.649,3.31 0.726,3.26 0.789,3.22 0.86,3.18 0.921,3.12 1,3.07 1.079,3.04 1.152,2.97 1.219,2.94 1.316,2.86 1.387,2.83 1.484,2.77 1.559,2.7 1.648,2.66 1.735,2.59 1.835,2.53 1.922,2.47 2.024,2.42 2.117,2.35 2.211,2.28 2.316,2.22 2.43,2.15 2.527,2.09 2.637,2.02 2.746,1.95 2.844,1.88 2.969,1.8 3.086,1.73 3.195,1.66 3.32,1.59" /><path
         id="path106"
         style="fill:none;stroke:#000000;stroke-width:3.9849999;stroke-linecap:butt;stroke-linejoin:miter;stroke-miterlimit:10;stroke-dasharray:none;stroke-opacity:1"
         d="m 474.699,1314.84 -2.363,-1.08 -2.285,-1.17 -2.196,-1.26 -2.109,-1.35 -2.035,-1.44 -1.953,-1.53 -1.867,-1.6 -1.793,-1.69 -1.715,-1.78 -1.649,-1.86 -1.57,-1.94 -1.492,-2.03 -1.43,-2.08 -1.351,-2.18 -1.297,-2.24 -1.231,-2.32 -1.164,-2.39 -1.097,-2.46 -1.032,-2.54 -0.992,-2.6 -0.922,-2.66 -0.867,-2.74 -0.812,-2.79 -0.758,-2.86 -0.703,-2.92 -0.661,-2.97 -0.613,-3.04 -0.562,-3.1 -0.516,-3.15 -0.473,-3.19 -0.429,-3.27 -0.395,-3.3 -0.351,-3.36 -0.321,-3.4 -0.273,-3.46 -0.242,-3.5 -0.207,-3.55 -0.176,-3.59 -0.156,-3.63 -0.121,-3.66 -0.098,-3.72 -0.067,-3.74 -0.043,-3.78 -0.023,-3.83 0,-3.85 0.012,-3.89 0.035,-3.91 0.055,-3.96 0.066,-3.98 0.074,-4 0.09,-4.03 0.098,-4.04 0.109,-4.07 0.11,-4.1 0.121,-4.12 0.121,-4.14 0.132,-4.16 0.122,-4.16 0.132,-4.19 0.122,-4.19 0.109,-4.21 0.121,-4.22 0.098,-4.23 0.097,-4.24 0.09,-4.24 0.074,-4.25 0.067,-4.26 0.047,-4.26 0.031,-4.25 0.012,-4.26 -0.012,-4.26 -0.024,-4.25 -0.054,-4.25 -0.074,-4.24 -0.102,-4.23 -0.121,-4.23 -0.152,-4.22 -0.188,-4.2 -0.219,-4.19 -0.254,-4.18 -0.285,-4.16 -0.316,-4.15 -0.363,-4.13 -0.395,-4.11 -0.453,-4.09 -0.484,-4.06 -0.528,-4.05 -0.57,-4.02 -0.613,-3.99 -0.672,-3.96 -0.715,-3.95 -0.778,-3.9 -0.824,-3.876 -0.879,-3.832 -0.933,-3.813 -0.988,-3.769 -1.055,-3.735 -1.121,-3.691 -1.176,-3.66 -1.242,-3.614 -1.309,-3.57 -1.371,-3.539 -1.441,-3.484 -1.516,-3.426 -1.582,-3.395 -1.66,-3.34 -1.723,-3.285 -1.812,-3.242 -1.891,-3.176 -1.965,-3.129 -2.047,-3.078 -2.129,-3.008 -2.218,-2.957 -2.297,-2.898 -2.395,-2.836 -2.472,-2.769 -2.571,-2.704 -2.66,-2.644 -2.746,-2.574 -2.855,-2.504 2.855,-2.504 2.746,-2.57 2.66,-2.649 2.571,-2.703 2.472,-2.77 2.395,-2.832 2.297,-2.902 2.218,-2.953 2.129,-3.012 2.047,-3.078 1.965,-3.129 1.891,-3.176 1.812,-3.242 1.723,-3.285 1.66,-3.34 1.582,-3.394 1.516,-3.426 1.441,-3.485 1.371,-3.535 1.309,-3.574 1.242,-3.613 1.176,-3.649 1.121,-3.699 1.055,-3.738 0.988,-3.766 0.933,-3.812 0.879,-3.836 0.824,-3.879 0.778,-3.899 0.715,-3.945 0.672,-3.965 0.613,-3.988 0.57,-4.023 0.528,-4.043 0.484,-4.063 0.453,-4.09 0.395,-4.105 0.363,-4.133 0.316,-4.152 0.285,-4.164 0.254,-4.176 0.219,-4.184 0.188,-4.211 0.152,-4.218 0.121,-4.227 0.102,-4.23 0.074,-4.243 0.054,-4.25 0.024,-4.254 0.012,-4.25 -0.012,-4.261 -0.031,-4.254 -0.047,-4.262 -0.067,-4.254 -0.074,-4.238 -0.09,-4.254 -0.097,-4.23 -0.098,-4.227 -0.121,-4.23 -0.109,-4.208 -0.122,-4.199 -0.132,-4.183 -0.122,-4.164 -0.132,-4.153 -0.121,-4.144 -0.121,-4.11 -0.11,-4.097 -0.109,-4.075 -0.098,-4.054 -0.09,-4.031 -0.074,-4 -0.066,-3.977 -0.055,-3.945 -0.035,-3.922 -0.012,-3.891 0,-3.844 0.023,-3.824 0.043,-3.789 0.067,-3.746 0.098,-3.715 0.121,-3.668 0.156,-3.625 0.176,-3.594 0.207,-3.546 0.242,-3.496 0.273,-3.461 0.321,-3.407 0.351,-3.347 0.395,-3.309 0.429,-3.262 0.473,-3.199 0.516,-3.152 0.562,-3.098 0.613,-3.031 0.661,-2.981 0.703,-2.921 0.758,-2.856 0.812,-2.789 0.867,-2.738 0.922,-2.668 0.992,-2.594 1.032,-2.539 1.097,-2.461 1.164,-2.383 1.231,-2.328 1.297,-2.242 1.351,-2.176 1.43,-2.086 1.492,-2.023 1.57,-1.946 1.649,-1.855 1.715,-1.777 1.793,-1.696 1.867,-1.601 1.953,-1.528 2.035,-1.441 2.109,-1.352 2.196,-1.261 2.285,-1.164 2.363,-1.078 -3.32,1.582 -3.195,1.66 -3.086,1.734 -2.969,1.805 -2.844,1.879 -2.746,1.941 -2.637,2.023 -2.527,2.086 -2.43,2.153 -2.316,2.222 -2.211,2.286 -2.117,2.351 -2.024,2.414 -1.922,2.473 -1.835,2.539 -1.735,2.594 -1.648,2.644 -1.559,2.715 -1.484,2.758 -1.387,2.824 -1.316,2.879 -1.219,2.922 -1.152,2.976 -1.079,3.032 -1,3.078 -0.921,3.121 -0.86,3.172 -0.789,3.219 -0.726,3.265 -0.649,3.305 -0.594,3.34 -0.535,3.394 -0.472,3.43 -0.418,3.473 -0.352,3.503 -0.309,3.54 -0.265,3.57 -0.207,3.613 -0.153,3.649 -0.109,3.668 -0.078,3.714 -0.024,3.735 0.012,3.758 0.043,3.789 0.09,3.824 0.121,3.844 0.152,3.867 0.188,3.89 0.207,3.899 0.23,3.933 0.266,3.957 0.285,3.965 0.309,3.989 0.316,4 0.344,4.011 0.359,4.032 0.364,4.043 0.386,4.054 0.383,4.063 0.395,4.066 0.398,4.074 0.406,4.09 0.407,4.098 0.406,4.086 0.394,4.097 0.407,4.11 0.386,4.097 0.383,4.098 0.375,4.098 0.36,4.097 0.343,4.098 0.34,4.086 0.305,4.078 0.297,4.074 0.265,4.067 0.254,4.066 0.219,4.043 0.199,4.031 0.164,4.02 0.129,4.012 0.113,3.988 0.055,3.977 0.031,3.953 -0.011,3.945 -0.043,3.922 -0.098,3.902 -0.144,3.867 -0.188,3.856 -0.23,3.832 -0.286,3.805 -0.328,3.777 -0.398,3.746 -0.449,3.715 -0.504,3.691 -0.571,3.656 -0.628,3.629 -0.692,3.59 -0.758,3.559 -0.824,3.519 -0.902,3.481 -0.965,3.449 -1.031,3.406 -1.121,3.375 -1.2,3.317 -1.273,3.285 -1.352,3.23 -1.441,3.196 -1.524,3.144 -1.605,3.098 -1.703,3.055 -1.789,2.996 -1.891,2.957 -1.976,2.89 -2.079,2.844 -2.164,2.793 -2.273,2.734 -2.387,2.68 -2.48,2.617 -2.582,2.559 -2.692,2.504 2.692,2.504 2.582,2.562 2.48,2.613 2.387,2.68 2.273,2.738 2.164,2.789 2.079,2.844 1.976,2.903 1.891,2.945 1.789,3 1.703,3.051 1.605,3.101 1.524,3.141 1.441,3.195 1.352,3.231 1.273,3.285 1.2,3.328 1.121,3.363 1.031,3.406 0.965,3.45 0.902,3.484 0.824,3.516 0.758,3.558 0.692,3.594 0.628,3.625 0.571,3.656 0.504,3.692 0.449,3.714 0.398,3.75 0.328,3.78 0.286,3.8 0.23,3.83 0.188,3.86 0.144,3.87 0.098,3.9 0.043,3.92 0.011,3.94 -0.031,3.96 -0.055,3.97 -0.113,3.99 -0.129,4.01 -0.164,4.02 -0.199,4.04 -0.219,4.05 -0.254,4.05 -0.265,4.07 -0.297,4.07 -0.305,4.08 -0.34,4.09 -0.343,4.09 -0.36,4.1 -0.375,4.1 -0.383,4.1 -0.386,4.11 -0.407,4.09 -0.394,4.1 -0.406,4.1 -0.407,4.09 -0.406,4.09 -0.398,4.07 -0.395,4.08 -0.383,4.05 -0.386,4.05 -0.364,4.05 -0.359,4.03 -0.344,4.01 -0.316,4 -0.309,3.99 -0.285,3.96 -0.266,3.96 -0.23,3.93 -0.207,3.91 -0.188,3.89 -0.152,3.86 -0.121,3.84 -0.09,3.83 -0.043,3.79 -0.012,3.75 0.024,3.74 0.078,3.71 0.109,3.67 0.153,3.65 0.207,3.61 0.265,3.58 0.309,3.54 0.352,3.51 0.418,3.46 0.472,3.44 0.535,3.38 0.594,3.34 0.649,3.31 0.726,3.26 0.789,3.22 0.86,3.18 0.921,3.12 1,3.07 1.079,3.04 1.152,2.97 1.219,2.94 1.316,2.86 1.387,2.83 1.484,2.77 1.559,2.7 1.648,2.66 1.735,2.59 1.835,2.53 1.922,2.47 2.024,2.42 2.117,2.35 2.211,2.28 2.316,2.22 2.43,2.15 2.527,2.09 2.637,2.02 2.746,1.95 2.844,1.88 2.969,1.8 3.086,1.73 3.195,1.66 3.32,1.59 z" /><g
         transform="scale(10,10)"
         id="g108"><text
           id="text110"
           style="font-variant:normal;font-weight:normal;font-size:10.90909958px;font-family:CMMI10;-inkscape-font-specification:CMMI10;writing-mode:lr-tb;fill:#000000;fill-opacity:1;fill-rule:nonzero;stroke:none"
           transform="matrix(1,0,0,-1,122.182,52.4715)"><tspan
             id="tspan112"
             y="0"
             x="0">p</tspan></text>
<text
           id="text114"
           style="font-variant:normal;font-weight:normal;font-size:8.96638012px;font-family:CMR9;-inkscape-font-specification:CMR9;writing-mode:lr-tb;fill:#000000;fill-opacity:1;fill-rule:nonzero;stroke:none"
           transform="matrix(1,0,0,-1,127.70192,50.43166)"><tspan
             id="tspan116"
             y="0"
             x="0">2</tspan></text>
</g><g
         transform="matrix(146.4,0,0,-134.4,23.4799,481.48)"
         id="g118"><rect
           id="rect120"
           style="fill:#ffffff;fill-opacity:1;fill-rule:nonzero"
           transform="matrix(1,0,0,-1,0,1)"
           height="1"
           width="1"
           y="0"
           x="0" /></g><g
         transform="scale(10,10)"
         id="g122"><text
           id="text124"
           style="font-variant:normal;font-weight:normal;font-size:10.90909958px;font-family:CMMI10;-inkscape-font-specification:CMMI10;writing-mode:lr-tb;fill:#000000;fill-opacity:1;fill-rule:nonzero;stroke:none"
           transform="matrix(1,0,0,-1,5.36016,37.7199)"><tspan
             id="tspan126"
             y="0"
             x="0">O</tspan></text>
</g><g
         transform="matrix(117.6,0,0,-106.8,1711.18,481.48)"
         id="g128"><rect
           id="rect130"
           style="fill:#ffffff;fill-opacity:1;fill-rule:nonzero"
           transform="matrix(1,0,0,-1,0,1)"
           height="1"
           width="1"
           y="0"
           x="0" /></g><g
         transform="scale(10,10)"
         id="g132"><text
           id="text134"
           style="font-variant:normal;font-weight:normal;font-size:10.90909958px;font-family:CMMI10;-inkscape-font-specification:CMMI10;writing-mode:lr-tb;fill:#000000;fill-opacity:1;fill-rule:nonzero;stroke:none"
           transform="matrix(1,0,0,-1,174.13,40.4801)"><tspan
             id="tspan136"
             y="0"
             x="0">v</tspan></text>
</g><g
         transform="matrix(115.2,0,0,-128.4,54.6799,1606.38)"
         id="g138"><rect
           id="rect140"
           style="fill:#ffffff;fill-opacity:1;fill-rule:nonzero"
           transform="matrix(1,0,0,-1,0,1)"
           height="1"
           width="1"
           y="0"
           x="0" /></g><g
         transform="scale(10,10)"
         id="g142"><text
           id="text144"
           style="font-variant:normal;font-weight:normal;font-size:10.90909958px;font-family:CMMI10;-inkscape-font-specification:CMMI10;writing-mode:lr-tb;fill:#000000;fill-opacity:1;fill-rule:nonzero;stroke:none"
           transform="matrix(1,0,0,-1,8.48008,152.85)"><tspan
             id="tspan146"
             y="0"
             x="0">p</tspan></text>
</g><path
         id="path148"
         style="fill:none;stroke:#000000;stroke-width:11.95530033;stroke-linecap:butt;stroke-linejoin:miter;stroke-miterlimit:10;stroke-dasharray:none;stroke-opacity:1"
         d="m 7.99219,481.602 1782.02781,0" /><path
         id="path150"
         style="fill:none;stroke:#000000;stroke-width:11.95530033;stroke-linecap:butt;stroke-linejoin:miter;stroke-miterlimit:10;stroke-dasharray:none;stroke-opacity:1"
         d="m 170,481.602 0,1080.008" /><g
         transform="scale(10,10)"
         id="g152"><text
           id="text154"
           style="font-variant:normal;font-weight:normal;font-size:11.9552002px;font-family:CMCSC10;-inkscape-font-specification:CMCSC10;writing-mode:lr-tb;fill:#000000;fill-opacity:1;fill-rule:nonzero;stroke:none"
           transform="matrix(1,0,0,-1,75.441,0.148828)"><tspan
             id="tspan156"
             y="0"
             x="0 8.5141897 12.111581 19.790342 28.065218 34.667995 41.270775">Fig.58.</tspan></text>
</g></g></g></svg>