<?xml version="1.0" encoding="UTF-8" standalone="no"?>
<svg
   xmlns:dc="http://purl.org/dc/elements/1.1/"
   xmlns:cc="http://creativecommons.org/ns#"
   xmlns:rdf="http://www.w3.org/1999/02/22-rdf-syntax-ns#"
   xmlns:svg="http://www.w3.org/2000/svg"
   xmlns="http://www.w3.org/2000/svg"
   viewBox="0 0 307.5 132.5"
   height="132.5"
   width="307.5"
   xml:space="preserve"
   version="1.1"
   id="svg2"><metadata
     id="metadata8"><rdf:RDF><cc:Work
         rdf:about=""><dc:format>image/svg+xml</dc:format><dc:type
           rdf:resource="http://purl.org/dc/dcmitype/StillImage" /></cc:Work></rdf:RDF></metadata><defs
     id="defs6"><clipPath
       id="clipPath12"
       clipPathUnits="userSpaceOnUse"><path
         id="path14"
         d="m -2,-2 246,0 0,106 -246,0 0,-106 z" /></clipPath></defs><g
     clip-path="url(#clipPath12)"
     transform="matrix(1.25,0,0,-1.25,2.5,130)"
     id="g10"><g
       transform="scale(0.1,0.1)"
       id="g16"><path
         id="path18"
         style="fill:none;stroke:#000000;stroke-width:11.95530033;stroke-linecap:butt;stroke-linejoin:miter;stroke-miterlimit:10;stroke-dasharray:none;stroke-opacity:1"
         d="m 173.195,245.324 51.844,60.711 51.844,57.606 51.836,54.492 51.843,51.371 51.836,48.266 51.844,45.14 51.844,42.035 51.836,38.914 51.844,35.805 51.836,32.695 51.843,29.579 51.836,26.464 51.844,23.356 51.848,20.238 51.832,17.129 51.845,14.008 51.83,10.898 51.85,7.778 51.85,4.668 51.83,1.562 51.85,-1.562 51.83,-4.668 51.84,-7.778 51.85,-10.898 51.83,-14.008 51.85,-17.129 51.83,-20.238 51.85,-23.356 51.84,-26.464 51.84,-29.579 51.84,-32.695 51.83,-35.805 51.85,-38.914 51.83,-42.035 51.85,-45.14 51.84,-48.266 51.84,-51.371 51.84,-54.492 51.84,-57.606 51.84,-60.711" /><path
         id="path20"
         style="fill:none;stroke:#000000;stroke-width:11.95530033;stroke-linecap:butt;stroke-linejoin:miter;stroke-miterlimit:10;stroke-dasharray:none;stroke-opacity:1"
         d="m 562.004,435.602 0,189.183" /><path
         id="path22"
         style="fill:none;stroke:#000000;stroke-width:11.95530033;stroke-linecap:butt;stroke-linejoin:miter;stroke-miterlimit:10;stroke-dasharray:none;stroke-opacity:1"
         d="m 778.008,435.602 0,324.328" /><path
         id="path24"
         style="fill:none;stroke:#000000;stroke-width:11.95530033;stroke-linecap:butt;stroke-linejoin:miter;stroke-miterlimit:10;stroke-dasharray:none;stroke-opacity:1"
         d="m 994.004,435.602 0,405.41" /><path
         id="path26"
         style="fill:none;stroke:#000000;stroke-width:11.95530033;stroke-linecap:butt;stroke-linejoin:miter;stroke-miterlimit:10;stroke-dasharray:none;stroke-opacity:1"
         d="m 1210.01,435.602 0,432.437" /><path
         id="path28"
         style="fill:none;stroke:#000000;stroke-width:11.95530033;stroke-linecap:butt;stroke-linejoin:miter;stroke-miterlimit:10;stroke-dasharray:none;stroke-opacity:1"
         d="m 1426.02,435.602 0,405.41" /><path
         id="path30"
         style="fill:none;stroke:#000000;stroke-width:11.95530033;stroke-linecap:butt;stroke-linejoin:miter;stroke-miterlimit:10;stroke-dasharray:none;stroke-opacity:1"
         d="m 1642.02,435.602 0,324.328" /><path
         id="path32"
         style="fill:none;stroke:#000000;stroke-width:11.95530033;stroke-linecap:butt;stroke-linejoin:miter;stroke-miterlimit:10;stroke-dasharray:none;stroke-opacity:1"
         d="m 1858.02,435.602 0,189.183" /><g
         transform="scale(10,10)"
         id="g34"><text
           id="text36"
           style="font-variant:normal;font-weight:normal;font-size:10.90909958px;font-family:CMMI10;-inkscape-font-specification:CMMI10;writing-mode:lr-tb;fill:#000000;fill-opacity:1;fill-rule:nonzero;stroke:none"
           transform="matrix(1,0,0,-1,207.402,47.5449)"><tspan
             id="tspan38"
             y="0"
             x="0">N</tspan><tspan
             id="tspan40"
             y="-43.243698"
             x="-92.280899">M</tspan></text>
</g><g
         transform="matrix(115.2,0,0,-130.8,1152.29,302.12)"
         id="g42"><rect
           id="rect44"
           style="fill:#ffffff;fill-opacity:1;fill-rule:nonzero"
           transform="matrix(1,0,0,-1,0,1)"
           height="1"
           width="1"
           y="0"
           x="0" /></g><g
         transform="scale(10,10)"
         id="g46"><text
           id="text48"
           style="font-variant:normal;font-weight:normal;font-size:10.90909958px;font-family:CMR10;-inkscape-font-specification:CMR10;writing-mode:lr-tb;fill:#000000;fill-opacity:1;fill-rule:nonzero;stroke:none"
           transform="matrix(1,0,0,-1,118.241,20.1441)"><tspan
             id="tspan50"
             y="0"
             x="0">1</tspan></text>
</g><path
         id="path52"
         style="fill:#000000;fill-opacity:1;fill-rule:nonzero;stroke:none"
         d="m 365.918,415.66 1.133,-2.437 1.406,-2.364 1.68,-2.265 1.945,-2.184 2.207,-2.098 2.461,-2.011 2.703,-1.934 2.969,-1.847 3.207,-1.778 3.437,-1.691 3.68,-1.629 3.902,-1.535 4.129,-1.473 4.352,-1.406 4.57,-1.34 4.778,-1.266 4.988,-1.195 5.199,-1.145 5.383,-1.078 5.59,-1.007 5.769,-0.957 5.953,-0.891 6.145,-0.836 6.316,-0.789 6.481,-0.727 6.66,-0.679 6.82,-0.637 6.977,-0.582 7.133,-0.527 7.269,-0.497 7.43,-0.437 7.566,-0.406 7.703,-0.364 7.832,-0.332 7.969,-0.285 8.074,-0.25 8.207,-0.211 8.317,-0.187 8.426,-0.153 8.527,-0.132 8.633,-0.098 8.734,-0.066 8.813,-0.043 8.91,-0.024 8.984,-0.012 9.078,0.024 9.141,0.031 9.207,0.055 9.281,0.066 9.34,0.078 9.391,0.098 9.437,0.102 9.492,0.109 9.539,0.121 9.579,0.121 9.601,0.129 9.637,0.121 9.668,0.133 9.679,0.133 9.7,0.133 9.703,0.121 9.722,0.109 9.723,0.109 9.711,0.098 9.715,0.09 9.699,0.086 9.692,0.055 9.668,0.054 9.632,0.035 9.614,0.008 9.582,-0.008 9.546,-0.023 9.504,-0.055 9.457,-0.078 9.407,-0.098 9.347,-0.132 9.285,-0.164 9.231,-0.188 9.16,-0.23 9.086,-0.254 9.008,-0.293 8.922,-0.344 8.832,-0.359 8.758,-0.418 8.651,-0.453 8.55,-0.504 8.45,-0.539 8.34,-0.594 8.23,-0.649 8.11,-0.679 8,-0.746 7.85,-0.805 7.74,-0.844 7.59,-0.914 7.46,-0.965 7.3,-1.023 7.17,-1.086 7.02,-1.152 6.85,-1.211 6.69,-1.286 6.52,-1.351 6.36,-1.418 6.17,-1.492 6,-1.563 5.82,-1.636 5.63,-1.711 5.43,-1.793 5.24,-1.868 5.03,-1.945 4.82,-2.031 4.62,-2.121 4.39,-2.196 4.19,-2.285 3.95,-2.375 3.73,-2.472 3.49,-2.559 3.26,-2.648 3.01,-2.746 2.77,-2.844 2.52,-2.934 2.53,2.934 2.75,2.844 3.02,2.746 3.26,2.648 3.49,2.559 3.73,2.472 3.95,2.375 4.19,2.285 4.39,2.196 4.61,2.121 4.84,2.031 5.03,1.945 5.24,1.868 5.43,1.793 5.62,1.711 5.82,1.636 5.99,1.563 6.18,1.492 6.36,1.418 6.52,1.351 6.7,1.286 6.85,1.211 7.01,1.152 7.16,1.086 7.31,1.023 7.46,0.965 7.6,0.914 7.73,0.844 7.86,0.805 7.99,0.746 8.11,0.679 8.22,0.649 8.34,0.594 8.45,0.539 8.56,0.504 8.66,0.453 8.74,0.418 8.85,0.359 8.92,0.344 9,0.293 9.08,0.254 9.17,0.23 9.22,0.188 9.3,0.164 9.34,0.132 9.41,0.098 9.45,0.078 9.5,0.055 9.55,0.023 9.58,0.008 9.62,-0.008 9.64,-0.035 9.67,-0.054 9.68,-0.055 9.71,-0.086 9.71,-0.09 9.71,-0.098 9.72,-0.109 9.72,-0.109 9.71,-0.121 9.69,-0.133 9.69,-0.133 9.66,-0.133 9.63,-0.121 9.62,-0.129 9.57,-0.121 9.53,-0.121 9.5,-0.109 9.44,-0.102 9.4,-0.098 9.34,-0.078 9.27,-0.066 9.22,-0.055 9.14,-0.031 9.06,-0.024 9,0.012 8.9,0.024 8.82,0.043 8.72,0.066 8.64,0.098 8.53,0.132 8.42,0.153 8.32,0.187 8.21,0.211 8.08,0.25 7.97,0.285 7.83,0.332 7.69,0.364 7.57,0.406 7.43,0.437 7.28,0.497 7.13,0.527 6.98,0.582 6.81,0.637 6.65,0.679 6.49,0.727 6.32,0.789 6.14,0.836 5.95,0.891 5.78,0.957 5.58,1.007 5.4,1.078 5.18,1.145 4.99,1.195 4.78,1.266 4.57,1.34 4.35,1.406 4.14,1.473 3.9,1.535 3.68,1.629 3.44,1.691 3.21,1.778 2.95,1.847 2.72,1.934 2.46,2.011 2.21,2.098 1.94,2.184 1.67,2.265 1.41,2.364 1.14,2.437 -1.63,-3.418 -1.87,-3.304 -2.15,-3.188 -2.38,-3.066 -2.63,-2.942 -2.88,-2.836 -3.09,-2.726 -3.34,-2.602 -3.57,-2.504 -3.79,-2.398 -4.01,-2.293 -4.23,-2.188 -4.44,-2.086 -4.65,-1.98 -4.84,-1.899 -5.05,-1.792 -5.24,-1.704 -5.44,-1.613 -5.61,-1.527 -5.79,-1.43 -5.98,-1.352 -6.15,-1.273 -6.32,-1.187 -6.48,-1.11 -6.64,-1.031 -6.8,-0.957 -6.95,-0.891 -7.09,-0.812 -7.24,-0.746 -7.38,-0.672 -7.51,-0.613 -7.65,-0.551 -7.77,-0.481 -7.89,-0.441 -8.01,-0.363 -8.12,-0.317 -8.23,-0.265 -8.34,-0.219 -8.44,-0.164 -8.54,-0.11 -8.62,-0.078 -8.71,-0.031 -8.82,0.02 -8.87,0.042 -8.95,0.09 -9.03,0.133 -9.09,0.153 -9.15,0.187 -9.22,0.219 -9.26,0.242 -9.32,0.273 -9.37,0.286 -9.41,0.32 -9.43,0.328 -9.47,0.352 -9.51,0.375 -9.53,0.375 -9.55,0.394 -9.56,0.406 -9.58,0.407 -9.58,0.406 -9.59,0.418 -9.59,0.418 -9.57,0.418 -9.58,0.418 -9.55,0.414 -9.54,0.398 -9.52,0.395 -9.49,0.383 -9.45,0.375 -9.43,0.363 -9.39,0.34 -9.34,0.328 -9.29,0.297 -9.24,0.285 -9.2,0.254 -9.12,0.23 -9.06,0.199 -8.99,0.176 -8.92,0.133 -8.84,0.109 -8.76,0.067 -8.67,0.031 -8.59,-0.012 -8.49,-0.054 -8.39,-0.098 -8.29,-0.145 -8.17,-0.187 -8.08,-0.238 -7.95,-0.297 -7.83,-0.352 -7.72,-0.406 -7.58,-0.465 -7.45,-0.515 -7.31,-0.594 -7.17,-0.649 -7.03,-0.711 -6.88,-0.781 -6.71,-0.855 -6.57,-0.926 -6.4,-1 -6.23,-1.074 -6.08,-1.157 -5.89,-1.23 -5.7,-1.316 -5.54,-1.395 -5.33,-1.496 -5.15,-1.57 -4.95,-1.661 -4.75,-1.757 -4.55,-1.844 -4.33,-1.945 -4.13,-2.043 -3.91,-2.145 -3.68,-2.25 -3.46,-2.351 -3.22,-2.45 -3,-2.562 -2.76,-2.68 -2.51,-2.777 -2.52,2.777 -2.76,2.68 -2.98,2.562 -3.23,2.45 -3.45,2.351 -3.69,2.25 -3.92,2.145 -4.12,2.043 -4.34,1.945 -4.53,1.844 -4.76,1.757 -4.96,1.661 -5.14,1.57 -5.34,1.496 -5.52,1.395 -5.71,1.316 -5.9,1.23 -6.07,1.157 -6.23,1.074 -6.4,1 -6.56,0.926 -6.73,0.855 -6.87,0.781 -7.02,0.711 -7.18,0.649 -7.31,0.594 -7.45,0.515 -7.59,0.465 -7.71,0.406 -7.83,0.352 -7.96,0.297 -8.06,0.238 -8.19,0.187 -8.28,0.145 -8.39,0.098 -8.494,0.054 -8.582,0.012 -8.668,-0.031 -8.765,-0.067 -8.832,-0.109 -8.922,-0.133 -9,-0.176 -9.063,-0.199 -9.117,-0.23 -9.187,-0.254 -9.25,-0.285 -9.293,-0.297 -9.34,-0.328 -9.383,-0.34 -9.426,-0.363 -9.461,-0.375 -9.492,-0.383 -9.512,-0.395 -9.539,-0.398 -9.554,-0.414 -9.571,-0.418 -9.582,-0.418 -9.589,-0.418 -9.583,-0.418 -9.589,-0.406 -9.571,-0.407 -9.566,-0.406 -9.547,-0.394 -9.527,-0.375 -9.504,-0.375 -9.481,-0.352 -9.437,-0.328 -9.403,-0.32 -9.363,-0.286 -9.316,-0.273 -9.274,-0.242 -9.215,-0.219 -9.152,-0.187 -9.098,-0.153 -9.019,-0.133 -8.953,-0.09 -8.879,-0.042 -8.801,-0.02 -8.722,0.031 -8.626,0.078 -8.535,0.11 -8.437,0.164 -8.34,0.219 -8.227,0.265 -8.132,0.317 -8.008,0.363 -7.887,0.441 -7.769,0.481 -7.645,0.551 -7.516,0.613 -7.371,0.672 -7.242,0.746 -7.098,0.812 -6.953,0.891 -6.789,0.957 -6.648,1.031 -6.481,1.11 -6.316,1.187 -6.141,1.273 -5.98,1.352 -5.801,1.43 -5.613,1.527 -5.426,1.613 -5.242,1.704 -5.043,1.792 -4.856,1.899 -4.648,1.98 -4.426,2.086 -4.23,2.188 -4.008,2.293 -3.793,2.398 -3.57,2.504 -3.34,2.602 -3.11,2.726 -2.867,2.836 -2.636,2.942 -2.383,3.066 -2.133,3.188 -1.879,3.304 -1.625,3.418" /><path
         id="path54"
         style="fill:none;stroke:#000000;stroke-width:3.9849999;stroke-linecap:butt;stroke-linejoin:miter;stroke-miterlimit:10;stroke-dasharray:none;stroke-opacity:1"
         d="m 365.918,415.66 1.133,-2.437 1.406,-2.364 1.68,-2.265 1.945,-2.184 2.207,-2.098 2.461,-2.011 2.703,-1.934 2.969,-1.847 3.207,-1.778 3.437,-1.691 3.68,-1.629 3.902,-1.535 4.129,-1.473 4.352,-1.406 4.57,-1.34 4.778,-1.266 4.988,-1.195 5.199,-1.145 5.383,-1.078 5.59,-1.007 5.769,-0.957 5.953,-0.891 6.145,-0.836 6.316,-0.789 6.481,-0.727 6.66,-0.679 6.82,-0.637 6.977,-0.582 7.133,-0.527 7.269,-0.497 7.43,-0.437 7.566,-0.406 7.703,-0.364 7.832,-0.332 7.969,-0.285 8.074,-0.25 8.207,-0.211 8.317,-0.187 8.426,-0.153 8.527,-0.132 8.633,-0.098 8.734,-0.066 8.813,-0.043 8.91,-0.024 8.984,-0.012 9.078,0.024 9.141,0.031 9.207,0.055 9.281,0.066 9.34,0.078 9.391,0.098 9.437,0.102 9.492,0.109 9.539,0.121 9.579,0.121 9.601,0.129 9.637,0.121 9.668,0.133 9.679,0.133 9.7,0.133 9.703,0.121 9.722,0.109 9.723,0.109 9.711,0.098 9.715,0.09 9.699,0.086 9.692,0.055 9.668,0.054 9.632,0.035 9.614,0.008 9.582,-0.008 9.546,-0.023 9.504,-0.055 9.457,-0.078 9.407,-0.098 9.347,-0.132 9.285,-0.164 9.231,-0.188 9.16,-0.23 9.086,-0.254 9.008,-0.293 8.922,-0.344 8.832,-0.359 8.758,-0.418 8.651,-0.453 8.55,-0.504 8.45,-0.539 8.34,-0.594 8.23,-0.649 8.11,-0.679 8,-0.746 7.85,-0.805 7.74,-0.844 7.59,-0.914 7.46,-0.965 7.3,-1.023 7.17,-1.086 7.02,-1.152 6.85,-1.211 6.69,-1.286 6.52,-1.351 6.36,-1.418 6.17,-1.492 6,-1.563 5.82,-1.636 5.63,-1.711 5.43,-1.793 5.24,-1.868 5.03,-1.945 4.82,-2.031 4.62,-2.121 4.39,-2.196 4.19,-2.285 3.95,-2.375 3.73,-2.472 3.49,-2.559 3.26,-2.648 3.01,-2.746 2.77,-2.844 2.52,-2.934 2.53,2.934 2.75,2.844 3.02,2.746 3.26,2.648 3.49,2.559 3.73,2.472 3.95,2.375 4.19,2.285 4.39,2.196 4.61,2.121 4.84,2.031 5.03,1.945 5.24,1.868 5.43,1.793 5.62,1.711 5.82,1.636 5.99,1.563 6.18,1.492 6.36,1.418 6.52,1.351 6.7,1.286 6.85,1.211 7.01,1.152 7.16,1.086 7.31,1.023 7.46,0.965 7.6,0.914 7.73,0.844 7.86,0.805 7.99,0.746 8.11,0.679 8.22,0.649 8.34,0.594 8.45,0.539 8.56,0.504 8.66,0.453 8.74,0.418 8.85,0.359 8.92,0.344 9,0.293 9.08,0.254 9.17,0.23 9.22,0.188 9.3,0.164 9.34,0.132 9.41,0.098 9.45,0.078 9.5,0.055 9.55,0.023 9.58,0.008 9.62,-0.008 9.64,-0.035 9.67,-0.054 9.68,-0.055 9.71,-0.086 9.71,-0.09 9.71,-0.098 9.72,-0.109 9.72,-0.109 9.71,-0.121 9.69,-0.133 9.69,-0.133 9.66,-0.133 9.63,-0.121 9.62,-0.129 9.57,-0.121 9.53,-0.121 9.5,-0.109 9.44,-0.102 9.4,-0.098 9.34,-0.078 9.27,-0.066 9.22,-0.055 9.14,-0.031 9.06,-0.024 9,0.012 8.9,0.024 8.82,0.043 8.72,0.066 8.64,0.098 8.53,0.132 8.42,0.153 8.32,0.187 8.21,0.211 8.08,0.25 7.97,0.285 7.83,0.332 7.69,0.364 7.57,0.406 7.43,0.437 7.28,0.497 7.13,0.527 6.98,0.582 6.81,0.637 6.65,0.679 6.49,0.727 6.32,0.789 6.14,0.836 5.95,0.891 5.78,0.957 5.58,1.007 5.4,1.078 5.18,1.145 4.99,1.195 4.78,1.266 4.57,1.34 4.35,1.406 4.14,1.473 3.9,1.535 3.68,1.629 3.44,1.691 3.21,1.778 2.95,1.847 2.72,1.934 2.46,2.011 2.21,2.098 1.94,2.184 1.67,2.265 1.41,2.364 1.14,2.437 -1.63,-3.418 -1.87,-3.304 -2.15,-3.188 -2.38,-3.066 -2.63,-2.942 -2.88,-2.836 -3.09,-2.726 -3.34,-2.602 -3.57,-2.504 -3.79,-2.398 -4.01,-2.293 -4.23,-2.188 -4.44,-2.086 -4.65,-1.98 -4.84,-1.899 -5.05,-1.792 -5.24,-1.704 -5.44,-1.613 -5.61,-1.527 -5.79,-1.43 -5.98,-1.352 -6.15,-1.273 -6.32,-1.187 -6.48,-1.11 -6.64,-1.031 -6.8,-0.957 -6.95,-0.891 -7.09,-0.812 -7.24,-0.746 -7.38,-0.672 -7.51,-0.613 -7.65,-0.551 -7.77,-0.481 -7.89,-0.441 -8.01,-0.363 -8.12,-0.317 -8.23,-0.265 -8.34,-0.219 -8.44,-0.164 -8.54,-0.11 -8.62,-0.078 -8.71,-0.031 -8.82,0.02 -8.87,0.042 -8.95,0.09 -9.03,0.133 -9.09,0.153 -9.15,0.187 -9.22,0.219 -9.26,0.242 -9.32,0.273 -9.37,0.286 -9.41,0.32 -9.43,0.328 -9.47,0.352 -9.51,0.375 -9.53,0.375 -9.55,0.394 -9.56,0.406 -9.58,0.407 -9.58,0.406 -9.59,0.418 -9.59,0.418 -9.57,0.418 -9.58,0.418 -9.55,0.414 -9.54,0.398 -9.52,0.395 -9.49,0.383 -9.45,0.375 -9.43,0.363 -9.39,0.34 -9.34,0.328 -9.29,0.297 -9.24,0.285 -9.2,0.254 -9.12,0.23 -9.06,0.199 -8.99,0.176 -8.92,0.133 -8.84,0.109 -8.76,0.067 -8.67,0.031 -8.59,-0.012 -8.49,-0.054 -8.39,-0.098 -8.29,-0.145 -8.17,-0.187 -8.08,-0.238 -7.95,-0.297 -7.83,-0.352 -7.72,-0.406 -7.58,-0.465 -7.45,-0.515 -7.31,-0.594 -7.17,-0.649 -7.03,-0.711 -6.88,-0.781 -6.71,-0.855 -6.57,-0.926 -6.4,-1 -6.23,-1.074 -6.08,-1.157 -5.89,-1.23 -5.7,-1.316 -5.54,-1.395 -5.33,-1.496 -5.15,-1.57 -4.95,-1.661 -4.75,-1.757 -4.55,-1.844 -4.33,-1.945 -4.13,-2.043 -3.91,-2.145 -3.68,-2.25 -3.46,-2.351 -3.22,-2.45 -3,-2.562 -2.76,-2.68 -2.51,-2.777 -2.52,2.777 -2.76,2.68 -2.98,2.562 -3.23,2.45 -3.45,2.351 -3.69,2.25 -3.92,2.145 -4.12,2.043 -4.34,1.945 -4.53,1.844 -4.76,1.757 -4.96,1.661 -5.14,1.57 -5.34,1.496 -5.52,1.395 -5.71,1.316 -5.9,1.23 -6.07,1.157 -6.23,1.074 -6.4,1 -6.56,0.926 -6.73,0.855 -6.87,0.781 -7.02,0.711 -7.18,0.649 -7.31,0.594 -7.45,0.515 -7.59,0.465 -7.71,0.406 -7.83,0.352 -7.96,0.297 -8.06,0.238 -8.19,0.187 -8.28,0.145 -8.39,0.098 -8.494,0.054 -8.582,0.012 -8.668,-0.031 -8.765,-0.067 -8.832,-0.109 -8.922,-0.133 -9,-0.176 -9.063,-0.199 -9.117,-0.23 -9.187,-0.254 -9.25,-0.285 -9.293,-0.297 -9.34,-0.328 -9.383,-0.34 -9.426,-0.363 -9.461,-0.375 -9.492,-0.383 -9.512,-0.395 -9.539,-0.398 -9.554,-0.414 -9.571,-0.418 -9.582,-0.418 -9.589,-0.418 -9.583,-0.418 -9.589,-0.406 -9.571,-0.407 -9.566,-0.406 -9.547,-0.394 -9.527,-0.375 -9.504,-0.375 -9.481,-0.352 -9.437,-0.328 -9.403,-0.32 -9.363,-0.286 -9.316,-0.273 -9.274,-0.242 -9.215,-0.219 -9.152,-0.187 -9.098,-0.153 -9.019,-0.133 -8.953,-0.09 -8.879,-0.042 -8.801,-0.02 -8.722,0.031 -8.626,0.078 -8.535,0.11 -8.437,0.164 -8.34,0.219 -8.227,0.265 -8.132,0.317 -8.008,0.363 -7.887,0.441 -7.769,0.481 -7.645,0.551 -7.516,0.613 -7.371,0.672 -7.242,0.746 -7.098,0.812 -6.953,0.891 -6.789,0.957 -6.648,1.031 -6.481,1.11 -6.316,1.187 -6.141,1.273 -5.98,1.352 -5.801,1.43 -5.613,1.527 -5.426,1.613 -5.242,1.704 -5.043,1.792 -4.856,1.899 -4.648,1.98 -4.426,2.086 -4.23,2.188 -4.008,2.293 -3.793,2.398 -3.57,2.504 -3.34,2.602 -3.11,2.726 -2.867,2.836 -2.636,2.942 -2.383,3.066 -2.133,3.188 -1.879,3.304 -1.625,3.418 z" /><g
         transform="matrix(210,0,0,-159.6,1244.9,730.894)"
         id="g56"><rect
           id="rect58"
           style="fill:#ffffff;fill-opacity:1;fill-rule:nonzero"
           transform="matrix(1,0,0,-1,0,1)"
           height="1"
           width="1"
           y="0"
           x="0" /></g><g
         transform="scale(10,10)"
         id="g60"><text
           id="text62"
           style="font-variant:normal;font-weight:normal;font-size:9.96263981px;font-family:CMR10;-inkscape-font-specification:CMR10;writing-mode:lr-tb;fill:#000000;fill-opacity:1;fill-rule:nonzero;stroke:none"
           transform="matrix(1,0,0,-1,127.502,62.6613)"><tspan
             id="tspan64"
             y="0"
             x="0">1</tspan></text>
<text
           id="text66"
           style="font-variant:normal;font-weight:normal;font-size:9.96263981px;font-family:CMMI10;-inkscape-font-specification:CMMI10;writing-mode:lr-tb;fill:#000000;fill-opacity:1;fill-rule:nonzero;stroke:none"
           transform="matrix(1,0,0,-1,132.54184,62.6613)"><tspan
             id="tspan68"
             y="0"
             x="0">/</tspan></text>
<text
           id="text70"
           style="font-variant:normal;font-weight:normal;font-size:9.96263981px;font-family:CMR10;-inkscape-font-specification:CMR10;writing-mode:lr-tb;fill:#000000;fill-opacity:1;fill-rule:nonzero;stroke:none"
           transform="matrix(1,0,0,-1,137.58168,62.6613)"><tspan
             id="tspan72"
             y="0"
             x="0">4</tspan></text>
</g><path
         id="path74"
         style="fill:#000000;fill-opacity:1;fill-rule:nonzero;stroke:none"
         d="m 1229.93,445.562 0.96,0.532 0.95,0.57 0.89,0.613 0.86,0.672 0.82,0.715 0.77,0.758 0.75,0.801 0.7,0.847 0.67,0.899 0.64,0.933 0.6,0.981 0.57,1.008 0.54,1.066 0.51,1.098 0.47,1.133 0.44,1.175 0.41,1.219 0.39,1.254 0.35,1.285 0.33,1.328 0.32,1.352 0.27,1.394 0.26,1.43 0.23,1.449 0.21,1.496 0.18,1.528 0.17,1.547 0.14,1.582 0.12,1.605 0.1,1.648 0.09,1.661 0.06,1.699 0.05,1.715 0.04,1.746 0.01,1.769 0,1.793 -0.01,1.825 -0.02,1.832 -0.04,1.867 -0.05,1.879 -0.06,1.902 -0.07,1.922 -0.09,1.945 -0.08,1.957 -0.1,1.977 -0.1,2 -0.11,2.008 -0.12,2.023 -0.13,2.043 -0.12,2.055 -0.13,2.066 -0.13,2.074 -0.13,2.09 -0.15,2.11 -0.12,2.109 -0.15,2.121 -0.13,2.129 -0.13,2.133 -0.13,2.14 -0.12,2.153 -0.13,2.168 -0.12,2.152 -0.11,2.176 -0.11,2.164 -0.09,2.176 -0.09,2.175 -0.08,2.172 -0.08,2.176 -0.06,2.188 -0.05,2.175 -0.03,2.176 -0.03,2.176 -0.01,2.164 0,2.164 0.02,2.164 0.02,2.164 0.05,2.141 0.07,2.156 0.08,2.129 0.1,2.133 0.12,2.121 0.14,2.109 0.17,2.11 0.17,2.086 0.21,2.078 0.23,2.062 0.25,2.055 0.28,2.047 0.29,2.019 0.34,2.012 0.36,2 0.38,1.977 0.41,1.953 0.44,1.945 0.48,1.922 0.5,1.902 0.52,1.879 0.57,1.867 0.61,1.836 0.62,1.824 0.67,1.789 0.71,1.77 0.73,1.746 0.78,1.727 0.82,1.691 0.84,1.668 0.9,1.637 0.93,1.617 0.98,1.582 1,1.547 1.06,1.519 1.1,1.493 1.14,1.46 1.19,1.43 1.23,1.395 1.27,1.351 1.32,1.328 1.39,1.286 1.41,1.253 1.46,1.207 -1.46,1.219 -1.41,1.254 -1.39,1.285 -1.32,1.332 -1.27,1.348 -1.23,1.398 -1.19,1.426 -1.14,1.461 -1.1,1.485 -1.06,1.527 -1,1.551 -0.98,1.582 -0.93,1.613 -0.9,1.637 -0.84,1.672 -0.82,1.691 -0.78,1.723 -0.73,1.746 -0.71,1.769 -0.67,1.793 -0.62,1.824 -0.61,1.832 -0.57,1.868 -0.52,1.879 -0.5,1.902 -0.48,1.922 -0.44,1.945 -0.41,1.957 -0.38,1.977 -0.36,2 -0.34,2.008 -0.29,2.023 -0.28,2.043 -0.25,2.055 -0.23,2.066 -0.21,2.074 -0.17,2.09 -0.17,2.109 -0.14,2.11 -0.12,2.121 -0.1,2.129 -0.08,2.133 -0.07,2.152 -0.05,2.141 -0.02,2.168 -0.02,2.164 0,2.164 0.01,2.164 0.03,2.176 0.03,2.175 0.05,2.172 0.06,2.188 0.08,2.175 0.08,2.176 0.09,2.176 0.09,2.176 0.11,2.164 0.11,2.176 0.12,2.152 0.13,2.164 0.12,2.152 0.13,2.145 0.13,2.129 0.13,2.133 0.15,2.121 0.12,2.109 0.15,2.109 0.13,2.086 0.13,2.079 0.13,2.062 0.12,2.055 0.13,2.043 0.12,2.023 0.11,2.012 0.1,2 0.1,1.976 0.08,1.954 0.09,1.945 0.07,1.922 0.06,1.902 0.05,1.879 0.04,1.867 0.02,1.836 0.01,1.824 0,1.789 -0.01,1.77 -0.04,1.746 -0.05,1.715 -0.06,1.703 -0.09,1.66 -0.1,1.645 -0.12,1.605 -0.14,1.582 -0.17,1.551 -0.18,1.527 -0.21,1.492 -0.23,1.45 -0.26,1.429 -0.27,1.395 -0.32,1.352 -0.33,1.328 -0.35,1.285 -0.39,1.254 -0.41,1.218 -0.44,1.176 -0.47,1.133 -0.51,1.098 -0.54,1.066 -0.57,1.012 -0.6,0.976 -0.64,0.934 -0.67,0.902 -0.7,0.844 -0.75,0.805 -0.77,0.758 -0.82,0.714 -0.86,0.668 -0.89,0.618 -0.95,0.57 -0.96,0.527 1.26,-0.672 1.22,-0.714 1.18,-0.758 1.11,-0.801 1.07,-0.836 1.03,-0.887 0.97,-0.926 0.94,-0.953 0.9,-1 0.83,-1.047 0.8,-1.074 0.77,-1.121 0.72,-1.144 0.68,-1.184 0.63,-1.23 0.61,-1.254 0.56,-1.285 0.54,-1.329 0.48,-1.351 0.46,-1.395 0.43,-1.418 0.38,-1.453 0.37,-1.469 0.33,-1.507 0.28,-1.539 0.28,-1.571 0.23,-1.594 0.22,-1.613 0.17,-1.648 0.17,-1.66 0.13,-1.692 0.1,-1.722 0.09,-1.739 0.06,-1.765 0.03,-1.782 0.03,-1.812 0,-1.824 -0.03,-1.848 -0.03,-1.867 -0.05,-1.879 -0.08,-1.899 -0.07,-1.921 -0.12,-1.934 -0.11,-1.957 -0.12,-1.965 -0.15,-1.98 -0.15,-2 -0.16,-1.996 -0.17,-2.024 -0.18,-2.031 -0.19,-2.043 -0.19,-2.055 -0.2,-2.066 -0.21,-2.078 -0.21,-2.074 -0.22,-2.098 -0.22,-2.09 -0.21,-2.109 -0.22,-2.11 -0.22,-2.109 -0.21,-2.121 -0.23,-2.129 -0.2,-2.121 -0.22,-2.133 -0.2,-2.129 -0.19,-2.133 -0.19,-2.133 -0.19,-2.128 -0.18,-2.133 -0.17,-2.133 -0.16,-2.129 -0.14,-2.121 -0.15,-2.133 -0.12,-2.109 -0.11,-2.117 -0.09,-2.11 -0.09,-2.101 -0.07,-2.098 -0.04,-2.086 -0.03,-2.078 -0.02,-2.074 0.02,-2.055 0.02,-2.055 0.05,-2.043 0.07,-2.035 0.09,-2.008 0.12,-2.011 0.14,-1.989 0.17,-1.976 0.19,-1.969 0.22,-1.945 0.24,-1.934 0.29,-1.91 0.31,-1.902 0.34,-1.879 0.36,-1.856 0.41,-1.844 0.44,-1.824 0.46,-1.804 0.5,-1.778 0.55,-1.758 0.58,-1.738 0.61,-1.703 0.66,-1.691 0.69,-1.657 0.74,-1.636 0.78,-1.618 0.81,-1.582 0.87,-1.558 0.9,-1.527 0.95,-1.504 0.99,-1.473 1.05,-1.441 1.08,-1.418 1.15,-1.372 1.18,-1.351 1.24,-1.32 1.29,-1.274 1.34,-1.254 1.39,-1.219 -1.39,-1.207 -1.34,-1.253 -1.29,-1.274 -1.24,-1.316 -1.18,-1.352 -1.15,-1.375 -1.08,-1.418 -1.05,-1.437 -0.99,-1.473 -0.95,-1.504 -0.9,-1.527 -0.87,-1.563 -0.81,-1.582 -0.78,-1.613 -0.74,-1.637 -0.69,-1.66 -0.66,-1.691 -0.61,-1.715 -0.58,-1.723 -0.55,-1.758 -0.5,-1.781 -0.46,-1.801 -0.44,-1.824 -0.41,-1.848 -0.36,-1.855 -0.34,-1.879 -0.31,-1.902 -0.29,-1.91 -0.24,-1.934 -0.22,-1.945 -0.19,-1.965 -0.17,-1.977 -0.14,-1.988 -0.12,-2.012 -0.09,-2.011 -0.07,-2.032 -0.05,-2.043 -0.02,-2.054 -0.02,-2.055 0.02,-2.078 0.03,-2.074 0.04,-2.09 0.07,-2.098 0.09,-2.098 0.09,-2.109 0.11,-2.121 0.12,-2.109 0.15,-2.133 0.14,-2.117 0.16,-2.133 0.17,-2.133 0.18,-2.129 0.19,-2.133 0.19,-2.133 0.19,-2.128 0.2,-2.133 0.22,-2.133 0.2,-2.117 0.23,-2.133 0.21,-2.121 0.22,-2.11 0.22,-2.109 0.21,-2.109 0.22,-2.086 0.22,-2.098 0.21,-2.078 0.21,-2.078 0.2,-2.063 0.19,-2.054 0.19,-2.043 0.18,-2.035 0.17,-2.02 0.16,-2.012 0.15,-1.988 0.15,-1.977 0.12,-1.968 0.11,-1.953 0.12,-1.934 0.07,-1.922 0.08,-1.902 0.05,-1.879 0.03,-1.867 0.03,-1.848 0,-1.832 -0.03,-1.805 -0.03,-1.777 -0.06,-1.77 -0.09,-1.734 -0.1,-1.726 -0.13,-1.692 -0.17,-1.672 -0.17,-1.636 -0.22,-1.614 -0.23,-1.594 -0.28,-1.57 -0.28,-1.539 -0.33,-1.504 -0.37,-1.472 -0.38,-1.45 -0.43,-1.418 -0.46,-1.394 -0.48,-1.352 -0.54,-1.332 -0.56,-1.285 -0.61,-1.25 -0.63,-1.23 -0.68,-1.188 -0.72,-1.144 -0.77,-1.118 -0.8,-1.078 -0.83,-1.043 -0.9,-1 -0.94,-0.957 -0.97,-0.922 -1.03,-0.89 -1.07,-0.836 -1.11,-0.801 -1.18,-0.758 -1.22,-0.715 -1.26,-0.672" /><path
         id="path76"
         style="fill:none;stroke:#000000;stroke-width:3.9849999;stroke-linecap:butt;stroke-linejoin:miter;stroke-miterlimit:10;stroke-dasharray:none;stroke-opacity:1"
         d="m 1229.93,445.562 0.96,0.532 0.95,0.57 0.89,0.613 0.86,0.672 0.82,0.715 0.77,0.758 0.75,0.801 0.7,0.847 0.67,0.899 0.64,0.933 0.6,0.981 0.57,1.008 0.54,1.066 0.51,1.098 0.47,1.133 0.44,1.175 0.41,1.219 0.39,1.254 0.35,1.285 0.33,1.328 0.32,1.352 0.27,1.394 0.26,1.43 0.23,1.449 0.21,1.496 0.18,1.528 0.17,1.547 0.14,1.582 0.12,1.605 0.1,1.648 0.09,1.661 0.06,1.699 0.05,1.715 0.04,1.746 0.01,1.769 0,1.793 -0.01,1.825 -0.02,1.832 -0.04,1.867 -0.05,1.879 -0.06,1.902 -0.07,1.922 -0.09,1.945 -0.08,1.957 -0.1,1.977 -0.1,2 -0.11,2.008 -0.12,2.023 -0.13,2.043 -0.12,2.055 -0.13,2.066 -0.13,2.074 -0.13,2.09 -0.15,2.11 -0.12,2.109 -0.15,2.121 -0.13,2.129 -0.13,2.133 -0.13,2.14 -0.12,2.153 -0.13,2.168 -0.12,2.152 -0.11,2.176 -0.11,2.164 -0.09,2.176 -0.09,2.175 -0.08,2.172 -0.08,2.176 -0.06,2.188 -0.05,2.175 -0.03,2.176 -0.03,2.176 -0.01,2.164 0,2.164 0.02,2.164 0.02,2.164 0.05,2.141 0.07,2.156 0.08,2.129 0.1,2.133 0.12,2.121 0.14,2.109 0.17,2.11 0.17,2.086 0.21,2.078 0.23,2.062 0.25,2.055 0.28,2.047 0.29,2.019 0.34,2.012 0.36,2 0.38,1.977 0.41,1.953 0.44,1.945 0.48,1.922 0.5,1.902 0.52,1.879 0.57,1.867 0.61,1.836 0.62,1.824 0.67,1.789 0.71,1.77 0.73,1.746 0.78,1.727 0.82,1.691 0.84,1.668 0.9,1.637 0.93,1.617 0.98,1.582 1,1.547 1.06,1.519 1.1,1.493 1.14,1.46 1.19,1.43 1.23,1.395 1.27,1.351 1.32,1.328 1.39,1.286 1.41,1.253 1.46,1.207 -1.46,1.219 -1.41,1.254 -1.39,1.285 -1.32,1.332 -1.27,1.348 -1.23,1.398 -1.19,1.426 -1.14,1.461 -1.1,1.485 -1.06,1.527 -1,1.551 -0.98,1.582 -0.93,1.613 -0.9,1.637 -0.84,1.672 -0.82,1.691 -0.78,1.723 -0.73,1.746 -0.71,1.769 -0.67,1.793 -0.62,1.824 -0.61,1.832 -0.57,1.868 -0.52,1.879 -0.5,1.902 -0.48,1.922 -0.44,1.945 -0.41,1.957 -0.38,1.977 -0.36,2 -0.34,2.008 -0.29,2.023 -0.28,2.043 -0.25,2.055 -0.23,2.066 -0.21,2.074 -0.17,2.09 -0.17,2.109 -0.14,2.11 -0.12,2.121 -0.1,2.129 -0.08,2.133 -0.07,2.152 -0.05,2.141 -0.02,2.168 -0.02,2.164 0,2.164 0.01,2.164 0.03,2.176 0.03,2.175 0.05,2.172 0.06,2.188 0.08,2.175 0.08,2.176 0.09,2.176 0.09,2.176 0.11,2.164 0.11,2.176 0.12,2.152 0.13,2.164 0.12,2.152 0.13,2.145 0.13,2.129 0.13,2.133 0.15,2.121 0.12,2.109 0.15,2.109 0.13,2.086 0.13,2.079 0.13,2.062 0.12,2.055 0.13,2.043 0.12,2.023 0.11,2.012 0.1,2 0.1,1.976 0.08,1.954 0.09,1.945 0.07,1.922 0.06,1.902 0.05,1.879 0.04,1.867 0.02,1.836 0.01,1.824 0,1.789 -0.01,1.77 -0.04,1.746 -0.05,1.715 -0.06,1.703 -0.09,1.66 -0.1,1.645 -0.12,1.605 -0.14,1.582 -0.17,1.551 -0.18,1.527 -0.21,1.492 -0.23,1.45 -0.26,1.429 -0.27,1.395 -0.32,1.352 -0.33,1.328 -0.35,1.285 -0.39,1.254 -0.41,1.218 -0.44,1.176 -0.47,1.133 -0.51,1.098 -0.54,1.066 -0.57,1.012 -0.6,0.976 -0.64,0.934 -0.67,0.902 -0.7,0.844 -0.75,0.805 -0.77,0.758 -0.82,0.714 -0.86,0.668 -0.89,0.618 -0.95,0.57 -0.96,0.527 1.26,-0.672 1.22,-0.714 1.18,-0.758 1.11,-0.801 1.07,-0.836 1.03,-0.887 0.97,-0.926 0.94,-0.953 0.9,-1 0.83,-1.047 0.8,-1.074 0.77,-1.121 0.72,-1.144 0.68,-1.184 0.63,-1.23 0.61,-1.254 0.56,-1.285 0.54,-1.329 0.48,-1.351 0.46,-1.395 0.43,-1.418 0.38,-1.453 0.37,-1.469 0.33,-1.507 0.28,-1.539 0.28,-1.571 0.23,-1.594 0.22,-1.613 0.17,-1.648 0.17,-1.66 0.13,-1.692 0.1,-1.722 0.09,-1.739 0.06,-1.765 0.03,-1.782 0.03,-1.812 0,-1.824 -0.03,-1.848 -0.03,-1.867 -0.05,-1.879 -0.08,-1.899 -0.07,-1.921 -0.12,-1.934 -0.11,-1.957 -0.12,-1.965 -0.15,-1.98 -0.15,-2 -0.16,-1.996 -0.17,-2.024 -0.18,-2.031 -0.19,-2.043 -0.19,-2.055 -0.2,-2.066 -0.21,-2.078 -0.21,-2.074 -0.22,-2.098 -0.22,-2.09 -0.21,-2.109 -0.22,-2.11 -0.22,-2.109 -0.21,-2.121 -0.23,-2.129 -0.2,-2.121 -0.22,-2.133 -0.2,-2.129 -0.19,-2.133 -0.19,-2.133 -0.19,-2.128 -0.18,-2.133 -0.17,-2.133 -0.16,-2.129 -0.14,-2.121 -0.15,-2.133 -0.12,-2.109 -0.11,-2.117 -0.09,-2.11 -0.09,-2.101 -0.07,-2.098 -0.04,-2.086 -0.03,-2.078 -0.02,-2.074 0.02,-2.055 0.02,-2.055 0.05,-2.043 0.07,-2.035 0.09,-2.008 0.12,-2.011 0.14,-1.989 0.17,-1.976 0.19,-1.969 0.22,-1.945 0.24,-1.934 0.29,-1.91 0.31,-1.902 0.34,-1.879 0.36,-1.856 0.41,-1.844 0.44,-1.824 0.46,-1.804 0.5,-1.778 0.55,-1.758 0.58,-1.738 0.61,-1.703 0.66,-1.691 0.69,-1.657 0.74,-1.636 0.78,-1.618 0.81,-1.582 0.87,-1.558 0.9,-1.527 0.95,-1.504 0.99,-1.473 1.05,-1.441 1.08,-1.418 1.15,-1.372 1.18,-1.351 1.24,-1.32 1.29,-1.274 1.34,-1.254 1.39,-1.219 -1.39,-1.207 -1.34,-1.253 -1.29,-1.274 -1.24,-1.316 -1.18,-1.352 -1.15,-1.375 -1.08,-1.418 -1.05,-1.437 -0.99,-1.473 -0.95,-1.504 -0.9,-1.527 -0.87,-1.563 -0.81,-1.582 -0.78,-1.613 -0.74,-1.637 -0.69,-1.66 -0.66,-1.691 -0.61,-1.715 -0.58,-1.723 -0.55,-1.758 -0.5,-1.781 -0.46,-1.801 -0.44,-1.824 -0.41,-1.848 -0.36,-1.855 -0.34,-1.879 -0.31,-1.902 -0.29,-1.91 -0.24,-1.934 -0.22,-1.945 -0.19,-1.965 -0.17,-1.977 -0.14,-1.988 -0.12,-2.012 -0.09,-2.011 -0.07,-2.032 -0.05,-2.043 -0.02,-2.054 -0.02,-2.055 0.02,-2.078 0.03,-2.074 0.04,-2.09 0.07,-2.098 0.09,-2.098 0.09,-2.109 0.11,-2.121 0.12,-2.109 0.15,-2.133 0.14,-2.117 0.16,-2.133 0.17,-2.133 0.18,-2.129 0.19,-2.133 0.19,-2.133 0.19,-2.128 0.2,-2.133 0.22,-2.133 0.2,-2.117 0.23,-2.133 0.21,-2.121 0.22,-2.11 0.22,-2.109 0.21,-2.109 0.22,-2.086 0.22,-2.098 0.21,-2.078 0.21,-2.078 0.2,-2.063 0.19,-2.054 0.19,-2.043 0.18,-2.035 0.17,-2.02 0.16,-2.012 0.15,-1.988 0.15,-1.977 0.12,-1.968 0.11,-1.953 0.12,-1.934 0.07,-1.922 0.08,-1.902 0.05,-1.879 0.03,-1.867 0.03,-1.848 0,-1.832 -0.03,-1.805 -0.03,-1.777 -0.06,-1.77 -0.09,-1.734 -0.1,-1.726 -0.13,-1.692 -0.17,-1.672 -0.17,-1.636 -0.22,-1.614 -0.23,-1.594 -0.28,-1.57 -0.28,-1.539 -0.33,-1.504 -0.37,-1.472 -0.38,-1.45 -0.43,-1.418 -0.46,-1.394 -0.48,-1.352 -0.54,-1.332 -0.56,-1.285 -0.61,-1.25 -0.63,-1.23 -0.68,-1.188 -0.72,-1.144 -0.77,-1.118 -0.8,-1.078 -0.83,-1.043 -0.9,-1 -0.94,-0.957 -0.97,-0.922 -1.03,-0.89 -1.07,-0.836 -1.11,-0.801 -1.18,-0.758 -1.22,-0.715 -1.26,-0.672 z" /><g
         transform="matrix(146.4,0,0,-134.4,199.48,435.48)"
         id="g78"><rect
           id="rect80"
           style="fill:#ffffff;fill-opacity:1;fill-rule:nonzero"
           transform="matrix(1,0,0,-1,0,1)"
           height="1"
           width="1"
           y="0"
           x="0" /></g><g
         transform="scale(10,10)"
         id="g82"><text
           id="text84"
           style="font-variant:normal;font-weight:normal;font-size:10.90909958px;font-family:CMMI10;-inkscape-font-specification:CMMI10;writing-mode:lr-tb;fill:#000000;fill-opacity:1;fill-rule:nonzero;stroke:none"
           transform="matrix(1,0,0,-1,22.9602,33.1199)"><tspan
             id="tspan86"
             y="0"
             x="0">O</tspan></text>
</g><g
         transform="matrix(147.6,0,0,-134.4,198.28,1058.76)"
         id="g88"><rect
           id="rect90"
           style="fill:#ffffff;fill-opacity:1;fill-rule:nonzero"
           transform="matrix(1,0,0,-1,0,1)"
           height="1"
           width="1"
           y="0"
           x="0" /></g><g
         transform="scale(10,10)"
         id="g92"><text
           id="text94"
           style="font-variant:normal;font-weight:normal;font-size:10.90909958px;font-family:CMMI10;-inkscape-font-specification:CMMI10;writing-mode:lr-tb;fill:#000000;fill-opacity:1;fill-rule:nonzero;stroke:none"
           transform="matrix(1,0,0,-1,22.8398,95.448)"><tspan
             id="tspan96"
             y="0"
             x="0">Y</tspan></text>
</g><path
         id="path98"
         style="fill:none;stroke:#000000;stroke-width:11.95530033;stroke-linecap:butt;stroke-linejoin:miter;stroke-miterlimit:10;stroke-dasharray:none;stroke-opacity:1"
         d="m 0.398438,435.602 2419.231562,0" /><path
         id="path100"
         style="fill:none;stroke:#000000;stroke-width:11.95530033;stroke-linecap:butt;stroke-linejoin:miter;stroke-miterlimit:10;stroke-dasharray:none;stroke-opacity:1"
         d="m 346,89.6484 0,921.9616" /><g
         transform="scale(10,10)"
         id="g102"><text
           id="text104"
           style="font-variant:normal;font-weight:normal;font-size:11.9552002px;font-family:CMCSC10;-inkscape-font-specification:CMCSC10;writing-mode:lr-tb;fill:#000000;fill-opacity:1;fill-rule:nonzero;stroke:none"
           transform="matrix(1,0,0,-1,98.441,-0.466406)"><tspan
             id="tspan106"
             y="0"
             x="0 8.5141773 12.111574 19.790337 28.065199 34.667976 41.270756">Fig.60.</tspan></text>
</g></g></g></svg>