<?xml version="1.0" encoding="UTF-8" standalone="no"?>
<svg
   xmlns:dc="http://purl.org/dc/elements/1.1/"
   xmlns:cc="http://creativecommons.org/ns#"
   xmlns:rdf="http://www.w3.org/1999/02/22-rdf-syntax-ns#"
   xmlns:svg="http://www.w3.org/2000/svg"
   xmlns="http://www.w3.org/2000/svg"
   viewBox="0 0 237.5 172.5"
   height="172.5"
   width="237.5"
   xml:space="preserve"
   version="1.1"
   id="svg2"><metadata
     id="metadata8"><rdf:RDF><cc:Work
         rdf:about=""><dc:format>image/svg+xml</dc:format><dc:type
           rdf:resource="http://purl.org/dc/dcmitype/StillImage" /></cc:Work></rdf:RDF></metadata><defs
     id="defs6"><clipPath
       id="clipPath12"
       clipPathUnits="userSpaceOnUse"><path
         id="path14"
         d="m -2,-2 190,0 0,138 -190,0 0,-138 z" /></clipPath></defs><g
     clip-path="url(#clipPath12)"
     transform="matrix(1.25,0,0,-1.25,2.5,170)"
     id="g10"><g
       transform="scale(0.1,0.1)"
       id="g16"><path
         id="path18"
         style="fill:none;stroke:#000000;stroke-width:11.95530033;stroke-linecap:butt;stroke-linejoin:miter;stroke-miterlimit:10;stroke-dasharray:none;stroke-opacity:1"
         d="m 106,319.602 450.5,315.441 450.51,315.453" /><path
         id="path20"
         style="fill:none;stroke:#000000;stroke-width:11.95530033;stroke-linecap:butt;stroke-linejoin:miter;stroke-miterlimit:10;stroke-dasharray:none;stroke-opacity:1"
         d="M 106,319.602 270.598,771.836 435.199,1224.07" /><path
         id="path22"
         style="fill:none;stroke:#000000;stroke-width:11.95530033;stroke-linecap:butt;stroke-linejoin:miter;stroke-miterlimit:10;stroke-dasharray:none;stroke-opacity:1"
         d="m 106,319.602 38.75,442.863 38.738,442.865" /><path
         id="path24"
         style="fill:none;stroke:#000000;stroke-width:11.95530033;stroke-linecap:butt;stroke-linejoin:miter;stroke-miterlimit:10;stroke-dasharray:none;stroke-opacity:1"
         d="m 610.004,1192.56 -30.531,8.22 -30.621,7.06 -30.653,5.91 -30.629,4.76 -30.586,3.64 -30.476,2.53 -30.332,1.43 -30.137,0.35 -29.906,-0.72 -29.629,-1.76 -29.324,-2.75 -28.973,-3.76 -28.586,-4.71 -28.168,-5.65 -27.707,-6.55 -27.238,-7.43 -26.731,-8.27 -26.1989,-9.08 -25.6328,-9.86 -25.0586,-10.6" /><g
         transform="scale(10,10)"
         id="g26"><text
           id="text28"
           style="font-variant:normal;font-weight:normal;font-size:10.90909958px;font-family:CMMI10;-inkscape-font-specification:CMMI10;writing-mode:lr-tb;fill:#000000;fill-opacity:1;fill-rule:nonzero;stroke:none"
           transform="matrix(1,0,0,-1,41.4328,126.392)"><tspan
             id="tspan30"
             y="0"
             x="0">A</tspan><tspan
             id="tspan32"
             y="1.8746099"
             x="-27.5242">B</tspan></text>
<text
           id="text34"
           style="font-variant:normal;font-weight:normal;font-size:10.90909672px;font-family:CMMI10;-inkscape-font-specification:CMMI10;writing-mode:lr-tb;fill:#000000;fill-opacity:1;fill-rule:nonzero;stroke:none"
           transform="matrix(0.819152,0.573576,0.573576,-0.819152,60.341,69.8141)"><tspan
             id="tspan36"
             y="0"
             x="0">r</tspan></text>
</g><path
         id="path38"
         style="fill:none;stroke:#000000;stroke-width:11.95530033;stroke-linecap:butt;stroke-linejoin:miter;stroke-miterlimit:10;stroke-dasharray:none;stroke-opacity:1"
         d="m 228.664,656.633 -0.726,0.262 -0.747,0.265 -0.734,0.262 -0.738,0.266 -0.735,0.261 -0.738,0.254 -0.734,0.262 -0.746,0.254 -0.739,0.254 -0.734,0.254 -0.75,0.25 -0.734,0.253 -0.747,0.243 -0.746,0.25 -0.738,0.242 -0.746,0.242 -0.746,0.242 -0.75,0.242 -0.734,0.231 -0.747,0.242 -0.75,0.231 -0.746,0.23 -0.746,0.23 -0.746,0.231 -0.75,0.23 -0.758,0.219 -0.746,0.235 -0.746,0.218 -0.746,0.219 -0.762,0.219 -0.746,0.222 -0.758,0.219 -0.746,0.219 -0.757,0.207 -0.747,0.211 -0.761,0.207 -0.758,0.211 -0.746,0.207 -0.758,0.211 -0.758,0.195 -0.758,0.211 -0.746,0.195 -0.758,0.2 -0.757,0.199 -0.758,0.183 -0.762,0.2 -0.758,0.199 -0.757,0.183 -0.758,0.188 -0.77,0.187 -0.758,0.188 -0.757,0.187 -0.758,0.176 -0.77,0.188 -0.758,0.176 -0.757,0.175 -0.77,0.176 -0.758,0.176 -0.769,0.164 -0.758,0.176 -0.77,0.164 -0.757,0.164 -0.77,0.164 -0.766,0.168 -0.757,0.164 -0.77,0.164 -0.769,0.152 -0.77,0.157 -0.758,0.152 -0.769,0.152 -0.77,0.157 -0.769,0.152 -0.77,0.144 -0.769,0.153 -0.766,0.144 -0.77,0.141 -0.769,0.144 -0.77,0.141 -0.769,0.133 -0.77,0.144 -0.769,0.129 -0.77,0.133 -0.777,0.133 -0.77,0.133 -0.769,0.129 -0.77,0.121 -0.781,0.121 -0.766,0.133 -0.769,0.121 -0.781,0.121 -0.77,0.109 -0.781,0.121 -0.766,0.11 -0.781,0.121 -0.77,0.109 -0.781,0.11 -0.769,0.109 -0.778,0.101 -0.769,0.11 -0.782,0.098 -0.781,0.109 -0.765,0.101 -0.782,0.086 -0.781,0.098 -0.769,0.102 -0.778,0.086 -0.781,0.097 -0.77,0.09 -0.781,0.09 -0.777,0.086 -0.781,0.078 -0.782,0.086 -0.769,0.078 -0.777,0.078 -0.782,0.074 -0.781,0.078 -0.777,0.079 -0.782,0.074 -0.781,0.066 -0.777,0.067" /><g
         transform="scale(10,10)"
         id="g40"><text
           id="text42"
           style="font-variant:normal;font-weight:normal;font-size:10.90910339px;font-family:CMMI10;-inkscape-font-specification:CMMI10;writing-mode:lr-tb;fill:#000000;fill-opacity:1;fill-rule:nonzero;stroke:none"
           transform="matrix(0.34202,0.939693,0.939693,-0.34202,22.0348,68.968)"><tspan
             id="tspan44"
             y="0"
             x="0 5.6347237">dθ</tspan></text>
</g><path
         id="path46"
         style="fill:none;stroke:#000000;stroke-width:11.95530033;stroke-linecap:butt;stroke-linejoin:miter;stroke-miterlimit:10;stroke-dasharray:none;stroke-opacity:1"
         d="m 285.332,319.602 0,0.91 -0.012,0.91 -0.011,0.914 -0.02,0.91 -0.023,0.914 -0.024,0.91 -0.031,0.922 -0.031,0.914 -0.035,0.91 -0.043,0.914 -0.055,0.911 -0.055,0.902 -0.054,0.91 -0.067,0.914 -0.066,0.91 -0.067,0.914 -0.078,0.911 -0.086,0.914 -0.078,0.898 -0.098,0.914 -0.089,0.91 -0.098,0.903 -0.109,0.91 -0.11,0.902 -0.109,0.91 -0.121,0.903 -0.121,0.898 -0.133,0.914 -0.133,0.899 -0.129,0.902 -0.144,0.902 -0.145,0.899 -0.152,0.902 -0.153,0.902 -0.164,0.899 -0.168,0.902 -0.164,0.891 -0.176,0.898 -0.175,0.891 -0.176,0.902 -0.188,0.891 -0.195,0.887 -0.199,0.89 -0.199,0.903 -0.207,0.89 -0.207,0.879 -0.211,0.891 -0.219,0.886 -0.219,0.879 -0.23,0.891 -0.231,0.879 -0.242,0.879 -0.242,0.89 -0.242,0.879 -0.254,0.879 -0.25,0.867 -0.266,0.879 -0.254,0.879 -0.273,0.867 -0.274,0.871 -0.277,0.879 -0.273,0.868 -0.286,0.867 -0.296,0.855 -0.297,0.867 -0.297,0.86 -0.297,0.867 -0.309,0.855 -0.316,0.86 -0.32,0.855 -0.317,0.86 -0.32,0.855 -0.328,0.848 -0.34,0.843 -0.332,0.856 -0.352,0.848 -0.34,0.836 -0.351,0.843 -0.352,0.848 -0.363,0.836 -0.363,0.832 -0.371,0.836 -0.375,0.836 -0.371,0.836 -0.387,0.824 -0.383,0.832 -0.387,0.824 -0.394,0.824 -0.395,0.825 -0.406,0.812 -0.398,0.824 -0.414,0.813 -0.418,0.812 -0.418,0.817 -0.418,0.812 -0.43,0.801 -0.43,0.801 -0.437,0.805 -0.438,0.8 -0.441,0.801 -0.449,0.793 -0.453,0.801 -0.45,0.793 -0.461,0.789 -0.461,0.781 -0.461,0.789 -0.472,0.781 -0.485,0.782 -0.472,0.769 -0.485,0.778 -0.48,0.769 -0.496,0.77 -0.496,0.769 -0.504,0.77 -0.496,0.758 -0.504,0.757 -0.516,0.758 -0.515,0.758 -0.516,0.746 -0.52,0.75" /><g
         transform="scale(10,10)"
         id="g48"><text
           id="text50"
           style="font-variant:normal;font-weight:normal;font-size:10.90909958px;font-family:CMMI10;-inkscape-font-specification:CMMI10;writing-mode:lr-tb;fill:#000000;fill-opacity:1;fill-rule:nonzero;stroke:none"
           transform="matrix(1,0,0,-1,29.6957,35.5051)"><tspan
             id="tspan52"
             y="0"
             x="0">θ</tspan></text>
</g><g
         transform="matrix(146.4,0,0,-134.4,-40.5201,319.48)"
         id="g54"><rect
           id="rect56"
           style="fill:#ffffff;fill-opacity:1;fill-rule:nonzero"
           transform="matrix(1,0,0,-1,0,1)"
           height="1"
           width="1"
           y="0"
           x="0" /></g><g
         transform="scale(10,10)"
         id="g58"><text
           id="text60"
           style="font-variant:normal;font-weight:normal;font-size:10.90909958px;font-family:CMMI10;-inkscape-font-specification:CMMI10;writing-mode:lr-tb;fill:#000000;fill-opacity:1;fill-rule:nonzero;stroke:none"
           transform="matrix(1,0,0,-1,-1.03984,21.5199)"><tspan
             id="tspan62"
             y="0"
             x="0">O</tspan></text>
</g><g
         transform="matrix(159.6,0,0,-134.4,1734.78,319.48)"
         id="g64"><rect
           id="rect66"
           style="fill:#ffffff;fill-opacity:1;fill-rule:nonzero"
           transform="matrix(1,0,0,-1,0,1)"
           height="1"
           width="1"
           y="0"
           x="0" /></g><g
         transform="scale(10,10)"
         id="g68"><text
           id="text70"
           style="font-variant:normal;font-weight:normal;font-size:10.90909958px;font-family:CMMI10;-inkscape-font-specification:CMMI10;writing-mode:lr-tb;fill:#000000;fill-opacity:1;fill-rule:nonzero;stroke:none"
           transform="matrix(1,0,0,-1,176.49,21.5199)"><tspan
             id="tspan72"
             y="0"
             x="0">X</tspan></text>
</g><path
         id="path74"
         style="fill:none;stroke:#000000;stroke-width:11.95530033;stroke-linecap:butt;stroke-linejoin:miter;stroke-miterlimit:10;stroke-dasharray:none;stroke-opacity:1"
         d="m 106,319.602 1728.02,0" /><g
         transform="scale(10,10)"
         id="g76"><text
           id="text78"
           style="font-variant:normal;font-weight:normal;font-size:11.9552002px;font-family:CMCSC10;-inkscape-font-specification:CMCSC10;writing-mode:lr-tb;fill:#000000;fill-opacity:1;fill-rule:nonzero;stroke:none"
           transform="matrix(1,0,0,-1,74.441,-0.110938)"><tspan
             id="tspan80"
             y="0"
             x="0 8.5141897 12.111581 19.790342 28.065218 34.667995 41.270775">Fig.61.</tspan></text>
</g></g></g></svg>