<?xml version="1.0" encoding="UTF-8" standalone="no"?>
<svg
   xmlns:dc="http://purl.org/dc/elements/1.1/"
   xmlns:cc="http://creativecommons.org/ns#"
   xmlns:rdf="http://www.w3.org/1999/02/22-rdf-syntax-ns#"
   xmlns:svg="http://www.w3.org/2000/svg"
   xmlns="http://www.w3.org/2000/svg"
   viewBox="0 0 202.5 221.25"
   height="221.25"
   width="202.5"
   xml:space="preserve"
   version="1.1"
   id="svg2"><metadata
     id="metadata8"><rdf:RDF><cc:Work
         rdf:about=""><dc:format>image/svg+xml</dc:format><dc:type
           rdf:resource="http://purl.org/dc/dcmitype/StillImage" /></cc:Work></rdf:RDF></metadata><defs
     id="defs6"><clipPath
       id="clipPath12"
       clipPathUnits="userSpaceOnUse"><path
         id="path14"
         d="m -2,-2 162,0 0,177 -162,0 0,-177 z" /></clipPath></defs><g
     clip-path="url(#clipPath12)"
     transform="matrix(1.25,0,0,-1.25,2.5,218.75)"
     id="g10"><g
       transform="scale(0.1,0.1)"
       id="g16"><path
         id="path18"
         style="fill:none;stroke:#000000;stroke-width:7.97009993;stroke-linecap:butt;stroke-linejoin:miter;stroke-miterlimit:10;stroke-dasharray:none;stroke-opacity:1"
         d="m 1107.29,921.609 0,23.621" /><path
         id="path20"
         style="fill:none;stroke:#000000;stroke-width:7.97009993;stroke-linecap:butt;stroke-linejoin:miter;stroke-miterlimit:10;stroke-dasharray:none;stroke-opacity:1"
         d="m 1107.29,992.461 0,23.629" /><path
         id="path22"
         style="fill:none;stroke:#000000;stroke-width:7.97009993;stroke-linecap:butt;stroke-linejoin:miter;stroke-miterlimit:10;stroke-dasharray:none;stroke-opacity:1"
         d="m 1107.29,1016.09 0,23.61" /><path
         id="path24"
         style="fill:none;stroke:#000000;stroke-width:7.97009993;stroke-linecap:butt;stroke-linejoin:miter;stroke-miterlimit:10;stroke-dasharray:none;stroke-opacity:1"
         d="m 1107.29,1086.95 0,23.62" /><path
         id="path26"
         style="fill:none;stroke:#000000;stroke-width:7.97009993;stroke-linecap:butt;stroke-linejoin:miter;stroke-miterlimit:10;stroke-dasharray:none;stroke-opacity:1"
         d="m 1107.29,1110.57 0,23.62" /><path
         id="path28"
         style="fill:none;stroke:#000000;stroke-width:7.97009993;stroke-linecap:butt;stroke-linejoin:miter;stroke-miterlimit:10;stroke-dasharray:none;stroke-opacity:1"
         d="m 1107.29,1181.42 0,23.62" /><path
         id="path30"
         style="fill:none;stroke:#000000;stroke-width:7.97009993;stroke-linecap:butt;stroke-linejoin:miter;stroke-miterlimit:10;stroke-dasharray:none;stroke-opacity:1"
         d="m 1107.29,1205.04 0,23.62" /><path
         id="path32"
         style="fill:none;stroke:#000000;stroke-width:7.97009993;stroke-linecap:butt;stroke-linejoin:miter;stroke-miterlimit:10;stroke-dasharray:none;stroke-opacity:1"
         d="m 1107.29,1275.9 0,23.61" /><path
         id="path34"
         style="fill:none;stroke:#000000;stroke-width:7.97009993;stroke-linecap:butt;stroke-linejoin:miter;stroke-miterlimit:10;stroke-dasharray:none;stroke-opacity:1"
         d="m 1107.29,1299.51 0,23.62" /><path
         id="path36"
         style="fill:none;stroke:#000000;stroke-width:7.97009993;stroke-linecap:butt;stroke-linejoin:miter;stroke-miterlimit:10;stroke-dasharray:none;stroke-opacity:1"
         d="m 1107.29,1370.38 0,23.62" /><path
         id="path38"
         style="fill:none;stroke:#000000;stroke-width:7.97009993;stroke-linecap:butt;stroke-linejoin:miter;stroke-miterlimit:10;stroke-dasharray:none;stroke-opacity:1"
         d="m 1107.29,1394 0,23.61" /><path
         id="path40"
         style="fill:none;stroke:#000000;stroke-width:7.97009993;stroke-linecap:butt;stroke-linejoin:miter;stroke-miterlimit:10;stroke-dasharray:none;stroke-opacity:1"
         d="m 1107.29,1464.85 0,23.62" /><path
         id="path42"
         style="fill:none;stroke:#000000;stroke-width:11.95530033;stroke-linecap:butt;stroke-linejoin:miter;stroke-miterlimit:10;stroke-dasharray:none;stroke-opacity:1"
         d="m 1009.1,1137.61 65.45,0" /><path
         id="path44"
         style="fill:#000000;fill-opacity:1;fill-rule:nonzero;stroke:none"
         d="m 1065.22,1137.61 -28.03,-24.9 37.36,24.9 -37.36,24.91 28.03,-24.91" /><path
         id="path46"
         style="fill:none;stroke:#000000;stroke-width:11.95530033;stroke-linecap:butt;stroke-linejoin:miter;stroke-miterlimit:10;stroke-dasharray:none;stroke-opacity:1"
         d="m 1065.22,1137.61 -28.03,-24.9 37.36,24.9 -37.36,24.91 28.03,-24.91 z" /><path
         id="path48"
         style="fill:none;stroke:#000000;stroke-width:11.95530033;stroke-linecap:butt;stroke-linejoin:miter;stroke-miterlimit:10;stroke-dasharray:none;stroke-opacity:1"
         d="m 1205.47,1137.61 -65.45,0" /><path
         id="path50"
         style="fill:#000000;fill-opacity:1;fill-rule:nonzero;stroke:none"
         d="m 1149.35,1137.61 28.03,24.91 -37.36,-24.91 37.36,-24.9 -28.03,24.9" /><path
         id="path52"
         style="fill:none;stroke:#000000;stroke-width:11.95530033;stroke-linecap:butt;stroke-linejoin:miter;stroke-miterlimit:10;stroke-dasharray:none;stroke-opacity:1"
         d="m 1149.35,1137.61 28.03,24.91 -37.36,-24.91 37.36,-24.9 -28.03,24.9 z" /><g
         transform="scale(10,10)"
         id="g54"><text
           id="text56"
           style="font-variant:normal;font-weight:normal;font-size:10.90909958px;font-family:CMMI10;-inkscape-font-specification:CMMI10;writing-mode:lr-tb;fill:#000000;fill-opacity:1;fill-rule:nonzero;stroke:none"
           transform="matrix(1,0,0,-1,91.591,126.9)"><tspan
             id="tspan58"
             y="0"
             x="0 5.6347194">dx</tspan><tspan
             id="tspan60"
             y="-0.020312499"
             x="26.3953">y</tspan></text>
</g><g
         transform="matrix(122.4,0,0,-106.8,882.322,1073.91)"
         id="g62"><rect
           id="rect64"
           style="fill:#ffffff;fill-opacity:1;fill-rule:nonzero"
           transform="matrix(1,0,0,-1,0,1)"
           height="1"
           width="1"
           y="0"
           x="0" /></g><g
         transform="scale(10,10)"
         id="g66"><text
           id="text68"
           style="font-variant:normal;font-weight:normal;font-size:10.90909958px;font-family:CMMI10;-inkscape-font-specification:CMMI10;writing-mode:lr-tb;fill:#000000;fill-opacity:1;fill-rule:nonzero;stroke:none"
           transform="matrix(1,0,0,-1,91.2441,99.7234)"><tspan
             id="tspan70"
             y="0"
             x="0">x</tspan></text>
</g><path
         id="path72"
         style="fill:#000000;fill-opacity:1;fill-rule:nonzero;stroke:none"
         d="m 1097.32,941.527 -0.5,0.989 -0.54,0.933 -0.57,0.891 -0.6,0.855 -0.61,0.817 -0.65,0.777 -0.66,0.75 -0.71,0.703 -0.71,0.668 -0.75,0.637 -0.77,0.605 -0.79,0.571 -0.81,0.539 -0.83,0.504 -0.86,0.472 -0.88,0.453 -0.9,0.407 -0.92,0.382 -0.96,0.364 -0.96,0.328 -0.98,0.308 -1,0.274 -1.04,0.254 -1.04,0.23 -1.07,0.211 -1.07,0.184 -1.11,0.168 -1.11,0.14 -1.14,0.121 -1.16,0.11 -1.16,0.078 -1.19,0.066 -1.2,0.043 -1.2,0.043 -1.25,0.012 -1.24,0.012 -1.26,-0.024 -1.28,-0.019 -1.29,-0.047 -1.3,-0.043 -1.3,-0.055 -1.34,-0.078 -1.34,-0.074 -1.36,-0.102 -1.36,-0.086 -1.37,-0.109 -1.39,-0.109 -1.39,-0.11 -1.41,-0.121 -1.42,-0.133 -1.43,-0.132 -1.43,-0.133 -1.44,-0.129 -1.45,-0.145 -1.46,-0.132 -1.48,-0.129 -1.47,-0.133 -1.48,-0.133 -1.48,-0.133 -1.5,-0.129 -1.5,-0.121 -1.51,-0.113 -1.51,-0.121 -1.52,-0.098 -1.52,-0.097 -1.53,-0.098 -1.52,-0.078 -1.53,-0.078 -1.54,-0.055 -1.54,-0.043 -1.53,-0.043 -1.54,-0.035 -1.54,-0.012 -1.55,0 -1.54,0.024 -1.55,0.023 -1.53,0.055 -1.55,0.066 -1.54,0.074 -1.54,0.102 -1.547,0.121 -1.539,0.141 -1.527,0.164 -1.551,0.175 -1.527,0.211 -1.527,0.231 -1.516,0.25 -1.527,0.277 -1.516,0.309 -1.516,0.328 -1.504,0.351 -1.507,0.383 -1.481,0.418 -1.496,0.442 -1.484,0.472 -1.469,0.504 -1.473,0.528 -1.461,0.57 -1.453,0.594 -1.449,0.636 -1.426,0.672 -1.429,0.703 -1.418,0.735 -1.418,0.781 -1.395,0.812 -1.383,0.848 -1.386,0.887 -1.36,0.937 -1.351,0.965 -1.34,1.024 -1.332,1.054 -1.317,1.098 -1.308,1.141 -1.297,1.187 -1.274,1.231 -1.265,1.273 -1.25,1.332 -1.231,1.371 -1.218,1.418 -1.211,1.473 -1.196,-1.473 -1.222,-1.418 -1.239,-1.371 -1.242,-1.332 -1.265,-1.273 -1.274,-1.231 -1.297,-1.187 -1.297,-1.141 -1.316,-1.098 -1.328,-1.054 -1.344,-1.024 -1.359,-0.965 -1.364,-0.937 -1.375,-0.887 -1.394,-0.848 -1.395,-0.812 -1.406,-0.781 -1.418,-0.735 -1.43,-0.703 -1.437,-0.672 -1.438,-0.636 -1.46,-0.594 -1.465,-0.57 -1.461,-0.528 -1.481,-0.504 -1.484,-0.472 -1.484,-0.442 -1.504,-0.418 -1.493,-0.383 -1.507,-0.351 -1.516,-0.328 -1.516,-0.309 -1.515,-0.277 -1.528,-0.25 -1.527,-0.231 -1.539,-0.211 -1.527,-0.175 -1.539,-0.164 -1.536,-0.141 -1.539,-0.121 -1.55,-0.102 -1.536,-0.074 -1.55,-0.066 -1.547,-0.055 -1.539,-0.023 -1.539,-0.024 -1.551,0 -1.535,0.012 -1.551,0.035 -1.539,0.043 -1.527,0.043 -1.536,0.055 -1.539,0.078 -1.515,0.078 -1.528,0.098 -1.527,0.097 -1.504,0.098 -1.519,0.121 -1.504,0.113 -1.493,0.121 -1.507,0.129 -1.481,0.133 -1.484,0.133 -1.473,0.133 -1.472,0.129 -1.461,0.132 -1.45,0.145 -1.441,0.129 -1.426,0.133 -1.441,0.132 -1.407,0.133 -1.417,0.121 -1.395,0.11 -1.383,0.109 -1.375,0.109 -1.359,0.086 -1.352,0.102 -1.351,0.074 -1.321,0.078 -1.316,0.055 -1.309,0.043 -1.285,0.047 -1.273,0.019 -1.266,0.024 -1.242,-0.012 -1.23,-0.012 -1.219,-0.043 -1.196,-0.043 -1.187,-0.066 -1.176,-0.078 -1.152,-0.11 -1.133,-0.121 -1.121,-0.14 -1.098,-0.168 -1.078,-0.184 -1.066,-0.211 -1.043,-0.23 -1.02,-0.254 -1.011,-0.274 -0.989,-0.308 -0.969,-0.328 -0.945,-0.364 -0.91,-0.382 -0.914,-0.407 -0.875,-0.453 -0.859,-0.472 -0.844,-0.504 -0.817,-0.539 -0.777,-0.571 -0.769,-0.605 -0.747,-0.637 -0.714,-0.668 -0.692,-0.703 -0.672,-0.75 -0.648,-0.777 -0.613,-0.817 -0.594,-0.855 -0.563,-0.891 -0.539,-0.933 -0.515,-0.989 0.66,1.274 0.679,1.222 0.696,1.165 0.734,1.128 0.746,1.067 0.758,1.023 0.793,0.977 0.813,0.945 0.824,0.891 0.847,0.843 0.868,0.805 0.89,0.758 0.899,0.715 0.922,0.691 0.945,0.637 0.969,0.594 0.976,0.57 0.988,0.527 1.024,0.496 1.031,0.45 1.043,0.429 1.067,0.383 1.066,0.363 1.098,0.329 1.109,0.296 1.133,0.266 1.133,0.238 1.152,0.211 1.164,0.188 1.188,0.164 1.195,0.121 1.211,0.109 1.218,0.086 1.231,0.059 1.242,0.043 1.262,0.019 1.277,0 1.285,-0.019 1.286,-0.035 1.304,-0.055 1.321,-0.074 1.316,-0.09 1.332,-0.098 1.352,-0.109 1.351,-0.133 1.359,-0.144 1.375,-0.153 1.372,-0.164 1.398,-0.164 1.395,-0.187 1.394,-0.188 1.418,-0.199 1.418,-0.195 1.426,-0.211 1.429,-0.207 1.43,-0.211 1.449,-0.219 1.45,-0.219 1.449,-0.219 1.461,-0.222 1.461,-0.207 1.461,-0.219 1.472,-0.223 1.473,-0.207 1.484,-0.199 1.485,-0.195 1.48,-0.199 1.485,-0.176 1.484,-0.188 1.492,-0.164 1.496,-0.152 1.481,-0.156 1.507,-0.129 1.481,-0.133 1.508,-0.109 1.492,-0.102 1.496,-0.074 1.492,-0.067 1.496,-0.043 1.481,-0.047 2.988,0 1.484,0.024 1.485,0.055 1.484,0.066 1.481,0.098 1.472,0.121 1.473,0.144 1.473,0.164 1.461,0.188 1.46,0.219 1.45,0.254 1.461,0.273 1.441,0.309 1.438,0.339 1.429,0.375 1.438,0.407 1.418,0.425 1.418,0.473 1.406,0.508 1.394,0.535 1.395,0.586 1.387,0.613 1.371,0.66 1.375,0.692 1.351,0.734 1.352,0.781 1.34,0.813 1.328,0.867 1.32,0.902 1.305,0.958 1.297,0.988 1.297,1.043 1.273,1.097 1.266,1.133 1.25,1.188 1.242,1.23 1.23,1.297 1.211,1.34 1.196,1.394 1.211,-1.394 1.218,-1.34 1.231,-1.297 1.23,-1.23 1.25,-1.188 1.278,-1.133 1.273,-1.097 1.285,-1.043 1.297,-0.988 1.309,-0.958 1.316,-0.902 1.328,-0.867 1.344,-0.813 1.348,-0.781 1.363,-0.734 1.363,-0.692 1.375,-0.66 1.383,-0.613 1.395,-0.586 1.406,-0.535 1.394,-0.508 1.418,-0.473 1.43,-0.425 1.418,-0.407 1.437,-0.375 1.438,-0.339 1.453,-0.309 1.438,-0.273 1.46,-0.254 1.461,-0.219 1.461,-0.188 1.473,-0.164 1.473,-0.144 1.472,-0.121 1.485,-0.098 1.48,-0.066 1.485,-0.055 1.484,-0.024 2.976,0 1.49,0.047 1.5,0.043 1.49,0.067 1.5,0.074 1.5,0.102 1.49,0.109 1.5,0.133 1.48,0.129 1.51,0.156 1.48,0.152 1.5,0.164 1.48,0.188 1.49,0.176 1.49,0.199 1.48,0.195 1.47,0.199 1.47,0.207 1.48,0.223 1.47,0.219 1.46,0.207 1.45,0.222 1.46,0.219 1.44,0.219 1.44,0.219 1.44,0.211 1.43,0.207 1.43,0.211 1.41,0.195 1.42,0.199 1.39,0.188 1.4,0.187 1.4,0.164 1.37,0.164 1.37,0.153 1.37,0.144 1.35,0.133 1.35,0.109 1.33,0.098 1.33,0.09 1.3,0.074 1.31,0.055 1.3,0.035 1.27,0.019 1.28,0 1.25,-0.019 1.25,-0.043 1.23,-0.059 1.22,-0.086 1.21,-0.109 1.2,-0.121 1.17,-0.164 1.18,-0.188 1.15,-0.211 1.14,-0.238 1.13,-0.266 1.1,-0.296 1.09,-0.329 1.09,-0.363 1.07,-0.383 1.04,-0.429 1.03,-0.45 1.01,-0.496 0.99,-0.527 0.99,-0.57 0.96,-0.594 0.94,-0.637 0.92,-0.691 0.91,-0.715 0.89,-0.758 0.86,-0.805 0.85,-0.843 0.83,-0.891 0.8,-0.945 0.79,-0.977 0.78,-1.023 0.74,-1.067 0.72,-1.128 0.7,-1.165 0.68,-1.222 0.66,-1.274" /><path
         id="path74"
         style="fill:none;stroke:#000000;stroke-width:3.9849999;stroke-linecap:butt;stroke-linejoin:miter;stroke-miterlimit:10;stroke-dasharray:none;stroke-opacity:1"
         d="m 1097.32,941.527 -0.5,0.989 -0.54,0.933 -0.57,0.891 -0.6,0.855 -0.61,0.817 -0.65,0.777 -0.66,0.75 -0.71,0.703 -0.71,0.668 -0.75,0.637 -0.77,0.605 -0.79,0.571 -0.81,0.539 -0.83,0.504 -0.86,0.472 -0.88,0.453 -0.9,0.407 -0.92,0.382 -0.96,0.364 -0.96,0.328 -0.98,0.308 -1,0.274 -1.04,0.254 -1.04,0.23 -1.07,0.211 -1.07,0.184 -1.11,0.168 -1.11,0.14 -1.14,0.121 -1.16,0.11 -1.16,0.078 -1.19,0.066 -1.2,0.043 -1.2,0.043 -1.25,0.012 -1.24,0.012 -1.26,-0.024 -1.28,-0.019 -1.29,-0.047 -1.3,-0.043 -1.3,-0.055 -1.34,-0.078 -1.34,-0.074 -1.36,-0.102 -1.36,-0.086 -1.37,-0.109 -1.39,-0.109 -1.39,-0.11 -1.41,-0.121 -1.42,-0.133 -1.43,-0.132 -1.43,-0.133 -1.44,-0.129 -1.45,-0.145 -1.46,-0.132 -1.48,-0.129 -1.47,-0.133 -1.48,-0.133 -1.48,-0.133 -1.5,-0.129 -1.5,-0.121 -1.51,-0.113 -1.51,-0.121 -1.52,-0.098 -1.52,-0.097 -1.53,-0.098 -1.52,-0.078 -1.53,-0.078 -1.54,-0.055 -1.54,-0.043 -1.53,-0.043 -1.54,-0.035 -1.54,-0.012 -1.55,0 -1.54,0.024 -1.55,0.023 -1.53,0.055 -1.55,0.066 -1.54,0.074 -1.54,0.102 -1.547,0.121 -1.539,0.141 -1.527,0.164 -1.551,0.175 -1.527,0.211 -1.527,0.231 -1.516,0.25 -1.527,0.277 -1.516,0.309 -1.516,0.328 -1.504,0.351 -1.507,0.383 -1.481,0.418 -1.496,0.442 -1.484,0.472 -1.469,0.504 -1.473,0.528 -1.461,0.57 -1.453,0.594 -1.449,0.636 -1.426,0.672 -1.429,0.703 -1.418,0.735 -1.418,0.781 -1.395,0.812 -1.383,0.848 -1.386,0.887 -1.36,0.937 -1.351,0.965 -1.34,1.024 -1.332,1.054 -1.317,1.098 -1.308,1.141 -1.297,1.187 -1.274,1.231 -1.265,1.273 -1.25,1.332 -1.231,1.371 -1.218,1.418 -1.211,1.473 -1.196,-1.473 -1.222,-1.418 -1.239,-1.371 -1.242,-1.332 -1.265,-1.273 -1.274,-1.231 -1.297,-1.187 -1.297,-1.141 -1.316,-1.098 -1.328,-1.054 -1.344,-1.024 -1.359,-0.965 -1.364,-0.937 -1.375,-0.887 -1.394,-0.848 -1.395,-0.812 -1.406,-0.781 -1.418,-0.735 -1.43,-0.703 -1.437,-0.672 -1.438,-0.636 -1.46,-0.594 -1.465,-0.57 -1.461,-0.528 -1.481,-0.504 -1.484,-0.472 -1.484,-0.442 -1.504,-0.418 -1.493,-0.383 -1.507,-0.351 -1.516,-0.328 -1.516,-0.309 -1.515,-0.277 -1.528,-0.25 -1.527,-0.231 -1.539,-0.211 -1.527,-0.175 -1.539,-0.164 -1.536,-0.141 -1.539,-0.121 -1.55,-0.102 -1.536,-0.074 -1.55,-0.066 -1.547,-0.055 -1.539,-0.023 -1.539,-0.024 -1.551,0 -1.535,0.012 -1.551,0.035 -1.539,0.043 -1.527,0.043 -1.536,0.055 -1.539,0.078 -1.515,0.078 -1.528,0.098 -1.527,0.097 -1.504,0.098 -1.519,0.121 -1.504,0.113 -1.493,0.121 -1.507,0.129 -1.481,0.133 -1.484,0.133 -1.473,0.133 -1.472,0.129 -1.461,0.132 -1.45,0.145 -1.441,0.129 -1.426,0.133 -1.441,0.132 -1.407,0.133 -1.417,0.121 -1.395,0.11 -1.383,0.109 -1.375,0.109 -1.359,0.086 -1.352,0.102 -1.351,0.074 -1.321,0.078 -1.316,0.055 -1.309,0.043 -1.285,0.047 -1.273,0.019 -1.266,0.024 -1.242,-0.012 -1.23,-0.012 -1.219,-0.043 -1.196,-0.043 -1.187,-0.066 -1.176,-0.078 -1.152,-0.11 -1.133,-0.121 -1.121,-0.14 -1.098,-0.168 -1.078,-0.184 -1.066,-0.211 -1.043,-0.23 -1.02,-0.254 -1.011,-0.274 -0.989,-0.308 -0.969,-0.328 -0.945,-0.364 -0.91,-0.382 -0.914,-0.407 -0.875,-0.453 -0.859,-0.472 -0.844,-0.504 -0.817,-0.539 -0.777,-0.571 -0.769,-0.605 -0.747,-0.637 -0.714,-0.668 -0.692,-0.703 -0.672,-0.75 -0.648,-0.777 -0.613,-0.817 -0.594,-0.855 -0.563,-0.891 -0.539,-0.933 -0.515,-0.989 0.66,1.274 0.679,1.222 0.696,1.165 0.734,1.128 0.746,1.067 0.758,1.023 0.793,0.977 0.813,0.945 0.824,0.891 0.847,0.843 0.868,0.805 0.89,0.758 0.899,0.715 0.922,0.691 0.945,0.637 0.969,0.594 0.976,0.57 0.988,0.527 1.024,0.496 1.031,0.45 1.043,0.429 1.067,0.383 1.066,0.363 1.098,0.329 1.109,0.296 1.133,0.266 1.133,0.238 1.152,0.211 1.164,0.188 1.188,0.164 1.195,0.121 1.211,0.109 1.218,0.086 1.231,0.059 1.242,0.043 1.262,0.019 1.277,0 1.285,-0.019 1.286,-0.035 1.304,-0.055 1.321,-0.074 1.316,-0.09 1.332,-0.098 1.352,-0.109 1.351,-0.133 1.359,-0.144 1.375,-0.153 1.372,-0.164 1.398,-0.164 1.395,-0.187 1.394,-0.188 1.418,-0.199 1.418,-0.195 1.426,-0.211 1.429,-0.207 1.43,-0.211 1.449,-0.219 1.45,-0.219 1.449,-0.219 1.461,-0.222 1.461,-0.207 1.461,-0.219 1.472,-0.223 1.473,-0.207 1.484,-0.199 1.485,-0.195 1.48,-0.199 1.485,-0.176 1.484,-0.188 1.492,-0.164 1.496,-0.152 1.481,-0.156 1.507,-0.129 1.481,-0.133 1.508,-0.109 1.492,-0.102 1.496,-0.074 1.492,-0.067 1.496,-0.043 1.481,-0.047 2.988,0 1.484,0.024 1.485,0.055 1.484,0.066 1.481,0.098 1.472,0.121 1.473,0.144 1.473,0.164 1.461,0.188 1.46,0.219 1.45,0.254 1.461,0.273 1.441,0.309 1.438,0.339 1.429,0.375 1.438,0.407 1.418,0.425 1.418,0.473 1.406,0.508 1.394,0.535 1.395,0.586 1.387,0.613 1.371,0.66 1.375,0.692 1.351,0.734 1.352,0.781 1.34,0.813 1.328,0.867 1.32,0.902 1.305,0.958 1.297,0.988 1.297,1.043 1.273,1.097 1.266,1.133 1.25,1.188 1.242,1.23 1.23,1.297 1.211,1.34 1.196,1.394 1.211,-1.394 1.218,-1.34 1.231,-1.297 1.23,-1.23 1.25,-1.188 1.278,-1.133 1.273,-1.097 1.285,-1.043 1.297,-0.988 1.309,-0.958 1.316,-0.902 1.328,-0.867 1.344,-0.813 1.348,-0.781 1.363,-0.734 1.363,-0.692 1.375,-0.66 1.383,-0.613 1.395,-0.586 1.406,-0.535 1.394,-0.508 1.418,-0.473 1.43,-0.425 1.418,-0.407 1.437,-0.375 1.438,-0.339 1.453,-0.309 1.438,-0.273 1.46,-0.254 1.461,-0.219 1.461,-0.188 1.473,-0.164 1.473,-0.144 1.472,-0.121 1.485,-0.098 1.48,-0.066 1.485,-0.055 1.484,-0.024 2.976,0 1.49,0.047 1.5,0.043 1.49,0.067 1.5,0.074 1.5,0.102 1.49,0.109 1.5,0.133 1.48,0.129 1.51,0.156 1.48,0.152 1.5,0.164 1.48,0.188 1.49,0.176 1.49,0.199 1.48,0.195 1.47,0.199 1.47,0.207 1.48,0.223 1.47,0.219 1.46,0.207 1.45,0.222 1.46,0.219 1.44,0.219 1.44,0.219 1.44,0.211 1.43,0.207 1.43,0.211 1.41,0.195 1.42,0.199 1.39,0.188 1.4,0.187 1.4,0.164 1.37,0.164 1.37,0.153 1.37,0.144 1.35,0.133 1.35,0.109 1.33,0.098 1.33,0.09 1.3,0.074 1.31,0.055 1.3,0.035 1.27,0.019 1.28,0 1.25,-0.019 1.25,-0.043 1.23,-0.059 1.22,-0.086 1.21,-0.109 1.2,-0.121 1.17,-0.164 1.18,-0.188 1.15,-0.211 1.14,-0.238 1.13,-0.266 1.1,-0.296 1.09,-0.329 1.09,-0.363 1.07,-0.383 1.04,-0.429 1.03,-0.45 1.01,-0.496 0.99,-0.527 0.99,-0.57 0.96,-0.594 0.94,-0.637 0.92,-0.691 0.91,-0.715 0.89,-0.758 0.86,-0.805 0.85,-0.843 0.83,-0.891 0.8,-0.945 0.79,-0.977 0.78,-1.023 0.74,-1.067 0.72,-1.128 0.7,-1.165 0.68,-1.222 0.66,-1.274 z" /><path
         id="path76"
         style="fill:none;stroke:#000000;stroke-width:11.95530033;stroke-linecap:butt;stroke-linejoin:miter;stroke-miterlimit:10;stroke-dasharray:none;stroke-opacity:1"
         d="m 1434.56,921.609 -0.89,34.254 -2.69,34.168 -4.47,33.969 -6.24,33.7 -8.01,33.32 -9.74,32.85 -11.43,32.31 -13.11,31.66 -14.75,30.93 -16.36,30.12 -17.9,29.22 -19.41,28.23 -20.87,27.2 -22.26,26.06 -23.58,24.85 -24.85,23.59 -26.06,22.25 -27.2,20.87 -28.23,19.41 -29.22,17.9 -30.12,16.35 -30.93,14.76 -31.66,13.11 -32.31,11.43 -32.848,9.74 -33.324,8.01 -33.696,6.24 -33.968,4.47 -34.168,2.69 -34.258,0.89 -34.254,-0.89 -34.168,-2.69 -33.973,-4.47 -33.695,-6.24 -33.32,-8.01 -32.86,-9.74 -32.3,-11.43 -31.665,-13.11 -30.925,-14.76 -30.114,-16.35 -29.226,-17.9 -28.235,-19.41 -27.191,-20.87 -26.059,-22.25 -24.851,-23.59 -23.59,-24.85 -22.258,-26.06 -20.863,-27.2 -19.402,-28.23 -17.907,-29.22 -16.359,-30.12 -14.746,-30.93 -13.117,-31.66 -11.438,-32.31 -9.734,-32.85 -7.996,-33.32 -6.25,-33.7 -4.473,-33.969 -2.691,-34.168 -0.891,-34.254 0.891,-34.257 2.691,-34.168 4.473,-33.969 6.25,-33.695 7.996,-33.321 9.734,-32.863 11.438,-32.301 13.117,-31.66 14.746,-30.93 16.359,-30.113 17.907,-29.223 19.402,-28.234 20.863,-27.191 22.258,-26.063 23.59,-24.851 24.851,-23.586 26.059,-22.258 27.191,-20.864 28.235,-19.402 29.226,-17.91 30.114,-16.359 30.925,-14.743 31.665,-13.117 32.3,-11.437 32.86,-9.735 33.32,-7.996 33.695,-6.254 33.973,-4.468 34.168,-2.692 34.254,-0.89 34.258,0.89 34.168,2.692 33.968,4.468 33.696,6.254 33.324,7.996 32.848,9.735 32.31,11.437 31.66,13.117 30.93,14.743 30.12,16.359 29.22,17.91 28.23,19.402 27.2,20.864 26.06,22.258 24.85,23.586 23.58,24.851 22.26,26.063 20.87,27.191 19.41,28.234 17.9,29.223 16.36,30.113 14.75,30.93 13.11,31.66 11.43,32.301 9.74,32.863 8.01,33.321 6.24,33.695 4.47,33.969 2.69,34.168 0.89,34.257 z" /><path
         id="path78"
         style="fill:none;stroke:#000000;stroke-width:11.95530033;stroke-linecap:butt;stroke-linejoin:miter;stroke-miterlimit:10;stroke-dasharray:none;stroke-opacity:1"
         d="m 1074.55,337.074 0,1169.066" /><path
         id="path80"
         style="fill:none;stroke:#000000;stroke-width:11.95530033;stroke-linecap:butt;stroke-linejoin:miter;stroke-miterlimit:10;stroke-dasharray:none;stroke-opacity:1"
         d="m 1140.02,374.945 0,1093.325" /><g
         transform="scale(10,10)"
         id="g82"><text
           id="text84"
           style="font-variant:normal;font-weight:normal;font-size:10.90909958px;font-family:CMMI10;-inkscape-font-specification:CMMI10;writing-mode:lr-tb;fill:#000000;fill-opacity:1;fill-rule:nonzero;stroke:none"
           transform="matrix(1,0,0,-1,67.368,82.7281)"><tspan
             id="tspan86"
             y="0"
             x="0">O</tspan><tspan
             id="tspan88"
             y="-2.7597699"
             x="84.625801">x</tspan><tspan
             id="tspan90"
             y="-85.465668"
             x="2.8801">y</tspan></text>
</g><path
         id="path92"
         style="fill:none;stroke:#000000;stroke-width:11.95530033;stroke-linecap:butt;stroke-linejoin:miter;stroke-miterlimit:10;stroke-dasharray:none;stroke-opacity:1"
         d="m 8.32031,921.609 1543.37969,0" /><path
         id="path94"
         style="fill:none;stroke:#000000;stroke-width:11.95530033;stroke-linecap:butt;stroke-linejoin:miter;stroke-miterlimit:10;stroke-dasharray:none;stroke-opacity:1"
         d="m 780.008,149.918 0,1543.382" /><g
         transform="scale(10,10)"
         id="g96"><text
           id="text98"
           style="font-variant:normal;font-weight:normal;font-size:11.9552002px;font-family:CMCSC10;-inkscape-font-specification:CMCSC10;writing-mode:lr-tb;fill:#000000;fill-opacity:1;fill-rule:nonzero;stroke:none"
           transform="matrix(1,0,0,-1,55.441,0.0445313)"><tspan
             id="tspan100"
             y="0"
             x="0 8.5141897 12.111581 19.790342 28.065218 34.667988 41.270763">Fig.62.</tspan></text>
</g></g></g></svg>