<?xml version="1.0" encoding="UTF-8" standalone="no"?>
<svg
   xmlns:dc="http://purl.org/dc/elements/1.1/"
   xmlns:cc="http://creativecommons.org/ns#"
   xmlns:rdf="http://www.w3.org/1999/02/22-rdf-syntax-ns#"
   xmlns:svg="http://www.w3.org/2000/svg"
   xmlns="http://www.w3.org/2000/svg"
   viewBox="0 0 256.25 166.25"
   height="166.25"
   width="256.25"
   xml:space="preserve"
   version="1.1"
   id="svg2"><metadata
     id="metadata8"><rdf:RDF><cc:Work
         rdf:about=""><dc:format>image/svg+xml</dc:format><dc:type
           rdf:resource="http://purl.org/dc/dcmitype/StillImage" /></cc:Work></rdf:RDF></metadata><defs
     id="defs6"><clipPath
       id="clipPath12"
       clipPathUnits="userSpaceOnUse"><path
         id="path14"
         d="m -2,-2 205,0 0,133 -205,0 0,-133 z" /></clipPath></defs><g
     clip-path="url(#clipPath12)"
     transform="matrix(1.25,0,0,-1.25,2.5,163.75)"
     id="g10"><g
       transform="scale(0.1,0.1)"
       id="g16"><path
         id="path18"
         style="fill:none;stroke:#000000;stroke-width:11.95530033;stroke-linecap:butt;stroke-linejoin:miter;stroke-miterlimit:10;stroke-dasharray:none;stroke-opacity:1"
         d="M 180,381.602 1597.52,1090.36" /><path
         id="path20"
         style="fill:none;stroke:#000000;stroke-width:11.95530033;stroke-linecap:butt;stroke-linejoin:miter;stroke-miterlimit:10;stroke-dasharray:none;stroke-opacity:1"
         d="m 283.844,381.602 0,51.921" /><path
         id="path22"
         style="fill:none;stroke:#000000;stroke-width:11.95530033;stroke-linecap:butt;stroke-linejoin:miter;stroke-miterlimit:10;stroke-dasharray:none;stroke-opacity:1"
         d="m 387.699,381.602 0,103.843" /><path
         id="path24"
         style="fill:none;stroke:#000000;stroke-width:11.95530033;stroke-linecap:butt;stroke-linejoin:miter;stroke-miterlimit:10;stroke-dasharray:none;stroke-opacity:1"
         d="m 491.543,381.602 0,155.765" /><path
         id="path26"
         style="fill:none;stroke:#000000;stroke-width:11.95530033;stroke-linecap:butt;stroke-linejoin:miter;stroke-miterlimit:10;stroke-dasharray:none;stroke-opacity:1"
         d="m 595.387,381.602 0,207.699" /><path
         id="path28"
         style="fill:none;stroke:#000000;stroke-width:11.95530033;stroke-linecap:butt;stroke-linejoin:miter;stroke-miterlimit:10;stroke-dasharray:none;stroke-opacity:1"
         d="m 699.242,381.602 0,259.621" /><path
         id="path30"
         style="fill:none;stroke:#000000;stroke-width:11.95530033;stroke-linecap:butt;stroke-linejoin:miter;stroke-miterlimit:10;stroke-dasharray:none;stroke-opacity:1"
         d="m 803.086,381.602 0,311.543" /><path
         id="path32"
         style="fill:none;stroke:#000000;stroke-width:11.95530033;stroke-linecap:butt;stroke-linejoin:miter;stroke-miterlimit:10;stroke-dasharray:none;stroke-opacity:1"
         d="m 906.93,381.602 0,363.464" /><path
         id="path34"
         style="fill:none;stroke:#000000;stroke-width:11.95530033;stroke-linecap:butt;stroke-linejoin:miter;stroke-miterlimit:10;stroke-dasharray:none;stroke-opacity:1"
         d="m 1010.79,381.602 0,415.386" /><path
         id="path36"
         style="fill:none;stroke:#000000;stroke-width:11.95530033;stroke-linecap:butt;stroke-linejoin:miter;stroke-miterlimit:10;stroke-dasharray:none;stroke-opacity:1"
         d="m 1114.63,381.602 0,467.308" /><path
         id="path38"
         style="fill:none;stroke:#000000;stroke-width:11.95530033;stroke-linecap:butt;stroke-linejoin:miter;stroke-miterlimit:10;stroke-dasharray:none;stroke-opacity:1"
         d="m 1218.47,381.602 0,519.242" /><path
         id="path40"
         style="fill:none;stroke:#000000;stroke-width:11.95530033;stroke-linecap:butt;stroke-linejoin:miter;stroke-miterlimit:10;stroke-dasharray:none;stroke-opacity:1"
         d="m 1322.32,381.602 0,571.164" /><path
         id="path42"
         style="fill:none;stroke:#000000;stroke-width:11.95530033;stroke-linecap:butt;stroke-linejoin:miter;stroke-miterlimit:10;stroke-dasharray:none;stroke-opacity:1"
         d="m 1426.17,381.602 0,623.088" /><path
         id="path44"
         style="fill:none;stroke:#000000;stroke-width:11.95530033;stroke-linecap:butt;stroke-linejoin:miter;stroke-miterlimit:10;stroke-dasharray:none;stroke-opacity:1"
         d="m 1530.02,381.602 0,675.008" /><g
         transform="scale(10,10)"
         id="g46"><text
           id="text48"
           style="font-variant:normal;font-weight:normal;font-size:10.90909958px;font-family:CMMI10;-inkscape-font-specification:CMMI10;writing-mode:lr-tb;fill:#000000;fill-opacity:1;fill-rule:nonzero;stroke:none"
           transform="matrix(1,0,0,-1,156.986,70.5906)"><tspan
             id="tspan50"
             y="0"
             x="0">y</tspan></text>
</g><g
         transform="matrix(94.8,0,0,-135.6,808.088,269.348)"
         id="g52"><rect
           id="rect54"
           style="fill:#ffffff;fill-opacity:1;fill-rule:nonzero"
           transform="matrix(1,0,0,-1,0,1)"
           height="1"
           width="1"
           y="0"
           x="0" /></g><g
         transform="scale(10,10)"
         id="g56"><text
           id="text58"
           style="font-variant:normal;font-weight:normal;font-size:10.90909958px;font-family:CMMI10;-inkscape-font-specification:CMMI10;writing-mode:lr-tb;fill:#000000;fill-opacity:1;fill-rule:nonzero;stroke:none"
           transform="matrix(1,0,0,-1,83.8207,16.3867)"><tspan
             id="tspan60"
             y="0"
             x="0">l</tspan></text>
</g><path
         id="path62"
         style="fill:#000000;fill-opacity:1;fill-rule:nonzero;stroke:none"
         d="m 199.93,361.672 1.086,-2.442 1.296,-2.359 1.485,-2.266 1.68,-2.183 1.867,-2.09 2.043,-2.008 2.23,-1.937 2.406,-1.856 2.582,-1.769 2.758,-1.692 2.922,-1.625 3.09,-1.539 3.238,-1.472 3.418,-1.407 3.559,-1.339 3.715,-1.262 3.867,-1.199 4.019,-1.129 4.157,-1.078 4.293,-1.012 4.441,-0.957 4.57,-0.899 4.7,-0.836 4.824,-0.781 4.953,-0.734 5.066,-0.68 5.196,-0.629 5.308,-0.582 5.414,-0.527 5.528,-0.492 5.636,-0.442 5.735,-0.406 5.836,-0.363 5.929,-0.328 6.032,-0.286 6.109,-0.254 6.207,-0.218 6.285,-0.176 6.36,-0.156 6.449,-0.129 6.515,-0.102 6.594,-0.066 6.656,-0.043 6.723,-0.02 6.781,-0.011 6.844,0.019 6.898,0.035 6.958,0.055 6.996,0.066 7.043,0.075 7.097,0.101 7.129,0.098 7.164,0.109 7.195,0.121 7.231,0.121 7.262,0.133 7.285,0.121 7.293,0.133 7.328,0.129 7.328,0.121 7.352,0.121 7.359,0.121 7.363,0.11 7.36,0.101 7.359,0.086 7.363,0.078 7.348,0.067 7.34,0.054 7.328,0.02 7.305,0.023 7.296,-0.011 7.262,-0.032 7.25,-0.046 7.207,-0.075 7.188,-0.109 7.14,-0.133 7.11,-0.156 7.062,-0.195 7.02,-0.219 6.965,-0.266 6.922,-0.285 6.867,-0.34 6.812,-0.375 6.746,-0.406 6.692,-0.461 6.613,-0.496 6.547,-0.535 6.473,-0.594 6.402,-0.648 6.316,-0.684 6.242,-0.746 6.141,-0.789 6.066,-0.86 5.977,-0.898 5.867,-0.969 5.778,-1.031 5.679,-1.09 5.571,-1.14 5.461,-1.219 5.351,-1.278 5.238,-1.351 5.121,-1.414 5.008,-1.496 4.879,-1.559 4.746,-1.637 4.625,-1.714 4.496,-1.793 4.348,-1.868 4.219,-1.945 4.066,-2.031 3.934,-2.11 3.777,-2.195 3.629,-2.285 3.469,-2.387 3.32,-2.461 3.152,-2.558 2.989,-2.649 2.824,-2.746 2.648,-2.836 2.481,-2.941 2.484,2.941 2.649,2.836 2.82,2.746 2.988,2.649 3.156,2.558 3.317,2.461 3.473,2.387 3.625,2.285 3.777,2.195 3.933,2.11 4.067,2.031 4.219,1.945 4.351,1.868 4.492,1.793 4.625,1.714 4.746,1.637 4.879,1.559 5,1.496 5.129,1.414 5.231,1.351 5.359,1.278 5.461,1.219 5.57,1.14 5.68,1.09 5.781,1.031 5.864,0.969 5.98,0.898 6.051,0.86 6.152,0.789 6.242,0.746 6.317,0.684 6.404,0.648 6.47,0.594 6.55,0.535 6.63,0.496 6.68,0.461 6.74,0.406 6.81,0.375 6.87,0.34 6.92,0.285 6.96,0.266 7.02,0.219 7.07,0.195 7.11,0.156 7.15,0.133 7.17,0.109 7.22,0.075 7.23,0.046 7.27,0.032 7.3,0.011 7.3,-0.023 7.33,-0.02 7.34,-0.054 7.35,-0.067 7.36,-0.078 7.36,-0.086 7.37,-0.101 7.36,-0.11 7.36,-0.121 7.33,-0.121 7.34,-0.121 7.33,-0.129 7.3,-0.133 7.28,-0.121 7.25,-0.133 7.23,-0.121 7.21,-0.121 7.17,-0.109 7.12,-0.098 7.09,-0.101 7.05,-0.075 7,-0.066 6.96,-0.055 6.89,-0.035 6.84,-0.019 6.79,0.011 6.72,0.02 6.66,0.043 6.59,0.066 6.52,0.102 6.43,0.129 6.38,0.156 6.28,0.176 6.21,0.218 6.11,0.254 6.03,0.286 5.93,0.328 5.83,0.363 5.74,0.406 5.64,0.442 5.52,0.492 5.42,0.527 5.3,0.582 5.2,0.629 5.08,0.68 4.94,0.734 4.84,0.781 4.69,0.836 4.57,0.899 4.44,0.957 4.29,1.012 4.15,1.078 4.02,1.129 3.87,1.199 3.72,1.262 3.55,1.339 3.41,1.407 3.26,1.472 3.09,1.539 2.91,1.625 2.76,1.692 2.58,1.769 2.41,1.856 2.23,1.937 2.05,2.008 1.86,2.09 1.68,2.183 1.48,2.266 1.29,2.359 1.11,2.442 -1.6,-3.418 -1.76,-3.309 -1.95,-3.183 -2.11,-3.055 -2.29,-2.957 -2.45,-2.82 -2.63,-2.727 -2.79,-2.605 -2.95,-2.504 -3.11,-2.395 -3.25,-2.285 -3.4,-2.187 -3.56,-2.086 -3.7,-1.989 -3.85,-1.89 -3.98,-1.789 -4.11,-1.703 -4.27,-1.618 -4.38,-1.527 -4.51,-1.426 -4.63,-1.351 -4.76,-1.274 -4.88,-1.187 -4.98,-1.11 -5.11,-1.035 -5.22,-0.953 -5.32,-0.879 -5.43,-0.812 -5.53,-0.75 -5.62,-0.68 -5.74,-0.606 -5.8,-0.546 -5.91,-0.496 -5.98,-0.43 -6.08,-0.371 -6.15,-0.321 -6.23,-0.261 -6.31,-0.211 -6.38,-0.164 -6.45,-0.121 -6.51,-0.067 -6.59,-0.031 -6.63,0.012 -6.69,0.054 -6.76,0.086 -6.79,0.121 -6.85,0.164 -6.89,0.188 -6.94,0.219 -6.98,0.242 -7.01,0.266 -7.05,0.296 -7.08,0.317 -7.11,0.332 -7.13,0.351 -7.15,0.36 -7.17,0.387 -7.2,0.394 -7.2,0.395 -7.21,0.406 -7.22,0.418 -7.22,0.418 -7.23,0.418 -7.23,0.418 -7.22,0.418 -7.22,0.406 -7.19,0.406 -7.2,0.395 -7.17,0.386 -7.15,0.372 -7.13,0.351 -7.12,0.34 -7.08,0.332 -7.05,0.297 -7.02,0.285 -6.98,0.254 -6.94,0.23 -6.9,0.196 -6.86,0.175 -6.8,0.145 -6.75,0.098 -6.71,0.066 -6.63,0.031 -6.59,-0.008 -6.52,-0.054 -6.46,-0.102 -6.38,-0.14 -6.32,-0.188 -6.241,-0.242 -6.16,-0.297 -6.079,-0.352 -5.996,-0.394 -5.914,-0.461 -5.832,-0.527 -5.722,-0.582 -5.637,-0.649 -5.539,-0.715 -5.438,-0.793 -5.34,-0.843 -5.218,-0.922 -5.117,-1 -5,-1.078 -4.891,-1.153 -4.777,-1.23 -4.637,-1.32 -4.539,-1.395 -4.395,-1.496 -4.261,-1.57 -4.129,-1.657 -4,-1.758 -3.856,-1.847 -3.715,-1.945 -3.57,-2.043 -3.43,-2.141 -3.273,-2.242 -3.117,-2.352 -2.957,-2.449 -2.801,-2.563 -2.649,-2.668 -2.472,-2.789 -2.473,2.789 -2.648,2.668 -2.801,2.563 -2.953,2.449 -3.121,2.352 -3.274,2.242 -3.429,2.141 -3.571,2.043 -3.711,1.945 -3.859,1.847 -3.996,1.758 -4.133,1.657 -4.262,1.57 -4.406,1.496 -4.516,1.395 -4.648,1.32 -4.777,1.23 -4.891,1.153 -4.996,1.078 -5.121,1 -5.219,0.922 -5.34,0.843 -5.437,0.793 -5.539,0.715 -5.633,0.649 -5.727,0.582 -5.82,0.527 -5.922,0.461 -6,0.394 -6.074,0.352 -6.164,0.297 -6.242,0.242 -6.317,0.188 -6.383,0.14 -6.46,0.102 -6.516,0.054 -6.578,0.008 -6.649,-0.031 -6.699,-0.066 -6.758,-0.098 -6.8,-0.145 -6.856,-0.175 -6.898,-0.196 -6.946,-0.23 -6.976,-0.254 -7.02,-0.285 -7.054,-0.297 -7.075,-0.332 -7.109,-0.34 -7.141,-0.351 -7.152,-0.372 -7.172,-0.386 -7.199,-0.395 -7.195,-0.406 -7.219,-0.406 -7.219,-0.418 -7.226,-0.418 -7.231,-0.418 -7.219,-0.418 -7.218,-0.418 -7.215,-0.406 -7.2,-0.395 -7.195,-0.394 -7.172,-0.387 -7.152,-0.36 -7.133,-0.351 -7.105,-0.332 -7.078,-0.317 -7.051,-0.296 -7.012,-0.266 -6.977,-0.242 -6.941,-0.219 -6.891,-0.188 -6.855,-0.164 -6.801,-0.121 -6.746,-0.086 -6.687,-0.054 -6.637,-0.012 -6.582,0.031 -6.516,0.067 -6.449,0.121 -6.383,0.164 -6.304,0.211 -6.231,0.261 -6.152,0.321 -6.075,0.371 -5.988,0.43 -5.91,0.496 -5.812,0.546 -5.723,0.606 -5.625,0.68 -5.527,0.75 -5.426,0.812 -5.321,0.879 -5.218,0.953 -5.106,1.035 -4.988,1.11 -4.879,1.187 -4.758,1.274 -4.637,1.351 -4.515,1.426 -4.383,1.527 -4.25,1.618 -4.121,1.703 -3.977,1.789 -3.847,1.89 -3.699,1.989 -3.563,2.086 -3.406,2.187 -3.25,2.285 -3.11,2.395 -2.945,2.504 -2.789,2.605 -2.625,2.727 -2.453,2.82 -2.297,2.957 -2.105,3.055 -1.946,3.183 -1.769,3.309 -1.582,3.418" /><path
         id="path64"
         style="fill:none;stroke:#000000;stroke-width:3.9849999;stroke-linecap:butt;stroke-linejoin:miter;stroke-miterlimit:10;stroke-dasharray:none;stroke-opacity:1"
         d="m 199.93,361.672 1.086,-2.442 1.296,-2.359 1.485,-2.266 1.68,-2.183 1.867,-2.09 2.043,-2.008 2.23,-1.937 2.406,-1.856 2.582,-1.769 2.758,-1.692 2.922,-1.625 3.09,-1.539 3.238,-1.472 3.418,-1.407 3.559,-1.339 3.715,-1.262 3.867,-1.199 4.019,-1.129 4.157,-1.078 4.293,-1.012 4.441,-0.957 4.57,-0.899 4.7,-0.836 4.824,-0.781 4.953,-0.734 5.066,-0.68 5.196,-0.629 5.308,-0.582 5.414,-0.527 5.528,-0.492 5.636,-0.442 5.735,-0.406 5.836,-0.363 5.929,-0.328 6.032,-0.286 6.109,-0.254 6.207,-0.218 6.285,-0.176 6.36,-0.156 6.449,-0.129 6.515,-0.102 6.594,-0.066 6.656,-0.043 6.723,-0.02 6.781,-0.011 6.844,0.019 6.898,0.035 6.958,0.055 6.996,0.066 7.043,0.075 7.097,0.101 7.129,0.098 7.164,0.109 7.195,0.121 7.231,0.121 7.262,0.133 7.285,0.121 7.293,0.133 7.328,0.129 7.328,0.121 7.352,0.121 7.359,0.121 7.363,0.11 7.36,0.101 7.359,0.086 7.363,0.078 7.348,0.067 7.34,0.054 7.328,0.02 7.305,0.023 7.296,-0.011 7.262,-0.032 7.25,-0.046 7.207,-0.075 7.188,-0.109 7.14,-0.133 7.11,-0.156 7.062,-0.195 7.02,-0.219 6.965,-0.266 6.922,-0.285 6.867,-0.34 6.812,-0.375 6.746,-0.406 6.692,-0.461 6.613,-0.496 6.547,-0.535 6.473,-0.594 6.402,-0.648 6.316,-0.684 6.242,-0.746 6.141,-0.789 6.066,-0.86 5.977,-0.898 5.867,-0.969 5.778,-1.031 5.679,-1.09 5.571,-1.14 5.461,-1.219 5.351,-1.278 5.238,-1.351 5.121,-1.414 5.008,-1.496 4.879,-1.559 4.746,-1.637 4.625,-1.714 4.496,-1.793 4.348,-1.868 4.219,-1.945 4.066,-2.031 3.934,-2.11 3.777,-2.195 3.629,-2.285 3.469,-2.387 3.32,-2.461 3.152,-2.558 2.989,-2.649 2.824,-2.746 2.648,-2.836 2.481,-2.941 2.484,2.941 2.649,2.836 2.82,2.746 2.988,2.649 3.156,2.558 3.317,2.461 3.473,2.387 3.625,2.285 3.777,2.195 3.933,2.11 4.067,2.031 4.219,1.945 4.351,1.868 4.492,1.793 4.625,1.714 4.746,1.637 4.879,1.559 5,1.496 5.129,1.414 5.231,1.351 5.359,1.278 5.461,1.219 5.57,1.14 5.68,1.09 5.781,1.031 5.864,0.969 5.98,0.898 6.051,0.86 6.152,0.789 6.242,0.746 6.317,0.684 6.404,0.648 6.47,0.594 6.55,0.535 6.63,0.496 6.68,0.461 6.74,0.406 6.81,0.375 6.87,0.34 6.92,0.285 6.96,0.266 7.02,0.219 7.07,0.195 7.11,0.156 7.15,0.133 7.17,0.109 7.22,0.075 7.23,0.046 7.27,0.032 7.3,0.011 7.3,-0.023 7.33,-0.02 7.34,-0.054 7.35,-0.067 7.36,-0.078 7.36,-0.086 7.37,-0.101 7.36,-0.11 7.36,-0.121 7.33,-0.121 7.34,-0.121 7.33,-0.129 7.3,-0.133 7.28,-0.121 7.25,-0.133 7.23,-0.121 7.21,-0.121 7.17,-0.109 7.12,-0.098 7.09,-0.101 7.05,-0.075 7,-0.066 6.96,-0.055 6.89,-0.035 6.84,-0.019 6.79,0.011 6.72,0.02 6.66,0.043 6.59,0.066 6.52,0.102 6.43,0.129 6.38,0.156 6.28,0.176 6.21,0.218 6.11,0.254 6.03,0.286 5.93,0.328 5.83,0.363 5.74,0.406 5.64,0.442 5.52,0.492 5.42,0.527 5.3,0.582 5.2,0.629 5.08,0.68 4.94,0.734 4.84,0.781 4.69,0.836 4.57,0.899 4.44,0.957 4.29,1.012 4.15,1.078 4.02,1.129 3.87,1.199 3.72,1.262 3.55,1.339 3.41,1.407 3.26,1.472 3.09,1.539 2.91,1.625 2.76,1.692 2.58,1.769 2.41,1.856 2.23,1.937 2.05,2.008 1.86,2.09 1.68,2.183 1.48,2.266 1.29,2.359 1.11,2.442 -1.6,-3.418 -1.76,-3.309 -1.95,-3.183 -2.11,-3.055 -2.29,-2.957 -2.45,-2.82 -2.63,-2.727 -2.79,-2.605 -2.95,-2.504 -3.11,-2.395 -3.25,-2.285 -3.4,-2.187 -3.56,-2.086 -3.7,-1.989 -3.85,-1.89 -3.98,-1.789 -4.11,-1.703 -4.27,-1.618 -4.38,-1.527 -4.51,-1.426 -4.63,-1.351 -4.76,-1.274 -4.88,-1.187 -4.98,-1.11 -5.11,-1.035 -5.22,-0.953 -5.32,-0.879 -5.43,-0.812 -5.53,-0.75 -5.62,-0.68 -5.74,-0.606 -5.8,-0.546 -5.91,-0.496 -5.98,-0.43 -6.08,-0.371 -6.15,-0.321 -6.23,-0.261 -6.31,-0.211 -6.38,-0.164 -6.45,-0.121 -6.51,-0.067 -6.59,-0.031 -6.63,0.012 -6.69,0.054 -6.76,0.086 -6.79,0.121 -6.85,0.164 -6.89,0.188 -6.94,0.219 -6.98,0.242 -7.01,0.266 -7.05,0.296 -7.08,0.317 -7.11,0.332 -7.13,0.351 -7.15,0.36 -7.17,0.387 -7.2,0.394 -7.2,0.395 -7.21,0.406 -7.22,0.418 -7.22,0.418 -7.23,0.418 -7.23,0.418 -7.22,0.418 -7.22,0.406 -7.19,0.406 -7.2,0.395 -7.17,0.386 -7.15,0.372 -7.13,0.351 -7.12,0.34 -7.08,0.332 -7.05,0.297 -7.02,0.285 -6.98,0.254 -6.94,0.23 -6.9,0.196 -6.86,0.175 -6.8,0.145 -6.75,0.098 -6.71,0.066 -6.63,0.031 -6.59,-0.008 -6.52,-0.054 -6.46,-0.102 -6.38,-0.14 -6.32,-0.188 -6.241,-0.242 -6.16,-0.297 -6.079,-0.352 -5.996,-0.394 -5.914,-0.461 -5.832,-0.527 -5.722,-0.582 -5.637,-0.649 -5.539,-0.715 -5.438,-0.793 -5.34,-0.843 -5.218,-0.922 -5.117,-1 -5,-1.078 -4.891,-1.153 -4.777,-1.23 -4.637,-1.32 -4.539,-1.395 -4.395,-1.496 -4.261,-1.57 -4.129,-1.657 -4,-1.758 -3.856,-1.847 -3.715,-1.945 -3.57,-2.043 -3.43,-2.141 -3.273,-2.242 -3.117,-2.352 -2.957,-2.449 -2.801,-2.563 -2.649,-2.668 -2.472,-2.789 -2.473,2.789 -2.648,2.668 -2.801,2.563 -2.953,2.449 -3.121,2.352 -3.274,2.242 -3.429,2.141 -3.571,2.043 -3.711,1.945 -3.859,1.847 -3.996,1.758 -4.133,1.657 -4.262,1.57 -4.406,1.496 -4.516,1.395 -4.648,1.32 -4.777,1.23 -4.891,1.153 -4.996,1.078 -5.121,1 -5.219,0.922 -5.34,0.843 -5.437,0.793 -5.539,0.715 -5.633,0.649 -5.727,0.582 -5.82,0.527 -5.922,0.461 -6,0.394 -6.074,0.352 -6.164,0.297 -6.242,0.242 -6.317,0.188 -6.383,0.14 -6.46,0.102 -6.516,0.054 -6.578,0.008 -6.649,-0.031 -6.699,-0.066 -6.758,-0.098 -6.8,-0.145 -6.856,-0.175 -6.898,-0.196 -6.946,-0.23 -6.976,-0.254 -7.02,-0.285 -7.054,-0.297 -7.075,-0.332 -7.109,-0.34 -7.141,-0.351 -7.152,-0.372 -7.172,-0.386 -7.199,-0.395 -7.195,-0.406 -7.219,-0.406 -7.219,-0.418 -7.226,-0.418 -7.231,-0.418 -7.219,-0.418 -7.218,-0.418 -7.215,-0.406 -7.2,-0.395 -7.195,-0.394 -7.172,-0.387 -7.152,-0.36 -7.133,-0.351 -7.105,-0.332 -7.078,-0.317 -7.051,-0.296 -7.012,-0.266 -6.977,-0.242 -6.941,-0.219 -6.891,-0.188 -6.855,-0.164 -6.801,-0.121 -6.746,-0.086 -6.687,-0.054 -6.637,-0.012 -6.582,0.031 -6.516,0.067 -6.449,0.121 -6.383,0.164 -6.304,0.211 -6.231,0.261 -6.152,0.321 -6.075,0.371 -5.988,0.43 -5.91,0.496 -5.812,0.546 -5.723,0.606 -5.625,0.68 -5.527,0.75 -5.426,0.812 -5.321,0.879 -5.218,0.953 -5.106,1.035 -4.988,1.11 -4.879,1.187 -4.758,1.274 -4.637,1.351 -4.515,1.426 -4.383,1.527 -4.25,1.618 -4.121,1.703 -3.977,1.789 -3.847,1.89 -3.699,1.989 -3.563,2.086 -3.406,2.187 -3.25,2.285 -3.11,2.395 -2.945,2.504 -2.789,2.605 -2.625,2.727 -2.453,2.82 -2.297,2.957 -2.105,3.055 -1.946,3.183 -1.769,3.309 -1.582,3.418 z" /><g
         transform="matrix(146.4,0,0,-134.4,33.48,381.48)"
         id="g66"><rect
           id="rect68"
           style="fill:#ffffff;fill-opacity:1;fill-rule:nonzero"
           transform="matrix(1,0,0,-1,0,1)"
           height="1"
           width="1"
           y="0"
           x="0" /></g><g
         transform="scale(10,10)"
         id="g70"><text
           id="text72"
           style="font-variant:normal;font-weight:normal;font-size:10.90909958px;font-family:CMMI10;-inkscape-font-specification:CMMI10;writing-mode:lr-tb;fill:#000000;fill-opacity:1;fill-rule:nonzero;stroke:none"
           transform="matrix(1,0,0,-1,6.36016,27.7199)"><tspan
             id="tspan74"
             y="0"
             x="0">O</tspan></text>
</g><g
         transform="matrix(159.6,0,0,-134.4,1880.78,381.48)"
         id="g76"><rect
           id="rect78"
           style="fill:#ffffff;fill-opacity:1;fill-rule:nonzero"
           transform="matrix(1,0,0,-1,0,1)"
           height="1"
           width="1"
           y="0"
           x="0" /></g><g
         transform="scale(10,10)"
         id="g80"><text
           id="text82"
           style="font-variant:normal;font-weight:normal;font-size:10.90909958px;font-family:CMMI10;-inkscape-font-specification:CMMI10;writing-mode:lr-tb;fill:#000000;fill-opacity:1;fill-rule:nonzero;stroke:none"
           transform="matrix(1,0,0,-1,191.091,27.7199)"><tspan
             id="tspan84"
             y="0"
             x="0">X</tspan></text>
</g><g
         transform="matrix(147.6,0,0,-134.4,32.2799,1328.77)"
         id="g86"><rect
           id="rect88"
           style="fill:#ffffff;fill-opacity:1;fill-rule:nonzero"
           transform="matrix(1,0,0,-1,0,1)"
           height="1"
           width="1"
           y="0"
           x="0" /></g><g
         transform="scale(10,10)"
         id="g90"><text
           id="text92"
           style="font-variant:normal;font-weight:normal;font-size:10.90909958px;font-family:CMMI10;-inkscape-font-specification:CMMI10;writing-mode:lr-tb;fill:#000000;fill-opacity:1;fill-rule:nonzero;stroke:none"
           transform="matrix(1,0,0,-1,6.23984,122.449)"><tspan
             id="tspan94"
             y="0"
             x="0">Y</tspan></text>
</g><path
         id="path96"
         style="fill:none;stroke:#000000;stroke-width:11.95530033;stroke-linecap:butt;stroke-linejoin:miter;stroke-miterlimit:10;stroke-dasharray:none;stroke-opacity:1"
         d="M -0.00390625,381.602 1980.02,381.602" /><path
         id="path98"
         style="fill:none;stroke:#000000;stroke-width:11.95530033;stroke-linecap:butt;stroke-linejoin:miter;stroke-miterlimit:10;stroke-dasharray:none;stroke-opacity:1"
         d="m 180,201.598 0,1080.012" /><g
         transform="scale(10,10)"
         id="g100"><text
           id="text102"
           style="font-variant:normal;font-weight:normal;font-size:11.9552002px;font-family:CMCSC10;-inkscape-font-specification:CMCSC10;writing-mode:lr-tb;fill:#000000;fill-opacity:1;fill-rule:nonzero;stroke:none"
           transform="matrix(1,0,0,-1,85.441,0.111328)"><tspan
             id="tspan104"
             y="0"
             x="0 8.5141897 12.111581 19.790342 28.065205 34.667984 41.270763">Fig.63.</tspan></text>
</g></g></g></svg>