<?xml version="1.0" encoding="UTF-8" standalone="no"?>
<svg
   xmlns:dc="http://purl.org/dc/elements/1.1/"
   xmlns:cc="http://creativecommons.org/ns#"
   xmlns:rdf="http://www.w3.org/1999/02/22-rdf-syntax-ns#"
   xmlns:svg="http://www.w3.org/2000/svg"
   xmlns="http://www.w3.org/2000/svg"
   viewBox="0 0 292.5 83.75"
   height="83.75"
   width="292.5"
   xml:space="preserve"
   version="1.1"
   id="svg2"><metadata
     id="metadata8"><rdf:RDF><cc:Work
         rdf:about=""><dc:format>image/svg+xml</dc:format><dc:type
           rdf:resource="http://purl.org/dc/dcmitype/StillImage" /></cc:Work></rdf:RDF></metadata><defs
     id="defs6"><clipPath
       id="clipPath16"
       clipPathUnits="userSpaceOnUse"><path
         id="path18"
         d="M 0,67 234,67 234,0 0,0 0,67 Z" /></clipPath><clipPath
       id="clipPath24"
       clipPathUnits="userSpaceOnUse"><path
         id="path26"
         d="m 0,67.25 234,0 0,-67 -234,0 0,67 z" /></clipPath><clipPath
       id="clipPath46"
       clipPathUnits="userSpaceOnUse"><path
         id="path48"
         d="m 0,66.75 234,0 0,-67 -234,0 0,67 z" /></clipPath></defs><g
     transform="matrix(1.25,0,0,-1.25,0,83.75)"
     id="g10"><g
       id="g12"><g
         clip-path="url(#clipPath16)"
         id="g14"><g
           id="g20"><g
             clip-path="url(#clipPath24)"
             id="g22"><path
               id="path28"
               style="fill:#231f20;fill-opacity:1;fill-rule:nonzero;stroke:none"
               d="m 142.176,63.667 c -0.352,-0.141 -0.66,-0.483 -0.66,-0.733 0,-0.265 -0.194,-0.541 -0.442,-0.631 -0.234,-0.087 -0.439,-0.354 -0.439,-0.574 0,-0.234 -0.114,-0.41 -0.265,-0.41 -0.249,0 -1.054,-1.439 -3.53,-6.313 -0.747,-1.467 -1.617,-3.033 -1.961,-3.523 -0.344,-0.492 -0.764,-1.321 -0.951,-1.879 -0.405,-1.204 -1.865,-3.548 -2.659,-4.267 -1.142,-1.034 -1.779,-0.46 -4.112,3.709 -4.618,8.25 -4.167,7.612 -5.313,7.515 -0.953,-0.081 -1.071,-0.204 -1.615,-1.702 -0.32,-0.88 -0.734,-1.881 -0.911,-2.202 -0.173,-0.317 -0.484,-1.086 -0.673,-1.673 -0.199,-0.609 -0.742,-1.57 -1.235,-2.188 -0.483,-0.604 -1.472,-2.304 -2.193,-3.772 -1.444,-2.936 -2.485,-4.257 -3.356,-4.257 -0.59,0 -2.079,1.938 -2.797,3.64 -0.456,1.081 -2.814,4.345 -4.371,6.049 -0.887,0.971 -2.466,3.435 -3.518,5.49 -0.489,0.955 -1.058,1.176 -2.056,0.795 -0.264,-0.1 -0.47,-0.384 -0.47,-0.648 0,-0.47 -1.16,-3.004 -1.497,-3.272 -0.349,-0.276 -2.319,-4.156 -2.319,-4.568 0,-0.483 -1.645,-1.908 -2.202,-1.908 -0.23,0 -0.794,0.558 -1.277,1.262 -0.484,0.706 -1.067,1.432 -1.322,1.644 -0.251,0.211 -1.08,1.454 -1.849,2.775 -0.77,1.322 -1.474,2.454 -1.571,2.531 -0.452,0.352 -2.321,3.238 -3.334,5.147 -1.668,3.142 -2.962,4.397 -3.859,3.741 -0.44,-0.321 -1.908,-2.544 -1.908,-2.889 0,-0.299 -0.662,-1.616 -2.051,-4.082 -2.033,-3.611 -3.109,-5.321 -3.952,-6.283 -0.515,-0.587 -1.077,-1.402 -1.264,-1.835 -0.188,-0.433 -1.023,-1.688 -1.886,-2.833 -2.964,-3.934 -3.472,-4.666 -3.472,-4.992 0,-0.537 -0.617,-0.735 -2.085,-0.669 -1.938,0.087 -3.679,-0.5 -4.545,-1.532 -0.666,-0.793 -0.696,-0.927 -0.299,-1.336 0.358,-0.371 0.587,-0.388 1.232,-0.089 0.969,0.447 1.88,0.199 1.88,-0.513 0,-0.675 -2.291,-2.965 -2.965,-2.965 -1.523,0 -5.904,8.191 -5.418,10.129 0.088,0.352 0.529,0.786 0.969,0.955 0.449,0.171 1.395,0.518 2.129,0.781 1.497,0.535 3.924,2.298 4.806,3.49 0.804,1.085 0.846,3.699 0.086,5.373 -0.436,0.959 -0.943,1.427 -2.499,2.304 -1.823,1.028 -2.085,1.094 -3.935,0.984 -1.643,-0.097 -2.059,-0.227 -2.436,-0.763 -0.248,-0.353 -0.616,-0.646 -0.808,-0.646 -0.805,0 -2.16,-5.637 -1.828,-7.604 0.18,-1.062 0.154,-1.097 -1.078,-1.498 -1.791,-0.585 -5.79,-3.292 -6.939,-4.697 -0.528,-0.646 -1.137,-1.67 -1.355,-2.276 -0.223,-0.616 -0.596,-1.476 -0.848,-1.952 -1.117,-2.114 -0.782,-5.773 0.677,-7.369 0.295,-0.323 0.745,-0.999 0.996,-1.497 0.54,-1.073 5.002,-4.475 7.028,-5.359 0.764,-0.333 1.38,-0.694 1.38,-0.807 0,-0.33 -1.438,-1.906 -2.701,-2.959 -1.131,-0.944 -1.321,-1.001 -3.142,-0.946 -1.056,0.032 -2.405,0.252 -2.965,0.485 -0.771,0.318 -1.615,0.379 -3.376,0.238 -3.141,-0.249 -3.222,-0.282 -4.409,-1.839 -0.872,-1.145 -1.381,-2.73 -0.876,-2.73 0.097,0 0.881,0.39 1.761,0.88 2.31,1.281 3.876,1.204 7.076,-0.346 1.38,-0.669 2.561,-1.321 2.643,-1.459 0.083,-0.141 0.558,-0.25 1.086,-0.25 1.116,0 3.405,1.762 7.135,5.49 1.32,1.321 2.691,2.477 3.083,2.599 0.383,0.12 1.585,0.2 2.641,0.176 1.38,-0.031 2.488,0.153 3.847,0.639 1.823,0.653 2.29,0.961 4.668,3.077 1.064,0.947 1.116,0.959 2.496,0.629 2.466,-0.591 2.736,-0.879 2.544,-2.716 -0.151,-1.438 -0.104,-1.629 0.509,-2.057 1.339,-0.936 2.774,-0.468 3.338,1.089 0.324,0.896 -1.371,3.264 -2.722,3.801 -0.616,0.245 -1.232,0.598 -1.335,0.764 -0.104,0.168 -0.632,0.308 -1.16,0.308 -1.291,0 -1.817,0.622 -1.413,1.673 0.507,1.322 0.677,3.688 0.345,4.787 -0.169,0.557 -0.379,1.362 -0.458,1.761 -0.083,0.411 -0.217,0.966 -0.306,1.263 -0.176,0.588 0.849,2.612 1.964,3.875 0.433,0.491 1.396,1.791 2.173,2.936 0.777,1.145 1.7,2.38 2.085,2.789 0.379,0.404 1.924,2.584 3.435,4.845 1.509,2.261 2.982,4.156 3.273,4.21 0.5,0.096 1.938,-0.981 1.938,-1.45 0,-0.114 0.817,-1.41 1.835,-2.907 1.017,-1.497 2.228,-3.336 2.716,-4.125 0.49,-0.793 1.089,-1.593 1.35,-1.806 0.266,-0.216 0.655,-0.763 0.895,-1.262 0.238,-0.492 0.719,-1.439 1.087,-2.144 l 0.661,-1.262 -2.437,-4.419 c -1.344,-2.436 -2.733,-4.741 -3.097,-5.137 -0.351,-0.382 -0.661,-0.789 -0.661,-0.867 0,-0.249 -1.557,-2.599 -1.938,-2.926 -0.194,-0.167 -0.689,-1.023 -1.101,-1.904 -0.412,-0.881 -1.217,-2.259 -1.791,-3.067 -0.583,-0.822 -1.042,-1.63 -1.042,-1.836 0,-0.205 -0.117,-0.367 -0.265,-0.367 -0.145,0 -0.416,-0.455 -0.602,-1.013 -0.185,-0.557 -0.759,-1.468 -1.276,-2.025 l -0.94,-1.013 -2.789,0.234 c -4.345,0.365 -7.602,-0.768 -6.75,-2.348 0.258,-0.478 0.525,-0.602 1.024,-0.476 1.762,0.443 5.618,0.496 6.9,0.096 0.734,-0.23 2.026,-0.4 2.907,-0.384 l 1.585,0.03 1.703,2.789 c 0.932,1.527 2.162,3.686 2.716,4.771 0.56,1.096 1.754,3.098 2.671,4.477 1.97,2.965 5.07,8.093 6.23,10.305 0.555,1.058 1.017,1.586 1.389,1.586 0.608,0 8.673,-8.045 9.714,-9.689 0.356,-0.563 1.747,-2.289 3.073,-3.817 1.326,-1.526 2.556,-3.054 2.718,-3.376 0.429,-0.851 3.369,-3.376 3.932,-3.376 0.596,0 3.577,3.053 3.813,3.905 0.101,0.36 0.855,1.23 1.707,1.966 0.834,0.723 2.365,2.467 3.376,3.847 1.011,1.38 2.309,2.958 2.862,3.48 0.558,0.525 1.219,1.355 1.469,1.849 0.253,0.498 0.929,1.409 1.527,2.055 0.596,0.646 1.175,1.342 1.305,1.57 0.564,0.996 2.849,-0.205 2.849,-1.496 0,-0.206 0.108,-0.428 0.235,-0.48 0.293,-0.123 2.995,-3.901 2.995,-4.189 0,-0.278 1.534,-2.466 2.532,-3.611 0.467,-0.536 1.303,-1.585 1.871,-2.349 0.561,-0.753 1.789,-2.187 2.701,-3.156 l 1.674,-1.776 -0.749,-0.662 c -0.411,-0.362 -0.974,-0.66 -1.247,-0.66 -0.734,0 -2.672,-1.426 -2.672,-1.967 0,-0.406 0.25,-0.439 1.834,-0.25 0.999,0.121 2.037,0.221 2.275,0.221 0.243,0 2.233,-0.012 4.405,-0.025 4.111,-0.027 5.709,0.17 7.193,0.88 0.998,0.477 1.211,1.349 0.294,1.205 -0.327,-0.052 -1.38,-0.155 -2.378,-0.232 -2.043,-0.158 -1.908,-0.242 -5.784,3.575 -4.845,4.768 -8.129,8.594 -9.175,10.686 -0.44,0.881 -1.234,2.148 -1.747,2.79 -0.517,0.645 -1.046,1.504 -1.175,1.908 -0.127,0.398 -0.541,1.203 -0.906,1.762 -1.154,1.764 -1.154,2.377 0,4.756 0.584,1.203 1.054,2.329 1.054,2.525 0,0.205 0.122,0.352 0.294,0.352 0.159,0 0.453,0.367 0.645,0.807 0.194,0.447 0.917,1.615 1.614,2.613 0.696,0.995 1.694,2.716 2.222,3.832 1.251,2.642 3.151,5.659 3.563,5.654 0.381,-0.006 1.33,-0.559 0.968,-0.565 -0.304,-0.006 0.478,-1.449 1.854,-3.415 0.637,-0.911 1.171,-1.815 1.171,-1.983 0,-0.176 0.242,-0.572 0.566,-0.924 1.205,-1.315 1.077,-1.75 -0.919,-3.13 -2.233,-1.543 -3.523,-3.77 -4.02,-6.94 -0.651,-4.142 -0.573,-4.493 1.904,-8.662 1.938,-3.259 2.476,-3.938 4.055,-5.107 2.084,-1.547 4.487,-2.729 6.194,-3.048 1.427,-0.268 4.639,0.378 6.812,1.368 0.851,0.388 1.848,0.705 2.202,0.7 0.799,-0.013 1.999,-1.019 3.036,-2.545 1.338,-1.967 7.277,-8.043 8.443,-8.637 l 1.146,-0.582 1.923,0.763 c 1.776,0.705 2.128,0.749 4.624,0.567 2.877,-0.21 3.29,-0.062 2.935,1.048 -0.394,1.239 -3.669,2.039 -6.106,1.492 -2.082,-0.466 -2.932,-0.053 -5.45,2.648 -1.23,1.321 -2.568,2.885 -2.962,3.465 -0.399,0.587 -1.033,1.366 -1.424,1.753 -1.128,1.114 -0.823,2.265 0.939,3.532 1.295,0.931 1.674,1.057 3.201,1.057 1.673,0 1.766,-0.04 2.715,-1.175 0.836,-0.998 1.064,-1.125 1.512,-0.846 0.818,0.507 0.796,1.228 -0.073,2.373 -1.093,1.438 -2.336,1.94 -3.42,1.379 -0.441,-0.228 -0.917,-0.41 -1.072,-0.41 -0.153,0 -0.332,0.895 -0.396,1.981 -0.09,1.527 -0.282,2.204 -0.833,2.951 -1.192,1.616 -1.524,1.292 -1.293,-1.262 0.233,-2.584 -0.165,-4.248 -1.322,-5.521 -1.572,-1.725 -2.829,-0.792 -6.848,5.08 -0.823,1.204 -2.019,2.934 -2.638,3.817 -0.616,0.881 -1.47,2.148 -1.879,2.79 -0.418,0.657 -1.229,1.82 -1.84,2.641 -1.814,2.437 -2.534,3.92 -2.109,4.346 0.28,0.279 0.852,0.097 2.76,-0.879 2.937,-1.5 4.777,-2.294 5.932,-2.559 0.478,-0.111 1.349,-0.579 1.908,-1.025 2.276,-1.821 4.873,-2.457 7.34,-1.797 1.65,0.442 2.187,0.916 3.097,2.737 0.807,1.614 0.868,2.188 0.391,3.728 -0.916,2.965 -2.27,4.842 -4.457,6.183 -2.085,1.278 -4.25,1.578 -6.107,0.848 -1.673,-0.657 -2.938,-1.896 -2.832,-2.774 0.114,-0.944 0.896,-0.675 1.446,0.5 0.53,1.128 1.709,1.702 3.5,1.702 1.065,0 3.007,-1.615 4.235,-3.522 0.932,-1.45 1.021,-1.777 1.021,-3.803 0,-2.201 -0.009,-2.224 -1.16,-3.303 -0.646,-0.605 -1.499,-1.171 -1.923,-1.279 -1.234,-0.31 -3.67,0.91 -3.67,1.837 0,0.209 0.271,0.822 0.595,1.35 0.706,1.145 0.758,2.261 0.163,3.407 -0.512,0.982 -0.875,1.133 -2.227,0.925 -1.379,-0.212 -1.859,-1.161 -1.285,-2.541 0.611,-1.467 0.533,-2.169 -0.24,-2.163 -1.031,0.009 -3.61,1.752 -4.593,3.103 -1.56,2.143 -1.922,5.043 -0.751,6.012 0.399,0.331 0.564,0.271 1.115,-0.404 0.459,-0.563 0.91,-0.793 1.557,-0.793 1.525,0 1.848,0.262 1.848,1.497 0,2.067 -1.614,2.841 -3.904,1.874 -1.219,-0.514 -1.683,-1.228 -2.003,-3.078 -0.127,-0.734 -0.333,-1.907 -0.464,-2.641 l -0.235,-1.322 -1.203,0.034 c -1.797,0.05 -2.032,0.201 -3.246,2.08 -0.606,0.94 -1.27,1.874 -1.481,2.085 -0.205,0.205 -0.382,0.489 -0.382,0.616 0,0.13 -0.336,0.617 -0.749,1.087 -0.413,0.469 -0.965,1.213 -1.232,1.658 -0.265,0.441 -0.592,0.808 -0.72,0.808 -0.122,0 -0.235,0.191 -0.235,0.396 0,0.218 -0.264,0.634 -0.587,0.925 -0.323,0.29 -0.587,0.687 -0.587,0.881 0,0.463 -1.174,1.521 -1.908,1.72 -0.314,0.084 -0.897,0.036 -1.248,-0.106 M 58.857,51.571 c 0.512,-1.233 0.055,-2.616 -1.077,-3.258 -0.499,-0.284 -1.027,-0.5 -1.218,-0.5 -0.183,0 -0.837,-0.265 -1.424,-0.578 -2.384,-1.268 -3.694,-0.508 -3.325,1.929 0.247,1.631 1.476,2.695 3.912,3.388 1.967,0.559 2.571,0.37 3.132,-0.981 m 63.456,-1.932 c 0.179,-0.116 0.818,-1.195 1.424,-2.399 0.607,-1.203 1.603,-2.86 2.216,-3.684 1.641,-2.202 1.81,-2.96 1.014,-4.551 -0.36,-0.721 -1.348,-2.056 -2.172,-2.936 -0.824,-0.881 -1.967,-2.296 -2.51,-3.112 -0.549,-0.822 -1.435,-1.889 -1.969,-2.363 -0.539,-0.483 -1.723,-1.733 -2.67,-2.819 -0.948,-1.087 -2.42,-2.565 -3.319,-3.334 -1.962,-1.677 -2.498,-1.613 -4.451,0.53 -0.764,0.838 -2.72,2.877 -4.337,4.521 -4.218,4.287 -7.77,8.355 -7.77,8.897 0,0.26 -0.44,1.174 -0.99,2.055 -1.194,1.914 -1.127,2.348 0.828,5.314 0.736,1.116 1.336,2.144 1.336,2.29 0,0.148 0.323,0.561 0.734,0.939 l 0.734,0.676 1.174,-1.263 c 0.656,-0.704 1.175,-1.392 1.175,-1.556 0,-0.159 0.772,-1.159 1.688,-2.188 0.916,-1.027 1.889,-2.201 2.129,-2.568 0.241,-0.37 1.07,-1.497 1.835,-2.495 0.765,-0.999 1.394,-1.98 1.394,-2.174 0,-0.199 0.382,-0.715 0.881,-1.19 1.23,-1.17 1.958,-0.865 3.466,1.455 0.688,1.056 1.374,2.245 1.511,2.613 0.138,0.372 0.736,1.438 1.336,2.379 0.599,0.938 1.342,2.241 1.658,2.906 0.321,0.675 0.69,1.397 0.837,1.644 0.144,0.238 0.487,0.94 0.751,1.526 0.486,1.087 1.258,1.417 2.067,0.887 m 27.129,-0.943 c 0.306,-0.162 0.99,-0.927 1.513,-1.69 0.522,-0.764 1.126,-1.568 1.335,-1.777 0.206,-0.205 0.382,-0.503 0.382,-0.646 0,-0.204 0.832,-1.526 3.677,-5.843 0.32,-0.485 1.15,-1.643 1.852,-2.583 2.717,-3.64 5.041,-7.132 5.041,-7.575 0,-0.238 -0.324,-0.648 -0.705,-0.894 -0.582,-0.377 -1.028,-0.408 -2.555,-0.178 -4.462,0.67 -7.103,1.89 -9.561,4.42 -2.255,2.32 -2.941,3.434 -4.079,6.634 -0.741,2.084 -0.788,2.481 -0.599,5.065 0.157,2.143 0.351,3.018 0.823,3.715 1.098,1.614 1.778,1.933 2.876,1.352 M 50.293,43.175 c 0.278,-0.312 0.77,-1.352 1.109,-2.35 0.76,-2.231 2.526,-5.025 4.399,-6.958 l 1.422,-1.469 -1.427,-2.553 c -1.574,-2.819 -3.771,-5.226 -4.769,-5.226 -1.204,0 -4.599,2.541 -4.628,3.464 -0.005,0.195 -0.273,0.778 -0.597,1.307 -0.325,0.528 -0.587,1.111 -0.587,1.306 0,0.189 -0.161,0.734 -0.346,1.175 -0.524,1.248 -0.65,2.113 -0.636,4.375 0.009,1.614 0.155,2.316 0.643,3.111 0.343,0.559 0.632,1.216 0.632,1.439 0,0.411 1.849,2.026 2.319,2.026 0.142,0 0.434,0.205 0.625,0.44 0.488,0.595 1.264,0.558 1.841,-0.087 m 16.488,-8.779 c 0.244,-0.969 -0.356,-3.906 -0.93,-4.551 -0.599,-0.673 -1.524,-0.648 -2.434,0.068 -0.41,0.323 -0.882,0.577 -1.071,0.577 -0.19,0 -0.416,0.206 -0.516,0.471 -0.178,0.463 1.91,3.53 3.144,4.619 0.528,0.466 0.638,0.472 1.1,0.048 0.277,-0.253 0.603,-0.821 0.707,-1.232 m -3.584,-6.181 c 0.441,-0.424 0.807,-0.924 0.807,-1.101 0,-0.686 -2.26,-2.409 -3.787,-2.885 -1.585,-0.497 -3.017,-0.645 -3.318,-0.344 -0.25,0.251 0.353,2.231 0.823,2.701 0.217,0.218 0.584,0.646 0.778,0.91 0.2,0.272 0.807,0.859 1.335,1.292 0.822,0.673 1.09,0.748 1.763,0.499 0.431,-0.16 1.159,-0.647 1.599,-1.072" /><path
               id="path30"
               style="fill:#231f20;fill-opacity:1;fill-rule:nonzero;stroke:none"
               d="m 110.085,62.273 c -0.515,-0.659 -0.605,-1.072 -0.49,-2.246 0.183,-1.879 1.029,-2.659 2.648,-2.442 1.439,0.192 1.886,0.592 2.275,2.031 0.289,1.072 0.251,1.218 -0.616,2.304 -0.796,0.999 -1.083,1.161 -2.055,1.161 -0.881,0 -1.27,-0.179 -1.762,-0.808" /><path
               id="path32"
               style="fill:#231f20;fill-opacity:1;fill-rule:nonzero;stroke:none"
               d="m 79.331,44.375 c -0.521,-0.21 -1.233,-1.699 -1.233,-2.581 0,-0.527 0.263,-0.896 0.939,-1.309 1.204,-0.737 1.533,-0.731 2.262,0.046 1.488,1.589 -0.06,4.61 -1.968,3.844" /><path
               id="path34"
               style="fill:#231f20;fill-opacity:1;fill-rule:nonzero;stroke:none"
               d="m 175.992,42.382 c -0.44,-0.675 -0.439,-0.793 0.002,-1.468 1.158,-1.77 4.019,-0.998 3.05,0.821 -0.797,1.498 -2.293,1.815 -3.052,0.647" /><path
               id="path36"
               style="fill:#231f20;fill-opacity:1;fill-rule:nonzero;stroke:none"
               d="m 128.068,25.353 c -0.347,-0.447 -0.707,-1.248 -0.822,-1.835 -0.174,-0.881 -0.096,-1.126 0.5,-1.582 1.262,-0.965 3.258,-0.635 3.784,0.627 0.38,0.911 0.181,2.417 -0.38,2.88 -0.195,0.162 -0.821,0.383 -1.408,0.496 -0.91,0.178 -1.142,0.096 -1.674,-0.586" /><path
               id="path38"
               style="fill:#231f20;fill-opacity:1;fill-rule:nonzero;stroke:none"
               d="m 94.187,24.594 c -0.586,-0.339 -1.223,-2.324 -0.963,-2.999 0.094,-0.245 0.523,-0.513 0.963,-0.603 0.44,-0.089 1.014,-0.244 1.292,-0.348 0.621,-0.234 1.996,1.068 1.996,1.89 0,0.734 -1.572,2.374 -2.26,2.361 -0.295,-0.007 -0.751,-0.141 -1.028,-0.301" /><path
               id="path40"
               style="fill:#231f20;fill-opacity:1;fill-rule:nonzero;stroke:none"
               d="M 7.458,15.195 C 6.224,14.838 5.083,13.629 4.907,12.493 4.707,11.201 5.771,8.876 6.752,8.463 7.634,8.091 9.102,6.793 9.102,6.387 9.102,5.87 8.25,5.767 7.34,6.171 6.841,6.393 6.459,6.664 6.459,6.797 6.459,6.93 6.229,7.281 5.931,7.604 5.47,8.104 5.333,8.127 4.859,7.781 4.356,7.414 4.346,7.281 4.712,6.02 5.002,5.021 5.385,4.471 6.136,3.971 c 2.241,-1.49 4.639,-1.207 6.899,0.81 1.615,1.442 3.214,1.918 4.346,1.296 0.712,-0.391 7.31,-0.528 34.439,-0.72 12.507,-0.087 52.93,-0.134 53.876,-0.062 0.243,0.019 1.013,0.015 1.718,-0.01 0.998,-0.034 1.309,-0.172 1.423,-0.631 0.081,-0.323 0.279,-0.588 0.44,-0.588 0.165,0 0.618,-0.255 1.029,-0.582 1.017,-0.806 2.525,-0.59 3.845,0.551 0.588,0.507 1.455,0.985 1.953,1.074 0.493,0.089 4.859,0.207 9.704,0.264 4.848,0.057 14.944,0.182 22.46,0.279 7.516,0.097 13.916,0.165 14.24,0.153 1.583,-0.066 30.563,-0.233 36.993,-0.214 11.011,0.031 23.788,-0.076 26.277,-0.222 1.38,-0.08 2.454,0.002 2.877,0.221 0.704,0.362 0.904,1.119 0.294,1.119 -0.211,0 -3.141,0.079 -6.547,0.177 -3.406,0.096 -7.875,0.215 -9.982,0.263 -2.109,0.049 -6.313,0.167 -9.397,0.265 -3.074,0.097 -10.451,0.252 -16.441,0.346 -9.102,0.141 -20.08,0.357 -23.047,0.453 -0.404,0.012 -5.549,0.029 -11.45,0.037 -5.901,0.009 -11.64,0.049 -12.772,0.09 -2.01,0.073 -5.167,0.084 -11.303,0.04 -3.582,-0.026 -10.194,0.276 -12.331,0.564 -0.823,0.111 -1.988,0.452 -2.584,0.756 -1.469,0.749 -1.97,0.692 -3.289,-0.381 L 108.69,8.412 98.312,8.279 C 92.591,8.207 82.531,8.17 75.896,8.197 17.821,8.433 15.684,8.471 15.045,9.293 c -0.196,0.253 -0.365,0.821 -0.365,1.232 0,0.413 -0.305,1.089 -0.66,1.469 -0.358,0.381 -0.792,0.96 -0.948,1.262 -0.342,0.665 -2.531,1.844 -3.823,2.057 -0.484,0.08 -1.292,0.027 -1.791,-0.118 m 2.876,-1.687 c 1.615,-0.69 2.204,-1.703 1.833,-3.158 -0.45,-1.762 -1.021,-1.853 -2.713,-0.432 -1.674,1.405 -2.156,2.7 -1.343,3.603 0.597,0.663 0.639,0.663 2.223,-0.013" /><g
               id="g42"><g
                 clip-path="url(#clipPath46)"
                 id="g44"><path
                   id="path50"
                   style="fill:#231f20;fill-opacity:1;fill-rule:nonzero;stroke:none"
                   d="m 142.176,63.167 c -0.352,-0.141 -0.66,-0.483 -0.66,-0.733 0,-0.265 -0.194,-0.541 -0.442,-0.631 -0.234,-0.087 -0.439,-0.354 -0.439,-0.574 0,-0.234 -0.114,-0.41 -0.265,-0.41 -0.249,0 -1.054,-1.439 -3.53,-6.313 -0.747,-1.467 -1.617,-3.033 -1.961,-3.523 -0.344,-0.492 -0.764,-1.321 -0.951,-1.879 -0.405,-1.204 -1.865,-3.548 -2.659,-4.267 -1.142,-1.034 -1.779,-0.46 -4.112,3.709 -4.618,8.25 -4.167,7.612 -5.313,7.515 -0.953,-0.081 -1.071,-0.204 -1.615,-1.702 -0.32,-0.88 -0.734,-1.881 -0.911,-2.202 -0.173,-0.317 -0.484,-1.086 -0.673,-1.673 -0.199,-0.609 -0.742,-1.57 -1.235,-2.188 -0.483,-0.604 -1.472,-2.304 -2.193,-3.772 -1.444,-2.936 -2.485,-4.257 -3.356,-4.257 -0.59,0 -2.079,1.938 -2.797,3.64 -0.456,1.081 -2.814,4.345 -4.371,6.049 -0.887,0.971 -2.466,3.435 -3.518,5.49 -0.489,0.955 -1.058,1.176 -2.056,0.795 -0.264,-0.1 -0.47,-0.384 -0.47,-0.648 0,-0.47 -1.16,-3.004 -1.497,-3.272 -0.349,-0.276 -2.319,-4.156 -2.319,-4.568 0,-0.483 -1.645,-1.908 -2.202,-1.908 -0.23,0 -0.794,0.558 -1.277,1.262 -0.484,0.706 -1.067,1.432 -1.322,1.644 -0.251,0.211 -1.08,1.454 -1.849,2.775 -0.77,1.322 -1.474,2.454 -1.571,2.531 -0.452,0.352 -2.321,3.238 -3.334,5.147 -1.668,3.142 -2.962,4.397 -3.859,3.741 -0.44,-0.321 -1.908,-2.544 -1.908,-2.889 0,-0.299 -0.662,-1.616 -2.051,-4.082 -2.033,-3.611 -3.109,-5.321 -3.952,-6.283 -0.515,-0.587 -1.077,-1.402 -1.264,-1.835 -0.188,-0.433 -1.023,-1.688 -1.886,-2.833 -2.964,-3.934 -3.472,-4.666 -3.472,-4.992 0,-0.537 -0.617,-0.735 -2.085,-0.669 -1.938,0.087 -3.679,-0.5 -4.545,-1.532 -0.666,-0.793 -0.696,-0.927 -0.299,-1.336 0.358,-0.371 0.587,-0.388 1.232,-0.089 0.969,0.447 1.88,0.199 1.88,-0.513 0,-0.675 -2.291,-2.965 -2.965,-2.965 -1.523,0 -5.904,8.191 -5.418,10.129 0.088,0.352 0.529,0.786 0.969,0.955 0.449,0.171 1.395,0.518 2.129,0.781 1.497,0.535 3.924,2.298 4.806,3.49 0.804,1.085 0.846,3.699 0.086,5.373 -0.436,0.959 -0.943,1.427 -2.499,2.304 -1.823,1.028 -2.085,1.094 -3.935,0.984 -1.643,-0.097 -2.059,-0.227 -2.436,-0.763 -0.248,-0.353 -0.616,-0.646 -0.808,-0.646 -0.805,0 -2.16,-5.637 -1.828,-7.604 0.18,-1.062 0.154,-1.097 -1.078,-1.498 -1.791,-0.585 -5.79,-3.292 -6.939,-4.697 -0.528,-0.646 -1.137,-1.67 -1.355,-2.276 -0.223,-0.616 -0.596,-1.476 -0.848,-1.952 -1.117,-2.114 -0.782,-5.773 0.677,-7.369 0.295,-0.323 0.745,-0.999 0.996,-1.497 0.54,-1.073 5.002,-4.475 7.028,-5.359 0.764,-0.333 1.38,-0.694 1.38,-0.807 0,-0.33 -1.438,-1.906 -2.701,-2.959 -1.131,-0.944 -1.321,-1.001 -3.142,-0.946 -1.056,0.032 -2.405,0.252 -2.965,0.485 -0.771,0.318 -1.615,0.379 -3.376,0.238 -3.141,-0.249 -3.222,-0.282 -4.409,-1.839 -0.872,-1.145 -1.381,-2.73 -0.876,-2.73 0.097,0 0.881,0.39 1.761,0.88 2.31,1.281 3.876,1.204 7.076,-0.346 1.38,-0.669 2.561,-1.321 2.643,-1.459 0.083,-0.141 0.558,-0.25 1.086,-0.25 1.116,0 3.405,1.762 7.135,5.49 1.32,1.321 2.691,2.477 3.083,2.599 0.383,0.12 1.585,0.2 2.641,0.176 1.38,-0.031 2.488,0.153 3.847,0.639 1.823,0.653 2.29,0.961 4.668,3.077 1.064,0.947 1.116,0.959 2.496,0.629 2.466,-0.591 2.736,-0.879 2.544,-2.716 -0.151,-1.438 -0.104,-1.629 0.509,-2.057 1.339,-0.936 2.774,-0.468 3.338,1.089 0.324,0.896 -1.371,3.264 -2.722,3.801 -0.616,0.245 -1.232,0.598 -1.335,0.764 -0.104,0.168 -0.632,0.308 -1.16,0.308 -1.291,0 -1.817,0.622 -1.413,1.673 0.507,1.322 0.677,3.688 0.345,4.787 -0.169,0.557 -0.379,1.362 -0.458,1.761 -0.083,0.411 -0.217,0.966 -0.306,1.263 -0.176,0.588 0.849,2.612 1.964,3.875 0.433,0.491 1.396,1.791 2.173,2.936 0.777,1.145 1.7,2.38 2.085,2.789 0.379,0.404 1.924,2.584 3.435,4.845 1.509,2.261 2.982,4.156 3.273,4.21 0.5,0.096 1.938,-0.981 1.938,-1.45 0,-0.114 0.817,-1.41 1.835,-2.907 1.017,-1.497 2.228,-3.336 2.716,-4.125 0.49,-0.793 1.089,-1.593 1.35,-1.806 0.266,-0.216 0.655,-0.763 0.895,-1.262 0.238,-0.492 0.719,-1.439 1.087,-2.144 l 0.661,-1.262 -2.437,-4.419 c -1.344,-2.436 -2.733,-4.741 -3.097,-5.137 -0.351,-0.382 -0.661,-0.789 -0.661,-0.867 0,-0.249 -1.557,-2.599 -1.938,-2.926 -0.194,-0.167 -0.689,-1.023 -1.101,-1.904 -0.412,-0.881 -1.217,-2.259 -1.791,-3.067 -0.583,-0.822 -1.042,-1.63 -1.042,-1.836 0,-0.205 -0.117,-0.367 -0.265,-0.367 -0.145,0 -0.416,-0.455 -0.602,-1.013 -0.185,-0.557 -0.759,-1.468 -1.276,-2.025 l -0.94,-1.013 -2.789,0.234 c -4.345,0.365 -7.602,-0.768 -6.75,-2.348 0.258,-0.478 0.525,-0.602 1.024,-0.476 1.762,0.443 5.618,0.496 6.9,0.096 0.734,-0.23 2.026,-0.4 2.907,-0.384 l 1.585,0.03 1.703,2.789 c 0.932,1.527 2.162,3.686 2.716,4.771 0.56,1.096 1.754,3.098 2.671,4.477 1.97,2.965 5.07,8.093 6.23,10.305 0.555,1.058 1.017,1.586 1.389,1.586 0.608,0 8.673,-8.045 9.714,-9.689 0.356,-0.563 1.747,-2.289 3.073,-3.817 1.326,-1.526 2.556,-3.054 2.718,-3.376 0.429,-0.851 3.369,-3.376 3.932,-3.376 0.596,0 3.577,3.053 3.813,3.905 0.101,0.36 0.855,1.23 1.707,1.966 0.834,0.723 2.365,2.467 3.376,3.847 1.011,1.38 2.309,2.958 2.862,3.48 0.558,0.525 1.219,1.355 1.469,1.849 0.253,0.498 0.929,1.409 1.527,2.055 0.596,0.646 1.175,1.342 1.305,1.57 0.564,0.996 2.849,-0.205 2.849,-1.496 0,-0.206 0.108,-0.428 0.235,-0.48 0.293,-0.123 2.995,-3.901 2.995,-4.189 0,-0.278 1.534,-2.466 2.532,-3.611 0.467,-0.536 1.303,-1.585 1.871,-2.349 0.561,-0.753 1.789,-2.187 2.701,-3.156 l 1.674,-1.776 -0.749,-0.662 c -0.411,-0.362 -0.974,-0.66 -1.247,-0.66 -0.734,0 -2.672,-1.426 -2.672,-1.967 0,-0.406 0.25,-0.439 1.834,-0.25 0.999,0.121 2.037,0.221 2.275,0.221 0.243,0 2.233,-0.012 4.405,-0.025 4.111,-0.027 5.709,0.17 7.193,0.88 0.998,0.477 1.211,1.349 0.294,1.205 -0.327,-0.052 -1.38,-0.155 -2.378,-0.232 -2.043,-0.158 -1.908,-0.242 -5.784,3.575 -4.845,4.768 -8.129,8.594 -9.175,10.686 -0.44,0.881 -1.234,2.148 -1.747,2.79 -0.517,0.645 -1.046,1.504 -1.175,1.908 -0.127,0.398 -0.541,1.203 -0.906,1.762 -1.154,1.764 -1.154,2.377 0,4.756 0.584,1.203 1.054,2.329 1.054,2.525 0,0.205 0.122,0.352 0.294,0.352 0.159,0 0.453,0.367 0.645,0.807 0.194,0.447 0.917,1.615 1.614,2.613 0.696,0.995 1.694,2.716 2.222,3.832 1.251,2.642 3.151,5.659 3.563,5.654 0.381,-0.006 1.33,-0.559 0.968,-0.565 -0.304,-0.006 0.478,-1.449 1.854,-3.415 0.637,-0.911 1.171,-1.815 1.171,-1.983 0,-0.176 0.242,-0.572 0.566,-0.924 1.205,-1.315 1.077,-1.75 -0.919,-3.13 -2.233,-1.543 -3.523,-3.77 -4.02,-6.94 -0.651,-4.142 -0.573,-4.493 1.904,-8.662 1.938,-3.259 2.476,-3.938 4.055,-5.107 2.084,-1.547 4.487,-2.729 6.194,-3.048 1.427,-0.268 4.639,0.378 6.812,1.368 0.851,0.388 1.848,0.705 2.202,0.7 0.799,-0.013 1.999,-1.019 3.036,-2.545 1.338,-1.967 7.277,-8.043 8.443,-8.637 l 1.146,-0.582 1.923,0.763 c 1.776,0.705 2.128,0.749 4.624,0.567 2.877,-0.21 3.29,-0.062 2.935,1.048 -0.394,1.239 -3.669,2.039 -6.106,1.492 -2.082,-0.466 -2.932,-0.053 -5.45,2.648 -1.23,1.321 -2.568,2.885 -2.962,3.465 -0.399,0.587 -1.033,1.366 -1.424,1.753 -1.128,1.114 -0.823,2.265 0.939,3.532 1.295,0.931 1.674,1.057 3.201,1.057 1.673,0 1.766,-0.04 2.715,-1.175 0.836,-0.998 1.064,-1.125 1.512,-0.846 0.818,0.507 0.796,1.228 -0.073,2.373 -1.093,1.438 -2.336,1.94 -3.42,1.379 -0.441,-0.229 -0.917,-0.41 -1.072,-0.41 -0.153,0 -0.332,0.895 -0.396,1.981 -0.09,1.527 -0.282,2.204 -0.833,2.951 -1.192,1.616 -1.524,1.292 -1.293,-1.262 0.233,-2.584 -0.165,-4.248 -1.322,-5.521 -1.572,-1.725 -2.829,-0.792 -6.848,5.08 -0.823,1.204 -2.019,2.934 -2.638,3.817 -0.616,0.881 -1.47,2.148 -1.879,2.79 -0.418,0.657 -1.229,1.82 -1.84,2.641 -1.814,2.437 -2.534,3.92 -2.109,4.346 0.28,0.279 0.852,0.097 2.76,-0.879 2.937,-1.5 4.777,-2.294 5.932,-2.559 0.478,-0.111 1.349,-0.579 1.908,-1.025 2.276,-1.821 4.873,-2.457 7.34,-1.797 1.65,0.442 2.187,0.916 3.097,2.737 0.807,1.614 0.868,2.188 0.391,3.728 -0.916,2.965 -2.27,4.842 -4.457,6.183 -2.085,1.278 -4.25,1.578 -6.107,0.848 -1.673,-0.657 -2.938,-1.896 -2.832,-2.774 0.114,-0.944 0.896,-0.675 1.446,0.5 0.53,1.128 1.709,1.702 3.5,1.702 1.065,0 3.007,-1.615 4.235,-3.522 0.932,-1.45 1.021,-1.777 1.021,-3.803 0,-2.201 -0.009,-2.224 -1.16,-3.303 -0.646,-0.605 -1.499,-1.171 -1.923,-1.279 -1.234,-0.31 -3.67,0.91 -3.67,1.837 0,0.209 0.271,0.822 0.595,1.35 0.706,1.145 0.758,2.261 0.163,3.407 -0.512,0.982 -0.875,1.133 -2.227,0.925 -1.379,-0.212 -1.859,-1.161 -1.285,-2.541 0.611,-1.467 0.533,-2.169 -0.24,-2.163 -1.031,0.009 -3.61,1.752 -4.593,3.103 -1.56,2.143 -1.922,5.043 -0.751,6.012 0.399,0.331 0.564,0.271 1.115,-0.404 0.459,-0.563 0.91,-0.793 1.557,-0.793 1.525,0 1.848,0.262 1.848,1.497 0,2.067 -1.614,2.841 -3.904,1.874 -1.219,-0.514 -1.683,-1.228 -2.003,-3.078 -0.127,-0.734 -0.333,-1.907 -0.464,-2.641 l -0.235,-1.322 -1.203,0.034 c -1.797,0.05 -2.032,0.201 -3.246,2.08 -0.606,0.94 -1.27,1.874 -1.481,2.085 -0.205,0.205 -0.382,0.489 -0.382,0.616 0,0.13 -0.336,0.617 -0.749,1.087 -0.413,0.469 -0.965,1.213 -1.232,1.658 -0.265,0.441 -0.592,0.808 -0.72,0.808 -0.122,0 -0.235,0.191 -0.235,0.396 0,0.218 -0.264,0.634 -0.587,0.925 -0.323,0.29 -0.587,0.687 -0.587,0.881 0,0.463 -1.174,1.521 -1.908,1.72 -0.314,0.084 -0.897,0.036 -1.248,-0.106 M 58.857,51.071 c 0.512,-1.233 0.055,-2.616 -1.077,-3.258 -0.499,-0.284 -1.027,-0.5 -1.218,-0.5 -0.183,0 -0.837,-0.265 -1.424,-0.578 -2.384,-1.268 -3.694,-0.508 -3.325,1.929 0.247,1.631 1.476,2.695 3.912,3.388 1.967,0.559 2.571,0.37 3.132,-0.981 m 63.456,-1.932 c 0.179,-0.116 0.818,-1.195 1.424,-2.399 0.607,-1.203 1.603,-2.86 2.216,-3.684 1.641,-2.202 1.81,-2.96 1.014,-4.551 -0.36,-0.721 -1.348,-2.056 -2.172,-2.936 -0.824,-0.881 -1.967,-2.296 -2.51,-3.112 -0.549,-0.822 -1.435,-1.889 -1.969,-2.363 -0.539,-0.483 -1.723,-1.733 -2.67,-2.819 -0.948,-1.087 -2.42,-2.565 -3.319,-3.334 -1.962,-1.677 -2.498,-1.613 -4.451,0.53 -0.764,0.838 -2.72,2.877 -4.337,4.521 -4.218,4.287 -7.77,8.355 -7.77,8.897 0,0.26 -0.44,1.174 -0.99,2.055 -1.194,1.914 -1.127,2.348 0.828,5.314 0.736,1.116 1.336,2.144 1.336,2.29 0,0.148 0.323,0.561 0.734,0.939 l 0.734,0.676 1.174,-1.263 c 0.656,-0.704 1.175,-1.392 1.175,-1.556 0,-0.159 0.772,-1.159 1.688,-2.188 0.916,-1.027 1.889,-2.201 2.129,-2.568 0.241,-0.37 1.07,-1.497 1.835,-2.495 0.765,-0.999 1.394,-1.98 1.394,-2.174 0,-0.199 0.382,-0.715 0.881,-1.19 1.23,-1.17 1.958,-0.865 3.466,1.455 0.688,1.056 1.374,2.245 1.511,2.613 0.138,0.372 0.736,1.438 1.336,2.379 0.599,0.938 1.342,2.241 1.658,2.906 0.321,0.675 0.69,1.397 0.837,1.644 0.144,0.238 0.487,0.94 0.751,1.526 0.486,1.087 1.258,1.417 2.067,0.887 m 27.129,-0.943 c 0.306,-0.162 0.99,-0.927 1.513,-1.69 0.522,-0.764 1.126,-1.568 1.335,-1.777 0.206,-0.205 0.382,-0.503 0.382,-0.646 0,-0.204 0.832,-1.526 3.677,-5.843 0.32,-0.485 1.15,-1.643 1.852,-2.583 2.717,-3.64 5.041,-7.132 5.041,-7.575 0,-0.238 -0.324,-0.648 -0.705,-0.894 -0.582,-0.377 -1.028,-0.408 -2.555,-0.178 -4.462,0.67 -7.103,1.89 -9.561,4.42 -2.255,2.32 -2.941,3.434 -4.079,6.634 -0.741,2.084 -0.788,2.481 -0.599,5.065 0.157,2.143 0.351,3.018 0.823,3.715 1.098,1.614 1.778,1.933 2.876,1.352 M 50.293,42.675 c 0.278,-0.312 0.77,-1.352 1.109,-2.35 0.76,-2.231 2.526,-5.025 4.399,-6.958 l 1.422,-1.469 -1.427,-2.553 c -1.574,-2.819 -3.771,-5.226 -4.769,-5.226 -1.204,0 -4.599,2.541 -4.628,3.464 -0.005,0.195 -0.273,0.778 -0.597,1.307 -0.325,0.528 -0.587,1.111 -0.587,1.306 0,0.189 -0.161,0.734 -0.346,1.175 -0.524,1.248 -0.65,2.113 -0.636,4.375 0.009,1.614 0.155,2.316 0.643,3.111 0.343,0.559 0.632,1.216 0.632,1.439 0,0.411 1.849,2.026 2.319,2.026 0.142,0 0.434,0.205 0.625,0.44 0.488,0.595 1.264,0.558 1.841,-0.087 m 16.488,-8.779 c 0.244,-0.969 -0.356,-3.906 -0.93,-4.551 -0.599,-0.673 -1.524,-0.648 -2.434,0.068 -0.41,0.323 -0.882,0.577 -1.071,0.577 -0.19,0 -0.416,0.206 -0.516,0.471 -0.178,0.463 1.91,3.53 3.144,4.619 0.528,0.466 0.638,0.472 1.1,0.048 0.277,-0.253 0.603,-0.821 0.707,-1.232 m -3.584,-6.181 c 0.441,-0.424 0.807,-0.924 0.807,-1.101 0,-0.686 -2.26,-2.409 -3.787,-2.885 -1.585,-0.497 -3.017,-0.645 -3.318,-0.344 -0.25,0.251 0.353,2.231 0.823,2.701 0.217,0.218 0.584,0.646 0.778,0.91 0.2,0.272 0.807,0.859 1.335,1.292 0.822,0.673 1.09,0.748 1.763,0.499 0.431,-0.16 1.159,-0.647 1.599,-1.072" /><path
                   id="path52"
                   style="fill:#231f20;fill-opacity:1;fill-rule:nonzero;stroke:none"
                   d="m 110.085,61.773 c -0.515,-0.659 -0.605,-1.072 -0.49,-2.246 0.183,-1.879 1.029,-2.659 2.648,-2.442 1.439,0.192 1.886,0.592 2.275,2.031 0.289,1.072 0.251,1.218 -0.616,2.304 -0.796,0.999 -1.083,1.161 -2.055,1.161 -0.881,0 -1.27,-0.179 -1.762,-0.808" /><path
                   id="path54"
                   style="fill:#231f20;fill-opacity:1;fill-rule:nonzero;stroke:none"
                   d="m 79.331,43.875 c -0.521,-0.21 -1.233,-1.699 -1.233,-2.581 0,-0.527 0.263,-0.896 0.939,-1.309 1.204,-0.737 1.533,-0.731 2.262,0.046 1.488,1.589 -0.06,4.61 -1.968,3.844" /><path
                   id="path56"
                   style="fill:#231f20;fill-opacity:1;fill-rule:nonzero;stroke:none"
                   d="m 175.992,41.882 c -0.44,-0.675 -0.439,-0.793 0.002,-1.468 1.158,-1.77 4.019,-0.998 3.05,0.821 -0.797,1.498 -2.293,1.815 -3.052,0.647" /><path
                   id="path58"
                   style="fill:#231f20;fill-opacity:1;fill-rule:nonzero;stroke:none"
                   d="m 128.068,24.853 c -0.347,-0.447 -0.707,-1.248 -0.822,-1.835 -0.174,-0.881 -0.096,-1.126 0.5,-1.582 1.262,-0.965 3.258,-0.635 3.784,0.627 0.38,0.911 0.181,2.417 -0.38,2.88 -0.195,0.162 -0.821,0.383 -1.408,0.496 -0.91,0.178 -1.142,0.096 -1.674,-0.586" /><path
                   id="path60"
                   style="fill:#231f20;fill-opacity:1;fill-rule:nonzero;stroke:none"
                   d="m 94.187,24.094 c -0.586,-0.339 -1.223,-2.324 -0.963,-2.999 0.094,-0.245 0.523,-0.513 0.963,-0.603 0.44,-0.089 1.014,-0.244 1.292,-0.348 0.621,-0.234 1.996,1.068 1.996,1.89 0,0.734 -1.572,2.374 -2.26,2.361 -0.295,-0.007 -0.751,-0.141 -1.028,-0.301" /><path
                   id="path62"
                   style="fill:#231f20;fill-opacity:1;fill-rule:nonzero;stroke:none"
                   d="M 7.458,14.695 C 6.224,14.338 5.083,13.129 4.907,11.993 4.707,10.701 5.771,8.376 6.752,7.963 7.634,7.591 9.102,6.293 9.102,5.887 9.102,5.37 8.25,5.267 7.34,5.671 6.841,5.893 6.459,6.164 6.459,6.297 6.459,6.43 6.229,6.781 5.931,7.104 5.47,7.604 5.333,7.627 4.859,7.281 4.356,6.914 4.346,6.781 4.712,5.52 5.002,4.521 5.385,3.971 6.136,3.471 c 2.241,-1.49 4.639,-1.207 6.899,0.81 1.615,1.442 3.214,1.918 4.346,1.296 0.712,-0.391 7.31,-0.528 34.439,-0.72 12.507,-0.087 52.93,-0.134 53.876,-0.062 0.243,0.019 1.013,0.015 1.718,-0.01 0.998,-0.034 1.309,-0.172 1.423,-0.631 0.081,-0.323 0.279,-0.588 0.44,-0.588 0.165,0 0.618,-0.255 1.029,-0.582 1.017,-0.806 2.525,-0.59 3.845,0.551 0.588,0.507 1.455,0.985 1.953,1.074 0.493,0.089 4.859,0.207 9.704,0.264 4.848,0.057 14.944,0.182 22.46,0.279 7.516,0.097 13.916,0.165 14.24,0.153 1.583,-0.066 30.563,-0.233 36.993,-0.214 11.011,0.031 23.788,-0.076 26.277,-0.222 1.38,-0.08 2.454,0.002 2.877,0.221 0.704,0.362 0.904,1.119 0.294,1.119 -0.211,0 -3.141,0.079 -6.547,0.177 -3.406,0.096 -7.875,0.215 -9.982,0.263 -2.109,0.049 -6.313,0.167 -9.397,0.265 -3.074,0.097 -10.451,0.252 -16.441,0.346 -9.102,0.141 -20.08,0.357 -23.047,0.453 -0.404,0.012 -5.549,0.029 -11.45,0.037 -5.901,0.009 -11.64,0.049 -12.772,0.09 -2.01,0.073 -5.167,0.084 -11.303,0.04 -3.582,-0.026 -10.194,0.276 -12.331,0.564 -0.823,0.111 -1.988,0.452 -2.584,0.756 -1.469,0.749 -1.97,0.692 -3.289,-0.381 L 108.69,7.912 98.312,7.779 C 92.591,7.707 82.531,7.67 75.896,7.697 17.821,7.933 15.684,7.971 15.045,8.793 14.849,9.046 14.68,9.614 14.68,10.025 c 0,0.413 -0.305,1.089 -0.66,1.469 -0.358,0.381 -0.792,0.96 -0.948,1.262 -0.342,0.665 -2.531,1.844 -3.823,2.057 -0.484,0.08 -1.292,0.027 -1.791,-0.118 m 2.876,-1.687 c 1.615,-0.69 2.204,-1.703 1.833,-3.158 -0.45,-1.762 -1.021,-1.853 -2.713,-0.432 -1.674,1.405 -2.156,2.7 -1.343,3.603 0.597,0.663 0.639,0.663 2.223,-0.013" /></g></g></g></g></g></g></g></svg>